<?xml version="1.0" encoding="utf-8"?>
<!-- Generator: Adobe Illustrator 27.7.0, SVG Export Plug-In . SVG Version: 6.00 Build 0)  -->
<svg version="1.1" id="Camada_1" xmlns="http://www.w3.org/2000/svg" xmlns:xlink="http://www.w3.org/1999/xlink" x="0px" y="0px"
	 viewBox="0 0 72 72" style="enable-background:new 0 0 72 72;" xml:space="preserve">
<style type="text/css">
	.st0{fill:#FF6600;}
</style>
<g>
	<path class="st0" d="M36,8.4C51.4,8.4,63.6,21,63.6,36S51,63.6,36,63.6S8.4,51.4,8.4,36S20.6,8.4,36,8.4 M36,5.5
		C19.3,5.5,5.5,19.3,5.5,36S19.3,66.5,36,66.5S66.5,52.7,66.5,36S52.7,5.5,36,5.5L36,5.5z"/>
	<path class="st0" d="M20.2,35.6c-0.4,0-0.8-0.4-1.2-0.8c-0.4-0.8,0-1.6,0.8-2l6.1-2.8l-6.1-2.8c-0.8-0.4-1.2-1.2-0.8-2
		c0.4-0.8,1.2-0.8,2-0.4l8.1,4.5c0.4,0.4,0.8,0.8,0.8,1.2c0,0.4-0.4,0.8-0.8,1.2L21,35.6C20.6,35.6,20.6,35.6,20.2,35.6z"/>
	<path class="st0" d="M51.8,35.6h-0.4l-8.1-4.1c-0.8-0.4-1.2-0.8-1.2-1.2s0.4-0.8,0.8-1.2l8.1-4.5c0.8-0.4,1.6,0,1.6,0.4
		c0.4,0.8,0,1.6-0.4,1.6l-6.1,3.2l6.1,2.8c0.8,0.4,0.8,1.2,0.8,1.6C52.7,35.2,52.2,35.6,51.8,35.6z"/>
	<path class="st0" d="M21.8,52.2c-1.6,0-2.8-1.6-2.4-3.2C21,42.9,27.9,38.4,36,38.4S51,42.9,52.7,49c0.4,1.6-0.8,3.2-2.4,3.2
		C50.2,52.3,21.8,52.3,21.8,52.2z"/>
</g>
</svg>
