<?xml version="1.0" encoding="utf-8"?>
<!-- Generator: Adobe Illustrator 27.7.0, SVG Export Plug-In . SVG Version: 6.00 Build 0)  -->
<svg version="1.1" id="Camada_1" xmlns="http://www.w3.org/2000/svg" xmlns:xlink="http://www.w3.org/1999/xlink" x="0px" y="0px"
	 viewBox="0 0 16 16" style="enable-background:new 0 0 16 16;" xml:space="preserve">
<style type="text/css">
	.st0{fill:#FF6600;}
</style>
<g>
	<path class="st0" d="M8,1.2c3.8,0,6.8,3.1,6.8,6.8s-3.1,6.8-6.8,6.8S1.2,11.8,1.2,8S4.2,1.2,8,1.2 M8,0.5C3.9,0.5,0.5,3.9,0.5,8
		s3.4,7.5,7.5,7.5s7.5-3.4,7.5-7.5S12.1,0.5,8,0.5L8,0.5z"/>
	<path class="st0" d="M4.1,7.9C4,7.9,3.9,7.8,3.8,7.7C3.7,7.5,3.8,7.3,4,7.2l1.5-0.7L4,5.8C3.8,5.7,3.7,5.5,3.8,5.3
		c0.1-0.2,0.3-0.2,0.5-0.1l2,1.1c0.1,0.1,0.2,0.2,0.2,0.3c0,0.1-0.1,0.2-0.2,0.3l-2,1C4.2,7.9,4.2,7.9,4.1,7.9z"/>
	<path class="st0" d="M11.9,7.9c0,0-0.1,0-0.1,0l-2-1C9.6,6.8,9.5,6.7,9.5,6.6c0-0.1,0.1-0.2,0.2-0.3l2-1.1c0.2-0.1,0.4,0,0.4,0.1
		c0.1,0.2,0,0.4-0.1,0.4l-1.5,0.8L12,7.2c0.2,0.1,0.2,0.3,0.2,0.4C12.1,7.8,12,7.9,11.9,7.9z"/>
	<path class="st0" d="M4.5,12c-0.4,0-0.7-0.4-0.6-0.8C4.3,9.7,6,8.6,8,8.6s3.7,1.1,4.1,2.6c0.1,0.4-0.2,0.8-0.6,0.8H4.5z"/>
</g>
</svg>
