<?xml version="1.0" encoding="utf-8"?>
<!-- Generator: Adobe Illustrator 27.7.0, SVG Export Plug-In . SVG Version: 6.00 Build 0)  -->
<svg version="1.1" id="Camada_1" xmlns="http://www.w3.org/2000/svg" xmlns:xlink="http://www.w3.org/1999/xlink" x="0px" y="0px"
	 viewBox="0 0 72 72" style="enable-background:new 0 0 72 72;" xml:space="preserve">
<style type="text/css">
	.st0{fill:#FF6600;}
</style>
<g>
	<path class="st0" d="M36.1,5.8c16.8,0,30.1,13.7,30.1,30.1S52.5,66,36.1,66S5.9,52.7,5.9,35.9S19.2,5.8,36.1,5.8 M36.1,2.7
		C17.9,2.7,2.8,17.7,2.8,35.9s15.1,33.2,33.2,33.2S69.3,54,69.3,35.9S54.2,2.7,36.1,2.7L36.1,2.7z"/>
	<path class="st0" d="M18.8,35.4c-0.4,0-0.9-0.4-1.3-0.9c-0.4-0.9,0-1.8,0.9-2.2l6.6-3.1l-6.6-3.1c-0.9-0.4-1.3-1.3-0.9-2.2
		c0.4-0.9,1.3-0.9,2.2-0.4l8.9,4.9c0.4,0.4,0.9,0.9,0.9,1.3c0,0.4-0.4,0.9-0.9,1.3l-8.9,4.4C19.2,35.4,19.2,35.4,18.8,35.4z"/>
	<path class="st0" d="M53.3,35.4h-0.4L44,31c-0.9-0.4-1.3-0.9-1.3-1.3s0.4-0.9,0.9-1.3l8.9-4.9c0.9-0.4,1.8,0,1.8,0.4
		c0.4,0.9,0,1.8-0.4,1.8l-6.6,3.5l6.6,3.1c0.9,0.4,0.9,1.3,0.9,1.8C54.2,35,53.8,35.4,53.3,35.4z"/>
	<ellipse class="st0" cx="36.1" cy="50.5" rx="9.3" ry="11.1"/>
	<path class="st0" d="M51.6,54l-0.4,0.4c-0.4,0.4-0.9,0.9-0.9,1.3c0,0.4,0.4,0.9,0.9,1.3l8.9,4.4h0.4c0.4,0,0.9-0.4,1.3-0.9
		c0.4-0.9,0-1.3-0.4-1.8L51.6,54z"/>
	<path class="st0" d="M50.2,46.1v0.4c0,0.4,0,1.3,0.4,1.3c0.4,0.4,0.9,0.4,1.3,0.4l9.3-3.5c0,0,0.4,0,0.4-0.4c0.9,0,0.9-0.4,0.9-1.3
		c-0.4-0.9-0.9-0.9-1.8-0.9L50.2,46.1z"/>
	<path class="st0" d="M21.9,49.6l0.4-0.4c0.4,0,0.9-0.9,0.4-1.3c0-0.4-0.4-0.9-0.9-1.3L13,42.1h-0.4c-0.4,0-0.9,0.4-1.3,0.9
		c-0.4,0.9,0,1.3,0.4,1.8L21.9,49.6z"/>
	<path class="st0" d="M22.8,57.6v-0.4c0-0.4,0-1.3-0.4-1.3c-0.4-0.4-0.9-0.4-1.3-0.4l-9.3,3.5c0,0-0.4,0-0.4,0.4
		c-0.4,0.4-0.4,0.9-0.4,1.3c0.4,0.9,0.9,0.9,1.8,0.9L22.8,57.6z"/>
</g>
</svg>
