<?xml version="1.0" encoding="utf-8"?>
<!-- Generator: Adobe Illustrator 27.7.0, SVG Export Plug-In . SVG Version: 6.00 Build 0)  -->
<svg version="1.1" id="Camada_1" xmlns="http://www.w3.org/2000/svg" xmlns:xlink="http://www.w3.org/1999/xlink" x="0px" y="0px"
	 viewBox="0 0 16 16" style="enable-background:new 0 0 16 16;" xml:space="preserve">
<style type="text/css">
	.st0{fill:#FF6600;}
</style>
<g>
	<path class="st0" d="M9.15,2.39c0.68-0.41,1.47-0.66,2.32-0.66c0.21,0,0.42,0.01,0.64,0.04c0.16-0.41,0.13-0.84-0.04-1.14
		C11.84,0.26,11.31-0.02,10.7,0c-0.36,0.02-0.74,0.13-1,0.29L7.99,1.26C8.48,1.6,8.85,1.94,9.15,2.39z"/>
	<path class="st0" d="M7.95,8.92c-0.61,0.33-1.03,0.98-1.03,1.73c0,0.23,0.04,0.46,0.11,0.66l2.17-1.27
		C8.74,9.75,8.3,9.37,7.95,8.92z"/>
	<path class="st0" d="M8.6,2.8C8.3,2.34,7.9,2.03,7.29,1.66L5.14,2.89C4.25,3.4,4.1,4.36,4.45,4.98c0.35,0.6,1.29,0.95,2.19,0.45
		l0.51-0.29C7.37,4.21,7.9,3.4,8.6,2.8z"/>
	<path class="st0" d="M11.47,2.43c-0.79,0-1.53,0.25-2.13,0.67l4.41,6.07c0.89-0.68,1.46-1.76,1.46-2.98
		C15.2,4.12,13.54,2.43,11.47,2.43z"/>
	<path class="st0" d="M7.41,11.92c0.36,0.42,0.89,0.69,1.48,0.69c1.08,0,1.96-0.88,1.96-1.96c-0.21-0.02-0.62-0.12-0.83-0.25
		L7.41,11.92z"/>
	<path class="st0" d="M7.73,6.19c0,2.07,1.67,3.75,3.74,3.75c0.6,0,1.17-0.15,1.67-0.4L8.79,3.57C8.13,4.25,7.73,5.18,7.73,6.19z"/>
	<path class="st0" d="M6.39,13.06L5.08,7.99C4.76,6.92,3.73,5.73,2.32,6.07c-1.09,0.3-1.8,1.64-1.43,3.07l1.32,5.07
		c0.35,1.35,1.62,2.02,2.7,1.72C5.98,15.64,6.74,14.41,6.39,13.06z M4.72,15.26c-0.68,0.18-1.57-0.21-1.83-1.22l-0.62-2.4
		c0.88-0.86,1.45-1.13,2.72-1.16l0.71,2.77C5.97,14.26,5.39,15.07,4.72,15.26z"/>
</g>
</svg>
