<?xml version="1.0" encoding="utf-8"?>
<!-- Generator: Adobe Illustrator 27.7.0, SVG Export Plug-In . SVG Version: 6.00 Build 0)  -->
<svg version="1.1" id="Camada_1" xmlns="http://www.w3.org/2000/svg" xmlns:xlink="http://www.w3.org/1999/xlink" x="0px" y="0px"
	 viewBox="0 0 72 72" style="enable-background:new 0 0 72 72;" xml:space="preserve">
<style type="text/css">
	.st0{fill:#FF6600;}
</style>
<g>
	<path class="st0" d="M40,12.9c2.7-1.6,5.9-2.6,9.3-2.6c0.8,0,1.7,0,2.6,0.2c0.6-1.6,0.5-3.4-0.2-4.6c-0.9-1.5-3-2.6-5.5-2.5
		c-1.4,0.1-3,0.5-4,1.2l-6.8,3.9C37.3,9.8,38.8,11.1,40,12.9z"/>
	<path class="st0" d="M35.2,39c-2.4,1.3-4.1,3.9-4.1,6.9c0,0.9,0.2,1.8,0.4,2.6l8.7-5.1C38.4,42.3,36.6,40.8,35.2,39z"/>
	<path class="st0" d="M37.8,14.6c-1.2-1.8-2.8-3.1-5.2-4.6L24,14.9c-3.6,2-4.2,5.9-2.8,8.4c1.4,2.4,5.2,3.8,8.8,1.8l2-1.2
		C32.9,20.2,35,17,37.8,14.6z"/>
	<path class="st0" d="M49.3,13.1c-3.2,0-6.1,1-8.5,2.7L58.4,40c3.6-2.7,5.8-7,5.8-11.9C64.2,19.8,57.6,13.1,49.3,13.1z"/>
	<path class="st0" d="M33.1,51c1.4,1.7,3.6,2.8,5.9,2.8c4.3,0,7.8-3.5,7.8-7.8c-0.8-0.1-2.5-0.5-3.3-1L33.1,51z"/>
	<path class="st0" d="M34.3,28.1c0,8.3,6.7,15,14.9,15c2.4,0,4.7-0.6,6.7-1.6L38.6,17.7C35.9,20.4,34.3,24.1,34.3,28.1z"/>
	<path class="st0" d="M29,55.6l-5.2-20.3c-1.3-4.3-5.4-9-11-7.7C8.4,28.8,5.5,34.2,7,39.9l5.3,20.3c1.4,5.4,6.5,8.1,10.8,6.9
		C27.3,65.9,30.4,61,29,55.6z M22.3,64.4c-2.7,0.7-6.3-0.8-7.3-4.9l-2.5-9.6c3.5-3.4,5.8-4.5,10.9-4.6l2.8,11.1
		C27.3,60.4,25,63.6,22.3,64.4z"/>
</g>
</svg>
