<?xml version="1.0" encoding="utf-8"?>
<!-- Generator: Adobe Illustrator 27.7.0, SVG Export Plug-In . SVG Version: 6.00 Build 0)  -->
<svg version="1.1" id="Camada_1" xmlns="http://www.w3.org/2000/svg" xmlns:xlink="http://www.w3.org/1999/xlink" x="0px" y="0px"
	 viewBox="0 0 72 72" style="enable-background:new 0 0 72 72;" xml:space="preserve">
<style type="text/css">
	.st0{fill:#FF6600;}
</style>
<path class="st0" d="M65.1,59.5L46.9,41.2c2.8-4,4.4-8.3,4.4-13.1c0-6-2.4-11.5-6.7-15.9s-9.9-6.7-15.9-6.7s-11.5,2.4-15.9,6.7
	S6,21.8,6,28.1S8.4,39.6,12.8,44s9.9,6.7,15.9,6.7c4.4,0,8.3-1.2,11.9-3.6l18.6,18.6c0.8,0.8,2,1.2,2.8,1.2c0.8,0,2-0.4,2.8-1.2
	C66.7,63.8,66.7,61,65.1,59.5z M18.7,38c-5.6-5.6-5.6-14.3,0-19.8c2.8-2.8,6.3-4,9.9-4s7.1,1.6,9.9,4c2.8,2.8,4,6.3,4,9.9
	s-1.6,7.1-4,9.9l0,0C33,43.2,24.3,43.2,18.7,38z"/>
</svg>
