<?xml version="1.0" encoding="utf-8"?>
<!-- Generator: Adobe Illustrator 27.7.0, SVG Export Plug-In . SVG Version: 6.00 Build 0)  -->
<svg version="1.1" id="Camada_1" xmlns="http://www.w3.org/2000/svg" xmlns:xlink="http://www.w3.org/1999/xlink" x="0px" y="0px"
	 viewBox="0 0 16 16" style="enable-background:new 0 0 16 16;" xml:space="preserve">
<style type="text/css">
	.st0{fill:#FF6600;}
</style>
<path class="st0" d="M15.3,13.9l-4.6-4.6c0.7-1,1.1-2.1,1.1-3.3c0-1.5-0.6-2.9-1.7-4s-2.5-1.7-4-1.7S3.2,0.9,2.1,2S0.4,4.4,0.4,6
	s0.6,2.9,1.7,4s2.5,1.7,4,1.7c1.1,0,2.1-0.3,3-0.9l4.7,4.7c0.2,0.2,0.5,0.3,0.7,0.3s0.5-0.1,0.7-0.3C15.7,15,15.7,14.3,15.3,13.9z
	 M3.6,8.5c-1.4-1.4-1.4-3.6,0-5c0.7-0.7,1.6-1,2.5-1s1.8,0.4,2.5,1c0.7,0.7,1,1.6,1,2.5s-0.4,1.8-1,2.5l0,0C7.2,9.8,5,9.8,3.6,8.5z"
	/>
</svg>
