<?xml version="1.0" encoding="utf-8"?>
<!-- Generator: Adobe Illustrator 27.7.0, SVG Export Plug-In . SVG Version: 6.00 Build 0)  -->
<svg version="1.1" id="Camada_1" xmlns="http://www.w3.org/2000/svg" xmlns:xlink="http://www.w3.org/1999/xlink" x="0px" y="0px"
	 viewBox="0 0 16 16" style="enable-background:new 0 0 16 16;" xml:space="preserve">
<style type="text/css">
	.st0{fill:#FF6600;}
</style>
<path class="st0" d="M15,10.9l-3.6-3.6c0.6-0.7,0.9-1.7,0.9-2.6c0-1.2-0.5-2.3-1.3-3.1S9,0.2,7.8,0.2S5.5,0.7,4.7,1.5
	S3.4,3.5,3.4,4.6s0.5,2.3,1.3,3.1s1.9,1.3,3.1,1.3c0.9,0,1.7-0.2,2.4-0.7l3.6,3.6c0.2,0.2,0.4,0.2,0.6,0.2s0.4-0.1,0.6-0.2
	C15.3,11.7,15.3,11.2,15,10.9z M5.9,6.6c-1.1-1.1-1.1-2.8,0-3.9c0.5-0.5,1.2-0.8,2-0.8s1.4,0.3,2,0.8c0.5,0.5,0.8,1.2,0.8,2
	s-0.3,1.4-0.8,2l0,0C8.7,7.7,6.9,7.7,5.9,6.6z"/>
<g>
	<path class="st0" d="M5.8,7.3C6.2,7,6.7,6.9,7.2,6.9c0.1,0,0.3,0,0.4,0c0.1-0.3,0.1-0.5,0-0.7C7.4,6,7.1,5.8,6.7,5.8
		C6.5,5.8,6.3,5.9,6.1,6l-1,0.6C5.4,6.8,5.6,7,5.8,7.3z"/>
	<path class="st0" d="M5.1,11.2c-0.4,0.2-0.6,0.6-0.6,1c0,0.1,0,0.3,0.1,0.4l1.3-0.8C5.6,11.7,5.3,11.5,5.1,11.2z"/>
	<path class="st0" d="M5.5,7.5C5.3,7.2,5,7,4.7,6.8L3.4,7.6C2.8,7.9,2.7,8.5,3,8.8c0.2,0.4,0.8,0.6,1.3,0.3l0.3-0.2
		C4.7,8.4,5,7.9,5.5,7.5z"/>
	<path class="st0" d="M7.2,7.3c-0.5,0-0.9,0.1-1.3,0.4l2.7,3.7c0.5-0.4,0.9-1.1,0.9-1.8C9.5,8.3,8.5,7.3,7.2,7.3z"/>
	<path class="st0" d="M4.7,13c0.2,0.3,0.5,0.4,0.9,0.4c0.7,0,1.2-0.5,1.2-1.2c-0.1,0-0.4-0.1-0.5-0.1L4.7,13z"/>
	<path class="st0" d="M4.9,9.6c0,1.3,1,2.3,2.3,2.3c0.4,0,0.7-0.1,1-0.2L5.6,8C5.2,8.4,4.9,9,4.9,9.6z"/>
	<path class="st0" d="M4.1,13.7l-0.8-3.1C3.1,10,2.5,9.3,1.7,9.5c-0.7,0.2-1.1,1-0.9,1.9l0.8,3.1c0.2,0.8,1,1.2,1.6,1
		C3.9,15.3,4.3,14.5,4.1,13.7z M3.1,15.1c-0.4,0.1-1-0.1-1.1-0.7l-0.4-1.5c0.5-0.5,0.9-0.7,1.6-0.7l0.4,1.7
		C3.9,14.5,3.5,14.9,3.1,15.1z"/>
</g>
</svg>
