<?xml version="1.0" encoding="utf-8"?>
<!-- Generator: Adobe Illustrator 22.0.1, SVG Export Plug-In . SVG Version: 6.00 Build 0)  -->
<svg version="1.1" xmlns="http://www.w3.org/2000/svg" xmlns:xlink="http://www.w3.org/1999/xlink" x="0px" y="0px"
	 viewBox="0 0 500 500" style="enable-background:new 0 0 500 500;" xml:space="preserve">
<style type="text/css">
	.st0{fill:#40B5AF;}
	.st1{fill:#57EAE6;}
	.st2{fill:#701FA0;}
	.st3{fill:#00ABE5;}
	.st4{fill:#FF568D;}
	.st5{fill:#FFAB38;}
	.st6{fill:#C62D6B;}
	.st7{fill:#0090C2;}
	.st8{fill:#C2426B;}
	.st9{fill:#CF8B2D;}
	.st10{fill:#A8265B;}
	.st11{fill:#00AB94;}
	.st12{fill:#FF5F41;}
	.st13{fill:#91D165;}
	.st14{fill:#0067A3;}
	.st15{fill:#008F7C;}
	.st16{fill:#B0412D;}
	.st17{fill:#74B349;}
	.st18{fill:#004C78;}
	.st19{opacity:0.1;}
	.st20{fill:#FFFFFF;}
	.st21{fill:#596066;}
	.st22{fill:#697178;}
	.st23{fill:#778087;}
	.st24{fill:none;}
	.st25{fill:#E0E7ED;}
	.st26{font-family:'OpenSans-Bold';}
	.st27{font-size:19.4248px;}
	.st28{font-size:12.9499px;}
	.st29{font-size:18px;}
	.st30{fill:#41D8D8;}
	.st31{fill:#9E2DD3;}
	.st32{fill:#9A3ACC;}
</style>
<g id="BACKGROUND">
</g>
<g id="OBJECTS">
	<polygon class="st0" points="275.7,275.5 351.8,457.6 351.8,373.9 275.7,252.8 	"/>
	<path class="st1" d="M351.8,457.6h86c6.4,0,11.5-5.2,11.5-11.5v-60.7c0-6.4-5.2-11.5-11.5-11.5h-86V457.6z"/>
	<polygon class="st2" points="224.3,275.5 148.2,457.6 148.2,373.9 224.3,252.8 	"/>
	<g>
		<g>
			<g>
				<path class="st3" d="M148.2,123.4h-86c-6.4,0-11.5-5.2-11.5-11.5V51.1c0-6.4,5.2-11.5,11.5-11.5h86V123.4z"/>
				<path class="st4" d="M148.2,207.1h-86c-6.4,0-11.5-5.2-11.5-11.5v-60.7c0-6.4,5.2-11.5,11.5-11.5h86V207.1z"/>
				<path class="st5" d="M148.2,290.9h-86c-6.4,0-11.5-5.2-11.5-11.5v-60.7c0-6.4,5.2-11.5,11.5-11.5h86V290.9z"/>
				<path class="st6" d="M148.2,374.6h-86c-6.4,0-11.5-5.2-11.5-11.5v-60.7c0-6.4,5.2-11.5,11.5-11.5h86V374.6z"/>
			</g>
			<g>
				<polygon class="st7" points="224.3,184.5 148.2,123.4 148.2,39.6 224.3,161.8 				"/>
				<polygon class="st8" points="224.3,207.1 148.2,207.1 148.2,123.4 224.3,184.5 				"/>
				<polygon class="st9" points="224.3,229.8 148.2,290.9 148.2,207.1 224.3,207.1 				"/>
				<polygon class="st10" points="224.3,252.5 148.2,374.6 148.2,290.9 224.3,229.8 				"/>
			</g>
			<g>
				<path class="st11" d="M351.8,123.4h86c6.4,0,11.5-5.2,11.5-11.5V51.1c0-6.4-5.2-11.5-11.5-11.5h-86V123.4z"/>
				<path class="st12" d="M351.8,207.1h86c6.4,0,11.5-5.2,11.5-11.5v-60.7c0-6.4-5.2-11.5-11.5-11.5h-86V207.1z"/>
				<path class="st13" d="M351.8,290.9h86c6.4,0,11.5-5.2,11.5-11.5v-60.7c0-6.4-5.2-11.5-11.5-11.5h-86V290.9z"/>
				<path class="st14" d="M351.8,374.6h86c6.4,0,11.5-5.2,11.5-11.5v-60.7c0-6.4-5.2-11.5-11.5-11.5h-86V374.6z"/>
			</g>
			<g>
				<polygon class="st15" points="275.7,184.5 351.8,123.4 351.8,39.6 275.7,161.8 				"/>
				<polygon class="st16" points="275.7,207.1 351.8,207.1 351.8,123.4 275.7,184.5 				"/>
				<polygon class="st17" points="275.7,229.8 351.8,290.9 351.8,207.1 275.7,207.1 				"/>
				<polygon class="st18" points="275.7,252.5 351.8,374.6 351.8,290.9 275.7,229.8 				"/>
			</g>
		</g>
		<path class="st19" d="M188.5,207.1c0,28.5,7.2,54.3,18.8,72.7l17-27.3v-22.7v-22.7v-22.7v-22.7l-17-27.3
			C195.7,152.8,188.5,178.6,188.5,207.1z"/>
		<path class="st19" d="M275.7,184.5v22.7v22.7v45.7l17,37.3c11.6-18.4,18.8-77.1,18.8-105.7s-7.2-54.3-18.8-72.7l-17,27.3V184.5z"
			/>
		<path class="st19" d="M225.5,275.5l-17,37.3c-11.6-18.4-18.8-77.1-18.8-105.7"/>
		<g>
			<circle class="st20" cx="250" cy="216.1" r="69.1"/>
			<circle class="st21" cx="250" cy="216.1" r="56.6"/>
			
				<ellipse transform="matrix(0.9075 -0.42 0.42 0.9075 -67.6612 124.9967)" class="st22" cx="250" cy="216.1" rx="54.4" ry="54.4"/>
			
				<ellipse transform="matrix(0.1529 -0.9882 0.9882 0.1529 -1.8101 430.1626)" class="st23" cx="250" cy="216.1" rx="49.9" ry="49.9"/>
			<polygon class="st24" points="281.1,262.4 221.3,262.4 196.3,216.8 221.5,175.3 278.5,175.3 301.9,214.8 			"/>
			<text transform="matrix(1 0 0 1 240.2568 206.6963)"><tspan x="0" y="0" class="st25 st26 st27">10</tspan><tspan x="-22.5" y="15.5" class="st25 st26 st28">princípios </tspan><tspan x="-12.7" y="31.1" class="st25 st26 st28">básicos</tspan></text>
		</g>
		<circle class="st20" cx="100.7" cy="81.5" r="23.8"/>
		<circle class="st7" cx="100.7" cy="81.5" r="19.3"/>
		<circle class="st20" cx="100.7" cy="165.3" r="23.8"/>
		<circle class="st8" cx="100.7" cy="165.3" r="19.3"/>
		<circle class="st20" cx="100.7" cy="249" r="23.8"/>
		<circle class="st9" cx="100.7" cy="249" r="19.3"/>
		<circle class="st20" cx="100.7" cy="332.8" r="23.8"/>
		<circle class="st10" cx="100.7" cy="332.8" r="19.3"/>
		<circle class="st20" cx="403.2" cy="81.5" r="23.8"/>
		<circle class="st15" cx="403.2" cy="81.5" r="19.3"/>
		<circle class="st20" cx="403.2" cy="165.3" r="23.8"/>
		<circle class="st16" cx="403.2" cy="165.3" r="19.3"/>
		<circle class="st20" cx="403.2" cy="249" r="23.8"/>
		<circle class="st17" cx="403.2" cy="249" r="19.3"/>
		<circle class="st20" cx="403.2" cy="332.8" r="23.8"/>
		<circle class="st18" cx="403.2" cy="332.8" r="19.3"/>
		<text transform="matrix(1 0 0 1 94.3094 88.58)" class="st20 st26 st29">1</text>
		<text transform="matrix(1 0 0 1 95.5961 172.1944)" class="st20 st26 st29">2</text>
		<text transform="matrix(1 0 0 1 398.0446 88.5802)" class="st20 st26 st29">6</text>
		<text transform="matrix(1 0 0 1 398.0446 173.2033)" class="st20 st26 st29">7</text>
		<text transform="matrix(1 0 0 1 398.0447 256.7339)" class="st20 st26 st29">8</text>
		<text transform="matrix(1 0 0 1 398.0447 340.4884)" class="st20 st26 st29">9</text>
		<text transform="matrix(1 0 0 1 95.0924 256.2383)" class="st20 st26 st29">3</text>
		<text transform="matrix(1 0 0 1 95.0924 340.4883)" class="st20 st26 st29">4</text>
		<circle class="st20" cx="402.7" cy="414.8" r="23.8"/>
		<circle class="st30" cx="402.7" cy="414.8" r="19.3"/>
		<text transform="matrix(1 0 0 1 391.9551 422.4883)" class="st20 st26 st29">10</text>
	</g>
	<path class="st31" d="M148.2,457.6h-86c-6.4,0-11.5-5.2-11.5-11.5v-60.7c0-6.4,5.2-11.5,11.5-11.5h86V457.6z"/>
	<circle class="st20" cx="100.7" cy="414.8" r="23.8"/>
	<circle class="st32" cx="100.7" cy="414.8" r="19.3"/>
	<text transform="matrix(1 0 0 1 95.0924 422.4883)" class="st20 st26 st29">5</text>
</g>
<g id="DESIGNED_BY_FREEPIK">
</g>
</svg>
