<?xml version="1.0" encoding="utf-8"?>
<!-- Generator: Adobe Illustrator 22.0.1, SVG Export Plug-In . SVG Version: 6.00 Build 0)  -->
<svg version="1.1" id="Camada_1" xmlns="http://www.w3.org/2000/svg" xmlns:xlink="http://www.w3.org/1999/xlink" x="0px" y="0px"
	 viewBox="0 0 283.5 226.8" style="enable-background:new 0 0 283.5 226.8;" xml:space="preserve">
<style type="text/css">
	.st0{opacity:0.2;}
	.st1{fill:#E25F07;}
	.st2{fill:#FFFFFF;}
</style>
<g class="st0">
	
		<image style="overflow:visible;" width="1027" height="1027" xlink:href="E644F85BEB50638D.png"  transform="matrix(0.24 0 0 0.24 18.48 -9.84)">
	</image>
</g>
<circle class="st1" cx="141.7" cy="113.4" r="87.2"/>
<g id="AuumIe.tif">
	<g>
		<path class="st2" d="M97.8,70.4c-0.5,0-1.2,0.4-1.5,1.1c-0.3,0.7-0.2,1.4,0.4,2c0.9,0.9,1.7,1.8,2.6,2.6c0.7,0.7,1.8,0.7,2.5,0
			c0.7-0.7,0.7-1.8,0-2.5c-0.9-0.9-1.8-1.8-2.6-2.7C98.9,70.6,98.5,70.4,97.8,70.4z M112.1,69.7c0-0.6,0-1.2,0-1.9
			c0-1-0.8-1.8-1.8-1.8c-1,0-1.8,0.8-1.8,1.8c0,1.2,0,2.5,0,3.7c0,1,0.8,1.8,1.8,1.8c1,0,1.7-0.8,1.8-1.8
			C112.1,70.9,112.1,70.3,112.1,69.7z M95.5,86.2C95.5,86.2,95.5,86.2,95.5,86.2c0.6,0,1.3,0,1.9,0c0.5,0,1-0.2,1.3-0.7
			c0.4-0.6,0.5-1.2,0.2-1.9c-0.3-0.7-0.9-1-1.7-1c-1.2,0-2.4,0-3.6,0c-0.1,0-0.2,0-0.4,0c-1,0.2-1.6,1-1.5,1.9
			c0.1,0.9,0.8,1.6,1.8,1.6C94.3,86.3,94.9,86.2,95.5,86.2z M102.4,93.9c0-0.5-0.4-1.1-1-1.4c-0.7-0.3-1.4-0.2-1.9,0.3
			c-1,0.9-1.9,1.8-2.8,2.8c-0.7,0.7-0.6,1.8,0.1,2.4c0.7,0.7,1.7,0.7,2.4,0c0.9-0.9,1.8-1.8,2.7-2.7C102.3,95,102.4,94.6,102.4,93.9
			z M122.6,70.4c-0.5,0-0.9,0.1-1.2,0.4c-1,0.9-1.9,1.9-2.8,2.8c-0.6,0.7-0.6,1.7,0.1,2.4c0.6,0.7,1.7,0.8,2.4,0.1
			c1-0.9,2-1.9,2.9-2.9c0.5-0.5,0.5-1.2,0.2-1.9C123.9,70.8,123.3,70.4,122.6,70.4z"/>
		<path class="st2" d="M181,163c-0.5-0.1-1-0.2-1.5-0.3c-0.9-0.3-1.6-0.8-2.2-1.4c-3.9-3.9-7.8-7.8-11.7-11.7
			c-3.9-3.9-7.8-7.8-11.7-11.7c-0.1-0.1-0.2-0.2-0.3-0.4c-0.7,1.3-1.4,2.4-2.1,3.6c-3.3,5.6-6.6,11.1-9.9,16.7c-0.8,1.4-2,2-3.5,1.9
			c-1.5-0.1-2.5-1-3-2.4c-8.4-21.1-16.7-42.1-25.1-63.2c-1.2-3-2.4-6-3.6-9c-0.9-2.2,0.4-4.5,2.7-5c0.7-0.1,1.4,0,2,0.2
			c4.9,1.9,9.8,3.9,14.7,5.8c10.2,4.1,20.4,8.1,30.7,12.2c8.9,3.5,17.8,7.1,26.7,10.6c1.2,0.5,2.1,1.2,2.4,2.5
			c0.5,1.6-0.2,3.2-1.7,4.1c-2.1,1.2-4.2,2.5-6.3,3.7c-4.6,2.7-9.1,5.4-13.7,8.1c-0.1,0-0.1,0.1-0.2,0.1c0.1,0.1,0.2,0.2,0.3,0.3
			c7.8,7.8,15.6,15.6,23.4,23.4c1.2,1.2,1.8,2.7,1.7,4.4c-0.1,1.2-0.6,2.3-1.4,3.2c-0.9,1-1.9,1.9-2.9,2.9c-0.9,0.8-1.9,1.3-3.1,1.4
			c-0.1,0-0.2,0-0.4,0.1C181.2,163,181.1,163,181,163z M182,112.4c-24.1-9.6-48.2-19.1-72.4-28.7c9.6,24.2,19.1,48.3,28.7,72.4
			c0.1-0.2,0.2-0.2,0.2-0.3c2.4-4.1,4.9-8.2,7.3-12.4c1.5-2.5,3-5.1,4.5-7.6c0.7-1.2,1.8-1.9,3.3-1.8c1,0,1.8,0.5,2.5,1.2
			c7.8,7.9,15.7,15.7,23.6,23.6c0.8,0.8,1.9,0.8,2.7,0c0.8-0.8,1.5-1.5,2.3-2.3c0.9-0.9,0.9-1.9,0-2.8c-5.4-5.4-10.7-10.7-16.1-16.1
			c-2.5-2.5-5-5-7.5-7.5c-0.7-0.7-1.1-1.5-1.2-2.5c0-1.5,0.7-2.6,2-3.4c6-3.5,12-7,17.9-10.6C180.6,113.2,181.3,112.8,182,112.4z"/>
		<path class="st2" d="M97.8,70.4c0.7,0,1.1,0.2,1.4,0.5c0.9,0.9,1.8,1.8,2.6,2.7c0.7,0.7,0.7,1.8,0,2.5c-0.7,0.7-1.8,0.7-2.5,0
			c-0.9-0.9-1.8-1.7-2.6-2.6c-0.6-0.6-0.7-1.2-0.4-2C96.6,70.8,97.3,70.4,97.8,70.4z"/>
		<path class="st2" d="M112.1,69.7c0,0.6,0,1.2,0,1.8c0,1-0.8,1.8-1.8,1.8c-1,0-1.8-0.8-1.8-1.8c0-1.2,0-2.5,0-3.7
			c0-1,0.8-1.8,1.8-1.8c1,0,1.8,0.8,1.8,1.8C112.1,68.5,112.1,69.1,112.1,69.7z"/>
		<path class="st2" d="M95.5,86.2c-0.6,0-1.2,0-1.9,0c-0.9,0-1.7-0.7-1.8-1.6c-0.1-1,0.5-1.8,1.5-1.9c0.1,0,0.2,0,0.4,0
			c1.2,0,2.4,0,3.6,0c0.7,0,1.3,0.3,1.7,1c0.3,0.7,0.2,1.3-0.2,1.9c-0.3,0.4-0.8,0.7-1.3,0.7C96.8,86.2,96.2,86.2,95.5,86.2
			C95.5,86.2,95.5,86.2,95.5,86.2z"/>
		<path class="st2" d="M102.4,93.9c0,0.7-0.2,1.1-0.5,1.4c-0.9,0.9-1.8,1.8-2.7,2.7c-0.7,0.7-1.8,0.7-2.4,0
			c-0.7-0.7-0.8-1.7-0.1-2.4c0.9-1,1.8-1.9,2.8-2.8c0.5-0.5,1.2-0.6,1.9-0.3C102,92.8,102.4,93.4,102.4,93.9z"/>
		<path class="st2" d="M122.6,70.4c0.7,0,1.3,0.4,1.6,1c0.3,0.7,0.3,1.3-0.2,1.9c-0.9,1-1.9,2-2.9,2.9c-0.7,0.6-1.8,0.5-2.4-0.1
			c-0.7-0.7-0.7-1.7-0.1-2.4c0.9-1,1.9-1.9,2.8-2.8C121.7,70.5,122.1,70.4,122.6,70.4z"/>
		<path class="st2" d="M184.8,153.6c-5.4-5.4-10.7-10.7-16.1-16.1c-2.5-2.5-5-5-7.5-7.5c-0.7-0.7-1.1-1.5-1.2-2.5
			c0-1.5,0.7-2.6,2-3.4c6-3.5,12-7,17.9-10.6c0.7-0.4,1.4-0.8,2.1-1.2c-24.1-9.6-48.2-19.1-72.4-28.7c9.6,24.2,19.1,48.3,28.7,72.4
			c0.1-0.2,0.2-0.2,0.2-0.3c2.4-4.1,4.9-8.2,7.3-12.4c1.5-2.5,3-5.1,4.5-7.6c0.7-1.2,1.8-1.9,3.3-1.8c1,0,1.8,0.5,2.5,1.2
			c7.8,7.9,15.7,15.7,23.6,23.6c0.8,0.8,1.9,0.8,2.7,0c0.8-0.8,1.5-1.5,2.3-2.3C185.7,155.5,185.7,154.5,184.8,153.6z M131.8,97.9
			c-0.1,0.8-0.8,1.4-1.6,1.5c-0.3,0-0.6,0-0.8-0.1c-1.9-0.7-3.8-1.5-5.7-2.2c-0.8-0.3-1.3-1.2-1.1-2c0.2-0.8,0.9-1.4,1.8-1.4
			c0.2,0,0.4,0.1,0.7,0.2c1.9,0.7,3.7,1.5,5.6,2.2C131.5,96.3,131.9,97.1,131.8,97.9z M136.7,102.2c-0.9-0.4-1.4-1.2-1.2-2.1
			c0.2-0.8,0.9-1.4,1.8-1.4c0.3,0,0.6,0.1,0.8,0.2c6.7,2.7,13.4,5.3,20.1,8c2,0.8,3.9,1.6,5.9,2.3c0.8,0.3,1.2,0.9,1.2,1.7
			c0,1.3-1.3,2.1-2.5,1.6c-2-0.8-4-1.6-6-2.4C150.1,107.6,143.4,104.9,136.7,102.2z"/>
	</g>
</g>
</svg>
