<?xml version="1.0" encoding="utf-8"?>
<!-- Generator: Adobe Illustrator 22.0.1, SVG Export Plug-In . SVG Version: 6.00 Build 0)  -->
<svg version="1.1" id="Camada_1" xmlns="http://www.w3.org/2000/svg" xmlns:xlink="http://www.w3.org/1999/xlink" x="0px" y="0px"
	 viewBox="0 0 283.5 226.8" style="enable-background:new 0 0 283.5 226.8;" xml:space="preserve">
<style type="text/css">
	.st0{opacity:0.2;}
	.st1{fill:#546CFF;}
	.st2{fill:#FFFFFF;}
</style>
<g class="st0">
</g>
<circle class="st1" cx="141.7" cy="113.4" r="87.2"/>
<g>
	<path class="st2" d="M131,136.8v-4.6c0-5.3,1-9.7,2.9-13.2c1.9-3.5,5.3-7.1,10.1-10.9c5.7-4.5,9.4-8,11.1-10.5
		c1.7-2.5,2.5-5.5,2.5-8.9c0-4-1.3-7.1-4-9.3c-2.7-2.2-6.6-3.2-11.6-3.2c-4.6,0-8.8,0.6-12.7,1.9c-3.9,1.3-7.7,2.9-11.4,4.7
		L111.7,70c9.8-5.4,20.2-8.1,31.4-8.1c9.4,0,16.9,2.3,22.4,6.9c5.5,4.6,8.3,11,8.3,19.1c0,3.6-0.5,6.8-1.6,9.6
		c-1.1,2.8-2.7,5.5-4.8,8c-2.1,2.5-5.8,5.9-11.1,9.9c-4.5,3.5-7.5,6.4-9,8.7c-1.5,2.3-2.3,5.4-2.3,9.3v3.2H131z M128,159.8
		c0-7.3,3.5-10.9,10.6-10.9c3.5,0,6.1,0.9,7.9,2.8c1.8,1.9,2.7,4.6,2.7,8c0,3.4-0.9,6.1-2.8,8.1c-1.9,2-4.5,3-7.9,3
		c-3.4,0-6-1-7.9-2.9C128.9,166,128,163.3,128,159.8z"/>
</g>
</svg>
