<?xml version="1.0" encoding="utf-8"?>
<!-- Generator: Adobe Illustrator 22.0.1, SVG Export Plug-In . SVG Version: 6.00 Build 0)  -->
<svg version="1.1" id="Camada_1" xmlns="http://www.w3.org/2000/svg" xmlns:xlink="http://www.w3.org/1999/xlink" x="0px" y="0px"
	 viewBox="0 0 106.4 53.8" style="enable-background:new 0 0 106.4 53.8;" xml:space="preserve">
<style type="text/css">
	.st0{fill:none;stroke:#FDCE22;stroke-miterlimit:10;}
	.st1{fill:#FDCE22;}
	.st2{font-family:'Open Sans';}
	.st3{font-size:9px;}
</style>
<g>
	<path class="st0" d="M95.4,49.1H14.2c-3.3,0-6-2.7-6-6V14.5c0-3.3,2.7-6,6-6h81.2c3.3,0,6,2.7,6,6v28.7
		C101.4,46.4,98.7,49.1,95.4,49.1z"/>
	<path class="st1" d="M92.4,46.1H11.2c-3.3,0-6-2.7-6-6V11.5c0-3.3,2.7-6,6-6h81.2c3.3,0,6,2.7,6,6v28.7
		C98.4,43.4,95.7,46.1,92.4,46.1z"/>
	<text transform="matrix(1 0 0 1 23.0044 18.3647)" class="st2 st3">Submissão do</text>
	<text transform="matrix(1 0 0 1 25.0044 29.1647)" class="st2 st3">dossiê (ético-</text>
	<text transform="matrix(1 0 0 1 27.9044 39.9647)" class="st2 st3">regulatório)</text>
</g>
</svg>
