<?xml version="1.0" encoding="utf-8"?>
<!-- Generator: Adobe Illustrator 22.0.1, SVG Export Plug-In . SVG Version: 6.00 Build 0)  -->
<svg version="1.1" id="Camada_1" xmlns="http://www.w3.org/2000/svg" xmlns:xlink="http://www.w3.org/1999/xlink" x="0px" y="0px"
	 viewBox="0 0 106.4 53.8" style="enable-background:new 0 0 106.4 53.8;" xml:space="preserve">
<style type="text/css">
	.st0{fill:none;stroke:#FF5F00;stroke-miterlimit:10;}
	.st1{fill:#FF5F00;}
	.st2{fill:#FFFFFF;}
	.st3{font-family:'Open Sans';}
	.st4{font-size:9px;}
</style>
<path class="st0" d="M95.3,48.7H14.1c-3.3,0-6-2.7-6-6V14c0-3.3,2.7-6,6-6h81.2c3.3,0,6,2.7,6,6v28.7C101.3,46,98.6,48.7,95.3,48.7z
	"/>
<path class="st1" d="M92.3,45.7H11.1c-3.3,0-6-2.7-6-6V11c0-3.3,2.7-6,6-6h81.2c3.3,0,6,2.7,6,6v28.7C98.3,43,95.6,45.7,92.3,45.7z"
	/>
<text transform="matrix(1 0 0 1 21.8448 22.7123)" class="st2 st3 st4">Avaliação pela</text>
<text transform="matrix(1 0 0 1 36.7448 33.5123)" class="st2 st3 st4">CONEP</text>
</svg>
