<?xml version="1.0" encoding="utf-8"?>
<!-- Generator: Adobe Illustrator 22.0.1, SVG Export Plug-In . SVG Version: 6.00 Build 0)  -->
<svg version="1.1" id="Camada_1" xmlns="http://www.w3.org/2000/svg" xmlns:xlink="http://www.w3.org/1999/xlink" x="0px" y="0px"
	 viewBox="0 0 106.4 53.8" style="enable-background:new 0 0 106.4 53.8;" xml:space="preserve">
<style type="text/css">
	.st0{fill:none;stroke:#FF5F00;stroke-miterlimit:10;}
	.st1{fill:#FF5F00;}
	.st2{fill:#FFFFFF;}
	.st3{font-family:'Open Sans';}
	.st4{font-size:9px;}
</style>
<path class="st0" d="M95.3,47.9H14.1c-3.3,0-6-2.7-6-6V13.2c0-3.3,2.7-6,6-6h81.2c3.3,0,6,2.7,6,6v28.7
	C101.3,45.2,98.6,47.9,95.3,47.9z"/>
<path class="st1" d="M92.3,44.9H11.1c-3.3,0-6-2.7-6-6V10.2c0-3.3,2.7-6,6-6h81.2c3.3,0,6,2.7,6,6v28.7
	C98.3,42.2,95.6,44.9,92.3,44.9z"/>
<text transform="matrix(1 0 0 1 13.6 15.8823)" class="st2 st3 st4">Aprovação ou não</text>
<text transform="matrix(1 0 0 1 13.3 26.6824)" class="st2 st3 st4">manifestação pela</text>
<text transform="matrix(1 0 0 1 36.2 37.4824)" class="st2 st3 st4">ANVISA</text>
</svg>
