<?xml version="1.0" encoding="utf-8"?>
<!-- Generator: Adobe Illustrator 22.0.1, SVG Export Plug-In . SVG Version: 6.00 Build 0)  -->
<svg version="1.1" id="Camada_1" xmlns="http://www.w3.org/2000/svg" xmlns:xlink="http://www.w3.org/1999/xlink" x="0px" y="0px"
	 viewBox="0 0 106.4 60.4" style="enable-background:new 0 0 106.4 60.4;" xml:space="preserve">
<style type="text/css">
	.st0{fill:none;stroke:#E74F42;stroke-miterlimit:10;}
	.st1{fill:#E74F42;}
	.st2{fill:#FFFFFF;}
	.st3{font-family:'Open Sans';}
	.st4{font-size:9px;}
</style>
<path class="st0" d="M95.3,57.3H14.1c-3.3,0-6-2.7-6-6v-40c0-3.3,2.7-6,6-6h81.2c3.3,0,6,2.7,6,6v40C101.3,54.6,98.6,57.3,95.3,57.3
	z"/>
<path class="st1" d="M92.3,54.3H11.1c-3.3,0-6-2.7-6-6v-40c0-3.3,2.7-6,6-6h81.2c3.3,0,6,2.7,6,6v40C98.3,51.6,95.6,54.3,92.3,54.3z
	"/>
<text transform="matrix(1 0 0 1 19.483 14.6101)" class="st2 st3 st4">Avaliação pelos</text>
<text transform="matrix(1 0 0 1 18.383 25.4101)" class="st2 st3 st4">demais CEP dos</text>
<text transform="matrix(1 0 0 1 35.983 36.2101)" class="st2 st3 st4">centros</text>
<text transform="matrix(1 0 0 1 24.283 47.0101)" class="st2 st3 st4">participantes</text>
</svg>
