<?xml version="1.0" encoding="utf-8"?>
<!-- Generator: Adobe Illustrator 22.0.1, SVG Export Plug-In . SVG Version: 6.00 Build 0)  -->
<svg version="1.1" id="Camada_1" xmlns="http://www.w3.org/2000/svg" xmlns:xlink="http://www.w3.org/1999/xlink" x="0px" y="0px"
	 viewBox="0 0 778.3 587" style="enable-background:new 0 0 778.3 587;" xml:space="preserve">
<style type="text/css">
	.st0{fill:#C85044;}
</style>
<g>
	<g>
		<path class="st0" d="M397.3,551.2c-5.2,0-9.5-4.2-9.5-9.4c0-5.3,4.2-9.5,9.4-9.6c3,0,6.1-0.1,9.1-0.3c4.9-0.4,9.7,3.8,9.9,9
			c0.3,5.2-3.8,9.7-9,9.9C403.9,551.1,400.6,551.2,397.3,551.2L397.3,551.2z M359.6,548.8c-0.4,0-0.9,0-1.3-0.1
			c-3.2-0.5-6.5-1-9.7-1.6c-5.2-0.9-8.6-5.9-7.7-11c0.9-5.2,5.9-8.6,11-7.7c3,0.5,6,1,9,1.4c5.2,0.7,8.8,5.6,8.1,10.7
			C368.3,545.3,364.3,548.8,359.6,548.8z M444.2,546.3c-4.4,0-8.4-3.1-9.3-7.6c-1-5.1,2.3-10.2,7.4-11.2c3-0.6,5.9-1.3,8.9-2
			c5.1-1.3,10.2,1.9,11.5,7c1.2,5.1-1.9,10.2-7,11.5c-3.2,0.8-6.4,1.5-9.6,2.1C445.5,546.2,444.8,546.3,444.2,546.3z M313.7,537.7
			c-1,0-2.1-0.2-3.1-0.5c-3.1-1.1-6.2-2.2-9.3-3.4c-4.9-1.9-7.3-7.4-5.4-12.3c1.9-4.9,7.4-7.3,12.3-5.4c2.8,1.1,5.7,2.1,8.5,3.1
			c5,1.7,7.6,7.1,5.9,12.1C321.3,535.2,317.7,537.7,313.7,537.7z M489.4,532.5c-3.7,0-7.3-2.2-8.8-5.9c-2-4.9,0.3-10.4,5.1-12.4
			c2.8-1.2,5.6-2.4,8.3-3.6c4.8-2.2,10.4-0.1,12.6,4.7s0.1,10.4-4.7,12.6c-3,1.4-5.9,2.7-9,3.9C491.8,532.3,490.6,532.5,489.4,532.5
			z M270.7,518.1c-1.6,0-3.2-0.4-4.7-1.3c-2.8-1.6-5.6-3.3-8.4-5.1c-4.4-2.8-5.8-8.6-3-13.1c2.8-4.5,8.6-5.8,13.1-3
			c2.6,1.6,5.2,3.2,7.8,4.7c4.5,2.6,6.1,8.4,3.5,13C277.2,516.4,274,518.1,270.7,518.1z M531,510.5c-3.1,0-6.1-1.5-7.9-4.3
			c-2.9-4.4-1.7-10.3,2.7-13.2c2.5-1.7,5-3.4,7.5-5.1c4.3-3.1,10.2-2.1,13.2,2.2c3.1,4.3,2.1,10.2-2.2,13.2
			c-2.7,1.9-5.4,3.7-8.1,5.5C534.6,510,532.8,510.5,531,510.5z M232.2,490.8c-2.2,0-4.4-0.8-6.2-2.3c-2.5-2.1-4.9-4.3-7.3-6.6
			c-3.8-3.6-4-9.6-0.4-13.4s9.6-4,13.4-0.4c2.2,2.1,4.5,4.1,6.7,6.1c4,3.4,4.4,9.4,1,13.4C237.6,489.6,234.9,490.8,232.2,490.8z
			 M567.8,480.9c-2.5,0-5-1-6.8-2.9c-3.7-3.8-3.6-9.8,0.2-13.4c2.2-2.1,4.3-4.3,6.4-6.4c3.6-3.8,9.6-3.9,13.4-0.3
			c3.8,3.6,4,9.6,0.3,13.4c-2.3,2.4-4.6,4.7-6.9,7C572.6,480,570.2,480.9,567.8,480.9z M199.7,456.6c-2.8,0-5.6-1.2-7.5-3.6
			c-2-2.6-4-5.2-5.9-7.8c-3.1-4.2-2.2-10.2,2.1-13.3s10.2-2.2,13.3,2.1c1.8,2.4,3.6,4.9,5.5,7.2c3.2,4.1,2.5,10.1-1.6,13.4
			C203.8,456,201.7,456.6,199.7,456.6z M598.4,445c-1.9,0-3.8-0.6-5.4-1.7c-4.3-3-5.3-8.9-2.3-13.2c1.7-2.5,3.4-5,5.1-7.6
			c2.8-4.4,8.7-5.7,13.1-2.8c4.4,2.8,5.7,8.7,2.8,13.1c-1.8,2.8-3.6,5.5-5.5,8.2C604.3,443.6,601.4,445,598.4,445z M174.1,417
			c-3.4,0-6.7-1.9-8.4-5.1c-1.5-2.9-3-5.8-4.3-8.8c-2.2-4.7-0.2-10.4,4.6-12.6s10.4-0.2,12.6,4.6c1.3,2.7,2.6,5.4,4,8.1
			c2.4,4.6,0.6,10.4-4.1,12.8C177,416.7,175.5,417,174.1,417z M621.6,403.9c-1.3,0-2.6-0.3-3.9-0.8c-4.8-2.1-6.9-7.7-4.8-12.5
			c1.2-2.8,2.4-5.6,3.5-8.4c2-4.9,7.5-7.2,12.4-5.3c4.9,2,7.2,7.5,5.3,12.4c-1.2,3.1-2.5,6.1-3.8,9.1
			C628.7,401.8,625.3,403.9,621.6,403.9z M156.4,373.3c-4.1,0-7.9-2.7-9.1-6.8c-0.9-3.1-1.8-6.3-2.6-9.5c-1.3-5.1,1.8-10.3,6.9-11.6
			c5.1-1.3,10.3,1.8,11.6,6.9c0.8,3,1.6,5.9,2.4,8.8c1.5,5-1.4,10.3-6.4,11.8C158.2,373.1,157.3,373.3,156.4,373.3z M636.6,359.1
			c-0.7,0-1.4-0.1-2.2-0.3c-5.1-1.2-8.3-6.3-7.1-11.4c0.7-2.9,1.3-5.9,1.9-8.9c1-5.2,6-8.5,11.1-7.6c5.2,1,8.5,6,7.6,11.1
			c-0.6,3.2-1.3,6.4-2,9.6C644.9,356.1,641,359.1,636.6,359.1z M147.5,326.9c-4.8,0-9-3.7-9.4-8.6c-0.3-3.2-0.6-6.5-0.8-9.8
			c-0.3-5.2,3.7-9.7,8.9-10c5.2-0.2,9.7,3.7,10,8.9c0.2,3,0.4,6.1,0.7,9.1c0.5,5.2-3.3,9.9-8.6,10.4
			C148.1,326.9,147.8,326.9,147.5,326.9z M642.9,312.3c-0.1,0-0.3,0-0.4,0c-5.2-0.2-9.3-4.6-9.1-9.9c0.1-3,0.2-6,0.2-9.1v-1
			c0-5.3,4.2-9.5,9.5-9.5s9.5,4.2,9.5,9.5v0.7c0,3.6-0.1,6.8-0.2,10.1C652.2,308.3,647.9,312.3,642.9,312.3z M147.4,279.8
			c-0.3,0-0.6,0-0.9,0c-5.2-0.5-9.1-5.1-8.6-10.3c0.3-3.3,0.7-6.5,1.1-9.8c0.7-5.2,5.4-8.9,10.7-8.2c5.2,0.7,8.9,5.5,8.2,10.7
			c-0.4,3-0.7,6-1,9C156.4,276,152.2,279.8,147.4,279.8z M640,264.2c-4.6,0-8.6-3.3-9.4-8c-0.5-3-1-6-1.6-9
			c-1-5.1,2.3-10.1,7.5-11.2c5.2-1,10.1,2.4,11.2,7.5c0.6,3.2,1.2,6.4,1.7,9.7c0.8,5.2-2.7,10-7.9,10.9
			C641,264.2,640.5,264.2,640,264.2z M156.2,233.4c-0.9,0-1.8-0.1-2.7-0.4c-5-1.5-7.9-6.7-6.5-11.8c0.9-3.1,1.9-6.3,2.9-9.4
			c1.7-5,7-7.6,12-6c5,1.7,7.7,7,6,12c-1,2.9-1.9,5.8-2.7,8.7C164.1,230.7,160.3,233.4,156.2,233.4z M628.3,218.5
			c-3.9,0-7.5-2.4-8.9-6.2c-1-2.9-2.1-5.7-3.3-8.5c-2-4.9,0.4-10.4,5.2-12.4c4.9-2,10.4,0.4,12.4,5.2c1.2,3,2.4,6.1,3.5,9.1
			c1.8,4.9-0.7,10.4-5.7,12.2C630.5,218.3,629.4,218.5,628.3,218.5z M173.6,189.5c-1.5,0-3-0.3-4.3-1.1c-4.7-2.4-6.5-8.1-4.1-12.8
			c1.5-2.9,3.1-5.8,4.7-8.7c2.6-4.6,8.4-6.2,12.9-3.6c4.6,2.6,6.2,8.4,3.6,12.9c-1.5,2.6-2.9,5.3-4.3,8
			C180.4,187.6,177,189.5,173.6,189.5z M608.2,175.9c-3.2,0-6.4-1.7-8.2-4.6c-1.5-2.6-3.1-5.2-4.8-7.7c-2.9-4.4-1.6-10.3,2.8-13.1
			c4.4-2.9,10.3-1.6,13.1,2.8c1.8,2.7,3.5,5.5,5.2,8.3c2.7,4.5,1.2,10.3-3.3,13C611.5,175.4,609.8,175.9,608.2,175.9z M199.1,149.8
			c-2,0-4.1-0.7-5.9-2c-4.1-3.2-4.9-9.2-1.6-13.3c2-2.6,4.1-5.1,6.2-7.6c3.4-4,9.4-4.5,13.4-1.1c4,3.4,4.5,9.4,1.1,13.4
			c-2,2.3-3.9,4.7-5.8,7.1C204.7,148.5,201.9,149.8,199.1,149.8z M580.3,137.8c-2.6,0-5.2-1.1-7.1-3.2c-2-2.3-4.1-4.5-6.2-6.7
			c-3.6-3.8-3.5-9.8,0.3-13.4s9.8-3.5,13.4,0.3c2.3,2.4,4.5,4.8,6.7,7.2c3.5,3.9,3.1,9.9-0.8,13.4
			C584.8,137,582.5,137.8,580.3,137.8z M231.6,115.5c-2.6,0-5.3-1.1-7.2-3.3c-3.5-4-3-10,0.9-13.4c2.5-2.1,5-4.2,7.5-6.3
			c4.1-3.3,10.1-2.7,13.4,1.4c3.3,4.1,2.7,10.1-1.4,13.4c-2.4,1.9-4.7,3.9-7,5.8C236,114.8,233.8,115.5,231.6,115.5z M545.7,105.7
			c-2,0-4-0.6-5.8-2c-2.4-1.8-4.9-3.7-7.3-5.4c-4.3-3-5.3-9-2.2-13.2c3-4.3,9-5.3,13.2-2.2c2.7,1.9,5.3,3.8,7.9,5.8
			c4.2,3.2,5,9.2,1.8,13.3C551.4,104.4,548.5,105.7,545.7,105.7z M269.9,88c-3.3,0-6.5-1.7-8.2-4.7c-2.6-4.5-1.1-10.4,3.5-13
			c2.8-1.6,5.7-3.2,8.5-4.8c4.7-2.5,10.4-0.7,12.9,3.9s0.7,10.4-3.9,12.9c-2.7,1.4-5.3,2.9-8,4.4C273.2,87.6,271.5,88,269.9,88z
			 M505.7,80.6c-1.4,0-2.8-0.3-4.2-1c-2.7-1.4-5.5-2.7-8.3-3.9c-4.8-2.2-6.9-7.8-4.7-12.6c2.2-4.8,7.8-6.9,12.6-4.7
			c3,1.3,5.9,2.8,8.8,4.2c4.7,2.3,6.6,8,4.3,12.7C512.6,78.7,509.2,80.6,505.7,80.6z M312.8,68.3c-3.9,0-7.6-2.5-9-6.4
			c-1.7-5,0.9-10.4,5.8-12.1c3.1-1.1,6.2-2.1,9.3-3.1c5-1.6,10.3,1.3,11.9,6.3c1.5,5-1.3,10.3-6.3,11.9c-2.9,0.9-5.8,1.8-8.6,2.8
			C314.9,68.1,313.8,68.3,312.8,68.3z M461.6,63.6c-0.9,0-1.7-0.1-2.6-0.4c-2.9-0.8-5.9-1.6-8.8-2.3c-5.1-1.2-8.2-6.3-7-11.4
			s6.4-8.2,11.4-7c3.2,0.8,6.4,1.6,9.5,2.5c5.1,1.4,8,6.7,6.6,11.7C469.6,60.9,465.8,63.6,461.6,63.6z M358.6,57.1
			c-4.6,0-8.7-3.4-9.4-8.1c-0.8-5.2,2.8-10,8-10.8c3.2-0.5,6.5-0.9,9.7-1.2c5.4-0.5,9.9,3.2,10.5,8.4s-3.2,9.9-8.4,10.5
			c-3,0.3-6,0.7-9,1.1C359.5,57.1,359.1,57.1,358.6,57.1z M415.2,55.3c-0.3,0-0.5,0-0.8,0c-3-0.2-6-0.4-9.1-0.6
			c-5.2-0.2-9.3-4.7-9.1-9.9c0.2-5.2,4.8-9.1,9.9-9.1c3.3,0.1,6.6,0.4,9.8,0.6c5.2,0.4,9.1,5,8.7,10.2
			C424.2,51.6,420.1,55.3,415.2,55.3z"/>
	</g>
	<g>
		<path class="st0" d="M409,497.8c-4.9,0-9.1-3.8-9.5-8.8c-0.4-5.2,3.6-9.8,8.8-10.1c3-0.2,6-0.5,8.9-0.9c5.2-0.7,9.9,3.1,10.6,8.3
			c0.6,5.2-3.1,9.9-8.3,10.6c-3.3,0.4-6.6,0.7-9.9,1C409.5,497.8,409.2,497.8,409,497.8z M371.3,496.9c-0.4,0-0.7,0-1.1-0.1
			c-3.3-0.4-6.6-0.9-9.8-1.4c-5.2-0.9-8.7-5.8-7.8-11c0.9-5.2,5.8-8.7,11-7.8c2.9,0.5,5.9,0.9,8.9,1.3c5.2,0.6,8.9,5.3,8.3,10.5
			C380.2,493.4,376.1,496.9,371.3,496.9z M455.2,488.7c-4,0-7.7-2.5-9-6.6c-1.6-5,1.1-10.3,6.1-12c2.9-0.9,5.7-1.9,8.5-3
			c4.9-1.9,10.4,0.6,12.3,5.5s-0.6,10.4-5.5,12.3c-3.1,1.2-6.2,2.3-9.3,3.3C457.2,488.6,456.2,488.7,455.2,488.7z M325.6,485.7
			c-1.1,0-2.2-0.2-3.3-0.6c-3.1-1.2-6.2-2.4-9.2-3.7c-4.8-2.1-7-7.7-4.9-12.5s7.7-7,12.5-4.9c2.7,1.2,5.5,2.3,8.3,3.4
			c4.9,1.8,7.4,7.3,5.5,12.2C333,483.4,329.4,485.7,325.6,485.7z M497.9,468.8c-3.2,0-6.3-1.6-8.1-4.5c-2.8-4.5-1.4-10.3,3.1-13.1
			c2.5-1.6,5-3.2,7.5-4.9c4.3-3,10.2-1.9,13.2,2.4c3,4.3,1.9,10.2-2.4,13.2c-2.7,1.9-5.5,3.7-8.3,5.5
			C501.4,468.4,499.6,468.8,497.9,468.8z M283.8,463.9c-1.9,0-3.7-0.5-5.4-1.7c-2.7-1.9-5.4-3.8-8-5.8c-4.2-3.2-4.9-9.2-1.7-13.3
			c3.2-4.2,9.2-4.9,13.3-1.7c2.4,1.8,4.8,3.6,7.2,5.3c4.3,3,5.4,8.9,2.4,13.2C289.8,462.4,286.8,463.9,283.8,463.9z M534.6,439.3
			c-2.4,0-4.8-0.9-6.6-2.7c-3.8-3.7-3.8-9.7-0.2-13.4c2.1-2.1,4.1-4.3,6.1-6.6c3.5-3.9,9.5-4.3,13.4-0.8s4.3,9.5,0.8,13.4
			c-2.2,2.5-4.4,4.9-6.7,7.3C539.5,438.4,537.1,439.3,534.6,439.3z M248.6,432.7c-2.6,0-5.2-1.1-7.1-3.2c-2.2-2.4-4.3-5-6.4-7.5
			c-3.3-4.1-2.7-10.1,1.4-13.4c4.1-3.3,10.1-2.7,13.4,1.4c1.9,2.3,3.8,4.6,5.8,6.9c3.5,3.9,3.1,9.9-0.8,13.4
			C253.1,431.9,250.8,432.7,248.6,432.7z M563.2,401.9c-1.6,0-3.3-0.4-4.8-1.3c-4.5-2.7-6-8.5-3.3-13c1.5-2.6,3-5.2,4.4-7.8
			c2.4-4.6,8.2-6.4,12.8-4s6.4,8.2,4,12.8c-1.5,2.9-3.2,5.8-4.8,8.7C569.6,400.2,566.4,401.9,563.2,401.9z M221.7,394
			c-3.4,0-6.7-1.8-8.4-5.1c-1.5-2.9-3-5.9-4.4-8.9c-2.2-4.8-0.2-10.4,4.6-12.6s10.4-0.2,12.6,4.6c1.3,2.7,2.6,5.4,4,8
			c2.5,4.6,0.7,10.4-4,12.8C224.7,393.6,223.2,394,221.7,394z M582,358.7c-0.9,0-1.8-0.1-2.7-0.4c-5-1.5-7.9-6.8-6.4-11.8
			c0.8-2.9,1.6-5.8,2.4-8.7c1.3-5.1,6.4-8.2,11.5-7s8.2,6.4,7,11.5c-0.8,3.2-1.6,6.4-2.6,9.5C589.9,356,586.1,358.7,582,358.7z
			 M204.9,350c-4.3,0-8.1-2.9-9.2-7.2c-0.8-3.2-1.5-6.4-2.2-9.6c-1-5.1,2.3-10.1,7.5-11.2c5.1-1,10.1,2.3,11.2,7.5
			c0.6,3,1.2,5.9,1.9,8.8c1.3,5.1-1.8,10.3-6.9,11.5C206.5,349.9,205.7,350,204.9,350z M589.9,312.3c-0.2,0-0.3,0-0.5,0
			c-5.2-0.3-9.3-4.7-9-9.9c0.1-3,0.2-6,0.2-9c0-5.3,4.2-9.9,9.5-9.9s9.5,3.9,9.5,9.1v0.8c0,3.3-0.1,6.6-0.2,9.9
			C599.1,308.3,594.9,312.3,589.9,312.3z M199.2,303.1c-5.3,0-9.5-4.1-9.5-9.3v-0.4c0-3.2,0.1-6.3,0.2-9.5c0.3-5.2,4.4-9.4,9.9-9.1
			c5.2,0.2,9.3,4.7,9,9.9c-0.1,2.9-0.2,5.7-0.2,8.6C208.7,298.6,204.5,303.1,199.2,303.1z M586.4,264.6c-4.4,0-8.4-3.1-9.3-7.6
			c-0.6-3-1.2-5.9-2-8.8c-1.3-5.1,1.8-10.2,6.9-11.5c5.1-1.3,10.2,1.8,11.5,6.9c0.8,3.2,1.5,6.4,2.2,9.6c1,5.1-2.3,10.1-7.4,11.2
			C587.6,264.5,587,264.6,586.4,264.6z M204.8,256.5c-0.7,0-1.5-0.1-2.2-0.3c-5.1-1.2-8.2-6.4-7-11.5c0.8-3.2,1.6-6.4,2.6-9.6
			c1.5-5,6.8-7.9,11.8-6.4s7.9,6.8,6.4,11.8c-0.8,2.8-1.6,5.7-2.3,8.7C212.9,253.6,209.1,256.5,204.8,256.5z M571.7,219.8
			c-3.6,0-7-2-8.6-5.4c-1.3-2.7-2.6-5.4-4-8.1c-2.5-4.6-0.7-10.4,4-12.8c4.6-2.5,10.4-0.7,12.8,4c1.5,2.9,3,5.8,4.4,8.8
			c2.2,4.7,0.2,10.4-4.5,12.6C574.4,219.5,573,219.8,571.7,219.8z M221.3,212.4c-1.5,0-3-0.4-4.4-1.1c-4.6-2.4-6.4-8.2-4-12.8
			c1.5-2.9,3.1-5.8,4.8-8.6c2.6-4.5,8.5-6.1,13-3.4c4.5,2.6,6.1,8.5,3.4,13c-1.5,2.6-3,5.2-4.4,7.9
			C228.1,210.6,224.8,212.4,221.3,212.4z M546.6,179.9c-2.8,0-5.5-1.2-7.4-3.5s-3.8-4.6-5.8-6.8c-3.5-3.9-3.2-9.9,0.8-13.4
			c3.9-3.5,9.9-3.2,13.4,0.8c2.2,2.5,4.3,5,6.4,7.6c3.3,4.1,2.7,10.1-1.4,13.4C550.8,179.2,548.7,179.9,546.6,179.9z M248.1,173.6
			c-2.2,0-4.5-0.8-6.3-2.4c-3.9-3.5-4.3-9.5-0.8-13.4c2.2-2.5,4.4-4.9,6.7-7.2c3.7-3.8,9.7-3.9,13.4-0.2c3.8,3.6,3.9,9.7,0.2,13.4
			c-2.1,2.2-4.1,4.4-6.1,6.6C253.3,172.5,250.7,173.6,248.1,173.6z M512.8,147.2c-2,0-4-0.6-5.8-1.9c-2.4-1.8-4.8-3.6-7.3-5.3
			c-4.3-3-5.4-8.9-2.5-13.2c3-4.3,8.9-5.4,13.2-2.5c2.7,1.9,5.4,3.8,8,5.8c4.2,3.2,5,9.1,1.8,13.3
			C518.5,145.9,515.7,147.2,512.8,147.2z M283.2,142.3c-3,0-6-1.4-7.8-4.1c-3-4.3-1.9-10.2,2.4-13.2c2.7-1.9,5.5-3.7,8.3-5.4
			c4.5-2.8,10.3-1.4,13.1,3c2.8,4.5,1.4,10.3-3,13.1c-2.5,1.6-5,3.2-7.5,4.9C287,141.7,285.1,142.3,283.2,142.3z M472.2,123.4
			c-1.3,0-2.5-0.3-3.8-0.8c-2.7-1.2-5.5-2.3-8.3-3.4c-4.9-1.8-7.4-7.3-5.5-12.2c1.8-4.9,7.3-7.4,12.2-5.5c3.1,1.2,6.2,2.4,9.2,3.7
			c4.8,2.1,7,7.7,4.9,12.5C479.3,121.2,475.8,123.4,472.2,123.4z M324.8,120.2c-3.8,0-7.4-2.3-8.9-6.1c-1.9-4.9,0.6-10.4,5.5-12.3
			c3.1-1.2,6.2-2.3,9.3-3.3c5-1.6,10.3,1.1,12,6.1c1.6,5-1.1,10.4-6.1,12c-2.8,0.9-5.7,1.9-8.5,3C327.1,120,326,120.2,324.8,120.2z
			 M427,110.1c-0.5,0-1,0-1.5-0.1c-3-0.5-5.9-0.9-8.9-1.3c-5.2-0.6-8.9-5.3-8.3-10.5s5.3-8.9,10.5-8.3c3.3,0.4,6.5,0.9,9.8,1.4
			c5.2,0.8,8.7,5.7,7.8,10.9C435.6,106.8,431.6,110.1,427,110.1z M370.5,108.9c-4.7,0-8.8-3.5-9.4-8.3c-0.6-5.2,3.1-9.9,8.3-10.6
			c3.2-0.4,6.5-0.7,9.8-1c5.2-0.4,9.8,3.5,10.2,8.7c0.4,5.2-3.5,9.8-8.7,10.2c-3,0.2-6,0.5-9,0.9
			C371.3,108.9,370.9,108.9,370.5,108.9z"/>
	</g>
</g>
</svg>
