<?xml version="1.0" encoding="utf-8"?>
<!-- Generator: Adobe Illustrator 22.0.1, SVG Export Plug-In . SVG Version: 6.00 Build 0)  -->
<svg version="1.1" id="Camada_1" xmlns="http://www.w3.org/2000/svg" xmlns:xlink="http://www.w3.org/1999/xlink" x="0px" y="0px"
	 viewBox="0 0 778.3 587" style="enable-background:new 0 0 778.3 587;" xml:space="preserve">
<style type="text/css">
	.st0{fill:#C85044;}
	.st1{fill:#FFFFFD;}
</style>
<g>
	
		<ellipse transform="matrix(0.7071 -0.7071 0.7071 0.7071 -55.284 341.3347)" class="st0" cx="384.4" cy="237.4" rx="183" ry="183"/>
	<g>
		<path class="st1" d="M443.2,532.5c-102.3,0-185.5-83.2-185.5-185.5s83.2-185.5,185.5-185.5S628.7,244.7,628.7,347
			S545.5,532.5,443.2,532.5z M443.2,166.5c-99.5,0-180.5,81-180.5,180.5s81,180.5,180.5,180.5s180.5-81,180.5-180.5
			S542.7,166.5,443.2,166.5z"/>
	</g>
	<g>
		<rect x="373.8" y="285.6" class="st1" width="205" height="5"/>
	</g>
	<g>
		<rect x="373.8" y="271.6" class="st1" width="205" height="5"/>
	</g>
</g>
</svg>
