<?xml version="1.0" encoding="utf-8"?>
<!-- Generator: Adobe Illustrator 22.0.1, SVG Export Plug-In . SVG Version: 6.00 Build 0)  -->
<svg version="1.1" id="Camada_1" xmlns="http://www.w3.org/2000/svg" xmlns:xlink="http://www.w3.org/1999/xlink" x="0px" y="0px"
	 viewBox="0 0 778.3 587" style="enable-background:new 0 0 778.3 587;" xml:space="preserve">
<style type="text/css">
	.st0{fill:#D8D8D8;}
</style>
<g>
	<g>
		<path class="st0" d="M403.5,552.2c-5.2,0-9.4-4.2-9.5-9.4c0-5.2,4.2-9.5,9.4-9.6c3,0,6.1-0.1,9.1-0.3c4.8-0.4,9.7,3.8,9.9,9
			c0.3,5.2-3.8,9.7-9,9.9C410.2,552.1,406.9,552.2,403.5,552.2C403.6,552.2,403.6,552.2,403.5,552.2z M365.9,549.8
			c-0.4,0-0.9,0-1.3-0.1c-3.2-0.5-6.5-1-9.7-1.6c-5.2-0.9-8.6-5.9-7.7-11s5.9-8.6,11-7.7c3,0.5,6,1,9,1.4c5.2,0.7,8.8,5.5,8.1,10.7
			C374.6,546.4,370.6,549.8,365.9,549.8z M450.4,547.3c-4.4,0-8.4-3.1-9.3-7.6c-1-5.1,2.3-10.1,7.4-11.2c3-0.6,5.9-1.3,8.9-2
			c5.1-1.3,10.2,1.9,11.5,7c1.2,5.1-1.9,10.2-7,11.5c-3.2,0.8-6.4,1.5-9.5,2.1C451.7,547.2,451,547.3,450.4,547.3z M320.1,538.7
			c-1,0-2.1-0.2-3.1-0.5c-3.1-1.1-6.2-2.2-9.3-3.4c-4.9-1.9-7.3-7.4-5.4-12.3c1.9-4.9,7.4-7.3,12.3-5.4c2.8,1.1,5.6,2.1,8.5,3.1
			c5,1.7,7.6,7.1,5.9,12C327.8,536.3,324.1,538.7,320.1,538.7z M495.5,533.6c-3.7,0-7.2-2.2-8.8-5.8c-2-4.8,0.3-10.4,5.1-12.4
			c2.8-1.2,5.6-2.4,8.3-3.6c4.8-2.2,10.4-0.1,12.6,4.7s0.1,10.4-4.7,12.6c-2.9,1.4-5.9,2.6-8.9,3.9
			C497.9,533.3,496.7,533.6,495.5,533.6z M277.2,519.2c-1.6,0-3.2-0.4-4.7-1.3c-2.8-1.6-5.6-3.3-8.4-5c-4.4-2.8-5.8-8.6-3-13.1
			c2.8-4.4,8.6-5.8,13.1-3c2.6,1.6,5.2,3.2,7.8,4.7c4.5,2.6,6.1,8.4,3.5,12.9C283.7,517.5,280.5,519.2,277.2,519.2z M537.1,511.6
			c-3.1,0-6.1-1.5-7.9-4.3c-2.9-4.4-1.7-10.3,2.7-13.1c2.5-1.7,5-3.4,7.5-5.1c4.3-3.1,10.2-2.1,13.2,2.2c3,4.3,2.1,10.2-2.2,13.2
			c-2.7,1.9-5.3,3.7-8.1,5.5C540.7,511,538.9,511.6,537.1,511.6z M238.8,491.9c-2.2,0-4.4-0.8-6.2-2.3c-2.5-2.1-4.9-4.3-7.3-6.6
			c-3.8-3.6-4-9.6-0.4-13.4s9.6-4,13.4-0.4c2.2,2.1,4.5,4.1,6.7,6.1c4,3.4,4.4,9.4,1,13.4C244.1,490.8,241.5,491.9,238.8,491.9z
			 M573.8,482.1c-2.5,0-4.9-1-6.8-2.9c-3.6-3.8-3.6-9.8,0.2-13.4c2.2-2.1,4.3-4.3,6.4-6.4c3.6-3.8,9.6-3.9,13.4-0.3
			c3.8,3.6,3.9,9.6,0.3,13.4c-2.3,2.4-4.6,4.7-6.9,7C578.6,481.2,576.2,482.1,573.8,482.1z M206.3,457.8c-2.8,0-5.6-1.2-7.5-3.6
			c-2-2.6-4-5.1-5.9-7.8c-3.1-4.2-2.2-10.2,2.1-13.3s10.2-2.2,13.3,2.1c1.8,2.4,3.6,4.9,5.5,7.2c3.2,4.1,2.5,10.1-1.6,13.3
			C210.4,457.2,208.3,457.8,206.3,457.8z M604.3,446.2c-1.9,0-3.8-0.6-5.4-1.7c-4.3-3-5.3-8.9-2.3-13.2c1.7-2.5,3.4-5,5.1-7.5
			c2.8-4.4,8.7-5.7,13.1-2.8c4.4,2.8,5.7,8.7,2.8,13.1c-1.8,2.8-3.6,5.5-5.5,8.1C610.2,444.8,607.3,446.2,604.3,446.2z M180.7,418.3
			c-3.4,0-6.7-1.9-8.4-5.1c-1.5-2.9-2.9-5.8-4.3-8.8c-2.2-4.7-0.2-10.4,4.6-12.6s10.4-0.2,12.6,4.6c1.3,2.7,2.6,5.4,4,8.1
			c2.4,4.6,0.6,10.4-4,12.8C183.7,417.9,182.2,418.3,180.7,418.3z M627.5,405.1c-1.3,0-2.6-0.3-3.8-0.8c-4.8-2.1-6.9-7.7-4.8-12.5
			c1.2-2.8,2.4-5.6,3.5-8.4c2-4.9,7.5-7.2,12.3-5.3c4.9,2,7.2,7.5,5.3,12.3c-1.2,3-2.5,6.1-3.8,9
			C634.6,403.1,631.1,405.1,627.5,405.1z M163.1,374.6c-4.1,0-7.9-2.7-9.1-6.8c-0.9-3.1-1.8-6.3-2.6-9.4c-1.3-5.1,1.8-10.2,6.8-11.5
			c5.1-1.3,10.2,1.8,11.5,6.8c0.8,2.9,1.6,5.9,2.4,8.8c1.5,5-1.4,10.3-6.4,11.8C164.9,374.5,164,374.6,163.1,374.6z M642.5,360.4
			c-0.7,0-1.4-0.1-2.2-0.3c-5.1-1.2-8.3-6.3-7.1-11.4c0.7-2.9,1.3-5.9,1.9-8.9c1-5.2,6-8.5,11.1-7.5s8.5,6,7.5,11.1
			c-0.6,3.2-1.3,6.4-2,9.6C650.7,357.5,646.8,360.4,642.5,360.4z M154.2,328.3c-4.8,0-9-3.7-9.4-8.6c-0.3-3.2-0.6-6.5-0.8-9.7
			c-0.3-5.2,3.7-9.7,8.9-10c5.2-0.2,9.7,3.7,10,8.9c0.2,3,0.4,6,0.7,9.1c0.5,5.2-3.3,9.8-8.5,10.3
			C154.8,328.3,154.5,328.3,154.2,328.3z M648.7,313.7c-0.1,0-0.3,0-0.4,0c-5.2-0.2-9.3-4.6-9.1-9.8c0.1-3,0.2-6,0.2-9.1v-1
			c0-5.2,4.2-9.5,9.5-9.5c5.2,0,9.5,4.2,9.5,9.5v0.7c0,3.5-0.1,6.8-0.2,10.1C658,309.7,653.8,313.7,648.7,313.7z M154.1,281.2
			c-0.3,0-0.6,0-0.9,0c-5.2-0.5-9.1-5.1-8.6-10.3c0.3-3.3,0.7-6.5,1.1-9.7c0.7-5.2,5.4-8.8,10.6-8.2c5.2,0.7,8.9,5.4,8.2,10.6
			c-0.4,3-0.7,6-1,9C163.1,277.5,158.9,281.2,154.1,281.2z M645.9,265.7c-4.6,0-8.6-3.3-9.4-8c-0.5-3-1-6-1.6-8.9
			c-1-5.1,2.3-10.1,7.5-11.1s10.1,2.4,11.1,7.5c0.6,3.2,1.2,6.4,1.7,9.7c0.8,5.2-2.7,10-7.9,10.8
			C646.9,265.7,646.4,265.7,645.9,265.7z M162.9,235c-0.9,0-1.8-0.1-2.6-0.4c-5-1.5-7.9-6.7-6.5-11.8c0.9-3.1,1.9-6.3,2.9-9.4
			c1.7-5,7-7.6,12-6c5,1.7,7.7,7,6,12c-1,2.9-1.9,5.8-2.7,8.7C170.8,232.3,167,235,162.9,235z M634.2,220.1c-3.9,0-7.5-2.4-8.9-6.2
			c-1-2.9-2.1-5.7-3.3-8.5c-2-4.9,0.4-10.4,5.2-12.3c4.9-2,10.4,0.4,12.3,5.2c1.2,3,2.4,6,3.5,9.1c1.8,4.9-0.7,10.4-5.7,12.2
			C636.4,219.9,635.3,220.1,634.2,220.1z M180.3,191.2c-1.5,0-2.9-0.3-4.3-1.1c-4.7-2.4-6.5-8.1-4.1-12.8c1.5-2.9,3-5.8,4.6-8.6
			c2.6-4.6,8.3-6.2,12.9-3.6c4.6,2.6,6.2,8.4,3.6,12.9c-1.5,2.6-2.9,5.3-4.3,8C187,189.3,183.7,191.2,180.3,191.2z M614.1,177.5
			c-3.2,0-6.4-1.6-8.2-4.6c-1.5-2.6-3.1-5.2-4.8-7.7c-2.9-4.4-1.6-10.3,2.8-13.1c4.4-2.9,10.3-1.6,13.1,2.8c1.8,2.7,3.5,5.5,5.2,8.3
			c2.7,4.5,1.2,10.3-3.3,13C617.4,177.1,615.7,177.5,614.1,177.5z M205.7,151.5c-2,0-4.1-0.7-5.8-2c-4.1-3.2-4.8-9.2-1.6-13.3
			c2-2.6,4.1-5.1,6.2-7.6c3.4-4,9.3-4.5,13.4-1.1c4,3.4,4.5,9.4,1.1,13.4c-2,2.3-3.9,4.7-5.8,7.1
			C211.3,150.2,208.5,151.5,205.7,151.5z M586.2,139.6c-2.6,0-5.2-1.1-7.1-3.2c-2-2.3-4-4.5-6.1-6.6c-3.6-3.8-3.5-9.8,0.3-13.4
			s9.8-3.5,13.4,0.3c2.3,2.4,4.5,4.8,6.7,7.2c3.5,3.9,3.1,9.9-0.8,13.4C590.7,138.8,588.5,139.6,586.2,139.6z M238.1,117.3
			c-2.6,0-5.3-1.1-7.1-3.3c-3.4-4-3-9.9,0.9-13.4c2.5-2.1,5-4.2,7.5-6.3c4.1-3.3,10-2.6,13.3,1.4c3.3,4.1,2.6,10-1.4,13.3
			c-2.4,1.9-4.7,3.8-7,5.8C242.6,116.5,240.4,117.3,238.1,117.3z M551.7,107.5c-2,0-4-0.6-5.8-2c-2.4-1.8-4.8-3.6-7.3-5.4
			c-4.3-3-5.3-9-2.2-13.2c3-4.3,8.9-5.3,13.2-2.2c2.7,1.9,5.3,3.8,7.9,5.8c4.2,3.2,4.9,9.1,1.8,13.3
			C557.4,106.2,554.6,107.5,551.7,107.5z M276.4,89.9c-3.3,0-6.5-1.7-8.2-4.7c-2.6-4.5-1.1-10.3,3.4-13c2.8-1.6,5.6-3.2,8.5-4.7
			c4.6-2.5,10.4-0.7,12.8,3.9c2.5,4.6,0.7,10.4-3.9,12.8c-2.7,1.4-5.3,2.9-7.9,4.4C279.7,89.5,278,89.9,276.4,89.9z M511.8,82.5
			c-1.4,0-2.8-0.3-4.2-1c-2.7-1.4-5.5-2.7-8.3-3.9c-4.8-2.2-6.9-7.8-4.7-12.6c2.2-4.8,7.8-6.9,12.6-4.7c3,1.3,5.9,2.8,8.8,4.2
			c4.7,2.3,6.6,8,4.3,12.7C518.6,80.5,515.3,82.5,511.8,82.5z M319.2,70.2c-3.9,0-7.6-2.5-9-6.4c-1.7-4.9,0.9-10.4,5.8-12.1
			c3.1-1.1,6.2-2.1,9.3-3c5-1.6,10.3,1.3,11.9,6.3c1.5,5-1.3,10.3-6.3,11.8c-2.9,0.9-5.8,1.8-8.6,2.8
			C321.3,70,320.2,70.2,319.2,70.2z M467.8,65.5c-0.9,0-1.7-0.1-2.6-0.4c-2.9-0.8-5.8-1.6-8.8-2.3c-5.1-1.2-8.2-6.3-7-11.4
			s6.4-8.2,11.4-7c3.2,0.8,6.3,1.6,9.5,2.5c5,1.4,8,6.6,6.6,11.7C475.8,62.8,471.9,65.5,467.8,65.5z M364.9,59
			c-4.6,0-8.7-3.4-9.4-8.1c-0.8-5.2,2.8-10,8-10.7c3.2-0.5,6.5-0.9,9.7-1.2c5.4-0.5,9.9,3.2,10.4,8.4c0.6,5.2-3.2,9.9-8.4,10.4
			c-3,0.3-6,0.7-9,1.1C365.9,58.9,365.4,59,364.9,59z M421.4,57.2c-0.3,0-0.5,0-0.8,0c-3-0.2-6-0.4-9.1-0.6
			c-5.2-0.2-9.3-4.7-9.1-9.9c0.2-5.2,4.8-9.1,9.9-9.1c3.3,0.1,6.5,0.4,9.8,0.6c5.2,0.4,9.1,5,8.7,10.2
			C430.5,53.5,426.3,57.2,421.4,57.2z"/>
	</g>
	<g>
		<path class="st0" d="M415.3,498.9c-4.9,0-9.1-3.8-9.4-8.8c-0.4-5.2,3.6-9.8,8.8-10.1c3-0.2,6-0.5,8.9-0.9
			c5.2-0.7,9.9,3.1,10.6,8.3c0.6,5.2-3.1,9.9-8.3,10.6c-3.3,0.4-6.5,0.7-9.9,1C415.7,498.9,415.5,498.9,415.3,498.9z M377.7,498
			c-0.4,0-0.7,0-1.1-0.1c-3.3-0.4-6.6-0.9-9.8-1.4c-5.2-0.9-8.6-5.8-7.8-10.9c0.9-5.2,5.8-8.6,10.9-7.8c2.9,0.5,5.9,0.9,8.9,1.3
			c5.2,0.6,8.9,5.3,8.3,10.5C386.5,494.5,382.4,498,377.7,498z M461.4,489.9c-4,0-7.7-2.5-9-6.5c-1.6-5,1.1-10.3,6.1-12
			c2.9-0.9,5.7-1.9,8.5-3c4.9-1.9,10.4,0.6,12.2,5.5c1.9,4.9-0.6,10.4-5.5,12.2c-3.1,1.2-6.2,2.3-9.3,3.3
			C463.4,489.7,462.4,489.9,461.4,489.9z M332,486.9c-1.1,0-2.2-0.2-3.3-0.6c-3.1-1.2-6.2-2.4-9.2-3.7c-4.8-2.1-7-7.7-4.9-12.5
			s7.7-7,12.5-4.9c2.7,1.2,5.5,2.3,8.3,3.4c4.9,1.8,7.4,7.3,5.5,12.2C339.4,484.5,335.8,486.9,332,486.9z M504,470
			c-3.2,0-6.3-1.6-8.1-4.5c-2.8-4.5-1.4-10.3,3.1-13.1c2.5-1.6,5-3.2,7.5-4.9c4.3-3,10.2-1.9,13.2,2.4s1.9,10.2-2.4,13.2
			c-2.7,1.9-5.5,3.7-8.3,5.4C507.4,469.5,505.7,470,504,470z M290.3,465c-1.9,0-3.7-0.5-5.4-1.7c-2.7-1.9-5.4-3.8-8-5.8
			c-4.2-3.2-4.9-9.1-1.7-13.3c3.2-4.2,9.1-4.9,13.3-1.7c2.4,1.8,4.8,3.6,7.2,5.3c4.3,3,5.4,8.9,2.4,13.2
			C296.3,463.6,293.3,465,290.3,465z M540.6,440.5c-2.4,0-4.8-0.9-6.6-2.7c-3.8-3.7-3.8-9.7-0.2-13.4c2.1-2.1,4.1-4.3,6.1-6.6
			c3.5-3.9,9.5-4.3,13.4-0.8s4.3,9.5,0.8,13.4c-2.2,2.5-4.4,4.9-6.7,7.2C545.6,439.6,543.1,440.5,540.6,440.5z M255.1,433.9
			c-2.6,0-5.2-1.1-7.1-3.2c-2.2-2.4-4.3-5-6.4-7.5c-3.3-4.1-2.7-10,1.4-13.3c4.1-3.3,10-2.7,13.3,1.4c1.9,2.3,3.8,4.6,5.8,6.9
			c3.5,3.9,3.1,9.9-0.8,13.4C259.6,433.1,257.3,433.9,255.1,433.9z M569.2,403.2c-1.6,0-3.3-0.4-4.8-1.3c-4.5-2.7-6-8.5-3.3-13
			c1.5-2.6,3-5.2,4.4-7.8c2.4-4.6,8.1-6.4,12.8-4c4.6,2.4,6.4,8.2,4,12.8c-1.5,2.9-3.1,5.8-4.8,8.7
			C575.6,401.5,572.4,403.2,569.2,403.2z M228.3,395.3c-3.4,0-6.7-1.8-8.4-5.1c-1.5-2.9-3-5.8-4.4-8.8c-2.2-4.8-0.2-10.4,4.6-12.6
			s10.4-0.2,12.6,4.6c1.3,2.7,2.6,5.4,4,8c2.5,4.6,0.7,10.4-4,12.8C231.3,394.9,229.8,395.3,228.3,395.3z M588,360.1
			c-0.9,0-1.8-0.1-2.7-0.4c-5-1.5-7.9-6.8-6.4-11.8c0.8-2.9,1.6-5.8,2.4-8.7c1.3-5.1,6.4-8.2,11.5-6.9c5.1,1.2,8.2,6.4,6.9,11.5
			c-0.8,3.2-1.6,6.4-2.6,9.5C595.8,357.4,592.1,360.1,588,360.1z M211.6,351.4c-4.3,0-8.1-2.9-9.2-7.2c-0.8-3.2-1.5-6.4-2.1-9.6
			c-1-5.1,2.3-10.1,7.5-11.2c5.1-1,10.1,2.3,11.2,7.5c0.6,3,1.2,5.9,1.9,8.8c1.3,5.1-1.8,10.2-6.9,11.5
			C213.1,351.3,212.3,351.4,211.6,351.4z M595.8,313.7c-0.2,0-0.3,0-0.5,0c-5.2-0.3-9.3-4.7-9-9.9c0.1-3,0.2-6,0.2-9
			c0-5.2,4.2-9.9,9.5-9.9c5.2,0,9.5,3.9,9.5,9.1v0.8c0,3.3-0.1,6.6-0.2,9.9C605.1,309.8,600.9,313.7,595.8,313.7z M205.8,304.5
			c-5.2,0-9.5-4-9.5-9.3v-0.4c0-3.2,0.1-6.3,0.2-9.5c0.3-5.2,4.4-9.4,9.9-9c5.2,0.2,9.3,4.7,9,9.9c-0.1,2.9-0.2,5.7-0.2,8.6
			C215.3,300.1,211.1,304.5,205.8,304.5z M592.3,266.1c-4.4,0-8.4-3.1-9.3-7.6c-0.6-2.9-1.2-5.9-2-8.8c-1.3-5.1,1.8-10.2,6.9-11.5
			c5.1-1.3,10.2,1.8,11.5,6.9c0.8,3.2,1.5,6.4,2.2,9.6c1,5.1-2.3,10.1-7.4,11.2C593.6,266,592.9,266.1,592.3,266.1z M211.4,258
			c-0.7,0-1.5-0.1-2.2-0.3c-5.1-1.2-8.2-6.4-7-11.4c0.8-3.2,1.6-6.4,2.6-9.6c1.5-5,6.8-7.9,11.8-6.4s7.9,6.8,6.4,11.8
			c-0.8,2.8-1.6,5.7-2.3,8.6C219.5,255.1,215.7,258,211.4,258z M577.6,221.4c-3.6,0-7-2-8.6-5.4c-1.3-2.7-2.6-5.4-4-8
			c-2.5-4.6-0.7-10.4,4-12.8c4.6-2.5,10.4-0.7,12.8,4c1.5,2.9,3,5.8,4.4,8.8c2.2,4.7,0.2,10.4-4.5,12.6
			C580.4,221.1,579,221.4,577.6,221.4z M227.9,214c-1.5,0-3-0.4-4.4-1.1c-4.6-2.4-6.4-8.2-4-12.8c1.5-2.9,3.1-5.8,4.8-8.6
			c2.6-4.5,8.5-6.1,13-3.4c4.5,2.6,6,8.4,3.4,13c-1.5,2.6-3,5.2-4.4,7.9C234.6,212.2,231.4,214,227.9,214z M552.7,181.6
			c-2.8,0-5.5-1.2-7.4-3.5s-3.8-4.6-5.8-6.8c-3.5-3.9-3.1-9.9,0.8-13.4c3.9-3.5,9.9-3.2,13.4,0.8c2.2,2.5,4.3,5,6.4,7.5
			c3.3,4.1,2.6,10-1.4,13.3C556.9,180.9,554.7,181.6,552.7,181.6z M254.6,175.3c-2.2,0-4.5-0.8-6.3-2.4c-3.9-3.5-4.3-9.5-0.8-13.4
			c2.2-2.5,4.4-4.9,6.7-7.2c3.6-3.8,9.7-3.9,13.4-0.2c3.8,3.6,3.9,9.6,0.2,13.4c-2.1,2.2-4.1,4.4-6.1,6.6
			C259.8,174.2,257.2,175.3,254.6,175.3z M518.9,148.9c-2,0-4-0.6-5.7-1.9c-2.4-1.8-4.8-3.6-7.3-5.2c-4.3-3-5.4-8.9-2.5-13.2
			c3-4.3,8.9-5.4,13.2-2.5c2.7,1.9,5.4,3.8,8,5.8c4.2,3.2,5,9.1,1.8,13.3C524.6,147.6,521.8,148.9,518.9,148.9z M289.7,144
			c-3,0-6-1.4-7.8-4.1c-3-4.3-1.9-10.2,2.4-13.2c2.7-1.9,5.4-3.7,8.2-5.4c4.5-2.8,10.3-1.4,13.1,3c2.8,4.4,1.4,10.3-3,13.1
			c-2.5,1.6-5,3.2-7.5,4.9C293.5,143.4,291.6,144,289.7,144z M478.3,125.1c-1.3,0-2.5-0.3-3.8-0.8c-2.7-1.2-5.5-2.3-8.3-3.4
			c-4.9-1.8-7.4-7.3-5.5-12.2c1.8-4.9,7.3-7.4,12.2-5.5c3.1,1.2,6.1,2.4,9.2,3.7c4.8,2.1,7,7.7,4.9,12.5
			C485.5,123,482,125.1,478.3,125.1z M331.2,122c-3.8,0-7.4-2.3-8.9-6.1c-1.9-4.9,0.6-10.4,5.5-12.2c3.1-1.2,6.2-2.3,9.3-3.3
			c5-1.6,10.3,1.1,12,6.1c1.6,5-1.1,10.3-6.1,12c-2.8,0.9-5.7,1.9-8.4,3C333.5,121.8,332.4,122,331.2,122z M433.2,111.9
			c-0.5,0-1,0-1.5-0.1c-3-0.5-5.9-0.9-8.9-1.3c-5.2-0.6-8.9-5.3-8.3-10.5s5.3-8.9,10.5-8.3c3.3,0.4,6.5,0.9,9.8,1.4
			c5.2,0.8,8.7,5.7,7.8,10.9C441.8,108.6,437.8,111.9,433.2,111.9z M376.9,110.7c-4.7,0-8.8-3.5-9.4-8.3c-0.6-5.2,3.1-9.9,8.3-10.6
			c3.2-0.4,6.5-0.7,9.8-1c5.2-0.4,9.8,3.5,10.2,8.7c0.4,5.2-3.5,9.8-8.7,10.2c-3,0.2-6,0.5-8.9,0.9
			C377.6,110.6,377.2,110.7,376.9,110.7z"/>
	</g>
</g>
</svg>
