<?xml version="1.0" encoding="utf-8"?>
<!-- Generator: Adobe Illustrator 22.0.1, SVG Export Plug-In . SVG Version: 6.00 Build 0)  -->
<svg version="1.1" id="Camada_1" xmlns="http://www.w3.org/2000/svg" xmlns:xlink="http://www.w3.org/1999/xlink" x="0px" y="0px"
	 viewBox="0 0 778.3 587" style="enable-background:new 0 0 778.3 587;" xml:space="preserve">
<style type="text/css">
	.st0{fill:#2C4E7E;}
	.st1{clip-path:url(#SVGID_2_);}
	.st2{fill:#EFCB4B;}
</style>
<g>
	
		<ellipse transform="matrix(0.7071 -0.7071 0.7071 0.7071 -56.3748 450.8175)" class="st0" cx="516" cy="293.5" rx="192.9" ry="192.9"/>
	<g>
		<g>
			<defs>
				<circle id="SVGID_1_" cx="277.4" cy="293.1" r="192.6"/>
			</defs>
			<clipPath id="SVGID_2_">
				<use xlink:href="#SVGID_1_"  style="overflow:visible;"/>
			</clipPath>
			<g class="st1">
				<g>
					<g>
						
							<rect x="-399.5" y="61.8" transform="matrix(0.7606 -0.6493 0.6493 0.7606 15.5857 175.5648)" class="st2" width="1290.7" height="9.8"/>
					</g>
					<g>
						
							<rect x="-379.5" y="83.9" transform="matrix(0.7606 -0.6493 0.6493 0.7606 6.0168 193.8844)" class="st2" width="1290.7" height="9.8"/>
					</g>
					<g>
						
							<rect x="-359.3" y="106.1" transform="matrix(0.7606 -0.6493 0.6493 0.7606 -3.5876 212.2657)" class="st2" width="1290.7" height="9.8"/>
					</g>
					<g>
						
							<rect x="-339.2" y="128.3" transform="matrix(0.7606 -0.6493 0.6493 0.7606 -13.1897 230.6458)" class="st2" width="1290.7" height="9.8"/>
					</g>
					<g>
						
							<rect x="-319.1" y="150.5" transform="matrix(0.7606 -0.6493 0.6493 0.7606 -22.7931 249.0263)" class="st2" width="1290.7" height="9.8"/>
					</g>
					<g>
						
							<rect x="-298.9" y="172.7" transform="matrix(0.7606 -0.6493 0.6493 0.7606 -32.3354 267.4415)" class="st2" width="1290.7" height="9.8"/>
					</g>
					<g>
						
							<rect x="-278.8" y="194.8" transform="matrix(0.7606 -0.6493 0.6493 0.7606 -41.9041 285.761)" class="st2" width="1290.7" height="9.8"/>
					</g>
					<g>
						
							<rect x="-258.7" y="217" transform="matrix(0.7606 -0.6493 0.6493 0.7606 -51.5072 304.1422)" class="st2" width="1290.7" height="9.8"/>
					</g>
					<g>
						
							<rect x="-238.6" y="239.2" transform="matrix(0.7606 -0.6493 0.6493 0.7606 -61.1106 322.5224)" class="st2" width="1290.7" height="9.8"/>
					</g>
					<g>
						
							<rect x="-218.4" y="261.4" transform="matrix(0.7606 -0.6493 0.6493 0.7606 -70.6527 340.9359)" class="st2" width="1290.7" height="9.8"/>
					</g>
					<g>
						
							<rect x="-198.3" y="283.6" transform="matrix(0.7606 -0.6493 0.6493 0.7606 -80.2569 359.3171)" class="st2" width="1290.7" height="9.8"/>
					</g>
					<g>
						
							<rect x="-178.2" y="305.7" transform="matrix(0.7606 -0.6493 0.6493 0.7606 -89.8252 377.6369)" class="st2" width="1290.7" height="9.8"/>
					</g>
					<g>
						
							<rect x="-158.1" y="327.9" transform="matrix(0.7606 -0.6493 0.6493 0.7606 -99.4295 396.0181)" class="st2" width="1290.7" height="9.8"/>
					</g>
					<g>
						
							<rect x="-138" y="350.1" transform="matrix(0.7606 -0.6493 0.6493 0.7606 -109.0312 414.3989)" class="st2" width="1290.7" height="9.8"/>
					</g>
				</g>
			</g>
		</g>
	</g>
</g>
</svg>
