<?xml version="1.0" encoding="utf-8"?>
<!-- Generator: Adobe Illustrator 22.0.1, SVG Export Plug-In . SVG Version: 6.00 Build 0)  -->
<svg version="1.1" id="Camada_1" xmlns="http://www.w3.org/2000/svg" xmlns:xlink="http://www.w3.org/1999/xlink" x="0px" y="0px"
	 viewBox="0 0 778.3 587" style="enable-background:new 0 0 778.3 587;" xml:space="preserve">
<style type="text/css">
	.st0{fill:#D6DFE6;}
</style>
<g>
	<g>
		<g>
			<g>
				<g>
					<path class="st0" d="M356.3,67.5L356.3,67.5c0-10.5,8.5-19,19-19l0,0c10.5,0,19,8.5,19,19l0,0c0,10.5-8.5,19-19,19l0,0
						C364.8,86.5,356.3,78,356.3,67.5z"/>
					<path class="st0" d="M304.4,67.5L304.4,67.5c0-10.5,8.5-19,19-19l0,0c10.5,0,19,8.5,19,19l0,0c0,10.5-8.5,19-19,19l0,0
						C312.9,86.5,304.4,78,304.4,67.5z"/>
					<path class="st0" d="M356.3,118.9L356.3,118.9c0-10.5,8.5-19,19-19l0,0c10.5,0,19,8.5,19,19l0,0c0,10.5-8.5,19-19,19l0,0
						C364.8,138,356.3,129.5,356.3,118.9z"/>
					<path class="st0" d="M304.4,118.9L304.4,118.9c0-10.5,8.5-19,19-19l0,0c10.5,0,19,8.5,19,19l0,0c0,10.5-8.5,19-19,19l0,0
						C312.9,138,304.4,129.5,304.4,118.9z"/>
					<path class="st0" d="M356.3,169.2L356.3,169.2c0-10.5,8.5-19,19-19l0,0c10.5,0,19,8.5,19,19l0,0c0,10.5-8.5,19-19,19l0,0
						C364.8,188.2,356.3,179.7,356.3,169.2z"/>
					<path class="st0" d="M304.4,169.2L304.4,169.2c0-10.5,8.5-19,19-19l0,0c10.5,0,19,8.5,19,19l0,0c0,10.5-8.5,19-19,19l0,0
						C312.9,188.2,304.4,179.7,304.4,169.2z"/>
					<path class="st0" d="M356.3,220.6L356.3,220.6c0-10.5,8.5-19,19-19l0,0c10.5,0,19,8.5,19,19l0,0c0,10.5-8.5,19-19,19l0,0
						C364.8,239.7,356.3,231.1,356.3,220.6z"/>
					<path class="st0" d="M304.4,220.6L304.4,220.6c0-10.5,8.5-19,19-19l0,0c10.5,0,19,8.5,19,19l0,0c0,10.5-8.5,19-19,19l0,0
						C312.9,239.7,304.4,231.1,304.4,220.6z"/>
					<path class="st0" d="M356.3,272.1L356.3,272.1c0-10.5,8.5-19,19-19l0,0c10.5,0,19,8.5,19,19l0,0c0,10.5-8.5,19-19,19l0,0
						C364.8,291.1,356.3,282.6,356.3,272.1z"/>
					<path class="st0" d="M304.4,272.1L304.4,272.1c0-10.5,8.5-19,19-19l0,0c10.5,0,19,8.5,19,19l0,0c0,10.5-8.5,19-19,19l0,0
						C312.9,291.1,304.4,282.6,304.4,272.1z"/>
					<path class="st0" d="M356.3,323.5L356.3,323.5c0-10.5,8.5-19,19-19l0,0c10.5,0,19,8.5,19,19l0,0c0,10.5-8.5,19-19,19l0,0
						C364.8,342.6,356.3,334.1,356.3,323.5z"/>
					<path class="st0" d="M304.4,323.5L304.4,323.5c0-10.5,8.5-19,19-19l0,0c10.5,0,19,8.5,19,19l0,0c0,10.5-8.5,19-19,19l0,0
						C312.9,342.6,304.4,334.1,304.4,323.5z"/>
					<path class="st0" d="M356.3,373.8L356.3,373.8c0-10.5,8.5-19,19-19l0,0c10.5,0,19,8.5,19,19l0,0c0,10.5-8.5,19-19,19l0,0
						C364.8,392.8,356.3,384.3,356.3,373.8z"/>
					<path class="st0" d="M304.4,373.8L304.4,373.8c0-10.5,8.5-19,19-19l0,0c10.5,0,19,8.5,19,19l0,0c0,10.5-8.5,19-19,19l0,0
						C312.9,392.8,304.4,384.3,304.4,373.8z"/>
					<path class="st0" d="M356.3,425.2L356.3,425.2c0-10.5,8.5-19,19-19l0,0c10.5,0,19,8.5,19,19l0,0c0,10.5-8.5,19-19,19l0,0
						C364.8,444.3,356.3,435.7,356.3,425.2z"/>
					<path class="st0" d="M304.4,425.2L304.4,425.2c0-10.5,8.5-19,19-19l0,0c10.5,0,19,8.5,19,19l0,0c0,10.5-8.5,19-19,19l0,0
						C312.9,444.3,304.4,435.7,304.4,425.2z"/>
					<path class="st0" d="M356.3,426L356.3,426c0-10.5,8.5-19,19-19l0,0c10.5,0,19,8.5,19,19l0,0c0,10.5-8.5,19-19,19l0,0
						C364.8,445,356.3,436.5,356.3,426z"/>
					<path class="st0" d="M304.4,426L304.4,426c0-10.5,8.5-19,19-19l0,0c10.5,0,19,8.5,19,19l0,0c0,10.5-8.5,19-19,19l0,0
						C312.9,445,304.4,436.5,304.4,426z"/>
					<path class="st0" d="M356.3,477.4L356.3,477.4c0-10.5,8.5-19,19-19l0,0c10.5,0,19,8.5,19,19l0,0c0,10.5-8.5,19-19,19l0,0
						C364.8,496.4,356.3,487.9,356.3,477.4z"/>
					<path class="st0" d="M304.4,477.4L304.4,477.4c0-10.5,8.5-19,19-19l0,0c10.5,0,19,8.5,19,19l0,0c0,10.5-8.5,19-19,19l0,0
						C312.9,496.4,304.4,487.9,304.4,477.4z"/>
					<path class="st0" d="M356.3,527.6L356.3,527.6c0-10.5,8.5-19,19-19l0,0c10.5,0,19,8.5,19,19l0,0c0,10.5-8.5,19-19,19l0,0
						C364.8,546.7,356.3,538.2,356.3,527.6z"/>
					<path class="st0" d="M304.4,527.6L304.4,527.6c0-10.5,8.5-19,19-19l0,0c10.5,0,19,8.5,19,19l0,0c0,10.5-8.5,19-19,19l0,0
						C312.9,546.7,304.4,538.2,304.4,527.6z"/>
				</g>
			</g>
			<g>
				<g>
					<path class="st0" d="M252.4,67.5L252.4,67.5c0-10.5,8.5-19,19-19l0,0c10.5,0,19,8.5,19,19l0,0c0,10.5-8.5,19-19,19l0,0
						C260.9,86.5,252.4,78,252.4,67.5z"/>
					<path class="st0" d="M200.5,67.5L200.5,67.5c0-10.5,8.5-19,19-19l0,0c10.5,0,19,8.5,19,19l0,0c0,10.5-8.5,19-19,19l0,0
						C209,86.5,200.5,78,200.5,67.5z"/>
					<path class="st0" d="M252.4,118.9L252.4,118.9c0-10.5,8.5-19,19-19l0,0c10.5,0,19,8.5,19,19l0,0c0,10.5-8.5,19-19,19l0,0
						C260.9,138,252.4,129.5,252.4,118.9z"/>
					<path class="st0" d="M200.5,118.9L200.5,118.9c0-10.5,8.5-19,19-19l0,0c10.5,0,19,8.5,19,19l0,0c0,10.5-8.5,19-19,19l0,0
						C209,138,200.5,129.5,200.5,118.9z"/>
					<path class="st0" d="M252.4,169.2L252.4,169.2c0-10.5,8.5-19,19-19l0,0c10.5,0,19,8.5,19,19l0,0c0,10.5-8.5,19-19,19l0,0
						C260.9,188.2,252.4,179.7,252.4,169.2z"/>
					<path class="st0" d="M200.5,169.2L200.5,169.2c0-10.5,8.5-19,19-19l0,0c10.5,0,19,8.5,19,19l0,0c0,10.5-8.5,19-19,19l0,0
						C209,188.2,200.5,179.7,200.5,169.2z"/>
					<path class="st0" d="M252.4,220.6L252.4,220.6c0-10.5,8.5-19,19-19l0,0c10.5,0,19,8.5,19,19l0,0c0,10.5-8.5,19-19,19l0,0
						C260.9,239.7,252.4,231.1,252.4,220.6z"/>
					<path class="st0" d="M200.5,220.6L200.5,220.6c0-10.5,8.5-19,19-19l0,0c10.5,0,19,8.5,19,19l0,0c0,10.5-8.5,19-19,19l0,0
						C209,239.7,200.5,231.1,200.5,220.6z"/>
					<path class="st0" d="M252.4,272.1L252.4,272.1c0-10.5,8.5-19,19-19l0,0c10.5,0,19,8.5,19,19l0,0c0,10.5-8.5,19-19,19l0,0
						C260.9,291.1,252.4,282.6,252.4,272.1z"/>
					<path class="st0" d="M200.5,272.1L200.5,272.1c0-10.5,8.5-19,19-19l0,0c10.5,0,19,8.5,19,19l0,0c0,10.5-8.5,19-19,19l0,0
						C209,291.1,200.5,282.6,200.5,272.1z"/>
					<path class="st0" d="M252.4,323.5L252.4,323.5c0-10.5,8.5-19,19-19l0,0c10.5,0,19,8.5,19,19l0,0c0,10.5-8.5,19-19,19l0,0
						C260.9,342.6,252.4,334.1,252.4,323.5z"/>
					<path class="st0" d="M200.5,323.5L200.5,323.5c0-10.5,8.5-19,19-19l0,0c10.5,0,19,8.5,19,19l0,0c0,10.5-8.5,19-19,19l0,0
						C209,342.6,200.5,334.1,200.5,323.5z"/>
					<path class="st0" d="M252.4,373.8L252.4,373.8c0-10.5,8.5-19,19-19l0,0c10.5,0,19,8.5,19,19l0,0c0,10.5-8.5,19-19,19l0,0
						C260.9,392.8,252.4,384.3,252.4,373.8z"/>
					<path class="st0" d="M200.5,373.8L200.5,373.8c0-10.5,8.5-19,19-19l0,0c10.5,0,19,8.5,19,19l0,0c0,10.5-8.5,19-19,19l0,0
						C209,392.8,200.5,384.3,200.5,373.8z"/>
					<path class="st0" d="M252.4,425.2L252.4,425.2c0-10.5,8.5-19,19-19l0,0c10.5,0,19,8.5,19,19l0,0c0,10.5-8.5,19-19,19l0,0
						C260.9,444.3,252.4,435.7,252.4,425.2z"/>
					<path class="st0" d="M200.5,425.2L200.5,425.2c0-10.5,8.5-19,19-19l0,0c10.5,0,19,8.5,19,19l0,0c0,10.5-8.5,19-19,19l0,0
						C209,444.3,200.5,435.7,200.5,425.2z"/>
					<path class="st0" d="M252.4,426L252.4,426c0-10.5,8.5-19,19-19l0,0c10.5,0,19,8.5,19,19l0,0c0,10.5-8.5,19-19,19l0,0
						C260.9,445,252.4,436.5,252.4,426z"/>
					<path class="st0" d="M200.5,426L200.5,426c0-10.5,8.5-19,19-19l0,0c10.5,0,19,8.5,19,19l0,0c0,10.5-8.5,19-19,19l0,0
						C209,445,200.5,436.5,200.5,426z"/>
					<path class="st0" d="M252.4,477.4L252.4,477.4c0-10.5,8.5-19,19-19l0,0c10.5,0,19,8.5,19,19l0,0c0,10.5-8.5,19-19,19l0,0
						C260.9,496.4,252.4,487.9,252.4,477.4z"/>
					<path class="st0" d="M200.5,477.4L200.5,477.4c0-10.5,8.5-19,19-19l0,0c10.5,0,19,8.5,19,19l0,0c0,10.5-8.5,19-19,19l0,0
						C209,496.4,200.5,487.9,200.5,477.4z"/>
					<path class="st0" d="M252.4,527.6L252.4,527.6c0-10.5,8.5-19,19-19l0,0c10.5,0,19,8.5,19,19l0,0c0,10.5-8.5,19-19,19l0,0
						C260.9,546.7,252.4,538.2,252.4,527.6z"/>
					<path class="st0" d="M200.5,527.6L200.5,527.6c0-10.5,8.5-19,19-19l0,0c10.5,0,19,8.5,19,19l0,0c0,10.5-8.5,19-19,19l0,0
						C209,546.7,200.5,538.2,200.5,527.6z"/>
				</g>
			</g>
		</g>
	</g>
	<g>
		<g>
			<g>
				<g>
					<path class="st0" d="M563.6,67.5L563.6,67.5c0-10.5,8.5-19,19-19l0,0c10.5,0,19,8.5,19,19l0,0c0,10.5-8.5,19-19,19l0,0
						C572.1,86.5,563.6,78,563.6,67.5z"/>
					<path class="st0" d="M511.7,67.5L511.7,67.5c0-10.5,8.5-19,19-19l0,0c10.5,0,19,8.5,19,19l0,0c0,10.5-8.5,19-19,19l0,0
						C520.2,86.5,511.7,78,511.7,67.5z"/>
					<path class="st0" d="M563.6,118.9L563.6,118.9c0-10.5,8.5-19,19-19l0,0c10.5,0,19,8.5,19,19l0,0c0,10.5-8.5,19-19,19l0,0
						C572.1,138,563.6,129.5,563.6,118.9z"/>
					<path class="st0" d="M511.7,118.9L511.7,118.9c0-10.5,8.5-19,19-19l0,0c10.5,0,19,8.5,19,19l0,0c0,10.5-8.5,19-19,19l0,0
						C520.2,138,511.7,129.5,511.7,118.9z"/>
					<path class="st0" d="M563.6,169.2L563.6,169.2c0-10.5,8.5-19,19-19l0,0c10.5,0,19,8.5,19,19l0,0c0,10.5-8.5,19-19,19l0,0
						C572.1,188.2,563.6,179.7,563.6,169.2z"/>
					<path class="st0" d="M511.7,169.2L511.7,169.2c0-10.5,8.5-19,19-19l0,0c10.5,0,19,8.5,19,19l0,0c0,10.5-8.5,19-19,19l0,0
						C520.2,188.2,511.7,179.7,511.7,169.2z"/>
					<path class="st0" d="M563.6,220.6L563.6,220.6c0-10.5,8.5-19,19-19l0,0c10.5,0,19,8.5,19,19l0,0c0,10.5-8.5,19-19,19l0,0
						C572.1,239.7,563.6,231.1,563.6,220.6z"/>
					<path class="st0" d="M511.7,220.6L511.7,220.6c0-10.5,8.5-19,19-19l0,0c10.5,0,19,8.5,19,19l0,0c0,10.5-8.5,19-19,19l0,0
						C520.2,239.7,511.7,231.1,511.7,220.6z"/>
					<path class="st0" d="M563.6,272.1L563.6,272.1c0-10.5,8.5-19,19-19l0,0c10.5,0,19,8.5,19,19l0,0c0,10.5-8.5,19-19,19l0,0
						C572.1,291.1,563.6,282.6,563.6,272.1z"/>
					<path class="st0" d="M511.7,272.1L511.7,272.1c0-10.5,8.5-19,19-19l0,0c10.5,0,19,8.5,19,19l0,0c0,10.5-8.5,19-19,19l0,0
						C520.2,291.1,511.7,282.6,511.7,272.1z"/>
					<path class="st0" d="M563.6,323.5L563.6,323.5c0-10.5,8.5-19,19-19l0,0c10.5,0,19,8.5,19,19l0,0c0,10.5-8.5,19-19,19l0,0
						C572.1,342.6,563.6,334.1,563.6,323.5z"/>
					<path class="st0" d="M511.7,323.5L511.7,323.5c0-10.5,8.5-19,19-19l0,0c10.5,0,19,8.5,19,19l0,0c0,10.5-8.5,19-19,19l0,0
						C520.2,342.6,511.7,334.1,511.7,323.5z"/>
					<path class="st0" d="M563.6,373.8L563.6,373.8c0-10.5,8.5-19,19-19l0,0c10.5,0,19,8.5,19,19l0,0c0,10.5-8.5,19-19,19l0,0
						C572.1,392.8,563.6,384.3,563.6,373.8z"/>
					<path class="st0" d="M511.7,373.8L511.7,373.8c0-10.5,8.5-19,19-19l0,0c10.5,0,19,8.5,19,19l0,0c0,10.5-8.5,19-19,19l0,0
						C520.2,392.8,511.7,384.3,511.7,373.8z"/>
					<path class="st0" d="M563.6,425.2L563.6,425.2c0-10.5,8.5-19,19-19l0,0c10.5,0,19,8.5,19,19l0,0c0,10.5-8.5,19-19,19l0,0
						C572.1,444.3,563.6,435.7,563.6,425.2z"/>
					<path class="st0" d="M511.7,425.2L511.7,425.2c0-10.5,8.5-19,19-19l0,0c10.5,0,19,8.5,19,19l0,0c0,10.5-8.5,19-19,19l0,0
						C520.2,444.3,511.7,435.7,511.7,425.2z"/>
					<path class="st0" d="M563.6,426L563.6,426c0-10.5,8.5-19,19-19l0,0c10.5,0,19,8.5,19,19l0,0c0,10.5-8.5,19-19,19l0,0
						C572.1,445,563.6,436.5,563.6,426z"/>
					<path class="st0" d="M511.7,426L511.7,426c0-10.5,8.5-19,19-19l0,0c10.5,0,19,8.5,19,19l0,0c0,10.5-8.5,19-19,19l0,0
						C520.2,445,511.7,436.5,511.7,426z"/>
					<path class="st0" d="M563.6,477.4L563.6,477.4c0-10.5,8.5-19,19-19l0,0c10.5,0,19,8.5,19,19l0,0c0,10.5-8.5,19-19,19l0,0
						C572.1,496.4,563.6,487.9,563.6,477.4z"/>
					<path class="st0" d="M511.7,477.4L511.7,477.4c0-10.5,8.5-19,19-19l0,0c10.5,0,19,8.5,19,19l0,0c0,10.5-8.5,19-19,19l0,0
						C520.2,496.4,511.7,487.9,511.7,477.4z"/>
					<path class="st0" d="M563.6,527.6L563.6,527.6c0-10.5,8.5-19,19-19l0,0c10.5,0,19,8.5,19,19l0,0c0,10.5-8.5,19-19,19l0,0
						C572.1,546.7,563.6,538.2,563.6,527.6z"/>
					<path class="st0" d="M511.7,527.6L511.7,527.6c0-10.5,8.5-19,19-19l0,0c10.5,0,19,8.5,19,19l0,0c0,10.5-8.5,19-19,19l0,0
						C520.2,546.7,511.7,538.2,511.7,527.6z"/>
				</g>
			</g>
			<g>
				<g>
					<path class="st0" d="M459.7,67.5L459.7,67.5c0-10.5,8.5-19,19-19l0,0c10.5,0,19,8.5,19,19l0,0c0,10.5-8.5,19-19,19l0,0
						C468.2,86.5,459.7,78,459.7,67.5z"/>
					<path class="st0" d="M407.7,67.5L407.7,67.5c0-10.5,8.5-19,19-19l0,0c10.5,0,19,8.5,19,19l0,0c0,10.5-8.5,19-19,19l0,0
						C416.3,86.5,407.7,78,407.7,67.5z"/>
					<path class="st0" d="M459.7,118.9L459.7,118.9c0-10.5,8.5-19,19-19l0,0c10.5,0,19,8.5,19,19l0,0c0,10.5-8.5,19-19,19l0,0
						C468.2,138,459.7,129.5,459.7,118.9z"/>
					<path class="st0" d="M407.7,118.9L407.7,118.9c0-10.5,8.5-19,19-19l0,0c10.5,0,19,8.5,19,19l0,0c0,10.5-8.5,19-19,19l0,0
						C416.3,138,407.7,129.5,407.7,118.9z"/>
					<path class="st0" d="M459.7,169.2L459.7,169.2c0-10.5,8.5-19,19-19l0,0c10.5,0,19,8.5,19,19l0,0c0,10.5-8.5,19-19,19l0,0
						C468.2,188.2,459.7,179.7,459.7,169.2z"/>
					<path class="st0" d="M407.7,169.2L407.7,169.2c0-10.5,8.5-19,19-19l0,0c10.5,0,19,8.5,19,19l0,0c0,10.5-8.5,19-19,19l0,0
						C416.3,188.2,407.7,179.7,407.7,169.2z"/>
					<path class="st0" d="M459.7,220.6L459.7,220.6c0-10.5,8.5-19,19-19l0,0c10.5,0,19,8.5,19,19l0,0c0,10.5-8.5,19-19,19l0,0
						C468.2,239.7,459.7,231.1,459.7,220.6z"/>
					<path class="st0" d="M407.7,220.6L407.7,220.6c0-10.5,8.5-19,19-19l0,0c10.5,0,19,8.5,19,19l0,0c0,10.5-8.5,19-19,19l0,0
						C416.3,239.7,407.7,231.1,407.7,220.6z"/>
					<path class="st0" d="M459.7,272.1L459.7,272.1c0-10.5,8.5-19,19-19l0,0c10.5,0,19,8.5,19,19l0,0c0,10.5-8.5,19-19,19l0,0
						C468.2,291.1,459.7,282.6,459.7,272.1z"/>
					<path class="st0" d="M407.7,272.1L407.7,272.1c0-10.5,8.5-19,19-19l0,0c10.5,0,19,8.5,19,19l0,0c0,10.5-8.5,19-19,19l0,0
						C416.3,291.1,407.7,282.6,407.7,272.1z"/>
					<path class="st0" d="M459.7,323.5L459.7,323.5c0-10.5,8.5-19,19-19l0,0c10.5,0,19,8.5,19,19l0,0c0,10.5-8.5,19-19,19l0,0
						C468.2,342.6,459.7,334.1,459.7,323.5z"/>
					<path class="st0" d="M407.7,323.5L407.7,323.5c0-10.5,8.5-19,19-19l0,0c10.5,0,19,8.5,19,19l0,0c0,10.5-8.5,19-19,19l0,0
						C416.3,342.6,407.7,334.1,407.7,323.5z"/>
					<path class="st0" d="M459.7,373.8L459.7,373.8c0-10.5,8.5-19,19-19l0,0c10.5,0,19,8.5,19,19l0,0c0,10.5-8.5,19-19,19l0,0
						C468.2,392.8,459.7,384.3,459.7,373.8z"/>
					<path class="st0" d="M407.7,373.8L407.7,373.8c0-10.5,8.5-19,19-19l0,0c10.5,0,19,8.5,19,19l0,0c0,10.5-8.5,19-19,19l0,0
						C416.3,392.8,407.7,384.3,407.7,373.8z"/>
					<path class="st0" d="M459.7,425.2L459.7,425.2c0-10.5,8.5-19,19-19l0,0c10.5,0,19,8.5,19,19l0,0c0,10.5-8.5,19-19,19l0,0
						C468.2,444.3,459.7,435.7,459.7,425.2z"/>
					<path class="st0" d="M407.7,425.2L407.7,425.2c0-10.5,8.5-19,19-19l0,0c10.5,0,19,8.5,19,19l0,0c0,10.5-8.5,19-19,19l0,0
						C416.3,444.3,407.7,435.7,407.7,425.2z"/>
					<path class="st0" d="M459.7,426L459.7,426c0-10.5,8.5-19,19-19l0,0c10.5,0,19,8.5,19,19l0,0c0,10.5-8.5,19-19,19l0,0
						C468.2,445,459.7,436.5,459.7,426z"/>
					<path class="st0" d="M407.7,426L407.7,426c0-10.5,8.5-19,19-19l0,0c10.5,0,19,8.5,19,19l0,0c0,10.5-8.5,19-19,19l0,0
						C416.3,445,407.7,436.5,407.7,426z"/>
					<path class="st0" d="M459.7,477.4L459.7,477.4c0-10.5,8.5-19,19-19l0,0c10.5,0,19,8.5,19,19l0,0c0,10.5-8.5,19-19,19l0,0
						C468.2,496.4,459.7,487.9,459.7,477.4z"/>
					<path class="st0" d="M407.7,477.4L407.7,477.4c0-10.5,8.5-19,19-19l0,0c10.5,0,19,8.5,19,19l0,0c0,10.5-8.5,19-19,19l0,0
						C416.3,496.4,407.7,487.9,407.7,477.4z"/>
					<path class="st0" d="M459.7,527.6L459.7,527.6c0-10.5,8.5-19,19-19l0,0c10.5,0,19,8.5,19,19l0,0c0,10.5-8.5,19-19,19l0,0
						C468.2,546.7,459.7,538.2,459.7,527.6z"/>
					<path class="st0" d="M407.7,527.6L407.7,527.6c0-10.5,8.5-19,19-19l0,0c10.5,0,19,8.5,19,19l0,0c0,10.5-8.5,19-19,19l0,0
						C416.3,546.7,407.7,538.2,407.7,527.6z"/>
				</g>
			</g>
		</g>
	</g>
</g>
</svg>
