<?xml version="1.0" encoding="utf-8"?>
<!-- Generator: Adobe Illustrator 22.0.1, SVG Export Plug-In . SVG Version: 6.00 Build 0)  -->
<svg version="1.1" id="Camada_1" xmlns="http://www.w3.org/2000/svg" xmlns:xlink="http://www.w3.org/1999/xlink" x="0px" y="0px"
	 viewBox="0 0 778.3 587" style="enable-background:new 0 0 778.3 587;" xml:space="preserve">
<style type="text/css">
	.st0{opacity:0.5;}
	.st1{clip-path:url(#SVGID_2_);}
	.st2{fill:none;stroke:#A0E8F9;stroke-width:4;stroke-miterlimit:10;}
</style>
<g class="st0">
	<g>
		<g>
			<g>
				<defs>
					<path id="SVGID_1_" d="M752.9,116.6c-56.7-36-128.8-46.7-193.5-28.6s-120.8,64.7-150.5,124.9c-10.3,20.8-19.5,45.2-40.7,54.6
						c-15.8,7-34.5,3.4-50.2-4c-15.6-7.4-29.3-18.4-44.4-26.9c-53.7-30.4-124.9-26.6-175,9.4S22.2,348.3,34,408.9h718.9V116.6z"/>
				</defs>
				<clipPath id="SVGID_2_">
					<use xlink:href="#SVGID_1_"  style="overflow:visible;"/>
				</clipPath>
				<g class="st1">
					<line class="st2" x1="-232.1" y1="568.7" x2="997.5" y2="-481.2"/>
					<line class="st2" x1="-206.9" y1="596.5" x2="1022.7" y2="-453.4"/>
					<line class="st2" x1="-181.7" y1="624.3" x2="1047.9" y2="-425.6"/>
					<line class="st2" x1="-156.4" y1="652.1" x2="1073.1" y2="-397.8"/>
					<line class="st2" x1="-131.2" y1="679.9" x2="1098.4" y2="-370"/>
					<line class="st2" x1="-106" y1="707.7" x2="1123.6" y2="-342.2"/>
					<line class="st2" x1="-80.8" y1="735.5" x2="1148.8" y2="-314.4"/>
					<line class="st2" x1="-55.6" y1="763.3" x2="1174" y2="-286.7"/>
					<line class="st2" x1="-30.4" y1="791" x2="1199.2" y2="-258.9"/>
					<line class="st2" x1="-5.2" y1="818.8" x2="1224.4" y2="-231.1"/>
					<line class="st2" x1="20" y1="846.6" x2="1249.6" y2="-203.3"/>
					<line class="st2" x1="45.2" y1="874.4" x2="1274.8" y2="-175.5"/>
					<line class="st2" x1="70.4" y1="902.2" x2="1300" y2="-147.7"/>
					<line class="st2" x1="95.7" y1="930" x2="1325.2" y2="-119.9"/>
				</g>
			</g>
		</g>
	</g>
</g>
</svg>
