<?xml version="1.0" encoding="utf-8"?>
<!-- Generator: Adobe Illustrator 22.0.1, SVG Export Plug-In . SVG Version: 6.00 Build 0)  -->
<svg version="1.1" id="Camada_1" xmlns="http://www.w3.org/2000/svg" xmlns:xlink="http://www.w3.org/1999/xlink" x="0px" y="0px"
	 viewBox="0 0 778.3 587" style="enable-background:new 0 0 778.3 587;" xml:space="preserve">
<style type="text/css">
	.st0{fill:#EFCB4B;}
</style>
<g>
	<g>
		<g>
			<polygon class="st0" points="67.8,358 52.2,343.9 101.2,289.8 52.2,235.7 67.8,221.5 129.6,289.8 			"/>
		</g>
		<g>
			<polygon class="st0" points="128.5,358 112.9,343.9 161.8,289.8 112.9,235.7 128.5,221.5 190.3,289.8 			"/>
		</g>
		<g>
			<polygon class="st0" points="189.2,358 173.5,343.9 222.5,289.8 173.5,235.7 189.2,221.5 250.9,289.8 			"/>
		</g>
		<g>
			<polygon class="st0" points="249.8,358 234.2,343.9 283.2,289.8 234.2,235.7 249.8,221.5 311.6,289.8 			"/>
		</g>
		<g>
			<polygon class="st0" points="310.5,358 294.9,343.9 343.8,289.8 294.9,235.7 310.5,221.5 372.3,289.8 			"/>
		</g>
		<g>
			<polygon class="st0" points="371.2,358 355.6,343.9 404.5,289.8 355.6,235.7 371.2,221.5 432.9,289.8 			"/>
		</g>
		<g>
			<polygon class="st0" points="431.8,358 416.2,343.9 465.2,289.8 416.2,235.7 431.8,221.5 493.6,289.8 			"/>
		</g>
		<g>
			<polygon class="st0" points="492.5,358 476.9,343.9 525.8,289.8 476.9,235.7 492.5,221.5 554.3,289.8 			"/>
		</g>
		<g>
			<polygon class="st0" points="492.5,358 476.9,343.9 525.8,289.8 476.9,235.7 492.5,221.5 554.3,289.8 			"/>
		</g>
		<g>
			<polygon class="st0" points="553.2,358 537.6,343.9 586.5,289.8 537.6,235.7 553.2,221.5 614.9,289.8 			"/>
		</g>
		<g>
			<polygon class="st0" points="613.9,358 598.2,343.9 647.2,289.8 598.2,235.7 613.9,221.5 675.6,289.8 			"/>
		</g>
		<g>
			<polygon class="st0" points="674.5,358 658.9,343.9 707.8,289.8 658.9,235.7 674.5,221.5 736.3,289.8 			"/>
		</g>
	</g>
</g>
</svg>
