<?xml version="1.0" encoding="utf-8"?>
<!-- Generator: Adobe Illustrator 27.7.0, SVG Export Plug-In . SVG Version: 6.00 Build 0)  -->
<svg version="1.1" id="Camada_1" xmlns="http://www.w3.org/2000/svg" xmlns:xlink="http://www.w3.org/1999/xlink" x="0px" y="0px"
	 viewBox="0 0 72 72" style="enable-background:new 0 0 72 72;" xml:space="preserve">
<style type="text/css">
	.st0{fill:#FFFFFF;}
</style>
<g>
	<path class="st0" d="M45.2,32c0-5.5-4.4-9.9-9.9-9.9s-9.9,4.4-9.9,9.9s4.4,9.9,9.9,9.9C40.8,41.9,45.2,37.5,45.2,32z M35.3,40.1
		c-4.5,0-8.1-3.6-8.1-8.1s3.6-8.1,8.1-8.1s8.1,3.6,8.1,8.1l0,0C43.4,36.5,39.8,40.1,35.3,40.1z M39.2,29c0.4,0.3,0.5,0.9,0.2,1.3
		l-4.7,6.1c-0.2,0.2-0.4,0.4-0.7,0.4l0,0c-0.3,0-0.6-0.1-0.7-0.4l-1.9-2.7c-0.3-0.4-0.2-1,0.2-1.3c0.4-0.3,1-0.2,1.3,0.2l1.2,1.7
		l3.9-5.2C38.2,28.7,38.8,28.7,39.2,29z M44.6,42c1.1,0.1,2.2-0.4,2.9-1.1c0.5-1,0.6-2.2,0.1-3.2c-0.2-0.5-0.2-1.1-0.2-1.7
		c0.3-0.5,0.7-0.9,1.1-1.2c1-0.6,1.6-1.6,1.8-2.7c-0.2-1.1-0.8-2.1-1.8-2.7c-0.4-0.3-0.8-0.7-1.1-1.2c0-0.6,0-1.1,0.2-1.7
		c0.4-1,0.4-2.2-0.1-3.2c-0.8-0.8-1.9-1.2-3-1.1c-0.6,0-1.1-0.1-1.6-0.3c-0.4-0.4-0.7-0.9-0.8-1.5c-0.4-1-0.9-2.2-2-2.5
		c-1.1-0.2-2.2,0.1-3.1,0.8c-0.5,0.3-1,0.6-1.6,0.7c-0.6-0.1-1.1-0.4-1.6-0.7c-0.8-0.7-2-1-3.1-0.8c-1.1,0.4-1.6,1.5-2,2.5
		c-0.2,0.5-0.5,1-0.8,1.5c-0.5,0.2-1.1,0.3-1.6,0.3c-1.1-0.1-2.2,0.4-3,1.1c-0.5,1-0.6,2.2-0.1,3.2c0.2,0.5,0.2,1.1,0.2,1.7
		c-0.3,0.5-0.7,0.9-1.1,1.2c-1,0.6-1.6,1.6-1.8,2.7c0.2,1.1,0.8,2.1,1.8,2.7c0.4,0.3,0.8,0.7,1.1,1.2c0,0.6,0,1.1-0.2,1.7
		c-0.4,1-0.4,2.2,0.1,3.2C24,41.6,25,42,26.1,42l-4.8,6.2c-0.3,0.4-0.2,1,0.2,1.3c0.2,0.1,0.4,0.2,0.6,0.2l4.1-0.6l0.6,4.1
		c0.1,0.4,0.3,0.6,0.7,0.7c0.1,0,0.2,0,0.2,0c0.3,0,0.5-0.1,0.7-0.4l6.8-8.9c0,0,0.1,0,0.1,0l6.8,8.9c0.2,0.2,0.4,0.4,0.7,0.4
		c0.1,0,0.2,0,0.2,0c0.3-0.1,0.6-0.4,0.7-0.7l0.6-4.1l4.1,0.6c0.5,0.1,1-0.3,1-0.8c0-0.2,0-0.5-0.2-0.6L44.6,42z M28.4,50.8L28,47.9
		c-0.1-0.5-0.5-0.8-1-0.8l-2.9,0.4l3.9-5.1c0.3,0.4,0.5,0.8,0.7,1.3c0.4,1,0.9,2.2,2,2.5c0.4,0.1,0.8,0.1,1.1,0.1L28.4,50.8z
		 M35.3,42.9c-0.2,0-0.4,0-0.6,0.1c0,0,0,0,0,0c-0.1,0-0.1,0-0.2,0.1c0,0,0,0-0.1,0c-0.5,0.2-1,0.5-1.5,0.8
		c-0.5,0.3-1.3,0.8-1.6,0.7c-0.3-0.1-0.7-0.9-0.9-1.5c-0.3-0.8-0.8-1.6-1.4-2.2c-0.2-0.2-0.5-0.3-0.7-0.4c-0.1,0-0.2-0.1-0.3-0.1
		c-0.5-0.1-1-0.2-1.5-0.2c-0.6-0.1-1.5-0.1-1.7-0.4c-0.2-0.3,0-1.1,0.1-1.7c0.3-0.9,0.3-1.8,0.1-2.6c-0.4-0.8-0.9-1.5-1.6-2
		c-0.5-0.4-1.2-1-1.2-1.4c0-0.4,0.6-0.9,1.2-1.4c0.7-0.5,1.3-1.2,1.6-2c0.2-0.9,0.1-1.8-0.1-2.6c-0.1-0.6-0.3-1.5-0.1-1.7
		c0.2-0.3,1.1-0.4,1.7-0.4c0.9,0,1.8-0.2,2.5-0.7c0.7-0.6,1.1-1.3,1.4-2.2c0.3-0.6,0.6-1.4,0.9-1.5c0,0,0.1,0,0.1,0
		c0.5,0.1,1,0.4,1.5,0.7c0.7,0.5,1.6,0.9,2.5,1c0.9-0.1,1.8-0.4,2.5-1c0.5-0.3,1.3-0.8,1.6-0.7c0.3,0.1,0.7,0.9,0.9,1.5
		c0.3,0.8,0.8,1.6,1.4,2.2c0.8,0.4,1.6,0.7,2.5,0.7c0.6,0.1,1.5,0.1,1.7,0.4c0.2,0.3,0,1.1-0.1,1.7c-0.3,0.9-0.3,1.8-0.1,2.6
		c0.4,0.8,0.9,1.5,1.6,2c0.5,0.5,1.2,1,1.2,1.4s-0.6,0.9-1.2,1.4c-0.7,0.5-1.3,1.2-1.6,2c-0.2,0.9-0.1,1.8,0.1,2.6
		c0.1,0.6,0.3,1.5,0.1,1.7s-1.1,0.4-1.7,0.4c-0.6,0-1.1,0.1-1.6,0.3c0,0,0,0-0.1,0c-0.3,0.1-0.6,0.2-0.8,0.4
		c-0.7,0.6-1.1,1.3-1.4,2.2c-0.3,0.6-0.6,1.4-0.9,1.5c-0.3,0.1-1-0.3-1.6-0.7c-0.5-0.3-1-0.6-1.5-0.8c0,0-0.1,0-0.1,0
		c-0.1,0-0.1-0.1-0.2-0.1c0,0,0,0,0,0C35.8,43,35.6,42.9,35.3,42.9z M43.7,47.2c-0.5-0.1-0.9,0.3-1,0.8l-0.4,2.9l-3.4-4.5
		c0.2,0,0.3,0.1,0.5,0.1c0.2,0,0.4,0,0.6-0.1c1.1-0.4,1.6-1.5,2-2.5c0.2-0.5,0.4-0.9,0.7-1.3l3.9,5.1L43.7,47.2z"/>
</g>
<g>
	<path class="st0" d="M218.2,49.6c-2.5,0-5-0.6-7.2-1.8l-6.5,1.7c-0.5,0.1-1.1-0.2-1.2-0.7c0-0.2,0-0.4,0-0.5l1.7-6.5
		c-6.1-10.9,3.9-24.5,16.1-21.9c5.4,1.1,9.7,5,11.3,10.3C235.6,39.8,228,49.7,218.2,49.6z M211.2,45.6c10.3,5.9,22.9-3,19.4-14.9
		c-3-10.3-16.8-12.5-22.9-3.7c-3,4.1-3.3,9.6-0.7,14c0.1,0.2,0.2,0.5,0.1,0.8l-1.4,5.2l5.2-1.4C211,45.7,211.1,45.6,211.2,45.6z
		 M218.2,43.8c-1.6,0-3-1.3-3-3v-5.9c0-1.6,1.4-2.9,3-2.9c1.6,0,2.9,1.3,2.9,2.9v5.9C221.2,42.4,219.9,43.8,218.2,43.8L218.2,43.8z
		 M218.2,34c-0.5,0-0.9,0.3-0.9,0.8c0,0,0,0.1,0,0.1l0,5.9c0,0.5,0.4,0.9,0.9,0.9c0.5,0,0.9-0.4,0.9-0.9v-5.9c0-0.5-0.3-0.9-0.8-0.9
		C218.3,34,218.3,34,218.2,34z M218.3,31.2c-1.6,0-2.9-1.2-2.9-2.8c0-0.1,0-0.2,0-0.2c0.2-3.7,5.9-3.6,5.8,0.2
		C221.2,30,219.9,31.2,218.3,31.2C218.3,31.2,218.3,31.2,218.3,31.2L218.3,31.2z M217.4,28.3c0,0.5,0.3,0.9,0.8,0.9c0,0,0.1,0,0.1,0
		c0.5,0,0.9-0.4,0.9-0.9c0-0.5-0.4-0.9-0.9-0.9c0,0,0,0,0,0C217.8,27.4,217.4,27.8,217.4,28.3C217.4,28.3,217.4,28.3,217.4,28.3z"/>
</g>
<g>
	<path class="st0" d="M141.9,51.9V30.4h-5.4v-5.4h-6.4v26.8h-4.3V35.8h-5.4v-5.4h-6.4v21.4H113v1.1h30v-1.1H141.9z M115.1,51.9V31.5
		h4.3v20.4H115.1z M120.5,51.9v-15h4.3v15H120.5z M131.2,51.9V26.1h4.3v25.7H131.2z M136.6,51.9V31.5h4.3v20.4H136.6z"/>
</g>
<path class="st0" d="M324.5,48.9l-9.2-9.2c1.5-1.8,2.3-4.3,2.3-6.6c0-3.1-1.3-5.8-3.3-7.9c-2-2.1-5.1-3.6-8.1-3.6s-5.8,1.3-7.9,3.3
	c-2.1,2-3.3,5.1-3.3,7.9s1.3,5.8,3.3,7.9c2,2.1,4.8,3.3,7.9,3.3c2.3,0,4.3-0.5,6.1-1.8l9.1,9.2c0.5,0.5,1,0.5,1.5,0.5s1-0.2,1.5-0.5
	C325.2,50.9,325.2,49.6,324.5,48.9z M301.3,37.9c-2.8-2.8-2.8-7.1,0-9.9c1.3-1.3,3.1-2.1,5.1-2.1c2.1,0,3.6,0.8,5.1,2.1
	c1.3,1.3,2.1,3.1,2.1,5.1s-0.8,3.6-2.1,5.1l0,0C308.4,40.8,303.9,40.8,301.3,37.9z"/>
</svg>
