<?xml version="1.0" encoding="utf-8"?>
<!-- Generator: Adobe Illustrator 27.7.0, SVG Export Plug-In . SVG Version: 6.00 Build 0)  -->
<svg version="1.1" id="Camada_1" xmlns="http://www.w3.org/2000/svg" xmlns:xlink="http://www.w3.org/1999/xlink" x="0px" y="0px"
	 viewBox="0 0 72 72" style="enable-background:new 0 0 72 72;" xml:space="preserve">
<style type="text/css">
	.st0{fill:#FFFFFF;}
</style>
<g>
	<path class="st0" d="M-230.8,32c0-5.5-4.4-9.9-9.9-9.9c-5.5,0-9.9,4.4-9.9,9.9s4.4,9.9,9.9,9.9C-235.2,41.9-230.8,37.5-230.8,32z
		 M-240.7,40.1c-4.5,0-8.1-3.6-8.1-8.1s3.6-8.1,8.1-8.1c4.5,0,8.1,3.6,8.1,8.1l0,0C-232.6,36.5-236.2,40.1-240.7,40.1z M-236.8,29
		c0.4,0.3,0.5,0.9,0.2,1.3l-4.7,6.1c-0.2,0.2-0.4,0.4-0.7,0.4l0,0c-0.3,0-0.6-0.1-0.7-0.4l-1.9-2.7c-0.3-0.4-0.2-1,0.2-1.3
		s1-0.2,1.3,0.2l1.2,1.7l3.9-5.2C-237.8,28.7-237.2,28.7-236.8,29z M-231.4,42c1.1,0.1,2.2-0.4,2.9-1.1c0.5-1,0.6-2.2,0.1-3.2
		c-0.2-0.5-0.2-1.1-0.2-1.7c0.3-0.5,0.7-0.9,1.1-1.2c1-0.6,1.6-1.6,1.8-2.7c-0.2-1.1-0.8-2.1-1.8-2.7c-0.4-0.3-0.8-0.7-1.1-1.2
		c0-0.6,0-1.1,0.2-1.7c0.4-1,0.4-2.2-0.1-3.2c-0.8-0.8-1.9-1.2-3-1.1c-0.6,0-1.1-0.1-1.6-0.3c-0.4-0.4-0.7-0.9-0.8-1.5
		c-0.4-1-0.9-2.2-2-2.5c-1.1-0.2-2.2,0.1-3.1,0.8c-0.5,0.3-1,0.6-1.6,0.7c-0.6-0.1-1.1-0.4-1.6-0.7c-0.8-0.7-2-1-3.1-0.8
		c-1.1,0.4-1.6,1.5-2,2.5c-0.2,0.5-0.5,1-0.8,1.5c-0.5,0.2-1.1,0.3-1.6,0.3c-1.1-0.1-2.2,0.4-3,1.1c-0.5,1-0.6,2.2-0.1,3.2
		c0.2,0.5,0.2,1.1,0.2,1.7c-0.3,0.5-0.7,0.9-1.1,1.2c-1,0.6-1.6,1.6-1.8,2.7c0.2,1.1,0.8,2.1,1.8,2.7c0.4,0.3,0.8,0.7,1.1,1.2
		c0,0.6,0,1.1-0.2,1.7c-0.4,1-0.4,2.2,0.1,3.2c0.8,0.8,1.8,1.2,2.9,1.1l-4.8,6.2c-0.3,0.4-0.2,1,0.2,1.3c0.2,0.1,0.4,0.2,0.6,0.2
		l4.1-0.6l0.6,4.1c0.1,0.4,0.3,0.6,0.7,0.7c0.1,0,0.2,0,0.2,0c0.3,0,0.5-0.1,0.7-0.4l6.8-8.9c0,0,0.1,0,0.1,0l6.8,8.9
		c0.2,0.2,0.4,0.4,0.7,0.4c0.1,0,0.2,0,0.2,0c0.3-0.1,0.6-0.4,0.7-0.7l0.6-4.1l4.1,0.6c0.5,0.1,1-0.3,1-0.8c0-0.2,0-0.5-0.2-0.6
		L-231.4,42z M-247.6,50.8l-0.4-2.9c-0.1-0.5-0.5-0.8-1-0.8l-2.9,0.4l3.9-5.1c0.3,0.4,0.5,0.8,0.7,1.3c0.4,1,0.9,2.2,2,2.5
		c0.4,0.1,0.8,0.1,1.1,0.1L-247.6,50.8z M-240.7,42.9c-0.2,0-0.4,0-0.6,0.1c0,0,0,0,0,0c-0.1,0-0.1,0-0.2,0.1c0,0,0,0-0.1,0
		c-0.5,0.2-1,0.5-1.5,0.8c-0.5,0.3-1.3,0.8-1.6,0.7c-0.3-0.1-0.7-0.9-0.9-1.5c-0.3-0.8-0.8-1.6-1.4-2.2c-0.2-0.2-0.5-0.3-0.7-0.4
		c-0.1,0-0.2-0.1-0.3-0.1c-0.5-0.1-1-0.2-1.5-0.2c-0.6-0.1-1.5-0.1-1.7-0.4c-0.2-0.3,0-1.1,0.1-1.7c0.3-0.9,0.3-1.8,0.1-2.6
		c-0.4-0.8-0.9-1.5-1.6-2c-0.5-0.4-1.2-1-1.2-1.4c0-0.4,0.6-0.9,1.2-1.4c0.7-0.5,1.3-1.2,1.6-2c0.2-0.9,0.1-1.8-0.1-2.6
		c-0.1-0.6-0.3-1.5-0.1-1.7c0.2-0.3,1.1-0.4,1.7-0.4c0.9,0,1.8-0.2,2.5-0.7c0.7-0.6,1.1-1.3,1.4-2.2c0.3-0.6,0.6-1.4,0.9-1.5
		c0,0,0.1,0,0.1,0c0.5,0.1,1,0.4,1.5,0.7c0.7,0.5,1.6,0.9,2.5,1c0.9-0.1,1.8-0.4,2.5-1c0.5-0.3,1.3-0.8,1.6-0.7
		c0.3,0.1,0.7,0.9,0.9,1.5c0.3,0.8,0.8,1.6,1.4,2.2c0.8,0.4,1.6,0.7,2.5,0.7c0.6,0.1,1.5,0.1,1.7,0.4c0.2,0.3,0,1.1-0.1,1.7
		c-0.3,0.9-0.3,1.8-0.1,2.6c0.4,0.8,0.9,1.5,1.6,2c0.5,0.5,1.2,1,1.2,1.4s-0.6,0.9-1.2,1.4c-0.7,0.5-1.3,1.2-1.6,2
		c-0.2,0.9-0.1,1.8,0.1,2.6c0.1,0.6,0.3,1.5,0.1,1.7s-1.1,0.4-1.7,0.4c-0.6,0-1.1,0.1-1.6,0.3c0,0,0,0-0.1,0
		c-0.3,0.1-0.6,0.2-0.8,0.4c-0.7,0.6-1.1,1.3-1.4,2.2c-0.3,0.6-0.6,1.4-0.9,1.5c-0.3,0.1-1-0.3-1.6-0.7c-0.5-0.3-1-0.6-1.5-0.8
		c0,0-0.1,0-0.1,0c-0.1,0-0.1-0.1-0.2-0.1c0,0,0,0,0,0C-240.2,43-240.4,42.9-240.7,42.9z M-232.3,47.2c-0.5-0.1-0.9,0.3-1,0.8
		l-0.4,2.9l-3.4-4.5c0.2,0,0.3,0.1,0.5,0.1c0.2,0,0.4,0,0.6-0.1c1.1-0.4,1.6-1.5,2-2.5c0.2-0.5,0.4-0.9,0.7-1.3l3.9,5.1L-232.3,47.2
		z"/>
</g>
<g>
	<path class="st0" d="M-57.8,49.6c-2.5,0-5-0.6-7.2-1.8l-6.5,1.7c-0.5,0.1-1.1-0.2-1.2-0.7c0-0.2,0-0.4,0-0.5l1.7-6.5
		c-6.1-10.9,3.9-24.5,16.1-21.9c5.4,1.1,9.7,5,11.3,10.3C-40.4,39.8-48,49.7-57.8,49.6z M-64.8,45.6c10.3,5.9,22.9-3,19.4-14.9
		c-3-10.3-16.8-12.5-22.9-3.7c-3,4.1-3.3,9.6-0.7,14c0.1,0.2,0.2,0.5,0.1,0.8l-1.4,5.2l5.2-1.4C-65,45.7-64.9,45.6-64.8,45.6z
		 M-57.8,43.8c-1.6,0-3-1.3-3-3v-5.9c0-1.6,1.4-2.9,3-2.9c1.6,0,2.9,1.3,2.9,2.9v5.9C-54.8,42.4-56.1,43.8-57.8,43.8L-57.8,43.8z
		 M-57.8,34c-0.5,0-0.9,0.3-0.9,0.8c0,0,0,0.1,0,0.1l0,5.9c0,0.5,0.4,0.9,0.9,0.9c0.5,0,0.9-0.4,0.9-0.9v-5.9c0-0.5-0.3-0.9-0.8-0.9
		C-57.7,34-57.7,34-57.8,34z M-57.7,31.2c-1.6,0-2.9-1.2-2.9-2.8c0-0.1,0-0.2,0-0.2c0.2-3.7,5.9-3.6,5.8,0.2
		C-54.8,30-56.1,31.2-57.7,31.2C-57.7,31.2-57.7,31.2-57.7,31.2L-57.7,31.2z M-58.6,28.3c0,0.5,0.3,0.9,0.8,0.9c0,0,0.1,0,0.1,0
		c0.5,0,0.9-0.4,0.9-0.9c0-0.5-0.4-0.9-0.9-0.9c0,0,0,0,0,0C-58.2,27.4-58.6,27.8-58.6,28.3C-58.6,28.3-58.6,28.3-58.6,28.3z"/>
</g>
<g>
	<path class="st0" d="M-134.1,51.9V30.4h-5.4v-5.4h-6.4v26.8h-4.3V35.8h-5.4v-5.4h-6.4v21.4h-1.1v1.1h30v-1.1H-134.1z M-160.9,51.9
		V31.5h4.3v20.4H-160.9z M-155.5,51.9v-15h4.3v15H-155.5z M-144.8,51.9V26.1h4.3v25.7H-144.8z M-139.4,51.9V31.5h4.3v20.4H-139.4z"
		/>
</g>
<path class="st0" d="M48.5,48.9l-9.2-9.2c1.5-1.8,2.3-4.3,2.3-6.6c0-3.1-1.3-5.8-3.3-7.9c-2-2.1-5.1-3.6-8.1-3.6S24.4,23,22.3,25
	s-3.3,5.1-3.3,7.9s1.3,5.8,3.3,7.9s4.8,3.3,7.9,3.3c2.3,0,4.3-0.5,6.1-1.8l9.1,9.2c0.5,0.5,1,0.5,1.5,0.5c0.5,0,1-0.2,1.5-0.5
	C49.2,50.9,49.2,49.6,48.5,48.9z M25.3,37.9c-2.8-2.8-2.8-7.1,0-9.9c1.3-1.3,3.1-2.1,5.1-2.1c2.1,0,3.6,0.8,5.1,2.1
	c1.3,1.3,2.1,3.1,2.1,5.1s-0.8,3.6-2.1,5.1l0,0C32.4,40.8,27.9,40.8,25.3,37.9z"/>
</svg>
