<svg width="40" height="40" viewBox="0 0 40 40" fill="none" xmlns="http://www.w3.org/2000/svg">
<g clip-path="url(#clip0_657_2480)">
<path d="M20 40C31.0457 40 40 31.0457 40 20C40 8.9543 31.0457 0 20 0C8.9543 0 0 8.9543 0 20C0 31.0457 8.9543 40 20 40Z" fill="#6DA544"/>
<path d="M20 7.82617L36.5217 20.0001L20 32.174L3.47827 20.0001L20 7.82617Z" fill="#FFDA44"/>
<path d="M19.9999 26.9569C23.8419 26.9569 26.9564 23.8424 26.9564 20.0004C26.9564 16.1585 23.8419 13.0439 19.9999 13.0439C16.158 13.0439 13.0435 16.1585 13.0435 20.0004C13.0435 23.8424 16.158 26.9569 19.9999 26.9569Z" fill="#F0F0F0"/>
<path d="M16.5217 19.5654C15.312 19.5654 14.1446 19.7494 13.0457 20.0908C13.0943 23.8908 16.1884 26.9568 20 26.9568C22.3568 26.9568 24.4384 25.7836 25.6967 23.9905C23.5439 21.2954 20.2313 19.5654 16.5217 19.5654Z" fill="#0052B4"/>
<path d="M26.8276 21.3332C26.9113 20.9017 26.9566 20.4564 26.9566 20.0004C26.9566 16.1584 23.842 13.0439 20.0001 13.0439C17.1334 13.0439 14.6724 14.7784 13.6074 17.2548C14.5488 17.0597 15.5235 16.957 16.5219 16.957C20.5623 16.9569 24.2174 18.6364 26.8276 21.3332Z" fill="#0052B4"/>
</g>
<defs>
<clipPath id="clip0_657_2480">
<rect width="40" height="40" fill="white"/>
</clipPath>
</defs>
</svg>
