<?xml version="1.0" encoding="UTF-8"?>
<svg id="Layer_1" xmlns="http://www.w3.org/2000/svg" version="1.1" viewBox="0 0 40 40">
  <!-- Generator: Adobe Illustrator 29.7.1, SVG Export Plug-In . SVG Version: 2.1.1 Build 8)  -->
  <defs>
    <style>
      .st0 {
        fill: #fff;
      }

      .st1 {
        fill: #0a4e9d;
      }
    </style>
  </defs>
  <path class="st0" d="M40,20h0c0,1.4-.1,2.7-.4,4-.2.9-.4,1.7-.7,2.6,0,0,0,0,0,.1,0,0,0,0,0,0-.9,2.5-2.2,4.7-3.9,6.6-.3.3-.5.6-.8.9-.6.6-1.2,1.2-1.9,1.7-1.5,1.2-3.2,2.1-5,2.8-.2,0-.3.1-.5.2-1.5.5-3.1.9-4.8,1.1-.6,0-1.2,0-1.9,0s-1.3,0-1.9,0c-1.3-.1-2.7-.4-3.9-.8-.3,0-.6-.2-.9-.3-.2,0-.3-.1-.5-.2-1.8-.7-3.5-1.7-5-2.8-.6-.4-1.1-.9-1.6-1.4-.1,0-.2-.2-.3-.3-.3-.3-.5-.6-.8-.9-1.7-1.9-3-4.1-3.9-6.6,0,0,0,0,0,0,0,0,0,0,0-.1-.3-.8-.5-1.7-.7-2.6-.3-1.3-.4-2.6-.4-4h0c0-1.4.1-2.7.4-4,.2-.9.4-1.8.7-2.6,0,0,0,0,0,0,0,0,0,0,0-.1.9-2.4,2.2-4.6,3.9-6.5.2-.2.4-.4.6-.6.2-.2.3-.3.5-.5.5-.5,1-.9,1.6-1.4,1.5-1.2,3.2-2.1,5-2.8.2,0,.3-.1.5-.2.3-.1.6-.2.9-.3,1.8-.6,3.8-.9,5.8-.9s4.6.4,6.7,1.1c.2,0,.3.1.5.2,1.8.7,3.5,1.7,5,2.8.7.6,1.4,1.2,2.1,1.9.2.2.4.4.6.6,1.7,1.9,3,4.1,3.9,6.5,0,0,0,0,0,.1,0,0,0,0,0,0,.3.9.5,1.7.7,2.6.3,1.3.4,2.6.4,4Z"/>
  <path class="st1" d="M14.2.9v38.3c-.3,0-.6-.2-.9-.3-.2,0-.3-.1-.5-.2-1.8-.7-3.5-1.7-5-2.8-.6-.4-1.1-.9-1.6-1.4V5.5c.5-.5,1-.9,1.6-1.4,1.5-1.2,3.2-2.1,5-2.8.2,0,.3-.1.5-.2.3-.1.6-.2.9-.3Z"/>
  <path class="st1" d="M39.6,16c.3,1.3.4,2.6.4,4h0c0,1.4-.1,2.7-.4,4H.4c-.3-1.3-.4-2.6-.4-4h0c0-1.4.1-2.7.4-4h39.2Z"/>
</svg>