<svg width="40" height="40" viewBox="0 0 40 40" fill="none" xmlns="http://www.w3.org/2000/svg">
<g clip-path="url(#clip0_657_2443)">
<path d="M20 40C31.0457 40 40 31.0457 40 20C40 8.9543 31.0457 0 20 0C8.9543 0 0 8.9543 0 20C0 31.0457 8.9543 40 20 40Z" fill="#D80027"/>
<path d="M22.0647 15.13C21.6102 17.0205 20.8026 16.66 20.4063 18.3087C18.0717 17.7474 16.6339 15.3997 17.1952 13.065C17.7563 10.7304 20.1042 9.29255 22.4389 9.85387C21.6461 13.1513 22.4714 13.4391 22.0647 15.13Z" fill="#F0F0F0"/>
<path d="M16.0068 16.531C17.6643 17.5474 17.0718 18.2042 18.5173 19.0907C17.262 21.1377 14.585 21.7795 12.538 20.5242C10.491 19.269 9.8491 16.5919 11.1044 14.5449C13.9955 16.3177 14.524 15.6219 16.0068 16.531Z" fill="#F0F0F0"/>
<path d="M15.4671 22.7256C16.9461 21.4633 17.3874 22.2297 18.6771 21.1289C20.2361 22.9552 20.0193 25.6996 18.193 27.2586C16.3666 28.8176 13.6222 28.6005 12.0635 26.7743C14.6427 24.5725 14.1442 23.8546 15.4671 22.7256Z" fill="#F0F0F0"/>
<path d="M21.1916 25.1534C20.4478 23.3567 21.3132 23.1736 20.6648 21.607C22.8835 20.6888 25.4266 21.743 26.3449 23.9617C27.2631 26.1803 26.2087 28.7234 23.99 29.6417C22.6934 26.5081 21.8567 26.7604 21.1916 25.1534Z" fill="#F0F0F0"/>
<path d="M25.2694 20.4588C23.3309 20.6109 23.424 19.7312 21.7337 19.8639C21.546 17.4702 23.3346 15.3772 25.7284 15.1893C28.1222 15.0018 30.2151 16.7903 30.4028 19.1842C27.0218 19.4493 27.0031 20.3229 25.2694 20.4588Z" fill="#F0F0F0"/>
</g>
<defs>
<clipPath id="clip0_657_2443">
<rect width="40" height="40" fill="white"/>
</clipPath>
</defs>
</svg>
