<svg width="40" height="40" viewBox="0 0 40 40" fill="none" xmlns="http://www.w3.org/2000/svg">
<g clip-path="url(#clip0_657_2473)">
<path d="M20 40C31.0457 40 40 31.0457 40 20C40 8.9543 31.0457 0 20 0C8.9543 0 0 8.9543 0 20C0 31.0457 8.9543 40 20 40Z" fill="#F0F0F0"/>
<path d="M32.1763 4.13437C28.8039 1.54211 24.5824 0 20.0001 0C15.4177 0 11.1962 1.54219 7.82373 4.13437L20.0001 16.3106L32.1763 4.13437Z" fill="#0052B4"/>
<path d="M4.1343 7.82422C1.54219 11.1966 0 15.4181 0 20.0005C0 24.5828 1.54219 28.8044 4.13437 32.1769L16.3107 20.0005L4.1343 7.82422Z" fill="#0052B4"/>
<path d="M7.82373 35.8657C11.1962 38.458 15.4177 40.0001 20.0001 40.0001C24.5824 40.0001 28.8039 38.4579 32.1764 35.8657L20.0001 23.6895L7.82373 35.8657Z" fill="#0052B4"/>
<path d="M35.8657 32.1767C38.458 28.8043 40.0001 24.5828 40.0001 20.0005C40.0001 15.4181 38.458 11.1966 35.8657 7.82422L23.6895 20.0005L35.8657 32.1767Z" fill="#0052B4"/>
</g>
<defs>
<clipPath id="clip0_657_2473">
<rect width="40" height="40" fill="white"/>
</clipPath>
</defs>
</svg>
