<svg width="40" height="40" viewBox="0 0 40 40" fill="none" xmlns="http://www.w3.org/2000/svg">
<g clip-path="url(#clip0_657_2419)">
<path d="M20 40C31.0457 40 40 31.0457 40 20C40 8.9543 31.0457 0 20 0C8.9543 0 0 8.9543 0 20C0 31.0457 8.9543 40 20 40Z" fill="#F0F0F0"/>
<path d="M5.85786 34.1418C-1.95229 26.3309 -1.95229 13.6676 5.85786 5.85742C5.85786 5.8582 17.3915 19.9996 17.3915 19.9996L5.85786 34.1418Z" fill="black"/>
<path d="M17.3914 20.0002L2.6523 10.04C2.19526 10.8346 1.79214 11.6635 1.44604 12.5213L8.90776 20.0002L1.44604 27.4791C1.79214 28.3369 2.19448 29.165 2.65151 29.9588L17.3914 20.0002Z" fill="#FFDA44"/>
<path d="M39.8305 17.391H17.3907L5.85786 5.85742C4.61489 7.10039 3.53521 8.50586 2.65239 10.0395L12.593 19.9996L2.65161 29.9582C3.53442 31.4926 4.61411 32.898 5.85708 34.1418L17.3899 22.609H39.8297C39.9407 21.7551 39.9993 20.8848 39.9993 20.0004C39.9993 19.116 39.9415 18.2457 39.8297 17.3918L39.8305 17.391Z" fill="#6DA544"/>
<path d="M7.82354 35.8652C11.1962 38.4574 15.4181 39.9996 20.0001 39.9996C29.2407 39.9996 37.0157 33.7324 39.311 25.2168H18.4712L7.82275 35.8645L7.82354 35.8652Z" fill="#0052B4"/>
<path d="M39.311 14.7828C37.0165 6.26719 29.2407 0 20 0C15.4172 0 11.1961 1.54219 7.82349 4.13437L18.4711 14.782H39.311V14.7828Z" fill="#D80027"/>
</g>
<defs>
<clipPath id="clip0_657_2419">
<rect width="40" height="40" fill="white"/>
</clipPath>
</defs>
</svg>
