<svg width="40" height="40" viewBox="0 0 40 40" fill="none" xmlns="http://www.w3.org/2000/svg">
<g clip-path="url(#clip0_657_2451)">
<path d="M20 40C31.0457 40 40 31.0457 40 20C40 8.9543 31.0457 0 20 0C8.9543 0 0 8.9543 0 20C0 31.0457 8.9543 40 20 40Z" fill="#F0F0F0"/>
<path d="M26.9564 20.0004C26.9564 21.7396 23.8419 26.0874 19.9999 26.0874C16.158 26.0874 13.0435 21.7396 13.0435 20.0004C13.0435 16.1584 16.158 13.0439 19.9999 13.0439C23.8419 13.0439 26.9564 16.1584 26.9564 20.0004Z" fill="#D80027"/>
<path d="M26.9564 20C26.9564 23.842 23.8419 26.9565 19.9999 26.9565C16.158 26.9565 13.0435 23.842 13.0435 20" fill="#0052B4"/>
<path d="M27.373 26.1494L29.2174 24.3051L30.4469 25.5347L28.6026 27.379L27.373 26.1494Z" fill="black"/>
<path d="M24.2983 29.2227L26.1427 27.3783L27.3722 28.6079L25.5279 30.4522L24.2983 29.2227Z" fill="black"/>
<path d="M31.062 29.8379L32.9063 27.9936L34.1359 29.2231L32.2916 31.0675L31.062 29.8379Z" fill="black"/>
<path d="M27.9873 32.9121L29.8316 31.0678L31.0612 32.2974L29.2169 34.1417L27.9873 32.9121Z" fill="black"/>
<path d="M29.2175 27.9932L31.0619 26.1488L32.2914 27.3784L30.4471 29.2227L29.2175 27.9932Z" fill="black"/>
<path d="M26.1436 31.0674L27.9879 29.2231L29.2175 30.4526L27.3731 32.297L26.1436 31.0674Z" fill="black"/>
<path d="M31.0701 13.8545L26.1518 8.93626L27.3814 7.70669L32.2996 12.6249L31.0701 13.8545Z" fill="black"/>
<path d="M26.1509 12.625L24.3065 10.7807L25.5361 9.55115L27.3804 11.3955L26.1509 12.625Z" fill="black"/>
<path d="M29.2249 15.7002L27.3805 13.8559L28.61 12.6263L30.4544 14.4707L29.2249 15.7002Z" fill="black"/>
<path d="M29.8394 8.93555L27.995 7.09122L29.2246 5.86164L31.0689 7.70597L29.8394 8.93555Z" fill="black"/>
<path d="M32.9148 12.0107L31.0705 10.1664L32.3 8.93684L34.1444 10.7812L32.9148 12.0107Z" fill="black"/>
<path d="M7.09009 27.9902L12.0083 32.9085L10.7787 34.138L5.86051 29.2198L7.09009 27.9902Z" fill="black"/>
<path d="M12.0081 29.2188L13.8524 31.0631L12.6229 32.2926L10.7785 30.4483L12.0081 29.2188Z" fill="black"/>
<path d="M8.93408 26.1455L10.7784 27.9898L9.54884 29.2194L7.70451 27.3751L8.93408 26.1455Z" fill="black"/>
<path d="M10.7786 24.3008L15.6968 29.219L14.4672 30.4486L9.54899 25.5304L10.7786 24.3008Z" fill="black"/>
<path d="M12.0078 7.08789L7.08958 12.0061L5.86001 10.7766L10.7782 5.85832L12.0078 7.08789Z" fill="black"/>
<path d="M13.8523 8.93164L8.93406 13.8499L7.70449 12.6203L12.6227 7.70207L13.8523 8.93164Z" fill="black"/>
<path d="M15.6982 10.7773L10.78 15.6956L9.55049 14.4661L14.4687 9.54783L15.6982 10.7773Z" fill="black"/>
</g>
<defs>
<clipPath id="clip0_657_2451">
<rect width="40" height="40" fill="white"/>
</clipPath>
</defs>
</svg>
