<?xml version="1.0" encoding="utf-8"?>
<!-- Generator: Adobe Illustrator 22.0.1, SVG Export Plug-In . SVG Version: 6.00 Build 0)  -->
<svg version="1.1" id="Camada_1" xmlns="http://www.w3.org/2000/svg" xmlns:xlink="http://www.w3.org/1999/xlink" x="0px" y="0px"
	 viewBox="0 0 316.1 374.8" style="enable-background:new 0 0 316.1 374.8;" xml:space="preserve">
<style type="text/css">
	.st0{fill:none;stroke:#04BD9B;stroke-miterlimit:10;}
	.st1{fill:none;stroke:#E74F42;stroke-miterlimit:10;}
	.st2{fill:none;stroke:#FDCE22;stroke-miterlimit:10;}
	.st3{fill:none;stroke:#FF5F00;stroke-miterlimit:10;}
	.st4{fill:none;stroke:#00ADB6;stroke-miterlimit:10;}
	.st5{fill:#FDCE22;}
	.st6{fill:#04BD9B;}
	.st7{fill:#00ADB6;}
	.st8{fill:#FF5F00;}
	.st9{fill:#E74F42;}
	.st10{font-family:'OpenSans';}
	.st11{font-size:9px;}
	.st12{fill:#FFFFFF;}
	.st13{fill:none;stroke:#606060;stroke-width:1.5;stroke-miterlimit:10;}
	.st14{fill:#606060;}
</style>
<path class="st0" d="M251.5,325.9h-81.2c-3.3,0-6-2.7-6-6v-28.7c0-3.3,2.7-6,6-6h81.2c3.3,0,6,2.7,6,6v28.7
	C257.5,323.2,254.8,325.9,251.5,325.9z"/>
<path class="st1" d="M102.9,330.8H21.7c-3.3,0-6-2.7-6-6v-40c0-3.3,2.7-6,6-6h81.2c3.3,0,6,2.7,6,6v40
	C108.9,328.1,106.2,330.8,102.9,330.8z"/>
<path class="st2" d="M201.5,98.6h-81.2c-3.3,0-6-2.7-6-6V64c0-3.3,2.7-6,6-6h81.2c3.3,0,6,2.7,6,6v28.7
	C207.5,95.9,204.8,98.6,201.5,98.6z"/>
<path class="st2" d="M201.5,265.7h-81.2c-3.3,0-6-2.7-6-6v-28.7c0-3.3,2.7-6,6-6h81.2c3.3,0,6,2.7,6,6v28.7
	C207.5,263.1,204.8,265.7,201.5,265.7z"/>
<path class="st3" d="M300.5,208.8h-81.2c-3.3,0-6-2.7-6-6v-28.7c0-3.3,2.7-6,6-6h81.2c3.3,0,6,2.7,6,6v28.7
	C306.5,206.1,303.8,208.8,300.5,208.8z"/>
<path class="st3" d="M102.9,208.8H21.7c-3.3,0-6-2.7-6-6v-28.7c0-3.3,2.7-6,6-6h81.2c3.3,0,6,2.7,6,6v28.7
	C108.9,206.1,106.2,208.8,102.9,208.8z"/>
<path class="st4" d="M300.5,152.2h-81.2c-3.3,0-6-2.7-6-6v-28.7c0-3.3,2.7-6,6-6h81.2c3.3,0,6,2.7,6,6v28.7
	C306.5,149.5,303.8,152.2,300.5,152.2z"/>
<path class="st4" d="M102.9,152.2H21.7c-3.3,0-6-2.7-6-6v-28.7c0-3.3,2.7-6,6-6h81.2c3.3,0,6,2.7,6,6v28.7
	C108.9,149.5,106.2,152.2,102.9,152.2z"/>
<path class="st5" d="M198.5,95.6h-81.2c-3.3,0-6-2.7-6-6V61c0-3.3,2.7-6,6-6h81.2c3.3,0,6,2.7,6,6v28.7
	C204.5,92.9,201.8,95.6,198.5,95.6z"/>
<path class="st5" d="M198.5,262.7h-81.2c-3.3,0-6-2.7-6-6v-28.7c0-3.3,2.7-6,6-6h81.2c3.3,0,6,2.7,6,6v28.7
	C204.5,260.1,201.8,262.7,198.5,262.7z"/>
<path class="st6" d="M248.5,322.9h-81.2c-3.3,0-6-2.7-6-6v-28.7c0-3.3,2.7-6,6-6h81.2c3.3,0,6,2.7,6,6v28.7
	C254.5,320.2,251.8,322.9,248.5,322.9z"/>
<path class="st7" d="M99.9,149.2H18.7c-3.3,0-6-2.7-6-6v-28.7c0-3.3,2.7-6,6-6h81.2c3.3,0,6,2.7,6,6v28.7
	C105.9,146.5,103.2,149.2,99.9,149.2z"/>
<path class="st7" d="M297.5,149.2h-81.2c-3.3,0-6-2.7-6-6v-28.7c0-3.3,2.7-6,6-6h81.2c3.3,0,6,2.7,6,6v28.7
	C303.5,146.5,300.8,149.2,297.5,149.2z"/>
<path class="st8" d="M99.9,205.8H18.7c-3.3,0-6-2.7-6-6v-28.7c0-3.3,2.7-6,6-6h81.2c3.3,0,6,2.7,6,6v28.7
	C105.9,203.1,103.2,205.8,99.9,205.8z"/>
<path class="st9" d="M99.9,327.8H18.7c-3.3,0-6-2.7-6-6v-40c0-3.3,2.7-6,6-6h81.2c3.3,0,6,2.7,6,6v40
	C105.9,325.1,103.2,327.8,99.9,327.8z"/>
<path class="st8" d="M297.5,205.8h-81.2c-3.3,0-6-2.7-6-6v-28.7c0-3.3,2.7-6,6-6h81.2c3.3,0,6,2.7,6,6v28.7
	C303.5,203.1,300.8,205.8,297.5,205.8z"/>
<text transform="matrix(1 0 0 1 129.0834 67.9088)"><tspan x="0" y="0" class="st10 st11">Submissão do</tspan><tspan x="2" y="10.8" class="st10 st11">dossiê (ético-</tspan><tspan x="4.9" y="21.6" class="st10 st11">regulatório)</tspan></text>
<text transform="matrix(1 0 0 1 125.0912 235.4542)"><tspan x="0" y="0" class="st10 st11">Início do estudo</tspan><tspan x="9.6" y="10.8" class="st10 st11">pelo centro</tspan><tspan x="6.2" y="21.6" class="st10 st11">coordenador</tspan></text>
<text transform="matrix(1 0 0 1 20.0182 121.9088)"><tspan x="0" y="0" class="st12 st10 st11">Avaliação pelo CEP</tspan><tspan x="19.1" y="10.8" class="st12 st10 st11">do centro</tspan><tspan x="12" y="21.6" class="st12 st10 st11">coordenador</tspan></text>
<text transform="matrix(1 0 0 1 227.0502 128.9088)"><tspan x="0" y="0" class="st12 st10 st11">Avaliação pela</tspan><tspan x="14.3" y="10.8" class="st12 st10 st11">ANVISA</tspan></text>
<text transform="matrix(1 0 0 1 29.4533 182.7626)"><tspan x="0" y="0" class="st12 st10 st11">Avaliação pela</tspan><tspan x="14.9" y="10.8" class="st12 st10 st11">CONEP</tspan></text>
<text transform="matrix(1 0 0 1 27.0915 288.0957)"><tspan x="0" y="0" class="st12 st10 st11">Avaliação pelos</tspan><tspan x="-1.1" y="10.8" class="st12 st10 st11">demais CEP dos</tspan><tspan x="16.5" y="21.6" class="st12 st10 st11">centros</tspan><tspan x="4.8" y="32.4" class="st12 st10 st11">participantes</tspan></text>
<text transform="matrix(1 0 0 1 171.7183 300.0957)"><tspan x="0" y="0" class="st12 st10 st11">Início nos centros</tspan><tspan x="9.5" y="10.8" class="st12 st10 st11">participantes</tspan></text>
<text transform="matrix(1 0 0 1 218.8085 176.7626)"><tspan x="0" y="0" class="st12 st10 st11">Aprovação ou não</tspan><tspan x="-0.3" y="10.8" class="st12 st10 st11">manifestação pela</tspan><tspan x="22.6" y="21.6" class="st12 st10 st11">ANVISA</tspan></text>
<line class="st13" x1="111.3" y1="75.3" x2="62.3" y2="75.3"/>
<line class="st13" x1="111.3" y1="75.3" x2="60.3" y2="75.3"/>
<line class="st13" x1="59.8" y1="74.8" x2="59.8" y2="105.8"/>
<line class="st13" x1="207.8" y1="75.3" x2="258.7" y2="75.3"/>
<line class="st13" x1="107.3" y1="242.3" x2="60.3" y2="242.3"/>
<line class="st13" x1="157.6" y1="304.8" x2="110.6" y2="304.8"/>
<line class="st13" x1="211.8" y1="242.3" x2="258.7" y2="242.3"/>
<line class="st13" x1="259.3" y1="74.8" x2="259.3" y2="105.8"/>
<line class="st13" x1="59.8" y1="209.8" x2="59.8" y2="271.8"/>
<line class="st13" x1="259.3" y1="209.8" x2="259.3" y2="242.8"/>
<line class="st13" x1="59.8" y1="153.8" x2="59.8" y2="161.8"/>
<line class="st13" x1="259.3" y1="153.8" x2="259.3" y2="161.8"/>
<polygon class="st14" points="59.8,108.6 62.8,103.4 56.8,103.4 "/>
<polygon class="st14" points="259.3,108.6 262.3,103.4 256.3,103.4 "/>
<polygon class="st14" points="59.8,164.6 62.8,159.4 56.8,159.4 "/>
<polygon class="st14" points="259.3,164.6 262.3,159.4 256.3,159.4 "/>
<polygon class="st14" points="59.8,275.6 62.8,270.4 56.8,270.4 "/>
<polygon class="st14" points="110.7,242.1 105.5,239.1 105.5,245.1 "/>
<polygon class="st14" points="160.7,304.8 155.5,301.8 155.5,307.7 "/>
<polygon class="st14" points="208.8,242.1 214,245.1 214,239.1 "/>
</svg>
