<?xml version="1.0" encoding="utf-8"?>
<!-- Generator: Adobe Illustrator 27.7.0, SVG Export Plug-In . SVG Version: 6.00 Build 0)  -->
<svg version="1.1" id="Info2" xmlns="http://www.w3.org/2000/svg" xmlns:xlink="http://www.w3.org/1999/xlink" x="0px" y="0px"
	 viewBox="0 0 1280 308.4" style="enable-background:new 0 0 1280 308.4;" xml:space="preserve">
<style type="text/css">
	.st0{opacity:0.1;fill:#D5059E;enable-background:new    ;}
	.st1{fill:#D5059E;}
	.st2{opacity:0.35;fill:#D5059E;enable-background:new    ;}
	.st3{fill:#FFFFFF;}
	.st4{opacity:0.6;fill:#D5059E;enable-background:new    ;}
</style>
<g id="bt_leves">
	<rect id="bg_bt1" x="15.7" y="25.8" class="st0" width="308.9" height="246.6"/>
	<g>
		<g>
			<path class="st1" d="M111.9,162.4v-3.9l2.9-0.6v-18.8l-2.9-0.6v-3.9h2.9h6.7h3.5v3.9l-3.5,0.6v18.1h6.6l0.2-3.9h5.1v9H111.9z"/>
			<path class="st1" d="M145.3,162.8c-2,0-3.8-0.4-5.3-1.3c-1.5-0.9-2.7-2.1-3.5-3.6c-0.8-1.5-1.3-3.2-1.3-5.1v-0.7
				c0-2.1,0.4-4,1.1-5.6c0.7-1.6,1.8-2.9,3.2-3.8c1.4-0.9,3.2-1.4,5.3-1.3c1.9,0,3.5,0.4,4.8,1.1c1.3,0.7,2.3,1.8,3,3.2
				c0.7,1.4,1,3.1,1,5.2v3.5h-11.4l0,0.1c0.1,0.6,0.3,1.2,0.7,1.7s0.8,0.9,1.4,1.2c0.6,0.3,1.3,0.4,2.2,0.4c0.9,0,1.7-0.1,2.6-0.3
				c0.8-0.2,1.7-0.5,2.6-0.9l1.5,4.1c-0.9,0.7-2.1,1.2-3.4,1.6C148.4,162.6,146.9,162.8,145.3,162.8z M142.2,150.1h5.3v-0.5
				c0-0.7-0.1-1.4-0.2-1.9s-0.4-0.9-0.8-1.1c-0.4-0.3-0.8-0.4-1.5-0.4c-0.7,0-1.2,0.2-1.6,0.5c-0.4,0.3-0.7,0.8-0.9,1.3
				C142.3,148.6,142.2,149.2,142.2,150.1L142.2,150.1z"/>
			<path class="st1" d="M163.1,162.4l-5.6-16.4l-2.3-0.4v-3.9h10.9v3.9l-1.9,0.4l2.2,7.9l0.4,1.6h0.1l0.5-1.6l2.9-7.9l-2.4-0.4v-3.9
				h10.9v3.9l-2.4,0.5l-6.3,16.3H163.1z"/>
			<path class="st1" d="M190.4,162.8c-2,0-3.8-0.4-5.3-1.3c-1.5-0.9-2.7-2.1-3.5-3.6c-0.8-1.5-1.3-3.2-1.3-5.1v-0.7
				c0-2.1,0.4-4,1.1-5.6c0.7-1.6,1.8-2.9,3.2-3.8c1.4-0.9,3.2-1.4,5.3-1.3c1.9,0,3.5,0.4,4.8,1.1c1.3,0.7,2.3,1.8,3,3.2
				c0.7,1.4,1,3.1,1,5.2v3.5h-11.4l0,0.1c0.1,0.6,0.3,1.2,0.7,1.7s0.8,0.9,1.4,1.2c0.6,0.3,1.3,0.4,2.2,0.4c0.9,0,1.7-0.1,2.6-0.3
				c0.8-0.2,1.7-0.5,2.6-0.9l1.5,4.1c-0.9,0.7-2.1,1.2-3.4,1.6C193.6,162.6,192.1,162.8,190.4,162.8z M187.3,150.1h5.3v-0.5
				c0-0.7-0.1-1.4-0.2-1.9s-0.4-0.9-0.8-1.1c-0.4-0.3-0.8-0.4-1.5-0.4c-0.7,0-1.2,0.2-1.6,0.5c-0.4,0.3-0.7,0.8-0.9,1.3
				C187.5,148.6,187.3,149.2,187.3,150.1L187.3,150.1z"/>
			<path class="st1" d="M210.2,162.8c-1.6,0-3.2-0.1-4.6-0.4c-1.4-0.3-2.7-0.7-3.8-1.2l-0.1-6.4h4.5l0.8,3c0.3,0.2,0.6,0.3,1,0.4
				c0.4,0.1,0.9,0.2,1.5,0.2c1.1,0,1.8-0.1,2.2-0.4c0.4-0.3,0.6-0.7,0.6-1.1c0-0.4-0.2-0.8-0.7-1.2c-0.5-0.4-1.5-0.7-3-1
				c-2.4-0.5-4.2-1.3-5.4-2.4c-1.1-1.1-1.7-2.6-1.7-4.3c0-1.2,0.3-2.2,0.8-3.2c0.5-1,1.4-1.8,2.6-2.4c1.2-0.6,2.8-0.9,4.9-0.9
				c1.6,0,3,0.1,4.4,0.4c1.4,0.3,2.6,0.6,3.5,1l0,6.2h-4.5l-0.6-2.7c-0.3-0.2-0.6-0.4-1-0.5c-0.4-0.1-0.8-0.2-1.2-0.2
				c-0.9,0-1.5,0.2-1.9,0.5c-0.4,0.3-0.6,0.7-0.6,1.2c0,0.3,0.1,0.6,0.3,0.8c0.2,0.3,0.5,0.5,1,0.8s1.3,0.5,2.2,0.7
				c2.4,0.5,4.1,1.2,5.3,2.2c1.2,0.9,1.8,2.3,1.8,4.2c0,2-0.7,3.7-2.2,4.8C215.1,162.2,213,162.8,210.2,162.8z"/>
		</g>
	</g>
</g>
<g id="bt_moderadas">
	<rect x="329.3" y="25.8" class="st2" width="308.9" height="246.6"/>
	<g>
		<g>
			<path class="st3" d="M383.4,162.4v-3.9l2.9-0.6v-18.8l-2.9-0.6v-3.9h2.9h10.3l6.7,18.3h0.1l6.5-18.3h13v3.9l-2.9,0.6v18.8
				l2.9,0.6v3.9h-12.5v-3.9l3-0.6v-3.6l0.2-13.1l-0.1,0l-7.9,21.3h-5.3l-8-21l-0.1,0l0.5,11.9v4.6l3.2,0.6v3.9H383.4z"/>
			<path class="st3" d="M434.6,162.8c-2.1,0-3.9-0.4-5.5-1.3c-1.5-0.9-2.7-2.1-3.5-3.7c-0.8-1.6-1.2-3.4-1.2-5.5v-0.4
				c0-2.1,0.4-3.9,1.2-5.5c0.8-1.6,1.9-2.8,3.5-3.7c1.5-0.9,3.3-1.3,5.4-1.3c2.1,0,3.9,0.4,5.4,1.3c1.5,0.9,2.6,2.1,3.4,3.7
				c0.8,1.6,1.2,3.4,1.2,5.5v0.4c0,2.1-0.4,3.9-1.2,5.5c-0.8,1.6-1.9,2.8-3.4,3.7C438.5,162.4,436.7,162.8,434.6,162.8z
				 M434.6,157.7c0.8,0,1.5-0.2,2-0.7c0.5-0.4,0.8-1.1,1.1-1.9c0.2-0.8,0.3-1.8,0.3-2.9v-0.4c0-1.1-0.1-2-0.3-2.8
				c-0.2-0.8-0.6-1.4-1.1-1.9c-0.5-0.5-1.2-0.7-2-0.7c-0.8,0-1.5,0.2-2,0.7c-0.5,0.5-0.9,1.1-1.1,1.9c-0.2,0.8-0.3,1.8-0.3,2.8v0.4
				c0,1.1,0.1,2.1,0.3,2.9c0.2,0.8,0.6,1.4,1.1,1.9C433,157.5,433.7,157.7,434.6,157.7z"/>
			<path class="st3" d="M454.7,162.8c-1.6,0-3-0.4-4.2-1.3c-1.2-0.9-2.1-2.1-2.7-3.6s-0.9-3.4-0.9-5.4v-0.4c0-2.2,0.3-4,0.9-5.6
				c0.6-1.6,1.5-2.9,2.7-3.8c1.2-0.9,2.5-1.3,4.1-1.3c1.1,0,2,0.2,2.8,0.7c0.8,0.5,1.5,1.1,2.1,1.9v-6.8l-2.9-0.6v-3.9h2.9h6.7v25.3
				l2.4,0.6v3.9h-8.2l-0.5-2.6c-0.6,1-1.4,1.7-2.2,2.2C456.9,162.6,455.8,162.8,454.7,162.8z M456.8,157.7c0.6,0,1.1-0.1,1.6-0.3
				c0.5-0.2,0.9-0.5,1.2-1v-8.3c-0.3-0.5-0.7-0.9-1.2-1.2c-0.5-0.3-1-0.4-1.6-0.4c-0.8,0-1.4,0.2-1.9,0.7c-0.5,0.5-0.8,1.1-1,2
				s-0.3,1.8-0.3,2.9v0.4c0,1.6,0.2,2.9,0.7,3.8C454.7,157.2,455.6,157.7,456.8,157.7z"/>
			<path class="st3" d="M480.1,162.8c-2,0-3.8-0.4-5.3-1.3c-1.5-0.9-2.7-2.1-3.5-3.6c-0.8-1.5-1.3-3.2-1.3-5.1v-0.7
				c0-2.1,0.4-4,1.1-5.6c0.7-1.6,1.8-2.9,3.2-3.8c1.4-0.9,3.2-1.4,5.3-1.3c1.9,0,3.5,0.4,4.8,1.1c1.3,0.7,2.3,1.8,3,3.2
				c0.7,1.4,1,3.1,1,5.2v3.5H477l0,0.1c0.1,0.6,0.3,1.2,0.7,1.7s0.8,0.9,1.4,1.2c0.6,0.3,1.3,0.4,2.2,0.4c0.9,0,1.7-0.1,2.6-0.3
				c0.8-0.2,1.7-0.5,2.6-0.9l1.5,4.1c-0.9,0.7-2.1,1.2-3.4,1.6C483.3,162.6,481.8,162.8,480.1,162.8z M477,150.1h5.3v-0.5
				c0-0.7-0.1-1.4-0.2-1.9s-0.4-0.9-0.8-1.1c-0.4-0.3-0.8-0.4-1.5-0.4c-0.7,0-1.2,0.2-1.6,0.5c-0.4,0.3-0.7,0.8-0.9,1.3
				C477.1,148.6,477,149.2,477,150.1L477,150.1z"/>
			<path class="st3" d="M491.5,162.4v-3.9l2.4-0.6v-11.6l-2.9-0.6v-3.9h9.2l0.2,2.5l0,0.5c0.5-1.2,1-2,1.7-2.6
				c0.7-0.6,1.5-0.8,2.6-0.8c0.3,0,0.6,0,1,0.1c0.4,0,0.8,0.1,1.2,0.2l-0.7,6.2l-2.9-0.1c-0.7,0-1.2,0-1.6,0.2
				c-0.4,0.2-0.8,0.5-1.1,0.9v9.1l2.4,0.6v3.9H491.5z"/>
			<path class="st3" d="M515.1,162.8c-2,0-3.6-0.6-4.9-1.7c-1.3-1.1-1.9-2.6-1.9-4.5c0-1.3,0.3-2.4,1-3.4c0.7-1,1.7-1.8,3.1-2.3
				c1.4-0.6,3.1-0.9,5.2-0.9h2.2v-1.2c0-0.8-0.2-1.5-0.7-2.1c-0.5-0.6-1.2-0.9-2.2-0.9c-0.4,0-0.8,0.1-1.2,0.2
				c-0.4,0.1-0.7,0.3-1,0.5l-0.5,2.6h-4.7l-0.1-5.8c1.2-0.5,2.4-1,3.7-1.4c1.3-0.4,2.7-0.6,4.3-0.6c2.8,0,5.1,0.6,6.7,1.9
				c1.7,1.3,2.5,3.1,2.5,5.5v7.6c0,0.3,0,0.6,0,0.9c0,0.3,0,0.5,0.1,0.8l2.2,0.4v3.9h-7.8c-0.2-0.2-0.3-0.5-0.5-0.9
				c-0.2-0.4-0.3-0.8-0.4-1.1c-0.6,0.8-1.3,1.4-2.1,1.8C517.3,162.6,516.3,162.8,515.1,162.8z M517.2,158.1c0.5,0,1-0.1,1.5-0.3
				c0.5-0.2,0.9-0.5,1.3-0.9v-3h-2.1c-0.9,0-1.6,0.2-2.1,0.6c-0.5,0.4-0.7,0.9-0.7,1.6c0,0.6,0.2,1.1,0.6,1.5
				C516,157.9,516.6,158.1,517.2,158.1z"/>
			<path class="st3" d="M538.2,162.8c-1.6,0-3-0.4-4.2-1.3c-1.2-0.9-2.1-2.1-2.7-3.6s-0.9-3.4-0.9-5.4v-0.4c0-2.2,0.3-4,0.9-5.6
				c0.6-1.6,1.5-2.9,2.7-3.8c1.2-0.9,2.5-1.3,4.1-1.3c1.1,0,2,0.2,2.8,0.7c0.8,0.5,1.5,1.1,2.1,1.9v-6.8l-2.9-0.6v-3.9h2.9h6.7v25.3
				l2.4,0.6v3.9H544l-0.5-2.6c-0.6,1-1.4,1.7-2.2,2.2C540.4,162.6,539.4,162.8,538.2,162.8z M540.3,157.7c0.6,0,1.1-0.1,1.6-0.3
				c0.5-0.2,0.9-0.5,1.2-1v-8.3c-0.3-0.5-0.7-0.9-1.2-1.2c-0.5-0.3-1-0.4-1.6-0.4c-0.8,0-1.4,0.2-1.9,0.7c-0.5,0.5-0.8,1.1-1,2
				s-0.3,1.8-0.3,2.9v0.4c0,1.6,0.2,2.9,0.7,3.8C538.3,157.2,539.1,157.7,540.3,157.7z"/>
			<path class="st3" d="M560.5,162.8c-2,0-3.6-0.6-4.9-1.7c-1.3-1.1-1.9-2.6-1.9-4.5c0-1.3,0.3-2.4,1-3.4c0.7-1,1.7-1.8,3.1-2.3
				c1.4-0.6,3.1-0.9,5.2-0.9h2.2v-1.2c0-0.8-0.2-1.5-0.7-2.1c-0.5-0.6-1.2-0.9-2.2-0.9c-0.4,0-0.8,0.1-1.2,0.2
				c-0.4,0.1-0.7,0.3-1,0.5l-0.5,2.6H555l-0.1-5.8c1.2-0.5,2.4-1,3.7-1.4c1.3-0.4,2.7-0.6,4.3-0.6c2.8,0,5.1,0.6,6.7,1.9
				c1.7,1.3,2.5,3.1,2.5,5.5v7.6c0,0.3,0,0.6,0,0.9c0,0.3,0,0.5,0.1,0.8l2.2,0.4v3.9h-7.8c-0.2-0.2-0.3-0.5-0.5-0.9
				c-0.2-0.4-0.3-0.8-0.4-1.1c-0.6,0.8-1.3,1.4-2.1,1.8C562.7,162.6,561.7,162.8,560.5,162.8z M562.6,158.1c0.5,0,1-0.1,1.5-0.3
				c0.5-0.2,0.9-0.5,1.3-0.9v-3h-2.1c-0.9,0-1.6,0.2-2.1,0.6c-0.5,0.4-0.7,0.9-0.7,1.6c0,0.6,0.2,1.1,0.6,1.5
				C561.5,157.9,562,158.1,562.6,158.1z"/>
			<path class="st3" d="M585,162.8c-1.6,0-3.2-0.1-4.6-0.4c-1.4-0.3-2.7-0.7-3.8-1.2l-0.1-6.4h4.5l0.8,3c0.3,0.2,0.6,0.3,1,0.4
				c0.4,0.1,0.9,0.2,1.5,0.2c1.1,0,1.8-0.1,2.2-0.4c0.4-0.3,0.6-0.7,0.6-1.1c0-0.4-0.2-0.8-0.7-1.2c-0.5-0.4-1.5-0.7-3-1
				c-2.4-0.5-4.2-1.3-5.4-2.4c-1.1-1.1-1.7-2.6-1.7-4.3c0-1.2,0.3-2.2,0.8-3.2c0.5-1,1.4-1.8,2.6-2.4c1.2-0.6,2.8-0.9,4.9-0.9
				c1.6,0,3,0.1,4.4,0.4c1.4,0.3,2.6,0.6,3.5,1l0,6.2h-4.5l-0.6-2.7c-0.3-0.2-0.6-0.4-1-0.5c-0.4-0.1-0.8-0.2-1.2-0.2
				c-0.9,0-1.5,0.2-1.9,0.5c-0.4,0.3-0.6,0.7-0.6,1.2c0,0.3,0.1,0.6,0.3,0.8c0.2,0.3,0.5,0.5,1,0.8s1.3,0.5,2.2,0.7
				c2.4,0.5,4.1,1.2,5.3,2.2c1.2,0.9,1.8,2.3,1.8,4.2c0,2-0.7,3.7-2.2,4.8C589.9,162.2,587.7,162.8,585,162.8z"/>
		</g>
	</g>
</g>
<g id="bt_graves">
	<rect id="bg_bt3" x="642.7" y="25.8" class="st4" width="308.9" height="246.6"/>
	<g>
		<g>
			<path class="st3" d="M746,162.8c-2.9,0-5.3-0.6-7.3-1.7c-2-1.1-3.5-2.7-4.6-4.7c-1-2-1.6-4.3-1.6-6.9v-1.3c0-2.8,0.5-5.2,1.5-7.3
				c1-2.1,2.5-3.8,4.5-5c2-1.2,4.3-1.8,7.1-1.8c1.9,0,3.8,0.3,5.7,0.9c1.9,0.6,3.6,1.5,5,2.7v6.5h-4.8l-1-3.5
				c-0.4-0.4-1-0.8-1.8-1.1c-0.8-0.3-1.7-0.4-2.7-0.4c-1.5,0-2.8,0.4-3.8,1.1c-1,0.8-1.8,1.8-2.3,3.2c-0.5,1.4-0.8,2.9-0.8,4.7v1.3
				c0,1.7,0.3,3.1,0.8,4.4s1.3,2.2,2.4,2.9c1,0.7,2.3,1,3.9,1c0.8,0,1.6-0.1,2.4-0.2c0.8-0.2,1.4-0.4,1.9-0.6v-3.6l-3.1-0.4v-4.6
				h9.9v11.5c-1.5,1-3.2,1.7-5.1,2.2C750.2,162.6,748.2,162.8,746,162.8z"/>
			<path class="st3" d="M760.4,162.4v-3.9l2.4-0.6v-11.6l-2.9-0.6v-3.9h9.2l0.2,2.5l0,0.5c0.5-1.2,1-2,1.7-2.6
				c0.7-0.6,1.5-0.8,2.6-0.8c0.3,0,0.6,0,1,0.1c0.4,0,0.8,0.1,1.2,0.2l-0.7,6.2l-2.9-0.1c-0.7,0-1.2,0-1.6,0.2s-0.8,0.5-1.1,0.9v9.1
				l2.4,0.6v3.9H760.4z"/>
			<path class="st3" d="M784,162.8c-2,0-3.6-0.6-4.9-1.7c-1.3-1.1-1.9-2.6-1.9-4.5c0-1.3,0.3-2.4,1-3.4c0.7-1,1.7-1.8,3.1-2.3
				c1.4-0.6,3.1-0.9,5.2-0.9h2.2v-1.2c0-0.8-0.2-1.5-0.7-2.1s-1.2-0.9-2.2-0.9c-0.4,0-0.8,0.1-1.2,0.2c-0.4,0.1-0.7,0.3-1,0.5
				l-0.5,2.6h-4.7l-0.1-5.8c1.2-0.5,2.4-1,3.7-1.4s2.7-0.6,4.3-0.6c2.8,0,5.1,0.6,6.7,1.9c1.7,1.3,2.5,3.1,2.5,5.5v7.6
				c0,0.3,0,0.6,0,0.9c0,0.3,0,0.5,0.1,0.8l2.2,0.4v3.9h-7.8c-0.2-0.2-0.3-0.5-0.5-0.9c-0.2-0.4-0.3-0.8-0.4-1.1
				c-0.6,0.8-1.3,1.4-2.1,1.8S785.2,162.8,784,162.8z M786.1,158.1c0.5,0,1-0.1,1.5-0.3c0.5-0.2,0.9-0.5,1.3-0.9v-3h-2.1
				c-0.9,0-1.6,0.2-2.1,0.6c-0.5,0.4-0.7,0.9-0.7,1.6c0,0.6,0.2,1.1,0.6,1.5C785,157.9,785.5,158.1,786.1,158.1z"/>
			<path class="st3" d="M806.5,162.4l-5.6-16.4l-2.3-0.4v-3.9h10.9v3.9l-1.9,0.4l2.2,7.9l0.4,1.6h0.1l0.5-1.6l2.9-7.9l-2.4-0.4v-3.9
				h10.9v3.9l-2.4,0.5l-6.3,16.3H806.5z"/>
			<path class="st3" d="M833.8,162.8c-2,0-3.8-0.4-5.3-1.3s-2.7-2.1-3.5-3.6c-0.8-1.5-1.3-3.2-1.3-5.1v-0.7c0-2.1,0.4-4,1.1-5.6
				c0.7-1.6,1.8-2.9,3.2-3.8s3.2-1.4,5.3-1.3c1.9,0,3.5,0.4,4.8,1.1c1.3,0.7,2.3,1.8,3,3.2c0.7,1.4,1,3.1,1,5.2v3.5h-11.4l0,0.1
				c0.1,0.6,0.3,1.2,0.7,1.7s0.8,0.9,1.4,1.2c0.6,0.3,1.3,0.4,2.2,0.4c0.9,0,1.7-0.1,2.6-0.3s1.7-0.5,2.6-0.9l1.5,4.1
				c-0.9,0.7-2.1,1.2-3.4,1.6S835.5,162.8,833.8,162.8z M830.7,150.1h5.3v-0.5c0-0.7-0.1-1.4-0.2-1.9s-0.4-0.9-0.8-1.1
				c-0.4-0.3-0.8-0.4-1.5-0.4c-0.7,0-1.2,0.2-1.6,0.5c-0.4,0.3-0.7,0.8-0.9,1.3C830.8,148.6,830.7,149.2,830.7,150.1L830.7,150.1z"
				/>
			<path class="st3" d="M853.6,162.8c-1.6,0-3.2-0.1-4.6-0.4s-2.7-0.7-3.8-1.2l-0.1-6.4h4.5l0.8,3c0.3,0.2,0.6,0.3,1,0.4
				c0.4,0.1,0.9,0.2,1.5,0.2c1.1,0,1.8-0.1,2.2-0.4c0.4-0.3,0.6-0.7,0.6-1.1c0-0.4-0.2-0.8-0.7-1.2c-0.5-0.4-1.5-0.7-3-1
				c-2.4-0.5-4.2-1.3-5.4-2.4c-1.1-1.1-1.7-2.6-1.7-4.3c0-1.2,0.3-2.2,0.8-3.2c0.5-1,1.4-1.8,2.6-2.4c1.2-0.6,2.8-0.9,4.9-0.9
				c1.6,0,3,0.1,4.4,0.4c1.4,0.3,2.6,0.6,3.5,1l0,6.2h-4.5l-0.6-2.7c-0.3-0.2-0.6-0.4-1-0.5c-0.4-0.1-0.8-0.2-1.2-0.2
				c-0.9,0-1.5,0.2-1.9,0.5c-0.4,0.3-0.6,0.7-0.6,1.2c0,0.3,0.1,0.6,0.3,0.8c0.2,0.3,0.5,0.5,1,0.8s1.3,0.5,2.2,0.7
				c2.4,0.5,4.1,1.2,5.3,2.2c1.2,0.9,1.8,2.3,1.8,4.2c0,2-0.7,3.7-2.2,4.8C858.5,162.2,856.4,162.8,853.6,162.8z"/>
		</g>
	</g>
</g>
<g id="bt_letais">
	<rect id="bg_bt_4" x="956.4" y="25.8" class="st1" width="308.9" height="246.6"/>
	<g>
		<g>
			<path class="st3" d="M1060.1,162.4v-3.9l2.9-0.6v-18.8l-2.9-0.6v-3.9h2.9h6.7h3.5v3.9l-3.5,0.6v18.1h6.6l0.2-3.9h5.1v9H1060.1z"
				/>
			<path class="st3" d="M1093.4,162.8c-2,0-3.8-0.4-5.3-1.3c-1.5-0.9-2.7-2.1-3.5-3.6c-0.8-1.5-1.3-3.2-1.3-5.1v-0.7
				c0-2.1,0.4-4,1.1-5.6c0.7-1.6,1.8-2.9,3.2-3.8c1.4-0.9,3.2-1.4,5.3-1.3c1.9,0,3.5,0.4,4.8,1.1c1.3,0.7,2.3,1.8,3,3.2
				c0.7,1.4,1,3.1,1,5.2v3.5h-11.4l0,0.1c0.1,0.6,0.3,1.2,0.7,1.7s0.8,0.9,1.4,1.2c0.6,0.3,1.3,0.4,2.2,0.4c0.9,0,1.7-0.1,2.6-0.3
				c0.8-0.2,1.7-0.5,2.6-0.9l1.5,4.1c-0.9,0.7-2.1,1.2-3.4,1.6C1096.6,162.6,1095.1,162.8,1093.4,162.8z M1090.3,150.1h5.3v-0.5
				c0-0.7-0.1-1.4-0.2-1.9s-0.4-0.9-0.8-1.1c-0.4-0.3-0.8-0.4-1.5-0.4c-0.7,0-1.2,0.2-1.6,0.5c-0.4,0.3-0.7,0.8-0.9,1.3
				C1090.4,148.6,1090.3,149.2,1090.3,150.1L1090.3,150.1z"/>
			<path class="st3" d="M1112.7,162.9c-2.2,0-3.8-0.6-4.9-1.7c-1.1-1.2-1.7-3-1.7-5.5v-9.3h-2.6v-4.6h2.6v-5.1h6.7v5.1h3.4v4.6h-3.4
				v9.3c0,0.7,0.2,1.1,0.5,1.4s0.7,0.4,1.3,0.4c0.2,0,0.5,0,0.7,0c0.2,0,0.5-0.1,0.7-0.1l0.5,5c-0.6,0.2-1.2,0.3-1.8,0.4
				C1113.9,162.8,1113.3,162.9,1112.7,162.9z"/>
			<path class="st3" d="M1125.2,162.8c-2,0-3.6-0.6-4.9-1.7c-1.3-1.1-1.9-2.6-1.9-4.5c0-1.3,0.3-2.4,1-3.4c0.7-1,1.7-1.8,3.1-2.3
				c1.4-0.6,3.1-0.9,5.2-0.9h2.2v-1.2c0-0.8-0.2-1.5-0.7-2.1c-0.5-0.6-1.2-0.9-2.2-0.9c-0.4,0-0.8,0.1-1.2,0.2
				c-0.4,0.1-0.7,0.3-1,0.5l-0.5,2.6h-4.7l-0.1-5.8c1.2-0.5,2.4-1,3.7-1.4c1.3-0.4,2.7-0.6,4.3-0.6c2.8,0,5.1,0.6,6.7,1.9
				c1.7,1.3,2.5,3.1,2.5,5.5v7.6c0,0.3,0,0.6,0,0.9c0,0.3,0,0.5,0.1,0.8l2.2,0.4v3.9h-7.8c-0.2-0.2-0.3-0.5-0.5-0.9
				c-0.2-0.4-0.3-0.8-0.4-1.1c-0.6,0.8-1.3,1.4-2.1,1.8C1127.4,162.6,1126.4,162.8,1125.2,162.8z M1127.3,158.1c0.5,0,1-0.1,1.5-0.3
				c0.5-0.2,0.9-0.5,1.3-0.9v-3h-2.1c-0.9,0-1.6,0.2-2.1,0.6c-0.5,0.4-0.7,0.9-0.7,1.6c0,0.6,0.2,1.1,0.6,1.5
				C1126.1,157.9,1126.7,158.1,1127.3,158.1z"/>
			<path class="st3" d="M1140.3,162.4v-3.9l2.4-0.6v-11.6l-2.9-0.6v-3.9h9.6v16.2l2.4,0.6v3.9H1140.3z M1142.5,137.8v-5.2h6.9v5.2
				H1142.5z"/>
			<path class="st3" d="M1162.4,162.8c-1.6,0-3.2-0.1-4.6-0.4s-2.7-0.7-3.8-1.2l-0.1-6.4h4.5l0.8,3c0.3,0.2,0.6,0.3,1,0.4
				c0.4,0.1,0.9,0.2,1.5,0.2c1.1,0,1.8-0.1,2.2-0.4c0.4-0.3,0.6-0.7,0.6-1.1c0-0.4-0.2-0.8-0.7-1.2c-0.5-0.4-1.5-0.7-3-1
				c-2.4-0.5-4.2-1.3-5.4-2.4c-1.1-1.1-1.7-2.6-1.7-4.3c0-1.2,0.3-2.2,0.8-3.2c0.5-1,1.4-1.8,2.6-2.4c1.2-0.6,2.8-0.9,4.9-0.9
				c1.6,0,3,0.1,4.4,0.4c1.4,0.3,2.6,0.6,3.5,1l0,6.2h-4.5l-0.6-2.7c-0.3-0.2-0.6-0.4-1-0.5c-0.4-0.1-0.8-0.2-1.2-0.2
				c-0.9,0-1.5,0.2-1.9,0.5c-0.4,0.3-0.6,0.7-0.6,1.2c0,0.3,0.1,0.6,0.3,0.8c0.2,0.3,0.5,0.5,1,0.8s1.3,0.5,2.2,0.7
				c2.4,0.5,4.1,1.2,5.3,2.2c1.2,0.9,1.8,2.3,1.8,4.2c0,2-0.7,3.7-2.2,4.8C1167.3,162.2,1165.2,162.8,1162.4,162.8z"/>
		</g>
	</g>
</g>
</svg>
