<?xml version="1.0" encoding="utf-8"?>
<!-- Generator: Adobe Illustrator 27.7.0, SVG Export Plug-In . SVG Version: 6.00 Build 0)  -->
<svg version="1.1" id="Camada_1" xmlns="http://www.w3.org/2000/svg" xmlns:xlink="http://www.w3.org/1999/xlink" x="0px" y="0px"
	 viewBox="0 0 1280 672" style="enable-background:new 0 0 1280 672;" xml:space="preserve">
<style type="text/css">
	.st0{opacity:0.1;fill:#D5059E;enable-background:new    ;}
	.st1{enable-background:new    ;}
	.st2{fill:#D5059E;}
	.st3{opacity:0.35;fill:#D5059E;enable-background:new    ;}
	.st4{fill:#FFFFFF;}
	.st5{opacity:0.6;fill:#D5059E;enable-background:new    ;}
	.st6{fill:#0077FF;}
</style>
<g id="Info2">
	<g id="bt_leves">
		<rect id="bg_bt1" x="15.7" y="25.8" class="st0" width="308.9" height="246.6"/>
		<g class="st1">
			<path class="st2" d="M111.9,162.4v-3.9l2.9-0.6v-18.8l-2.9-0.6v-3.9h2.9h6.7h3.5v3.9l-3.5,0.6v18.1h6.6l0.2-3.9h5.1v9H111.9z"/>
		</g>
		<g class="st1">
			<path class="st2" d="M145.1,162.8c-2,0-3.8-0.4-5.3-1.3c-1.5-0.9-2.7-2.1-3.5-3.6c-0.8-1.5-1.3-3.2-1.3-5.1v-0.7
				c0-2.1,0.4-4,1.1-5.6s1.8-2.9,3.3-3.8c1.4-0.9,3.2-1.4,5.3-1.3c1.9,0,3.5,0.4,4.8,1.1c1.3,0.7,2.3,1.8,3,3.2c0.7,1.4,1,3.1,1,5.2
				v3.5h-11.4l0,0.1c0.1,0.7,0.3,1.2,0.7,1.7c0.3,0.5,0.8,0.9,1.4,1.2s1.3,0.4,2.2,0.4c0.9,0,1.7-0.1,2.6-0.3
				c0.8-0.2,1.7-0.5,2.6-0.9l1.5,4.1c-0.9,0.7-2.1,1.2-3.4,1.6C148.2,162.6,146.7,162.8,145.1,162.8z M141.9,150.1h5.3v-0.5
				c0-0.7-0.1-1.4-0.2-1.9s-0.4-0.9-0.8-1.1s-0.8-0.4-1.5-0.4c-0.7,0-1.2,0.2-1.6,0.5c-0.4,0.3-0.7,0.8-0.9,1.3
				C142.1,148.6,141.9,149.2,141.9,150.1L141.9,150.1z"/>
		</g>
		<g class="st1">
			<path class="st2" d="M162.4,162.4l-5.6-16.4l-2.3-0.4v-3.9h10.9v3.9l-1.9,0.4l2.2,7.9l0.4,1.6h0.1l0.5-1.6l2.9-7.9l-2.4-0.4v-3.9
				h10.9v3.9l-2.4,0.5l-6.3,16.3H162.4z"/>
		</g>
		<g class="st1">
			<path class="st2" d="M189.4,162.8c-2,0-3.8-0.4-5.3-1.3c-1.5-0.9-2.7-2.1-3.5-3.6c-0.8-1.5-1.3-3.2-1.3-5.1v-0.7
				c0-2.1,0.4-4,1.1-5.6s1.8-2.9,3.3-3.8c1.4-0.9,3.2-1.4,5.3-1.3c1.9,0,3.5,0.4,4.8,1.1c1.3,0.7,2.3,1.8,3,3.2c0.7,1.4,1,3.1,1,5.2
				v3.5h-11.4l0,0.1c0.1,0.7,0.3,1.2,0.7,1.7c0.3,0.5,0.8,0.9,1.4,1.2s1.3,0.4,2.2,0.4c0.9,0,1.7-0.1,2.6-0.3
				c0.8-0.2,1.7-0.5,2.6-0.9l1.5,4.1c-0.9,0.7-2.1,1.2-3.4,1.6C192.5,162.6,191.1,162.8,189.4,162.8z M186.3,150.1h5.3v-0.5
				c0-0.7-0.1-1.4-0.2-1.9s-0.4-0.9-0.8-1.1s-0.8-0.4-1.5-0.4c-0.7,0-1.2,0.2-1.6,0.5c-0.4,0.3-0.7,0.8-0.9,1.3
				C186.4,148.6,186.3,149.2,186.3,150.1L186.3,150.1z"/>
		</g>
		<g class="st1">
			<path class="st2" d="M209.2,162.8c-1.6,0-3.2-0.1-4.6-0.4c-1.4-0.3-2.7-0.7-3.8-1.2l-0.1-6.4h4.5l0.8,3c0.3,0.2,0.6,0.3,1,0.4
				c0.4,0.1,0.9,0.2,1.5,0.2c1.1,0,1.8-0.1,2.2-0.4c0.4-0.3,0.6-0.7,0.6-1.1c0-0.4-0.2-0.8-0.7-1.2s-1.5-0.7-3-1
				c-2.4-0.5-4.2-1.3-5.4-2.4s-1.7-2.6-1.7-4.3c0-1.2,0.3-2.2,0.8-3.2c0.5-1,1.4-1.8,2.6-2.4c1.2-0.6,2.8-0.9,4.9-0.9
				c1.6,0,3,0.1,4.4,0.4c1.4,0.3,2.6,0.6,3.5,1l0,6.2h-4.5l-0.6-2.7c-0.3-0.2-0.6-0.4-1-0.5c-0.4-0.1-0.8-0.2-1.2-0.2
				c-0.9,0-1.5,0.2-1.9,0.5c-0.4,0.3-0.6,0.7-0.6,1.2c0,0.3,0.1,0.6,0.3,0.8s0.5,0.5,1,0.8s1.3,0.5,2.2,0.7c2.4,0.5,4.1,1.2,5.3,2.2
				c1.2,0.9,1.8,2.3,1.8,4.2c0,2-0.7,3.7-2.2,4.8C214.1,162.2,211.9,162.8,209.2,162.8z"/>
		</g>
	</g>
	<g id="bt_moderadas">
		<rect x="329.3" y="25.8" class="st3" width="308.9" height="246.6"/>
		<g class="st1">
			<path class="st4" d="M383.4,162.4v-3.9l2.9-0.6v-18.8l-2.9-0.6v-3.9h2.9h10.3l6.7,18.3h0.1l6.5-18.3h13v3.9l-2.9,0.6v18.8
				l2.9,0.6v3.9h-12.5v-3.9l3-0.6v-3.6l0.2-13.1l-0.1,0l-7.9,21.3h-5.3l-8-21l-0.1,0l0.5,11.9v4.6l3.2,0.6v3.9H383.4z"/>
		</g>
		<g class="st1">
			<path class="st4" d="M434.6,162.8c-2.1,0-3.9-0.4-5.5-1.3c-1.5-0.9-2.7-2.1-3.5-3.7c-0.8-1.6-1.2-3.4-1.2-5.5v-0.4
				c0-2.1,0.4-3.9,1.2-5.5c0.8-1.6,1.9-2.8,3.5-3.7c1.5-0.9,3.3-1.3,5.4-1.3c2.1,0,3.9,0.4,5.4,1.3c1.5,0.9,2.6,2.1,3.4,3.7
				c0.8,1.6,1.2,3.4,1.2,5.5v0.4c0,2.1-0.4,3.9-1.2,5.5c-0.8,1.6-1.9,2.8-3.4,3.7C438.5,162.4,436.7,162.8,434.6,162.8z
				 M434.6,157.7c0.8,0,1.5-0.2,2-0.7c0.5-0.4,0.8-1.1,1.1-1.9c0.2-0.8,0.3-1.8,0.3-2.9v-0.4c0-1.1-0.1-2-0.3-2.8s-0.6-1.4-1.1-1.9
				c-0.5-0.5-1.2-0.7-2-0.7c-0.8,0-1.5,0.2-2,0.7c-0.5,0.5-0.9,1.1-1.1,1.9s-0.3,1.8-0.3,2.8v0.4c0,1.1,0.1,2.1,0.3,2.9
				s0.6,1.4,1.1,1.9C433,157.5,433.7,157.7,434.6,157.7z"/>
		</g>
		<g class="st1">
			<path class="st4" d="M454.6,162.8c-1.6,0-3-0.4-4.2-1.3c-1.2-0.9-2.1-2.1-2.7-3.6c-0.6-1.5-0.9-3.4-0.9-5.4v-0.4
				c0-2.2,0.3-4,0.9-5.7c0.6-1.6,1.5-2.9,2.7-3.8s2.5-1.3,4.1-1.3c1.1,0,2,0.2,2.8,0.7s1.5,1.1,2.1,1.9v-6.8l-2.9-0.6v-3.9h2.9h6.7
				v25.3l2.4,0.6v3.9h-8.2l-0.5-2.6c-0.6,1-1.4,1.7-2.2,2.2C456.8,162.6,455.7,162.8,454.6,162.8z M456.7,157.7
				c0.6,0,1.1-0.1,1.6-0.3s0.9-0.5,1.2-1v-8.3c-0.3-0.5-0.7-0.9-1.2-1.2s-1-0.4-1.6-0.4c-0.8,0-1.4,0.2-1.9,0.7
				c-0.5,0.5-0.8,1.1-1,2c-0.2,0.8-0.3,1.8-0.3,2.9v0.4c0,1.6,0.2,2.9,0.7,3.8C454.6,157.2,455.5,157.7,456.7,157.7z"/>
		</g>
		<g class="st1">
			<path class="st4" d="M480.1,162.8c-2,0-3.8-0.4-5.3-1.3c-1.5-0.9-2.7-2.1-3.5-3.6c-0.8-1.5-1.3-3.2-1.3-5.1v-0.7
				c0-2.1,0.4-4,1.1-5.6s1.8-2.9,3.3-3.8c1.4-0.9,3.2-1.4,5.3-1.3c1.9,0,3.5,0.4,4.8,1.1c1.3,0.7,2.3,1.8,3,3.2c0.7,1.4,1,3.1,1,5.2
				v3.5H477l0,0.1c0.1,0.7,0.3,1.2,0.7,1.7c0.3,0.5,0.8,0.9,1.4,1.2s1.3,0.4,2.2,0.4c0.9,0,1.7-0.1,2.6-0.3c0.8-0.2,1.7-0.5,2.6-0.9
				l1.5,4.1c-0.9,0.7-2.1,1.2-3.4,1.6C483.2,162.6,481.7,162.8,480.1,162.8z M477,150.1h5.3v-0.5c0-0.7-0.1-1.4-0.2-1.9
				s-0.4-0.9-0.8-1.1s-0.8-0.4-1.5-0.4c-0.7,0-1.2,0.2-1.6,0.5c-0.4,0.3-0.7,0.8-0.9,1.3C477.1,148.6,477,149.2,477,150.1L477,150.1
				z"/>
		</g>
		<g class="st1">
			<path class="st4" d="M491.4,162.4v-3.9l2.4-0.6v-11.6l-2.9-0.6v-3.9h9.2l0.2,2.5l0,0.5c0.5-1.2,1-2,1.7-2.6
				c0.7-0.6,1.5-0.8,2.6-0.8c0.3,0,0.6,0,1,0.1c0.4,0,0.8,0.1,1.2,0.2l-0.7,6.2l-2.9-0.1c-0.7,0-1.2,0-1.6,0.2s-0.8,0.5-1.1,0.9v9.1
				l2.4,0.6v3.9H491.4z"/>
		</g>
		<g class="st1">
			<path class="st4" d="M514.5,162.8c-2,0-3.6-0.6-4.9-1.7c-1.3-1.1-1.9-2.6-1.9-4.5c0-1.3,0.3-2.4,1-3.4c0.7-1,1.7-1.8,3.1-2.3
				s3.1-0.9,5.2-0.9h2.2v-1.2c0-0.8-0.2-1.5-0.7-2.1s-1.2-0.9-2.2-0.9c-0.4,0-0.8,0.1-1.2,0.2c-0.4,0.1-0.7,0.3-1,0.5l-0.5,2.6h-4.7
				l-0.1-5.8c1.2-0.5,2.4-1,3.7-1.4c1.3-0.4,2.7-0.6,4.3-0.6c2.8,0,5.1,0.6,6.7,1.9c1.7,1.3,2.5,3.1,2.5,5.5v7.6c0,0.3,0,0.6,0,0.9
				s0,0.5,0.1,0.8l2.2,0.4v3.9h-7.8c-0.2-0.2-0.3-0.5-0.5-0.9c-0.2-0.4-0.3-0.8-0.4-1.1c-0.6,0.8-1.3,1.4-2.1,1.8
				C516.7,162.6,515.7,162.8,514.5,162.8z M516.6,158.1c0.5,0,1-0.1,1.5-0.3s0.9-0.5,1.3-0.9v-3h-2.1c-0.9,0-1.6,0.2-2.1,0.6
				s-0.7,0.9-0.7,1.6c0,0.6,0.2,1.1,0.6,1.5C515.4,157.9,515.9,158.1,516.6,158.1z"/>
			<path class="st4" d="M537.6,162.8c-1.6,0-3-0.4-4.2-1.3c-1.2-0.9-2.1-2.1-2.7-3.6c-0.6-1.5-0.9-3.4-0.9-5.4v-0.4
				c0-2.2,0.3-4,0.9-5.7c0.6-1.6,1.5-2.9,2.7-3.8s2.5-1.3,4.1-1.3c1.1,0,2,0.2,2.8,0.7s1.5,1.1,2.1,1.9v-6.8l-2.9-0.6v-3.9h2.9h6.7
				v25.3l2.4,0.6v3.9h-8.2l-0.5-2.6c-0.6,1-1.4,1.7-2.2,2.2C539.8,162.6,538.8,162.8,537.6,162.8z M539.7,157.7
				c0.6,0,1.1-0.1,1.6-0.3s0.9-0.5,1.2-1v-8.3c-0.3-0.5-0.7-0.9-1.2-1.2s-1-0.4-1.6-0.4c-0.8,0-1.4,0.2-1.9,0.7
				c-0.5,0.5-0.8,1.1-1,2c-0.2,0.8-0.3,1.8-0.3,2.9v0.4c0,1.6,0.2,2.9,0.7,3.8C537.7,157.2,538.5,157.7,539.7,157.7z"/>
			<path class="st4" d="M559.9,162.8c-2,0-3.6-0.6-4.9-1.7c-1.3-1.1-1.9-2.6-1.9-4.5c0-1.3,0.3-2.4,1-3.4c0.7-1,1.7-1.8,3.1-2.3
				s3.1-0.9,5.2-0.9h2.2v-1.2c0-0.8-0.2-1.5-0.7-2.1s-1.2-0.9-2.2-0.9c-0.4,0-0.8,0.1-1.2,0.2c-0.4,0.1-0.7,0.3-1,0.5l-0.5,2.6h-4.7
				l-0.1-5.8c1.2-0.5,2.4-1,3.7-1.4c1.3-0.4,2.7-0.6,4.3-0.6c2.8,0,5.1,0.6,6.7,1.9c1.7,1.3,2.5,3.1,2.5,5.5v7.6c0,0.3,0,0.6,0,0.9
				s0,0.5,0.1,0.8l2.2,0.4v3.9h-7.8c-0.2-0.2-0.3-0.5-0.5-0.9c-0.2-0.4-0.3-0.8-0.4-1.1c-0.6,0.8-1.3,1.4-2.1,1.8
				C562.1,162.6,561.1,162.8,559.9,162.8z M562,158.1c0.5,0,1-0.1,1.5-0.3s0.9-0.5,1.3-0.9v-3h-2.1c-0.9,0-1.6,0.2-2.1,0.6
				s-0.7,0.9-0.7,1.6c0,0.6,0.2,1.1,0.6,1.5C560.8,157.9,561.3,158.1,562,158.1z"/>
			<path class="st4" d="M584.3,162.8c-1.6,0-3.2-0.1-4.6-0.4c-1.4-0.3-2.7-0.7-3.8-1.2l-0.1-6.4h4.5l0.8,3c0.3,0.2,0.6,0.3,1,0.4
				c0.4,0.1,0.9,0.2,1.5,0.2c1.1,0,1.8-0.1,2.2-0.4c0.4-0.3,0.6-0.7,0.6-1.1c0-0.4-0.2-0.8-0.7-1.2s-1.5-0.7-3-1
				c-2.4-0.5-4.2-1.3-5.4-2.4s-1.7-2.6-1.7-4.3c0-1.2,0.3-2.2,0.8-3.2c0.5-1,1.4-1.8,2.6-2.4c1.2-0.6,2.8-0.9,4.9-0.9
				c1.6,0,3,0.1,4.4,0.4c1.4,0.3,2.6,0.6,3.5,1l0,6.2h-4.5l-0.6-2.7c-0.3-0.2-0.6-0.4-1-0.5c-0.4-0.1-0.8-0.2-1.2-0.2
				c-0.9,0-1.5,0.2-1.9,0.5c-0.4,0.3-0.6,0.7-0.6,1.2c0,0.3,0.1,0.6,0.3,0.8s0.5,0.5,1,0.8s1.3,0.5,2.2,0.7c2.4,0.5,4.1,1.2,5.3,2.2
				c1.2,0.9,1.8,2.3,1.8,4.2c0,2-0.7,3.7-2.2,4.8C589.2,162.2,587.1,162.8,584.3,162.8z"/>
		</g>
	</g>
	<g id="bt_graves">
		<rect id="bg_bt3" x="642.7" y="25.8" class="st5" width="308.9" height="246.6"/>
		<g class="st1">
			<path class="st4" d="M746,162.8c-2.9,0-5.3-0.6-7.3-1.7c-2-1.1-3.5-2.7-4.6-4.7c-1-2-1.6-4.3-1.6-6.9v-1.3c0-2.8,0.5-5.2,1.5-7.3
				s2.5-3.8,4.5-5s4.3-1.8,7.1-1.8c1.9,0,3.8,0.3,5.7,0.9s3.6,1.5,5,2.7v6.5h-4.8l-1-3.5c-0.4-0.4-1-0.8-1.8-1.1s-1.7-0.4-2.7-0.4
				c-1.5,0-2.8,0.4-3.8,1.1c-1,0.8-1.8,1.8-2.3,3.2c-0.5,1.4-0.8,2.9-0.8,4.7v1.3c0,1.7,0.3,3.1,0.8,4.4s1.3,2.2,2.4,2.9
				c1,0.7,2.3,1,3.9,1c0.8,0,1.6-0.1,2.4-0.2c0.8-0.2,1.4-0.4,1.9-0.6v-3.6l-3.1-0.4v-4.6h9.9v11.5c-1.5,1-3.2,1.7-5.1,2.2
				C750.2,162.6,748.2,162.8,746,162.8z"/>
		</g>
		<g class="st1">
			<path class="st4" d="M760.4,162.4v-3.9l2.4-0.6v-11.6l-2.9-0.6v-3.9h9.2l0.2,2.5l0,0.5c0.5-1.2,1-2,1.7-2.6
				c0.7-0.6,1.5-0.8,2.6-0.8c0.3,0,0.6,0,1,0.1c0.4,0,0.8,0.1,1.2,0.2l-0.7,6.2l-2.9-0.1c-0.7,0-1.2,0-1.6,0.2s-0.8,0.5-1.1,0.9v9.1
				l2.4,0.6v3.9H760.4z"/>
		</g>
		<g class="st1">
			<path class="st4" d="M783.4,162.8c-2,0-3.6-0.6-4.9-1.7s-1.9-2.6-1.9-4.5c0-1.3,0.3-2.4,1-3.4c0.7-1,1.7-1.8,3.1-2.3
				c1.4-0.6,3.1-0.9,5.2-0.9h2.2v-1.2c0-0.8-0.2-1.5-0.7-2.1s-1.2-0.9-2.2-0.9c-0.4,0-0.8,0.1-1.2,0.2c-0.4,0.1-0.7,0.3-1,0.5
				l-0.5,2.6h-4.7l-0.1-5.8c1.2-0.5,2.4-1,3.7-1.4c1.3-0.4,2.7-0.6,4.3-0.6c2.8,0,5.1,0.6,6.7,1.9c1.7,1.3,2.5,3.1,2.5,5.5v7.6
				c0,0.3,0,0.6,0,0.9c0,0.3,0,0.5,0.1,0.8l2.2,0.4v3.9h-7.8c-0.2-0.2-0.3-0.5-0.5-0.9c-0.2-0.4-0.3-0.8-0.4-1.1
				c-0.6,0.8-1.3,1.4-2.1,1.8C785.6,162.6,784.6,162.8,783.4,162.8z M785.5,158.1c0.5,0,1-0.1,1.5-0.3c0.5-0.2,0.9-0.5,1.3-0.9v-3
				h-2.1c-0.9,0-1.6,0.2-2.1,0.6c-0.5,0.4-0.7,0.9-0.7,1.6c0,0.6,0.2,1.1,0.6,1.5C784.4,157.9,784.9,158.1,785.5,158.1z"/>
		</g>
		<g class="st1">
			<path class="st4" d="M804.6,162.4l-5.6-16.4l-2.3-0.4v-3.9h10.9v3.9l-1.9,0.4l2.2,7.9l0.4,1.6h0.1l0.5-1.6l2.9-7.9l-2.4-0.4v-3.9
				h10.9v3.9l-2.4,0.5l-6.3,16.3H804.6z"/>
		</g>
		<g class="st1">
			<path class="st4" d="M831.7,162.8c-2,0-3.8-0.4-5.3-1.3c-1.5-0.9-2.7-2.1-3.5-3.6c-0.8-1.5-1.3-3.2-1.3-5.1v-0.7
				c0-2.1,0.4-4,1.1-5.6s1.8-2.9,3.3-3.8c1.4-0.9,3.2-1.4,5.3-1.3c1.9,0,3.5,0.4,4.8,1.1c1.3,0.7,2.3,1.8,3,3.2c0.7,1.4,1,3.1,1,5.2
				v3.5h-11.4l0,0.1c0.1,0.7,0.3,1.2,0.7,1.7c0.3,0.5,0.8,0.9,1.4,1.2c0.6,0.3,1.3,0.4,2.2,0.4c0.9,0,1.7-0.1,2.6-0.3
				c0.8-0.2,1.7-0.5,2.6-0.9l1.5,4.1c-0.9,0.7-2.1,1.2-3.4,1.6C834.8,162.6,833.3,162.8,831.7,162.8z M828.6,150.1h5.3v-0.5
				c0-0.7-0.1-1.4-0.2-1.9s-0.4-0.9-0.8-1.1c-0.4-0.3-0.8-0.4-1.5-0.4c-0.7,0-1.2,0.2-1.6,0.5c-0.4,0.3-0.7,0.8-0.9,1.3
				C828.7,148.6,828.6,149.2,828.6,150.1L828.6,150.1z"/>
		</g>
		<g class="st1">
			<path class="st4" d="M851.4,162.8c-1.6,0-3.2-0.1-4.6-0.4c-1.4-0.3-2.7-0.7-3.8-1.2l-0.1-6.4h4.5l0.8,3c0.3,0.2,0.6,0.3,1,0.4
				c0.4,0.1,0.9,0.2,1.5,0.2c1.1,0,1.8-0.1,2.2-0.4c0.4-0.3,0.6-0.7,0.6-1.1c0-0.4-0.2-0.8-0.7-1.2c-0.5-0.4-1.5-0.7-3-1
				c-2.4-0.5-4.2-1.3-5.4-2.4s-1.7-2.6-1.7-4.3c0-1.2,0.3-2.2,0.8-3.2c0.5-1,1.4-1.8,2.6-2.4c1.2-0.6,2.8-0.9,4.9-0.9
				c1.6,0,3,0.1,4.4,0.4c1.4,0.3,2.6,0.6,3.5,1l0,6.2h-4.5l-0.6-2.7c-0.3-0.2-0.6-0.4-1-0.5c-0.4-0.1-0.8-0.2-1.2-0.2
				c-0.9,0-1.5,0.2-1.9,0.5c-0.4,0.3-0.6,0.7-0.6,1.2c0,0.3,0.1,0.6,0.3,0.8s0.5,0.5,1,0.8s1.3,0.5,2.2,0.7c2.4,0.5,4.1,1.2,5.3,2.2
				c1.2,0.9,1.8,2.3,1.8,4.2c0,2-0.7,3.7-2.2,4.8C856.3,162.2,854.2,162.8,851.4,162.8z"/>
		</g>
	</g>
	<g id="bt_letais">
		<rect id="bg_bt_4" x="956.3" y="25.8" class="st2" width="308.9" height="246.6"/>
		<g class="st1">
			<path class="st4" d="M1060.1,162.4v-3.9l2.9-0.6v-18.8l-2.9-0.6v-3.9h2.9h6.7h3.5v3.9l-3.5,0.6v18.1h6.6l0.2-3.9h5.1v9H1060.1z"
				/>
		</g>
		<g class="st1">
			<path class="st4" d="M1093.2,162.8c-2,0-3.8-0.4-5.3-1.3s-2.7-2.1-3.5-3.6c-0.8-1.5-1.3-3.2-1.3-5.1v-0.7c0-2.1,0.4-4,1.1-5.6
				s1.8-2.9,3.3-3.8c1.4-0.9,3.2-1.4,5.3-1.3c1.9,0,3.5,0.4,4.8,1.1c1.3,0.7,2.3,1.8,3,3.2c0.7,1.4,1,3.1,1,5.2v3.5h-11.4l0,0.1
				c0.1,0.7,0.3,1.2,0.7,1.7c0.3,0.5,0.8,0.9,1.4,1.2c0.6,0.3,1.3,0.4,2.2,0.4c0.9,0,1.7-0.1,2.6-0.3s1.7-0.5,2.6-0.9l1.5,4.1
				c-0.9,0.7-2.1,1.2-3.4,1.6C1096.3,162.6,1094.8,162.8,1093.2,162.8z M1090.1,150.1h5.3v-0.5c0-0.7-0.1-1.4-0.2-1.9
				s-0.4-0.9-0.8-1.1c-0.4-0.3-0.8-0.4-1.5-0.4c-0.7,0-1.2,0.2-1.6,0.5c-0.4,0.3-0.7,0.8-0.9,1.3
				C1090.2,148.6,1090.1,149.2,1090.1,150.1L1090.1,150.1z"/>
			<path class="st4" d="M1112.5,162.8c-2.2,0-3.8-0.6-4.9-1.7c-1.1-1.2-1.7-3-1.7-5.5v-9.3h-2.6v-4.6h2.6v-5.1h6.7v5.1h3.4v4.6h-3.4
				v9.3c0,0.7,0.2,1.1,0.5,1.4c0.3,0.3,0.7,0.4,1.3,0.4c0.2,0,0.5,0,0.7,0s0.5-0.1,0.7-0.1l0.5,5c-0.6,0.2-1.2,0.3-1.8,0.4
				C1113.7,162.8,1113.1,162.8,1112.5,162.8z"/>
			<path class="st4" d="M1125,162.8c-2,0-3.6-0.6-4.9-1.7c-1.3-1.1-1.9-2.6-1.9-4.5c0-1.3,0.3-2.4,1-3.4c0.7-1,1.7-1.8,3.1-2.3
				c1.4-0.6,3.1-0.9,5.2-0.9h2.2v-1.2c0-0.8-0.2-1.5-0.7-2.1s-1.2-0.9-2.2-0.9c-0.4,0-0.8,0.1-1.2,0.2c-0.4,0.1-0.7,0.3-1,0.5
				l-0.5,2.6h-4.7l-0.1-5.8c1.2-0.5,2.4-1,3.7-1.4c1.3-0.4,2.7-0.6,4.3-0.6c2.8,0,5.1,0.6,6.7,1.9c1.7,1.3,2.5,3.1,2.5,5.5v7.6
				c0,0.3,0,0.6,0,0.9s0,0.5,0.1,0.8l2.2,0.4v3.9h-7.8c-0.2-0.2-0.3-0.5-0.5-0.9c-0.2-0.4-0.3-0.8-0.4-1.1c-0.6,0.8-1.3,1.4-2.1,1.8
				C1127.2,162.6,1126.2,162.8,1125,162.8z M1127.1,158.1c0.5,0,1-0.1,1.5-0.3c0.5-0.2,0.9-0.5,1.3-0.9v-3h-2.1
				c-0.9,0-1.6,0.2-2.1,0.6c-0.5,0.4-0.7,0.9-0.7,1.6c0,0.6,0.2,1.1,0.6,1.5C1125.9,157.9,1126.4,158.1,1127.1,158.1z"/>
			<path class="st4" d="M1140.1,162.4v-3.9l2.4-0.6v-11.6l-2.9-0.6v-3.9h9.6v16.2l2.4,0.6v3.9H1140.1z M1142.3,137.8v-5.2h6.9v5.2
				H1142.3z"/>
			<path class="st4" d="M1162.2,162.8c-1.6,0-3.2-0.1-4.6-0.4c-1.4-0.3-2.7-0.7-3.8-1.2l-0.1-6.4h4.5l0.8,3c0.3,0.2,0.6,0.3,1,0.4
				c0.4,0.1,0.9,0.2,1.5,0.2c1.1,0,1.8-0.1,2.2-0.4c0.4-0.3,0.6-0.7,0.6-1.1c0-0.4-0.2-0.8-0.7-1.2s-1.5-0.7-3-1
				c-2.4-0.5-4.2-1.3-5.4-2.4s-1.7-2.6-1.7-4.3c0-1.2,0.3-2.2,0.8-3.2c0.5-1,1.4-1.8,2.6-2.4c1.2-0.6,2.8-0.9,4.9-0.9
				c1.6,0,3,0.1,4.4,0.4c1.4,0.3,2.6,0.6,3.5,1l0,6.2h-4.5l-0.6-2.7c-0.3-0.2-0.6-0.4-1-0.5c-0.4-0.1-0.8-0.2-1.2-0.2
				c-0.9,0-1.5,0.2-1.9,0.5c-0.4,0.3-0.6,0.7-0.6,1.2c0,0.3,0.1,0.6,0.3,0.8s0.5,0.5,1,0.8s1.3,0.5,2.2,0.7c2.4,0.5,4.1,1.2,5.3,2.2
				c1.2,0.9,1.8,2.3,1.8,4.2c0,2-0.7,3.7-2.2,4.8C1167.1,162.2,1165,162.8,1162.2,162.8z"/>
		</g>
	</g>
</g>
<g id="txt_leves">
	<g id="txt">
		<g class="st1">
			<path class="st6" d="M140,420.1v-2.4l3.1-0.5v-21.9l-3.1-0.5v-2.4h12.4c2,0,3.7,0.3,5.1,0.9c1.4,0.6,2.5,1.5,3.2,2.6
				c0.7,1.1,1.1,2.6,1.1,4.2c0,1.6-0.4,3-1.1,4.1s-1.7,1.9-3,2.5c-1.3,0.6-2.8,0.9-4.6,0.9l-6.2,0.1v9.5l3.1,0.5v2.4H140z
				 M146.8,404.7h5.1c2.1,0,3.6-0.4,4.6-1.2s1.4-2,1.4-3.5c0-1.5-0.5-2.6-1.4-3.5c-0.9-0.9-2.3-1.3-4.3-1.3h-5.5V404.7z
				 M158.3,420.1l-6.2-13.9l3.8,0l5.1,11.1l1.9,0.3v2.5H158.3z"/>
		</g>
		<g class="st1">
			<path class="st6" d="M175.7,420.5c-1.9,0-3.6-0.4-5-1.3s-2.5-2.1-3.3-3.6c-0.8-1.6-1.2-3.4-1.2-5.4v-0.8c0-2,0.4-3.7,1.2-5.3
				s1.9-2.8,3.2-3.7c1.3-0.9,2.8-1.3,4.4-1.3c1.9,0,3.4,0.4,4.7,1.1c1.3,0.8,2.2,1.8,2.8,3.2c0.6,1.4,1,3,1,4.9v2.4h-13.4l-0.1,0.1
				c0,1.3,0.3,2.5,0.7,3.5c0.4,1,1.1,1.8,1.9,2.4c0.8,0.6,1.8,0.9,3,0.9c1.3,0,2.4-0.2,3.4-0.5s1.8-0.9,2.5-1.5l1.5,2.4
				c-0.7,0.7-1.7,1.3-2.9,1.8C178.9,420.2,177.4,420.5,175.7,420.5z M170.3,407.7h9.5v-0.5c0-1-0.2-1.9-0.5-2.7
				c-0.4-0.8-0.9-1.4-1.6-1.9c-0.7-0.5-1.6-0.7-2.6-0.7c-0.8,0-1.6,0.2-2.3,0.7c-0.7,0.5-1.3,1.2-1.7,2
				C170.7,405.5,170.4,406.5,170.3,407.7L170.3,407.7z"/>
		</g>
		<g class="st1">
			<path class="st6" d="M193.5,420.5c-2.2,0-3.8-0.5-4.9-1.6c-1.1-1.1-1.7-2.5-1.7-4.4c0-1.3,0.4-2.5,1.1-3.4s1.8-1.7,3.1-2.3
				c1.4-0.5,3-0.8,4.9-0.8h3.7v-2c0-1.2-0.4-2.2-1.1-2.9c-0.8-0.7-1.8-1-3.2-1c-0.9,0-1.6,0.1-2.3,0.3c-0.6,0.2-1.2,0.5-1.7,0.9
				L191,406h-2.9v-4.7c0.9-0.8,2-1.3,3.3-1.7s2.6-0.6,4.1-0.6c2.5,0,4.5,0.6,5.9,1.8c1.4,1.2,2.1,2.9,2.1,5.1v10c0,0.3,0,0.5,0,0.8
				c0,0.3,0,0.5,0,0.8l2,0.2v2.4h-5.4c-0.1-0.6-0.2-1.1-0.3-1.5c-0.1-0.4-0.1-0.9-0.1-1.3c-0.7,0.9-1.6,1.7-2.7,2.3
				C195.9,420.2,194.8,420.5,193.5,420.5z M194.1,417.3c1.2,0,2.4-0.3,3.4-0.9s1.8-1.3,2.2-2.2v-3.7h-3.8c-1.7,0-3,0.4-3.9,1.2
				c-0.9,0.8-1.3,1.8-1.3,2.8c0,0.9,0.3,1.6,0.8,2.1S192.9,417.3,194.1,417.3z"/>
		</g>
		<g class="st1">
			<path class="st6" d="M217.8,420.5c-1.9,0-3.5-0.4-4.9-1.3c-1.4-0.9-2.5-2.1-3.2-3.6s-1.1-3.4-1.1-5.4v-0.8c0-2,0.4-3.7,1.1-5.3
				c0.7-1.6,1.8-2.8,3.2-3.7c1.4-0.9,3-1.4,5-1.4c1.7,0,3.1,0.3,4.4,0.8c1.3,0.5,2.3,1.3,3.2,2.3l0.1,5h-2.9l-0.6-3.6
				c-0.4-0.4-1-0.8-1.6-1.1c-0.6-0.3-1.4-0.4-2.3-0.4c-1.1,0-2.1,0.3-3,1c-0.8,0.7-1.5,1.5-2,2.7c-0.5,1.1-0.7,2.3-0.7,3.7v0.8
				c0,1.5,0.2,2.8,0.7,3.9s1.1,2,1.9,2.6s1.8,0.9,2.9,0.9c1.3,0,2.3-0.4,3.2-1.1c0.8-0.7,1.4-1.7,1.5-2.9h3.4l0,0.1
				c-0.1,1.2-0.4,2.3-1.1,3.3s-1.5,1.9-2.7,2.5C221,420.2,219.6,420.5,217.8,420.5z M215.9,428.4l-0.1-2.1c0.9,0,1.7-0.2,2.2-0.5
				c0.6-0.3,0.8-0.8,0.8-1.4s-0.2-1-0.7-1.2c-0.5-0.2-1.2-0.4-2.4-0.5l0.8-3.3h2.7l-0.4,1.7c0.8,0.1,1.5,0.5,2.1,1
				c0.5,0.5,0.8,1.3,0.8,2.3c0,1.2-0.5,2.2-1.5,2.9C219.2,428,217.8,428.4,215.9,428.4z"/>
		</g>
		<g class="st1">
			<path class="st6" d="M238.7,420.5c-1.9,0-3.6-0.4-4.9-1.3s-2.5-2.1-3.2-3.7c-0.8-1.6-1.1-3.4-1.1-5.4v-0.4c0-2,0.4-3.9,1.1-5.4
				c0.8-1.6,1.8-2.8,3.2-3.7c1.4-0.9,3-1.4,4.9-1.4c1.9,0,3.6,0.5,4.9,1.4c1.4,0.9,2.5,2.1,3.2,3.7c0.8,1.6,1.1,3.4,1.1,5.4v0.4
				c0,2.1-0.4,3.9-1.1,5.5c-0.8,1.6-1.8,2.8-3.2,3.7C242.2,420,240.6,420.5,238.7,420.5z M234.1,395.1l-2-0.4c0-0.8,0.2-1.6,0.5-2.2
				c0.4-0.7,0.8-1.2,1.4-1.6c0.6-0.4,1.3-0.6,2-0.6c0.6,0,1.2,0.2,1.8,0.5c0.6,0.3,1.3,0.6,1.9,1s1.1,0.5,1.6,0.5
				c0.5,0,1-0.2,1.4-0.6s0.6-0.9,0.6-1.5l2.1,0.5c0,0.8-0.2,1.6-0.5,2.2c-0.4,0.7-0.8,1.2-1.4,1.6s-1.3,0.6-2,0.6
				c-0.6,0-1.3-0.2-1.9-0.5c-0.7-0.3-1.3-0.6-1.8-0.9s-1.1-0.5-1.5-0.5c-0.5,0-1,0.2-1.4,0.6C234.3,394,234.1,394.5,234.1,395.1z
				 M238.7,417.5c1.2,0,2.2-0.3,3-1c0.8-0.7,1.4-1.6,1.8-2.7c0.4-1.1,0.6-2.4,0.6-3.9v-0.4c0-1.5-0.2-2.8-0.6-3.9
				c-0.4-1.1-1-2-1.8-2.7s-1.8-1-3-1c-1.2,0-2.2,0.3-3,1s-1.4,1.6-1.8,2.7c-0.4,1.1-0.6,2.4-0.6,3.9v0.4c0,1.5,0.2,2.8,0.6,3.9
				c0.4,1.1,1,2,1.8,2.7C236.5,417.2,237.5,417.5,238.7,417.5z"/>
		</g>
		<g class="st1">
			<path class="st6" d="M260.9,420.5c-1.9,0-3.6-0.4-5-1.3s-2.5-2.1-3.3-3.6c-0.8-1.6-1.2-3.4-1.2-5.4v-0.8c0-2,0.4-3.7,1.2-5.3
				s1.9-2.8,3.2-3.7c1.3-0.9,2.8-1.3,4.4-1.3c1.9,0,3.4,0.4,4.7,1.1c1.3,0.8,2.2,1.8,2.8,3.2c0.6,1.4,1,3,1,4.9v2.4h-13.4l-0.1,0.1
				c0,1.3,0.3,2.5,0.7,3.5c0.4,1,1.1,1.8,1.9,2.4c0.8,0.6,1.8,0.9,3,0.9c1.3,0,2.4-0.2,3.4-0.5s1.8-0.9,2.5-1.5l1.5,2.4
				c-0.7,0.7-1.7,1.3-2.9,1.8C264.1,420.2,262.6,420.5,260.9,420.5z M255.5,407.7h9.5v-0.5c0-1-0.2-1.9-0.5-2.7
				c-0.4-0.8-0.9-1.4-1.6-1.9c-0.7-0.5-1.6-0.7-2.6-0.7c-0.8,0-1.6,0.2-2.3,0.7c-0.7,0.5-1.3,1.2-1.7,2
				C255.9,405.5,255.6,406.5,255.5,407.7L255.5,407.7z"/>
		</g>
		<g class="st1">
			<path class="st6" d="M280.2,420.5c-1.4,0-2.7-0.1-3.9-0.4c-1.2-0.3-2.5-0.7-3.9-1.3l0-4.9h2.8l0.7,3c0.7,0.3,1.4,0.5,2.1,0.6
				c0.7,0.1,1.4,0.2,2.2,0.2c1.5,0,2.6-0.3,3.3-0.9c0.7-0.6,1-1.3,1-2.2c0-0.8-0.3-1.5-1-2.1c-0.7-0.6-1.9-1-3.6-1.4
				c-2.5-0.6-4.3-1.3-5.5-2.3s-1.8-2.2-1.8-3.9c0-1.1,0.3-2.1,1-3c0.7-0.9,1.6-1.6,2.7-2.1c1.2-0.5,2.5-0.8,4.1-0.8
				c1.6,0,2.9,0.2,4,0.5c1.1,0.4,2.1,0.8,2.9,1.4l0.2,4.7h-2.8l-0.6-2.8c-0.4-0.3-1-0.6-1.6-0.8c-0.6-0.2-1.3-0.3-2.1-0.3
				c-1.2,0-2.1,0.3-2.9,0.8c-0.7,0.5-1.1,1.2-1.1,2.1c0,0.5,0.1,0.9,0.3,1.3c0.2,0.4,0.6,0.7,1.2,1s1.5,0.6,2.6,0.9
				c2.9,0.7,4.9,1.5,6,2.6c1.1,1,1.7,2.3,1.7,3.9c0,1.7-0.6,3.2-1.9,4.4C285.1,419.9,283,420.5,280.2,420.5z"/>
		</g>
		<g class="st1">
			<path class="st6" d="M309.3,420.5c-1.7,0-3.1-0.4-4.3-1.3c-1.2-0.8-2.1-2-2.8-3.5c-0.6-1.5-1-3.2-1-5.2v-0.4c0-2.2,0.3-4.2,1-5.8
				c0.6-1.7,1.6-3,2.8-3.9c1.2-0.9,2.7-1.4,4.4-1.4c1.2,0,2.3,0.2,3.2,0.7c0.9,0.5,1.7,1.1,2.4,2v-8.4l-3.1-0.5v-2.4h3.1h3.8v26.9
				l3.1,0.5v2.4h-6.4l-0.3-2.5c-0.7,0.9-1.5,1.7-2.5,2.1S310.5,420.5,309.3,420.5z M310.2,417.4c1.1,0,2.1-0.3,2.8-0.8
				c0.8-0.5,1.4-1.2,1.9-2.2v-9.6c-0.5-0.9-1.1-1.6-1.9-2.1c-0.8-0.5-1.7-0.8-2.8-0.8c-1.2,0-2.2,0.3-3,1c-0.8,0.7-1.4,1.6-1.7,2.8
				s-0.6,2.6-0.6,4.2v0.4c0,2.1,0.4,3.7,1.3,5C307.1,416.8,308.4,417.4,310.2,417.4z"/>
		</g>
		<g class="st1">
			<path class="st6" d="M333.8,420.5c-1.9,0-3.6-0.4-5-1.3s-2.5-2.1-3.3-3.6c-0.8-1.6-1.2-3.4-1.2-5.4v-0.8c0-2,0.4-3.7,1.2-5.3
				s1.9-2.8,3.2-3.7c1.3-0.9,2.8-1.3,4.4-1.3c1.9,0,3.4,0.4,4.7,1.1c1.3,0.8,2.2,1.8,2.8,3.2c0.6,1.4,1,3,1,4.9v2.4h-13.4l-0.1,0.1
				c0,1.3,0.3,2.5,0.7,3.5c0.4,1,1.1,1.8,1.9,2.4c0.8,0.6,1.8,0.9,3,0.9c1.3,0,2.4-0.2,3.4-0.5s1.8-0.9,2.5-1.5l1.5,2.4
				c-0.7,0.7-1.7,1.3-2.9,1.8C336.9,420.2,335.5,420.5,333.8,420.5z M328.3,407.7h9.5v-0.5c0-1-0.2-1.9-0.5-2.7
				c-0.4-0.8-0.9-1.4-1.6-1.9c-0.7-0.5-1.6-0.7-2.6-0.7c-0.8,0-1.6,0.2-2.3,0.7c-0.7,0.5-1.3,1.2-1.7,2
				C328.7,405.5,328.4,406.5,328.3,407.7L328.3,407.7z"/>
		</g>
		<g class="st1">
			<path class="st6" d="M353.7,428v-2.4l2.9-0.5v-22.7l-3.1-0.5v-2.4h6.3l0.3,2.5c0.7-0.9,1.5-1.7,2.5-2.2s2.1-0.7,3.4-0.7
				c1.7,0,3.2,0.5,4.4,1.4c1.2,0.9,2.1,2.2,2.8,3.9c0.6,1.7,1,3.6,1,5.8v0.4c0,2-0.3,3.7-1,5.2c-0.6,1.5-1.6,2.7-2.8,3.5
				c-1.2,0.8-2.6,1.3-4.3,1.3c-1.3,0-2.4-0.2-3.4-0.6c-1-0.4-1.8-1.1-2.5-1.9v7.1l3.3,0.5v2.4H353.7z M365.1,417.5
				c1.8,0,3.1-0.7,4.1-2s1.4-3,1.4-5.1v-0.4c0-1.6-0.2-3-0.6-4.2c-0.4-1.2-1-2.2-1.8-2.8c-0.8-0.7-1.8-1-3-1c-1.1,0-2,0.2-2.8,0.7
				c-0.8,0.5-1.4,1.1-1.9,2v10.1c0.5,0.9,1.1,1.5,1.8,2C363,417.3,364,417.5,365.1,417.5z"/>
		</g>
		<g class="st1">
			<path class="st6" d="M387.3,420.5c-1.9,0-3.6-0.4-4.9-1.3s-2.5-2.1-3.2-3.7c-0.8-1.6-1.1-3.4-1.1-5.4v-0.4c0-2,0.4-3.9,1.1-5.4
				c0.8-1.6,1.8-2.8,3.2-3.7c1.4-0.9,3-1.4,4.9-1.4c1.9,0,3.6,0.5,4.9,1.4c1.4,0.9,2.5,2.1,3.2,3.7c0.8,1.6,1.1,3.4,1.1,5.4v0.4
				c0,2.1-0.4,3.9-1.1,5.5c-0.8,1.6-1.8,2.8-3.2,3.7C390.8,420,389.2,420.5,387.3,420.5z M387.3,417.5c1.2,0,2.2-0.3,3-1
				c0.8-0.7,1.4-1.6,1.8-2.7c0.4-1.1,0.6-2.4,0.6-3.9v-0.4c0-1.5-0.2-2.8-0.6-3.9c-0.4-1.1-1-2-1.8-2.7s-1.8-1-3-1
				c-1.2,0-2.2,0.3-3,1s-1.4,1.6-1.8,2.7c-0.4,1.1-0.6,2.4-0.6,3.9v0.4c0,1.5,0.2,2.8,0.6,3.9c0.4,1.1,1,2,1.8,2.7
				C385.1,417.2,386.1,417.5,387.3,417.5z"/>
			<path class="st6" d="M408.5,420.5c-2.2,0-4-0.7-5.3-2.2c-1.3-1.4-1.9-3.7-1.9-6.7v-9.2l-2.4-0.5v-2.4h2.4h3.8v12.2
				c0,2.2,0.3,3.7,1,4.6c0.6,0.8,1.7,1.2,3,1.2c1.3,0,2.4-0.3,3.3-0.8c0.9-0.5,1.5-1.3,2-2.3v-12l-2.8-0.5v-2.4h2.8h3.8v17.7
				l2.4,0.5v2.4h-5.8l-0.2-3.1c-0.7,1.1-1.5,2-2.5,2.6C411.1,420.2,409.9,420.5,408.5,420.5z"/>
		</g>
		<g class="st1">
			<path class="st6" d="M432.6,420.5c-1.9,0-3.5-0.4-4.9-1.3c-1.4-0.9-2.5-2.1-3.2-3.6s-1.1-3.4-1.1-5.4v-0.8c0-2,0.4-3.7,1.1-5.3
				c0.7-1.6,1.8-2.8,3.2-3.7c1.4-0.9,3-1.4,5-1.4c1.7,0,3.1,0.3,4.4,0.8c1.3,0.5,2.3,1.3,3.2,2.3l0.1,5h-2.9l-0.6-3.6
				c-0.4-0.4-1-0.8-1.6-1.1c-0.6-0.3-1.4-0.4-2.3-0.4c-1.1,0-2.1,0.3-3,1c-0.8,0.7-1.5,1.5-2,2.7c-0.5,1.1-0.7,2.3-0.7,3.7v0.8
				c0,1.5,0.2,2.8,0.7,3.9s1.1,2,1.9,2.6s1.8,0.9,2.9,0.9c1.3,0,2.3-0.4,3.2-1.1c0.8-0.7,1.4-1.7,1.5-2.9h3.4l0,0.1
				c-0.1,1.2-0.4,2.3-1.1,3.3s-1.5,1.9-2.7,2.5C435.8,420.2,434.3,420.5,432.6,420.5z"/>
		</g>
		<g class="st1">
			<path class="st6" d="M450.7,420.5c-2.2,0-3.8-0.5-4.9-1.6c-1.1-1.1-1.7-2.5-1.7-4.4c0-1.3,0.4-2.5,1.1-3.4s1.8-1.7,3.1-2.3
				c1.4-0.5,3-0.8,4.9-0.8h3.7v-2c0-1.2-0.4-2.2-1.1-2.9c-0.8-0.7-1.8-1-3.2-1c-0.9,0-1.6,0.1-2.3,0.3c-0.6,0.2-1.2,0.5-1.7,0.9
				l-0.4,2.9h-2.9v-4.7c0.9-0.8,2-1.3,3.3-1.7s2.6-0.6,4.1-0.6c2.5,0,4.5,0.6,5.9,1.8c1.4,1.2,2.1,2.9,2.1,5.1v10c0,0.3,0,0.5,0,0.8
				c0,0.3,0,0.5,0,0.8l2,0.2v2.4h-5.4c-0.1-0.6-0.2-1.1-0.3-1.5c-0.1-0.4-0.1-0.9-0.1-1.3c-0.7,0.9-1.6,1.7-2.7,2.3
				C453.1,420.2,452,420.5,450.7,420.5z M451.3,417.3c1.2,0,2.4-0.3,3.4-0.9s1.8-1.3,2.2-2.2v-3.7h-3.8c-1.7,0-3,0.4-3.9,1.2
				c-0.9,0.8-1.3,1.8-1.3,2.8c0,0.9,0.3,1.6,0.8,2.1S450.1,417.3,451.3,417.3z"/>
			<path class="st6" d="M475.3,420.1v-2.4l3.1-0.5v-14.8l-3.1-0.5v-2.4h6.9v17.7l3.1,0.5v2.4H475.3z M478.2,394.3v-4h4v4H478.2z"/>
			<path class="st6" d="M487.9,420.1v-2.4l3.1-0.5v-14.8l-3.1-0.5v-2.4h6.5l0.2,2.7c0.7-1,1.5-1.7,2.6-2.3c1-0.5,2.3-0.8,3.6-0.8
				c1.4,0,2.6,0.3,3.5,1c1,0.6,1.7,1.6,2.2,2.9c0.7-1.2,1.5-2.1,2.6-2.8c1.1-0.7,2.3-1,3.7-1c2.1,0,3.8,0.7,5,2.2
				c1.2,1.4,1.8,3.6,1.8,6.5v9.4l3.1,0.5v2.4h-10v-2.4l3.1-0.5v-9.5c0-2-0.4-3.5-1.1-4.3s-1.7-1.3-3.1-1.3c-1.3,0-2.4,0.5-3.2,1.4
				c-0.8,0.9-1.3,2.1-1.4,3.5v10.2l3.1,0.5v2.4h-10v-2.4l3.1-0.5v-9.5c0-1.9-0.4-3.4-1.1-4.3s-1.8-1.3-3.1-1.3
				c-1.1,0-2.1,0.2-2.8,0.7c-0.7,0.5-1.3,1.1-1.7,2v12.4l3.1,0.5v2.4H487.9z"/>
		</g>
		<g class="st1">
			<path class="st6" d="M525.1,428v-2.4l2.9-0.5v-22.7l-3.1-0.5v-2.4h6.3l0.3,2.5c0.7-0.9,1.5-1.7,2.5-2.2s2.1-0.7,3.4-0.7
				c1.7,0,3.2,0.5,4.4,1.4c1.2,0.9,2.1,2.2,2.8,3.9c0.6,1.7,1,3.6,1,5.8v0.4c0,2-0.3,3.7-1,5.2c-0.6,1.5-1.6,2.7-2.8,3.5
				c-1.2,0.8-2.6,1.3-4.3,1.3c-1.3,0-2.4-0.2-3.4-0.6c-1-0.4-1.8-1.1-2.5-1.9v7.1l3.3,0.5v2.4H525.1z M536.4,417.5
				c1.8,0,3.1-0.7,4.1-2s1.4-3,1.4-5.1v-0.4c0-1.6-0.2-3-0.6-4.2c-0.4-1.2-1-2.2-1.8-2.8c-0.8-0.7-1.8-1-3-1c-1.1,0-2,0.2-2.8,0.7
				c-0.8,0.5-1.4,1.1-1.9,2v10.1c0.5,0.9,1.1,1.5,1.8,2C534.4,417.3,535.3,417.5,536.4,417.5z"/>
		</g>
		<g class="st1">
			<path class="st6" d="M558.7,420.5c-1.9,0-3.6-0.4-4.9-1.3s-2.5-2.1-3.2-3.7c-0.8-1.6-1.1-3.4-1.1-5.4v-0.4c0-2,0.4-3.9,1.1-5.4
				c0.8-1.6,1.8-2.8,3.2-3.7c1.4-0.9,3-1.4,4.9-1.4c1.9,0,3.6,0.5,4.9,1.4c1.4,0.9,2.5,2.1,3.2,3.7c0.8,1.6,1.1,3.4,1.1,5.4v0.4
				c0,2.1-0.4,3.9-1.1,5.5c-0.8,1.6-1.8,2.8-3.2,3.7C562.2,420,560.6,420.5,558.7,420.5z M558.7,417.5c1.2,0,2.2-0.3,3-1
				c0.8-0.7,1.4-1.6,1.8-2.7c0.4-1.1,0.6-2.4,0.6-3.9v-0.4c0-1.5-0.2-2.8-0.6-3.9c-0.4-1.1-1-2-1.8-2.7s-1.8-1-3-1
				c-1.2,0-2.2,0.3-3,1s-1.4,1.6-1.8,2.7c-0.4,1.1-0.6,2.4-0.6,3.9v0.4c0,1.5,0.2,2.8,0.6,3.9c0.4,1.1,1,2,1.8,2.7
				C556.4,417.2,557.5,417.5,558.7,417.5z"/>
		</g>
		<g class="st1">
			<path class="st6" d="M570.8,420.1v-2.4l3.1-0.5v-14.8l-3.1-0.5v-2.4h6.5l0.3,2.6l0,0.4c0.6-1.1,1.3-1.9,2.2-2.5
				c0.9-0.6,1.8-0.9,3-0.9c0.4,0,0.8,0,1.2,0.1s0.7,0.1,0.9,0.2l-0.5,3.5l-2.6-0.2c-1-0.1-1.8,0.2-2.5,0.7c-0.7,0.5-1.2,1.2-1.6,2.1
				v11.7l3.1,0.5v2.4H570.8z"/>
		</g>
		<g class="st1">
			<path class="st6" d="M595,420.4c-1.5,0-2.7-0.4-3.6-1.3s-1.3-2.3-1.3-4.3v-12.6h-3.3v-2.8h3.3v-5h3.8v5h4.5v2.8h-4.5v12.6
				c0,1,0.2,1.7,0.6,2.2c0.4,0.5,0.9,0.7,1.6,0.7c0.4,0,0.9,0,1.5-0.1c0.5-0.1,1-0.2,1.3-0.2l0.5,2.5c-0.5,0.2-1.2,0.3-2,0.4
				C596.5,420.3,595.7,420.4,595,420.4z"/>
			<path class="st6" d="M608.4,420.5c-2.2,0-3.8-0.5-4.9-1.6c-1.1-1.1-1.7-2.5-1.7-4.4c0-1.3,0.4-2.5,1.1-3.4s1.8-1.7,3.1-2.3
				c1.4-0.5,3-0.8,4.9-0.8h3.7v-2c0-1.2-0.4-2.2-1.1-2.9c-0.8-0.7-1.8-1-3.2-1c-0.9,0-1.6,0.1-2.3,0.3c-0.6,0.2-1.2,0.5-1.7,0.9
				l-0.4,2.9h-2.9v-4.7c0.9-0.8,2-1.3,3.3-1.7s2.6-0.6,4.1-0.6c2.5,0,4.5,0.6,5.9,1.8c1.4,1.2,2.1,2.9,2.1,5.1v10c0,0.3,0,0.5,0,0.8
				c0,0.3,0,0.5,0,0.8l2,0.2v2.4H615c-0.1-0.6-0.2-1.1-0.3-1.5c-0.1-0.4-0.1-0.9-0.1-1.3c-0.7,0.9-1.6,1.7-2.7,2.3
				C610.8,420.2,609.6,420.5,608.4,420.5z M604.6,395.3v-0.5l4.7-4.5h2.3l4.7,4.6v0.5h-3.1l-2.8-2.8l-2.8,2.8H604.6z M609,417.3
				c1.2,0,2.4-0.3,3.4-0.9s1.8-1.3,2.2-2.2v-3.7h-3.8c-1.7,0-3,0.4-3.9,1.2c-0.9,0.8-1.3,1.8-1.3,2.8c0,0.9,0.3,1.6,0.8,2.1
				S607.8,417.3,609,417.3z"/>
		</g>
		<g class="st1">
			<path class="st6" d="M623.3,420.1v-2.4l3.1-0.5v-14.8l-3.1-0.5v-2.4h6.5l0.3,3.1c0.7-1.1,1.6-1.9,2.6-2.6c1-0.6,2.2-0.9,3.5-0.9
				c2.2,0,4,0.7,5.2,2s1.8,3.3,1.8,6.1v10.1l3.1,0.5v2.4h-10v-2.4l3.1-0.5v-10c0-1.8-0.4-3.1-1.1-3.9s-1.8-1.1-3.3-1.1
				c-1.1,0-2,0.3-2.9,0.8c-0.8,0.5-1.5,1.2-2,2.1v12.1l3.1,0.5v2.4H623.3z"/>
		</g>
		<g class="st1">
			<path class="st6" d="M658.2,420.5c-1.9,0-3.5-0.4-4.9-1.3s-2.5-2.1-3.2-3.6s-1.1-3.4-1.1-5.4v-0.8c0-2,0.4-3.7,1.1-5.3
				s1.8-2.8,3.2-3.7c1.4-0.9,3-1.4,5-1.4c1.7,0,3.1,0.3,4.4,0.8c1.3,0.5,2.3,1.3,3.2,2.3l0.1,5h-2.9l-0.6-3.6
				c-0.4-0.4-1-0.8-1.6-1.1c-0.6-0.3-1.4-0.4-2.3-0.4c-1.1,0-2.1,0.3-3,1c-0.8,0.7-1.5,1.5-2,2.7c-0.5,1.1-0.7,2.3-0.7,3.7v0.8
				c0,1.5,0.2,2.8,0.7,3.9c0.4,1.1,1.1,2,1.9,2.6s1.8,0.9,2.9,0.9c1.3,0,2.3-0.4,3.2-1.1c0.8-0.7,1.4-1.7,1.5-2.9h3.4l0,0.1
				c-0.1,1.2-0.4,2.3-1.1,3.3c-0.6,1-1.5,1.9-2.7,2.5S659.9,420.5,658.2,420.5z"/>
			<path class="st6" d="M669.1,420.1v-2.4l3.1-0.5v-14.8l-3.1-0.5v-2.4h6.9v17.7l3.1,0.5v2.4H669.1z M672,394.3v-4h4v4H672z"/>
			<path class="st6" d="M688.4,420.5c-2.2,0-3.8-0.5-4.9-1.6c-1.1-1.1-1.7-2.5-1.7-4.4c0-1.3,0.4-2.5,1.1-3.4c0.7-1,1.8-1.7,3.1-2.3
				c1.4-0.5,3-0.8,4.9-0.8h3.7v-2c0-1.2-0.4-2.2-1.1-2.9c-0.8-0.7-1.8-1-3.2-1c-0.9,0-1.6,0.1-2.3,0.3s-1.2,0.5-1.7,0.9l-0.4,2.9
				h-2.9v-4.7c0.9-0.8,2-1.3,3.2-1.7s2.6-0.6,4.1-0.6c2.5,0,4.5,0.6,5.9,1.8c1.4,1.2,2.1,2.9,2.1,5.1v10c0,0.3,0,0.5,0,0.8
				s0,0.5,0,0.8l2,0.2v2.4H695c-0.1-0.6-0.2-1.1-0.3-1.5c-0.1-0.4-0.1-0.9-0.1-1.3c-0.7,0.9-1.6,1.7-2.7,2.3
				C690.8,420.2,689.6,420.5,688.4,420.5z M689,417.3c1.2,0,2.4-0.3,3.4-0.9c1-0.6,1.8-1.3,2.2-2.2v-3.7h-3.8c-1.7,0-3,0.4-3.9,1.2
				c-0.9,0.8-1.3,1.8-1.3,2.8c0,0.9,0.3,1.6,0.8,2.1C687,417.1,687.8,417.3,689,417.3z"/>
			<path class="st6" d="M722.5,420.5c-1.9,0-3.6-0.4-5-1.3s-2.5-2.1-3.3-3.6c-0.8-1.6-1.2-3.4-1.2-5.4v-0.8c0-2,0.4-3.7,1.2-5.3
				s1.9-2.8,3.2-3.7c1.3-0.9,2.8-1.3,4.4-1.3c1.9,0,3.4,0.4,4.7,1.1c1.3,0.8,2.2,1.8,2.8,3.2c0.6,1.4,1,3,1,4.9v2.4H717l-0.1,0.1
				c0,1.3,0.3,2.5,0.7,3.5c0.4,1,1.1,1.8,1.9,2.4c0.8,0.6,1.8,0.9,3,0.9c1.3,0,2.4-0.2,3.4-0.5c1-0.4,1.8-0.9,2.5-1.5l1.5,2.4
				c-0.7,0.7-1.7,1.3-2.9,1.8C725.7,420.2,724.2,420.5,722.5,420.5z M717.1,407.7h9.5v-0.5c0-1-0.2-1.9-0.5-2.7
				c-0.4-0.8-0.9-1.4-1.6-1.9c-0.7-0.5-1.6-0.7-2.6-0.7c-0.8,0-1.6,0.2-2.3,0.7c-0.7,0.5-1.3,1.2-1.7,2
				C717.5,405.5,717.2,406.5,717.1,407.7L717.1,407.7z"/>
			<path class="st6" d="M752.4,420.5c-1.9,0-3.5-0.4-4.9-1.3s-2.5-2.1-3.2-3.6s-1.1-3.4-1.1-5.4v-0.8c0-2,0.4-3.7,1.1-5.3
				s1.8-2.8,3.2-3.7c1.4-0.9,3-1.4,5-1.4c1.7,0,3.1,0.3,4.4,0.8c1.3,0.5,2.3,1.3,3.2,2.3l0.1,5h-2.9l-0.6-3.6
				c-0.4-0.4-1-0.8-1.6-1.1c-0.6-0.3-1.4-0.4-2.3-0.4c-1.1,0-2.1,0.3-3,1c-0.8,0.7-1.5,1.5-2,2.7c-0.5,1.1-0.7,2.3-0.7,3.7v0.8
				c0,1.5,0.2,2.8,0.7,3.9c0.4,1.1,1.1,2,1.9,2.6s1.8,0.9,2.9,0.9c1.3,0,2.3-0.4,3.2-1.1c0.8-0.7,1.4-1.7,1.5-2.9h3.4l0,0.1
				c-0.1,1.2-0.4,2.3-1.1,3.3c-0.6,1-1.5,1.9-2.7,2.5S754.1,420.5,752.4,420.5z"/>
			<path class="st6" d="M772.6,420.5c-2.2,0-4-0.7-5.3-2.2c-1.3-1.4-1.9-3.7-1.9-6.7v-9.2l-2.4-0.5v-2.4h2.4h3.8v12.2
				c0,2.2,0.3,3.7,1,4.6c0.7,0.8,1.7,1.2,3,1.2c1.3,0,2.4-0.3,3.3-0.8c0.9-0.5,1.5-1.3,2-2.3v-12l-2.8-0.5v-2.4h2.8h3.8v17.7
				l2.4,0.5v2.4h-5.8l-0.2-3.1c-0.7,1.1-1.5,2-2.5,2.6C775.1,420.2,773.9,420.5,772.6,420.5z"/>
		</g>
		<g class="st1">
			<path class="st6" d="M787.2,420.1v-2.4l3.1-0.5v-14.8l-3.1-0.5v-2.4h6.5l0.3,2.6l0,0.4c0.6-1.1,1.3-1.9,2.2-2.5
				c0.9-0.6,1.8-0.9,3-0.9c0.4,0,0.8,0,1.2,0.1s0.7,0.1,0.9,0.2l-0.5,3.5l-2.6-0.2c-1-0.1-1.8,0.2-2.5,0.7c-0.7,0.5-1.2,1.2-1.6,2.1
				v11.7l3.1,0.5v2.4H787.2z"/>
		</g>
		<g class="st1">
			<path class="st6" d="M811.5,420.4c-1.5,0-2.7-0.4-3.6-1.3c-0.9-0.9-1.3-2.3-1.3-4.3v-12.6h-3.3v-2.8h3.3v-5h3.8v5h4.5v2.8h-4.5
				v12.6c0,1,0.2,1.7,0.6,2.2c0.4,0.5,0.9,0.7,1.6,0.7c0.4,0,0.9,0,1.5-0.1c0.5-0.1,1-0.2,1.3-0.2l0.5,2.5c-0.5,0.2-1.2,0.3-2,0.4
				S812.2,420.4,811.5,420.4z"/>
			<path class="st6" d="M824.8,420.5c-2.2,0-3.8-0.5-4.9-1.6c-1.1-1.1-1.7-2.5-1.7-4.4c0-1.3,0.4-2.5,1.1-3.4c0.7-1,1.8-1.7,3.1-2.3
				c1.4-0.5,3-0.8,4.9-0.8h3.7v-2c0-1.2-0.4-2.2-1.1-2.9c-0.8-0.7-1.8-1-3.2-1c-0.9,0-1.6,0.1-2.3,0.3s-1.2,0.5-1.7,0.9l-0.4,2.9
				h-2.9v-4.7c0.9-0.8,2-1.3,3.2-1.7s2.6-0.6,4.1-0.6c2.5,0,4.5,0.6,5.9,1.8c1.4,1.2,2.1,2.9,2.1,5.1v10c0,0.3,0,0.5,0,0.8
				s0,0.5,0,0.8l2,0.2v2.4h-5.4c-0.1-0.6-0.2-1.1-0.3-1.5c-0.1-0.4-0.1-0.9-0.1-1.3c-0.7,0.9-1.6,1.7-2.7,2.3
				C827.2,420.2,826.1,420.5,824.8,420.5z M825.4,417.3c1.2,0,2.4-0.3,3.4-0.9c1-0.6,1.8-1.3,2.2-2.2v-3.7h-3.8
				c-1.7,0-3,0.4-3.9,1.2c-0.9,0.8-1.3,1.8-1.3,2.8c0,0.9,0.3,1.6,0.8,2.1C823.4,417.1,824.3,417.3,825.4,417.3z"/>
			<path class="st6" d="M857.7,420.5c-1.7,0-3.1-0.4-4.3-1.3c-1.2-0.8-2.1-2-2.8-3.5c-0.6-1.5-1-3.2-1-5.2v-0.4c0-2.2,0.3-4.2,1-5.8
				s1.6-3,2.8-3.9s2.7-1.4,4.4-1.4c1.2,0,2.3,0.2,3.2,0.7c0.9,0.5,1.7,1.1,2.4,2v-8.4l-3.1-0.5v-2.4h3.1h3.8v26.9l3.1,0.5v2.4h-6.4
				l-0.3-2.5c-0.7,0.9-1.5,1.7-2.5,2.1C860.1,420.2,858.9,420.5,857.7,420.5z M858.6,417.4c1.1,0,2.1-0.3,2.8-0.8s1.4-1.2,1.9-2.2
				v-9.6c-0.5-0.9-1.1-1.6-1.9-2.1s-1.7-0.8-2.8-0.8c-1.2,0-2.2,0.3-3,1c-0.8,0.7-1.4,1.6-1.7,2.8c-0.4,1.2-0.6,2.6-0.6,4.2v0.4
				c0,2.1,0.4,3.7,1.3,5C855.5,416.8,856.8,417.4,858.6,417.4z"/>
			<path class="st6" d="M881.9,420.5c-2.2,0-4-0.7-5.3-2.2c-1.3-1.4-1.9-3.7-1.9-6.7v-9.2l-2.4-0.5v-2.4h2.4h3.8v12.2
				c0,2.2,0.3,3.7,1,4.6c0.7,0.8,1.7,1.2,3,1.2c1.3,0,2.4-0.3,3.3-0.8c0.9-0.5,1.5-1.3,2-2.3v-12l-2.8-0.5v-2.4h2.8h3.8v17.7
				l2.4,0.5v2.4h-5.8L888,417c-0.7,1.1-1.5,2-2.5,2.6C884.4,420.2,883.3,420.5,881.9,420.5z"/>
			<path class="st6" d="M896.6,420.1v-2.4l3.1-0.5v-14.8l-3.1-0.5v-2.4h6.5l0.3,2.6l0,0.4c0.6-1.1,1.3-1.9,2.2-2.5
				c0.9-0.6,1.8-0.9,3-0.9c0.4,0,0.8,0,1.2,0.1s0.7,0.1,0.9,0.2l-0.5,3.5l-2.6-0.2c-1-0.1-1.8,0.2-2.5,0.7c-0.7,0.5-1.2,1.2-1.6,2.1
				v11.7l3.1,0.5v2.4H896.6z"/>
			<path class="st6" d="M919.6,420.5c-2.2,0-3.8-0.5-4.9-1.6c-1.1-1.1-1.7-2.5-1.7-4.4c0-1.3,0.4-2.5,1.1-3.4c0.7-1,1.8-1.7,3.1-2.3
				c1.4-0.5,3-0.8,4.9-0.8h3.7v-2c0-1.2-0.4-2.2-1.1-2.9c-0.8-0.7-1.8-1-3.2-1c-0.9,0-1.6,0.1-2.3,0.3c-0.6,0.2-1.2,0.5-1.7,0.9
				l-0.4,2.9h-2.9v-4.7c0.9-0.8,2-1.3,3.3-1.7s2.6-0.6,4.1-0.6c2.5,0,4.5,0.6,5.9,1.8c1.4,1.2,2.1,2.9,2.1,5.1v10c0,0.3,0,0.5,0,0.8
				c0,0.3,0,0.5,0,0.8l2,0.2v2.4h-5.4c-0.1-0.6-0.2-1.1-0.3-1.5c-0.1-0.4-0.1-0.9-0.1-1.3c-0.7,0.9-1.6,1.7-2.7,2.3
				C922,420.2,920.9,420.5,919.6,420.5z M920.2,417.3c1.2,0,2.4-0.3,3.4-0.9c1-0.6,1.8-1.3,2.2-2.2v-3.7H922c-1.7,0-3,0.4-3.9,1.2
				s-1.3,1.8-1.3,2.8c0,0.9,0.3,1.6,0.8,2.1C918.2,417.1,919.1,417.3,920.2,417.3z"/>
		</g>
		<g class="st1">
			<path class="st6" d="M943.9,420.5c-1.9,0-3.5-0.4-4.9-1.3s-2.5-2.1-3.2-3.6s-1.1-3.4-1.1-5.4v-0.8c0-2,0.4-3.7,1.1-5.3
				s1.8-2.8,3.2-3.7c1.4-0.9,3-1.4,5-1.4c1.7,0,3.1,0.3,4.4,0.8c1.3,0.5,2.3,1.3,3.2,2.3l0.1,5h-2.9l-0.6-3.6
				c-0.4-0.4-1-0.8-1.6-1.1c-0.6-0.3-1.4-0.4-2.3-0.4c-1.1,0-2.1,0.3-3,1c-0.8,0.7-1.5,1.5-2,2.7c-0.5,1.1-0.7,2.3-0.7,3.7v0.8
				c0,1.5,0.2,2.8,0.7,3.9c0.4,1.1,1.1,2,1.9,2.6s1.8,0.9,2.9,0.9c1.3,0,2.3-0.4,3.2-1.1c0.8-0.7,1.4-1.7,1.5-2.9h3.4l0,0.1
				c-0.1,1.2-0.4,2.3-1.1,3.3c-0.6,1-1.5,1.9-2.7,2.5S945.7,420.5,943.9,420.5z M942,428.4l-0.1-2.1c0.9,0,1.7-0.2,2.2-0.5
				c0.6-0.3,0.8-0.8,0.8-1.4s-0.2-1-0.7-1.2c-0.5-0.2-1.2-0.4-2.4-0.5l0.8-3.3h2.7l-0.4,1.7c0.8,0.1,1.5,0.5,2.1,1s0.8,1.3,0.8,2.3
				c0,1.2-0.5,2.2-1.5,2.9S943.9,428.4,942,428.4z"/>
		</g>
		<g class="st1">
			<path class="st6" d="M962.1,420.5c-2.2,0-3.8-0.5-4.9-1.6c-1.1-1.1-1.7-2.5-1.7-4.4c0-1.3,0.4-2.5,1.1-3.4c0.7-1,1.8-1.7,3.1-2.3
				c1.4-0.5,3-0.8,4.9-0.8h3.7v-2c0-1.2-0.4-2.2-1.1-2.9c-0.8-0.7-1.8-1-3.2-1c-0.9,0-1.6,0.1-2.3,0.3c-0.6,0.2-1.2,0.5-1.7,0.9
				l-0.4,2.9h-2.9v-4.7c0.9-0.8,2-1.3,3.3-1.7s2.6-0.6,4.1-0.6c2.5,0,4.5,0.6,5.9,1.8c1.4,1.2,2.1,2.9,2.1,5.1v10c0,0.3,0,0.5,0,0.8
				c0,0.3,0,0.5,0,0.8l2,0.2v2.4h-5.4c-0.1-0.6-0.2-1.1-0.3-1.5c-0.1-0.4-0.1-0.9-0.1-1.3c-0.7,0.9-1.6,1.7-2.7,2.3
				C964.5,420.2,963.3,420.5,962.1,420.5z M959.6,395.1l-2-0.4c0-0.8,0.2-1.6,0.5-2.2c0.4-0.7,0.8-1.2,1.4-1.6
				c0.6-0.4,1.3-0.6,2-0.6c0.6,0,1.2,0.2,1.8,0.5c0.6,0.3,1.3,0.6,1.9,1s1.1,0.5,1.6,0.5c0.5,0,1-0.2,1.4-0.6
				c0.4-0.4,0.6-0.9,0.6-1.5l2.1,0.5c0,0.8-0.2,1.6-0.5,2.2c-0.4,0.7-0.8,1.2-1.4,1.6c-0.6,0.4-1.3,0.6-2,0.6
				c-0.6,0-1.3-0.2-1.9-0.5s-1.3-0.6-1.8-0.9s-1.1-0.5-1.5-0.5c-0.5,0-1,0.2-1.4,0.6C959.8,394,959.6,394.5,959.6,395.1z
				 M962.6,417.3c1.2,0,2.4-0.3,3.4-0.9c1-0.6,1.8-1.3,2.2-2.2v-3.7h-3.8c-1.7,0-3,0.4-3.9,1.2s-1.3,1.8-1.3,2.8
				c0,0.9,0.3,1.6,0.8,2.1C960.6,417.1,961.5,417.3,962.6,417.3z"/>
			<path class="st6" d="M986.4,420.5c-1.9,0-3.6-0.4-4.9-1.3c-1.4-0.9-2.5-2.1-3.2-3.7c-0.8-1.6-1.1-3.4-1.1-5.4v-0.4
				c0-2,0.4-3.9,1.1-5.4c0.8-1.6,1.8-2.8,3.2-3.7c1.4-0.9,3-1.4,4.9-1.4c1.9,0,3.6,0.5,4.9,1.4c1.4,0.9,2.5,2.1,3.2,3.7
				c0.8,1.6,1.1,3.4,1.1,5.4v0.4c0,2.1-0.4,3.9-1.1,5.5c-0.8,1.6-1.8,2.8-3.2,3.7S988.3,420.5,986.4,420.5z M986.4,417.5
				c1.2,0,2.2-0.3,3-1c0.8-0.7,1.4-1.6,1.8-2.7s0.6-2.4,0.6-3.9v-0.4c0-1.5-0.2-2.8-0.6-3.9s-1-2-1.8-2.7c-0.8-0.7-1.8-1-3-1
				c-1.2,0-2.2,0.3-3,1c-0.8,0.7-1.4,1.6-1.8,2.7s-0.6,2.4-0.6,3.9v0.4c0,1.5,0.2,2.8,0.6,3.9s1,2,1.8,2.7
				C984.1,417.2,985.1,417.5,986.4,417.5z"/>
			<path class="st6" d="M999.6,426l-2.1-1.4c0.6-0.9,1.1-1.9,1.4-2.8c0.3-1,0.5-2,0.5-3v-2.9h3.8v2.8c0,1.2-0.3,2.6-0.9,3.9
				C1001.5,424,1000.7,425.1,999.6,426z"/>
		</g>
		<g class="st1">
			<path class="st6" d="M1015.4,428v-2.4l2.9-0.5v-22.7l-3.1-0.5v-2.4h6.3l0.3,2.5c0.7-0.9,1.5-1.7,2.5-2.2c1-0.5,2.1-0.7,3.4-0.7
				c1.7,0,3.2,0.5,4.4,1.4c1.2,0.9,2.1,2.2,2.8,3.9c0.6,1.7,1,3.6,1,5.8v0.4c0,2-0.3,3.7-1,5.2c-0.6,1.5-1.6,2.7-2.8,3.5
				c-1.2,0.8-2.6,1.3-4.3,1.3c-1.3,0-2.4-0.2-3.4-0.6c-1-0.4-1.8-1.1-2.5-1.9v7.1l3.3,0.5v2.4H1015.4z M1026.7,417.5
				c1.8,0,3.1-0.7,4.1-2s1.4-3,1.4-5.1v-0.4c0-1.6-0.2-3-0.6-4.2c-0.4-1.2-1-2.2-1.8-2.8c-0.8-0.7-1.8-1-3-1c-1.1,0-2,0.2-2.8,0.7
				s-1.4,1.1-1.9,2v10.1c0.5,0.9,1.1,1.5,1.8,2C1024.7,417.3,1025.6,417.5,1026.7,417.5z"/>
		</g>
		<g class="st1">
			<path class="st6" d="M1049,420.5c-1.9,0-3.6-0.4-4.9-1.3c-1.4-0.9-2.5-2.1-3.2-3.7c-0.8-1.6-1.1-3.4-1.1-5.4v-0.4
				c0-2,0.4-3.9,1.1-5.4c0.8-1.6,1.8-2.8,3.2-3.7c1.4-0.9,3-1.4,4.9-1.4c1.9,0,3.6,0.5,4.9,1.4c1.4,0.9,2.5,2.1,3.2,3.7
				c0.8,1.6,1.1,3.4,1.1,5.4v0.4c0,2.1-0.4,3.9-1.1,5.5c-0.8,1.6-1.8,2.8-3.2,3.7C1052.5,420,1050.9,420.5,1049,420.5z M1049,417.5
				c1.2,0,2.2-0.3,3-1c0.8-0.7,1.4-1.6,1.8-2.7c0.4-1.1,0.6-2.4,0.6-3.9v-0.4c0-1.5-0.2-2.8-0.6-3.9c-0.4-1.1-1-2-1.8-2.7
				c-0.8-0.7-1.8-1-3-1c-1.2,0-2.2,0.3-3,1c-0.8,0.7-1.4,1.6-1.8,2.7c-0.4,1.1-0.6,2.4-0.6,3.9v0.4c0,1.5,0.2,2.8,0.6,3.9
				c0.4,1.1,1,2,1.8,2.7C1046.7,417.2,1047.7,417.5,1049,417.5z"/>
		</g>
		<g class="st1">
			<path class="st6" d="M1069.9,420.5c-1.7,0-3.1-0.4-4.3-1.3c-1.2-0.8-2.1-2-2.8-3.5c-0.6-1.5-1-3.2-1-5.2v-0.4
				c0-2.2,0.3-4.2,1-5.8c0.6-1.7,1.6-3,2.8-3.9c1.2-0.9,2.7-1.4,4.4-1.4c1.2,0,2.3,0.2,3.2,0.7c0.9,0.5,1.7,1.1,2.4,2v-8.4l-3.1-0.5
				v-2.4h3.1h3.8v26.9l3.1,0.5v2.4h-6.4l-0.3-2.5c-0.7,0.9-1.5,1.7-2.5,2.1C1072.3,420.2,1071.2,420.5,1069.9,420.5z M1070.8,417.4
				c1.1,0,2.1-0.3,2.8-0.8c0.8-0.5,1.4-1.2,1.9-2.2v-9.6c-0.5-0.9-1.1-1.6-1.9-2.1c-0.8-0.5-1.7-0.8-2.8-0.8c-1.2,0-2.2,0.3-3,1
				c-0.8,0.7-1.4,1.6-1.7,2.8c-0.4,1.2-0.6,2.6-0.6,4.2v0.4c0,2.1,0.4,3.7,1.3,5C1067.7,416.8,1069.1,417.4,1070.8,417.4z"/>
		</g>
		<g class="st1">
			<path class="st6" d="M1094.4,420.5c-1.9,0-3.6-0.4-5-1.3c-1.4-0.9-2.5-2.1-3.3-3.6s-1.2-3.4-1.2-5.4v-0.8c0-2,0.4-3.7,1.2-5.3
				s1.9-2.8,3.2-3.7c1.3-0.9,2.8-1.3,4.4-1.3c1.9,0,3.4,0.4,4.7,1.1c1.3,0.8,2.2,1.8,2.8,3.2c0.6,1.4,1,3,1,4.9v2.4h-13.4l-0.1,0.1
				c0,1.3,0.3,2.5,0.7,3.5s1.1,1.8,1.9,2.4c0.8,0.6,1.8,0.9,3,0.9c1.3,0,2.4-0.2,3.4-0.5s1.8-0.9,2.5-1.5l1.5,2.4
				c-0.7,0.7-1.7,1.3-2.9,1.8C1097.6,420.2,1096.1,420.5,1094.4,420.5z M1089,407.7h9.5v-0.5c0-1-0.2-1.9-0.5-2.7
				c-0.4-0.8-0.9-1.4-1.6-1.9c-0.7-0.5-1.6-0.7-2.6-0.7c-0.8,0-1.6,0.2-2.3,0.7c-0.7,0.5-1.3,1.2-1.7,2
				C1089.4,405.5,1089.1,406.5,1089,407.7L1089,407.7z"/>
			<path class="st6" d="M1105.2,420.1v-2.4l3.1-0.5v-14.8l-3.1-0.5v-2.4h6.5l0.2,2.7c0.7-1,1.5-1.7,2.6-2.3s2.3-0.8,3.6-0.8
				c1.4,0,2.6,0.3,3.5,1c1,0.6,1.7,1.6,2.2,2.9c0.7-1.2,1.5-2.1,2.6-2.8c1.1-0.7,2.3-1,3.7-1c2.1,0,3.8,0.7,5,2.2
				c1.2,1.4,1.8,3.6,1.8,6.5v9.4l3.1,0.5v2.4h-10v-2.4l3.1-0.5v-9.5c0-2-0.4-3.5-1.1-4.3s-1.7-1.3-3.1-1.3c-1.3,0-2.4,0.5-3.2,1.4
				c-0.8,0.9-1.3,2.1-1.4,3.5v10.2l3.1,0.5v2.4h-10v-2.4l3.1-0.5v-9.5c0-1.9-0.4-3.4-1.1-4.3c-0.7-0.9-1.8-1.3-3.1-1.3
				c-1.1,0-2.1,0.2-2.8,0.7c-0.7,0.5-1.3,1.1-1.7,2v12.4l3.1,0.5v2.4H1105.2z"/>
		</g>
		<g class="st1">
			<path class="st6" d="M114.2,480.1v-2.4l3.1-0.5v-14.8l-3.1-0.5v-2.4h6.5l0.3,2.6l0,0.4c0.6-1.1,1.3-1.9,2.2-2.5
				c0.9-0.6,1.8-0.9,3-0.9c0.4,0,0.8,0,1.2,0.1s0.7,0.1,0.9,0.2l-0.5,3.5l-2.6-0.2c-1-0.1-1.8,0.2-2.5,0.7c-0.7,0.5-1.2,1.2-1.6,2.1
				v11.7l3.1,0.5v2.4H114.2z"/>
		</g>
		<g class="st1">
			<path class="st6" d="M139.6,480.5c-1.9,0-3.6-0.4-5-1.3s-2.5-2.1-3.3-3.6c-0.8-1.6-1.2-3.4-1.2-5.4v-0.8c0-2,0.4-3.7,1.2-5.3
				s1.9-2.8,3.2-3.7c1.3-0.9,2.8-1.3,4.4-1.3c1.9,0,3.4,0.4,4.7,1.1c1.3,0.8,2.2,1.8,2.8,3.2c0.6,1.4,1,3,1,4.9v2.4h-13.4l-0.1,0.1
				c0,1.3,0.3,2.5,0.7,3.5c0.4,1,1.1,1.8,1.9,2.4c0.8,0.6,1.8,0.9,3,0.9c1.3,0,2.4-0.2,3.4-0.5s1.8-0.9,2.5-1.5l1.5,2.4
				c-0.7,0.7-1.7,1.3-2.9,1.8C142.8,480.2,141.3,480.5,139.6,480.5z M134.2,467.7h9.5v-0.5c0-1-0.2-1.9-0.5-2.7
				c-0.4-0.8-0.9-1.4-1.6-1.9c-0.7-0.5-1.6-0.7-2.6-0.7c-0.8,0-1.6,0.2-2.3,0.7c-0.7,0.5-1.3,1.2-1.7,2
				C134.6,465.5,134.3,466.5,134.2,467.7L134.2,467.7z"/>
		</g>
		<g class="st1">
			<path class="st6" d="M161.6,488v-2.4l3.1-0.5v-6.9c-0.7,0.8-1.5,1.4-2.4,1.8c-0.9,0.4-1.9,0.6-3.1,0.6c-1.7,0-3.1-0.4-4.3-1.3
				c-1.2-0.8-2.1-2-2.8-3.5c-0.6-1.5-1-3.2-1-5.2v-0.4c0-2.2,0.3-4.2,1-5.8c0.6-1.7,1.6-3,2.8-3.9c1.2-0.9,2.7-1.4,4.4-1.4
				c1.2,0,2.3,0.2,3.2,0.7c0.9,0.5,1.7,1.1,2.4,2l0.3-2.3h3.3v25.7l2.9,0.5v2.4H161.6z M160.2,477.5c1,0,1.9-0.2,2.7-0.7
				c0.7-0.5,1.3-1.1,1.8-1.9v-10.4c-0.5-0.8-1.1-1.4-1.9-1.9s-1.6-0.7-2.6-0.7c-1.2,0-2.2,0.3-3,1c-0.8,0.7-1.4,1.7-1.7,2.9
				c-0.4,1.2-0.6,2.6-0.6,4.2v0.4c0,2.1,0.4,3.8,1.3,5.1C157.1,476.9,158.5,477.5,160.2,477.5z"/>
			<path class="st6" d="M182,480.5c-2.2,0-4-0.7-5.3-2.2c-1.3-1.4-1.9-3.7-1.9-6.7v-9.2l-2.4-0.5v-2.4h2.4h3.8v12.2
				c0,2.2,0.3,3.7,1,4.6c0.6,0.8,1.7,1.2,3,1.2c1.3,0,2.4-0.3,3.3-0.8c0.9-0.5,1.5-1.3,2-2.3v-12l-2.8-0.5v-2.4h2.8h3.8v17.7
				l2.4,0.5v2.4h-5.8l-0.2-3.1c-0.7,1.1-1.5,2-2.5,2.6C184.6,480.2,183.4,480.5,182,480.5z"/>
			<path class="st6" d="M206.2,480.5c-1.9,0-3.6-0.4-5-1.3s-2.5-2.1-3.3-3.6c-0.8-1.6-1.2-3.4-1.2-5.4v-0.8c0-2,0.4-3.7,1.2-5.3
				s1.9-2.8,3.2-3.7c1.3-0.9,2.8-1.3,4.4-1.3c1.9,0,3.4,0.4,4.7,1.1c1.3,0.8,2.2,1.8,2.8,3.2c0.6,1.4,1,3,1,4.9v2.4h-13.4l-0.1,0.1
				c0,1.3,0.3,2.5,0.7,3.5c0.4,1,1.1,1.8,1.9,2.4c0.8,0.6,1.8,0.9,3,0.9c1.3,0,2.4-0.2,3.4-0.5s1.8-0.9,2.5-1.5l1.5,2.4
				c-0.7,0.7-1.7,1.3-2.9,1.8C209.3,480.2,207.9,480.5,206.2,480.5z M200.8,467.7h9.5v-0.5c0-1-0.2-1.9-0.5-2.7
				c-0.4-0.8-0.9-1.4-1.6-1.9c-0.7-0.5-1.6-0.7-2.6-0.7c-0.8,0-1.6,0.2-2.3,0.7c-0.7,0.5-1.3,1.2-1.7,2
				C201.2,465.5,200.9,466.5,200.8,467.7L200.8,467.7z"/>
		</g>
		<g class="st1">
			<path class="st6" d="M216.9,480.1v-2.4l3.1-0.5v-14.8l-3.1-0.5v-2.4h6.5l0.3,2.6l0,0.4c0.6-1.1,1.3-1.9,2.2-2.5
				c0.9-0.6,1.8-0.9,3-0.9c0.4,0,0.8,0,1.2,0.1s0.7,0.1,0.9,0.2l-0.5,3.5l-2.6-0.2c-1-0.1-1.8,0.2-2.5,0.7c-0.7,0.5-1.2,1.2-1.6,2.1
				v11.7l3.1,0.5v2.4H216.9z"/>
		</g>
		<g class="st1">
			<path class="st6" d="M242.4,480.5c-1.9,0-3.6-0.4-5-1.3s-2.5-2.1-3.3-3.6c-0.8-1.6-1.2-3.4-1.2-5.4v-0.8c0-2,0.4-3.7,1.2-5.3
				s1.9-2.8,3.2-3.7c1.3-0.9,2.8-1.3,4.4-1.3c1.9,0,3.4,0.4,4.7,1.1c1.3,0.8,2.2,1.8,2.8,3.2c0.6,1.4,1,3,1,4.9v2.4h-13.4l-0.1,0.1
				c0,1.3,0.3,2.5,0.7,3.5c0.4,1,1.1,1.8,1.9,2.4c0.8,0.6,1.8,0.9,3,0.9c1.3,0,2.4-0.2,3.4-0.5s1.8-0.9,2.5-1.5l1.5,2.4
				c-0.7,0.7-1.7,1.3-2.9,1.8C245.5,480.2,244.1,480.5,242.4,480.5z M237,467.7h9.5v-0.5c0-1-0.2-1.9-0.5-2.7
				c-0.4-0.8-0.9-1.4-1.6-1.9c-0.7-0.5-1.6-0.7-2.6-0.7c-0.8,0-1.6,0.2-2.3,0.7c-0.7,0.5-1.3,1.2-1.7,2
				C237.3,465.5,237.1,466.5,237,467.7L237,467.7z"/>
			<path class="st6" d="M253.1,480.1v-2.4l3.1-0.5v-14.8l-3.1-0.5v-2.4h6.5l0.3,2.6l0,0.4c0.6-1.1,1.3-1.9,2.2-2.5
				c0.9-0.6,1.8-0.9,3-0.9c0.4,0,0.8,0,1.2,0.1s0.7,0.1,0.9,0.2l-0.5,3.5l-2.6-0.2c-1-0.1-1.8,0.2-2.5,0.7c-0.7,0.5-1.2,1.2-1.6,2.1
				v11.7l3.1,0.5v2.4H253.1z"/>
			<path class="st6" d="M286.6,480.4c-1.5,0-2.7-0.4-3.6-1.3s-1.3-2.3-1.3-4.3v-12.6h-3.3v-2.8h3.3v-5h3.8v5h4.5v2.8h-4.5v12.6
				c0,1,0.2,1.7,0.6,2.2c0.4,0.5,0.9,0.7,1.6,0.7c0.4,0,0.9,0,1.5-0.1c0.5-0.1,1-0.2,1.3-0.2l0.5,2.5c-0.5,0.2-1.2,0.3-2,0.4
				C288,480.3,287.2,480.4,286.6,480.4z"/>
			<path class="st6" d="M293.2,480.1v-2.4l3.1-0.5v-14.8l-3.1-0.5v-2.4h6.5l0.3,2.6l0,0.4c0.6-1.1,1.3-1.9,2.2-2.5
				c0.9-0.6,1.8-0.9,3-0.9c0.4,0,0.8,0,1.2,0.1s0.7,0.1,0.9,0.2l-0.5,3.5l-2.6-0.2c-1-0.1-1.8,0.2-2.5,0.7c-0.7,0.5-1.2,1.2-1.6,2.1
				v11.7l3.1,0.5v2.4H293.2z"/>
			<path class="st6" d="M316.2,480.5c-2.2,0-3.8-0.5-4.9-1.6c-1.1-1.1-1.7-2.5-1.7-4.4c0-1.3,0.4-2.5,1.1-3.4s1.8-1.7,3.1-2.3
				c1.4-0.5,3-0.8,4.9-0.8h3.7v-2c0-1.2-0.4-2.2-1.1-2.9c-0.8-0.7-1.8-1-3.2-1c-0.9,0-1.6,0.1-2.3,0.3c-0.6,0.2-1.2,0.5-1.7,0.9
				l-0.4,2.9h-2.9v-4.7c0.9-0.8,2-1.3,3.3-1.7s2.6-0.6,4.1-0.6c2.5,0,4.5,0.6,5.9,1.8c1.4,1.2,2.1,2.9,2.1,5.1v10c0,0.3,0,0.5,0,0.8
				c0,0.3,0,0.5,0,0.8l2,0.2v2.4h-5.4c-0.1-0.6-0.2-1.1-0.3-1.5c-0.1-0.4-0.1-0.9-0.1-1.3c-0.7,0.9-1.6,1.7-2.7,2.3
				C318.6,480.2,317.5,480.5,316.2,480.5z M316.8,477.3c1.2,0,2.4-0.3,3.4-0.9s1.8-1.3,2.2-2.2v-3.7h-3.8c-1.7,0-3,0.4-3.9,1.2
				c-0.9,0.8-1.3,1.8-1.3,2.8c0,0.9,0.3,1.6,0.8,2.1S315.6,477.3,316.8,477.3z"/>
			<path class="st6" d="M338.5,480.4c-1.5,0-2.7-0.4-3.6-1.3s-1.3-2.3-1.3-4.3v-12.6h-3.3v-2.8h3.3v-5h3.8v5h4.5v2.8h-4.5v12.6
				c0,1,0.2,1.7,0.6,2.2c0.4,0.5,0.9,0.7,1.6,0.7c0.4,0,0.9,0,1.5-0.1c0.5-0.1,1-0.2,1.3-0.2l0.5,2.5c-0.5,0.2-1.2,0.3-2,0.4
				C339.9,480.3,339.2,480.4,338.5,480.4z"/>
			<path class="st6" d="M351.8,480.5c-2.2,0-3.8-0.5-4.9-1.6c-1.1-1.1-1.7-2.5-1.7-4.4c0-1.3,0.4-2.5,1.1-3.4s1.8-1.7,3.1-2.3
				c1.4-0.5,3-0.8,4.9-0.8h3.7v-2c0-1.2-0.4-2.2-1.1-2.9c-0.8-0.7-1.8-1-3.2-1c-0.9,0-1.6,0.1-2.3,0.3c-0.6,0.2-1.2,0.5-1.7,0.9
				l-0.4,2.9h-2.9v-4.7c0.9-0.8,2-1.3,3.3-1.7s2.6-0.6,4.1-0.6c2.5,0,4.5,0.6,5.9,1.8c1.4,1.2,2.1,2.9,2.1,5.1v10c0,0.3,0,0.5,0,0.8
				c0,0.3,0,0.5,0,0.8l2,0.2v2.4h-5.4c-0.1-0.6-0.2-1.1-0.3-1.5c-0.1-0.4-0.1-0.9-0.1-1.3c-0.7,0.9-1.6,1.7-2.7,2.3
				C354.2,480.2,353.1,480.5,351.8,480.5z M352.4,477.3c1.2,0,2.4-0.3,3.4-0.9s1.8-1.3,2.2-2.2v-3.7h-3.8c-1.7,0-3,0.4-3.9,1.2
				c-0.9,0.8-1.3,1.8-1.3,2.8c0,0.9,0.3,1.6,0.8,2.1S351.2,477.3,352.4,477.3z"/>
		</g>
		<g class="st1">
			<path class="st6" d="M366.8,480.1v-2.4l3.1-0.5v-14.8l-3.1-0.5v-2.4h6.5l0.2,2.7c0.7-1,1.5-1.7,2.6-2.3c1-0.5,2.3-0.8,3.6-0.8
				c1.4,0,2.6,0.3,3.5,1c1,0.6,1.7,1.6,2.2,2.9c0.7-1.2,1.5-2.1,2.6-2.8c1.1-0.7,2.3-1,3.7-1c2.1,0,3.8,0.7,5,2.2
				c1.2,1.4,1.8,3.6,1.8,6.5v9.4l3.1,0.5v2.4h-10v-2.4l3.1-0.5v-9.5c0-2-0.4-3.5-1.1-4.3s-1.7-1.3-3.1-1.3c-1.3,0-2.4,0.5-3.2,1.4
				c-0.8,0.9-1.3,2.1-1.4,3.5v10.2l3.1,0.5v2.4h-10v-2.4l3.1-0.5v-9.5c0-1.9-0.4-3.4-1.1-4.3s-1.8-1.3-3.1-1.3
				c-1.1,0-2.1,0.2-2.8,0.7c-0.7,0.5-1.3,1.1-1.7,2v12.4l3.1,0.5v2.4H366.8z"/>
		</g>
		<g class="st1">
			<path class="st6" d="M413.7,480.5c-1.9,0-3.6-0.4-5-1.3s-2.5-2.1-3.3-3.6c-0.8-1.6-1.2-3.4-1.2-5.4v-0.8c0-2,0.4-3.7,1.2-5.3
				s1.9-2.8,3.2-3.7c1.3-0.9,2.8-1.3,4.4-1.3c1.9,0,3.4,0.4,4.7,1.1c1.3,0.8,2.2,1.8,2.8,3.2c0.6,1.4,1,3,1,4.9v2.4h-13.4l-0.1,0.1
				c0,1.3,0.3,2.5,0.7,3.5c0.4,1,1.1,1.8,1.9,2.4c0.8,0.6,1.8,0.9,3,0.9c1.3,0,2.4-0.2,3.4-0.5s1.8-0.9,2.5-1.5l1.5,2.4
				c-0.7,0.7-1.7,1.3-2.9,1.8C416.9,480.2,415.4,480.5,413.7,480.5z M408.3,467.7h9.5v-0.5c0-1-0.2-1.9-0.5-2.7
				c-0.4-0.8-0.9-1.4-1.6-1.9c-0.7-0.5-1.6-0.7-2.6-0.7c-0.8,0-1.6,0.2-2.3,0.7c-0.7,0.5-1.3,1.2-1.7,2
				C408.7,465.5,408.4,466.5,408.3,467.7L408.3,467.7z"/>
		</g>
		<g class="st1">
			<path class="st6" d="M424.5,480.1v-2.4l3.1-0.5v-14.8l-3.1-0.5v-2.4h6.5l0.3,3.1c0.7-1.1,1.6-1.9,2.6-2.6c1-0.6,2.2-0.9,3.5-0.9
				c2.2,0,4,0.7,5.2,2s1.8,3.3,1.8,6.1v10.1l3.1,0.5v2.4h-10v-2.4l3.1-0.5v-10c0-1.8-0.4-3.1-1.1-3.9s-1.8-1.1-3.3-1.1
				c-1.1,0-2,0.3-2.9,0.8c-0.8,0.5-1.5,1.2-2,2.1v12.1l3.1,0.5v2.4H424.5z"/>
		</g>
		<g class="st1">
			<path class="st6" d="M456.7,480.4c-1.5,0-2.7-0.4-3.6-1.3s-1.3-2.3-1.3-4.3v-12.6h-3.3v-2.8h3.3v-5h3.8v5h4.5v2.8h-4.5v12.6
				c0,1,0.2,1.7,0.6,2.2c0.4,0.5,0.9,0.7,1.6,0.7c0.4,0,0.9,0,1.5-0.1c0.5-0.1,1-0.2,1.3-0.2l0.5,2.5c-0.5,0.2-1.2,0.3-2,0.4
				C458.2,480.3,457.4,480.4,456.7,480.4z"/>
		</g>
		<g class="st1">
			<path class="st6" d="M472.4,480.5c-1.9,0-3.6-0.4-4.9-1.3s-2.5-2.1-3.2-3.7c-0.8-1.6-1.1-3.4-1.1-5.4v-0.4c0-2,0.4-3.9,1.1-5.4
				c0.8-1.6,1.8-2.8,3.2-3.7c1.4-0.9,3-1.4,4.9-1.4c1.9,0,3.6,0.5,4.9,1.4c1.4,0.9,2.5,2.1,3.2,3.7c0.8,1.6,1.1,3.4,1.1,5.4v0.4
				c0,2.1-0.4,3.9-1.1,5.5c-0.8,1.6-1.8,2.8-3.2,3.7C475.9,480,474.3,480.5,472.4,480.5z M472.4,477.5c1.2,0,2.2-0.3,3-1
				c0.8-0.7,1.4-1.6,1.8-2.7c0.4-1.1,0.6-2.4,0.6-3.9v-0.4c0-1.5-0.2-2.8-0.6-3.9c-0.4-1.1-1-2-1.8-2.7s-1.8-1-3-1
				c-1.2,0-2.2,0.3-3,1s-1.4,1.6-1.8,2.7c-0.4,1.1-0.6,2.4-0.6,3.9v0.4c0,1.5,0.2,2.8,0.6,3.9c0.4,1.1,1,2,1.8,2.7
				C470.1,477.2,471.2,477.5,472.4,477.5z"/>
			<path class="st6" d="M485.7,486l-2.1-1.4c0.6-0.9,1.1-1.9,1.4-2.8c0.3-1,0.5-2,0.5-3v-2.9h3.8v2.8c0,1.2-0.3,2.6-0.9,3.9
				C487.6,484,486.7,485.1,485.7,486z"/>
			<path class="st6" d="M502,480.1v-2.4l3.1-0.5v-14.8l-3.1-0.5v-2.4h6.5l0.2,2.7c0.7-1,1.5-1.7,2.6-2.3c1-0.5,2.3-0.8,3.6-0.8
				c1.4,0,2.6,0.3,3.5,1c1,0.6,1.7,1.6,2.2,2.9c0.7-1.2,1.5-2.1,2.6-2.8c1.1-0.7,2.3-1,3.7-1c2.1,0,3.8,0.7,5,2.2
				c1.2,1.4,1.8,3.6,1.8,6.5v9.4l3.1,0.5v2.4h-10v-2.4l3.1-0.5v-9.5c0-2-0.4-3.5-1.1-4.3s-1.7-1.3-3.1-1.3c-1.3,0-2.4,0.5-3.2,1.4
				c-0.8,0.9-1.3,2.1-1.4,3.5v10.2l3.1,0.5v2.4h-10v-2.4l3.1-0.5v-9.5c0-1.9-0.4-3.4-1.1-4.3s-1.8-1.3-3.1-1.3
				c-1.1,0-2.1,0.2-2.8,0.7c-0.7,0.5-1.3,1.1-1.7,2v12.4l3.1,0.5v2.4H502z"/>
			<path class="st6" d="M546.5,480.5c-2.2,0-3.8-0.5-4.9-1.6c-1.1-1.1-1.7-2.5-1.7-4.4c0-1.3,0.4-2.5,1.1-3.4s1.8-1.7,3.1-2.3
				c1.4-0.5,3-0.8,4.9-0.8h3.7v-2c0-1.2-0.4-2.2-1.1-2.9c-0.8-0.7-1.8-1-3.2-1c-0.9,0-1.6,0.1-2.3,0.3c-0.6,0.2-1.2,0.5-1.7,0.9
				l-0.4,2.9H541v-4.7c0.9-0.8,2-1.3,3.3-1.7s2.6-0.6,4.1-0.6c2.5,0,4.5,0.6,5.9,1.8c1.4,1.2,2.1,2.9,2.1,5.1v10c0,0.3,0,0.5,0,0.8
				c0,0.3,0,0.5,0,0.8l2,0.2v2.4h-5.4c-0.1-0.6-0.2-1.1-0.3-1.5c-0.1-0.4-0.1-0.9-0.1-1.3c-0.7,0.9-1.6,1.7-2.7,2.3
				C548.9,480.2,547.7,480.5,546.5,480.5z M547,477.3c1.2,0,2.4-0.3,3.4-0.9s1.8-1.3,2.2-2.2v-3.7h-3.8c-1.7,0-3,0.4-3.9,1.2
				c-0.9,0.8-1.3,1.8-1.3,2.8c0,0.9,0.3,1.6,0.8,2.1S545.9,477.3,547,477.3z"/>
			<path class="st6" d="M569.8,480.5c-1.4,0-2.7-0.1-3.9-0.4c-1.2-0.3-2.5-0.7-3.9-1.3l0-4.9h2.8l0.7,3c0.7,0.3,1.4,0.5,2.1,0.6
				c0.7,0.1,1.4,0.2,2.2,0.2c1.5,0,2.6-0.3,3.3-0.9c0.7-0.6,1-1.3,1-2.2c0-0.8-0.3-1.5-1-2.1c-0.7-0.6-1.9-1-3.6-1.4
				c-2.5-0.6-4.3-1.3-5.5-2.3s-1.8-2.2-1.8-3.9c0-1.1,0.3-2.1,1-3c0.7-0.9,1.6-1.6,2.7-2.1c1.2-0.5,2.5-0.8,4.1-0.8
				c1.6,0,2.9,0.2,4,0.5c1.1,0.4,2.1,0.8,2.9,1.4l0.2,4.7h-2.8l-0.6-2.8c-0.4-0.3-1-0.6-1.6-0.8c-0.6-0.2-1.3-0.3-2.1-0.3
				c-1.2,0-2.1,0.3-2.9,0.8c-0.7,0.5-1.1,1.2-1.1,2.1c0,0.5,0.1,0.9,0.3,1.3c0.2,0.4,0.6,0.7,1.2,1s1.5,0.6,2.6,0.9
				c2.9,0.7,4.9,1.5,6,2.6c1.1,1,1.7,2.3,1.7,3.9c0,1.7-0.6,3.2-1.9,4.4C574.6,479.9,572.6,480.5,569.8,480.5z"/>
			<path class="st6" d="M590.7,480.1v-2.4l3.1-0.5v-14.8l-3.1-0.5v-2.4h6.5l0.3,3.1c0.7-1.1,1.6-1.9,2.6-2.6c1-0.6,2.2-0.9,3.5-0.9
				c2.2,0,4,0.7,5.2,2s1.8,3.3,1.8,6.1v10.1l3.1,0.5v2.4h-10v-2.4l3.1-0.5v-10c0-1.8-0.4-3.1-1.1-3.9s-1.8-1.1-3.3-1.1
				c-1.1,0-2,0.3-2.9,0.8c-0.8,0.5-1.5,1.2-2,2.1v12.1l3.1,0.5v2.4H590.7z"/>
			<path class="st6" d="M623.1,480.5c-2.2,0-3.8-0.5-4.9-1.6c-1.1-1.1-1.7-2.5-1.7-4.4c0-1.3,0.4-2.5,1.1-3.4s1.8-1.7,3.1-2.3
				c1.4-0.5,3-0.8,4.9-0.8h3.7v-2c0-1.2-0.4-2.2-1.1-2.9c-0.8-0.7-1.8-1-3.2-1c-0.9,0-1.6,0.1-2.3,0.3c-0.6,0.2-1.2,0.5-1.7,0.9
				l-0.4,2.9h-2.9v-4.7c0.9-0.8,2-1.3,3.3-1.7s2.6-0.6,4.1-0.6c2.5,0,4.5,0.6,5.9,1.8c1.4,1.2,2.1,2.9,2.1,5.1v10c0,0.3,0,0.5,0,0.8
				c0,0.3,0,0.5,0,0.8l2,0.2v2.4h-5.4c-0.1-0.6-0.2-1.1-0.3-1.5c-0.1-0.4-0.1-0.9-0.1-1.3c-0.7,0.9-1.6,1.7-2.7,2.3
				C625.5,480.2,624.3,480.5,623.1,480.5z M620.6,455.1l-2-0.4c0-0.8,0.2-1.6,0.5-2.2s0.8-1.2,1.4-1.6s1.3-0.6,2-0.6
				c0.6,0,1.2,0.2,1.8,0.5c0.6,0.3,1.3,0.6,1.9,1c0.6,0.3,1.1,0.5,1.6,0.5c0.5,0,1-0.2,1.4-0.6s0.6-0.9,0.6-1.5l2.1,0.5
				c0,0.8-0.2,1.6-0.5,2.2c-0.4,0.7-0.8,1.2-1.4,1.6c-0.6,0.4-1.3,0.6-2,0.6c-0.6,0-1.3-0.2-1.9-0.5c-0.6-0.3-1.3-0.6-1.8-0.9
				s-1.1-0.5-1.5-0.5c-0.5,0-1,0.2-1.4,0.6C620.8,454,620.6,454.5,620.6,455.1z M623.6,477.3c1.2,0,2.4-0.3,3.4-0.9s1.8-1.3,2.2-2.2
				v-3.7h-3.8c-1.7,0-3,0.4-3.9,1.2c-0.9,0.8-1.3,1.8-1.3,2.8c0,0.9,0.3,1.6,0.8,2.1S622.5,477.3,623.6,477.3z"/>
			<path class="st6" d="M647.4,480.5c-1.9,0-3.6-0.4-4.9-1.3c-1.4-0.9-2.5-2.1-3.2-3.7c-0.8-1.6-1.1-3.4-1.1-5.4v-0.4
				c0-2,0.4-3.9,1.1-5.4c0.8-1.6,1.8-2.8,3.2-3.7c1.4-0.9,3-1.4,4.9-1.4c1.9,0,3.6,0.5,4.9,1.4c1.4,0.9,2.5,2.1,3.2,3.7
				c0.8,1.6,1.1,3.4,1.1,5.4v0.4c0,2.1-0.4,3.9-1.1,5.5c-0.8,1.6-1.8,2.8-3.2,3.7S649.3,480.5,647.4,480.5z M647.4,477.5
				c1.2,0,2.2-0.3,3-1c0.8-0.7,1.4-1.6,1.8-2.7s0.6-2.4,0.6-3.9v-0.4c0-1.5-0.2-2.8-0.6-3.9s-1-2-1.8-2.7c-0.8-0.7-1.8-1-3-1
				c-1.2,0-2.2,0.3-3,1c-0.8,0.7-1.4,1.6-1.8,2.7s-0.6,2.4-0.6,3.9v0.4c0,1.5,0.2,2.8,0.6,3.9s1,2,1.8,2.7
				C645.1,477.2,646.2,477.5,647.4,477.5z"/>
			<path class="st6" d="M675.9,480.5c-2.2,0-3.8-0.5-4.9-1.6c-1.1-1.1-1.7-2.5-1.7-4.4c0-1.3,0.4-2.5,1.1-3.4c0.7-1,1.8-1.7,3.1-2.3
				c1.4-0.5,3-0.8,4.9-0.8h3.7v-2c0-1.2-0.4-2.2-1.1-2.9c-0.8-0.7-1.8-1-3.2-1c-0.9,0-1.6,0.1-2.3,0.3c-0.6,0.2-1.2,0.5-1.7,0.9
				l-0.4,2.9h-2.9v-4.7c0.9-0.8,2-1.3,3.3-1.7s2.6-0.6,4.1-0.6c2.5,0,4.5,0.6,5.9,1.8c1.4,1.2,2.1,2.9,2.1,5.1v10c0,0.3,0,0.5,0,0.8
				c0,0.3,0,0.5,0,0.8l2,0.2v2.4h-5.4c-0.1-0.6-0.2-1.1-0.3-1.5c-0.1-0.4-0.1-0.9-0.1-1.3c-0.7,0.9-1.6,1.7-2.7,2.3
				C678.3,480.2,677.2,480.5,675.9,480.5z M676.5,477.3c1.2,0,2.4-0.3,3.4-0.9c1-0.6,1.8-1.3,2.2-2.2v-3.7h-3.8
				c-1.7,0-3,0.4-3.9,1.2s-1.3,1.8-1.3,2.8c0,0.9,0.3,1.6,0.8,2.1C674.5,477.1,675.3,477.3,676.5,477.3z"/>
		</g>
		<g class="st1">
			<path class="st6" d="M690.8,480.1v-2.4l3.1-0.5v-15h-3.2v-2.8h3.2v-2.6c0-2.2,0.6-3.9,1.7-5.1c1.2-1.2,2.8-1.8,4.8-1.8
				c0.4,0,0.9,0,1.4,0.1c0.5,0.1,1,0.2,1.6,0.3l-0.5,2.9c-0.2-0.1-0.5-0.1-0.9-0.1c-0.4,0-0.8-0.1-1.1-0.1c-1.1,0-1.9,0.3-2.5,1
				c-0.5,0.7-0.8,1.6-0.8,2.9v2.6h4.5v2.8h-4.5v15l3.6,0.5v2.4H690.8z"/>
		</g>
		<g class="st1">
			<path class="st6" d="M714,480.5c-1.9,0-3.6-0.4-5-1.3s-2.5-2.1-3.3-3.6s-1.2-3.4-1.2-5.4v-0.8c0-2,0.4-3.7,1.2-5.3
				s1.9-2.8,3.2-3.7s2.8-1.3,4.4-1.3c1.9,0,3.4,0.4,4.7,1.1c1.3,0.8,2.2,1.8,2.8,3.2s1,3,1,4.9v2.4h-13.4l-0.1,0.1
				c0,1.3,0.3,2.5,0.7,3.5s1.1,1.8,1.9,2.4c0.8,0.6,1.8,0.9,3,0.9c1.3,0,2.4-0.2,3.4-0.5c1-0.4,1.8-0.9,2.5-1.5l1.5,2.4
				c-0.7,0.7-1.7,1.3-2.9,1.8C717.1,480.2,715.7,480.5,714,480.5z M708.5,467.7h9.5v-0.5c0-1-0.2-1.9-0.5-2.7
				c-0.4-0.8-0.9-1.4-1.6-1.9c-0.7-0.5-1.6-0.7-2.6-0.7c-0.8,0-1.6,0.2-2.3,0.7c-0.7,0.5-1.3,1.2-1.7,2
				C708.9,465.5,708.6,466.5,708.5,467.7L708.5,467.7z"/>
			<path class="st6" d="M732.1,480.4c-1.5,0-2.7-0.4-3.6-1.3c-0.9-0.9-1.3-2.3-1.3-4.3v-12.6h-3.3v-2.8h3.3v-5h3.8v5h4.5v2.8h-4.5
				v12.6c0,1,0.2,1.7,0.6,2.2c0.4,0.5,0.9,0.7,1.6,0.7c0.4,0,0.9,0,1.5-0.1c0.5-0.1,1-0.2,1.3-0.2l0.5,2.5c-0.5,0.2-1.2,0.3-2,0.4
				S732.8,480.4,732.1,480.4z"/>
			<path class="st6" d="M745.4,480.5c-2.2,0-3.8-0.5-4.9-1.6c-1.1-1.1-1.7-2.5-1.7-4.4c0-1.3,0.4-2.5,1.1-3.4c0.7-1,1.8-1.7,3.1-2.3
				c1.4-0.5,3-0.8,4.9-0.8h3.7v-2c0-1.2-0.4-2.2-1.1-2.9c-0.8-0.7-1.8-1-3.2-1c-0.9,0-1.6,0.1-2.3,0.3s-1.2,0.5-1.7,0.9l-0.4,2.9
				H740v-4.7c0.9-0.8,2-1.3,3.2-1.7s2.6-0.6,4.1-0.6c2.5,0,4.5,0.6,5.9,1.8c1.4,1.2,2.1,2.9,2.1,5.1v10c0,0.3,0,0.5,0,0.8
				s0,0.5,0,0.8l2,0.2v2.4H752c-0.1-0.6-0.2-1.1-0.3-1.5c-0.1-0.4-0.1-0.9-0.1-1.3c-0.7,0.9-1.6,1.7-2.7,2.3
				C747.8,480.2,746.7,480.5,745.4,480.5z M746,477.3c1.2,0,2.4-0.3,3.4-0.9c1-0.6,1.8-1.3,2.2-2.2v-3.7h-3.8c-1.7,0-3,0.4-3.9,1.2
				c-0.9,0.8-1.3,1.8-1.3,2.8c0,0.9,0.3,1.6,0.8,2.1C744,477.1,744.8,477.3,746,477.3z"/>
			<path class="st6" d="M760.4,480.1v-2.4l3.1-0.5v-14.8l-3.1-0.5v-2.4h6.5l0.2,2.7c0.7-1,1.5-1.7,2.6-2.3s2.3-0.8,3.6-0.8
				c1.4,0,2.6,0.3,3.5,1c1,0.6,1.7,1.6,2.2,2.9c0.7-1.2,1.5-2.1,2.6-2.8c1.1-0.7,2.3-1,3.7-1c2.1,0,3.8,0.7,5,2.2
				c1.2,1.4,1.8,3.6,1.8,6.5v9.4l3.1,0.5v2.4h-10v-2.4l3.1-0.5v-9.5c0-2-0.4-3.5-1.1-4.3s-1.7-1.3-3.1-1.3c-1.3,0-2.4,0.5-3.2,1.4
				c-0.8,0.9-1.3,2.1-1.4,3.5v10.2l3.1,0.5v2.4h-10v-2.4l3.1-0.5v-9.5c0-1.9-0.4-3.4-1.1-4.3c-0.7-0.9-1.8-1.3-3.1-1.3
				c-1.1,0-2.1,0.2-2.8,0.7c-0.7,0.5-1.3,1.1-1.7,2v12.4l3.1,0.5v2.4H760.4z"/>
			<path class="st6" d="M816.3,480.5c-1.4,0-2.7-0.1-3.9-0.4c-1.2-0.3-2.5-0.7-3.9-1.3l0-4.9h2.8l0.7,3c0.7,0.3,1.4,0.5,2.1,0.6
				c0.7,0.1,1.4,0.2,2.2,0.2c1.5,0,2.6-0.3,3.3-0.9c0.7-0.6,1-1.3,1-2.2c0-0.8-0.3-1.5-1-2.1c-0.7-0.6-1.9-1-3.6-1.4
				c-2.5-0.6-4.3-1.3-5.5-2.3c-1.2-1-1.8-2.2-1.8-3.9c0-1.1,0.3-2.1,1-3c0.7-0.9,1.6-1.6,2.7-2.1c1.2-0.5,2.5-0.8,4.1-0.8
				c1.6,0,2.9,0.2,4,0.5c1.1,0.4,2.1,0.8,2.9,1.4l0.2,4.7h-2.8l-0.6-2.8c-0.4-0.3-1-0.6-1.6-0.8c-0.6-0.2-1.3-0.3-2.1-0.3
				c-1.2,0-2.1,0.3-2.9,0.8c-0.7,0.5-1.1,1.2-1.1,2.1c0,0.5,0.1,0.9,0.3,1.3c0.2,0.4,0.6,0.7,1.2,1c0.6,0.3,1.5,0.6,2.6,0.9
				c2.9,0.7,4.9,1.5,6,2.6c1.1,1,1.7,2.3,1.7,3.9c0,1.7-0.6,3.2-1.9,4.4C821.1,479.9,819.1,480.5,816.3,480.5z"/>
			<path class="st6" d="M836.6,480.5c-2.2,0-4-0.7-5.3-2.2c-1.3-1.4-1.9-3.7-1.9-6.7v-9.2l-2.4-0.5v-2.4h2.4h3.8v12.2
				c0,2.2,0.3,3.7,1,4.6c0.6,0.8,1.7,1.2,3,1.2c1.3,0,2.4-0.3,3.3-0.8s1.5-1.3,2-2.3v-12l-2.8-0.5v-2.4h2.8h3.8v17.7l2.4,0.5v2.4
				h-5.8l-0.2-3.1c-0.7,1.1-1.5,2-2.5,2.6C839.1,480.2,837.9,480.5,836.6,480.5z"/>
			<path class="st6" d="M862.3,480.5c-1.4,0-2.5-0.3-3.5-0.8c-1-0.5-1.8-1.3-2.5-2.3l-0.3,2.7h-3.3v-26.9l-3.1-0.5v-2.4h6.9v11.6
				c0.7-0.9,1.5-1.6,2.4-2.1s2.1-0.7,3.4-0.7c1.7,0,3.2,0.5,4.4,1.4c1.2,0.9,2.1,2.2,2.8,3.9s1,3.6,1,5.8v0.4c0,2-0.3,3.7-1,5.2
				c-0.6,1.5-1.6,2.7-2.8,3.5C865.4,480.1,863.9,480.5,862.3,480.5z M861.3,477.4c1.8,0,3.1-0.6,3.9-1.9c0.9-1.3,1.3-2.9,1.3-5v-0.4
				c0-1.6-0.2-3-0.6-4.2c-0.4-1.2-1-2.1-1.7-2.8c-0.8-0.7-1.8-1-3-1c-1.2,0-2.1,0.3-2.9,0.8c-0.8,0.6-1.4,1.3-1.9,2.3v9.1
				c0.5,1,1.1,1.7,1.9,2.3S860.1,477.4,861.3,477.4z"/>
			<path class="st6" d="M881.5,480.5c-1.4,0-2.7-0.1-3.9-0.4c-1.2-0.3-2.5-0.7-3.9-1.3l0-4.9h2.8l0.7,3c0.7,0.3,1.4,0.5,2.1,0.6
				c0.7,0.1,1.4,0.2,2.2,0.2c1.5,0,2.6-0.3,3.3-0.9c0.7-0.6,1-1.3,1-2.2c0-0.8-0.3-1.5-1-2.1c-0.7-0.6-1.9-1-3.6-1.4
				c-2.5-0.6-4.3-1.3-5.5-2.3c-1.2-1-1.8-2.2-1.8-3.9c0-1.1,0.3-2.1,1-3c0.7-0.9,1.6-1.6,2.7-2.1c1.2-0.5,2.5-0.8,4.1-0.8
				c1.6,0,2.9,0.2,4,0.5c1.1,0.4,2.1,0.8,2.9,1.4l0.2,4.7h-2.8l-0.6-2.8c-0.4-0.3-1-0.6-1.6-0.8c-0.6-0.2-1.3-0.3-2.1-0.3
				c-1.2,0-2.1,0.3-2.9,0.8c-0.7,0.5-1.1,1.2-1.1,2.1c0,0.5,0.1,0.9,0.3,1.3c0.2,0.4,0.6,0.7,1.2,1c0.6,0.3,1.5,0.6,2.6,0.9
				c2.9,0.7,4.9,1.5,6,2.6c1.1,1,1.7,2.3,1.7,3.9c0,1.7-0.6,3.2-1.9,4.4C886.3,479.9,884.3,480.5,881.5,480.5z"/>
			<path class="st6" d="M900,480.4c-1.5,0-2.7-0.4-3.6-1.3c-0.9-0.9-1.3-2.3-1.3-4.3v-12.6h-3.3v-2.8h3.3v-5h3.8v5h4.5v2.8h-4.5
				v12.6c0,1,0.2,1.7,0.6,2.2c0.4,0.5,0.9,0.7,1.6,0.7c0.4,0,0.9,0,1.5-0.1c0.5-0.1,1-0.2,1.3-0.2l0.5,2.5c-0.5,0.2-1.2,0.3-2,0.4
				C901.4,480.3,900.7,480.4,900,480.4z"/>
			<path class="st6" d="M913.3,480.5c-2.2,0-3.8-0.5-4.9-1.6c-1.1-1.1-1.7-2.5-1.7-4.4c0-1.3,0.4-2.5,1.1-3.4c0.7-1,1.8-1.7,3.1-2.3
				c1.4-0.5,3-0.8,4.9-0.8h3.7v-2c0-1.2-0.4-2.2-1.1-2.9c-0.8-0.7-1.8-1-3.2-1c-0.9,0-1.6,0.1-2.3,0.3c-0.6,0.2-1.2,0.5-1.7,0.9
				l-0.4,2.9h-2.9v-4.7c0.9-0.8,2-1.3,3.3-1.7s2.6-0.6,4.1-0.6c2.5,0,4.5,0.6,5.9,1.8c1.4,1.2,2.1,2.9,2.1,5.1v10c0,0.3,0,0.5,0,0.8
				c0,0.3,0,0.5,0,0.8l2,0.2v2.4H920c-0.1-0.6-0.2-1.1-0.3-1.5c-0.1-0.4-0.1-0.9-0.1-1.3c-0.7,0.9-1.6,1.7-2.7,2.3
				C915.7,480.2,914.6,480.5,913.3,480.5z M913.9,477.3c1.2,0,2.4-0.3,3.4-0.9c1-0.6,1.8-1.3,2.2-2.2v-3.7h-3.8
				c-1.7,0-3,0.4-3.9,1.2s-1.3,1.8-1.3,2.8c0,0.9,0.3,1.6,0.8,2.1C911.9,477.1,912.8,477.3,913.9,477.3z"/>
		</g>
		<g class="st1">
			<path class="st6" d="M928.3,480.1v-2.4l3.1-0.5v-14.8l-3.1-0.5v-2.4h6.5l0.3,3.1c0.7-1.1,1.6-1.9,2.6-2.6c1-0.6,2.2-0.9,3.5-0.9
				c2.2,0,4,0.7,5.2,2s1.8,3.3,1.8,6.1v10.1l3.1,0.5v2.4h-10v-2.4l3.1-0.5v-10c0-1.8-0.4-3.1-1.1-3.9c-0.7-0.8-1.8-1.1-3.3-1.1
				c-1.1,0-2,0.3-2.9,0.8c-0.8,0.5-1.5,1.2-2,2.1v12.1l3.1,0.5v2.4H928.3z"/>
		</g>
		<g class="st1">
			<path class="st6" d="M963.1,480.5c-1.9,0-3.5-0.4-4.9-1.3s-2.5-2.1-3.2-3.6s-1.1-3.4-1.1-5.4v-0.8c0-2,0.4-3.7,1.1-5.3
				s1.8-2.8,3.2-3.7c1.4-0.9,3-1.4,5-1.4c1.7,0,3.1,0.3,4.4,0.8c1.3,0.5,2.3,1.3,3.2,2.3l0.1,5h-2.9l-0.6-3.6
				c-0.4-0.4-1-0.8-1.6-1.1c-0.6-0.3-1.4-0.4-2.3-0.4c-1.1,0-2.1,0.3-3,1c-0.8,0.7-1.5,1.5-2,2.7c-0.5,1.1-0.7,2.3-0.7,3.7v0.8
				c0,1.5,0.2,2.8,0.7,3.9c0.4,1.1,1.1,2,1.9,2.6s1.8,0.9,2.9,0.9c1.3,0,2.3-0.4,3.2-1.1c0.8-0.7,1.4-1.7,1.5-2.9h3.4l0,0.1
				c-0.1,1.2-0.4,2.3-1.1,3.3c-0.6,1-1.5,1.9-2.7,2.5S964.8,480.5,963.1,480.5z"/>
			<path class="st6" d="M974,480.1v-2.4l3.1-0.5v-14.8l-3.1-0.5v-2.4h6.9v17.7l3.1,0.5v2.4H974z M977,454.3v-4h4v4H977z"/>
			<path class="st6" d="M993.3,480.5c-2.2,0-3.8-0.5-4.9-1.6c-1.1-1.1-1.7-2.5-1.7-4.4c0-1.3,0.4-2.5,1.1-3.4c0.7-1,1.8-1.7,3.1-2.3
				c1.4-0.5,3-0.8,4.9-0.8h3.7v-2c0-1.2-0.4-2.2-1.1-2.9c-0.8-0.7-1.8-1-3.2-1c-0.9,0-1.6,0.1-2.3,0.3s-1.2,0.5-1.7,0.9l-0.4,2.9
				h-2.9v-4.7c0.9-0.8,2-1.3,3.2-1.7s2.6-0.6,4.1-0.6c2.5,0,4.5,0.6,5.9,1.8c1.4,1.2,2.1,2.9,2.1,5.1v10c0,0.3,0,0.5,0,0.8
				s0,0.5,0,0.8l2,0.2v2.4h-5.4c-0.1-0.6-0.2-1.1-0.3-1.5c-0.1-0.4-0.1-0.9-0.1-1.3c-0.7,0.9-1.6,1.7-2.7,2.3
				C995.7,480.2,994.6,480.5,993.3,480.5z M993.9,477.3c1.2,0,2.4-0.3,3.4-0.9c1-0.6,1.8-1.3,2.2-2.2v-3.7h-3.8
				c-1.7,0-3,0.4-3.9,1.2c-0.9,0.8-1.3,1.8-1.3,2.8c0,0.9,0.3,1.6,0.8,2.1C991.9,477.1,992.7,477.3,993.9,477.3z"/>
			<path class="st6" d="M1008.1,480.1v-2.4l3.1-0.5v-23.9l-3.1-0.5v-2.4h6.9v26.9l3.1,0.5v2.4H1008.1z"/>
		</g>
		<g class="st1">
			<path class="st6" d="M1020.8,480.1v-2.4l3.1-0.5v-14.8l-3.1-0.5v-2.4h6.5l0.2,2.7c0.7-1,1.5-1.7,2.6-2.3c1-0.5,2.3-0.8,3.6-0.8
				s2.6,0.3,3.5,1c1,0.6,1.7,1.6,2.2,2.9c0.7-1.2,1.5-2.1,2.6-2.8c1.1-0.7,2.3-1,3.7-1c2.1,0,3.8,0.7,5,2.2c1.2,1.4,1.8,3.6,1.8,6.5
				v9.4l3.1,0.5v2.4h-10v-2.4l3.1-0.5v-9.5c0-2-0.4-3.5-1.1-4.3s-1.7-1.3-3.1-1.3c-1.3,0-2.4,0.5-3.2,1.4c-0.8,0.9-1.3,2.1-1.4,3.5
				v10.2l3.1,0.5v2.4h-10v-2.4l3.1-0.5v-9.5c0-1.9-0.4-3.4-1.1-4.3c-0.7-0.9-1.8-1.3-3.1-1.3c-1.1,0-2.1,0.2-2.8,0.7
				c-0.7,0.5-1.3,1.1-1.7,2v12.4l3.1,0.5v2.4H1020.8z"/>
		</g>
		<g class="st1">
			<path class="st6" d="M1067.7,480.5c-1.9,0-3.6-0.4-5-1.3s-2.5-2.1-3.3-3.6c-0.8-1.6-1.2-3.4-1.2-5.4v-0.8c0-2,0.4-3.7,1.2-5.3
				s1.9-2.8,3.2-3.7c1.3-0.9,2.8-1.3,4.4-1.3c1.9,0,3.4,0.4,4.7,1.1c1.3,0.8,2.2,1.8,2.8,3.2c0.6,1.4,1,3,1,4.9v2.4h-13.4l-0.1,0.1
				c0,1.3,0.3,2.5,0.7,3.5c0.4,1,1.1,1.8,1.9,2.4c0.8,0.6,1.8,0.9,3,0.9c1.3,0,2.4-0.2,3.4-0.5c1-0.4,1.8-0.9,2.5-1.5l1.5,2.4
				c-0.7,0.7-1.7,1.3-2.9,1.8C1070.9,480.2,1069.4,480.5,1067.7,480.5z M1062.3,467.7h9.5v-0.5c0-1-0.2-1.9-0.5-2.7
				c-0.4-0.8-0.9-1.4-1.6-1.9c-0.7-0.5-1.6-0.7-2.6-0.7c-0.8,0-1.6,0.2-2.3,0.7c-0.7,0.5-1.3,1.2-1.7,2
				C1062.7,465.5,1062.4,466.5,1062.3,467.7L1062.3,467.7z"/>
		</g>
		<g class="st1">
			<path class="st6" d="M1078.5,480.1v-2.4l3.1-0.5v-14.8l-3.1-0.5v-2.4h6.5l0.3,3.1c0.7-1.1,1.6-1.9,2.6-2.6s2.2-0.9,3.5-0.9
				c2.2,0,4,0.7,5.2,2s1.8,3.3,1.8,6.1v10.1l3.1,0.5v2.4h-10v-2.4l3.1-0.5v-10c0-1.8-0.4-3.1-1.1-3.9c-0.7-0.8-1.8-1.1-3.3-1.1
				c-1.1,0-2,0.3-2.9,0.8s-1.5,1.2-2,2.1v12.1l3.1,0.5v2.4H1078.5z"/>
		</g>
		<g class="st1">
			<path class="st6" d="M1110.7,480.4c-1.5,0-2.7-0.4-3.6-1.3c-0.9-0.9-1.3-2.3-1.3-4.3v-12.6h-3.3v-2.8h3.3v-5h3.8v5h4.5v2.8h-4.5
				v12.6c0,1,0.2,1.7,0.6,2.2c0.4,0.5,0.9,0.7,1.6,0.7c0.4,0,0.9,0,1.5-0.1c0.5-0.1,1-0.2,1.3-0.2l0.5,2.5c-0.5,0.2-1.2,0.3-2,0.4
				C1112.2,480.3,1111.4,480.4,1110.7,480.4z"/>
		</g>
		<g class="st1">
			<path class="st6" d="M1126.4,480.5c-1.9,0-3.6-0.4-5-1.3s-2.5-2.1-3.3-3.6c-0.8-1.6-1.2-3.4-1.2-5.4v-0.8c0-2,0.4-3.7,1.2-5.3
				s1.9-2.8,3.2-3.7c1.3-0.9,2.8-1.3,4.4-1.3c1.9,0,3.4,0.4,4.7,1.1c1.3,0.8,2.2,1.8,2.8,3.2c0.6,1.4,1,3,1,4.9v2.4h-13.4l-0.1,0.1
				c0,1.3,0.3,2.5,0.7,3.5c0.4,1,1.1,1.8,1.9,2.4c0.8,0.6,1.8,0.9,3,0.9c1.3,0,2.4-0.2,3.4-0.5c1-0.4,1.8-0.9,2.5-1.5l1.5,2.4
				c-0.7,0.7-1.7,1.3-2.9,1.8C1129.6,480.2,1128.1,480.5,1126.4,480.5z M1121,467.7h9.5v-0.5c0-1-0.2-1.9-0.5-2.7
				c-0.4-0.8-0.9-1.4-1.6-1.9c-0.7-0.5-1.6-0.7-2.6-0.7c-0.8,0-1.6,0.2-2.3,0.7c-0.7,0.5-1.3,1.2-1.7,2
				C1121.4,465.5,1121.1,466.5,1121,467.7L1121,467.7z"/>
			<path class="st6" d="M1153.7,480.5c-2.2,0-3.8-0.5-4.9-1.6c-1.1-1.1-1.7-2.5-1.7-4.4c0-1.3,0.4-2.5,1.1-3.4
				c0.7-1,1.8-1.7,3.1-2.3c1.4-0.5,3-0.8,4.9-0.8h3.7v-2c0-1.2-0.4-2.2-1.1-2.9c-0.8-0.7-1.8-1-3.2-1c-0.9,0-1.6,0.1-2.3,0.3
				c-0.6,0.2-1.2,0.5-1.7,0.9l-0.4,2.9h-2.9v-4.7c0.9-0.8,2-1.3,3.3-1.7s2.6-0.6,4.1-0.6c2.5,0,4.5,0.6,5.9,1.8
				c1.4,1.2,2.1,2.9,2.1,5.1v10c0,0.3,0,0.5,0,0.8c0,0.3,0,0.5,0,0.8l2,0.2v2.4h-5.4c-0.1-0.6-0.2-1.1-0.3-1.5
				c-0.1-0.4-0.1-0.9-0.1-1.3c-0.7,0.9-1.6,1.7-2.7,2.3C1156.1,480.2,1154.9,480.5,1153.7,480.5z M1154.2,477.3
				c1.2,0,2.4-0.3,3.4-0.9c1-0.6,1.8-1.3,2.2-2.2v-3.7h-3.8c-1.7,0-3,0.4-3.9,1.2s-1.3,1.8-1.3,2.8c0,0.9,0.3,1.6,0.8,2.1
				C1152.3,477.1,1153.1,477.3,1154.2,477.3z"/>
		</g>
		<g class="st1">
			<path class="st6" d="M376.4,540.1l-7.4-18l-2.1-0.3v-2.4h8.7v2.4l-2.7,0.4l4.6,11.8l0.5,1.7h0.1l0.6-1.7l4.3-11.8l-2.8-0.4v-2.4
				h8.7v2.4l-2.2,0.3l-7,18H376.4z"/>
			<path class="st6" d="M390.7,540.1v-2.4l3.1-0.5v-14.8l-3.1-0.5v-2.4h6.9v17.7l3.1,0.5v2.4H390.7z M393.6,514.3v-4h4v4H393.6z"/>
			<path class="st6" d="M411.4,540.5c-1.7,0-3.1-0.4-4.3-1.3c-1.2-0.8-2.1-2-2.8-3.5c-0.6-1.5-1-3.2-1-5.2v-0.4c0-2.2,0.3-4.2,1-5.8
				c0.6-1.7,1.6-3,2.8-3.9c1.2-0.9,2.7-1.4,4.4-1.4c1.2,0,2.3,0.2,3.2,0.7c0.9,0.5,1.7,1.1,2.4,2v-8.4l-3.1-0.5v-2.4h3.1h3.8v26.9
				l3.1,0.5v2.4h-6.4l-0.3-2.5c-0.7,0.9-1.5,1.7-2.5,2.1S412.7,540.5,411.4,540.5z M412.4,537.4c1.1,0,2.1-0.3,2.8-0.8
				c0.8-0.5,1.4-1.2,1.9-2.2v-9.6c-0.5-0.9-1.1-1.6-1.9-2.1c-0.8-0.5-1.7-0.8-2.8-0.8c-1.2,0-2.2,0.3-3,1c-0.8,0.7-1.4,1.6-1.7,2.8
				s-0.6,2.6-0.6,4.2v0.4c0,2.1,0.4,3.7,1.3,5C409.3,536.8,410.6,537.4,412.4,537.4z"/>
			<path class="st6" d="M433.3,540.5c-2.2,0-3.8-0.5-4.9-1.6c-1.1-1.1-1.7-2.5-1.7-4.4c0-1.3,0.4-2.5,1.1-3.4s1.8-1.7,3.1-2.3
				c1.4-0.5,3-0.8,4.9-0.8h3.7v-2c0-1.2-0.4-2.2-1.1-2.9c-0.8-0.7-1.8-1-3.2-1c-0.9,0-1.6,0.1-2.3,0.3c-0.6,0.2-1.2,0.5-1.7,0.9
				l-0.4,2.9h-2.9v-4.7c0.9-0.8,2-1.3,3.3-1.7s2.6-0.6,4.1-0.6c2.5,0,4.5,0.6,5.9,1.8c1.4,1.2,2.1,2.9,2.1,5.1v10c0,0.3,0,0.5,0,0.8
				c0,0.3,0,0.5,0,0.8l2,0.2v2.4h-5.4c-0.1-0.6-0.2-1.1-0.3-1.5c-0.1-0.4-0.1-0.9-0.1-1.3c-0.7,0.9-1.6,1.7-2.7,2.3
				C435.7,540.2,434.5,540.5,433.3,540.5z M433.8,537.3c1.2,0,2.4-0.3,3.4-0.9s1.8-1.3,2.2-2.2v-3.7h-3.8c-1.7,0-3,0.4-3.9,1.2
				c-0.9,0.8-1.3,1.8-1.3,2.8c0,0.9,0.3,1.6,0.8,2.1S432.7,537.3,433.8,537.3z"/>
		</g>
		<g class="st1">
			<path class="st6" d="M457.9,540.1v-2.4l3.1-0.5v-14.8l-3.1-0.5v-2.4h6.5l0.3,3.1c0.7-1.1,1.6-1.9,2.6-2.6c1-0.6,2.2-0.9,3.5-0.9
				c2.2,0,4,0.7,5.2,2s1.8,3.3,1.8,6.1v10.1l3.1,0.5v2.4h-10v-2.4l3.1-0.5v-10c0-1.8-0.4-3.1-1.1-3.9s-1.8-1.1-3.3-1.1
				c-1.1,0-2,0.3-2.9,0.8c-0.8,0.5-1.5,1.2-2,2.1v12.1l3.1,0.5v2.4H457.9z"/>
		</g>
		<g class="st1">
			<path class="st6" d="M492.7,540.5c-1.9,0-3.6-0.4-4.9-1.3s-2.5-2.1-3.2-3.7c-0.8-1.6-1.1-3.4-1.1-5.4v-0.4c0-2,0.4-3.9,1.1-5.4
				c0.8-1.6,1.8-2.8,3.2-3.7c1.4-0.9,3-1.4,4.9-1.4c1.9,0,3.6,0.5,4.9,1.4c1.4,0.9,2.5,2.1,3.2,3.7c0.8,1.6,1.1,3.4,1.1,5.4v0.4
				c0,2.1-0.4,3.9-1.1,5.5c-0.8,1.6-1.8,2.8-3.2,3.7C496.2,540,494.6,540.5,492.7,540.5z M492.7,537.5c1.2,0,2.2-0.3,3-1
				c0.8-0.7,1.4-1.6,1.8-2.7c0.4-1.1,0.6-2.4,0.6-3.9v-0.4c0-1.5-0.2-2.8-0.6-3.9c-0.4-1.1-1-2-1.8-2.7s-1.8-1-3-1
				c-1.2,0-2.2,0.3-3,1s-1.4,1.6-1.8,2.7c-0.4,1.1-0.6,2.4-0.6,3.9v0.4c0,1.5,0.2,2.8,0.6,3.9c0.4,1.1,1,2,1.8,2.7
				C490.5,537.2,491.5,537.5,492.7,537.5z"/>
			<path class="st6" d="M504.8,540.1v-2.4l3.1-0.5v-14.8l-3.1-0.5v-2.4h6.5l0.3,2.6l0,0.4c0.6-1.1,1.3-1.9,2.2-2.5
				c0.9-0.6,1.8-0.9,3-0.9c0.4,0,0.8,0,1.2,0.1s0.7,0.1,0.9,0.2l-0.5,3.5l-2.6-0.2c-1-0.1-1.8,0.2-2.5,0.7c-0.7,0.5-1.2,1.2-1.6,2.1
				v11.7l3.1,0.5v2.4H504.8z"/>
			<path class="st6" d="M521.2,540.1v-2.4l3.1-0.5v-14.8l-3.1-0.5v-2.4h6.5l0.2,2.7c0.7-1,1.5-1.7,2.6-2.3c1-0.5,2.3-0.8,3.6-0.8
				c1.4,0,2.6,0.3,3.5,1c1,0.6,1.7,1.6,2.2,2.9c0.7-1.2,1.5-2.1,2.6-2.8c1.1-0.7,2.3-1,3.7-1c2.1,0,3.8,0.7,5,2.2
				c1.2,1.4,1.8,3.6,1.8,6.5v9.4l3.1,0.5v2.4h-10v-2.4l3.1-0.5v-9.5c0-2-0.4-3.5-1.1-4.3s-1.7-1.3-3.1-1.3c-1.3,0-2.4,0.5-3.2,1.4
				c-0.8,0.9-1.3,2.1-1.4,3.5v10.2l3.1,0.5v2.4h-10v-2.4l3.1-0.5v-9.5c0-1.9-0.4-3.4-1.1-4.3s-1.8-1.3-3.1-1.3
				c-1.1,0-2.1,0.2-2.8,0.7c-0.7,0.5-1.3,1.1-1.7,2v12.4l3.1,0.5v2.4H521.2z"/>
			<path class="st6" d="M565.7,540.5c-2.2,0-3.8-0.5-4.9-1.6c-1.1-1.1-1.7-2.5-1.7-4.4c0-1.3,0.4-2.5,1.1-3.4s1.8-1.7,3.1-2.3
				c1.4-0.5,3-0.8,4.9-0.8h3.7v-2c0-1.2-0.4-2.2-1.1-2.9c-0.8-0.7-1.8-1-3.2-1c-0.9,0-1.6,0.1-2.3,0.3c-0.6,0.2-1.2,0.5-1.7,0.9
				l-0.4,2.9h-2.9v-4.7c0.9-0.8,2-1.3,3.3-1.7s2.6-0.6,4.1-0.6c2.5,0,4.5,0.6,5.9,1.8c1.4,1.2,2.1,2.9,2.1,5.1v10c0,0.3,0,0.5,0,0.8
				c0,0.3,0,0.5,0,0.8l2,0.2v2.4h-5.4c-0.1-0.6-0.2-1.1-0.3-1.5c-0.1-0.4-0.1-0.9-0.1-1.3c-0.7,0.9-1.6,1.7-2.7,2.3
				C568.1,540.2,566.9,540.5,565.7,540.5z M566.2,537.3c1.2,0,2.4-0.3,3.4-0.9s1.8-1.3,2.2-2.2v-3.7H568c-1.7,0-3,0.4-3.9,1.2
				c-0.9,0.8-1.3,1.8-1.3,2.8c0,0.9,0.3,1.6,0.8,2.1S565.1,537.3,566.2,537.3z"/>
			<path class="st6" d="M580.4,540.1v-2.4l3.1-0.5v-23.9l-3.1-0.5v-2.4h6.9v26.9l3.1,0.5v2.4H580.4z"/>
		</g>
		<g class="st1">
			<path class="st6" d="M610.9,540.5c-1.7,0-3.1-0.4-4.3-1.3c-1.2-0.8-2.1-2-2.8-3.5c-0.6-1.5-1-3.2-1-5.2v-0.4c0-2.2,0.3-4.2,1-5.8
				c0.6-1.7,1.6-3,2.8-3.9c1.2-0.9,2.7-1.4,4.4-1.4c1.2,0,2.3,0.2,3.2,0.7c0.9,0.5,1.7,1.1,2.4,2v-8.4l-3.1-0.5v-2.4h3.1h3.8v26.9
				l3.1,0.5v2.4h-6.4l-0.3-2.5c-0.7,0.9-1.5,1.7-2.5,2.1S612.2,540.5,610.9,540.5z M611.9,537.4c1.1,0,2.1-0.3,2.8-0.8
				c0.8-0.5,1.4-1.2,1.9-2.2v-9.6c-0.5-0.9-1.1-1.6-1.9-2.1c-0.8-0.5-1.7-0.8-2.8-0.8c-1.2,0-2.2,0.3-3,1c-0.8,0.7-1.4,1.6-1.7,2.8
				s-0.6,2.6-0.6,4.2v0.4c0,2.1,0.4,3.7,1.3,5C608.8,536.8,610.1,537.4,611.9,537.4z"/>
		</g>
		<g class="st1">
			<path class="st6" d="M635.4,540.5c-1.9,0-3.6-0.4-4.9-1.3s-2.5-2.1-3.2-3.7c-0.8-1.6-1.1-3.4-1.1-5.4v-0.4c0-2,0.4-3.9,1.1-5.4
				c0.8-1.6,1.8-2.8,3.2-3.7c1.4-0.9,3-1.4,4.9-1.4c1.9,0,3.6,0.5,4.9,1.4c1.4,0.9,2.5,2.1,3.2,3.7c0.8,1.6,1.1,3.4,1.1,5.4v0.4
				c0,2.1-0.4,3.9-1.1,5.5c-0.8,1.6-1.8,2.8-3.2,3.7S637.3,540.5,635.4,540.5z M635.4,537.5c1.2,0,2.2-0.3,3-1
				c0.8-0.7,1.4-1.6,1.8-2.7c0.4-1.1,0.6-2.4,0.6-3.9v-0.4c0-1.5-0.2-2.8-0.6-3.9c-0.4-1.1-1-2-1.8-2.7s-1.8-1-3-1
				c-1.2,0-2.2,0.3-3,1s-1.4,1.6-1.8,2.7c-0.4,1.1-0.6,2.4-0.6,3.9v0.4c0,1.5,0.2,2.8,0.6,3.9c0.4,1.1,1,2,1.8,2.7
				C633.1,537.2,634.1,537.5,635.4,537.5z"/>
			<path class="st6" d="M656.7,548v-2.4l2.9-0.5v-22.7l-3.1-0.5v-2.4h6.3l0.3,2.5c0.7-0.9,1.5-1.7,2.5-2.2c1-0.5,2.1-0.7,3.4-0.7
				c1.7,0,3.2,0.5,4.4,1.4s2.1,2.2,2.8,3.9c0.6,1.7,1,3.6,1,5.8v0.4c0,2-0.3,3.7-1,5.2c-0.6,1.5-1.6,2.7-2.8,3.5
				c-1.2,0.8-2.6,1.3-4.3,1.3c-1.3,0-2.4-0.2-3.4-0.6c-1-0.4-1.8-1.1-2.5-1.9v7.1l3.3,0.5v2.4H656.7z M668,537.5
				c1.8,0,3.1-0.7,4.1-2s1.4-3,1.4-5.1v-0.4c0-1.6-0.2-3-0.6-4.2c-0.4-1.2-1-2.2-1.8-2.8c-0.8-0.7-1.8-1-3-1c-1.1,0-2,0.2-2.8,0.7
				s-1.4,1.1-1.9,2v10.1c0.5,0.9,1.1,1.5,1.8,2C666,537.3,666.9,537.5,668,537.5z"/>
			<path class="st6" d="M686.8,540.5c-2.2,0-3.8-0.5-4.9-1.6c-1.1-1.1-1.7-2.5-1.7-4.4c0-1.3,0.4-2.5,1.1-3.4c0.7-1,1.8-1.7,3.1-2.3
				c1.4-0.5,3-0.8,4.9-0.8h3.7v-2c0-1.2-0.4-2.2-1.1-2.9c-0.8-0.7-1.8-1-3.2-1c-0.9,0-1.6,0.1-2.3,0.3c-0.6,0.2-1.2,0.5-1.7,0.9
				l-0.4,2.9h-2.9v-4.7c0.9-0.8,2-1.3,3.3-1.7s2.6-0.6,4.1-0.6c2.5,0,4.5,0.6,5.9,1.8c1.4,1.2,2.1,2.9,2.1,5.1v10c0,0.3,0,0.5,0,0.8
				c0,0.3,0,0.5,0,0.8l2,0.2v2.4h-5.4c-0.1-0.6-0.2-1.1-0.3-1.5c-0.1-0.4-0.1-0.9-0.1-1.3c-0.7,0.9-1.6,1.7-2.7,2.3
				C689.2,540.2,688,540.5,686.8,540.5z M687.4,537.3c1.2,0,2.4-0.3,3.4-0.9c1-0.6,1.8-1.3,2.2-2.2v-3.7h-3.8c-1.7,0-3,0.4-3.9,1.2
				s-1.3,1.8-1.3,2.8c0,0.9,0.3,1.6,0.8,2.1C685.4,537.1,686.2,537.3,687.4,537.3z"/>
		</g>
		<g class="st1">
			<path class="st6" d="M701.7,540.1v-2.4l3.1-0.5v-14.8l-3.1-0.5v-2.4h6.5l0.3,2.6l0,0.4c0.6-1.1,1.3-1.9,2.2-2.5
				c0.9-0.6,1.8-0.9,3-0.9c0.4,0,0.8,0,1.2,0.1s0.7,0.1,0.9,0.2l-0.5,3.5l-2.6-0.2c-1-0.1-1.8,0.2-2.5,0.7c-0.7,0.5-1.2,1.2-1.6,2.1
				v11.7l3.1,0.5v2.4H701.7z"/>
		</g>
		<g class="st1">
			<path class="st6" d="M726,540.4c-1.5,0-2.7-0.4-3.6-1.3c-0.9-0.9-1.3-2.3-1.3-4.3v-12.6h-3.3v-2.8h3.3v-5h3.8v5h4.5v2.8h-4.5
				v12.6c0,1,0.2,1.7,0.6,2.2c0.4,0.5,0.9,0.7,1.6,0.7c0.4,0,0.9,0,1.5-0.1c0.5-0.1,1-0.2,1.3-0.2l0.5,2.5c-0.5,0.2-1.2,0.3-2,0.4
				S726.7,540.4,726,540.4z"/>
			<path class="st6" d="M732.5,540.1v-2.4l3.1-0.5v-14.8l-3.1-0.5v-2.4h6.9v17.7l3.1,0.5v2.4H732.5z M735.4,514.3v-4h4v4H735.4z"/>
			<path class="st6" d="M754.5,540.5c-1.9,0-3.5-0.4-4.9-1.3s-2.5-2.1-3.2-3.6s-1.1-3.4-1.1-5.4v-0.8c0-2,0.4-3.7,1.1-5.3
				s1.8-2.8,3.2-3.7c1.4-0.9,3-1.4,5-1.4c1.7,0,3.1,0.3,4.4,0.8c1.3,0.5,2.3,1.3,3.2,2.3l0.1,5h-2.9l-0.6-3.6
				c-0.4-0.4-1-0.8-1.6-1.1c-0.6-0.3-1.4-0.4-2.3-0.4c-1.1,0-2.1,0.3-3,1c-0.8,0.7-1.5,1.5-2,2.7c-0.5,1.1-0.7,2.3-0.7,3.7v0.8
				c0,1.5,0.2,2.8,0.7,3.9c0.4,1.1,1.1,2,1.9,2.6s1.8,0.9,2.9,0.9c1.3,0,2.3-0.4,3.2-1.1c0.8-0.7,1.4-1.7,1.5-2.9h3.4l0,0.1
				c-0.1,1.2-0.4,2.3-1.1,3.3c-0.6,1-1.5,1.9-2.7,2.5S756.2,540.5,754.5,540.5z"/>
			<path class="st6" d="M765.4,540.1v-2.4l3.1-0.5v-14.8l-3.1-0.5v-2.4h6.9v17.7l3.1,0.5v2.4H765.4z M768.3,514.3v-4h4v4H768.3z"/>
			<path class="st6" d="M777.4,548v-2.4l2.9-0.5v-22.7l-3.1-0.5v-2.4h6.3l0.3,2.5c0.7-0.9,1.5-1.7,2.5-2.2c1-0.5,2.1-0.7,3.4-0.7
				c1.7,0,3.2,0.5,4.4,1.4s2.1,2.2,2.8,3.9c0.6,1.7,1,3.6,1,5.8v0.4c0,2-0.3,3.7-1,5.2c-0.6,1.5-1.6,2.7-2.8,3.5
				c-1.2,0.8-2.6,1.3-4.3,1.3c-1.3,0-2.4-0.2-3.4-0.6c-1-0.4-1.8-1.1-2.5-1.9v7.1l3.3,0.5v2.4H777.4z M788.8,537.5
				c1.8,0,3.1-0.7,4.1-2s1.4-3,1.4-5.1v-0.4c0-1.6-0.2-3-0.6-4.2c-0.4-1.2-1-2.2-1.8-2.8c-0.8-0.7-1.8-1-3-1c-1.1,0-2,0.2-2.8,0.7
				s-1.4,1.1-1.9,2v10.1c0.5,0.9,1.1,1.5,1.8,2C786.7,537.3,787.6,537.5,788.8,537.5z"/>
			<path class="st6" d="M807.6,540.5c-2.2,0-3.8-0.5-4.9-1.6c-1.1-1.1-1.7-2.5-1.7-4.4c0-1.3,0.4-2.5,1.1-3.4c0.7-1,1.8-1.7,3.1-2.3
				c1.4-0.5,3-0.8,4.9-0.8h3.7v-2c0-1.2-0.4-2.2-1.1-2.9c-0.8-0.7-1.8-1-3.2-1c-0.9,0-1.6,0.1-2.3,0.3c-0.6,0.2-1.2,0.5-1.7,0.9
				L805,526h-2.9v-4.7c0.9-0.8,2-1.3,3.3-1.7s2.6-0.6,4.1-0.6c2.5,0,4.5,0.6,5.9,1.8c1.4,1.2,2.1,2.9,2.1,5.1v10c0,0.3,0,0.5,0,0.8
				c0,0.3,0,0.5,0,0.8l2,0.2v2.4h-5.4c-0.1-0.6-0.2-1.1-0.3-1.5c-0.1-0.4-0.1-0.9-0.1-1.3c-0.7,0.9-1.6,1.7-2.7,2.3
				C810,540.2,808.8,540.5,807.6,540.5z M808.1,537.3c1.2,0,2.4-0.3,3.4-0.9c1-0.6,1.8-1.3,2.2-2.2v-3.7h-3.8c-1.7,0-3,0.4-3.9,1.2
				s-1.3,1.8-1.3,2.8c0,0.9,0.3,1.6,0.8,2.1C806.1,537.1,807,537.3,808.1,537.3z"/>
		</g>
		<g class="st1">
			<path class="st6" d="M822.5,540.1v-2.4l3.1-0.5v-14.8l-3.1-0.5v-2.4h6.5l0.3,3.1c0.7-1.1,1.6-1.9,2.6-2.6s2.2-0.9,3.5-0.9
				c2.2,0,4,0.7,5.2,2s1.8,3.3,1.8,6.1v10.1l3.1,0.5v2.4h-10v-2.4l3.1-0.5v-10c0-1.8-0.4-3.1-1.1-3.9c-0.7-0.8-1.8-1.1-3.3-1.1
				c-1.1,0-2,0.3-2.9,0.8s-1.5,1.2-2,2.1v12.1l3.1,0.5v2.4H822.5z"/>
		</g>
		<g class="st1">
			<path class="st6" d="M854.7,540.4c-1.5,0-2.7-0.4-3.6-1.3c-0.9-0.9-1.3-2.3-1.3-4.3v-12.6h-3.3v-2.8h3.3v-5h3.8v5h4.5v2.8h-4.5
				v12.6c0,1,0.2,1.7,0.6,2.2c0.4,0.5,0.9,0.7,1.6,0.7c0.4,0,0.9,0,1.5-0.1c0.5-0.1,1-0.2,1.3-0.2l0.5,2.5c-0.5,0.2-1.2,0.3-2,0.4
				C856.2,540.3,855.4,540.4,854.7,540.4z"/>
		</g>
		<g class="st1">
			<path class="st6" d="M870.4,540.5c-1.9,0-3.6-0.4-5-1.3s-2.5-2.1-3.3-3.6s-1.2-3.4-1.2-5.4v-0.8c0-2,0.4-3.7,1.2-5.3
				s1.9-2.8,3.2-3.7s2.8-1.3,4.4-1.3c1.9,0,3.4,0.4,4.7,1.1c1.3,0.8,2.2,1.8,2.8,3.2s1,3,1,4.9v2.4h-13.4l-0.1,0.1
				c0,1.3,0.3,2.5,0.7,3.5s1.1,1.8,1.9,2.4c0.8,0.6,1.8,0.9,3,0.9c1.3,0,2.4-0.2,3.4-0.5c1-0.4,1.8-0.9,2.5-1.5l1.5,2.4
				c-0.7,0.7-1.7,1.3-2.9,1.8C873.6,540.2,872.1,540.5,870.4,540.5z M865,527.7h9.5v-0.5c0-1-0.2-1.9-0.5-2.7
				c-0.4-0.8-0.9-1.4-1.6-1.9c-0.7-0.5-1.6-0.7-2.6-0.7c-0.8,0-1.6,0.2-2.3,0.7c-0.7,0.5-1.3,1.2-1.7,2
				C865.4,525.5,865.1,526.5,865,527.7L865,527.7z"/>
		</g>
		<g class="st1">
			<path class="st6" d="M882.1,540.1v-5.5h6.7v5.5H882.1z"/>
		</g>
	</g>
	<g id="line">
		<rect x="15.9" y="346.2" class="st2" width="1248.5" height="2.1"/>
		<rect x="161.6" y="253" class="st2" width="2.2" height="95.8"/>
	</g>
	<g id="marker">
		<circle class="st6" cx="165.9" cy="269.6" r="24.9"/>
		<path class="st4" d="M165.9,296.6c-14.9,0-27-12.1-27-27s12.1-27,27-27s27,12.1,27,27C192.9,284.5,180.8,296.6,165.9,296.6z
			 M165.9,246.8c-12.6,0-22.9,10.2-22.9,22.9s10.2,22.9,22.9,22.9s22.9-10.2,22.9-22.9S178.5,246.8,165.9,246.8z"/>
	</g>
</g>
</svg>
