<?xml version="1.0" encoding="utf-8"?>
<!-- Generator: Adobe Illustrator 22.0.1, SVG Export Plug-In . SVG Version: 6.00 Build 0)  -->
<svg version="1.1" id="Camada_1" xmlns="http://www.w3.org/2000/svg" xmlns:xlink="http://www.w3.org/1999/xlink" x="0px" y="0px"
	 viewBox="0 0 283.5 226.8" style="enable-background:new 0 0 283.5 226.8;" xml:space="preserve">
<style type="text/css">
	.st0{opacity:0.2;}
	.st1{fill:#FFFFFF;}
	.st2{fill:#E25F07;}
</style>
<g class="st0">
	
		<image style="overflow:visible;" width="1027" height="1027" xlink:href="46D260817CC67462.png"  transform="matrix(0.24 0 0 0.24 18.48 -9.84)">
	</image>
</g>
<circle class="st1" cx="141.7" cy="113.4" r="87.2"/>
<g>
	<path class="st2" d="M187.3,151.1c-7.8-7.8-15.6-15.6-23.4-23.4c-0.1-0.1-0.2-0.2-0.3-0.3c0.1-0.1,0.1-0.1,0.2-0.1
		c4.6-2.7,9.1-5.4,13.7-8.1c2.1-1.2,4.2-2.5,6.3-3.7c1.5-0.9,2.1-2.5,1.7-4.1c-0.4-1.3-1.2-2-2.4-2.5c-8.9-3.5-17.8-7.1-26.7-10.6
		c-10.2-4.1-20.4-8.1-30.7-12.2c-4.9-1.9-9.8-3.9-14.7-5.8c-0.7-0.3-1.3-0.4-2-0.2c-2.3,0.4-3.5,2.7-2.7,5c1.2,3,2.4,6,3.6,9
		c8.4,21.1,16.7,42.1,25.1,63.2c0.5,1.4,1.5,2.2,3,2.4c1.6,0.2,2.7-0.5,3.5-1.9c3.3-5.6,6.6-11.1,9.9-16.7c0.7-1.2,1.4-2.4,2.1-3.6
		c0.1,0.1,0.2,0.3,0.3,0.4c3.9,3.9,7.8,7.8,11.7,11.7c3.9,3.9,7.8,7.8,11.7,11.7c0.6,0.6,1.4,1.2,2.2,1.4c0.5,0.1,1,0.2,1.5,0.3
		c0.1,0,0.2,0,0.3,0c0.1,0,0.2-0.1,0.4-0.1c1.2-0.1,2.2-0.6,3.1-1.4c1-0.9,1.9-1.9,2.9-2.9c0.9-0.9,1.3-2,1.4-3.2
		C189.1,153.7,188.5,152.3,187.3,151.1z M122.6,95c0.2-0.8,0.9-1.4,1.8-1.4c0.2,0,0.4,0.1,0.7,0.2c1.9,0.7,3.7,1.5,5.6,2.2
		c0.8,0.3,1.2,1.1,1.1,1.9c-0.1,0.8-0.8,1.4-1.6,1.5c-0.3,0-0.6,0-0.8-0.1c-1.9-0.7-3.8-1.5-5.7-2.2C122.9,96.7,122.5,95.9,122.6,95
		z M135.5,100.2c0.2-0.8,0.9-1.4,1.8-1.4c0.3,0,0.6,0.1,0.8,0.2c6.7,2.7,13.4,5.3,20.1,8c2,0.8,3.9,1.6,5.9,2.3
		c0.8,0.3,1.2,0.9,1.2,1.7c0,1.3-1.3,2.1-2.5,1.6c-2-0.8-4-1.6-6-2.4c-6.7-2.7-13.4-5.3-20.1-8C135.8,101.9,135.3,101.1,135.5,100.2
		z M182,112.4c-0.7,0.4-1.4,0.8-2.1,1.2C180.6,113.2,181.3,112.8,182,112.4c-12.1-4.8-24.1-9.6-36.2-14.4
		C157.9,102.8,170,107.6,182,112.4z M180.8,159.3c-0.4-0.1-0.7-0.3-1-0.6c-7.9-7.9-15.7-15.7-23.6-23.6c7.8,7.9,15.7,15.7,23.6,23.6
		C180.1,159,180.4,159.2,180.8,159.3c0.1,0,0.2,0,0.4,0C181,159.4,180.9,159.3,180.8,159.3z"/>
	<path class="st2" d="M99.3,70.9c-0.3-0.3-0.7-0.5-1.4-0.5c-0.5,0-1.2,0.4-1.5,1.1c-0.3,0.7-0.2,1.4,0.4,2c0.9,0.9,1.7,1.8,2.6,2.6
		c0.7,0.7,1.8,0.7,2.5,0c0.7-0.7,0.7-1.8,0-2.5C101,72.7,100.1,71.8,99.3,70.9z"/>
	<path class="st2" d="M110.3,73.3c1,0,1.7-0.8,1.8-1.8c0-0.6,0-1.2,0-1.8c0-0.6,0-1.2,0-1.9c0-1-0.8-1.8-1.8-1.8
		c-1,0-1.8,0.8-1.8,1.8c0,1.2,0,2.5,0,3.7C108.5,72.6,109.3,73.4,110.3,73.3z"/>
	<path class="st2" d="M98.8,85.6c0.4-0.6,0.5-1.2,0.2-1.9c-0.3-0.7-0.9-1-1.7-1c-1.2,0-2.4,0-3.6,0c-0.1,0-0.2,0-0.4,0
		c-1,0.2-1.6,1-1.5,1.9c0.1,0.9,0.8,1.6,1.8,1.6c0.6,0,1.2,0,1.9,0c0,0,0,0,0,0c0.6,0,1.3,0,1.9,0C98,86.2,98.4,86,98.8,85.6z"/>
	<path class="st2" d="M101.4,92.5c-0.7-0.3-1.4-0.2-1.9,0.3c-1,0.9-1.9,1.8-2.8,2.8c-0.7,0.7-0.6,1.8,0.1,2.4c0.7,0.7,1.7,0.7,2.4,0
		c0.9-0.9,1.8-1.8,2.7-2.7c0.3-0.3,0.5-0.8,0.5-1.4C102.4,93.4,102,92.8,101.4,92.5z"/>
	<path class="st2" d="M121,76.2c1-0.9,2-1.9,2.9-2.9c0.5-0.5,0.5-1.2,0.2-1.9c-0.3-0.7-0.9-1-1.6-1c-0.5,0-0.9,0.1-1.2,0.4
		c-1,0.9-1.9,1.9-2.8,2.8c-0.6,0.7-0.6,1.7,0.1,2.4C119.3,76.7,120.4,76.8,121,76.2z"/>
</g>
</svg>
