<?xml version="1.0" encoding="UTF-8"?>
<svg id="aula1-info1" xmlns="http://www.w3.org/2000/svg" version="1.1" viewBox="0 0 720 720">
  <!-- Generator: Adobe Illustrator 29.7.1, SVG Export Plug-In . SVG Version: 2.1.1 Build 8)  -->
  <defs>
    <style>
      .st0 {
        fill: none;
      }

      .st1 {
        fill: #34b2e4;
      }

      .st2 {
        fill: #0a4366;
      }

      .st3 {
        fill: #540a9b;
      }

      .st4 {
        fill: #64d1da;
      }

      .st5 {
        fill: #db4c05;
      }

      .st6 {
        fill: #99077a;
      }

      .st7 {
        fill: #c70596;
      }

      .st8 {
        fill: #065381;
      }

      .st9 {
        fill: #fff;
      }

      .st10 {
        fill: #0b98d0;
      }

      .st11 {
        fill: #7206c6;
      }

      .st12 {
        fill: #e34856;
      }

      .st13 {
        fill: #2cc6d2;
      }

      .st14 {
        fill: #004799;
      }

      .st15 {
        fill: #ff5e00;
      }

      .st16 {
        fill: #c8202f;
      }
    </style>
  </defs>
  <g id="botoes">
    <g id="bt1">
      <path class="st4" d="M32.9,497.8c32.6,85.9,95.5,151.7,172.2,189.6l60.7-128.7c-43.7-22.3-79.7-60-99-109l-133.9,48.1Z"/>
      <path class="st13" d="M236.5,502.3l6.4-20.6-21,4.8c-11.2-13.7-20.6-29.4-27.4-46.7l-27.6,9.9c19.2,49,55.2,86.7,99,109l12.5-26.5c-15.2-7.8-29.3-17.9-41.8-29.8Z"/>
      <g>
        <rect class="st0" x="129.4" y="542.6" width="80.3" height="51.8"/>
        <path class="st9" d="M144.3,582.2c-3.8,0-6.8-1.2-9-3.7s-3.3-6.2-3.3-11v-8c0-4.8,1.1-8.5,3.3-11,2.2-2.5,5.2-3.8,9-3.8s6.8,1.3,9,3.8c2.2,2.5,3.3,6.2,3.3,11v8c0,4.8-1.1,8.5-3.3,11-2.2,2.5-5.2,3.7-9,3.7ZM144.3,576.6c1.6,0,2.9-.7,3.7-2,.9-1.3,1.3-3.5,1.3-6.4v-9.5c0-2.9-.4-5-1.3-6.4-.9-1.3-2.1-2-3.8-2s-2.9.7-3.8,2c-.9,1.3-1.3,3.5-1.3,6.4v9.5c0,2.9.4,5.1,1.3,6.4s2.1,2,3.8,2Z"/>
        <path class="st9" d="M160.4,581.7v-4.4l6.2-.8v-24.7h-6.2v-4.2l13.5-2.5v31.4l6.2.8v4.4h-19.6Z"/>
      </g>
    </g>
    <g id="bt2">
      <path class="st1" d="M28.6,485.9l133.9-48.1c-16.3-50-12.5-102,7.1-147l-128.7-60.7C5.8,308.1-.9,398.9,28.6,485.9Z"/>
      <path class="st10" d="M182.5,356.3c1.8-18.4,6.5-36.2,13.6-53l-26.5-12.5c-19.6,45-23.4,97-7.1,147l27.6-9.9c-5.3-16.6-8-33.4-8.4-50l19.1-10.1-18.3-11.5Z"/>
      <g>
        <rect class="st0" x="62.7" y="343.5" width="80.3" height="51.8"/>
        <path class="st9" d="M77.5,383.2c-3.8,0-6.8-1.2-9-3.7-2.2-2.5-3.3-6.2-3.3-11v-8c0-4.8,1.1-8.5,3.3-11,2.2-2.5,5.2-3.8,9-3.8s6.8,1.3,9,3.8c2.2,2.5,3.3,6.2,3.3,11v8c0,4.8-1.1,8.5-3.3,11-2.2,2.5-5.2,3.7-9,3.7ZM77.5,377.5c1.6,0,2.9-.7,3.7-2,.9-1.3,1.3-3.5,1.3-6.4v-9.5c0-2.9-.4-5-1.3-6.4-.9-1.3-2.1-2-3.8-2s-2.9.7-3.8,2c-.9,1.3-1.3,3.5-1.3,6.4v9.5c0,2.9.4,5.1,1.3,6.4s2.1,2,3.8,2Z"/>
        <path class="st9" d="M93.9,382.6v-4.8l11.8-12.7c1.2-1.4,2.1-2.6,2.8-3.5.7-1,1.2-1.9,1.5-2.7.3-.8.4-1.7.4-2.5,0-1.4-.4-2.6-1.2-3.6-.8-1-2-1.5-3.6-1.5s-3,.5-3.8,1.6c-.9,1.1-1.3,2.6-1.3,4.5h-7.1v-.2c-.1-2.2.4-4.2,1.4-6,1-1.8,2.4-3.2,4.3-4.2,1.9-1,4.1-1.6,6.7-1.6s4.7.4,6.5,1.3,3.2,2.1,4.1,3.7c1,1.6,1.5,3.5,1.5,5.6s-.3,2.8-.8,4.1c-.5,1.3-1.3,2.6-2.4,4-1.1,1.4-2.5,3-4.3,4.9l-7.1,7.6h0c0,.1,9.5.1,9.5.1l.4-3.5h5.7v9.1h-24.9Z"/>
      </g>
    </g>
    <g id="bt3">
      <path class="st8" d="M175,279.4c22.3-43.7,60-79.7,108.9-98.9l-48.1-133.9c-85.9,32.6-151.6,95.5-189.5,172.2l128.7,60.7Z"/>
      <path class="st2" d="M283.9,180.5c-48.9,19.2-86.6,55.2-108.9,98.9l26.5,12.5c7.6-14.8,17.4-28.6,29-40.9l21,6.5-4.9-21.6c13.9-11.4,29.7-20.9,47.2-27.9l-9.9-27.6Z"/>
      <g>
        <rect class="st0" x="149.3" y="152.8" width="80.3" height="51.8"/>
        <path class="st9" d="M164.1,192.4c-3.8,0-6.8-1.2-9-3.7-2.2-2.5-3.3-6.2-3.3-11v-8c0-4.8,1.1-8.5,3.3-11,2.2-2.5,5.2-3.8,9-3.8s6.8,1.3,9,3.8c2.2,2.5,3.3,6.2,3.3,11v8c0,4.8-1.1,8.5-3.3,11-2.2,2.5-5.2,3.7-9,3.7ZM164.1,186.8c1.6,0,2.9-.7,3.7-2,.9-1.3,1.3-3.5,1.3-6.4v-9.5c0-2.9-.4-5-1.3-6.4-.9-1.3-2.1-2-3.8-2s-2.9.7-3.8,2c-.9,1.3-1.3,3.5-1.3,6.4v9.5c0,2.9.4,5.1,1.3,6.4s2.1,2,3.8,2Z"/>
        <path class="st9" d="M192.5,192.4c-2.3,0-4.4-.4-6.4-1.2-1.9-.8-3.4-2-4.5-3.6-1.1-1.6-1.6-3.5-1.6-5.7v-.2h7.1c0,1,.2,1.8.7,2.6.4.8,1,1.4,1.8,1.8.8.4,1.7.7,2.8.7,1.7,0,3-.5,4-1.4,1-.9,1.5-2.3,1.5-3.9s-.5-3-1.5-4c-1-1-2.4-1.4-4.4-1.4h-4v-5.5h4.1c1.2,0,2.1-.2,2.9-.6s1.3-1,1.7-1.7c.4-.8.6-1.6.6-2.7,0-1.6-.4-2.8-1.3-3.7-.8-.9-2-1.3-3.6-1.3s-1.8.2-2.5.6-1.3.9-1.7,1.6c-.4.7-.6,1.5-.6,2.4h-7.1v-.2c-.1-1.9.4-3.7,1.4-5.2,1-1.5,2.4-2.7,4.2-3.6,1.8-.9,3.9-1.3,6.3-1.3,3.7,0,6.7.9,8.9,2.7,2.2,1.8,3.4,4.3,3.4,7.6s-.5,3.2-1.4,4.6c-.9,1.4-2.4,2.5-4.2,3.4,2,.7,3.6,1.8,4.6,3.3,1.1,1.5,1.6,3.2,1.6,5.2s-.6,4.1-1.7,5.7c-1.1,1.6-2.6,2.8-4.5,3.7-1.9.9-4.1,1.3-6.6,1.3Z"/>
      </g>
    </g>
    <g id="bt4">
      <path class="st11" d="M295.8,176.2c50-16.3,102-12.5,147,7l60.7-128.7c-78-35-168.7-41.7-255.7-12.2l48.1,133.9Z"/>
      <path class="st3" d="M442.7,183.2c-45-19.6-97-23.3-147-7l9.9,27.6c16.3-5.2,32.8-8,49.1-8.4l10.6,20.1,12.2-19.3c18.3,1.8,36,6.4,52.7,13.6l12.5-26.5Z"/>
      <g>
        <rect class="st0" x="344" y="77.5" width="80.3" height="51.8"/>
        <path class="st9" d="M358.8,117.2c-3.8,0-6.8-1.2-9-3.7-2.2-2.5-3.3-6.2-3.3-11v-8c0-4.8,1.1-8.5,3.3-11,2.2-2.5,5.2-3.8,9-3.8s6.8,1.3,9,3.8c2.2,2.5,3.3,6.2,3.3,11v8c0,4.8-1.1,8.5-3.3,11-2.2,2.5-5.2,3.7-9,3.7ZM358.8,111.5c1.6,0,2.9-.7,3.7-2,.9-1.3,1.3-3.5,1.3-6.4v-9.5c0-2.9-.4-5-1.3-6.4-.9-1.3-2.1-2-3.8-2s-2.9.7-3.8,2c-.9,1.3-1.3,3.5-1.3,6.4v9.5c0,2.9.4,5.1,1.3,6.4s2.1,2,3.8,2Z"/>
        <path class="st9" d="M385.6,116.6v-4.4l3.9-.8v-3.6h-14.9l-.4-3.6,15.2-24.2h7.4v22.9h4.1v4.9h-4.1v3.6l3.9.8v4.4h-15.1ZM381.1,103h8.4v-13.2h-.2c0,0-.6,1-.6,1l-7.7,12.2Z"/>
      </g>
    </g>
    <g id="bt5">
      <path class="st7" d="M454.1,188.6c43.7,22.2,79.7,59.9,99,108.9l133.9-48.1c-32.6-85.9-95.6-151.6-172.2-189.5l-60.7,128.7Z"/>
      <path class="st6" d="M553.2,297.5c-19.3-48.9-55.3-86.6-99-108.9l-12.5,26.5c14.8,7.6,28.6,17.3,40.8,28.9l-6.9,22.2,22.7-5.2c11.1,13.7,20.4,29.2,27.2,46.3l27.6-9.9Z"/>
      <g>
        <rect class="st0" x="532.4" y="172.6" width="80.3" height="51.8"/>
        <path class="st9" d="M547.2,212.2c-3.8,0-6.8-1.2-9-3.7-2.2-2.5-3.3-6.2-3.3-11v-8c0-4.8,1.1-8.5,3.3-11,2.2-2.5,5.2-3.8,9-3.8s6.8,1.3,9,3.8c2.2,2.5,3.3,6.2,3.3,11v8c0,4.8-1.1,8.5-3.3,11-2.2,2.5-5.2,3.7-9,3.7ZM547.2,206.6c1.6,0,2.9-.7,3.7-2,.9-1.3,1.3-3.5,1.3-6.4v-9.5c0-2.9-.4-5-1.3-6.4-.9-1.3-2.1-2-3.8-2s-2.9.7-3.8,2c-.9,1.3-1.3,3.5-1.3,6.4v9.5c0,2.9.4,5.1,1.3,6.4s2.1,2,3.8,2Z"/>
        <path class="st9" d="M575.5,212.2c-2.2,0-4.3-.4-6.1-1.2s-3.3-2-4.4-3.5-1.6-3.4-1.6-5.5h0c0-.1,7-.5,7-.5,0,1.6.5,2.9,1.4,3.8.9.9,2.1,1.4,3.6,1.4s3-.6,3.8-1.8c.8-1.2,1.2-2.8,1.2-4.7s-.4-3.8-1.3-5.1-2.2-1.9-3.9-1.9-2.5.3-3.2.8c-.7.5-1.3,1.2-1.6,2.1l-6.5-.4,2.1-20.3h21v8.3h-4.5l-.7-2.5h-9.8l-1,8.4c.5-.3,1-.6,1.6-.9s1.2-.5,1.9-.6c.7-.2,1.4-.2,2.2-.2,2.3,0,4.3.4,6,1.4,1.6,1,2.9,2.4,3.8,4.2s1.3,4.1,1.3,6.6-.5,4.4-1.4,6.3-2.3,3.3-4.2,4.4c-1.8,1.1-4.1,1.6-6.7,1.6Z"/>
      </g>
    </g>
    <g id="bt6">
      <path class="st12" d="M550.5,456.4l128.7,60.7c35-78,41.7-168.8,12.2-255.8l-133.9,48.1c16.3,50,12.6,102-7,147Z"/>
      <path class="st16" d="M529.8,319.3c5.3,16.5,8.1,33.3,8.5,49.9l-20.6,10.9,19.7,12.4c-1.9,17.8-6.5,35.2-13.4,51.4l26.5,12.5c19.6-45,23.3-97,7-147l-27.6,9.9Z"/>
      <g>
        <rect class="st0" x="606.7" y="364.3" width="80.3" height="51.8"/>
        <path class="st9" d="M621.5,404c-3.8,0-6.8-1.2-9-3.7-2.2-2.5-3.3-6.2-3.3-11v-8c0-4.8,1.1-8.5,3.3-11,2.2-2.5,5.2-3.8,9-3.8s6.8,1.3,9,3.8c2.2,2.5,3.3,6.2,3.3,11v8c0,4.8-1.1,8.5-3.3,11-2.2,2.5-5.2,3.7-9,3.7ZM621.5,398.3c1.6,0,2.9-.7,3.7-2,.9-1.3,1.3-3.5,1.3-6.4v-9.5c0-2.9-.4-5-1.3-6.4-.9-1.3-2.1-2-3.8-2s-2.9.7-3.8,2c-.9,1.3-1.3,3.5-1.3,6.4v9.5c0,2.9.4,5.1,1.3,6.4s2.1,2,3.8,2Z"/>
        <path class="st9" d="M651.4,404c-2.6,0-4.8-.6-6.8-1.8-2-1.2-3.5-2.9-4.6-5.1s-1.7-4.9-1.7-7.9v-6.4c0-3.4.6-6.4,1.9-8.8,1.2-2.4,3-4.3,5.2-5.6,2.2-1.3,4.7-1.9,7.6-1.9s2.6.1,3.8.4c1.2.3,2.3.6,3.5,1.1l-1.3,5.3c-.9-.3-1.8-.6-2.8-.8-1-.2-2-.3-3-.3-2.4,0-4.2.8-5.5,2.4-1.2,1.6-1.9,3.9-1.9,7h0c.8-.7,1.9-1.4,3.1-1.9,1.3-.5,2.7-.7,4.2-.7,2.2,0,4.1.5,5.6,1.6,1.6,1.1,2.8,2.5,3.6,4.4.8,1.9,1.3,4,1.3,6.4s-.5,4.6-1.6,6.6c-1,1.9-2.5,3.4-4.3,4.5s-4,1.6-6.4,1.6ZM651.2,398.3c1.1,0,2-.3,2.7-1,.8-.6,1.4-1.5,1.8-2.6.4-1.1.6-2.3.6-3.6,0-2-.5-3.6-1.4-4.8-1-1.2-2.3-1.9-4.1-1.9s-1.5.1-2.1.3c-.7.2-1.3.5-1.8.8-.5.4-1,.8-1.3,1.3v2.4c0,2.9.5,5.1,1.6,6.7,1,1.6,2.4,2.3,4,2.3Z"/>
      </g>
    </g>
    <g id="bt7">
      <path class="st15" d="M437.1,561l44,135.3c80.8-27.9,151.5-85.3,194.7-166.4l-126.8-64.6c-25.2,46.2-65.7,79.1-111.9,95.7Z"/>
      <path class="st5" d="M522.8,452c-8.4,15.2-18.8,28.7-30.6,40.4l-22-7.6,4.4,22.8c-14.3,10.8-30,19.4-46.7,25.5l9.1,27.9c46.2-16.6,86.6-49.5,111.9-95.7l-26.1-13.3Z"/>
      <g>
        <rect class="st0" x="517.7" y="555.8" width="80.3" height="51.8"/>
        <path class="st9" d="M532.5,595.4c-3.8,0-6.8-1.2-9-3.7-2.2-2.5-3.3-6.2-3.3-11v-8c0-4.8,1.1-8.5,3.3-11,2.2-2.5,5.2-3.8,9-3.8s6.8,1.3,9,3.8c2.2,2.5,3.3,6.2,3.3,11v8c0,4.8-1.1,8.5-3.3,11-2.2,2.5-5.2,3.7-9,3.7ZM532.5,589.8c1.6,0,2.9-.7,3.7-2,.9-1.3,1.3-3.5,1.3-6.4v-9.5c0-2.9-.4-5-1.3-6.4-.9-1.3-2.1-2-3.8-2s-2.9.7-3.8,2c-.9,1.3-1.3,3.5-1.3,6.4v9.5c0,2.9.4,5.1,1.3,6.4s2.1,2,3.8,2Z"/>
        <path class="st9" d="M555.3,594.9l.4-3.7c.4-3.6,1.1-7,2-10.1,1-3.2,2.2-6.2,3.8-9,1.6-2.8,3.4-5.5,5.6-8h-12.9l-.3,3.6h-5.6v-9.2h25.8v5.6c-2,2.3-3.6,4.5-4.9,6.6-1.3,2.1-2.3,4.2-3.1,6.3-.8,2.1-1.4,4.3-1.9,6.6-.5,2.3-.9,4.9-1.2,7.7l-.4,3.7h-7.3Z"/>
      </g>
    </g>
  </g>
  <g>
    <rect class="st0" x="238.6" y="283" width="235.7" height="194"/>
    <path class="st14" d="M283.1,309.1v-2.9l1.7-.3,7.7-21.2h5l7.7,21.2,1.7.3v2.9h-8.3v-2.9l1.7-.3-1.1-3.3h-8.6l-1.1,3.3,1.7.3v2.9h-8.3ZM292,298.9h6.2l-2.8-8.3-.2-.7h-.1l-.3.8-2.8,8.3Z"/>
    <path class="st14" d="M316.5,309.5c-1.3,0-2.6-.1-3.8-.4-1.2-.3-2.3-.6-3.4-1.1v-5.1c0,0,3.3,0,3.3,0l.7,2.6c.4.2.8.3,1.2.5.5.1,1,.2,1.5.2,1.1,0,1.9-.2,2.3-.5.4-.4.7-.8.7-1.3s-.2-.9-.7-1.3c-.5-.4-1.4-.7-2.8-1-2.1-.4-3.7-1.1-4.7-2.1-1-.9-1.5-2.1-1.5-3.6s.3-1.9.8-2.7c.5-.8,1.3-1.5,2.3-2,1-.5,2.4-.8,4-.8s2.6.1,3.7.4,2.1.6,2.8,1v4.9s-3.3,0-3.3,0l-.5-2.4c-.3-.2-.7-.4-1.1-.5-.4-.1-.9-.2-1.4-.2-.9,0-1.5.2-2,.5-.5.3-.7.8-.7,1.3s0,.6.2.9c.2.3.5.5,1,.8.5.2,1.2.5,2.1.7,2.2.5,3.9,1.2,4.9,2,1,.9,1.5,2,1.5,3.6s-.6,3-1.8,4.1c-1.2,1-3,1.6-5.5,1.6Z"/>
    <path class="st14" d="M325.9,316.1v-2.9l2.4-.5v-18.1l-2.6-.5v-2.9h7.1l.2,2.1c.5-.8,1.2-1.4,1.9-1.8.8-.4,1.7-.6,2.7-.6s2.7.4,3.7,1.2c1,.8,1.8,1.9,2.4,3.3.6,1.4.8,3.1.8,5v.4c0,1.8-.3,3.3-.8,4.7-.6,1.3-1.3,2.4-2.4,3.1s-2.3,1.1-3.8,1.1-1.8-.2-2.6-.5c-.7-.4-1.4-.9-1.9-1.5v5.2l2.4.5v2.9h-9.6ZM336.2,305.7c1.2,0,2.2-.5,2.7-1.4.6-.9.8-2.2.8-3.8v-.4c0-1.1-.1-2.1-.4-3-.3-.9-.7-1.5-1.2-2-.5-.5-1.2-.7-2-.7s-1.3.2-1.8.5c-.5.3-.9.7-1.2,1.3v7.9c.3.5.7.9,1.2,1.2.5.3,1.1.4,1.8.4Z"/>
    <path class="st14" d="M355.6,309.5c-1.7,0-3.2-.4-4.5-1.1-1.3-.8-2.3-1.8-3-3.1s-1.1-2.9-1.1-4.6v-.7c0-1.8.3-3.4,1-4.8.7-1.4,1.6-2.5,2.8-3.3s2.7-1.2,4.3-1.2,3,.3,4.1,1,2,1.6,2.5,2.8c.6,1.2.9,2.7.9,4.4v2.7h-10.7c0,.9.3,1.6.6,2.2.3.6.8,1.1,1.4,1.5.6.4,1.3.5,2.2.5s1.7-.1,2.5-.3c.8-.2,1.5-.6,2.3-1l1.3,3c-.7.6-1.7,1.1-2.8,1.5-1.1.4-2.4.6-3.9.6ZM352.2,298.3h6v-.4c0-.7,0-1.4-.3-1.9-.2-.5-.5-.9-.9-1.2-.4-.3-1-.4-1.7-.4s-1.2.2-1.6.5c-.4.3-.8.8-1,1.4-.2.6-.4,1.3-.5,2h0Z"/>
    <path class="st14" d="M373.5,309.5c-1.7,0-3.2-.4-4.5-1.2-1.3-.8-2.2-1.9-2.9-3.2s-1-2.9-1-4.7v-.5c0-1.8.3-3.4,1-4.7.7-1.4,1.7-2.4,2.9-3.2,1.3-.8,2.7-1.2,4.4-1.2s3,.3,4.2.8c1.2.5,2.1,1.1,2.9,1.8v5.2h-3.7l-.7-3.2c-.3-.3-.6-.5-1-.7-.4-.2-.8-.3-1.3-.3-.9,0-1.6.2-2.2.7-.6.4-1,1.1-1.3,1.9-.3.8-.4,1.8-.4,3v.5c0,1.2.2,2.3.5,3,.3.8.8,1.4,1.3,1.8.5.4,1.1.6,1.8.6s1.5-.2,2.1-.7c.5-.5.9-1.1,1.1-1.9h4.2c-.2,1.4-.6,2.5-1.1,3.4-.6.9-1.4,1.7-2.4,2.2-1,.5-2.3.8-3.9.8Z"/>
    <path class="st14" d="M390.2,309.5c-1.7,0-3-.5-3.9-1.4-.9-.9-1.4-2.4-1.4-4.4v-9.2h-2.5v-3.4h2.5v-4.4h4.9v4.4h3.3v3.4h-3.3v9.2c0,.7.1,1.2.4,1.5.3.3.7.5,1.2.5s.6,0,.9,0c.3,0,.6,0,.8-.1l.4,3.5c-.5.1-1,.3-1.6.4-.6,0-1.2.1-1.7.1Z"/>
    <path class="st14" d="M403.6,309.5c-1.8,0-3.3-.4-4.6-1.2s-2.3-1.9-2.9-3.3c-.7-1.4-1-3-1-4.8v-.4c0-1.8.3-3.4,1-4.8.7-1.4,1.7-2.5,2.9-3.3,1.3-.8,2.8-1.2,4.6-1.2s3.3.4,4.6,1.2c1.3.8,2.2,1.9,2.9,3.2.7,1.4,1,3,1,4.8v.4c0,1.8-.3,3.4-1,4.8-.7,1.4-1.7,2.5-2.9,3.3-1.3.8-2.8,1.2-4.6,1.2ZM403.6,305.7c.8,0,1.5-.2,2.1-.7.5-.5.9-1.1,1.2-1.9.3-.8.4-1.8.4-2.9v-.4c0-1.1-.1-2-.4-2.8-.3-.8-.7-1.5-1.2-1.9s-1.2-.7-2.1-.7-1.5.2-2.1.7-.9,1.1-1.2,1.9c-.2.8-.4,1.8-.4,2.8v.4c0,1.1.1,2.1.4,2.9.3.8.6,1.5,1.2,1.9s1.2.7,2.1.7Z"/>
    <path class="st14" d="M422,309.5c-1.3,0-2.6-.1-3.8-.4-1.2-.3-2.3-.6-3.4-1.1v-5.1s3.3,0,3.3,0l.7,2.6c.4.2.8.3,1.2.5.5.1,1,.2,1.5.2,1.1,0,1.9-.2,2.3-.5.4-.4.7-.8.7-1.3s-.2-.9-.7-1.3c-.5-.4-1.4-.7-2.8-1-2.1-.4-3.7-1.1-4.7-2.1-1-.9-1.5-2.1-1.5-3.6s.3-1.9.8-2.7c.5-.8,1.3-1.5,2.3-2,1-.5,2.4-.8,4-.8s2.6.1,3.7.4,2.1.6,2.8,1v4.9s-3.3,0-3.3,0l-.5-2.4c-.3-.2-.7-.4-1.1-.5-.4-.1-.9-.2-1.4-.2-.9,0-1.5.2-2,.5-.5.3-.7.8-.7,1.3s0,.6.2.9c.2.3.5.5,1,.8.5.2,1.2.5,2.1.7,2.2.5,3.9,1.2,4.9,2,1,.9,1.5,2,1.5,3.6s-.6,3-1.8,4.1-3,1.6-5.5,1.6Z"/>
    <path class="st14" d="M257.7,350.5c-1.7,0-3.2-.4-4.5-1.1-1.3-.8-2.3-1.8-3-3.1s-1.1-2.9-1.1-4.6v-.7c0-1.8.3-3.4,1-4.8.7-1.4,1.6-2.5,2.8-3.3,1.2-.8,2.7-1.2,4.3-1.2s3,.3,4.1,1c1.1.6,2,1.6,2.5,2.8.6,1.2.9,2.7.9,4.4v2.7h-10.7c0,.9.3,1.6.6,2.2s.8,1.1,1.4,1.5c.6.4,1.3.5,2.2.5s1.7-.1,2.5-.3c.8-.2,1.5-.6,2.3-1l1.3,3c-.7.6-1.7,1.1-2.8,1.5-1.1.4-2.4.6-3.9.6ZM254.2,339.4h6v-.4c0-.7,0-1.4-.3-1.9s-.5-.9-.9-1.2c-.4-.3-1-.4-1.7-.4s-1.2.2-1.6.5c-.4.3-.8.8-1,1.4-.3.6-.4,1.3-.5,2h0Z"/>
    <path class="st14" d="M274.8,350.5c-1.3,0-2.6-.1-3.8-.4-1.2-.3-2.3-.6-3.4-1.1v-5.1c0,0,3.3,0,3.3,0l.7,2.6c.4.2.8.3,1.2.5.5.1,1,.2,1.5.2,1.1,0,1.9-.2,2.3-.5.4-.4.7-.8.7-1.3s-.2-.9-.7-1.3c-.5-.4-1.4-.7-2.8-1-2.1-.4-3.7-1.1-4.7-2.1-1-.9-1.5-2.1-1.5-3.6s.3-1.9.8-2.7c.5-.8,1.3-1.5,2.3-2,1-.5,2.4-.8,4-.8s2.6.1,3.7.4,2.1.6,2.8,1v4.9s-3.3,0-3.3,0l-.5-2.4c-.3-.2-.7-.4-1.1-.5-.4-.1-.9-.2-1.4-.2-.9,0-1.5.2-2,.5-.5.3-.7.8-.7,1.3s0,.6.2.9c.2.3.5.5,1,.8.5.2,1.2.5,2.1.7,2.2.5,3.9,1.2,4.9,2,1,.9,1.5,2,1.5,3.6s-.6,3-1.8,4.1c-1.2,1-3,1.6-5.5,1.6Z"/>
    <path class="st14" d="M292.1,350.5c-1.3,0-2.6-.1-3.8-.4-1.2-.3-2.3-.6-3.4-1.1v-5.1c0,0,3.3,0,3.3,0l.7,2.6c.4.2.8.3,1.2.5.5.1,1,.2,1.5.2,1.1,0,1.9-.2,2.3-.5.4-.4.7-.8.7-1.3s-.2-.9-.7-1.3c-.5-.4-1.4-.7-2.8-1-2.1-.4-3.7-1.1-4.7-2.1-1-.9-1.5-2.1-1.5-3.6s.3-1.9.8-2.7c.5-.8,1.3-1.5,2.3-2,1-.5,2.4-.8,4-.8s2.6.1,3.7.4,2.1.6,2.8,1v4.9s-3.3,0-3.3,0l-.5-2.4c-.3-.2-.7-.4-1.1-.5-.4-.1-.9-.2-1.4-.2-.9,0-1.5.2-2,.5-.5.3-.7.8-.7,1.3s0,.6.2.9c.2.3.5.5,1,.8.5.2,1.2.5,2.1.7,2.2.5,3.9,1.2,4.9,2,1,.9,1.5,2,1.5,3.6s-.6,3-1.8,4.1c-1.2,1-3,1.6-5.5,1.6Z"/>
    <path class="st14" d="M310.3,350.5c-1.7,0-3.2-.4-4.5-1.1-1.3-.8-2.3-1.8-3-3.1s-1.1-2.9-1.1-4.6v-.7c0-1.8.3-3.4,1-4.8.7-1.4,1.6-2.5,2.8-3.3,1.2-.8,2.7-1.2,4.3-1.2s3,.3,4.1,1c1.1.6,2,1.6,2.5,2.8.6,1.2.9,2.7.9,4.4v2.7h-10.7c0,.9.3,1.6.6,2.2s.8,1.1,1.4,1.5c.6.4,1.3.5,2.2.5s1.7-.1,2.5-.3c.8-.2,1.5-.6,2.3-1l1.3,3c-.7.6-1.7,1.1-2.8,1.5-1.1.4-2.4.6-3.9.6ZM306.8,339.4h6v-.4c0-.7,0-1.4-.3-1.9s-.5-.9-.9-1.2c-.4-.3-1-.4-1.7-.4s-1.2.2-1.6.5c-.4.3-.8.8-1,1.4-.3.6-.4,1.3-.5,2h0Z"/>
    <path class="st14" d="M319.5,350.2v-2.9l2.3-.5v-11.2l-2.6-.5v-2.9h7.1l.2,2.6c.6-.9,1.3-1.6,2.2-2.2.9-.5,1.9-.8,3-.8,1.8,0,3.2.6,4.2,1.7s1.5,2.9,1.5,5.4v7.9l2.3.5v2.9h-9.3v-2.9l2.1-.5v-7.9c0-1.2-.2-2.1-.7-2.6-.5-.5-1.2-.8-2.1-.8s-1.3.1-1.8.4-1,.7-1.3,1.3v9.5l2,.5v2.9h-9.2Z"/>
    <path class="st14" d="M349.8,350.5c-1.7,0-3.2-.4-4.5-1.2-1.3-.8-2.2-1.9-2.9-3.2s-1-2.9-1-4.7v-.5c0-1.8.3-3.4,1-4.7.7-1.4,1.7-2.4,2.9-3.2,1.3-.8,2.7-1.2,4.4-1.2s3,.3,4.2.8c1.2.5,2.1,1.1,2.9,1.8v5.2h-3.7l-.7-3.2c-.3-.3-.6-.5-1-.7-.4-.2-.8-.3-1.3-.3-.9,0-1.6.2-2.2.7-.6.4-1,1.1-1.3,1.9-.3.8-.4,1.8-.4,3v.5c0,1.2.2,2.3.5,3,.3.8.8,1.4,1.3,1.8.5.4,1.1.6,1.8.6s1.5-.2,2.1-.7c.5-.5.9-1.1,1.1-1.9h4.2c-.2,1.4-.6,2.5-1.1,3.4-.6.9-1.4,1.7-2.4,2.2-1,.5-2.3.8-3.9.8Z"/>
    <path class="st14" d="M359.2,350.2v-2.9l2.4-.5v-11.2l-2.6-.5v-2.9h7.5v14.7l2.3.5v2.9h-9.6ZM361.4,328.3v-4.2h5v4.2h-5Z"/>
    <path class="st14" d="M376.5,350.5c-1.8,0-3.2-.5-4.3-1.4-1.1-1-1.6-2.3-1.6-3.9s.7-3.1,2.1-4.2c1.4-1.1,3.4-1.6,6.1-1.6h2.4v-1.3c0-.9-.3-1.6-.8-2.1-.5-.5-1.3-.8-2.3-.8s-1,0-1.4.2c-.4.1-.8.3-1.1.5l-.4,2.4h-3.5v-4.7c.9-.5,1.9-1,3-1.3,1.1-.3,2.3-.5,3.7-.5,2.4,0,4.2.5,5.6,1.6,1.4,1.1,2.1,2.7,2.1,4.7v7.5c0,.2,0,.5,0,.7,0,.2,0,.5,0,.7l1.9.3v2.9h-6c-.1-.3-.2-.6-.4-1-.1-.4-.2-.7-.3-1.1-.6.7-1.3,1.3-2,1.8-.8.4-1.7.7-2.8.7ZM377.8,346.9c.7,0,1.3-.2,1.9-.5.6-.3,1.1-.7,1.4-1.2v-2.9h-2.4c-1.1,0-1.9.2-2.4.7-.6.5-.8,1.1-.8,1.8s.2,1.1.6,1.5c.4.4,1,.5,1.7.5Z"/>
    <path class="st14" d="M389.6,350.2v-2.9l2.4-.5v-11.2l-2.6-.5v-2.9h7.5v14.7l2.3.5v2.9h-9.6ZM391.8,328.3v-4.2h5v4.2h-5Z"/>
    <path class="st14" d="M408.5,350.5c-1.3,0-2.6-.1-3.8-.4-1.2-.3-2.3-.6-3.4-1.1v-5.1s3.3,0,3.3,0l.7,2.6c.4.2.8.3,1.2.5.5.1,1,.2,1.5.2,1.1,0,1.9-.2,2.3-.5.4-.4.7-.8.7-1.3s-.2-.9-.7-1.3c-.5-.4-1.4-.7-2.8-1-2.1-.4-3.7-1.1-4.7-2.1-1-.9-1.5-2.1-1.5-3.6s.3-1.9.8-2.7c.5-.8,1.3-1.5,2.3-2,1-.5,2.4-.8,4-.8s2.6.1,3.7.4,2.1.6,2.8,1v4.9s-3.3,0-3.3,0l-.5-2.4c-.3-.2-.7-.4-1.1-.5-.4-.1-.9-.2-1.4-.2-.9,0-1.5.2-2,.5-.5.3-.7.8-.7,1.3s0,.6.2.9c.2.3.5.5,1,.8.5.2,1.2.5,2.1.7,2.2.5,3.9,1.2,4.9,2,1,.9,1.5,2,1.5,3.6s-.6,3-1.8,4.1-3,1.6-5.5,1.6Z"/>
    <path class="st14" d="M433.4,350.5c-1.4,0-2.7-.4-3.7-1.1s-1.8-1.8-2.4-3.1c-.5-1.3-.8-2.9-.8-4.7v-.4c0-1.9.3-3.6.8-5,.6-1.4,1.3-2.5,2.4-3.3,1-.8,2.2-1.2,3.7-1.2s1.9.2,2.6.6,1.4,1,1.9,1.7v-6.5l-2.6-.5v-2.9h7.5v22.6l2.3.5v2.9h-6.6l-.4-2.2c-.6.8-1.2,1.5-2,1.9s-1.7.7-2.8.7ZM434.8,346.7c.7,0,1.3-.1,1.8-.4.5-.3.9-.7,1.3-1.3v-7.7c-.3-.6-.8-1-1.3-1.3-.5-.3-1.1-.5-1.8-.5s-1.5.2-2,.7c-.5.5-.9,1.2-1.1,2s-.4,1.9-.4,3v.4c0,1.6.3,2.8.8,3.7.5.9,1.4,1.4,2.7,1.4Z"/>
    <path class="st14" d="M452.7,350.5c-1.8,0-3.2-.5-4.3-1.4-1.1-1-1.6-2.3-1.6-3.9s.7-3.1,2.1-4.2c1.4-1.1,3.4-1.6,6.1-1.6h2.4v-1.3c0-.9-.3-1.6-.8-2.1-.5-.5-1.3-.8-2.3-.8s-1,0-1.4.2c-.4.1-.8.3-1.1.5l-.4,2.4h-3.5v-4.7c.9-.5,1.9-1,3-1.3,1.1-.3,2.3-.5,3.7-.5,2.4,0,4.2.5,5.6,1.6,1.4,1.1,2.1,2.7,2.1,4.7v7.5c0,.2,0,.5,0,.7,0,.2,0,.5,0,.7l1.9.3v2.9h-6c-.1-.3-.2-.6-.4-1-.1-.4-.2-.7-.3-1.1-.6.7-1.3,1.3-2,1.8-.8.4-1.7.7-2.8.7ZM454,346.9c.7,0,1.3-.2,1.9-.5.6-.3,1.1-.7,1.4-1.2v-2.9h-2.4c-1.1,0-1.9.2-2.4.7-.6.5-.8,1.1-.8,1.8s.2,1.1.6,1.5c.4.4,1,.5,1.7.5Z"/>
    <path class="st14" d="M269.4,398.5c-.9,0-1.9-.1-3.1-.4-1.1-.2-2.1-.6-3-1l.9-3.5c.8.3,1.6.6,2.5.8.9.2,1.7.3,2.4.3,1.3,0,2.3-.4,2.9-1.1.6-.7.9-1.7.9-3v-1.2c-.5.7-1.2,1.2-1.9,1.6s-1.6.5-2.5.5c-1.5,0-2.7-.4-3.8-1.1-1.1-.7-1.9-1.8-2.4-3.1s-.8-2.9-.8-4.7v-.4c0-1.9.3-3.6.8-5,.6-1.4,1.4-2.5,2.4-3.3,1-.8,2.3-1.2,3.7-1.2s2,.2,2.8.7c.8.5,1.4,1.1,2,1.9l.4-2.3h4.2v17.5c0,1.6-.3,3-1,4.1-.7,1.2-1.6,2.1-2.9,2.7-1.3.6-2.8,1-4.5,1ZM269.9,387.8c.7,0,1.3-.1,1.8-.4.5-.3.9-.7,1.2-1.2v-7.9c-.3-.5-.7-1-1.2-1.3-.5-.3-1.1-.5-1.8-.5s-1.5.2-2,.7c-.5.5-.9,1.2-1.2,2s-.4,1.9-.4,3v.4c0,1.6.3,2.8.8,3.7.5.9,1.5,1.4,2.7,1.4ZM277.2,376.7l-2.1-3.5h4.9v2.9l-2.7.6Z"/>
    <path class="st14" d="M289.9,391.6c-1.8,0-3.3-.4-4.6-1.2-1.3-.8-2.3-1.9-2.9-3.3-.7-1.4-1-3-1-4.8v-.4c0-1.8.3-3.4,1-4.8.7-1.4,1.7-2.5,2.9-3.3,1.3-.8,2.8-1.2,4.6-1.2s3.3.4,4.6,1.2,2.2,1.9,2.9,3.2c.7,1.4,1,3,1,4.8v.4c0,1.8-.3,3.4-1,4.8-.7,1.4-1.7,2.5-2.9,3.3-1.3.8-2.8,1.2-4.6,1.2ZM289.9,387.9c.8,0,1.5-.2,2.1-.7.5-.5.9-1.1,1.2-1.9.3-.8.4-1.8.4-2.9v-.4c0-1.1-.1-2-.4-2.8-.3-.8-.7-1.5-1.2-1.9-.5-.5-1.2-.7-2.1-.7s-1.5.2-2.1.7c-.5.5-.9,1.1-1.2,1.9-.3.8-.4,1.8-.4,2.8v.4c0,1.1.1,2,.4,2.9.3.8.6,1.5,1.2,1.9.5.5,1.2.7,2.1.7Z"/>
    <path class="st14" d="M306.8,391.2l-5.5-14.8-2-.3v-2.9h8.8v2.9l-1.9.3,2.7,8.2.4,1.4h.1l.5-1.4,3-8.2-2.2-.4v-2.9h8.8v2.9l-2,.3-5.7,14.8h-5Z"/>
    <path class="st14" d="M329.2,391.6c-1.7,0-3.2-.4-4.5-1.1-1.3-.8-2.3-1.8-3-3.1s-1.1-2.9-1.1-4.6v-.7c0-1.8.3-3.4,1-4.8.7-1.4,1.6-2.5,2.8-3.3,1.2-.8,2.7-1.2,4.3-1.2s3,.3,4.1,1c1.1.6,2,1.6,2.5,2.8.6,1.2.9,2.7.9,4.4v2.7h-10.7c0,.9.3,1.6.6,2.2s.8,1.1,1.4,1.5c.6.4,1.3.5,2.2.5s1.7-.1,2.5-.3,1.5-.6,2.3-1l1.3,3c-.7.6-1.7,1.1-2.8,1.5s-2.4.6-3.9.6ZM325.7,380.4h6v-.4c0-.7,0-1.4-.3-1.9s-.5-.9-.9-1.2c-.4-.3-1-.4-1.7-.4s-1.2.2-1.6.5c-.4.3-.8.8-1,1.4-.3.6-.4,1.3-.5,2h0Z"/>
    <path class="st14" d="M338.9,391.2v-2.9l2.3-.5v-11.2l-2.6-.5v-2.9h7.1l.2,2.2v.4c.5-1,1-1.7,1.7-2.2.7-.5,1.4-.8,2.4-.8s.6,0,1,0c.3,0,.7.1.9.2l-.5,4.5h-2.4c-.7-.2-1.3,0-1.7.2s-.8.7-1.1,1.2v8.9l2.3.5v2.9h-9.6Z"/>
    <path class="st14" d="M353.3,391.2v-2.9l2.3-.5v-11.2l-2.6-.5v-2.9h7.1l.2,2.6c.6-.9,1.3-1.6,2.2-2.2s1.9-.8,3-.8c1.8,0,3.2.6,4.2,1.7s1.5,2.9,1.5,5.4v7.9l2.3.5v2.9h-9.3v-2.9l2.1-.5v-7.9c0-1.2-.2-2.1-.7-2.6-.5-.5-1.2-.8-2.1-.8s-1.3.1-1.8.4c-.5.3-.9.7-1.3,1.3v9.5l2,.5v2.9h-9.2Z"/>
    <path class="st14" d="M381.4,391.6c-1.8,0-3.2-.5-4.3-1.4-1.1-1-1.6-2.3-1.6-3.9s.7-3.1,2.1-4.2c1.4-1.1,3.4-1.6,6.1-1.6h2.4v-1.3c0-.9-.3-1.6-.8-2.1-.5-.5-1.3-.8-2.3-.8s-1,0-1.4.2c-.4.1-.8.3-1.1.5l-.4,2.4h-3.5v-4.7c.9-.5,1.9-1,3-1.3,1.1-.3,2.3-.5,3.7-.5,2.4,0,4.2.5,5.6,1.6,1.4,1.1,2.1,2.7,2.1,4.7v7.5c0,.2,0,.5,0,.7s0,.5,0,.7l1.9.3v2.9h-6c-.1-.3-.2-.6-.4-1-.1-.4-.2-.7-.3-1.1-.6.7-1.3,1.3-2,1.8-.8.4-1.7.7-2.8.7ZM382.7,388c.7,0,1.3-.2,1.9-.5.6-.3,1.1-.7,1.4-1.2v-2.9h-2.4c-1.1,0-1.9.2-2.4.7s-.8,1.1-.8,1.8.2,1.1.6,1.5c.4.4,1,.5,1.7.5Z"/>
    <path class="st14" d="M394.4,391.2v-2.9l2.3-.5v-11.2l-2.6-.5v-2.9h7.1l.2,2.6c.6-.9,1.3-1.6,2.2-2.2s1.9-.8,3-.8c1.8,0,3.2.6,4.2,1.7s1.5,2.9,1.5,5.4v7.9l2.3.5v2.9h-9.3v-2.9l2.1-.5v-7.9c0-1.2-.2-2.1-.7-2.6-.5-.5-1.2-.8-2.1-.8s-1.3.1-1.8.4c-.5.3-.9.7-1.3,1.3v9.5l2,.5v2.9h-9.2Z"/>
    <path class="st14" d="M424.7,391.6c-1.7,0-3.2-.4-4.5-1.2-1.3-.8-2.2-1.9-2.9-3.2s-1-3-1-4.7v-.5c0-1.8.3-3.4,1-4.7.7-1.4,1.7-2.4,2.9-3.2s2.7-1.2,4.4-1.2,3,.3,4.2.8c1.2.5,2.1,1.1,2.9,1.8v5.2h-3.7l-.7-3.2c-.3-.3-.6-.5-1-.7-.4-.2-.8-.2-1.3-.2-.9,0-1.6.2-2.2.7-.6.4-1,1.1-1.3,1.9s-.4,1.8-.4,3v.5c0,1.2.2,2.3.5,3,.3.8.8,1.4,1.3,1.8.5.4,1.1.6,1.8.6s1.5-.2,2.1-.7c.5-.5.9-1.1,1.1-1.9h4.2c-.2,1.4-.6,2.5-1.1,3.4-.6.9-1.4,1.7-2.4,2.2-1,.5-2.3.8-3.9.8ZM422.5,398.9v-2.7c.6,0,1.1-.1,1.5-.3.4-.2.6-.5.6-1s-.2-.8-.6-1c-.4-.2-1-.3-1.9-.3l.6-2.6h3.6l-.2,1.2c.7.1,1.4.4,1.9.8.5.4.8,1.1.8,2s-.5,2.1-1.6,2.9c-1.1.7-2.6,1.1-4.6,1.1Z"/>
    <path class="st14" d="M440.4,391.6c-1.8,0-3.2-.5-4.3-1.4-1.1-1-1.6-2.3-1.6-3.9s.7-3.1,2.1-4.2c1.4-1.1,3.4-1.6,6.1-1.6h2.4v-1.3c0-.9-.3-1.6-.8-2.1-.5-.5-1.3-.8-2.3-.8s-1,0-1.4.2c-.4.1-.8.3-1.1.5l-.4,2.4h-3.5v-4.7c.9-.5,1.9-1,3-1.3,1.1-.3,2.3-.5,3.7-.5,2.4,0,4.2.5,5.6,1.6,1.4,1.1,2.1,2.7,2.1,4.7v7.5c0,.2,0,.5,0,.7s0,.5,0,.7l1.9.3v2.9h-6c-.1-.3-.2-.6-.4-1-.1-.4-.2-.7-.3-1.1-.6.7-1.3,1.3-2,1.8-.8.4-1.7.7-2.8.7ZM441.7,388c.7,0,1.3-.2,1.9-.5.6-.3,1.1-.7,1.4-1.2v-2.9h-2.4c-1.1,0-1.9.2-2.4.7s-.8,1.1-.8,1.8.2,1.1.6,1.5c.4.4,1,.5,1.7.5Z"/>
    <path class="st14" d="M293,432.7c-1.4,0-2.7-.4-3.7-1.1-1-.7-1.8-1.8-2.4-3.1-.5-1.3-.8-2.9-.8-4.7v-.4c0-1.9.3-3.6.8-5,.6-1.4,1.3-2.5,2.4-3.3,1-.8,2.2-1.2,3.7-1.2s1.9.2,2.6.6c.7.4,1.4,1,1.9,1.7v-6.5l-2.6-.5v-2.9h7.5v22.6l2.3.5v2.9h-6.6l-.4-2.2c-.6.8-1.2,1.5-2,1.9-.8.4-1.7.7-2.8.7ZM294.4,428.9c.7,0,1.3-.1,1.8-.4.5-.3.9-.7,1.3-1.3v-7.7c-.3-.6-.8-1-1.3-1.3-.5-.3-1.1-.5-1.8-.5s-1.5.2-2,.7c-.5.5-.9,1.2-1.1,2-.2.9-.4,1.9-.4,3v.4c0,1.6.3,2.8.8,3.7.5.9,1.4,1.4,2.7,1.4Z"/>
    <path class="st14" d="M314.9,432.7c-1.7,0-3.2-.4-4.5-1.1-1.3-.8-2.3-1.8-3-3.1s-1.1-2.9-1.1-4.6v-.7c0-1.8.3-3.4,1-4.8.7-1.4,1.6-2.5,2.8-3.3,1.2-.8,2.7-1.2,4.3-1.2s3,.3,4.1,1c1.1.6,2,1.6,2.5,2.8.6,1.2.9,2.7.9,4.4v2.7h-10.7c0,.9.3,1.6.6,2.2.3.6.8,1.1,1.4,1.5.6.4,1.3.5,2.2.5s1.7-.1,2.5-.3c.8-.2,1.5-.6,2.3-1l1.3,3c-.7.6-1.7,1.1-2.8,1.5s-2.4.6-3.9.6ZM311.4,421.5h6v-.4c0-.7,0-1.4-.3-1.9-.2-.5-.5-.9-.9-1.2-.4-.3-1-.4-1.7-.4s-1.2.2-1.6.5c-.4.3-.8.8-1,1.4-.3.6-.4,1.3-.5,2h0Z"/>
    <path class="st14" d="M339.6,432.7c-1.4,0-2.7-.4-3.7-1.1-1-.7-1.8-1.8-2.4-3.1-.5-1.3-.8-2.9-.8-4.7v-.4c0-1.9.3-3.6.8-5,.6-1.4,1.3-2.5,2.4-3.3,1-.8,2.2-1.2,3.7-1.2s1.9.2,2.6.6,1.4,1,1.9,1.7v-6.5l-2.6-.5v-2.9h7.5v22.6l2.3.5v2.9h-6.6l-.4-2.2c-.6.8-1.2,1.5-2,1.9s-1.7.7-2.8.7ZM341.1,428.9c.7,0,1.3-.1,1.8-.4s.9-.7,1.3-1.3v-7.7c-.3-.6-.8-1-1.3-1.3-.5-.3-1.1-.5-1.8-.5s-1.5.2-2,.7c-.5.5-.9,1.2-1.1,2-.2.9-.4,1.9-.4,3v.4c0,1.6.3,2.8.8,3.7.5.9,1.4,1.4,2.7,1.4Z"/>
    <path class="st14" d="M359,432.7c-1.8,0-3.2-.5-4.3-1.4-1.1-1-1.6-2.3-1.6-3.9s.7-3.1,2.1-4.2c1.4-1.1,3.4-1.6,6.1-1.6h2.4v-1.3c0-.9-.3-1.6-.8-2.1-.5-.5-1.3-.8-2.3-.8s-1,0-1.4.2c-.4.1-.8.3-1.1.5l-.4,2.4h-3.5v-4.7c.9-.5,1.9-1,3-1.3,1.1-.3,2.3-.5,3.7-.5,2.4,0,4.2.5,5.6,1.6s2.1,2.7,2.1,4.7v7.5c0,.2,0,.5,0,.7,0,.2,0,.5,0,.7l1.9.3v2.9h-6c-.1-.3-.2-.6-.4-1-.1-.4-.2-.7-.3-1.1-.6.7-1.3,1.3-2,1.8-.8.4-1.7.7-2.8.7ZM360.3,429.1c.7,0,1.3-.2,1.9-.5.6-.3,1.1-.7,1.4-1.2v-2.9h-2.4c-1.1,0-1.9.2-2.4.7s-.8,1.1-.8,1.8.2,1.1.6,1.5c.4.4,1,.5,1.7.5Z"/>
    <path class="st14" d="M379.2,432.7c-1.4,0-2.7-.4-3.7-1.1-1-.7-1.8-1.8-2.4-3.1-.5-1.3-.8-2.9-.8-4.7v-.4c0-1.9.3-3.6.8-5,.6-1.4,1.3-2.5,2.4-3.3,1-.8,2.2-1.2,3.7-1.2s1.9.2,2.6.6,1.4,1,1.9,1.7v-6.5l-2.6-.5v-2.9h7.5v22.6l2.3.5v2.9h-6.6l-.4-2.2c-.6.8-1.2,1.5-2,1.9s-1.7.7-2.8.7ZM380.6,428.9c.7,0,1.3-.1,1.8-.4.5-.3.9-.7,1.3-1.3v-7.7c-.3-.6-.8-1-1.3-1.3-.5-.3-1.1-.5-1.8-.5s-1.5.2-2,.7c-.5.5-.9,1.2-1.1,2-.2.9-.4,1.9-.4,3v.4c0,1.6.3,2.8.8,3.7.5.9,1.4,1.4,2.7,1.4Z"/>
    <path class="st14" d="M401.1,432.7c-1.8,0-3.3-.4-4.6-1.2-1.3-.8-2.3-1.9-2.9-3.3-.7-1.4-1-3-1-4.8v-.4c0-1.8.3-3.4,1-4.8.7-1.4,1.7-2.5,2.9-3.3,1.3-.8,2.8-1.2,4.6-1.2s3.3.4,4.6,1.2c1.3.8,2.2,1.9,2.9,3.2.7,1.4,1,3,1,4.8v.4c0,1.8-.3,3.4-1,4.8-.7,1.4-1.7,2.5-2.9,3.3-1.3.8-2.8,1.2-4.6,1.2ZM401.1,428.9c.8,0,1.5-.2,2.1-.7.5-.5.9-1.1,1.2-1.9.3-.8.4-1.8.4-2.9v-.4c0-1.1-.1-2-.4-2.8-.3-.8-.7-1.5-1.2-1.9s-1.2-.7-2.1-.7-1.5.2-2.1.7-.9,1.1-1.2,1.9c-.2.8-.4,1.8-.4,2.8v.4c0,1.1.1,2,.4,2.9.3.8.6,1.5,1.2,1.9s1.2.7,2.1.7Z"/>
    <path class="st14" d="M419.5,432.7c-1.3,0-2.6-.1-3.8-.4-1.2-.3-2.3-.6-3.4-1.1v-5.1s3.3,0,3.3,0l.7,2.6c.4.2.8.3,1.2.5s1,.2,1.5.2c1.1,0,1.9-.2,2.3-.5s.7-.8.7-1.3-.2-.9-.7-1.3c-.5-.4-1.4-.7-2.8-1-2.1-.4-3.7-1.1-4.7-2.1-1-.9-1.5-2.1-1.5-3.6s.3-1.9.8-2.7c.5-.8,1.3-1.5,2.3-2,1-.5,2.4-.8,4-.8s2.6.1,3.7.4,2.1.6,2.8,1v4.9s-3.3,0-3.3,0l-.5-2.4c-.3-.2-.7-.4-1.1-.5-.4-.1-.9-.2-1.4-.2-.9,0-1.5.2-2,.5-.5.3-.7.8-.7,1.3s0,.6.2.9c.2.3.5.5,1,.8.5.2,1.2.5,2.1.7,2.2.5,3.9,1.2,4.9,2,1,.9,1.5,2,1.5,3.6s-.6,3-1.8,4.1-3,1.6-5.5,1.6Z"/>
  </g>
</svg>