
<svg id="Layer_1" data-name="Layer 1" xmlns="http://www.w3.org/2000/svg" viewBox="0 0 720 720">
  <defs>
    <style>
      .cls-1 {
        fill: #004799;
      }

      .cls-1, .cls-2, .cls-3, .cls-4, .cls-5, .cls-6, .cls-7, .cls-8, .cls-9, .cls-10, .cls-11 {
        stroke-width: 0px;
      }

      .cls-2 {
        fill: #f906bc;
      }

      .cls-3 {
        fill: #99c9ff;
      }

      .cls-4 {
        fill: #c70596;
      }

      .cls-5 {
        fill: #fa38c9;
      }

      .cls-6 {
        fill: #950471;
      }

      .cls-7 {
        fill: #07f;
      }

      .cls-8 {
        fill: #005fcc;
      }

      .cls-9 {
        fill: #66adff;
      }

      .cls-10 {
        fill: #3392ff;
      }

      .cls-11 {
        fill: #fecdf2;
      }
    </style>
  </defs>
  <g>
    <g class="stair">
      <polygon class="cls-1" points="528.1 330.27 409.63 261.42 409.49 212.08 527.96 280.93 528.1 330.27"/>
      <polygon class="cls-8" points="399.45 453.94 280.99 385.09 280.85 335.78 399.31 404.62 399.45 453.94"/>
      <polygon class="cls-7" points="270.81 577.62 152.34 508.77 152.2 459.44 270.67 528.29 270.81 577.62"/>
      <polygon class="cls-10" points="142.17 703.34 23.71 634.5 23.56 583.12 142.03 651.97 142.17 703.34"/>
      <polygon class="cls-3" points="668.57 166.14 668.7 213.4 539.92 287.75 540.06 337.09 411.28 411.44 411.42 460.76 282.63 535.11 282.77 584.43 153.99 658.79 154.1 696.46 142.17 703.34 142.03 651.97 270.81 577.62 270.67 528.29 399.45 453.94 399.31 404.62 528.1 330.27 527.96 280.93 656.74 206.58 656.64 173.02 668.57 166.14"/>
      <polygon class="cls-8" points="609.06 21.07 598.09 27.45 695.34 195.87 706.25 189.53 609.06 21.07"/>
      <polygon class="cls-1" points="695.34 195.87 598.09 27.45 500.21 83.21 538.18 105.13 538.27 137.73 656.74 206.58 656.65 173.52 695.34 195.87"/>
    </g>
    <g id="img-info01-btn">
      <g class="btn--hover">
        <polygon class="cls-9" points="142.03 651.97 23.56 583.12 152.34 508.77 270.81 577.62 142.03 651.97"/>
        <polygon class="cls-5" points="49.99 583.16 152.32 524.08 244.39 577.58 142.05 636.66 49.99 583.16"/>
      </g>
      <g>
        <path class="cls-11" d="m204.54,574.34l-10.74,6.24-29.6-17.09-4.76-2.87-5.15-3.17c.01,2.07-.04,3.47-.19,4.2l-1.11,6.12-11.69-.75,3.25-17.09,8.83-5.13,51.16,29.54Z"/>
        <path class="cls-11" d="m162.5,592.13c1.38,4.17-.96,8.01-7.01,11.52-5.86,3.4-12.49,4.7-19.91,3.87-7.41-.82-15.44-3.74-24.09-8.73-9.03-5.21-14.23-9.9-15.62-14.05-1.38-4.16.95-7.98,6.97-11.48,5.86-3.41,12.54-4.69,20.02-3.85,7.48.84,15.52,3.76,24.16,8.74,8.93,5.16,14.1,9.82,15.48,13.99Zm-25.23,7.3c3.79.94,6.97.67,9.51-.81,2.51-1.46,2.94-3.31,1.3-5.54-1.64-2.23-5.56-5.14-11.77-8.73-6.28-3.63-11.35-5.9-15.21-6.83-3.87-.93-7.04-.67-9.52.77-2.52,1.46-2.96,3.31-1.31,5.52,1.66,2.21,5.61,5.14,11.89,8.76,6.27,3.62,11.31,5.9,15.11,6.85h0Z"/>
      </g>
    </g>
    <g id="btn-2" data-name="btn">
      <g class="btn--hover">
        <polygon class="cls-10" points="270.67 528.29 152.2 459.44 280.99 385.09 399.45 453.94 270.67 528.29"/>
        <polygon class="cls-2" points="178.63 459.48 280.96 400.4 373.03 453.9 270.69 512.98 178.63 459.48"/>
      </g>
      <g>
        <path class="cls-11" d="m339.86,446.8l-35.53,20.65-7.52-4.34-.23-14.91c-.11-4.45-.35-7.44-.7-8.98-.34-1.55-.9-2.83-1.66-3.87-.78-1.04-1.85-1.96-3.23-2.75-2.05-1.18-4.14-1.74-6.27-1.66-2.12.07-4.13.66-6.01,1.75-1.97,1.14-3.43,2.51-4.37,4.12-.95,1.61-1.59,3.47-1.92,5.62l-12.81-.63c.36-2.69.92-4.78,1.67-6.24.76-1.47,1.88-2.91,3.35-4.31,1.47-1.41,3.4-2.81,5.82-4.21,3.18-1.85,6.56-3.14,10.17-3.88,3.59-.74,7.12-.89,10.56-.46,3.44.43,6.53,1.43,9.23,2.99,2.36,1.36,4.15,2.87,5.39,4.55,1.24,1.67,2.09,3.63,2.53,5.89.44,2.25.49,5.81.14,10.66l-.34,7.37.49.28,22.14-12.87,9.1,5.25Z"/>
        <path class="cls-11" d="m288.84,469.8c1.38,4.17-.95,8.01-7,11.53-5.86,3.4-12.49,4.69-19.91,3.87-7.41-.83-15.44-3.74-24.1-8.74-9.02-5.21-14.23-9.89-15.62-14.05-1.38-4.16.94-7.98,6.96-11.49,5.87-3.41,12.54-4.69,20.02-3.85,7.48.84,15.53,3.76,24.16,8.74,8.94,5.16,14.1,9.82,15.48,13.99Zm-25.23,7.3c3.8.95,6.97.67,9.51-.81,2.51-1.46,2.95-3.3,1.3-5.54-1.64-2.23-5.56-5.14-11.77-8.72-6.27-3.62-11.34-5.9-15.2-6.83-3.87-.93-7.04-.67-9.52.77-2.52,1.46-2.96,3.31-1.31,5.52,1.66,2.21,5.61,5.14,11.88,8.76,6.28,3.62,11.32,5.91,15.11,6.85h0Z"/>
      </g>
    </g>
    <g id="btn-3" data-name="btn">
      <g class="btn--hover">
        <polygon class="cls-7" points="399.31 404.62 280.85 335.78 409.63 261.42 528.1 330.27 399.31 404.62"/>
        <polygon class="cls-4" points="307.27 335.81 409.61 276.73 501.67 330.23 399.34 389.32 307.27 335.81"/>
      </g>
      <g>
        <path class="cls-11" d="m452.62,312.51c4.93,2.84,6.98,6.08,6.18,9.72-.8,3.65-4.5,7.38-11.08,11.2-5.52,3.21-11.33,5.52-17.43,6.94l-9.2-5.31c2.97-.56,5.96-1.36,8.95-2.37,2.99-1.01,5.64-2.19,7.96-3.54,3.54-2.06,5.56-3.93,6.03-5.61.49-1.69-.62-3.3-3.29-4.85-2.4-1.39-5.08-1.8-8.03-1.25-2.95.55-6.56,2.07-10.82,4.55l-3.86,2.24-8.29-4.79,3.93-2.28c3.94-2.29,6.31-4.27,7.08-5.92.78-1.66-.08-3.21-2.61-4.67-3.87-2.23-8.22-1.95-13.04.85-1.66.97-3.09,2.12-4.25,3.44-1.17,1.32-2.13,3-2.85,5.02l-12.43-1.41c1.28-4.63,5.12-8.82,11.54-12.55,5.26-3.06,10.49-4.85,15.69-5.38,5.18-.53,9.7.31,13.52,2.52,3.2,1.85,4.95,3.97,5.27,6.38.32,2.41-.84,4.87-3.48,7.37l.21.12c4.61-2.09,8.97-3.17,13.08-3.24,4.11-.07,7.84.87,11.22,2.82Z"/>
        <path class="cls-11" d="m417,343.83c1.38,4.17-.95,8.01-7.01,11.52-5.86,3.41-12.49,4.7-19.91,3.87-7.41-.82-15.44-3.74-24.09-8.74-9.03-5.21-14.23-9.9-15.62-14.05-1.38-4.16.95-7.98,6.97-11.48,5.86-3.41,12.54-4.69,20.01-3.85,7.49.84,15.53,3.75,24.17,8.73,8.93,5.16,14.1,9.82,15.48,13.99Zm-25.23,7.3c3.79.94,6.97.67,9.51-.81,2.51-1.46,2.94-3.31,1.3-5.54-1.64-2.23-5.56-5.14-11.77-8.72-6.28-3.63-11.35-5.9-15.21-6.83-3.87-.93-7.04-.67-9.52.77-2.53,1.47-2.96,3.31-1.31,5.52,1.65,2.22,5.61,5.14,11.89,8.76,6.27,3.62,11.31,5.9,15.11,6.85h0Z"/>
      </g>
    </g>
    <g id="btn-4" data-name="btn">
      <g class="btn--hover">
        <polygon class="cls-8" points="527.96 280.93 409.49 212.08 538.27 137.73 656.74 206.58 527.96 280.93"/>
        <polygon class="cls-6" points="435.91 212.12 538.25 153.04 630.32 206.54 527.98 265.63 435.91 212.12"/>
      </g>
      <g>
        <path class="cls-11" d="m584.11,193.7l10.6,6.12-10.5,6.1-10.6-6.12-21.69,12.6-7.52-4.34-10.75-32.02,9.9-5.76,32.16,18.57,6.12-3.56,8.4,4.85-6.12,3.56Zm-31.14,8.36l12.24-7.11-8.68-5.01c-1.44-.83-3.47-2.08-6.12-3.74-2.64-1.66-4.14-2.63-4.52-2.93l-.28.16c1.06,1.6,1.89,3.28,2.5,5.03l4.85,13.6h0Z"/>
        <path class="cls-11" d="m548.67,219.94c1.38,4.17-.96,8.01-7.01,11.52-5.86,3.41-12.5,4.7-19.91,3.87-7.42-.83-15.44-3.74-24.09-8.74-9.03-5.21-14.23-9.9-15.62-14.05-1.38-4.16.94-7.99,6.96-11.49,5.87-3.41,12.54-4.69,20.02-3.85,7.49.84,15.54,3.76,24.17,8.74,8.93,5.16,14.09,9.82,15.48,13.99Zm-25.23,7.3c3.79.94,6.97.67,9.51-.81,2.5-1.45,2.93-3.3,1.29-5.53-1.64-2.23-5.56-5.15-11.76-8.73-6.28-3.63-11.35-5.9-15.21-6.83-3.87-.93-7.04-.67-9.52.77-2.53,1.47-2.96,3.31-1.31,5.52,1.65,2.22,5.61,5.14,11.89,8.76,6.27,3.62,11.31,5.9,15.11,6.85h0Z"/>
      </g>
    </g>
  </g>
  <g>
    <path class="cls-7" d="m46.92,38.31c2.58,0,4.46.56,5.64,1.67,1.19,1.11,1.78,2.64,1.78,4.58,0,1.16-.24,2.24-.73,3.26-.49,1.02-1.29,1.83-2.42,2.45-1.13.62-2.66.92-4.61.92h-1.82v7.11h-4.23v-19.99h6.38Zm-.22,3.47h-1.93v5.94h1.4c1.19,0,2.14-.24,2.84-.71.7-.48,1.05-1.25,1.05-2.31,0-1.94-1.12-2.91-3.36-2.91Z"/>
    <path class="cls-7" d="m66.33,42.73c.21,0,.45,0,.73.03.28.02.5.05.67.08l-.31,3.92c-.13-.04-.32-.07-.57-.1-.25-.03-.47-.04-.66-.04-.71,0-1.39.13-2.04.38-.65.25-1.18.66-1.58,1.22-.4.56-.6,1.33-.6,2.3v7.78h-4.17v-15.29h3.16l.62,2.58h.2c.45-.78,1.06-1.46,1.85-2.02.78-.56,1.69-.84,2.72-.84Z"/>
    <path class="cls-7" d="m83.83,50.63c0,2.54-.67,4.5-2,5.88-1.33,1.38-3.15,2.07-5.45,2.07-1.42,0-2.68-.31-3.79-.92-1.11-.62-1.98-1.52-2.62-2.7-.63-1.19-.95-2.63-.95-4.33,0-2.54.66-4.49,1.99-5.85,1.33-1.36,3.15-2.04,5.46-2.04,1.44,0,2.71.31,3.81.92,1.1.62,1.97,1.51,2.6,2.67.63,1.17.95,2.6.95,4.3Zm-10.56,0c0,1.51.25,2.66.74,3.43.49.77,1.3,1.16,2.42,1.16s1.9-.39,2.39-1.16c.49-.77.74-1.92.74-3.43s-.25-2.65-.74-3.4c-.5-.76-1.3-1.13-2.42-1.13s-1.9.38-2.39,1.13c-.49.76-.74,1.89-.74,3.4Z"/>
    <path class="cls-7" d="m93.49,58.58c-2.28,0-4.04-.63-5.28-1.89-1.24-1.26-1.86-3.24-1.86-5.95,0-1.87.32-3.39.95-4.56.63-1.18,1.52-2.04,2.65-2.6s2.43-.84,3.91-.84c1.04,0,1.96.1,2.73.31.77.21,1.45.45,2.03.73l-1.23,3.22c-.65-.26-1.26-.48-1.83-.64-.57-.17-1.13-.25-1.69-.25-2.17,0-3.25,1.54-3.25,4.62,0,1.53.28,2.66.85,3.39.57.73,1.37,1.09,2.39,1.09.88,0,1.65-.12,2.32-.35s1.33-.56,1.96-.97v3.56c-.63.41-1.3.71-2,.88-.7.18-1.58.27-2.65.27Z"/>
    <path class="cls-7" d="m107.96,42.73c2.11,0,3.78.6,5.01,1.81,1.23,1.2,1.85,2.92,1.85,5.14v2.02h-9.86c.04,1.18.39,2.1,1.05,2.77.66.67,1.58,1.01,2.76,1.01.99,0,1.89-.1,2.69-.29.8-.2,1.63-.5,2.49-.91v3.22c-.75.37-1.54.65-2.37.83s-1.83.27-3.01.27c-1.53,0-2.88-.28-4.06-.85-1.18-.57-2.1-1.43-2.77-2.59-.67-1.16-1.01-2.61-1.01-4.37s.3-3.28.91-4.47c.61-1.19,1.45-2.08,2.53-2.67,1.08-.6,2.34-.9,3.78-.9Zm.03,2.97c-.8,0-1.47.26-2,.78-.53.52-.84,1.33-.94,2.44h5.85c-.02-.93-.26-1.7-.73-2.31-.47-.61-1.19-.91-2.18-.91Z"/>
    <path class="cls-7" d="m128.88,53.77c0,1.55-.55,2.74-1.64,3.57-1.09.83-2.72,1.25-4.89,1.25-1.06,0-1.98-.07-2.74-.21-.77-.14-1.53-.37-2.3-.69v-3.44c.82.37,1.71.68,2.66.92.95.24,1.79.36,2.52.36.82,0,1.4-.12,1.75-.36.35-.24.52-.56.52-.95,0-.26-.07-.49-.21-.7-.14-.21-.44-.44-.91-.7-.47-.26-1.19-.6-2.18-1.01-.95-.41-1.74-.82-2.35-1.22-.62-.4-1.07-.89-1.37-1.46-.3-.57-.45-1.28-.45-2.14,0-1.42.55-2.48,1.65-3.19,1.1-.71,2.57-1.06,4.4-1.06.95,0,1.86.09,2.72.28.86.19,1.75.5,2.66.92l-1.26,3c-.75-.32-1.46-.58-2.13-.8-.67-.21-1.35-.32-2.04-.32-1.23,0-1.85.34-1.85,1.01,0,.24.08.46.24.66.16.2.47.41.92.63.46.22,1.13.52,2.03.9.88.35,1.63.72,2.27,1.11.63.38,1.12.86,1.47,1.43.35.57.52,1.31.52,2.23Z"/>
    <path class="cls-7" d="m142.8,53.77c0,1.55-.55,2.74-1.64,3.57-1.09.83-2.72,1.25-4.89,1.25-1.06,0-1.98-.07-2.74-.21-.77-.14-1.53-.37-2.3-.69v-3.44c.82.37,1.71.68,2.66.92.95.24,1.79.36,2.52.36.82,0,1.4-.12,1.75-.36.35-.24.52-.56.52-.95,0-.26-.07-.49-.21-.7-.14-.21-.44-.44-.91-.7-.47-.26-1.19-.6-2.18-1.01-.95-.41-1.74-.82-2.35-1.22-.62-.4-1.07-.89-1.37-1.46-.3-.57-.45-1.28-.45-2.14,0-1.42.55-2.48,1.65-3.19,1.1-.71,2.57-1.06,4.4-1.06.95,0,1.86.09,2.72.28.86.19,1.75.5,2.66.92l-1.26,3c-.75-.32-1.46-.58-2.13-.8-.67-.21-1.35-.32-2.04-.32-1.23,0-1.85.34-1.85,1.01,0,.24.08.46.24.66.16.2.47.41.92.63.46.22,1.13.52,2.03.9.88.35,1.63.72,2.27,1.11.63.38,1.12.86,1.47,1.43.35.57.52,1.31.52,2.23Z"/>
    <path class="cls-7" d="m159.93,50.63c0,2.54-.67,4.5-2,5.88-1.33,1.38-3.15,2.07-5.45,2.07-1.42,0-2.68-.31-3.79-.92-1.11-.62-1.98-1.52-2.62-2.7-.63-1.19-.95-2.63-.95-4.33,0-2.54.66-4.49,1.99-5.85,1.33-1.36,3.15-2.04,5.46-2.04,1.44,0,2.71.31,3.81.92,1.1.62,1.97,1.51,2.6,2.67.63,1.17.95,2.6.95,4.3Zm-10.56,0c0,1.51.25,2.66.74,3.43.49.77,1.3,1.16,2.42,1.16s1.9-.39,2.39-1.16c.49-.77.74-1.92.74-3.43s-.25-2.65-.74-3.4c-.5-.76-1.3-1.13-2.42-1.13s-1.9.38-2.39,1.13c-.49.76-.74,1.89-.74,3.4Z"/>
    <path class="cls-7" d="m175.5,58.58c-1.7,0-3.08-.67-4.16-2-1.07-1.33-1.61-3.3-1.61-5.89s.54-4.59,1.62-5.94c1.08-1.34,2.5-2.02,4.26-2.02,1.1,0,2.01.21,2.72.64.71.43,1.27.96,1.68,1.6h.14c-.06-.3-.12-.73-.2-1.3-.07-.57-.11-1.15-.11-1.75v-4.9h4.17v21.28h-3.19l-.81-1.99h-.17c-.41.63-.96,1.17-1.65,1.61s-1.59.66-2.69.66Zm1.46-3.33c1.16,0,1.97-.34,2.44-1.02.47-.68.71-1.7.73-3.07v-.45c0-1.49-.23-2.63-.69-3.42-.46-.78-1.3-1.18-2.53-1.18-.92,0-1.63.4-2.16,1.19-.52.79-.78,1.94-.78,3.43s.26,2.62.78,3.37c.52.76,1.26,1.13,2.21,1.13Z"/>
    <path class="cls-7" d="m194.68,42.73c2.11,0,3.78.6,5.01,1.81,1.23,1.2,1.85,2.92,1.85,5.14v2.02h-9.86c.04,1.18.39,2.1,1.05,2.77.66.67,1.58,1.01,2.76,1.01.99,0,1.89-.1,2.69-.29.8-.2,1.63-.5,2.49-.91v3.22c-.75.37-1.54.65-2.37.83s-1.83.27-3.01.27c-1.53,0-2.88-.28-4.06-.85-1.18-.57-2.1-1.43-2.77-2.59-.67-1.16-1.01-2.61-1.01-4.37s.3-3.28.91-4.47c.61-1.19,1.45-2.08,2.53-2.67,1.08-.6,2.34-.9,3.78-.9Zm.03,2.97c-.8,0-1.47.26-2,.78-.53.52-.84,1.33-.94,2.44h5.85c-.02-.93-.26-1.7-.73-2.31-.47-.61-1.19-.91-2.18-.91Z"/>
    <path class="cls-7" d="m48.75,76.33c.21,0,.45,0,.73.03.28.02.5.05.67.08l-.31,3.92c-.13-.04-.32-.07-.57-.1-.25-.03-.47-.04-.66-.04-.71,0-1.39.13-2.04.38-.65.25-1.18.66-1.58,1.22-.4.56-.6,1.33-.6,2.3v7.78h-4.17v-15.29h3.16l.62,2.58h.2c.45-.78,1.06-1.46,1.85-2.02.78-.56,1.69-.84,2.72-.84Z"/>
    <path class="cls-7" d="m58.66,76.33c2.11,0,3.78.6,5.01,1.81,1.23,1.2,1.85,2.92,1.85,5.14v2.02h-9.86c.04,1.18.39,2.1,1.05,2.77.66.67,1.58,1.01,2.76,1.01.99,0,1.89-.1,2.69-.29.8-.2,1.63-.5,2.49-.91v3.22c-.75.37-1.54.65-2.37.83s-1.83.27-3.01.27c-1.53,0-2.88-.28-4.06-.85-1.18-.57-2.1-1.43-2.77-2.59-.67-1.16-1.01-2.61-1.01-4.37s.3-3.28.91-4.47c.61-1.19,1.45-2.08,2.53-2.67,1.08-.6,2.34-.9,3.78-.9Zm.03,2.97c-.8,0-1.47.26-2,.78-.53.52-.84,1.33-.94,2.44h5.85c-.02-.93-.26-1.7-.73-2.31-.47-.61-1.19-.91-2.18-.91Z"/>
    <path class="cls-7" d="m75.12,92.18c-2.28,0-4.04-.63-5.28-1.89-1.24-1.26-1.86-3.24-1.86-5.95,0-1.87.32-3.39.95-4.56.63-1.18,1.52-2.04,2.65-2.6s2.43-.84,3.91-.84c1.04,0,1.96.1,2.73.31.77.21,1.45.45,2.03.73l-1.23,3.22c-.65-.26-1.26-.48-1.83-.64-.57-.17-1.13-.25-1.69-.25-2.17,0-3.25,1.54-3.25,4.62,0,1.53.28,2.66.85,3.39.57.73,1.37,1.09,2.39,1.09.88,0,1.65-.12,2.32-.35s1.33-.56,1.96-.97v3.56c-.63.41-1.3.71-2,.88-.7.18-1.58.27-2.65.27Z"/>
    <path class="cls-7" d="m91.84,76.33c.21,0,.45,0,.73.03.28.02.5.05.67.08l-.31,3.92c-.13-.04-.32-.07-.57-.1-.25-.03-.47-.04-.66-.04-.71,0-1.39.13-2.04.38-.65.25-1.18.66-1.58,1.22-.4.56-.6,1.33-.6,2.3v7.78h-4.17v-15.29h3.16l.62,2.58h.2c.45-.78,1.06-1.46,1.85-2.02.78-.56,1.69-.84,2.72-.84Z"/>
    <path class="cls-7" d="m110.04,76.61v15.29h-3.19l-.56-1.96h-.22c-.49.78-1.15,1.35-2,1.71-.85.35-1.75.53-2.7.53-1.64,0-2.96-.44-3.95-1.33-.99-.89-1.48-2.31-1.48-4.27v-9.97h4.17v8.93c0,1.08.2,1.9.59,2.46s1.02.84,1.88.84c1.27,0,2.14-.43,2.6-1.3.47-.87.7-2.11.7-3.74v-7.2h4.17Z"/>
    <path class="cls-7" d="m120.84,88.85c.47,0,.91-.05,1.34-.14.43-.09.86-.21,1.29-.34v3.11c-.45.19-1,.35-1.67.49-.66.14-1.39.21-2.17.21-.91,0-1.73-.15-2.45-.45-.72-.3-1.29-.82-1.71-1.55-.42-.74-.63-1.76-.63-3.07v-7.36h-1.99v-1.76l2.3-1.4,1.2-3.22h2.66v3.25h4.28v3.14h-4.28v7.36c0,.58.17,1.01.5,1.3s.77.43,1.32.43Z"/>
    <path class="cls-7" d="m132.83,76.31c2.05,0,3.63.44,4.72,1.33,1.09.89,1.64,2.25,1.64,4.07v10.19h-2.91l-.81-2.07h-.11c-.65.82-1.34,1.42-2.07,1.79-.73.37-1.73.56-3,.56-1.36,0-2.49-.4-3.39-1.19-.9-.79-1.34-2.01-1.34-3.65s.57-2.82,1.71-3.6c1.14-.77,2.85-1.2,5.12-1.27l2.66-.08v-.67c0-.8-.21-1.39-.63-1.76-.42-.37-1-.56-1.75-.56s-1.48.11-2.18.32c-.71.21-1.42.48-2.13.8l-1.37-2.83c.82-.43,1.73-.77,2.73-1.01,1-.24,2.04-.36,3.12-.36Zm.59,8.57c-1.34.04-2.28.28-2.8.73-.52.45-.78,1.04-.78,1.76,0,.63.19,1.09.56,1.36.37.27.86.41,1.46.41.9,0,1.65-.27,2.27-.8.62-.53.92-1.28.92-2.25v-1.26l-1.62.06Z"/>
    <path class="cls-7" d="m161.42,76.33c1.74,0,3.05.44,3.93,1.33.89.89,1.33,2.31,1.33,4.27v9.97h-4.17v-8.93c0-2.2-.77-3.3-2.3-3.3-1.1,0-1.89.39-2.35,1.18-.47.78-.7,1.91-.7,3.39v7.67h-4.17v-8.93c0-2.2-.77-3.3-2.3-3.3-1.16,0-1.96.43-2.39,1.3-.44.87-.66,2.11-.66,3.74v7.2h-4.17v-15.29h3.19l.56,1.96h.22c.47-.78,1.11-1.35,1.92-1.71.81-.35,1.66-.53,2.53-.53,1.12,0,2.07.18,2.86.55.78.36,1.38.93,1.79,1.69h.36c.47-.78,1.12-1.35,1.95-1.71.83-.35,1.68-.53,2.56-.53Z"/>
    <path class="cls-7" d="m177.26,76.33c2.11,0,3.78.6,5.01,1.81,1.23,1.2,1.85,2.92,1.85,5.14v2.02h-9.86c.04,1.18.39,2.1,1.05,2.77.66.67,1.58,1.01,2.76,1.01.99,0,1.89-.1,2.69-.29.8-.2,1.63-.5,2.49-.91v3.22c-.75.37-1.54.65-2.37.83s-1.83.27-3.01.27c-1.53,0-2.88-.28-4.06-.85-1.18-.57-2.1-1.43-2.77-2.59-.67-1.16-1.01-2.61-1.01-4.37s.3-3.28.91-4.47c.61-1.19,1.45-2.08,2.53-2.67,1.08-.6,2.34-.9,3.78-.9Zm.03,2.97c-.8,0-1.47.26-2,.78-.53.52-.84,1.33-.94,2.44h5.85c-.02-.93-.26-1.7-.73-2.31-.47-.61-1.19-.91-2.18-.91Z"/>
    <path class="cls-7" d="m196.19,76.33c1.64,0,2.96.44,3.95,1.33.99.89,1.48,2.31,1.48,4.27v9.97h-4.17v-8.93c0-1.1-.2-1.93-.59-2.48-.39-.55-1.02-.83-1.88-.83-1.27,0-2.14.43-2.6,1.3-.47.87-.7,2.11-.7,3.74v7.2h-4.17v-15.29h3.19l.56,1.96h.22c.48-.78,1.15-1.35,2-1.71.85-.35,1.75-.53,2.7-.53Z"/>
    <path class="cls-7" d="m212.35,88.85c.47,0,.91-.05,1.34-.14.43-.09.86-.21,1.29-.34v3.11c-.45.19-1,.35-1.67.49-.66.14-1.39.21-2.17.21-.91,0-1.73-.15-2.45-.45-.72-.3-1.29-.82-1.71-1.55-.42-.74-.63-1.76-.63-3.07v-7.36h-1.99v-1.76l2.3-1.4,1.2-3.22h2.66v3.25h4.28v3.14h-4.28v7.36c0,.58.17,1.01.5,1.3s.77.43,1.32.43Z"/>
    <path class="cls-7" d="m231.95,84.23c0,2.54-.67,4.5-2,5.88-1.33,1.38-3.15,2.07-5.45,2.07-1.42,0-2.68-.31-3.79-.92-1.11-.62-1.98-1.52-2.62-2.7-.63-1.19-.95-2.63-.95-4.33,0-2.54.66-4.49,1.99-5.85,1.33-1.36,3.15-2.04,5.46-2.04,1.44,0,2.71.31,3.81.92,1.1.62,1.97,1.51,2.6,2.67.63,1.17.95,2.6.95,4.3Zm-10.56,0c0,1.51.25,2.66.74,3.43.49.77,1.3,1.16,2.42,1.16s1.9-.39,2.39-1.16c.49-.77.74-1.92.74-3.43s-.25-2.65-.74-3.4c-.5-.76-1.3-1.13-2.42-1.13s-1.9.38-2.39,1.13c-.49.76-.74,1.89-.74,3.4Z"/>
  </g>
</svg>