<?xml version="1.0" encoding="utf-8"?>
<!-- Generator: Adobe Illustrator 22.0.1, SVG Export Plug-In . SVG Version: 6.00 Build 0)  -->
<svg version="1.0" id="Camada_1" xmlns="http://www.w3.org/2000/svg" xmlns:xlink="http://www.w3.org/1999/xlink" x="0px" y="0px"
	 viewBox="0 0 778.3 587" style="enable-background:new 0 0 778.3 587;" xml:space="preserve">
<style type="text/css">
	.st0{fill:#2C4E7E;}
	.st1{clip-path:url(#SVGID_2_);}
	.st2{fill:#EFCB4B;}
	.st3{fill:#C85044;}
	.st4{fill:#D8D8D8;}
	.st5{fill:#FFFFFD;}
	.st6{opacity:0.5;}
	.st7{clip-path:url(#SVGID_4_);}
	.st8{fill:none;stroke:#FFFFFF;stroke-width:4;stroke-miterlimit:10;}
	.st9{fill:#D6DFE6;}
</style>
<g>
	
		<ellipse transform="matrix(0.7071 -0.7071 0.7071 0.7071 -428.4002 665.4631)" class="st0" cx="589.1" cy="849.9" rx="192.9" ry="192.9"/>
	<g>
		<defs>
			<circle id="SVGID_1_" cx="350.6" cy="849.5" r="192.6"/>
		</defs>
		<clipPath id="SVGID_2_">
			<use xlink:href="#SVGID_1_"  style="overflow:visible;"/>
		</clipPath>
		<g class="st1">
			<g>
				<g>
					
						<rect x="-326.4" y="618.1" transform="matrix(0.7606 -0.6493 0.6493 0.7606 -328.1628 356.2155)" class="st2" width="1290.6" height="9.8"/>
				</g>
				<g>
					
						<rect x="-306.3" y="640.3" transform="matrix(0.7606 -0.6493 0.6493 0.7606 -337.748 374.5917)" class="st2" width="1290.6" height="9.8"/>
				</g>
				<g>
					
						<rect x="-286.2" y="662.5" transform="matrix(0.7606 -0.6493 0.6493 0.7606 -347.3312 392.9698)" class="st2" width="1290.6" height="9.8"/>
				</g>
				<g>
					
						<rect x="-266" y="684.7" transform="matrix(0.7606 -0.6493 0.6493 0.7606 -356.9149 411.3439)" class="st2" width="1290.6" height="9.8"/>
				</g>
				<g>
					
						<rect x="-245.9" y="706.9" transform="matrix(0.7606 -0.6493 0.6493 0.7606 -366.4987 429.7202)" class="st2" width="1290.6" height="9.8"/>
				</g>
				<g>
					
						<rect x="-225.8" y="729" transform="matrix(0.7606 -0.6493 0.6493 0.7606 -376.0809 448.0958)" class="st2" width="1290.6" height="9.8"/>
				</g>
				<g>
					
						<rect x="-205.7" y="751.2" transform="matrix(0.7606 -0.6493 0.6493 0.7606 -385.6653 466.4706)" class="st2" width="1290.6" height="9.8"/>
				</g>
				<g>
					
						<rect x="-185.5" y="773.4" transform="matrix(0.7606 -0.6493 0.6493 0.7606 -395.2468 484.8454)" class="st2" width="1290.6" height="9.8"/>
				</g>
				<g>
					
						<rect x="-165.4" y="795.6" transform="matrix(0.7606 -0.6493 0.6493 0.7606 -404.8321 503.2227)" class="st2" width="1290.6" height="9.8"/>
				</g>
				<g>
					
						<rect x="-145.3" y="817.8" transform="matrix(0.7606 -0.6493 0.6493 0.7606 -414.4166 521.5972)" class="st2" width="1290.6" height="9.8"/>
				</g>
				<g>
					
						<rect x="-125.2" y="839.9" transform="matrix(0.7606 -0.6493 0.6493 0.7606 -423.9998 539.9749)" class="st2" width="1290.6" height="9.8"/>
				</g>
				<g>
					
						<rect x="-105.1" y="862.1" transform="matrix(0.7606 -0.6493 0.6493 0.7606 -433.5834 558.3494)" class="st2" width="1290.6" height="9.8"/>
				</g>
				<g>
					
						<rect x="-84.9" y="884.3" transform="matrix(0.7606 -0.6493 0.6493 0.7606 -443.1667 576.7271)" class="st2" width="1290.6" height="9.8"/>
				</g>
				<g>
					
						<rect x="-64.8" y="906.5" transform="matrix(0.7606 -0.6493 0.6493 0.7606 -452.7494 595.1012)" class="st2" width="1290.6" height="9.8"/>
				</g>
			</g>
		</g>
	</g>
</g>
<g>
	<g>
		<path class="st3" d="M-455.8,747.9c-4.4,0-7.9-3.5-8-7.9c0-4.4,3.5-8,7.9-8.1c2.6,0,5.1-0.1,7.6-0.2c4.1-0.4,8.1,3.2,8.4,7.6
			c0.2,4.4-3.2,8.1-7.6,8.4C-450.2,747.8-453,747.9-455.8,747.9C-455.8,747.9-455.8,747.9-455.8,747.9z M-487.5,745.8
			c-0.4,0-0.7,0-1.1-0.1c-2.7-0.4-5.4-0.8-8.1-1.3c-4.3-0.8-7.2-4.9-6.5-9.3c0.8-4.3,4.9-7.2,9.3-6.5c2.5,0.5,5,0.9,7.6,1.2
			c4.4,0.6,7.4,4.7,6.8,9C-480.2,743-483.6,745.8-487.5,745.8z M-416.4,743.8c-3.7,0-7-2.6-7.8-6.4c-0.9-4.3,1.9-8.5,6.2-9.4
			c2.5-0.5,5-1.1,7.5-1.7c4.3-1.1,8.6,1.6,9.6,5.9c1,4.3-1.6,8.6-5.9,9.6c-2.7,0.6-5.3,1.2-8,1.8
			C-415.3,743.7-415.8,743.8-416.4,743.8z M-526.1,736.6c-0.9,0-1.7-0.1-2.6-0.4c-2.6-0.9-5.2-1.8-7.8-2.9
			c-4.1-1.6-6.1-6.2-4.5-10.3c1.6-4.1,6.2-6.1,10.3-4.5c2.4,0.9,4.8,1.8,7.2,2.6c4.2,1.4,6.4,6,5,10.1
			C-519.7,734.5-522.8,736.6-526.1,736.6z M-378.4,732.2c-3.1,0-6.1-1.8-7.4-4.9c-1.7-4.1,0.2-8.8,4.3-10.4c2.4-1,4.7-2,7-3
			c4-1.8,8.7-0.1,10.6,3.9c1.8,4,0.1,8.8-3.9,10.6c-2.5,1.1-5,2.2-7.5,3.3C-376.3,732-377.4,732.2-378.4,732.2z M-562.2,720.1
			c-1.3,0-2.7-0.3-4-1.1c-2.4-1.4-4.7-2.8-7.1-4.3c-3.7-2.3-4.9-7.3-2.5-11c2.3-3.7,7.3-4.9,11-2.5c2.2,1.3,4.4,2.7,6.6,4
			c3.8,2.2,5.1,7.1,2.9,10.9C-556.8,718.6-559.4,720.1-562.2,720.1z M-343.4,713.7c-2.6,0-5.1-1.3-6.7-3.6
			c-2.4-3.7-1.4-8.6,2.3-11.1c2.1-1.4,4.2-2.8,6.3-4.3c3.6-2.6,8.6-1.7,11.1,1.9c2.6,3.6,1.7,8.6-1.9,11.1c-2.2,1.6-4.5,3.2-6.8,4.7
			C-340.3,713.2-341.9,713.7-343.4,713.7z M-594.6,697.1c-1.9,0-3.7-0.6-5.2-1.9c-2.1-1.8-4.1-3.6-6.2-5.5c-3.2-3-3.4-8.1-0.4-11.3
			c3-3.2,8.1-3.4,11.3-0.4c1.9,1.7,3.8,3.4,5.7,5.1c3.3,2.9,3.7,7.9,0.8,11.3C-590.1,696.1-592.3,697.1-594.6,697.1z M-312.5,688.8
			c-2.1,0-4.2-0.8-5.7-2.4c-3.1-3.2-3-8.2,0.2-11.3c1.8-1.8,3.6-3.6,5.4-5.4c3-3.2,8.1-3.3,11.3-0.3c3.2,3,3.3,8.1,0.3,11.3
			c-1.9,2-3.8,3.9-5.8,5.9C-308.4,688.1-310.5,688.8-312.5,688.8z M-621.9,668.4c-2.4,0-4.7-1-6.3-3c-1.7-2.2-3.4-4.3-5-6.6
			c-2.6-3.6-1.8-8.6,1.7-11.2c3.6-2.6,8.6-1.8,11.2,1.7c1.5,2.1,3,4.1,4.6,6.1c2.7,3.5,2.1,8.5-1.3,11.2
			C-618.5,667.8-620.2,668.4-621.9,668.4z M-286.8,658.6c-1.6,0-3.2-0.5-4.6-1.4c-3.6-2.5-4.5-7.5-2-11.1c1.5-2.1,2.9-4.2,4.3-6.3
			c2.4-3.7,7.3-4.8,11-2.4c3.7,2.4,4.8,7.3,2.4,11c-1.5,2.3-3,4.6-4.6,6.9C-281.8,657.4-284.2,658.6-286.8,658.6z M-643.5,635.1
			c-2.9,0-5.7-1.6-7.1-4.3c-1.3-2.4-2.5-4.9-3.6-7.4c-1.9-4-0.2-8.8,3.8-10.6c4-1.9,8.8-0.1,10.6,3.8c1.1,2.3,2.2,4.6,3.4,6.8
			c2,3.9,0.5,8.7-3.4,10.8C-641,634.8-642.2,635.1-643.5,635.1z M-267.2,624c-1.1,0-2.2-0.2-3.2-0.7c-4-1.8-5.8-6.5-4-10.5
			c1-2.3,2-4.7,3-7.1c1.6-4.1,6.3-6.1,10.4-4.4c4.1,1.6,6.1,6.3,4.4,10.4c-1,2.6-2.1,5.1-3.2,7.6C-261.2,622.3-264.2,624-267.2,624z
			 M-658.3,598.3c-3.5,0-6.6-2.2-7.7-5.7c-0.8-2.6-1.5-5.3-2.2-8c-1.1-4.3,1.5-8.6,5.8-9.7c4.3-1.1,8.6,1.5,9.7,5.8
			c0.6,2.5,1.3,4.9,2,7.4c1.2,4.2-1.2,8.7-5.4,9.9C-656.8,598.2-657.5,598.3-658.3,598.3z M-254.6,586.4c-0.6,0-1.2-0.1-1.8-0.2
			c-4.3-1-7-5.3-6-9.6c0.6-2.5,1.1-5,1.6-7.5c0.8-4.3,5-7.1,9.3-6.3c4.3,0.8,7.2,5,6.3,9.3c-0.5,2.7-1.1,5.4-1.7,8.1
			C-247.7,583.9-251,586.4-254.6,586.4z M-665.8,559.4c-4.1,0-7.6-3.1-7.9-7.2c-0.3-2.7-0.5-5.5-0.6-8.2c-0.3-4.4,3.1-8.2,7.5-8.4
			c4.4-0.2,8.2,3.1,8.4,7.5c0.2,2.6,0.4,5.1,0.6,7.6c0.4,4.4-2.8,8.3-7.2,8.7C-665.3,559.4-665.6,559.4-665.8,559.4z M-249.4,547.1
			c-0.1,0-0.2,0-0.3,0c-4.4-0.2-7.8-3.9-7.7-8.3c0.1-2.5,0.1-5.1,0.1-7.6l0-0.8c0-4.4,3.6-8,8-8c4.4,0,8,3.6,8,8l0,0.6
			c0,3,0,5.7-0.2,8.5C-241.6,543.7-245.1,547.1-249.4,547.1z M-665.9,519.7c-0.2,0-0.5,0-0.7,0c-4.4-0.4-7.6-4.3-7.2-8.7
			c0.2-2.8,0.6-5.5,0.9-8.2c0.6-4.4,4.6-7.4,9-6.9c4.4,0.6,7.5,4.6,6.9,9c-0.3,2.5-0.6,5-0.8,7.6
			C-658.3,516.6-661.8,519.7-665.9,519.7z M-251.7,506.6c-3.9,0-7.3-2.8-7.9-6.7c-0.4-2.5-0.8-5-1.3-7.5c-0.9-4.3,2-8.5,6.3-9.4
			c4.4-0.9,8.5,2,9.4,6.3c0.5,2.7,1,5.4,1.4,8.1c0.7,4.4-2.3,8.4-6.7,9.1C-250.9,506.6-251.3,506.6-251.7,506.6z M-658.5,480.7
			c-0.7,0-1.5-0.1-2.2-0.3c-4.2-1.2-6.7-5.7-5.4-9.9c0.8-2.6,1.6-5.3,2.4-7.9c1.4-4.2,5.9-6.4,10.1-5.1c4.2,1.4,6.5,5.9,5.1,10.1
			c-0.8,2.4-1.6,4.8-2.3,7.3C-651.9,478.5-655.1,480.7-658.5,480.7z M-261.6,468.2c-3.3,0-6.3-2-7.5-5.2c-0.9-2.4-1.8-4.8-2.7-7.2
			c-1.7-4.1,0.3-8.7,4.4-10.4c4.1-1.7,8.7,0.3,10.4,4.4c1,2.5,2,5.1,2.9,7.7c1.5,4.1-0.6,8.7-4.8,10.2
			C-259.7,468-260.7,468.2-261.6,468.2z M-643.8,443.8c-1.2,0-2.5-0.3-3.6-0.9c-3.9-2-5.5-6.8-3.4-10.8c1.3-2.4,2.6-4.9,3.9-7.3
			c2.2-3.8,7-5.2,10.9-3c3.8,2.2,5.2,7,3,10.9c-1.3,2.2-2.5,4.5-3.6,6.7C-638.2,442.3-641,443.8-643.8,443.8z M-278.5,432.4
			c-2.7,0-5.4-1.4-6.9-3.9c-1.3-2.2-2.6-4.4-4-6.5c-2.4-3.7-1.3-8.6,2.4-11c3.7-2.4,8.6-1.3,11,2.4c1.5,2.3,2.9,4.6,4.4,7
			c2.3,3.8,1,8.7-2.8,11C-275.7,432-277.1,432.4-278.5,432.4z M-622.4,410.4c-1.7,0-3.5-0.6-4.9-1.7c-3.5-2.7-4.1-7.7-1.4-11.2
			c1.7-2.2,3.4-4.3,5.2-6.4c2.8-3.4,7.9-3.8,11.3-1c3.4,2.8,3.8,7.9,1,11.3c-1.6,1.9-3.3,3.9-4.8,6
			C-617.7,409.4-620.1,410.4-622.4,410.4z M-302,400.4c-2.2,0-4.4-0.9-6-2.7c-1.7-1.9-3.4-3.8-5.2-5.6c-3-3.2-2.9-8.2,0.2-11.3
			c3.2-3,8.2-2.9,11.3,0.2c1.9,2,3.8,4,5.6,6.1c2.9,3.3,2.6,8.4-0.7,11.3C-298.2,399.7-300.1,400.4-302,400.4z M-595.1,381.6
			c-2.2,0-4.4-0.9-6-2.7c-2.9-3.3-2.6-8.4,0.8-11.3c2.1-1.8,4.2-3.6,6.3-5.3c3.4-2.8,8.5-2.2,11.2,1.2c2.8,3.4,2.2,8.5-1.2,11.2
			c-2,1.6-3.9,3.2-5.9,4.9C-591.4,381-593.2,381.6-595.1,381.6z M-331.1,373.4c-1.7,0-3.4-0.5-4.9-1.6c-2-1.6-4.1-3.1-6.2-4.6
			c-3.6-2.6-4.4-7.5-1.9-11.1c2.6-3.6,7.5-4.5,11.1-1.9c2.2,1.6,4.5,3.2,6.6,4.9c3.5,2.7,4.2,7.7,1.5,11.2
			C-326.3,372.3-328.6,373.4-331.1,373.4z M-562.9,358.5c-2.8,0-5.4-1.4-6.9-4c-2.2-3.8-0.9-8.7,2.9-10.9c2.4-1.4,4.8-2.7,7.2-4
			c3.9-2.1,8.7-0.6,10.8,3.3c2.1,3.9,0.6,8.7-3.3,10.8c-2.3,1.2-4.5,2.4-6.7,3.7C-560.1,358.2-561.5,358.5-562.9,358.5z
			 M-364.7,352.3c-1.2,0-2.4-0.3-3.5-0.8c-2.3-1.1-4.6-2.3-7-3.3c-4-1.8-5.8-6.6-4-10.6c1.8-4,6.5-5.8,10.6-4c2.5,1.1,5,2.3,7.4,3.5
			c4,2,5.6,6.8,3.6,10.7C-358.9,350.7-361.7,352.3-364.7,352.3z M-526.9,341.9c-3.3,0-6.4-2.1-7.5-5.4c-1.5-4.2,0.7-8.7,4.9-10.2
			c2.6-0.9,5.2-1.8,7.8-2.6c4.2-1.3,8.7,1.1,10,5.3c1.3,4.2-1.1,8.7-5.3,10c-2.4,0.8-4.9,1.5-7.3,2.4
			C-525.1,341.8-526,341.9-526.9,341.9z M-401.7,338c-0.7,0-1.4-0.1-2.2-0.3c-2.4-0.7-4.9-1.3-7.4-1.9c-4.3-1-6.9-5.3-5.9-9.6
			c1-4.3,5.4-6.9,9.6-5.9c2.7,0.6,5.3,1.3,8,2.1c4.3,1.2,6.7,5.6,5.5,9.8C-395,335.7-398.2,338-401.7,338z M-488.3,332.5
			c-3.9,0-7.3-2.9-7.9-6.8c-0.6-4.4,2.4-8.4,6.8-9c2.7-0.4,5.4-0.7,8.2-1c4.6-0.4,8.3,2.7,8.8,7.1c0.5,4.4-2.7,8.3-7.1,8.8
			c-2.6,0.3-5.1,0.6-7.6,1C-487.6,332.5-487.9,332.5-488.3,332.5z M-440.8,331c-0.2,0-0.4,0-0.7,0c-2.5-0.2-5.1-0.4-7.6-0.5
			c-4.4-0.2-7.8-3.9-7.6-8.3c0.2-4.4,4.1-7.7,8.3-7.6c2.8,0.1,5.5,0.3,8.2,0.5c4.4,0.4,7.7,4.2,7.3,8.6
			C-433.2,327.9-436.6,331-440.8,331z"/>
	</g>
	<g>
		<path class="st3" d="M-446,703c-4.2,0-7.7-3.2-8-7.4c-0.3-4.4,3-8.2,7.4-8.5c2.5-0.2,5-0.4,7.5-0.7c4.4-0.6,8.4,2.6,8.9,7
			c0.5,4.4-2.6,8.4-7,8.9c-2.7,0.3-5.5,0.6-8.3,0.8C-445.6,703-445.8,703-446,703z M-477.6,702.3c-0.3,0-0.6,0-0.9-0.1
			c-2.8-0.3-5.5-0.7-8.3-1.2c-4.4-0.7-7.3-4.9-6.5-9.2c0.7-4.3,4.9-7.3,9.2-6.5c2.5,0.4,5,0.8,7.5,1.1c4.4,0.5,7.5,4.5,7,8.9
			C-470.2,699.3-473.6,702.3-477.6,702.3z M-407.1,695.4c-3.4,0-6.5-2.1-7.6-5.5c-1.4-4.2,0.9-8.7,5.1-10.1c2.4-0.8,4.8-1.6,7.1-2.5
			c4.1-1.6,8.7,0.5,10.3,4.6c1.6,4.1-0.5,8.7-4.6,10.3c-2.6,1-5.2,1.9-7.8,2.8C-405.4,695.3-406.3,695.4-407.1,695.4z M-516.1,692.9
			c-0.9,0-1.9-0.2-2.8-0.5c-2.6-1-5.2-2-7.8-3.2c-4-1.8-5.9-6.5-4.1-10.5c1.8-4,6.5-5.9,10.5-4.1c2.3,1,4.6,2,7,2.8
			c4.1,1.6,6.2,6.2,4.7,10.3C-509.8,690.9-512.9,692.9-516.1,692.9z M-371.2,678.6c-2.7,0-5.3-1.3-6.8-3.8c-2.3-3.8-1.2-8.7,2.6-11
			c2.1-1.3,4.2-2.7,6.3-4.1c3.6-2.5,8.6-1.6,11.1,2c2.5,3.6,1.6,8.6-2,11.1c-2.3,1.6-4.6,3.1-7,4.6
			C-368.3,678.3-369.8,678.6-371.2,678.6z M-551.2,674.5c-1.6,0-3.1-0.5-4.5-1.4c-2.3-1.6-4.6-3.2-6.8-4.9
			c-3.5-2.7-4.1-7.7-1.5-11.2c2.7-3.5,7.7-4.2,11.2-1.5c2,1.5,4,3,6.1,4.4c3.6,2.5,4.5,7.5,2,11.1
			C-546.2,673.3-548.7,674.5-551.2,674.5z M-340.4,653.8c-2,0-4-0.8-5.6-2.3c-3.2-3.1-3.2-8.1-0.1-11.3c1.8-1.8,3.5-3.7,5.1-5.5
			c2.9-3.3,8-3.6,11.3-0.7c3.3,2.9,3.6,8,0.7,11.3c-1.8,2.1-3.7,4.1-5.7,6.1C-336.2,653-338.3,653.8-340.4,653.8z M-580.8,648.2
			c-2.2,0-4.4-0.9-6-2.7c-1.8-2.1-3.6-4.2-5.4-6.3c-2.8-3.4-2.3-8.5,1.2-11.2c3.4-2.8,8.5-2.2,11.2,1.2c1.6,2,3.2,3.9,4.9,5.8
			c2.9,3.3,2.6,8.3-0.7,11.3C-577.1,647.6-579,648.2-580.8,648.2z M-316.3,622.4c-1.4,0-2.8-0.4-4.1-1.1c-3.8-2.2-5-7.1-2.8-10.9
			c1.3-2.2,2.5-4.4,3.7-6.6c2-3.9,6.9-5.4,10.8-3.4c3.9,2.1,5.4,6.9,3.4,10.8c-1.3,2.5-2.7,4.9-4.1,7.3
			C-311,621-313.6,622.4-316.3,622.4z M-603.4,615.7c-2.9,0-5.6-1.5-7.1-4.3c-1.3-2.4-2.5-4.9-3.7-7.4c-1.9-4-0.1-8.8,3.9-10.6
			c4-1.8,8.8-0.1,10.6,3.9c1.1,2.3,2.2,4.5,3.4,6.8c2.1,3.9,0.6,8.7-3.3,10.8C-600.9,615.4-602.1,615.7-603.4,615.7z M-300.5,586.1
			c-0.7,0-1.5-0.1-2.3-0.3c-4.2-1.2-6.6-5.7-5.4-9.9c0.7-2.4,1.4-4.9,2-7.3c1.1-4.3,5.4-6.9,9.7-5.8c4.3,1,6.9,5.4,5.8,9.7
			c-0.7,2.7-1.4,5.4-2.2,8C-293.9,583.8-297.1,586.1-300.5,586.1z M-617.5,578.7c-3.6,0-6.8-2.4-7.7-6.1c-0.7-2.7-1.3-5.4-1.8-8.1
			c-0.8-4.3,2-8.5,6.3-9.4c4.3-0.9,8.5,2,9.4,6.3c0.5,2.5,1,4.9,1.6,7.4c1.1,4.3-1.6,8.6-5.8,9.7
			C-616.2,578.7-616.9,578.7-617.5,578.7z M-293.9,547c-0.1,0-0.3,0-0.4,0c-4.4-0.2-7.8-4-7.6-8.4c0.1-2.5,0.2-5,0.2-7.6
			c0-4.4,3.6-8.3,8-8.3c4.4,0,8,3.2,8,7.7v0.7c0,2.8-0.1,5.6-0.2,8.3C-286.1,543.7-289.6,547-293.9,547z M-622.3,539.3
			c-4.4,0-8-3.4-8-7.8v-0.3c0-2.7,0.1-5.3,0.2-8c0.2-4.4,3.7-7.9,8.4-7.6c4.4,0.2,7.8,3.9,7.6,8.3c-0.1,2.4-0.2,4.8-0.2,7.2
			C-614.3,535.5-617.9,539.3-622.3,539.3z M-296.9,506.9c-3.7,0-7.1-2.6-7.8-6.4c-0.5-2.5-1-4.9-1.7-7.4c-1.1-4.3,1.5-8.6,5.8-9.7
			c4.3-1.1,8.6,1.5,9.7,5.8c0.7,2.7,1.3,5.4,1.8,8.1c0.9,4.3-1.9,8.5-6.3,9.4C-295.8,506.9-296.3,506.9-296.9,506.9z M-617.7,500.1
			c-0.6,0-1.3-0.1-1.9-0.2c-4.3-1-6.9-5.4-5.9-9.6c0.7-2.7,1.4-5.4,2.2-8.1c1.3-4.2,5.7-6.7,9.9-5.4c4.2,1.3,6.6,5.7,5.4,9.9
			c-0.7,2.4-1.4,4.8-2,7.3C-610.8,497.7-614,500.1-617.7,500.1z M-309.2,469.3c-3,0-5.9-1.7-7.2-4.6c-1.1-2.3-2.2-4.5-3.4-6.8
			c-2.1-3.9-0.6-8.7,3.3-10.8c3.9-2.1,8.7-0.6,10.8,3.3c1.3,2.4,2.5,4.9,3.7,7.4c1.9,4,0.2,8.7-3.8,10.6
			C-306.9,469.1-308.1,469.3-309.2,469.3z M-603.7,463.1c-1.2,0-2.5-0.3-3.7-0.9c-3.9-2.1-5.4-6.9-3.4-10.8c1.3-2.5,2.6-4.9,4-7.3
			c2.2-3.8,7.1-5.1,10.9-2.9c3.8,2.2,5.1,7.1,2.9,10.9c-1.3,2.2-2.5,4.4-3.7,6.6C-598.1,461.5-600.8,463.1-603.7,463.1z
			 M-330.2,435.8c-2.3,0-4.6-1-6.2-3c-1.6-2-3.2-3.9-4.9-5.7c-2.9-3.3-2.7-8.3,0.6-11.3c3.3-2.9,8.3-2.7,11.3,0.6
			c1.8,2.1,3.7,4.2,5.4,6.3c2.8,3.4,2.2,8.5-1.2,11.2C-326.7,435.2-328.5,435.8-330.2,435.8z M-581.3,430.5c-1.9,0-3.8-0.7-5.3-2
			c-3.3-2.9-3.6-8-0.7-11.3c1.8-2.1,3.7-4.1,5.6-6.1c3.1-3.2,8.1-3.3,11.3-0.2c3.2,3.1,3.3,8.1,0.2,11.3c-1.8,1.8-3.5,3.7-5.2,5.6
			C-576.9,429.5-579.1,430.5-581.3,430.5z M-358.7,408.2c-1.7,0-3.4-0.5-4.8-1.6c-2-1.5-4-3-6.1-4.4c-3.6-2.5-4.6-7.5-2.1-11.1
			c2.5-3.6,7.5-4.6,11.1-2.1c2.3,1.6,4.5,3.2,6.8,4.9c3.5,2.7,4.2,7.7,1.5,11.2C-353.9,407.1-356.3,408.2-358.7,408.2z
			 M-551.7,404.1c-2.5,0-5-1.2-6.6-3.4c-2.5-3.6-1.6-8.6,2-11.1c2.3-1.6,4.6-3.1,6.9-4.6c3.8-2.3,8.7-1.2,11,2.5
			c2.3,3.7,1.2,8.7-2.5,11c-2.1,1.3-4.2,2.7-6.3,4.2C-548.5,403.7-550.1,404.1-551.7,404.1z M-392.9,388.2c-1.1,0-2.1-0.2-3.2-0.7
			c-2.3-1-4.6-1.9-7-2.8c-4.1-1.6-6.2-6.2-4.7-10.3c1.5-4.1,6.1-6.2,10.3-4.7c2.6,1,5.2,2,7.7,3.1c4,1.8,5.9,6.5,4.2,10.5
			C-386.8,386.4-389.8,388.2-392.9,388.2z M-516.7,385.6c-3.2,0-6.2-2-7.5-5.1c-1.6-4.1,0.5-8.7,4.6-10.3c2.6-1,5.2-1.9,7.8-2.8
			c4.2-1.4,8.7,0.9,10.1,5.1c1.4,4.2-0.9,8.7-5.1,10.1c-2.4,0.8-4.8,1.6-7.1,2.5C-514.8,385.4-515.8,385.6-516.7,385.6z M-430.8,377
			c-0.4,0-0.9,0-1.3-0.1c-2.5-0.4-5-0.8-7.5-1.1c-4.4-0.5-7.5-4.5-7-8.9c0.5-4.4,4.5-7.5,8.9-7c2.8,0.3,5.5,0.7,8.2,1.2
			c4.4,0.7,7.3,4.8,6.6,9.2C-423.6,374.3-427,377-430.8,377z M-478.3,376c-4,0-7.4-3-7.9-7c-0.5-4.4,2.6-8.4,7-8.9
			c2.7-0.3,5.5-0.6,8.3-0.8c4.4-0.3,8.2,3,8.6,7.4c0.3,4.4-3,8.2-7.4,8.6c-2.5,0.2-5,0.4-7.5,0.7C-477.7,376-478,376-478.3,376z"/>
	</g>
</g>
<g>
	<g>
		<path class="st4" d="M403.5,552.2c-5.2,0-9.4-4.2-9.5-9.4c0-5.2,4.2-9.5,9.4-9.6c3,0,6.1-0.1,9.1-0.3c4.8-0.4,9.7,3.8,9.9,9
			c0.3,5.2-3.8,9.7-9,9.9C410.2,552.1,406.9,552.2,403.5,552.2C403.6,552.2,403.6,552.2,403.5,552.2z M365.9,549.8
			c-0.4,0-0.9,0-1.3-0.1c-3.2-0.5-6.5-1-9.7-1.6c-5.2-0.9-8.6-5.9-7.7-11c0.9-5.1,5.9-8.6,11-7.7c3,0.5,6,1,9,1.4
			c5.2,0.7,8.8,5.5,8.1,10.7C374.6,546.4,370.6,549.8,365.9,549.8z M450.4,547.3c-4.4,0-8.4-3.1-9.3-7.6c-1-5.1,2.3-10.1,7.4-11.2
			c3-0.6,5.9-1.3,8.9-2c5.1-1.3,10.2,1.9,11.5,7c1.2,5.1-1.9,10.2-7,11.5c-3.2,0.8-6.4,1.5-9.5,2.1
			C451.7,547.2,451,547.3,450.4,547.3z M320.1,538.7c-1,0-2.1-0.2-3.1-0.5c-3.1-1.1-6.2-2.2-9.3-3.4c-4.9-1.9-7.3-7.4-5.4-12.3
			c1.9-4.9,7.4-7.3,12.3-5.4c2.8,1.1,5.6,2.1,8.5,3.1c5,1.7,7.6,7.1,5.9,12C327.8,536.3,324.1,538.7,320.1,538.7z M495.5,533.6
			c-3.7,0-7.2-2.2-8.8-5.8c-2-4.8,0.3-10.4,5.1-12.4c2.8-1.2,5.6-2.4,8.3-3.6c4.8-2.2,10.4-0.1,12.6,4.7c2.2,4.8,0.1,10.4-4.7,12.6
			c-2.9,1.4-5.9,2.6-8.9,3.9C497.9,533.3,496.7,533.6,495.5,533.6z M277.2,519.2c-1.6,0-3.2-0.4-4.7-1.3c-2.8-1.6-5.6-3.3-8.4-5
			c-4.4-2.8-5.8-8.6-3-13.1c2.8-4.4,8.6-5.8,13.1-3c2.6,1.6,5.2,3.2,7.8,4.7c4.5,2.6,6.1,8.4,3.5,12.9
			C283.7,517.5,280.5,519.2,277.2,519.2z M537.1,511.6c-3.1,0-6.1-1.5-7.9-4.3c-2.9-4.4-1.7-10.3,2.7-13.1c2.5-1.7,5-3.4,7.5-5.1
			c4.3-3.1,10.2-2.1,13.2,2.2c3,4.3,2.1,10.2-2.2,13.2c-2.7,1.9-5.3,3.7-8.1,5.5C540.7,511,538.9,511.6,537.1,511.6z M238.8,491.9
			c-2.2,0-4.4-0.8-6.2-2.3c-2.5-2.1-4.9-4.3-7.3-6.6c-3.8-3.6-4-9.6-0.4-13.4c3.6-3.8,9.6-4,13.4-0.4c2.2,2.1,4.5,4.1,6.7,6.1
			c4,3.4,4.4,9.4,1,13.4C244.1,490.8,241.5,491.9,238.8,491.9z M573.8,482.1c-2.5,0-4.9-1-6.8-2.9c-3.6-3.8-3.6-9.8,0.2-13.4
			c2.2-2.1,4.3-4.3,6.4-6.4c3.6-3.8,9.6-3.9,13.4-0.3c3.8,3.6,3.9,9.6,0.3,13.4c-2.3,2.4-4.6,4.7-6.9,7
			C578.6,481.2,576.2,482.1,573.8,482.1z M206.3,457.8c-2.8,0-5.6-1.2-7.5-3.6c-2-2.6-4-5.1-5.9-7.8c-3.1-4.2-2.2-10.2,2.1-13.3
			s10.2-2.2,13.3,2.1c1.8,2.4,3.6,4.9,5.5,7.2c3.2,4.1,2.5,10.1-1.6,13.3C210.4,457.2,208.3,457.8,206.3,457.8z M604.3,446.2
			c-1.9,0-3.8-0.6-5.4-1.7c-4.3-3-5.3-8.9-2.3-13.2c1.7-2.5,3.4-5,5.1-7.5c2.8-4.4,8.7-5.7,13.1-2.8c4.4,2.8,5.7,8.7,2.8,13.1
			c-1.8,2.8-3.6,5.5-5.5,8.1C610.2,444.8,607.3,446.2,604.3,446.2z M180.7,418.3c-3.4,0-6.7-1.9-8.4-5.1c-1.5-2.9-2.9-5.8-4.3-8.8
			c-2.2-4.7-0.2-10.4,4.6-12.6c4.8-2.2,10.4-0.2,12.6,4.6c1.3,2.7,2.6,5.4,4,8.1c2.4,4.6,0.6,10.4-4,12.8
			C183.7,417.9,182.2,418.3,180.7,418.3z M627.5,405.1c-1.3,0-2.6-0.3-3.8-0.8c-4.8-2.1-6.9-7.7-4.8-12.5c1.2-2.8,2.4-5.6,3.5-8.4
			c2-4.9,7.5-7.2,12.3-5.3c4.9,2,7.2,7.5,5.3,12.3c-1.2,3-2.5,6.1-3.8,9C634.6,403.1,631.1,405.1,627.5,405.1z M163.1,374.6
			c-4.1,0-7.9-2.7-9.1-6.8c-0.9-3.1-1.8-6.3-2.6-9.4c-1.3-5.1,1.8-10.2,6.8-11.5c5.1-1.3,10.2,1.8,11.5,6.8c0.8,2.9,1.6,5.9,2.4,8.8
			c1.5,5-1.4,10.3-6.4,11.8C164.9,374.5,164,374.6,163.1,374.6z M642.5,360.4c-0.7,0-1.4-0.1-2.2-0.3c-5.1-1.2-8.3-6.3-7.1-11.4
			c0.7-2.9,1.3-5.9,1.9-8.9c1-5.2,6-8.5,11.1-7.5c5.1,1,8.5,6,7.5,11.1c-0.6,3.2-1.3,6.4-2,9.6C650.7,357.5,646.8,360.4,642.5,360.4
			z M154.2,328.3c-4.8,0-9-3.7-9.4-8.6c-0.3-3.2-0.6-6.5-0.8-9.7c-0.3-5.2,3.7-9.7,8.9-10c5.2-0.2,9.7,3.7,10,8.9
			c0.2,3,0.4,6,0.7,9.1c0.5,5.2-3.3,9.8-8.5,10.3C154.8,328.3,154.5,328.3,154.2,328.3z M648.7,313.7c-0.1,0-0.3,0-0.4,0
			c-5.2-0.2-9.3-4.6-9.1-9.8c0.1-3,0.2-6,0.2-9.1l0-1c0-5.2,4.2-9.5,9.5-9.5c5.2,0,9.5,4.2,9.5,9.5l0,0.7c0,3.5-0.1,6.8-0.2,10.1
			C658,309.7,653.8,313.7,648.7,313.7z M154.1,281.2c-0.3,0-0.6,0-0.9,0c-5.2-0.5-9.1-5.1-8.6-10.3c0.3-3.3,0.7-6.5,1.1-9.7
			c0.7-5.2,5.4-8.8,10.6-8.2c5.2,0.7,8.9,5.4,8.2,10.6c-0.4,3-0.7,6-1,9C163.1,277.5,158.9,281.2,154.1,281.2z M645.9,265.7
			c-4.6,0-8.6-3.3-9.4-8c-0.5-3-1-6-1.6-8.9c-1-5.1,2.3-10.1,7.5-11.1c5.2-1,10.1,2.4,11.1,7.5c0.6,3.2,1.2,6.4,1.7,9.7
			c0.8,5.2-2.7,10-7.9,10.8C646.9,265.7,646.4,265.7,645.9,265.7z M162.9,235c-0.9,0-1.8-0.1-2.6-0.4c-5-1.5-7.9-6.7-6.5-11.8
			c0.9-3.1,1.9-6.3,2.9-9.4c1.7-5,7-7.6,12-6c5,1.7,7.7,7,6,12c-1,2.9-1.9,5.8-2.7,8.7C170.8,232.3,167,235,162.9,235z M634.2,220.1
			c-3.9,0-7.5-2.4-8.9-6.2c-1-2.9-2.1-5.7-3.3-8.5c-2-4.9,0.4-10.4,5.2-12.3c4.9-2,10.4,0.4,12.3,5.2c1.2,3,2.4,6,3.5,9.1
			c1.8,4.9-0.7,10.4-5.7,12.2C636.4,219.9,635.3,220.1,634.2,220.1z M180.3,191.2c-1.5,0-2.9-0.3-4.3-1.1c-4.7-2.4-6.5-8.1-4.1-12.8
			c1.5-2.9,3-5.8,4.6-8.6c2.6-4.6,8.3-6.2,12.9-3.6c4.6,2.6,6.2,8.4,3.6,12.9c-1.5,2.6-2.9,5.3-4.3,8
			C187,189.3,183.7,191.2,180.3,191.2z M614.1,177.5c-3.2,0-6.4-1.6-8.2-4.6c-1.5-2.6-3.1-5.2-4.8-7.7c-2.9-4.4-1.6-10.3,2.8-13.1
			c4.4-2.9,10.3-1.6,13.1,2.8c1.8,2.7,3.5,5.5,5.2,8.3c2.7,4.5,1.2,10.3-3.3,13C617.4,177.1,615.7,177.5,614.1,177.5z M205.7,151.5
			c-2,0-4.1-0.7-5.8-2c-4.1-3.2-4.8-9.2-1.6-13.3c2-2.6,4.1-5.1,6.2-7.6c3.4-4,9.3-4.5,13.4-1.1c4,3.4,4.5,9.4,1.1,13.4
			c-2,2.3-3.9,4.7-5.8,7.1C211.3,150.2,208.5,151.5,205.7,151.5z M586.2,139.6c-2.6,0-5.2-1.1-7.1-3.2c-2-2.3-4-4.5-6.1-6.6
			c-3.6-3.8-3.5-9.8,0.3-13.4c3.8-3.6,9.8-3.5,13.4,0.3c2.3,2.4,4.5,4.8,6.7,7.2c3.5,3.9,3.1,9.9-0.8,13.4
			C590.7,138.8,588.5,139.6,586.2,139.6z M238.1,117.3c-2.6,0-5.3-1.1-7.1-3.3c-3.4-4-3-9.9,0.9-13.4c2.5-2.1,5-4.2,7.5-6.3
			c4.1-3.3,10-2.6,13.3,1.4c3.3,4.1,2.6,10-1.4,13.3c-2.4,1.9-4.7,3.8-7,5.8C242.6,116.5,240.4,117.3,238.1,117.3z M551.7,107.5
			c-2,0-4-0.6-5.8-2c-2.4-1.8-4.8-3.6-7.3-5.4c-4.3-3-5.3-9-2.2-13.2c3-4.3,8.9-5.3,13.2-2.2c2.7,1.9,5.3,3.8,7.9,5.8
			c4.2,3.2,4.9,9.1,1.8,13.3C557.4,106.2,554.6,107.5,551.7,107.5z M276.4,89.9c-3.3,0-6.5-1.7-8.2-4.7c-2.6-4.5-1.1-10.3,3.4-13
			c2.8-1.6,5.6-3.2,8.5-4.7c4.6-2.5,10.4-0.7,12.8,3.9c2.5,4.6,0.7,10.4-3.9,12.8c-2.7,1.4-5.3,2.9-7.9,4.4
			C279.7,89.5,278,89.9,276.4,89.9z M511.8,82.5c-1.4,0-2.8-0.3-4.2-1c-2.7-1.4-5.5-2.7-8.3-3.9c-4.8-2.2-6.9-7.8-4.7-12.6
			c2.2-4.8,7.8-6.9,12.6-4.7c3,1.3,5.9,2.8,8.8,4.2c4.7,2.3,6.6,8,4.3,12.7C518.6,80.5,515.3,82.5,511.8,82.5z M319.2,70.2
			c-3.9,0-7.6-2.5-9-6.4c-1.7-4.9,0.9-10.4,5.8-12.1c3.1-1.1,6.2-2.1,9.3-3c5-1.6,10.3,1.3,11.9,6.3c1.5,5-1.3,10.3-6.3,11.8
			c-2.9,0.9-5.8,1.8-8.6,2.8C321.3,70,320.2,70.2,319.2,70.2z M467.8,65.5c-0.9,0-1.7-0.1-2.6-0.4c-2.9-0.8-5.8-1.6-8.8-2.3
			c-5.1-1.2-8.2-6.3-7-11.4c1.2-5.1,6.4-8.2,11.4-7c3.2,0.8,6.3,1.6,9.5,2.5c5,1.4,8,6.6,6.6,11.7C475.8,62.8,471.9,65.5,467.8,65.5
			z M364.9,59c-4.6,0-8.7-3.4-9.4-8.1c-0.8-5.2,2.8-10,8-10.7c3.2-0.5,6.5-0.9,9.7-1.2c5.4-0.5,9.9,3.2,10.4,8.4
			c0.6,5.2-3.2,9.9-8.4,10.4c-3,0.3-6,0.7-9,1.1C365.9,58.9,365.4,59,364.9,59z M421.4,57.2c-0.3,0-0.5,0-0.8,0
			c-3-0.2-6-0.4-9.1-0.6c-5.2-0.2-9.3-4.7-9.1-9.9c0.2-5.2,4.8-9.1,9.9-9.1c3.3,0.1,6.5,0.4,9.8,0.6c5.2,0.4,9.1,5,8.7,10.2
			C430.5,53.5,426.3,57.2,421.4,57.2z"/>
	</g>
	<g>
		<path class="st4" d="M415.3,498.9c-4.9,0-9.1-3.8-9.4-8.8c-0.4-5.2,3.6-9.8,8.8-10.1c3-0.2,6-0.5,8.9-0.9
			c5.2-0.7,9.9,3.1,10.6,8.3c0.6,5.2-3.1,9.9-8.3,10.6c-3.3,0.4-6.5,0.7-9.9,1C415.7,498.9,415.5,498.9,415.3,498.9z M377.7,498
			c-0.4,0-0.7,0-1.1-0.1c-3.3-0.4-6.6-0.9-9.8-1.4c-5.2-0.9-8.6-5.8-7.8-10.9c0.9-5.2,5.8-8.6,10.9-7.8c2.9,0.5,5.9,0.9,8.9,1.3
			c5.2,0.6,8.9,5.3,8.3,10.5C386.5,494.5,382.4,498,377.7,498z M461.4,489.9c-4,0-7.7-2.5-9-6.5c-1.6-5,1.1-10.3,6.1-12
			c2.9-0.9,5.7-1.9,8.5-3c4.9-1.9,10.4,0.6,12.2,5.5c1.9,4.9-0.6,10.4-5.5,12.2c-3.1,1.2-6.2,2.3-9.3,3.3
			C463.4,489.7,462.4,489.9,461.4,489.9z M332,486.9c-1.1,0-2.2-0.2-3.3-0.6c-3.1-1.2-6.2-2.4-9.2-3.7c-4.8-2.1-7-7.7-4.9-12.5
			c2.1-4.8,7.7-7,12.5-4.9c2.7,1.2,5.5,2.3,8.3,3.4c4.9,1.8,7.4,7.3,5.5,12.2C339.4,484.5,335.8,486.9,332,486.9z M504,470
			c-3.2,0-6.3-1.6-8.1-4.5c-2.8-4.5-1.4-10.3,3.1-13.1c2.5-1.6,5-3.2,7.5-4.9c4.3-3,10.2-1.9,13.2,2.4c3,4.3,1.9,10.2-2.4,13.2
			c-2.7,1.9-5.5,3.7-8.3,5.4C507.4,469.5,505.7,470,504,470z M290.3,465c-1.9,0-3.7-0.5-5.4-1.7c-2.7-1.9-5.4-3.8-8-5.8
			c-4.2-3.2-4.9-9.1-1.7-13.3c3.2-4.2,9.1-4.9,13.3-1.7c2.4,1.8,4.8,3.6,7.2,5.3c4.3,3,5.4,8.9,2.4,13.2
			C296.3,463.6,293.3,465,290.3,465z M540.6,440.5c-2.4,0-4.8-0.9-6.6-2.7c-3.8-3.7-3.8-9.7-0.2-13.4c2.1-2.1,4.1-4.3,6.1-6.6
			c3.5-3.9,9.5-4.3,13.4-0.8c3.9,3.5,4.3,9.5,0.8,13.4c-2.2,2.5-4.4,4.9-6.7,7.2C545.6,439.6,543.1,440.5,540.6,440.5z M255.1,433.9
			c-2.6,0-5.2-1.1-7.1-3.2c-2.2-2.4-4.3-5-6.4-7.5c-3.3-4.1-2.7-10,1.4-13.3c4.1-3.3,10-2.7,13.3,1.4c1.9,2.3,3.8,4.6,5.8,6.9
			c3.5,3.9,3.1,9.9-0.8,13.4C259.6,433.1,257.3,433.9,255.1,433.9z M569.2,403.2c-1.6,0-3.3-0.4-4.8-1.3c-4.5-2.7-6-8.5-3.3-13
			c1.5-2.6,3-5.2,4.4-7.8c2.4-4.6,8.1-6.4,12.8-4c4.6,2.4,6.4,8.2,4,12.8c-1.5,2.9-3.1,5.8-4.8,8.7
			C575.6,401.5,572.4,403.2,569.2,403.2z M228.3,395.3c-3.4,0-6.7-1.8-8.4-5.1c-1.5-2.9-3-5.8-4.4-8.8c-2.2-4.8-0.2-10.4,4.6-12.6
			c4.8-2.2,10.4-0.2,12.6,4.6c1.3,2.7,2.6,5.4,4,8c2.5,4.6,0.7,10.4-4,12.8C231.3,394.9,229.8,395.3,228.3,395.3z M588,360.1
			c-0.9,0-1.8-0.1-2.7-0.4c-5-1.5-7.9-6.8-6.4-11.8c0.8-2.9,1.6-5.8,2.4-8.7c1.3-5.1,6.4-8.2,11.5-6.9c5.1,1.2,8.2,6.4,6.9,11.5
			c-0.8,3.2-1.6,6.4-2.6,9.5C595.8,357.4,592.1,360.1,588,360.1z M211.6,351.4c-4.3,0-8.1-2.9-9.2-7.2c-0.8-3.2-1.5-6.4-2.1-9.6
			c-1-5.1,2.3-10.1,7.5-11.2c5.1-1,10.1,2.3,11.2,7.5c0.6,3,1.2,5.9,1.9,8.8c1.3,5.1-1.8,10.2-6.9,11.5
			C213.1,351.3,212.3,351.4,211.6,351.4z M595.8,313.7c-0.2,0-0.3,0-0.5,0c-5.2-0.3-9.3-4.7-9-9.9c0.1-3,0.2-6,0.2-9
			c0-5.2,4.2-9.9,9.5-9.9c5.2,0,9.5,3.9,9.5,9.1v0.8c0,3.3-0.1,6.6-0.2,9.9C605.1,309.8,600.9,313.7,595.8,313.7z M205.8,304.5
			c-5.2,0-9.5-4-9.5-9.3v-0.4c0-3.2,0.1-6.3,0.2-9.5c0.3-5.2,4.4-9.4,9.9-9c5.2,0.2,9.3,4.7,9,9.9c-0.1,2.9-0.2,5.7-0.2,8.6
			C215.3,300.1,211.1,304.5,205.8,304.5z M592.3,266.1c-4.4,0-8.4-3.1-9.3-7.6c-0.6-2.9-1.2-5.9-2-8.8c-1.3-5.1,1.8-10.2,6.9-11.5
			c5.1-1.3,10.2,1.8,11.5,6.9c0.8,3.2,1.5,6.4,2.2,9.6c1,5.1-2.3,10.1-7.4,11.2C593.6,266,592.9,266.1,592.3,266.1z M211.4,258
			c-0.7,0-1.5-0.1-2.2-0.3c-5.1-1.2-8.2-6.4-7-11.4c0.8-3.2,1.6-6.4,2.6-9.6c1.5-5,6.8-7.9,11.8-6.4c5,1.5,7.9,6.8,6.4,11.8
			c-0.8,2.8-1.6,5.7-2.3,8.6C219.5,255.1,215.7,258,211.4,258z M577.6,221.4c-3.6,0-7-2-8.6-5.4c-1.3-2.7-2.6-5.4-4-8
			c-2.5-4.6-0.7-10.4,4-12.8c4.6-2.5,10.4-0.7,12.8,4c1.5,2.9,3,5.8,4.4,8.8c2.2,4.7,0.2,10.4-4.5,12.6
			C580.4,221.1,579,221.4,577.6,221.4z M227.9,214c-1.5,0-3-0.4-4.4-1.1c-4.6-2.4-6.4-8.2-4-12.8c1.5-2.9,3.1-5.8,4.8-8.6
			c2.6-4.5,8.5-6.1,13-3.4c4.5,2.6,6,8.4,3.4,13c-1.5,2.6-3,5.2-4.4,7.9C234.6,212.2,231.4,214,227.9,214z M552.7,181.6
			c-2.8,0-5.5-1.2-7.4-3.5c-1.9-2.3-3.8-4.6-5.8-6.8c-3.5-3.9-3.1-9.9,0.8-13.4c3.9-3.5,9.9-3.2,13.4,0.8c2.2,2.5,4.3,5,6.4,7.5
			c3.3,4.1,2.6,10-1.4,13.3C556.9,180.9,554.7,181.6,552.7,181.6z M254.6,175.3c-2.2,0-4.5-0.8-6.3-2.4c-3.9-3.5-4.3-9.5-0.8-13.4
			c2.2-2.5,4.4-4.9,6.7-7.2c3.6-3.8,9.7-3.9,13.4-0.2c3.8,3.6,3.9,9.6,0.2,13.4c-2.1,2.2-4.1,4.4-6.1,6.6
			C259.8,174.2,257.2,175.3,254.6,175.3z M518.9,148.9c-2,0-4-0.6-5.7-1.9c-2.4-1.8-4.8-3.6-7.3-5.2c-4.3-3-5.4-8.9-2.5-13.2
			c3-4.3,8.9-5.4,13.2-2.5c2.7,1.9,5.4,3.8,8,5.8c4.2,3.2,5,9.1,1.8,13.3C524.6,147.6,521.8,148.9,518.9,148.9z M289.7,144
			c-3,0-6-1.4-7.8-4.1c-3-4.3-1.9-10.2,2.4-13.2c2.7-1.9,5.4-3.7,8.2-5.4c4.5-2.8,10.3-1.4,13.1,3c2.8,4.4,1.4,10.3-3,13.1
			c-2.5,1.6-5,3.2-7.5,4.9C293.5,143.4,291.6,144,289.7,144z M478.3,125.1c-1.3,0-2.5-0.3-3.8-0.8c-2.7-1.2-5.5-2.3-8.3-3.4
			c-4.9-1.8-7.4-7.3-5.5-12.2c1.8-4.9,7.3-7.4,12.2-5.5c3.1,1.2,6.1,2.4,9.2,3.7c4.8,2.1,7,7.7,4.9,12.5
			C485.5,123,482,125.1,478.3,125.1z M331.2,122c-3.8,0-7.4-2.3-8.9-6.1c-1.9-4.9,0.6-10.4,5.5-12.2c3.1-1.2,6.2-2.3,9.3-3.3
			c5-1.6,10.3,1.1,12,6.1c1.6,5-1.1,10.3-6.1,12c-2.8,0.9-5.7,1.9-8.4,3C333.5,121.8,332.4,122,331.2,122z M433.2,111.9
			c-0.5,0-1,0-1.5-0.1c-3-0.5-5.9-0.9-8.9-1.3c-5.2-0.6-8.9-5.3-8.3-10.5c0.6-5.2,5.3-8.9,10.5-8.3c3.3,0.4,6.5,0.9,9.8,1.4
			c5.2,0.8,8.7,5.7,7.8,10.9C441.8,108.6,437.8,111.9,433.2,111.9z M376.9,110.7c-4.7,0-8.8-3.5-9.4-8.3c-0.6-5.2,3.1-9.9,8.3-10.6
			c3.2-0.4,6.5-0.7,9.8-1c5.2-0.4,9.8,3.5,10.2,8.7c0.4,5.2-3.5,9.8-8.7,10.2c-3,0.2-6,0.5-8.9,0.9
			C377.6,110.6,377.2,110.7,376.9,110.7z"/>
	</g>
</g>
<g>
	
		<ellipse transform="matrix(0.7071 -0.7071 0.7071 0.7071 -342.872 1108.6559)" class="st3" cx="1166.8" cy="968.2" rx="183" ry="183"/>
	<g>
		<path class="st5" d="M1225.6,1263.3c-102.3,0-185.5-83.2-185.5-185.5c0-102.3,83.2-185.5,185.5-185.5
			c102.3,0,185.5,83.2,185.5,185.5C1411.1,1180.1,1327.9,1263.3,1225.6,1263.3z M1225.6,897.3c-99.5,0-180.5,81-180.5,180.5
			c0,99.5,81,180.5,180.5,180.5s180.5-81,180.5-180.5C1406.1,978.3,1325.2,897.3,1225.6,897.3z"/>
	</g>
	<g>
		<rect x="1156.3" y="1016.4" class="st5" width="205" height="5"/>
	</g>
	<g>
		<rect x="1156.3" y="1002.4" class="st5" width="205" height="5"/>
	</g>
</g>
<g class="st6">
	<defs>
		<path id="SVGID_3_" class="st6" d="M2271.2,439.4c-56.7-36-128.8-46.7-193.5-28.6c-64.7,18.1-120.8,64.7-150.5,124.9
			c-10.3,20.8-19.5,45.2-40.7,54.6c-15.8,7-34.5,3.4-50.2-4c-15.6-7.4-29.3-18.4-44.4-26.9c-53.7-30.4-124.9-26.6-175,9.4
			c-50.1,36-76.4,102.3-64.6,162.9h718.9V439.4z"/>
	</defs>
	<clipPath id="SVGID_4_">
		<use xlink:href="#SVGID_3_"  style="overflow:visible;"/>
	</clipPath>
	<g class="st7">
		<line class="st8" x1="1286.2" y1="891.5" x2="2515.8" y2="-158.4"/>
		<line class="st8" x1="1311.4" y1="919.3" x2="2541" y2="-130.6"/>
		<line class="st8" x1="1336.6" y1="947.1" x2="2566.2" y2="-102.8"/>
		<line class="st8" x1="1361.8" y1="974.9" x2="2591.4" y2="-75"/>
		<line class="st8" x1="1387" y1="1002.7" x2="2616.6" y2="-47.2"/>
		<line class="st8" x1="1412.2" y1="1030.5" x2="2641.8" y2="-19.5"/>
		<line class="st8" x1="1437.4" y1="1058.3" x2="2667" y2="8.3"/>
		<line class="st8" x1="1462.6" y1="1086" x2="2692.2" y2="36.1"/>
		<line class="st8" x1="1487.9" y1="1113.8" x2="2717.4" y2="63.9"/>
		<line class="st8" x1="1513.1" y1="1141.6" x2="2742.7" y2="91.7"/>
		<line class="st8" x1="1538.3" y1="1169.4" x2="2767.9" y2="119.5"/>
		<line class="st8" x1="1563.5" y1="1197.2" x2="2793.1" y2="147.3"/>
		<line class="st8" x1="1588.7" y1="1225" x2="2818.3" y2="175.1"/>
		<line class="st8" x1="1613.9" y1="1252.8" x2="2843.5" y2="202.9"/>
	</g>
</g>
<g>
	<g>
		<g>
			<polygon class="st2" points="899.2,-97.5 883.6,-111.7 932.5,-165.8 883.6,-219.8 899.2,-234 961,-165.8 			"/>
		</g>
		<g>
			<polygon class="st2" points="959.9,-97.5 944.3,-111.7 993.2,-165.8 944.3,-219.8 959.9,-234 1021.7,-165.8 			"/>
		</g>
		<g>
			<polygon class="st2" points="1020.6,-97.5 1004.9,-111.7 1053.9,-165.8 1004.9,-219.8 1020.6,-234 1082.3,-165.8 			"/>
		</g>
		<g>
			<polygon class="st2" points="1081.2,-97.5 1065.6,-111.7 1114.6,-165.8 1065.6,-219.8 1081.2,-234 1143,-165.8 			"/>
		</g>
		<g>
			<polygon class="st2" points="1141.9,-97.5 1126.3,-111.7 1175.2,-165.8 1126.3,-219.8 1141.9,-234 1203.7,-165.8 			"/>
		</g>
		<g>
			<polygon class="st2" points="1202.6,-97.5 1186.9,-111.7 1235.9,-165.8 1186.9,-219.8 1202.6,-234 1264.3,-165.8 			"/>
		</g>
		<g>
			<polygon class="st2" points="1263.2,-97.5 1247.6,-111.7 1296.6,-165.8 1247.6,-219.8 1263.2,-234 1325,-165.8 			"/>
		</g>
		<g>
			<polygon class="st2" points="1323.9,-97.5 1308.3,-111.7 1357.2,-165.8 1308.3,-219.8 1323.9,-234 1385.7,-165.8 			"/>
		</g>
		<g>
			<polygon class="st2" points="1323.9,-97.5 1308.3,-111.7 1357.2,-165.8 1308.3,-219.8 1323.9,-234 1385.7,-165.8 			"/>
		</g>
		<g>
			<polygon class="st2" points="1384.6,-97.5 1369,-111.7 1417.9,-165.8 1369,-219.8 1384.6,-234 1446.3,-165.8 			"/>
		</g>
		<g>
			<polygon class="st2" points="1445.2,-97.5 1429.6,-111.7 1478.6,-165.8 1429.6,-219.8 1445.2,-234 1507,-165.8 			"/>
		</g>
		<g>
			<polygon class="st2" points="1505.9,-97.5 1490.3,-111.7 1539.2,-165.8 1490.3,-219.8 1505.9,-234 1567.7,-165.8 			"/>
		</g>
	</g>
</g>
<g>
	<g>
		<polygon class="st3" points="1372.6,117.1 1356.8,102.8 1406.2,48.3 1356.8,-6.3 1372.6,-20.5 1434.9,48.3 		"/>
	</g>
	<g>
		<polygon class="st3" points="1433.8,117.1 1418,102.8 1467.4,48.3 1418,-6.3 1433.8,-20.5 1496,48.3 		"/>
	</g>
	<g>
		<polygon class="st3" points="1494.9,117.1 1479.2,102.8 1528.5,48.3 1479.2,-6.3 1494.9,-20.5 1557.2,48.3 		"/>
	</g>
	<g>
		<polygon class="st3" points="1556.1,117.1 1540.4,102.8 1589.7,48.3 1540.4,-6.3 1556.1,-20.5 1618.4,48.3 		"/>
	</g>
	<g>
		<polygon class="st3" points="1617.3,117.1 1601.5,102.8 1650.9,48.3 1601.5,-6.3 1617.3,-20.5 1679.6,48.3 		"/>
	</g>
	<g>
		<polygon class="st3" points="1678.5,117.1 1662.7,102.8 1712.1,48.3 1662.7,-6.3 1678.5,-20.5 1740.8,48.3 		"/>
	</g>
	<g>
		<polygon class="st3" points="1739.7,117.1 1723.9,102.8 1773.3,48.3 1723.9,-6.3 1739.7,-20.5 1801.9,48.3 		"/>
	</g>
	<g>
		<polygon class="st3" points="1800.8,117.1 1785.1,102.8 1834.4,48.3 1785.1,-6.3 1800.8,-20.5 1863.1,48.3 		"/>
	</g>
	<g>
		<polygon class="st3" points="1800.8,117.1 1785.1,102.8 1834.4,48.3 1785.1,-6.3 1800.8,-20.5 1863.1,48.3 		"/>
	</g>
	<g>
		<polygon class="st3" points="1862,117.1 1846.3,102.8 1895.6,48.3 1846.3,-6.3 1862,-20.5 1924.3,48.3 		"/>
	</g>
	<g>
		<polygon class="st3" points="1923.2,117.1 1907.4,102.8 1956.8,48.3 1907.4,-6.3 1923.2,-20.5 1985.5,48.3 		"/>
	</g>
	<g>
		<polygon class="st3" points="1984.4,117.1 1968.6,102.8 2018,48.3 1968.6,-6.3 1984.4,-20.5 2046.6,48.3 		"/>
	</g>
</g>
<g>
	<circle class="st2" cx="329.9" cy="1410.3" r="171.9"/>
	<g>
		<path class="st5" d="M555.6,1593.3c-100.9,0-183-82.1-183-183s82.1-183,183-183s183,82.1,183,183S656.5,1593.3,555.6,1593.3z
			 M555.6,1249.6c-88.6,0-160.7,72.1-160.7,160.7c0,88.6,72.1,160.7,160.7,160.7s160.7-72.1,160.7-160.7
			C716.3,1321.7,644.2,1249.6,555.6,1249.6z"/>
	</g>
</g>
<ellipse transform="matrix(0.7071 -0.7071 0.7071 0.7071 -17.0801 974.2894)" class="st2" cx="1167.5" cy="507.8" rx="183" ry="183"/>
<g>
	<g>
		<path class="st9" d="M1429.6,1915.8c-151.9,0-275.5-123.6-275.5-275.5s123.6-275.5,275.5-275.5s275.5,123.6,275.5,275.5
			S1581.5,1915.8,1429.6,1915.8z M1429.6,1423.4c-119.6,0-217,97.3-217,217c0,119.6,97.3,217,217,217c119.6,0,217-97.3,217-217
			C1646.6,1520.7,1549.3,1423.4,1429.6,1423.4z"/>
	</g>
</g>
<g>
	<path class="st3" d="M1802.1,1330.4c-139.3,0-252.6-113.3-252.6-252.6c0-139.3,113.3-252.6,252.6-252.6
		c139.3,0,252.6,113.3,252.6,252.6C2054.7,1217.1,1941.4,1330.4,1802.1,1330.4z M1802.1,901.5c-97.2,0-176.3,79.1-176.3,176.3
		c0,97.2,79.1,176.3,176.3,176.3c97.2,0,176.3-79.1,176.3-176.3C1978.4,980.6,1899.3,901.5,1802.1,901.5z"/>
</g>
<g>
	<g>
		<g>
			<g>
				<g>
					<path class="st9" d="M-472.3,1069.4L-472.3,1069.4c0-6.5,5.3-11.7,11.7-11.7l0,0c6.5,0,11.7,5.3,11.7,11.7l0,0
						c0,6.5-5.3,11.7-11.7,11.7l0,0C-467.1,1081.1-472.3,1075.9-472.3,1069.4z"/>
					<path class="st9" d="M-504.4,1069.4L-504.4,1069.4c0-6.5,5.3-11.7,11.7-11.7l0,0c6.5,0,11.7,5.3,11.7,11.7l0,0
						c0,6.5-5.3,11.7-11.7,11.7l0,0C-499.1,1081.1-504.4,1075.9-504.4,1069.4z"/>
					<path class="st9" d="M-472.3,1101.1L-472.3,1101.1c0-6.5,5.3-11.7,11.7-11.7l0,0c6.5,0,11.7,5.3,11.7,11.7l0,0
						c0,6.5-5.3,11.7-11.7,11.7l0,0C-467.1,1112.8-472.3,1107.6-472.3,1101.1z"/>
					<path class="st9" d="M-504.4,1101.1L-504.4,1101.1c0-6.5,5.3-11.7,11.7-11.7l0,0c6.5,0,11.7,5.3,11.7,11.7l0,0
						c0,6.5-5.3,11.7-11.7,11.7l0,0C-499.1,1112.8-504.4,1107.6-504.4,1101.1z"/>
					<path class="st9" d="M-472.3,1132.1L-472.3,1132.1c0-6.5,5.3-11.7,11.7-11.7l0,0c6.5,0,11.7,5.3,11.7,11.7l0,0
						c0,6.5-5.3,11.7-11.7,11.7l0,0C-467.1,1143.8-472.3,1138.6-472.3,1132.1z"/>
					<path class="st9" d="M-504.4,1132.1L-504.4,1132.1c0-6.5,5.3-11.7,11.7-11.7l0,0c6.5,0,11.7,5.3,11.7,11.7l0,0
						c0,6.5-5.3,11.7-11.7,11.7l0,0C-499.1,1143.8-504.4,1138.6-504.4,1132.1z"/>
					<path class="st9" d="M-472.3,1163.8L-472.3,1163.8c0-6.5,5.3-11.7,11.7-11.7l0,0c6.5,0,11.7,5.3,11.7,11.7l0,0
						c0,6.5-5.3,11.7-11.7,11.7l0,0C-467.1,1175.5-472.3,1170.3-472.3,1163.8z"/>
					<path class="st9" d="M-504.4,1163.8L-504.4,1163.8c0-6.5,5.3-11.7,11.7-11.7l0,0c6.5,0,11.7,5.3,11.7,11.7l0,0
						c0,6.5-5.3,11.7-11.7,11.7l0,0C-499.1,1175.5-504.4,1170.3-504.4,1163.8z"/>
					<path class="st9" d="M-472.3,1195.5L-472.3,1195.5c0-6.5,5.3-11.7,11.7-11.7l0,0c6.5,0,11.7,5.3,11.7,11.7l0,0
						c0,6.5-5.3,11.7-11.7,11.7l0,0C-467.1,1207.3-472.3,1202-472.3,1195.5z"/>
					<path class="st9" d="M-504.4,1195.5L-504.4,1195.5c0-6.5,5.3-11.7,11.7-11.7l0,0c6.5,0,11.7,5.3,11.7,11.7l0,0
						c0,6.5-5.3,11.7-11.7,11.7l0,0C-499.1,1207.3-504.4,1202-504.4,1195.5z"/>
					<path class="st9" d="M-472.3,1227.2L-472.3,1227.2c0-6.5,5.3-11.7,11.7-11.7l0,0c6.5,0,11.7,5.3,11.7,11.7l0,0
						c0,6.5-5.3,11.7-11.7,11.7l0,0C-467.1,1239-472.3,1233.7-472.3,1227.2z"/>
					<path class="st9" d="M-504.4,1227.2L-504.4,1227.2c0-6.5,5.3-11.7,11.7-11.7l0,0c6.5,0,11.7,5.3,11.7,11.7l0,0
						c0,6.5-5.3,11.7-11.7,11.7l0,0C-499.1,1239-504.4,1233.7-504.4,1227.2z"/>
					<path class="st9" d="M-472.3,1258.2L-472.3,1258.2c0-6.5,5.3-11.7,11.7-11.7l0,0c6.5,0,11.7,5.3,11.7,11.7l0,0
						c0,6.5-5.3,11.7-11.7,11.7l0,0C-467.1,1270-472.3,1264.7-472.3,1258.2z"/>
					<path class="st9" d="M-504.4,1258.2L-504.4,1258.2c0-6.5,5.3-11.7,11.7-11.7l0,0c6.5,0,11.7,5.3,11.7,11.7l0,0
						c0,6.5-5.3,11.7-11.7,11.7l0,0C-499.1,1270-504.4,1264.7-504.4,1258.2z"/>
					<path class="st9" d="M-472.3,1289.9L-472.3,1289.9c0-6.5,5.3-11.7,11.7-11.7l0,0c6.5,0,11.7,5.3,11.7,11.7l0,0
						c0,6.5-5.3,11.7-11.7,11.7l0,0C-467.1,1301.7-472.3,1296.4-472.3,1289.9z"/>
					<path class="st9" d="M-504.4,1289.9L-504.4,1289.9c0-6.5,5.3-11.7,11.7-11.7l0,0c6.5,0,11.7,5.3,11.7,11.7l0,0
						c0,6.5-5.3,11.7-11.7,11.7l0,0C-499.1,1301.7-504.4,1296.4-504.4,1289.9z"/>
					<path class="st9" d="M-472.3,1290.4L-472.3,1290.4c0-6.5,5.3-11.7,11.7-11.7l0,0c6.5,0,11.7,5.3,11.7,11.7l0,0
						c0,6.5-5.3,11.7-11.7,11.7l0,0C-467.1,1302.1-472.3,1296.9-472.3,1290.4z"/>
					<path class="st9" d="M-504.4,1290.4L-504.4,1290.4c0-6.5,5.3-11.7,11.7-11.7l0,0c6.5,0,11.7,5.3,11.7,11.7l0,0
						c0,6.5-5.3,11.7-11.7,11.7l0,0C-499.1,1302.1-504.4,1296.9-504.4,1290.4z"/>
					<path class="st9" d="M-472.3,1322.1L-472.3,1322.1c0-6.5,5.3-11.7,11.7-11.7l0,0c6.5,0,11.7,5.3,11.7,11.7l0,0
						c0,6.5-5.3,11.7-11.7,11.7l0,0C-467.1,1333.9-472.3,1328.6-472.3,1322.1z"/>
					<path class="st9" d="M-504.4,1322.1L-504.4,1322.1c0-6.5,5.3-11.7,11.7-11.7l0,0c6.5,0,11.7,5.3,11.7,11.7l0,0
						c0,6.5-5.3,11.7-11.7,11.7l0,0C-499.1,1333.9-504.4,1328.6-504.4,1322.1z"/>
					<path class="st9" d="M-472.3,1353.1L-472.3,1353.1c0-6.5,5.3-11.7,11.7-11.7l0,0c6.5,0,11.7,5.3,11.7,11.7l0,0
						c0,6.5-5.3,11.7-11.7,11.7l0,0C-467.1,1364.8-472.3,1359.6-472.3,1353.1z"/>
					<path class="st9" d="M-504.4,1353.1L-504.4,1353.1c0-6.5,5.3-11.7,11.7-11.7l0,0c6.5,0,11.7,5.3,11.7,11.7l0,0
						c0,6.5-5.3,11.7-11.7,11.7l0,0C-499.1,1364.8-504.4,1359.6-504.4,1353.1z"/>
				</g>
			</g>
			<g>
				<g>
					<path class="st9" d="M-536.4,1069.4L-536.4,1069.4c0-6.5,5.3-11.7,11.7-11.7l0,0c6.5,0,11.7,5.3,11.7,11.7l0,0
						c0,6.5-5.3,11.7-11.7,11.7l0,0C-531.1,1081.1-536.4,1075.9-536.4,1069.4z"/>
					<path class="st9" d="M-568.4,1069.4L-568.4,1069.4c0-6.5,5.3-11.7,11.7-11.7l0,0c6.5,0,11.7,5.3,11.7,11.7l0,0
						c0,6.5-5.3,11.7-11.7,11.7l0,0C-563.2,1081.1-568.4,1075.9-568.4,1069.4z"/>
					<path class="st9" d="M-536.4,1101.1L-536.4,1101.1c0-6.5,5.3-11.7,11.7-11.7l0,0c6.5,0,11.7,5.3,11.7,11.7l0,0
						c0,6.5-5.3,11.7-11.7,11.7l0,0C-531.1,1112.8-536.4,1107.6-536.4,1101.1z"/>
					<path class="st9" d="M-568.4,1101.1L-568.4,1101.1c0-6.5,5.3-11.7,11.7-11.7l0,0c6.5,0,11.7,5.3,11.7,11.7l0,0
						c0,6.5-5.3,11.7-11.7,11.7l0,0C-563.2,1112.8-568.4,1107.6-568.4,1101.1z"/>
					<path class="st9" d="M-536.4,1132.1L-536.4,1132.1c0-6.5,5.3-11.7,11.7-11.7l0,0c6.5,0,11.7,5.3,11.7,11.7l0,0
						c0,6.5-5.3,11.7-11.7,11.7l0,0C-531.1,1143.8-536.4,1138.6-536.4,1132.1z"/>
					<path class="st9" d="M-568.4,1132.1L-568.4,1132.1c0-6.5,5.3-11.7,11.7-11.7l0,0c6.5,0,11.7,5.3,11.7,11.7l0,0
						c0,6.5-5.3,11.7-11.7,11.7l0,0C-563.2,1143.8-568.4,1138.6-568.4,1132.1z"/>
					<path class="st9" d="M-536.4,1163.8L-536.4,1163.8c0-6.5,5.3-11.7,11.7-11.7l0,0c6.5,0,11.7,5.3,11.7,11.7l0,0
						c0,6.5-5.3,11.7-11.7,11.7l0,0C-531.1,1175.5-536.4,1170.3-536.4,1163.8z"/>
					<path class="st9" d="M-568.4,1163.8L-568.4,1163.8c0-6.5,5.3-11.7,11.7-11.7l0,0c6.5,0,11.7,5.3,11.7,11.7l0,0
						c0,6.5-5.3,11.7-11.7,11.7l0,0C-563.2,1175.5-568.4,1170.3-568.4,1163.8z"/>
					<path class="st9" d="M-536.4,1195.5L-536.4,1195.5c0-6.5,5.3-11.7,11.7-11.7l0,0c6.5,0,11.7,5.3,11.7,11.7l0,0
						c0,6.5-5.3,11.7-11.7,11.7l0,0C-531.1,1207.3-536.4,1202-536.4,1195.5z"/>
					<path class="st9" d="M-568.4,1195.5L-568.4,1195.5c0-6.5,5.3-11.7,11.7-11.7l0,0c6.5,0,11.7,5.3,11.7,11.7l0,0
						c0,6.5-5.3,11.7-11.7,11.7l0,0C-563.2,1207.3-568.4,1202-568.4,1195.5z"/>
					<path class="st9" d="M-536.4,1227.2L-536.4,1227.2c0-6.5,5.3-11.7,11.7-11.7l0,0c6.5,0,11.7,5.3,11.7,11.7l0,0
						c0,6.5-5.3,11.7-11.7,11.7l0,0C-531.1,1239-536.4,1233.7-536.4,1227.2z"/>
					<path class="st9" d="M-568.4,1227.2L-568.4,1227.2c0-6.5,5.3-11.7,11.7-11.7l0,0c6.5,0,11.7,5.3,11.7,11.7l0,0
						c0,6.5-5.3,11.7-11.7,11.7l0,0C-563.2,1239-568.4,1233.7-568.4,1227.2z"/>
					<path class="st9" d="M-536.4,1258.2L-536.4,1258.2c0-6.5,5.3-11.7,11.7-11.7l0,0c6.5,0,11.7,5.3,11.7,11.7l0,0
						c0,6.5-5.3,11.7-11.7,11.7l0,0C-531.1,1270-536.4,1264.7-536.4,1258.2z"/>
					<path class="st9" d="M-568.4,1258.2L-568.4,1258.2c0-6.5,5.3-11.7,11.7-11.7l0,0c6.5,0,11.7,5.3,11.7,11.7l0,0
						c0,6.5-5.3,11.7-11.7,11.7l0,0C-563.2,1270-568.4,1264.7-568.4,1258.2z"/>
					<path class="st9" d="M-536.4,1289.9L-536.4,1289.9c0-6.5,5.3-11.7,11.7-11.7l0,0c6.5,0,11.7,5.3,11.7,11.7l0,0
						c0,6.5-5.3,11.7-11.7,11.7l0,0C-531.1,1301.7-536.4,1296.4-536.4,1289.9z"/>
					<path class="st9" d="M-568.4,1289.9L-568.4,1289.9c0-6.5,5.3-11.7,11.7-11.7l0,0c6.5,0,11.7,5.3,11.7,11.7l0,0
						c0,6.5-5.3,11.7-11.7,11.7l0,0C-563.2,1301.7-568.4,1296.4-568.4,1289.9z"/>
					<path class="st9" d="M-536.4,1290.4L-536.4,1290.4c0-6.5,5.3-11.7,11.7-11.7l0,0c6.5,0,11.7,5.3,11.7,11.7l0,0
						c0,6.5-5.3,11.7-11.7,11.7l0,0C-531.1,1302.1-536.4,1296.9-536.4,1290.4z"/>
					<path class="st9" d="M-568.4,1290.4L-568.4,1290.4c0-6.5,5.3-11.7,11.7-11.7l0,0c6.5,0,11.7,5.3,11.7,11.7l0,0
						c0,6.5-5.3,11.7-11.7,11.7l0,0C-563.2,1302.1-568.4,1296.9-568.4,1290.4z"/>
					<path class="st9" d="M-536.4,1322.1L-536.4,1322.1c0-6.5,5.3-11.7,11.7-11.7l0,0c6.5,0,11.7,5.3,11.7,11.7l0,0
						c0,6.5-5.3,11.7-11.7,11.7l0,0C-531.1,1333.9-536.4,1328.6-536.4,1322.1z"/>
					<path class="st9" d="M-568.4,1322.1L-568.4,1322.1c0-6.5,5.3-11.7,11.7-11.7l0,0c6.5,0,11.7,5.3,11.7,11.7l0,0
						c0,6.5-5.3,11.7-11.7,11.7l0,0C-563.2,1333.9-568.4,1328.6-568.4,1322.1z"/>
					<path class="st9" d="M-536.4,1353.1L-536.4,1353.1c0-6.5,5.3-11.7,11.7-11.7l0,0c6.5,0,11.7,5.3,11.7,11.7l0,0
						c0,6.5-5.3,11.7-11.7,11.7l0,0C-531.1,1364.8-536.4,1359.6-536.4,1353.1z"/>
					<path class="st9" d="M-568.4,1353.1L-568.4,1353.1c0-6.5,5.3-11.7,11.7-11.7l0,0c6.5,0,11.7,5.3,11.7,11.7l0,0
						c0,6.5-5.3,11.7-11.7,11.7l0,0C-563.2,1364.8-568.4,1359.6-568.4,1353.1z"/>
				</g>
			</g>
		</g>
	</g>
	<g>
		<g>
			<g>
				<g>
					<path class="st9" d="M-344.5,1069.4L-344.5,1069.4c0-6.5,5.3-11.7,11.7-11.7l0,0c6.5,0,11.7,5.3,11.7,11.7l0,0
						c0,6.5-5.3,11.7-11.7,11.7l0,0C-339.3,1081.1-344.5,1075.9-344.5,1069.4z"/>
					<path class="st9" d="M-376.6,1069.4L-376.6,1069.4c0-6.5,5.3-11.7,11.7-11.7l0,0c6.5,0,11.7,5.3,11.7,11.7l0,0
						c0,6.5-5.3,11.7-11.7,11.7l0,0C-371.3,1081.1-376.6,1075.9-376.6,1069.4z"/>
					<path class="st9" d="M-344.5,1101.1L-344.5,1101.1c0-6.5,5.3-11.7,11.7-11.7l0,0c6.5,0,11.7,5.3,11.7,11.7l0,0
						c0,6.5-5.3,11.7-11.7,11.7l0,0C-339.3,1112.8-344.5,1107.6-344.5,1101.1z"/>
					<path class="st9" d="M-376.6,1101.1L-376.6,1101.1c0-6.5,5.3-11.7,11.7-11.7l0,0c6.5,0,11.7,5.3,11.7,11.7l0,0
						c0,6.5-5.3,11.7-11.7,11.7l0,0C-371.3,1112.8-376.6,1107.6-376.6,1101.1z"/>
					<path class="st9" d="M-344.5,1132.1L-344.5,1132.1c0-6.5,5.3-11.7,11.7-11.7l0,0c6.5,0,11.7,5.3,11.7,11.7l0,0
						c0,6.5-5.3,11.7-11.7,11.7l0,0C-339.3,1143.8-344.5,1138.6-344.5,1132.1z"/>
					<path class="st9" d="M-376.6,1132.1L-376.6,1132.1c0-6.5,5.3-11.7,11.7-11.7l0,0c6.5,0,11.7,5.3,11.7,11.7l0,0
						c0,6.5-5.3,11.7-11.7,11.7l0,0C-371.3,1143.8-376.6,1138.6-376.6,1132.1z"/>
					<path class="st9" d="M-344.5,1163.8L-344.5,1163.8c0-6.5,5.3-11.7,11.7-11.7l0,0c6.5,0,11.7,5.3,11.7,11.7l0,0
						c0,6.5-5.3,11.7-11.7,11.7l0,0C-339.3,1175.5-344.5,1170.3-344.5,1163.8z"/>
					<path class="st9" d="M-376.6,1163.8L-376.6,1163.8c0-6.5,5.3-11.7,11.7-11.7l0,0c6.5,0,11.7,5.3,11.7,11.7l0,0
						c0,6.5-5.3,11.7-11.7,11.7l0,0C-371.3,1175.5-376.6,1170.3-376.6,1163.8z"/>
					<path class="st9" d="M-344.5,1195.5L-344.5,1195.5c0-6.5,5.3-11.7,11.7-11.7l0,0c6.5,0,11.7,5.3,11.7,11.7l0,0
						c0,6.5-5.3,11.7-11.7,11.7l0,0C-339.3,1207.3-344.5,1202-344.5,1195.5z"/>
					<path class="st9" d="M-376.6,1195.5L-376.6,1195.5c0-6.5,5.3-11.7,11.7-11.7l0,0c6.5,0,11.7,5.3,11.7,11.7l0,0
						c0,6.5-5.3,11.7-11.7,11.7l0,0C-371.3,1207.3-376.6,1202-376.6,1195.5z"/>
					<path class="st9" d="M-344.5,1227.2L-344.5,1227.2c0-6.5,5.3-11.7,11.7-11.7l0,0c6.5,0,11.7,5.3,11.7,11.7l0,0
						c0,6.5-5.3,11.7-11.7,11.7l0,0C-339.3,1239-344.5,1233.7-344.5,1227.2z"/>
					<path class="st9" d="M-376.6,1227.2L-376.6,1227.2c0-6.5,5.3-11.7,11.7-11.7l0,0c6.5,0,11.7,5.3,11.7,11.7l0,0
						c0,6.5-5.3,11.7-11.7,11.7l0,0C-371.3,1239-376.6,1233.7-376.6,1227.2z"/>
					<path class="st9" d="M-344.5,1258.2L-344.5,1258.2c0-6.5,5.3-11.7,11.7-11.7l0,0c6.5,0,11.7,5.3,11.7,11.7l0,0
						c0,6.5-5.3,11.7-11.7,11.7l0,0C-339.3,1270-344.5,1264.7-344.5,1258.2z"/>
					<path class="st9" d="M-376.6,1258.2L-376.6,1258.2c0-6.5,5.3-11.7,11.7-11.7l0,0c6.5,0,11.7,5.3,11.7,11.7l0,0
						c0,6.5-5.3,11.7-11.7,11.7l0,0C-371.3,1270-376.6,1264.7-376.6,1258.2z"/>
					<path class="st9" d="M-344.5,1289.9L-344.5,1289.9c0-6.5,5.3-11.7,11.7-11.7l0,0c6.5,0,11.7,5.3,11.7,11.7l0,0
						c0,6.5-5.3,11.7-11.7,11.7l0,0C-339.3,1301.7-344.5,1296.4-344.5,1289.9z"/>
					<path class="st9" d="M-376.6,1289.9L-376.6,1289.9c0-6.5,5.3-11.7,11.7-11.7l0,0c6.5,0,11.7,5.3,11.7,11.7l0,0
						c0,6.5-5.3,11.7-11.7,11.7l0,0C-371.3,1301.7-376.6,1296.4-376.6,1289.9z"/>
					<path class="st9" d="M-344.5,1290.4L-344.5,1290.4c0-6.5,5.3-11.7,11.7-11.7l0,0c6.5,0,11.7,5.3,11.7,11.7l0,0
						c0,6.5-5.3,11.7-11.7,11.7l0,0C-339.3,1302.1-344.5,1296.9-344.5,1290.4z"/>
					<path class="st9" d="M-376.6,1290.4L-376.6,1290.4c0-6.5,5.3-11.7,11.7-11.7l0,0c6.5,0,11.7,5.3,11.7,11.7l0,0
						c0,6.5-5.3,11.7-11.7,11.7l0,0C-371.3,1302.1-376.6,1296.9-376.6,1290.4z"/>
					<path class="st9" d="M-344.5,1322.1L-344.5,1322.1c0-6.5,5.3-11.7,11.7-11.7l0,0c6.5,0,11.7,5.3,11.7,11.7l0,0
						c0,6.5-5.3,11.7-11.7,11.7l0,0C-339.3,1333.9-344.5,1328.6-344.5,1322.1z"/>
					<path class="st9" d="M-376.6,1322.1L-376.6,1322.1c0-6.5,5.3-11.7,11.7-11.7l0,0c6.5,0,11.7,5.3,11.7,11.7l0,0
						c0,6.5-5.3,11.7-11.7,11.7l0,0C-371.3,1333.9-376.6,1328.6-376.6,1322.1z"/>
					<path class="st9" d="M-344.5,1353.1L-344.5,1353.1c0-6.5,5.3-11.7,11.7-11.7l0,0c6.5,0,11.7,5.3,11.7,11.7l0,0
						c0,6.5-5.3,11.7-11.7,11.7l0,0C-339.3,1364.8-344.5,1359.6-344.5,1353.1z"/>
					<path class="st9" d="M-376.6,1353.1L-376.6,1353.1c0-6.5,5.3-11.7,11.7-11.7l0,0c6.5,0,11.7,5.3,11.7,11.7l0,0
						c0,6.5-5.3,11.7-11.7,11.7l0,0C-371.3,1364.8-376.6,1359.6-376.6,1353.1z"/>
				</g>
			</g>
			<g>
				<g>
					<path class="st9" d="M-408.6,1069.4L-408.6,1069.4c0-6.5,5.3-11.7,11.7-11.7h0c6.5,0,11.7,5.3,11.7,11.7l0,0
						c0,6.5-5.3,11.7-11.7,11.7h0C-403.3,1081.1-408.6,1075.9-408.6,1069.4z"/>
					<path class="st9" d="M-440.6,1069.4L-440.6,1069.4c0-6.5,5.3-11.7,11.7-11.7l0,0c6.5,0,11.7,5.3,11.7,11.7l0,0
						c0,6.5-5.3,11.7-11.7,11.7l0,0C-435.4,1081.1-440.6,1075.9-440.6,1069.4z"/>
					<path class="st9" d="M-408.6,1101.1L-408.6,1101.1c0-6.5,5.3-11.7,11.7-11.7h0c6.5,0,11.7,5.3,11.7,11.7l0,0
						c0,6.5-5.3,11.7-11.7,11.7h0C-403.3,1112.8-408.6,1107.6-408.6,1101.1z"/>
					<path class="st9" d="M-440.6,1101.1L-440.6,1101.1c0-6.5,5.3-11.7,11.7-11.7l0,0c6.5,0,11.7,5.3,11.7,11.7l0,0
						c0,6.5-5.3,11.7-11.7,11.7l0,0C-435.4,1112.8-440.6,1107.6-440.6,1101.1z"/>
					<path class="st9" d="M-408.6,1132.1L-408.6,1132.1c0-6.5,5.3-11.7,11.7-11.7h0c6.5,0,11.7,5.3,11.7,11.7l0,0
						c0,6.5-5.3,11.7-11.7,11.7h0C-403.3,1143.8-408.6,1138.6-408.6,1132.1z"/>
					<path class="st9" d="M-440.6,1132.1L-440.6,1132.1c0-6.5,5.3-11.7,11.7-11.7l0,0c6.5,0,11.7,5.3,11.7,11.7l0,0
						c0,6.5-5.3,11.7-11.7,11.7l0,0C-435.4,1143.8-440.6,1138.6-440.6,1132.1z"/>
					<path class="st9" d="M-408.6,1163.8L-408.6,1163.8c0-6.5,5.3-11.7,11.7-11.7h0c6.5,0,11.7,5.3,11.7,11.7l0,0
						c0,6.5-5.3,11.7-11.7,11.7h0C-403.3,1175.5-408.6,1170.3-408.6,1163.8z"/>
					<path class="st9" d="M-440.6,1163.8L-440.6,1163.8c0-6.5,5.3-11.7,11.7-11.7l0,0c6.5,0,11.7,5.3,11.7,11.7l0,0
						c0,6.5-5.3,11.7-11.7,11.7l0,0C-435.4,1175.5-440.6,1170.3-440.6,1163.8z"/>
					<path class="st9" d="M-408.6,1195.5L-408.6,1195.5c0-6.5,5.3-11.7,11.7-11.7h0c6.5,0,11.7,5.3,11.7,11.7l0,0
						c0,6.5-5.3,11.7-11.7,11.7h0C-403.3,1207.3-408.6,1202-408.6,1195.5z"/>
					<path class="st9" d="M-440.6,1195.5L-440.6,1195.5c0-6.5,5.3-11.7,11.7-11.7l0,0c6.5,0,11.7,5.3,11.7,11.7l0,0
						c0,6.5-5.3,11.7-11.7,11.7l0,0C-435.4,1207.3-440.6,1202-440.6,1195.5z"/>
					<path class="st9" d="M-408.6,1227.2L-408.6,1227.2c0-6.5,5.3-11.7,11.7-11.7h0c6.5,0,11.7,5.3,11.7,11.7l0,0
						c0,6.5-5.3,11.7-11.7,11.7h0C-403.3,1239-408.6,1233.7-408.6,1227.2z"/>
					<path class="st9" d="M-440.6,1227.2L-440.6,1227.2c0-6.5,5.3-11.7,11.7-11.7l0,0c6.5,0,11.7,5.3,11.7,11.7l0,0
						c0,6.5-5.3,11.7-11.7,11.7l0,0C-435.4,1239-440.6,1233.7-440.6,1227.2z"/>
					<path class="st9" d="M-408.6,1258.2L-408.6,1258.2c0-6.5,5.3-11.7,11.7-11.7h0c6.5,0,11.7,5.3,11.7,11.7l0,0
						c0,6.5-5.3,11.7-11.7,11.7h0C-403.3,1270-408.6,1264.7-408.6,1258.2z"/>
					<path class="st9" d="M-440.6,1258.2L-440.6,1258.2c0-6.5,5.3-11.7,11.7-11.7l0,0c6.5,0,11.7,5.3,11.7,11.7l0,0
						c0,6.5-5.3,11.7-11.7,11.7l0,0C-435.4,1270-440.6,1264.7-440.6,1258.2z"/>
					<path class="st9" d="M-408.6,1289.9L-408.6,1289.9c0-6.5,5.3-11.7,11.7-11.7h0c6.5,0,11.7,5.3,11.7,11.7l0,0
						c0,6.5-5.3,11.7-11.7,11.7h0C-403.3,1301.7-408.6,1296.4-408.6,1289.9z"/>
					<path class="st9" d="M-440.6,1289.9L-440.6,1289.9c0-6.5,5.3-11.7,11.7-11.7l0,0c6.5,0,11.7,5.3,11.7,11.7l0,0
						c0,6.5-5.3,11.7-11.7,11.7l0,0C-435.4,1301.7-440.6,1296.4-440.6,1289.9z"/>
					<path class="st9" d="M-408.6,1290.4L-408.6,1290.4c0-6.5,5.3-11.7,11.7-11.7h0c6.5,0,11.7,5.3,11.7,11.7l0,0
						c0,6.5-5.3,11.7-11.7,11.7h0C-403.3,1302.1-408.6,1296.9-408.6,1290.4z"/>
					<path class="st9" d="M-440.6,1290.4L-440.6,1290.4c0-6.5,5.3-11.7,11.7-11.7l0,0c6.5,0,11.7,5.3,11.7,11.7l0,0
						c0,6.5-5.3,11.7-11.7,11.7l0,0C-435.4,1302.1-440.6,1296.9-440.6,1290.4z"/>
					<path class="st9" d="M-408.6,1322.1L-408.6,1322.1c0-6.5,5.3-11.7,11.7-11.7h0c6.5,0,11.7,5.3,11.7,11.7l0,0
						c0,6.5-5.3,11.7-11.7,11.7h0C-403.3,1333.9-408.6,1328.6-408.6,1322.1z"/>
					<path class="st9" d="M-440.6,1322.1L-440.6,1322.1c0-6.5,5.3-11.7,11.7-11.7l0,0c6.5,0,11.7,5.3,11.7,11.7l0,0
						c0,6.5-5.3,11.7-11.7,11.7l0,0C-435.4,1333.9-440.6,1328.6-440.6,1322.1z"/>
					<path class="st9" d="M-408.6,1353.1L-408.6,1353.1c0-6.5,5.3-11.7,11.7-11.7h0c6.5,0,11.7,5.3,11.7,11.7l0,0
						c0,6.5-5.3,11.7-11.7,11.7h0C-403.3,1364.8-408.6,1359.6-408.6,1353.1z"/>
					<path class="st9" d="M-440.6,1353.1L-440.6,1353.1c0-6.5,5.3-11.7,11.7-11.7l0,0c6.5,0,11.7,5.3,11.7,11.7l0,0
						c0,6.5-5.3,11.7-11.7,11.7l0,0C-435.4,1364.8-440.6,1359.6-440.6,1353.1z"/>
				</g>
			</g>
		</g>
	</g>
</g>
<g>
	<g>
		<rect x="-392.8" y="865.6" class="st3" width="229.7" height="6.1"/>
	</g>
	<g>
		<rect x="-392.8" y="849.9" class="st3" width="229.7" height="6.1"/>
	</g>
</g>
<g>
	<g>
		<polygon class="st3" points="-113.8,1091 -161.2,1091 -161.2,1082.2 -122.6,1082.2 -122.6,1043.7 -113.8,1043.7 		"/>
	</g>
	<g>
		<polygon class="st3" points="-133.2,1071.6 -180.5,1071.6 -180.5,1062.8 -142,1062.8 -142,1024.3 -133.2,1024.3 		"/>
	</g>
</g>
</svg>
