<?xml version="1.0" encoding="utf-8"?>
<!-- Generator: Adobe Illustrator 22.0.1, SVG Export Plug-In . SVG Version: 6.00 Build 0)  -->
<svg version="1.0" id="Camada_1" xmlns="http://www.w3.org/2000/svg" xmlns:xlink="http://www.w3.org/1999/xlink" x="0px" y="0px"
	 viewBox="0 0 778.3 587" style="enable-background:new 0 0 778.3 587;" xml:space="preserve">
<style type="text/css">
	.st0{fill:#2C4E7E;}
	.st1{clip-path:url(#SVGID_2_);}
	.st2{fill:#EFCB4B;}
	.st3{fill:#C85044;}
	.st4{fill:#D8D8D8;}
	.st5{fill:#FFFFFD;}
	.st6{opacity:0.5;}
	.st7{clip-path:url(#SVGID_4_);}
	.st8{fill:none;stroke:#FFFFFF;stroke-width:4;stroke-miterlimit:10;}
	.st9{fill:#D6DFE6;}
</style>
<g>
	
		<ellipse transform="matrix(0.7071 -0.7071 0.7071 0.7071 -428.4002 665.4631)" class="st0" cx="589.1" cy="849.9" rx="192.9" ry="192.9"/>
	<g>
		<defs>
			<circle id="SVGID_1_" cx="350.6" cy="849.5" r="192.6"/>
		</defs>
		<clipPath id="SVGID_2_">
			<use xlink:href="#SVGID_1_"  style="overflow:visible;"/>
		</clipPath>
		<g class="st1">
			<g>
				<g>
					
						<rect x="-326.4" y="618.1" transform="matrix(0.7606 -0.6493 0.6493 0.7606 -328.1628 356.2155)" class="st2" width="1290.6" height="9.8"/>
				</g>
				<g>
					
						<rect x="-306.3" y="640.3" transform="matrix(0.7606 -0.6493 0.6493 0.7606 -337.748 374.5917)" class="st2" width="1290.6" height="9.8"/>
				</g>
				<g>
					
						<rect x="-286.2" y="662.5" transform="matrix(0.7606 -0.6493 0.6493 0.7606 -347.3312 392.9698)" class="st2" width="1290.6" height="9.8"/>
				</g>
				<g>
					
						<rect x="-266" y="684.7" transform="matrix(0.7606 -0.6493 0.6493 0.7606 -356.9149 411.3439)" class="st2" width="1290.6" height="9.8"/>
				</g>
				<g>
					
						<rect x="-245.9" y="706.9" transform="matrix(0.7606 -0.6493 0.6493 0.7606 -366.4987 429.7202)" class="st2" width="1290.6" height="9.8"/>
				</g>
				<g>
					
						<rect x="-225.8" y="729" transform="matrix(0.7606 -0.6493 0.6493 0.7606 -376.0809 448.0958)" class="st2" width="1290.6" height="9.8"/>
				</g>
				<g>
					
						<rect x="-205.7" y="751.2" transform="matrix(0.7606 -0.6493 0.6493 0.7606 -385.6653 466.4706)" class="st2" width="1290.6" height="9.8"/>
				</g>
				<g>
					
						<rect x="-185.5" y="773.4" transform="matrix(0.7606 -0.6493 0.6493 0.7606 -395.2468 484.8454)" class="st2" width="1290.6" height="9.8"/>
				</g>
				<g>
					
						<rect x="-165.4" y="795.6" transform="matrix(0.7606 -0.6493 0.6493 0.7606 -404.8321 503.2227)" class="st2" width="1290.6" height="9.8"/>
				</g>
				<g>
					
						<rect x="-145.3" y="817.8" transform="matrix(0.7606 -0.6493 0.6493 0.7606 -414.4166 521.5972)" class="st2" width="1290.6" height="9.8"/>
				</g>
				<g>
					
						<rect x="-125.2" y="839.9" transform="matrix(0.7606 -0.6493 0.6493 0.7606 -423.9998 539.9749)" class="st2" width="1290.6" height="9.8"/>
				</g>
				<g>
					
						<rect x="-105.1" y="862.1" transform="matrix(0.7606 -0.6493 0.6493 0.7606 -433.5834 558.3494)" class="st2" width="1290.6" height="9.8"/>
				</g>
				<g>
					
						<rect x="-84.9" y="884.3" transform="matrix(0.7606 -0.6493 0.6493 0.7606 -443.1667 576.7271)" class="st2" width="1290.6" height="9.8"/>
				</g>
				<g>
					
						<rect x="-64.8" y="906.5" transform="matrix(0.7606 -0.6493 0.6493 0.7606 -452.7494 595.1012)" class="st2" width="1290.6" height="9.8"/>
				</g>
			</g>
		</g>
	</g>
</g>
<g>
	<g>
		<path class="st3" d="M-455.8,747.9c-4.4,0-7.9-3.5-8-7.9c0-4.4,3.5-8,7.9-8.1c2.6,0,5.1-0.1,7.6-0.2c4.1-0.4,8.1,3.2,8.4,7.6
			c0.2,4.4-3.2,8.1-7.6,8.4C-450.2,747.8-453,747.9-455.8,747.9C-455.8,747.9-455.8,747.9-455.8,747.9z M-487.5,745.8
			c-0.4,0-0.7,0-1.1-0.1c-2.7-0.4-5.4-0.8-8.1-1.3c-4.3-0.8-7.2-4.9-6.5-9.3c0.8-4.3,4.9-7.2,9.3-6.5c2.5,0.5,5,0.9,7.6,1.2
			c4.4,0.6,7.4,4.7,6.8,9C-480.2,743-483.6,745.8-487.5,745.8z M-416.4,743.8c-3.7,0-7-2.6-7.8-6.4c-0.9-4.3,1.9-8.5,6.2-9.4
			c2.5-0.5,5-1.1,7.5-1.7c4.3-1.1,8.6,1.6,9.6,5.9c1,4.3-1.6,8.6-5.9,9.6c-2.7,0.6-5.3,1.2-8,1.8
			C-415.3,743.7-415.8,743.8-416.4,743.8z M-526.1,736.6c-0.9,0-1.7-0.1-2.6-0.4c-2.6-0.9-5.2-1.8-7.8-2.9
			c-4.1-1.6-6.1-6.2-4.5-10.3c1.6-4.1,6.2-6.1,10.3-4.5c2.4,0.9,4.8,1.8,7.2,2.6c4.2,1.4,6.4,6,5,10.1
			C-519.7,734.5-522.8,736.6-526.1,736.6z M-378.4,732.2c-3.1,0-6.1-1.8-7.4-4.9c-1.7-4.1,0.2-8.8,4.3-10.4c2.4-1,4.7-2,7-3
			c4-1.8,8.7-0.1,10.6,3.9c1.8,4,0.1,8.8-3.9,10.6c-2.5,1.1-5,2.2-7.5,3.3C-376.3,732-377.4,732.2-378.4,732.2z M-562.2,720.1
			c-1.3,0-2.7-0.3-4-1.1c-2.4-1.4-4.7-2.8-7.1-4.3c-3.7-2.3-4.9-7.3-2.5-11c2.3-3.7,7.3-4.9,11-2.5c2.2,1.3,4.4,2.7,6.6,4
			c3.8,2.2,5.1,7.1,2.9,10.9C-556.8,718.6-559.4,720.1-562.2,720.1z M-343.4,713.7c-2.6,0-5.1-1.3-6.7-3.6
			c-2.4-3.7-1.4-8.6,2.3-11.1c2.1-1.4,4.2-2.8,6.3-4.3c3.6-2.6,8.6-1.7,11.1,1.9c2.6,3.6,1.7,8.6-1.9,11.1c-2.2,1.6-4.5,3.2-6.8,4.7
			C-340.3,713.2-341.9,713.7-343.4,713.7z M-594.6,697.1c-1.9,0-3.7-0.6-5.2-1.9c-2.1-1.8-4.1-3.6-6.2-5.5c-3.2-3-3.4-8.1-0.4-11.3
			c3-3.2,8.1-3.4,11.3-0.4c1.9,1.7,3.8,3.4,5.7,5.1c3.3,2.9,3.7,7.9,0.8,11.3C-590.1,696.1-592.3,697.1-594.6,697.1z M-312.5,688.8
			c-2.1,0-4.2-0.8-5.7-2.4c-3.1-3.2-3-8.2,0.2-11.3c1.8-1.8,3.6-3.6,5.4-5.4c3-3.2,8.1-3.3,11.3-0.3c3.2,3,3.3,8.1,0.3,11.3
			c-1.9,2-3.8,3.9-5.8,5.9C-308.4,688.1-310.5,688.8-312.5,688.8z M-621.9,668.4c-2.4,0-4.7-1-6.3-3c-1.7-2.2-3.4-4.3-5-6.6
			c-2.6-3.6-1.8-8.6,1.7-11.2c3.6-2.6,8.6-1.8,11.2,1.7c1.5,2.1,3,4.1,4.6,6.1c2.7,3.5,2.1,8.5-1.3,11.2
			C-618.5,667.8-620.2,668.4-621.9,668.4z M-286.8,658.6c-1.6,0-3.2-0.5-4.6-1.4c-3.6-2.5-4.5-7.5-2-11.1c1.5-2.1,2.9-4.2,4.3-6.3
			c2.4-3.7,7.3-4.8,11-2.4c3.7,2.4,4.8,7.3,2.4,11c-1.5,2.3-3,4.6-4.6,6.9C-281.8,657.4-284.2,658.6-286.8,658.6z M-643.5,635.1
			c-2.9,0-5.7-1.6-7.1-4.3c-1.3-2.4-2.5-4.9-3.6-7.4c-1.9-4-0.2-8.8,3.8-10.6c4-1.9,8.8-0.1,10.6,3.8c1.1,2.3,2.2,4.6,3.4,6.8
			c2,3.9,0.5,8.7-3.4,10.8C-641,634.8-642.2,635.1-643.5,635.1z M-267.2,624c-1.1,0-2.2-0.2-3.2-0.7c-4-1.8-5.8-6.5-4-10.5
			c1-2.3,2-4.7,3-7.1c1.6-4.1,6.3-6.1,10.4-4.4c4.1,1.6,6.1,6.3,4.4,10.4c-1,2.6-2.1,5.1-3.2,7.6C-261.2,622.3-264.2,624-267.2,624z
			 M-658.3,598.3c-3.5,0-6.6-2.2-7.7-5.7c-0.8-2.6-1.5-5.3-2.2-8c-1.1-4.3,1.5-8.6,5.8-9.7c4.3-1.1,8.6,1.5,9.7,5.8
			c0.6,2.5,1.3,4.9,2,7.4c1.2,4.2-1.2,8.7-5.4,9.9C-656.8,598.2-657.5,598.3-658.3,598.3z M-254.6,586.4c-0.6,0-1.2-0.1-1.8-0.2
			c-4.3-1-7-5.3-6-9.6c0.6-2.5,1.1-5,1.6-7.5c0.8-4.3,5-7.1,9.3-6.3c4.3,0.8,7.2,5,6.3,9.3c-0.5,2.7-1.1,5.4-1.7,8.1
			C-247.7,583.9-251,586.4-254.6,586.4z M-665.8,559.4c-4.1,0-7.6-3.1-7.9-7.2c-0.3-2.7-0.5-5.5-0.6-8.2c-0.3-4.4,3.1-8.2,7.5-8.4
			c4.4-0.2,8.2,3.1,8.4,7.5c0.2,2.6,0.4,5.1,0.6,7.6c0.4,4.4-2.8,8.3-7.2,8.7C-665.3,559.4-665.6,559.4-665.8,559.4z M-249.4,547.1
			c-0.1,0-0.2,0-0.3,0c-4.4-0.2-7.8-3.9-7.7-8.3c0.1-2.5,0.1-5.1,0.1-7.6l0-0.8c0-4.4,3.6-8,8-8c4.4,0,8,3.6,8,8l0,0.6
			c0,3,0,5.7-0.2,8.5C-241.6,543.7-245.1,547.1-249.4,547.1z M-665.9,519.7c-0.2,0-0.5,0-0.7,0c-4.4-0.4-7.6-4.3-7.2-8.7
			c0.2-2.8,0.6-5.5,0.9-8.2c0.6-4.4,4.6-7.4,9-6.9c4.4,0.6,7.5,4.6,6.9,9c-0.3,2.5-0.6,5-0.8,7.6
			C-658.3,516.6-661.8,519.7-665.9,519.7z M-251.7,506.6c-3.9,0-7.3-2.8-7.9-6.7c-0.4-2.5-0.8-5-1.3-7.5c-0.9-4.3,2-8.5,6.3-9.4
			c4.4-0.9,8.5,2,9.4,6.3c0.5,2.7,1,5.4,1.4,8.1c0.7,4.4-2.3,8.4-6.7,9.1C-250.9,506.6-251.3,506.6-251.7,506.6z M-658.5,480.7
			c-0.7,0-1.5-0.1-2.2-0.3c-4.2-1.2-6.7-5.7-5.4-9.9c0.8-2.6,1.6-5.3,2.4-7.9c1.4-4.2,5.9-6.4,10.1-5.1c4.2,1.4,6.5,5.9,5.1,10.1
			c-0.8,2.4-1.6,4.8-2.3,7.3C-651.9,478.5-655.1,480.7-658.5,480.7z M-261.6,468.2c-3.3,0-6.3-2-7.5-5.2c-0.9-2.4-1.8-4.8-2.7-7.2
			c-1.7-4.1,0.3-8.7,4.4-10.4c4.1-1.7,8.7,0.3,10.4,4.4c1,2.5,2,5.1,2.9,7.7c1.5,4.1-0.6,8.7-4.8,10.2
			C-259.7,468-260.7,468.2-261.6,468.2z M-643.8,443.8c-1.2,0-2.5-0.3-3.6-0.9c-3.9-2-5.5-6.8-3.4-10.8c1.3-2.4,2.6-4.9,3.9-7.3
			c2.2-3.8,7-5.2,10.9-3c3.8,2.2,5.2,7,3,10.9c-1.3,2.2-2.5,4.5-3.6,6.7C-638.2,442.3-641,443.8-643.8,443.8z M-278.5,432.4
			c-2.7,0-5.4-1.4-6.9-3.9c-1.3-2.2-2.6-4.4-4-6.5c-2.4-3.7-1.3-8.6,2.4-11c3.7-2.4,8.6-1.3,11,2.4c1.5,2.3,2.9,4.6,4.4,7
			c2.3,3.8,1,8.7-2.8,11C-275.7,432-277.1,432.4-278.5,432.4z M-622.4,410.4c-1.7,0-3.5-0.6-4.9-1.7c-3.5-2.7-4.1-7.7-1.4-11.2
			c1.7-2.2,3.4-4.3,5.2-6.4c2.8-3.4,7.9-3.8,11.3-1c3.4,2.8,3.8,7.9,1,11.3c-1.6,1.9-3.3,3.9-4.8,6
			C-617.7,409.4-620.1,410.4-622.4,410.4z M-302,400.4c-2.2,0-4.4-0.9-6-2.7c-1.7-1.9-3.4-3.8-5.2-5.6c-3-3.2-2.9-8.2,0.2-11.3
			c3.2-3,8.2-2.9,11.3,0.2c1.9,2,3.8,4,5.6,6.1c2.9,3.3,2.6,8.4-0.7,11.3C-298.2,399.7-300.1,400.4-302,400.4z M-595.1,381.6
			c-2.2,0-4.4-0.9-6-2.7c-2.9-3.3-2.6-8.4,0.8-11.3c2.1-1.8,4.2-3.6,6.3-5.3c3.4-2.8,8.5-2.2,11.2,1.2c2.8,3.4,2.2,8.5-1.2,11.2
			c-2,1.6-3.9,3.2-5.9,4.9C-591.4,381-593.2,381.6-595.1,381.6z M-331.1,373.4c-1.7,0-3.4-0.5-4.9-1.6c-2-1.6-4.1-3.1-6.2-4.6
			c-3.6-2.6-4.4-7.5-1.9-11.1c2.6-3.6,7.5-4.5,11.1-1.9c2.2,1.6,4.5,3.2,6.6,4.9c3.5,2.7,4.2,7.7,1.5,11.2
			C-326.3,372.3-328.6,373.4-331.1,373.4z M-562.9,358.5c-2.8,0-5.4-1.4-6.9-4c-2.2-3.8-0.9-8.7,2.9-10.9c2.4-1.4,4.8-2.7,7.2-4
			c3.9-2.1,8.7-0.6,10.8,3.3c2.1,3.9,0.6,8.7-3.3,10.8c-2.3,1.2-4.5,2.4-6.7,3.7C-560.1,358.2-561.5,358.5-562.9,358.5z
			 M-364.7,352.3c-1.2,0-2.4-0.3-3.5-0.8c-2.3-1.1-4.6-2.3-7-3.3c-4-1.8-5.8-6.6-4-10.6c1.8-4,6.5-5.8,10.6-4c2.5,1.1,5,2.3,7.4,3.5
			c4,2,5.6,6.8,3.6,10.7C-358.9,350.7-361.7,352.3-364.7,352.3z M-526.9,341.9c-3.3,0-6.4-2.1-7.5-5.4c-1.5-4.2,0.7-8.7,4.9-10.2
			c2.6-0.9,5.2-1.8,7.8-2.6c4.2-1.3,8.7,1.1,10,5.3c1.3,4.2-1.1,8.7-5.3,10c-2.4,0.8-4.9,1.5-7.3,2.4
			C-525.1,341.8-526,341.9-526.9,341.9z M-401.7,338c-0.7,0-1.4-0.1-2.2-0.3c-2.4-0.7-4.9-1.3-7.4-1.9c-4.3-1-6.9-5.3-5.9-9.6
			c1-4.3,5.4-6.9,9.6-5.9c2.7,0.6,5.3,1.3,8,2.1c4.3,1.2,6.7,5.6,5.5,9.8C-395,335.7-398.2,338-401.7,338z M-488.3,332.5
			c-3.9,0-7.3-2.9-7.9-6.8c-0.6-4.4,2.4-8.4,6.8-9c2.7-0.4,5.4-0.7,8.2-1c4.6-0.4,8.3,2.7,8.8,7.1c0.5,4.4-2.7,8.3-7.1,8.8
			c-2.6,0.3-5.1,0.6-7.6,1C-487.6,332.5-487.9,332.5-488.3,332.5z M-440.8,331c-0.2,0-0.4,0-0.7,0c-2.5-0.2-5.1-0.4-7.6-0.5
			c-4.4-0.2-7.8-3.9-7.6-8.3c0.2-4.4,4.1-7.7,8.3-7.6c2.8,0.1,5.5,0.3,8.2,0.5c4.4,0.4,7.7,4.2,7.3,8.6
			C-433.2,327.9-436.6,331-440.8,331z"/>
	</g>
	<g>
		<path class="st3" d="M-446,703c-4.2,0-7.7-3.2-8-7.4c-0.3-4.4,3-8.2,7.4-8.5c2.5-0.2,5-0.4,7.5-0.7c4.4-0.6,8.4,2.6,8.9,7
			c0.5,4.4-2.6,8.4-7,8.9c-2.7,0.3-5.5,0.6-8.3,0.8C-445.6,703-445.8,703-446,703z M-477.6,702.3c-0.3,0-0.6,0-0.9-0.1
			c-2.8-0.3-5.5-0.7-8.3-1.2c-4.4-0.7-7.3-4.9-6.5-9.2c0.7-4.3,4.9-7.3,9.2-6.5c2.5,0.4,5,0.8,7.5,1.1c4.4,0.5,7.5,4.5,7,8.9
			C-470.2,699.3-473.6,702.3-477.6,702.3z M-407.1,695.4c-3.4,0-6.5-2.1-7.6-5.5c-1.4-4.2,0.9-8.7,5.1-10.1c2.4-0.8,4.8-1.6,7.1-2.5
			c4.1-1.6,8.7,0.5,10.3,4.6c1.6,4.1-0.5,8.7-4.6,10.3c-2.6,1-5.2,1.9-7.8,2.8C-405.4,695.3-406.3,695.4-407.1,695.4z M-516.1,692.9
			c-0.9,0-1.9-0.2-2.8-0.5c-2.6-1-5.2-2-7.8-3.2c-4-1.8-5.9-6.5-4.1-10.5c1.8-4,6.5-5.9,10.5-4.1c2.3,1,4.6,2,7,2.8
			c4.1,1.6,6.2,6.2,4.7,10.3C-509.8,690.9-512.9,692.9-516.1,692.9z M-371.2,678.6c-2.7,0-5.3-1.3-6.8-3.8c-2.3-3.8-1.2-8.7,2.6-11
			c2.1-1.3,4.2-2.7,6.3-4.1c3.6-2.5,8.6-1.6,11.1,2c2.5,3.6,1.6,8.6-2,11.1c-2.3,1.6-4.6,3.1-7,4.6
			C-368.3,678.3-369.8,678.6-371.2,678.6z M-551.2,674.5c-1.6,0-3.1-0.5-4.5-1.4c-2.3-1.6-4.6-3.2-6.8-4.9
			c-3.5-2.7-4.1-7.7-1.5-11.2c2.7-3.5,7.7-4.2,11.2-1.5c2,1.5,4,3,6.1,4.4c3.6,2.5,4.5,7.5,2,11.1
			C-546.2,673.3-548.7,674.5-551.2,674.5z M-340.4,653.8c-2,0-4-0.8-5.6-2.3c-3.2-3.1-3.2-8.1-0.1-11.3c1.8-1.8,3.5-3.7,5.1-5.5
			c2.9-3.3,8-3.6,11.3-0.7c3.3,2.9,3.6,8,0.7,11.3c-1.8,2.1-3.7,4.1-5.7,6.1C-336.2,653-338.3,653.8-340.4,653.8z M-580.8,648.2
			c-2.2,0-4.4-0.9-6-2.7c-1.8-2.1-3.6-4.2-5.4-6.3c-2.8-3.4-2.3-8.5,1.2-11.2c3.4-2.8,8.5-2.2,11.2,1.2c1.6,2,3.2,3.9,4.9,5.8
			c2.9,3.3,2.6,8.3-0.7,11.3C-577.1,647.6-579,648.2-580.8,648.2z M-316.3,622.4c-1.4,0-2.8-0.4-4.1-1.1c-3.8-2.2-5-7.1-2.8-10.9
			c1.3-2.2,2.5-4.4,3.7-6.6c2-3.9,6.9-5.4,10.8-3.4c3.9,2.1,5.4,6.9,3.4,10.8c-1.3,2.5-2.7,4.9-4.1,7.3
			C-311,621-313.6,622.4-316.3,622.4z M-603.4,615.7c-2.9,0-5.6-1.5-7.1-4.3c-1.3-2.4-2.5-4.9-3.7-7.4c-1.9-4-0.1-8.8,3.9-10.6
			c4-1.8,8.8-0.1,10.6,3.9c1.1,2.3,2.2,4.5,3.4,6.8c2.1,3.9,0.6,8.7-3.3,10.8C-600.9,615.4-602.1,615.7-603.4,615.7z M-300.5,586.1
			c-0.7,0-1.5-0.1-2.3-0.3c-4.2-1.2-6.6-5.7-5.4-9.9c0.7-2.4,1.4-4.9,2-7.3c1.1-4.3,5.4-6.9,9.7-5.8c4.3,1,6.9,5.4,5.8,9.7
			c-0.7,2.7-1.4,5.4-2.2,8C-293.9,583.8-297.1,586.1-300.5,586.1z M-617.5,578.7c-3.6,0-6.8-2.4-7.7-6.1c-0.7-2.7-1.3-5.4-1.8-8.1
			c-0.8-4.3,2-8.5,6.3-9.4c4.3-0.9,8.5,2,9.4,6.3c0.5,2.5,1,4.9,1.6,7.4c1.1,4.3-1.6,8.6-5.8,9.7
			C-616.2,578.7-616.9,578.7-617.5,578.7z M-293.9,547c-0.1,0-0.3,0-0.4,0c-4.4-0.2-7.8-4-7.6-8.4c0.1-2.5,0.2-5,0.2-7.6
			c0-4.4,3.6-8.3,8-8.3c4.4,0,8,3.2,8,7.7v0.7c0,2.8-0.1,5.6-0.2,8.3C-286.1,543.7-289.6,547-293.9,547z M-622.3,539.3
			c-4.4,0-8-3.4-8-7.8v-0.3c0-2.7,0.1-5.3,0.2-8c0.2-4.4,3.7-7.9,8.4-7.6c4.4,0.2,7.8,3.9,7.6,8.3c-0.1,2.4-0.2,4.8-0.2,7.2
			C-614.3,535.5-617.9,539.3-622.3,539.3z M-296.9,506.9c-3.7,0-7.1-2.6-7.8-6.4c-0.5-2.5-1-4.9-1.7-7.4c-1.1-4.3,1.5-8.6,5.8-9.7
			c4.3-1.1,8.6,1.5,9.7,5.8c0.7,2.7,1.3,5.4,1.8,8.1c0.9,4.3-1.9,8.5-6.3,9.4C-295.8,506.9-296.3,506.9-296.9,506.9z M-617.7,500.1
			c-0.6,0-1.3-0.1-1.9-0.2c-4.3-1-6.9-5.4-5.9-9.6c0.7-2.7,1.4-5.4,2.2-8.1c1.3-4.2,5.7-6.7,9.9-5.4c4.2,1.3,6.6,5.7,5.4,9.9
			c-0.7,2.4-1.4,4.8-2,7.3C-610.8,497.7-614,500.1-617.7,500.1z M-309.2,469.3c-3,0-5.9-1.7-7.2-4.6c-1.1-2.3-2.2-4.5-3.4-6.8
			c-2.1-3.9-0.6-8.7,3.3-10.8c3.9-2.1,8.7-0.6,10.8,3.3c1.3,2.4,2.5,4.9,3.7,7.4c1.9,4,0.2,8.7-3.8,10.6
			C-306.9,469.1-308.1,469.3-309.2,469.3z M-603.7,463.1c-1.2,0-2.5-0.3-3.7-0.9c-3.9-2.1-5.4-6.9-3.4-10.8c1.3-2.5,2.6-4.9,4-7.3
			c2.2-3.8,7.1-5.1,10.9-2.9c3.8,2.2,5.1,7.1,2.9,10.9c-1.3,2.2-2.5,4.4-3.7,6.6C-598.1,461.5-600.8,463.1-603.7,463.1z
			 M-330.2,435.8c-2.3,0-4.6-1-6.2-3c-1.6-2-3.2-3.9-4.9-5.7c-2.9-3.3-2.7-8.3,0.6-11.3c3.3-2.9,8.3-2.7,11.3,0.6
			c1.8,2.1,3.7,4.2,5.4,6.3c2.8,3.4,2.2,8.5-1.2,11.2C-326.7,435.2-328.5,435.8-330.2,435.8z M-581.3,430.5c-1.9,0-3.8-0.7-5.3-2
			c-3.3-2.9-3.6-8-0.7-11.3c1.8-2.1,3.7-4.1,5.6-6.1c3.1-3.2,8.1-3.3,11.3-0.2c3.2,3.1,3.3,8.1,0.2,11.3c-1.8,1.8-3.5,3.7-5.2,5.6
			C-576.9,429.5-579.1,430.5-581.3,430.5z M-358.7,408.2c-1.7,0-3.4-0.5-4.8-1.6c-2-1.5-4-3-6.1-4.4c-3.6-2.5-4.6-7.5-2.1-11.1
			c2.5-3.6,7.5-4.6,11.1-2.1c2.3,1.6,4.5,3.2,6.8,4.9c3.5,2.7,4.2,7.7,1.5,11.2C-353.9,407.1-356.3,408.2-358.7,408.2z
			 M-551.7,404.1c-2.5,0-5-1.2-6.6-3.4c-2.5-3.6-1.6-8.6,2-11.1c2.3-1.6,4.6-3.1,6.9-4.6c3.8-2.3,8.7-1.2,11,2.5
			c2.3,3.7,1.2,8.7-2.5,11c-2.1,1.3-4.2,2.7-6.3,4.2C-548.5,403.7-550.1,404.1-551.7,404.1z M-392.9,388.2c-1.1,0-2.1-0.2-3.2-0.7
			c-2.3-1-4.6-1.9-7-2.8c-4.1-1.6-6.2-6.2-4.7-10.3c1.5-4.1,6.1-6.2,10.3-4.7c2.6,1,5.2,2,7.7,3.1c4,1.8,5.9,6.5,4.2,10.5
			C-386.8,386.4-389.8,388.2-392.9,388.2z M-516.7,385.6c-3.2,0-6.2-2-7.5-5.1c-1.6-4.1,0.5-8.7,4.6-10.3c2.6-1,5.2-1.9,7.8-2.8
			c4.2-1.4,8.7,0.9,10.1,5.1c1.4,4.2-0.9,8.7-5.1,10.1c-2.4,0.8-4.8,1.6-7.1,2.5C-514.8,385.4-515.8,385.6-516.7,385.6z M-430.8,377
			c-0.4,0-0.9,0-1.3-0.1c-2.5-0.4-5-0.8-7.5-1.1c-4.4-0.5-7.5-4.5-7-8.9c0.5-4.4,4.5-7.5,8.9-7c2.8,0.3,5.5,0.7,8.2,1.2
			c4.4,0.7,7.3,4.8,6.6,9.2C-423.6,374.3-427,377-430.8,377z M-478.3,376c-4,0-7.4-3-7.9-7c-0.5-4.4,2.6-8.4,7-8.9
			c2.7-0.3,5.5-0.6,8.3-0.8c4.4-0.3,8.2,3,8.6,7.4c0.3,4.4-3,8.2-7.4,8.6c-2.5,0.2-5,0.4-7.5,0.7C-477.7,376-478,376-478.3,376z"/>
	</g>
</g>
<g>
	<g>
		<path class="st4" d="M-429.3,208.8c-4.4,0-7.9-3.5-8-7.9c0-4.4,3.5-8,7.9-8.1c2.6,0,5.1-0.1,7.6-0.2c4.1-0.4,8.1,3.2,8.4,7.6
			c0.2,4.4-3.2,8.1-7.6,8.4C-423.7,208.7-426.4,208.8-429.3,208.8C-429.2,208.8-429.2,208.8-429.3,208.8z M-460.9,206.7
			c-0.4,0-0.7,0-1.1-0.1c-2.7-0.4-5.4-0.8-8.1-1.3c-4.3-0.8-7.2-4.9-6.5-9.3c0.8-4.3,4.9-7.2,9.3-6.5c2.5,0.5,5,0.9,7.6,1.2
			c4.4,0.6,7.4,4.7,6.8,9C-453.6,203.8-457,206.7-460.9,206.7z M-389.8,204.6c-3.7,0-7-2.6-7.8-6.4c-0.9-4.3,1.9-8.5,6.2-9.4
			c2.5-0.5,5-1.1,7.5-1.7c4.3-1.1,8.6,1.6,9.6,5.9c1,4.3-1.6,8.6-5.9,9.6c-2.7,0.6-5.3,1.2-8,1.8
			C-388.7,204.6-389.3,204.6-389.8,204.6z M-499.5,197.4c-0.9,0-1.7-0.1-2.6-0.4c-2.6-0.9-5.2-1.8-7.8-2.9
			c-4.1-1.6-6.1-6.2-4.5-10.3c1.6-4.1,6.2-6.1,10.3-4.5c2.4,0.9,4.8,1.8,7.2,2.6c4.2,1.4,6.4,6,5,10.1
			C-493.1,195.4-496.2,197.4-499.5,197.4z M-351.8,193.1c-3.1,0-6.1-1.8-7.4-4.9c-1.7-4.1,0.2-8.8,4.3-10.4c2.4-1,4.7-2,7-3
			c4-1.8,8.7-0.1,10.6,3.9c1.8,4,0.1,8.8-3.9,10.6c-2.5,1.1-5,2.2-7.5,3.3C-349.8,192.9-350.8,193.1-351.8,193.1z M-535.7,181
			c-1.3,0-2.7-0.3-4-1.1c-2.4-1.4-4.7-2.8-7.1-4.3c-3.7-2.3-4.9-7.3-2.5-11c2.3-3.7,7.3-4.9,11-2.5c2.2,1.3,4.4,2.7,6.6,4
			c3.8,2.2,5.1,7.1,2.9,10.9C-530.2,179.5-532.9,181-535.7,181z M-316.8,174.5c-2.6,0-5.1-1.3-6.7-3.6c-2.4-3.7-1.4-8.6,2.3-11.1
			c2.1-1.4,4.2-2.8,6.3-4.3c3.6-2.6,8.6-1.7,11.1,1.9c2.6,3.6,1.7,8.6-1.9,11.1c-2.2,1.6-4.5,3.2-6.8,4.7
			C-313.8,174.1-315.3,174.5-316.8,174.5z M-568,158c-1.9,0-3.7-0.6-5.2-1.9c-2.1-1.8-4.1-3.6-6.2-5.5c-3.2-3-3.4-8.1-0.4-11.3
			c3-3.2,8.1-3.4,11.3-0.4c1.9,1.7,3.8,3.4,5.7,5.1c3.3,2.9,3.7,7.9,0.8,11.3C-563.5,157-565.8,158-568,158z M-285.9,149.7
			c-2.1,0-4.2-0.8-5.7-2.4c-3.1-3.2-3-8.2,0.2-11.3c1.8-1.8,3.6-3.6,5.4-5.4c3-3.2,8.1-3.3,11.3-0.3c3.2,3,3.3,8.1,0.3,11.3
			c-1.9,2-3.8,3.9-5.8,5.9C-281.9,148.9-283.9,149.7-285.9,149.7z M-595.4,129.3c-2.4,0-4.7-1-6.3-3c-1.7-2.2-3.4-4.3-5-6.6
			c-2.6-3.6-1.8-8.6,1.7-11.2c3.6-2.6,8.6-1.8,11.2,1.7c1.5,2.1,3,4.1,4.6,6.1c2.7,3.5,2.1,8.5-1.3,11.2
			C-591.9,128.7-593.7,129.3-595.4,129.3z M-260.2,119.5c-1.6,0-3.2-0.5-4.6-1.4c-3.6-2.5-4.5-7.5-2-11.1c1.5-2.1,2.9-4.2,4.3-6.3
			c2.4-3.7,7.3-4.8,11-2.4c3.7,2.4,4.8,7.3,2.4,11c-1.5,2.3-3,4.6-4.6,6.9C-255.2,118.3-257.7,119.5-260.2,119.5z M-616.9,96
			c-2.9,0-5.7-1.6-7.1-4.3c-1.3-2.4-2.5-4.9-3.6-7.4c-1.9-4-0.2-8.8,3.8-10.6c4-1.9,8.8-0.1,10.6,3.8c1.1,2.3,2.2,4.6,3.4,6.8
			c2,3.9,0.5,8.7-3.4,10.8C-614.4,95.7-615.7,96-616.9,96z M-240.7,84.9c-1.1,0-2.2-0.2-3.2-0.7c-4-1.8-5.8-6.5-4-10.5
			c1-2.3,2-4.7,3-7.1c1.6-4.1,6.3-6.1,10.4-4.4c4.1,1.6,6.1,6.3,4.4,10.4c-1,2.6-2.1,5.1-3.2,7.6C-234.7,83.2-237.6,84.9-240.7,84.9
			z M-631.7,59.2c-3.5,0-6.6-2.2-7.7-5.7c-0.8-2.6-1.5-5.3-2.2-8c-1.1-4.3,1.5-8.6,5.8-9.7c4.3-1.1,8.6,1.5,9.7,5.8
			c0.6,2.5,1.3,4.9,2,7.4c1.2,4.2-1.2,8.7-5.4,9.9C-630.2,59.1-631,59.2-631.7,59.2z M-228,47.3c-0.6,0-1.2-0.1-1.8-0.2
			c-4.3-1-7-5.3-6-9.6c0.6-2.5,1.1-5,1.6-7.5c0.8-4.3,5-7.1,9.3-6.3c4.3,0.8,7.2,5,6.3,9.3c-0.5,2.7-1.1,5.4-1.7,8.1
			C-221.1,44.8-224.4,47.3-228,47.3z M-639.3,20.2c-4.1,0-7.6-3.1-7.9-7.2c-0.3-2.7-0.5-5.5-0.6-8.2c-0.3-4.4,3.1-8.2,7.5-8.4
			c4.4-0.2,8.2,3.1,8.4,7.5c0.2,2.6,0.4,5.1,0.6,7.6c0.4,4.4-2.8,8.3-7.2,8.7C-638.8,20.2-639,20.2-639.3,20.2z M-222.8,8
			c-0.1,0-0.2,0-0.3,0c-4.4-0.2-7.8-3.9-7.7-8.3c0.1-2.5,0.1-5.1,0.1-7.6l0-0.8c0-4.4,3.6-8,8-8c4.4,0,8,3.6,8,8l0,0.6
			c0,3,0,5.7-0.2,8.5C-215,4.6-218.5,8-222.8,8z M-639.3-19.4c-0.2,0-0.5,0-0.7,0c-4.4-0.4-7.6-4.3-7.2-8.7c0.2-2.8,0.6-5.5,0.9-8.2
			c0.6-4.4,4.6-7.4,9-6.9c4.4,0.6,7.5,4.6,6.9,9c-0.3,2.5-0.6,5-0.8,7.6C-631.8-22.5-635.3-19.4-639.3-19.4z M-225.2-32.5
			c-3.9,0-7.3-2.8-7.9-6.7c-0.4-2.5-0.8-5-1.3-7.5c-0.9-4.3,2-8.5,6.3-9.4c4.4-0.9,8.5,2,9.4,6.3c0.5,2.7,1,5.4,1.4,8.1
			c0.7,4.4-2.3,8.4-6.7,9.1C-224.4-32.5-224.8-32.5-225.2-32.5z M-632-58.4c-0.7,0-1.5-0.1-2.2-0.3c-4.2-1.2-6.7-5.7-5.4-9.9
			c0.8-2.6,1.6-5.3,2.4-7.9c1.4-4.2,5.9-6.4,10.1-5.1c4.2,1.4,6.5,5.9,5.1,10.1c-0.8,2.4-1.6,4.8-2.3,7.3
			C-625.3-60.7-628.5-58.4-632-58.4z M-235-70.9c-3.3,0-6.3-2-7.5-5.2c-0.9-2.4-1.8-4.8-2.7-7.2c-1.7-4.1,0.3-8.7,4.4-10.4
			c4.1-1.7,8.7,0.3,10.4,4.4c1,2.5,2,5.1,2.9,7.7c1.5,4.1-0.6,8.7-4.8,10.2C-233.2-71.1-234.1-70.9-235-70.9z M-617.3-95.3
			c-1.2,0-2.5-0.3-3.6-0.9c-3.9-2-5.5-6.8-3.4-10.8c1.3-2.4,2.6-4.9,3.9-7.3c2.2-3.8,7-5.2,10.9-3c3.8,2.2,5.2,7,3,10.9
			c-1.3,2.2-2.5,4.5-3.6,6.7C-611.6-96.8-614.4-95.3-617.3-95.3z M-252-106.8c-2.7,0-5.4-1.4-6.9-3.9c-1.3-2.2-2.6-4.4-4-6.5
			c-2.4-3.7-1.3-8.6,2.4-11c3.7-2.4,8.6-1.3,11,2.4c1.5,2.3,2.9,4.6,4.4,7c2.3,3.8,1,8.7-2.8,11C-249.2-107.1-250.6-106.8-252-106.8
			z M-595.9-128.7c-1.7,0-3.5-0.6-4.9-1.7c-3.5-2.7-4.1-7.7-1.4-11.2c1.7-2.2,3.4-4.3,5.2-6.4c2.8-3.4,7.9-3.8,11.3-1
			c3.4,2.8,3.8,7.9,1,11.3c-1.6,1.9-3.3,3.9-4.8,6C-591.2-129.7-593.5-128.7-595.9-128.7z M-275.4-138.7c-2.2,0-4.4-0.9-6-2.7
			c-1.7-1.9-3.4-3.8-5.2-5.6c-3-3.2-2.9-8.2,0.2-11.3c3.2-3,8.2-2.9,11.3,0.2c1.9,2,3.8,4,5.6,6.1c2.9,3.3,2.6,8.4-0.7,11.3
			C-271.7-139.4-273.6-138.7-275.4-138.7z M-568.6-157.5c-2.2,0-4.4-0.9-6-2.7c-2.9-3.3-2.6-8.4,0.8-11.3c2.1-1.8,4.2-3.6,6.3-5.3
			c3.4-2.8,8.5-2.2,11.2,1.2c2.8,3.4,2.2,8.5-1.2,11.2c-2,1.6-3.9,3.2-5.9,4.9C-564.8-158.1-566.7-157.5-568.6-157.5z M-304.5-165.8
			c-1.7,0-3.4-0.5-4.9-1.6c-2-1.6-4.1-3.1-6.2-4.6c-3.6-2.6-4.4-7.5-1.9-11.1c2.6-3.6,7.5-4.5,11.1-1.9c2.2,1.6,4.5,3.2,6.6,4.9
			c3.5,2.7,4.2,7.7,1.5,11.2C-299.7-166.8-302.1-165.8-304.5-165.8z M-536.3-180.6c-2.8,0-5.4-1.4-6.9-4c-2.2-3.8-0.9-8.7,2.9-10.9
			c2.4-1.4,4.8-2.7,7.2-4c3.9-2.1,8.7-0.6,10.8,3.3c2.1,3.9,0.6,8.7-3.3,10.8c-2.3,1.2-4.5,2.4-6.7,3.7
			C-533.6-180.9-535-180.6-536.3-180.6z M-338.1-186.8c-1.2,0-2.4-0.3-3.5-0.8c-2.3-1.1-4.6-2.3-7-3.3c-4-1.8-5.8-6.6-4-10.6
			c1.8-4,6.5-5.8,10.6-4c2.5,1.1,5,2.3,7.4,3.5c4,2,5.6,6.8,3.6,10.7C-332.4-188.5-335.2-186.8-338.1-186.8z M-500.3-197.2
			c-3.3,0-6.4-2.1-7.5-5.4c-1.5-4.2,0.7-8.7,4.9-10.2c2.6-0.9,5.2-1.8,7.8-2.6c4.2-1.3,8.7,1.1,10,5.3c1.3,4.2-1.1,8.7-5.3,10
			c-2.4,0.8-4.9,1.5-7.3,2.4C-498.5-197.3-499.4-197.2-500.3-197.2z M-375.2-201.1c-0.7,0-1.4-0.1-2.2-0.3c-2.4-0.7-4.9-1.3-7.4-1.9
			c-4.3-1-6.9-5.3-5.9-9.6c1-4.3,5.4-6.9,9.6-5.9c2.7,0.6,5.3,1.3,8,2.1c4.3,1.2,6.7,5.6,5.5,9.8
			C-368.5-203.4-371.7-201.1-375.2-201.1z M-461.8-206.6c-3.9,0-7.3-2.9-7.9-6.8c-0.6-4.4,2.4-8.4,6.8-9c2.7-0.4,5.4-0.7,8.2-1
			c4.6-0.4,8.3,2.7,8.8,7.1c0.5,4.4-2.7,8.3-7.1,8.8c-2.6,0.3-5.1,0.6-7.6,1C-461-206.6-461.4-206.6-461.8-206.6z M-414.2-208.1
			c-0.2,0-0.4,0-0.7,0c-2.5-0.2-5.1-0.4-7.6-0.5c-4.4-0.2-7.8-3.9-7.6-8.3c0.2-4.4,4.1-7.7,8.3-7.6c2.8,0.1,5.5,0.3,8.2,0.5
			c4.4,0.4,7.7,4.2,7.3,8.6C-406.6-211.2-410.1-208.1-414.2-208.1z"/>
	</g>
	<g>
		<path class="st4" d="M-419.4,163.9c-4.2,0-7.7-3.2-8-7.4c-0.3-4.4,3-8.2,7.4-8.5c2.5-0.2,5-0.4,7.5-0.7c4.4-0.6,8.4,2.6,8.9,7
			c0.5,4.4-2.6,8.4-7,8.9c-2.7,0.3-5.5,0.6-8.3,0.8C-419,163.9-419.2,163.9-419.4,163.9z M-451.1,163.1c-0.3,0-0.6,0-0.9-0.1
			c-2.8-0.3-5.5-0.7-8.3-1.2c-4.4-0.7-7.3-4.9-6.5-9.2c0.7-4.3,4.9-7.3,9.2-6.5c2.5,0.4,5,0.8,7.5,1.1c4.4,0.5,7.5,4.5,7,8.9
			C-443.6,160.2-447.1,163.1-451.1,163.1z M-380.6,156.3c-3.4,0-6.5-2.1-7.6-5.5c-1.4-4.2,0.9-8.7,5.1-10.1c2.4-0.8,4.8-1.6,7.1-2.5
			c4.1-1.6,8.7,0.5,10.3,4.6c1.6,4.1-0.5,8.7-4.6,10.3c-2.6,1-5.2,1.9-7.8,2.8C-378.9,156.1-379.7,156.3-380.6,156.3z M-489.5,153.8
			c-0.9,0-1.9-0.2-2.8-0.5c-2.6-1-5.2-2-7.8-3.2c-4-1.8-5.9-6.5-4.1-10.5c1.8-4,6.5-5.9,10.5-4.1c2.3,1,4.6,2,7,2.8
			c4.1,1.6,6.2,6.2,4.7,10.3C-483.3,151.8-486.3,153.8-489.5,153.8z M-344.7,139.5c-2.7,0-5.3-1.3-6.8-3.8c-2.3-3.8-1.2-8.7,2.6-11
			c2.1-1.3,4.2-2.7,6.3-4.1c3.6-2.5,8.6-1.6,11.1,2c2.5,3.6,1.6,8.6-2,11.1c-2.3,1.6-4.6,3.1-7,4.6
			C-341.8,139.1-343.2,139.5-344.7,139.5z M-524.6,135.4c-1.6,0-3.1-0.5-4.5-1.4c-2.3-1.6-4.6-3.2-6.8-4.9
			c-3.5-2.7-4.1-7.7-1.5-11.2c2.7-3.5,7.7-4.2,11.2-1.5c2,1.5,4,3,6.1,4.4c3.6,2.5,4.5,7.5,2,11.1
			C-519.6,134.2-522.1,135.4-524.6,135.4z M-313.8,114.7c-2,0-4-0.8-5.6-2.3c-3.2-3.1-3.2-8.1-0.1-11.3c1.8-1.8,3.5-3.7,5.1-5.5
			c2.9-3.3,8-3.6,11.3-0.7c3.3,2.9,3.6,8,0.7,11.3c-1.8,2.1-3.7,4.1-5.7,6.1C-309.7,113.9-311.8,114.7-313.8,114.7z M-554.3,109.1
			c-2.2,0-4.4-0.9-6-2.7c-1.8-2.1-3.6-4.2-5.4-6.3c-2.8-3.4-2.3-8.5,1.2-11.2c3.4-2.8,8.5-2.2,11.2,1.2c1.6,2,3.2,3.9,4.9,5.8
			c2.9,3.3,2.6,8.3-0.7,11.3C-550.5,108.5-552.4,109.1-554.3,109.1z M-289.8,83.3c-1.4,0-2.8-0.4-4.1-1.1c-3.8-2.2-5-7.1-2.8-10.9
			c1.3-2.2,2.5-4.4,3.7-6.6c2-3.9,6.9-5.4,10.8-3.4c3.9,2.1,5.4,6.9,3.4,10.8c-1.3,2.5-2.7,4.9-4.1,7.3
			C-284.4,81.9-287.1,83.3-289.8,83.3z M-576.9,76.6c-2.9,0-5.6-1.5-7.1-4.3c-1.3-2.4-2.5-4.9-3.7-7.4c-1.9-4-0.1-8.8,3.9-10.6
			c4-1.8,8.8-0.1,10.6,3.9c1.1,2.3,2.2,4.5,3.4,6.8c2.1,3.9,0.6,8.7-3.3,10.8C-574.3,76.3-575.6,76.6-576.9,76.6z M-274,47
			c-0.7,0-1.5-0.1-2.3-0.3c-4.2-1.2-6.6-5.7-5.4-9.9c0.7-2.4,1.4-4.9,2-7.3c1.1-4.3,5.4-6.9,9.7-5.8c4.3,1,6.9,5.4,5.8,9.7
			c-0.7,2.7-1.4,5.4-2.2,8C-267.3,44.7-270.5,47-274,47z M-591,39.6c-3.6,0-6.8-2.4-7.7-6.1c-0.7-2.7-1.3-5.4-1.8-8.1
			c-0.8-4.3,2-8.5,6.3-9.4c4.3-0.9,8.5,2,9.4,6.3c0.5,2.5,1,4.9,1.6,7.4c1.1,4.3-1.6,8.6-5.8,9.7C-589.7,39.6-590.3,39.6-591,39.6z
			 M-267.3,7.9c-0.1,0-0.3,0-0.4,0c-4.4-0.2-7.8-4-7.6-8.4c0.1-2.5,0.2-5,0.2-7.6c0-4.4,3.6-8.3,8-8.3c4.4,0,8,3.2,8,7.7V-8
			c0,2.8-0.1,5.6-0.2,8.3C-259.6,4.6-263.1,7.9-267.3,7.9z M-595.8,0.2c-4.4,0-8-3.4-8-7.8V-8c0-2.7,0.1-5.3,0.2-8
			c0.2-4.4,3.7-7.9,8.4-7.6c4.4,0.2,7.8,3.9,7.6,8.3c-0.1,2.4-0.2,4.8-0.2,7.2C-587.8-3.6-591.3,0.2-595.8,0.2z M-270.3-32.2
			c-3.7,0-7.1-2.6-7.8-6.4c-0.5-2.5-1-4.9-1.7-7.4c-1.1-4.3,1.5-8.6,5.8-9.7c4.3-1.1,8.6,1.5,9.7,5.8c0.7,2.7,1.3,5.4,1.8,8.1
			c0.9,4.3-1.9,8.5-6.3,9.4C-269.3-32.2-269.8-32.2-270.3-32.2z M-591.1-39c-0.6,0-1.3-0.1-1.9-0.2c-4.3-1-6.9-5.4-5.9-9.6
			c0.7-2.7,1.4-5.4,2.2-8.1c1.3-4.2,5.7-6.7,9.9-5.4c4.2,1.3,6.6,5.7,5.4,9.9c-0.7,2.4-1.4,4.8-2,7.3C-584.2-41.4-587.5-39-591.1-39
			z M-282.7-69.8c-3,0-5.9-1.7-7.2-4.6c-1.1-2.3-2.2-4.5-3.4-6.8c-2.1-3.9-0.6-8.7,3.3-10.8c3.9-2.1,8.7-0.6,10.8,3.3
			c1.3,2.4,2.5,4.9,3.7,7.4c1.9,4,0.2,8.7-3.8,10.6C-280.4-70-281.5-69.8-282.7-69.8z M-577.2-76c-1.2,0-2.5-0.3-3.7-0.9
			c-3.9-2.1-5.4-6.9-3.4-10.8c1.3-2.5,2.6-4.9,4-7.3c2.2-3.8,7.1-5.1,10.9-2.9c3.8,2.2,5.1,7.1,2.9,10.9c-1.3,2.2-2.5,4.4-3.7,6.6
			C-571.5-77.6-574.3-76-577.2-76z M-303.7-103.3c-2.3,0-4.6-1-6.2-3c-1.6-2-3.2-3.9-4.9-5.7c-2.9-3.3-2.7-8.3,0.6-11.3
			c3.3-2.9,8.3-2.7,11.3,0.6c1.8,2.1,3.7,4.2,5.4,6.3c2.8,3.4,2.2,8.5-1.2,11.2C-300.2-103.9-301.9-103.3-303.7-103.3z
			 M-554.7-108.7c-1.9,0-3.8-0.7-5.3-2c-3.3-2.9-3.6-8-0.7-11.3c1.8-2.1,3.7-4.1,5.6-6.1c3.1-3.2,8.1-3.3,11.3-0.2
			c3.2,3.1,3.3,8.1,0.2,11.3c-1.8,1.8-3.5,3.7-5.2,5.6C-550.3-109.6-552.5-108.7-554.7-108.7z M-332.1-130.9c-1.7,0-3.4-0.5-4.8-1.6
			c-2-1.5-4-3-6.1-4.4c-3.6-2.5-4.6-7.5-2.1-11.1c2.5-3.6,7.5-4.6,11.1-2.1c2.3,1.6,4.5,3.2,6.8,4.9c3.5,2.7,4.2,7.7,1.5,11.2
			C-327.3-132-329.7-130.9-332.1-130.9z M-525.1-135c-2.5,0-5-1.2-6.6-3.4c-2.5-3.6-1.6-8.6,2-11.1c2.3-1.6,4.6-3.1,6.9-4.6
			c3.8-2.3,8.7-1.2,11,2.5c2.3,3.7,1.2,8.7-2.5,11c-2.1,1.3-4.2,2.7-6.3,4.2C-522-135.5-523.6-135-525.1-135z M-366.3-150.9
			c-1.1,0-2.1-0.2-3.2-0.7c-2.3-1-4.6-1.9-7-2.8c-4.1-1.6-6.2-6.2-4.7-10.3c1.5-4.1,6.1-6.2,10.3-4.7c2.6,1,5.2,2,7.7,3.1
			c4,1.8,5.9,6.5,4.2,10.5C-360.3-152.7-363.2-150.9-366.3-150.9z M-490.2-153.5c-3.2,0-6.2-2-7.5-5.1c-1.6-4.1,0.5-8.7,4.6-10.3
			c2.6-1,5.2-1.9,7.8-2.8c4.2-1.4,8.7,0.9,10.1,5.1c1.4,4.2-0.9,8.7-5.1,10.1c-2.4,0.8-4.8,1.6-7.1,2.5
			C-488.2-153.7-489.2-153.5-490.2-153.5z M-404.3-162.1c-0.4,0-0.9,0-1.3-0.1c-2.5-0.4-5-0.8-7.5-1.1c-4.4-0.5-7.5-4.5-7-8.9
			c0.5-4.4,4.5-7.5,8.9-7c2.8,0.3,5.5,0.7,8.2,1.2c4.4,0.7,7.3,4.8,6.6,9.2C-397.1-164.8-400.4-162.1-404.3-162.1z M-451.7-163.1
			c-4,0-7.4-3-7.9-7c-0.5-4.4,2.6-8.4,7-8.9c2.7-0.3,5.5-0.6,8.3-0.8c4.4-0.3,8.2,3,8.6,7.4c0.3,4.4-3,8.2-7.4,8.6
			c-2.5,0.2-5,0.4-7.5,0.7C-451.1-163.1-451.4-163.1-451.7-163.1z"/>
	</g>
</g>
<g>
	
		<ellipse transform="matrix(0.7071 -0.7071 0.7071 0.7071 -55.2894 341.3448)" class="st3" cx="384.4" cy="237.4" rx="183" ry="183"/>
	<g>
		<path class="st5" d="M443.2,532.5c-102.3,0-185.5-83.2-185.5-185.5c0-102.3,83.2-185.5,185.5-185.5
			c102.3,0,185.5,83.2,185.5,185.5C628.7,449.3,545.5,532.5,443.2,532.5z M443.2,166.5c-99.5,0-180.5,81-180.5,180.5
			c0,99.5,81,180.5,180.5,180.5s180.5-81,180.5-180.5C623.7,247.5,542.7,166.5,443.2,166.5z"/>
	</g>
	<g>
		<rect x="373.8" y="285.6" class="st5" width="205" height="5"/>
	</g>
	<g>
		<rect x="373.8" y="271.6" class="st5" width="205" height="5"/>
	</g>
</g>
<g class="st6">
	<defs>
		<path id="SVGID_3_" class="st6" d="M1554.6-293.1c-37.5-23.8-85.2-30.9-128-18.9c-42.8,12-79.9,42.8-99.5,82.6
			c-6.8,13.8-12.9,29.9-26.9,36.1c-10.5,4.6-22.8,2.3-33.2-2.6c-10.3-4.9-19.4-12.1-29.4-17.8c-35.5-20.1-82.6-17.6-115.7,6.2
			c-33.1,23.8-50.5,67.7-42.7,107.7h475.4V-293.1z"/>
	</defs>
	<clipPath id="SVGID_4_">
		<use xlink:href="#SVGID_3_"  style="overflow:visible;"/>
	</clipPath>
	<g class="st7">
		<line class="st8" x1="903.2" y1="6" x2="1716.4" y2="-688.4"/>
		<line class="st8" x1="919.9" y1="24.3" x2="1733.1" y2="-670"/>
		<line class="st8" x1="936.6" y1="42.7" x2="1749.7" y2="-651.6"/>
		<line class="st8" x1="953.3" y1="61.1" x2="1766.4" y2="-633.2"/>
		<line class="st8" x1="969.9" y1="79.5" x2="1783.1" y2="-614.9"/>
		<line class="st8" x1="986.6" y1="97.8" x2="1799.8" y2="-596.5"/>
		<line class="st8" x1="1003.3" y1="116.2" x2="1816.4" y2="-578.1"/>
		<line class="st8" x1="1020" y1="134.6" x2="1833.1" y2="-559.7"/>
		<line class="st8" x1="1036.6" y1="153" x2="1849.8" y2="-541.4"/>
		<line class="st8" x1="1053.3" y1="171.3" x2="1866.4" y2="-523"/>
		<line class="st8" x1="1070" y1="189.7" x2="1883.1" y2="-504.6"/>
		<line class="st8" x1="1086.6" y1="208.1" x2="1899.8" y2="-486.2"/>
		<line class="st8" x1="1103.3" y1="226.5" x2="1916.5" y2="-467.8"/>
		<line class="st8" x1="1120" y1="244.9" x2="1933.1" y2="-449.5"/>
	</g>
</g>
<g>
	<g>
		<g>
			<polygon class="st2" points="1958.2,-229.7 1949.9,-237.2 1975.8,-265.9 1949.9,-294.6 1958.2,-302.1 1990.9,-265.9 			"/>
		</g>
		<g>
			<polygon class="st2" points="1990.3,-229.7 1982,-237.2 2008,-265.9 1982,-294.6 1990.3,-302.1 2023.1,-265.9 			"/>
		</g>
		<g>
			<polygon class="st2" points="2022.5,-229.7 2014.2,-237.2 2040.2,-265.9 2014.2,-294.6 2022.5,-302.1 2055.2,-265.9 			"/>
		</g>
		<g>
			<polygon class="st2" points="2054.7,-229.7 2046.4,-237.2 2072.3,-265.9 2046.4,-294.6 2054.7,-302.1 2087.4,-265.9 			"/>
		</g>
		<g>
			<polygon class="st2" points="2086.8,-229.7 2078.5,-237.2 2104.5,-265.9 2078.5,-294.6 2086.8,-302.1 2119.6,-265.9 			"/>
		</g>
		<g>
			<polygon class="st2" points="2119,-229.7 2110.7,-237.2 2136.7,-265.9 2110.7,-294.6 2119,-302.1 2151.7,-265.9 			"/>
		</g>
		<g>
			<polygon class="st2" points="2151.2,-229.7 2142.9,-237.2 2168.8,-265.9 2142.9,-294.6 2151.2,-302.1 2183.9,-265.9 			"/>
		</g>
		<g>
			<polygon class="st2" points="2183.3,-229.7 2175,-237.2 2201,-265.9 2175,-294.6 2183.3,-302.1 2216.1,-265.9 			"/>
		</g>
		<g>
			<polygon class="st2" points="2183.3,-229.7 2175,-237.2 2201,-265.9 2175,-294.6 2183.3,-302.1 2216.1,-265.9 			"/>
		</g>
		<g>
			<polygon class="st2" points="2215.5,-229.7 2207.2,-237.2 2233.2,-265.9 2207.2,-294.6 2215.5,-302.1 2248.2,-265.9 			"/>
		</g>
		<g>
			<polygon class="st2" points="2247.7,-229.7 2239.4,-237.2 2265.3,-265.9 2239.4,-294.6 2247.7,-302.1 2280.4,-265.9 			"/>
		</g>
		<g>
			<polygon class="st2" points="2279.8,-229.7 2271.5,-237.2 2297.5,-265.9 2271.5,-294.6 2279.8,-302.1 2312.6,-265.9 			"/>
		</g>
	</g>
</g>
<g>
	<g>
		<polygon class="st3" points="2086.8,31.8 2078.5,24.3 2104.5,-4.4 2078.5,-33.1 2086.8,-40.6 2119.6,-4.4 		"/>
	</g>
	<g>
		<polygon class="st3" points="2119,31.8 2110.7,24.3 2136.7,-4.4 2110.7,-33.1 2119,-40.6 2151.7,-4.4 		"/>
	</g>
	<g>
		<polygon class="st3" points="2151.2,31.8 2142.9,24.3 2168.8,-4.4 2142.9,-33.1 2151.2,-40.6 2183.9,-4.4 		"/>
	</g>
	<g>
		<polygon class="st3" points="2183.3,31.8 2175,24.3 2201,-4.4 2175,-33.1 2183.3,-40.6 2216.1,-4.4 		"/>
	</g>
	<g>
		<polygon class="st3" points="2215.5,31.8 2207.2,24.3 2233.2,-4.4 2207.2,-33.1 2215.5,-40.6 2248.2,-4.4 		"/>
	</g>
	<g>
		<polygon class="st3" points="2247.7,31.8 2239.4,24.3 2265.3,-4.4 2239.4,-33.1 2247.7,-40.6 2280.4,-4.4 		"/>
	</g>
	<g>
		<polygon class="st3" points="2279.8,31.8 2271.5,24.3 2297.5,-4.4 2271.5,-33.1 2279.8,-40.6 2312.6,-4.4 		"/>
	</g>
	<g>
		<polygon class="st3" points="2312,31.8 2303.7,24.3 2329.6,-4.4 2303.7,-33.1 2312,-40.6 2344.7,-4.4 		"/>
	</g>
	<g>
		<polygon class="st3" points="2312,31.8 2303.7,24.3 2329.6,-4.4 2303.7,-33.1 2312,-40.6 2344.7,-4.4 		"/>
	</g>
	<g>
		<polygon class="st3" points="2344.1,31.8 2335.9,24.3 2361.8,-4.4 2335.9,-33.1 2344.1,-40.6 2376.9,-4.4 		"/>
	</g>
	<g>
		<polygon class="st3" points="2376.3,31.8 2368,24.3 2394,-4.4 2368,-33.1 2376.3,-40.6 2409.1,-4.4 		"/>
	</g>
	<g>
		<polygon class="st3" points="2408.5,31.8 2400.2,24.3 2426.1,-4.4 2400.2,-33.1 2408.5,-40.6 2441.2,-4.4 		"/>
	</g>
</g>
<g>
	<circle class="st2" cx="1710.6" cy="-109" r="38.5"/>
	<g>
		<path class="st5" d="M1761.1-68c-22.6,0-41-18.4-41-41s18.4-41,41-41s41,18.4,41,41S1783.7-68,1761.1-68z M1761.1-145
			c-19.8,0-36,16.1-36,36s16.1,36,36,36s36-16.1,36-36S1780.9-145,1761.1-145z"/>
	</g>
</g>
<ellipse transform="matrix(0.7071 -0.7071 0.7071 0.7071 -17.0801 974.2894)" class="st2" cx="1167.5" cy="507.8" rx="183" ry="183"/>
<g>
	<g>
		<path class="st9" d="M1672.1-228.2c-20.8,0-37.7-16.9-37.7-37.7s16.9-37.7,37.7-37.7s37.7,16.9,37.7,37.7
			S1692.8-228.2,1672.1-228.2z M1672.1-295.5c-16.4,0-29.7,13.3-29.7,29.7s13.3,29.7,29.7,29.7s29.7-13.3,29.7-29.7
			S1688.4-295.5,1672.1-295.5z"/>
	</g>
</g>
<g>
	<path class="st3" d="M396.9-96.6c-14.4,0-26-11.7-26-26c0-14.4,11.7-26,26-26c14.4,0,26,11.7,26,26
		C422.9-108.3,411.2-96.6,396.9-96.6z M396.9-140.8c-10,0-18.2,8.2-18.2,18.2c0,10,8.2,18.2,18.2,18.2c10,0,18.2-8.2,18.2-18.2
		C415-132.6,406.9-140.8,396.9-140.8z"/>
</g>
<g>
	<g>
		<g>
			<g>
				<g>
					<path class="st9" d="M-472.3,1069.4L-472.3,1069.4c0-6.5,5.3-11.7,11.7-11.7l0,0c6.5,0,11.7,5.3,11.7,11.7l0,0
						c0,6.5-5.3,11.7-11.7,11.7l0,0C-467.1,1081.1-472.3,1075.9-472.3,1069.4z"/>
					<path class="st9" d="M-504.4,1069.4L-504.4,1069.4c0-6.5,5.3-11.7,11.7-11.7l0,0c6.5,0,11.7,5.3,11.7,11.7l0,0
						c0,6.5-5.3,11.7-11.7,11.7l0,0C-499.1,1081.1-504.4,1075.9-504.4,1069.4z"/>
					<path class="st9" d="M-472.3,1101.1L-472.3,1101.1c0-6.5,5.3-11.7,11.7-11.7l0,0c6.5,0,11.7,5.3,11.7,11.7l0,0
						c0,6.5-5.3,11.7-11.7,11.7l0,0C-467.1,1112.8-472.3,1107.6-472.3,1101.1z"/>
					<path class="st9" d="M-504.4,1101.1L-504.4,1101.1c0-6.5,5.3-11.7,11.7-11.7l0,0c6.5,0,11.7,5.3,11.7,11.7l0,0
						c0,6.5-5.3,11.7-11.7,11.7l0,0C-499.1,1112.8-504.4,1107.6-504.4,1101.1z"/>
					<path class="st9" d="M-472.3,1132.1L-472.3,1132.1c0-6.5,5.3-11.7,11.7-11.7l0,0c6.5,0,11.7,5.3,11.7,11.7l0,0
						c0,6.5-5.3,11.7-11.7,11.7l0,0C-467.1,1143.8-472.3,1138.6-472.3,1132.1z"/>
					<path class="st9" d="M-504.4,1132.1L-504.4,1132.1c0-6.5,5.3-11.7,11.7-11.7l0,0c6.5,0,11.7,5.3,11.7,11.7l0,0
						c0,6.5-5.3,11.7-11.7,11.7l0,0C-499.1,1143.8-504.4,1138.6-504.4,1132.1z"/>
					<path class="st9" d="M-472.3,1163.8L-472.3,1163.8c0-6.5,5.3-11.7,11.7-11.7l0,0c6.5,0,11.7,5.3,11.7,11.7l0,0
						c0,6.5-5.3,11.7-11.7,11.7l0,0C-467.1,1175.5-472.3,1170.3-472.3,1163.8z"/>
					<path class="st9" d="M-504.4,1163.8L-504.4,1163.8c0-6.5,5.3-11.7,11.7-11.7l0,0c6.5,0,11.7,5.3,11.7,11.7l0,0
						c0,6.5-5.3,11.7-11.7,11.7l0,0C-499.1,1175.5-504.4,1170.3-504.4,1163.8z"/>
					<path class="st9" d="M-472.3,1195.5L-472.3,1195.5c0-6.5,5.3-11.7,11.7-11.7l0,0c6.5,0,11.7,5.3,11.7,11.7l0,0
						c0,6.5-5.3,11.7-11.7,11.7l0,0C-467.1,1207.3-472.3,1202-472.3,1195.5z"/>
					<path class="st9" d="M-504.4,1195.5L-504.4,1195.5c0-6.5,5.3-11.7,11.7-11.7l0,0c6.5,0,11.7,5.3,11.7,11.7l0,0
						c0,6.5-5.3,11.7-11.7,11.7l0,0C-499.1,1207.3-504.4,1202-504.4,1195.5z"/>
					<path class="st9" d="M-472.3,1227.2L-472.3,1227.2c0-6.5,5.3-11.7,11.7-11.7l0,0c6.5,0,11.7,5.3,11.7,11.7l0,0
						c0,6.5-5.3,11.7-11.7,11.7l0,0C-467.1,1239-472.3,1233.7-472.3,1227.2z"/>
					<path class="st9" d="M-504.4,1227.2L-504.4,1227.2c0-6.5,5.3-11.7,11.7-11.7l0,0c6.5,0,11.7,5.3,11.7,11.7l0,0
						c0,6.5-5.3,11.7-11.7,11.7l0,0C-499.1,1239-504.4,1233.7-504.4,1227.2z"/>
					<path class="st9" d="M-472.3,1258.2L-472.3,1258.2c0-6.5,5.3-11.7,11.7-11.7l0,0c6.5,0,11.7,5.3,11.7,11.7l0,0
						c0,6.5-5.3,11.7-11.7,11.7l0,0C-467.1,1270-472.3,1264.7-472.3,1258.2z"/>
					<path class="st9" d="M-504.4,1258.2L-504.4,1258.2c0-6.5,5.3-11.7,11.7-11.7l0,0c6.5,0,11.7,5.3,11.7,11.7l0,0
						c0,6.5-5.3,11.7-11.7,11.7l0,0C-499.1,1270-504.4,1264.7-504.4,1258.2z"/>
					<path class="st9" d="M-472.3,1289.9L-472.3,1289.9c0-6.5,5.3-11.7,11.7-11.7l0,0c6.5,0,11.7,5.3,11.7,11.7l0,0
						c0,6.5-5.3,11.7-11.7,11.7l0,0C-467.1,1301.7-472.3,1296.4-472.3,1289.9z"/>
					<path class="st9" d="M-504.4,1289.9L-504.4,1289.9c0-6.5,5.3-11.7,11.7-11.7l0,0c6.5,0,11.7,5.3,11.7,11.7l0,0
						c0,6.5-5.3,11.7-11.7,11.7l0,0C-499.1,1301.7-504.4,1296.4-504.4,1289.9z"/>
					<path class="st9" d="M-472.3,1290.4L-472.3,1290.4c0-6.5,5.3-11.7,11.7-11.7l0,0c6.5,0,11.7,5.3,11.7,11.7l0,0
						c0,6.5-5.3,11.7-11.7,11.7l0,0C-467.1,1302.1-472.3,1296.9-472.3,1290.4z"/>
					<path class="st9" d="M-504.4,1290.4L-504.4,1290.4c0-6.5,5.3-11.7,11.7-11.7l0,0c6.5,0,11.7,5.3,11.7,11.7l0,0
						c0,6.5-5.3,11.7-11.7,11.7l0,0C-499.1,1302.1-504.4,1296.9-504.4,1290.4z"/>
					<path class="st9" d="M-472.3,1322.1L-472.3,1322.1c0-6.5,5.3-11.7,11.7-11.7l0,0c6.5,0,11.7,5.3,11.7,11.7l0,0
						c0,6.5-5.3,11.7-11.7,11.7l0,0C-467.1,1333.9-472.3,1328.6-472.3,1322.1z"/>
					<path class="st9" d="M-504.4,1322.1L-504.4,1322.1c0-6.5,5.3-11.7,11.7-11.7l0,0c6.5,0,11.7,5.3,11.7,11.7l0,0
						c0,6.5-5.3,11.7-11.7,11.7l0,0C-499.1,1333.9-504.4,1328.6-504.4,1322.1z"/>
					<path class="st9" d="M-472.3,1353.1L-472.3,1353.1c0-6.5,5.3-11.7,11.7-11.7l0,0c6.5,0,11.7,5.3,11.7,11.7l0,0
						c0,6.5-5.3,11.7-11.7,11.7l0,0C-467.1,1364.8-472.3,1359.6-472.3,1353.1z"/>
					<path class="st9" d="M-504.4,1353.1L-504.4,1353.1c0-6.5,5.3-11.7,11.7-11.7l0,0c6.5,0,11.7,5.3,11.7,11.7l0,0
						c0,6.5-5.3,11.7-11.7,11.7l0,0C-499.1,1364.8-504.4,1359.6-504.4,1353.1z"/>
				</g>
			</g>
			<g>
				<g>
					<path class="st9" d="M-536.4,1069.4L-536.4,1069.4c0-6.5,5.3-11.7,11.7-11.7l0,0c6.5,0,11.7,5.3,11.7,11.7l0,0
						c0,6.5-5.3,11.7-11.7,11.7l0,0C-531.1,1081.1-536.4,1075.9-536.4,1069.4z"/>
					<path class="st9" d="M-568.4,1069.4L-568.4,1069.4c0-6.5,5.3-11.7,11.7-11.7l0,0c6.5,0,11.7,5.3,11.7,11.7l0,0
						c0,6.5-5.3,11.7-11.7,11.7l0,0C-563.2,1081.1-568.4,1075.9-568.4,1069.4z"/>
					<path class="st9" d="M-536.4,1101.1L-536.4,1101.1c0-6.5,5.3-11.7,11.7-11.7l0,0c6.5,0,11.7,5.3,11.7,11.7l0,0
						c0,6.5-5.3,11.7-11.7,11.7l0,0C-531.1,1112.8-536.4,1107.6-536.4,1101.1z"/>
					<path class="st9" d="M-568.4,1101.1L-568.4,1101.1c0-6.5,5.3-11.7,11.7-11.7l0,0c6.5,0,11.7,5.3,11.7,11.7l0,0
						c0,6.5-5.3,11.7-11.7,11.7l0,0C-563.2,1112.8-568.4,1107.6-568.4,1101.1z"/>
					<path class="st9" d="M-536.4,1132.1L-536.4,1132.1c0-6.5,5.3-11.7,11.7-11.7l0,0c6.5,0,11.7,5.3,11.7,11.7l0,0
						c0,6.5-5.3,11.7-11.7,11.7l0,0C-531.1,1143.8-536.4,1138.6-536.4,1132.1z"/>
					<path class="st9" d="M-568.4,1132.1L-568.4,1132.1c0-6.5,5.3-11.7,11.7-11.7l0,0c6.5,0,11.7,5.3,11.7,11.7l0,0
						c0,6.5-5.3,11.7-11.7,11.7l0,0C-563.2,1143.8-568.4,1138.6-568.4,1132.1z"/>
					<path class="st9" d="M-536.4,1163.8L-536.4,1163.8c0-6.5,5.3-11.7,11.7-11.7l0,0c6.5,0,11.7,5.3,11.7,11.7l0,0
						c0,6.5-5.3,11.7-11.7,11.7l0,0C-531.1,1175.5-536.4,1170.3-536.4,1163.8z"/>
					<path class="st9" d="M-568.4,1163.8L-568.4,1163.8c0-6.5,5.3-11.7,11.7-11.7l0,0c6.5,0,11.7,5.3,11.7,11.7l0,0
						c0,6.5-5.3,11.7-11.7,11.7l0,0C-563.2,1175.5-568.4,1170.3-568.4,1163.8z"/>
					<path class="st9" d="M-536.4,1195.5L-536.4,1195.5c0-6.5,5.3-11.7,11.7-11.7l0,0c6.5,0,11.7,5.3,11.7,11.7l0,0
						c0,6.5-5.3,11.7-11.7,11.7l0,0C-531.1,1207.3-536.4,1202-536.4,1195.5z"/>
					<path class="st9" d="M-568.4,1195.5L-568.4,1195.5c0-6.5,5.3-11.7,11.7-11.7l0,0c6.5,0,11.7,5.3,11.7,11.7l0,0
						c0,6.5-5.3,11.7-11.7,11.7l0,0C-563.2,1207.3-568.4,1202-568.4,1195.5z"/>
					<path class="st9" d="M-536.4,1227.2L-536.4,1227.2c0-6.5,5.3-11.7,11.7-11.7l0,0c6.5,0,11.7,5.3,11.7,11.7l0,0
						c0,6.5-5.3,11.7-11.7,11.7l0,0C-531.1,1239-536.4,1233.7-536.4,1227.2z"/>
					<path class="st9" d="M-568.4,1227.2L-568.4,1227.2c0-6.5,5.3-11.7,11.7-11.7l0,0c6.5,0,11.7,5.3,11.7,11.7l0,0
						c0,6.5-5.3,11.7-11.7,11.7l0,0C-563.2,1239-568.4,1233.7-568.4,1227.2z"/>
					<path class="st9" d="M-536.4,1258.2L-536.4,1258.2c0-6.5,5.3-11.7,11.7-11.7l0,0c6.5,0,11.7,5.3,11.7,11.7l0,0
						c0,6.5-5.3,11.7-11.7,11.7l0,0C-531.1,1270-536.4,1264.7-536.4,1258.2z"/>
					<path class="st9" d="M-568.4,1258.2L-568.4,1258.2c0-6.5,5.3-11.7,11.7-11.7l0,0c6.5,0,11.7,5.3,11.7,11.7l0,0
						c0,6.5-5.3,11.7-11.7,11.7l0,0C-563.2,1270-568.4,1264.7-568.4,1258.2z"/>
					<path class="st9" d="M-536.4,1289.9L-536.4,1289.9c0-6.5,5.3-11.7,11.7-11.7l0,0c6.5,0,11.7,5.3,11.7,11.7l0,0
						c0,6.5-5.3,11.7-11.7,11.7l0,0C-531.1,1301.7-536.4,1296.4-536.4,1289.9z"/>
					<path class="st9" d="M-568.4,1289.9L-568.4,1289.9c0-6.5,5.3-11.7,11.7-11.7l0,0c6.5,0,11.7,5.3,11.7,11.7l0,0
						c0,6.5-5.3,11.7-11.7,11.7l0,0C-563.2,1301.7-568.4,1296.4-568.4,1289.9z"/>
					<path class="st9" d="M-536.4,1290.4L-536.4,1290.4c0-6.5,5.3-11.7,11.7-11.7l0,0c6.5,0,11.7,5.3,11.7,11.7l0,0
						c0,6.5-5.3,11.7-11.7,11.7l0,0C-531.1,1302.1-536.4,1296.9-536.4,1290.4z"/>
					<path class="st9" d="M-568.4,1290.4L-568.4,1290.4c0-6.5,5.3-11.7,11.7-11.7l0,0c6.5,0,11.7,5.3,11.7,11.7l0,0
						c0,6.5-5.3,11.7-11.7,11.7l0,0C-563.2,1302.1-568.4,1296.9-568.4,1290.4z"/>
					<path class="st9" d="M-536.4,1322.1L-536.4,1322.1c0-6.5,5.3-11.7,11.7-11.7l0,0c6.5,0,11.7,5.3,11.7,11.7l0,0
						c0,6.5-5.3,11.7-11.7,11.7l0,0C-531.1,1333.9-536.4,1328.6-536.4,1322.1z"/>
					<path class="st9" d="M-568.4,1322.1L-568.4,1322.1c0-6.5,5.3-11.7,11.7-11.7l0,0c6.5,0,11.7,5.3,11.7,11.7l0,0
						c0,6.5-5.3,11.7-11.7,11.7l0,0C-563.2,1333.9-568.4,1328.6-568.4,1322.1z"/>
					<path class="st9" d="M-536.4,1353.1L-536.4,1353.1c0-6.5,5.3-11.7,11.7-11.7l0,0c6.5,0,11.7,5.3,11.7,11.7l0,0
						c0,6.5-5.3,11.7-11.7,11.7l0,0C-531.1,1364.8-536.4,1359.6-536.4,1353.1z"/>
					<path class="st9" d="M-568.4,1353.1L-568.4,1353.1c0-6.5,5.3-11.7,11.7-11.7l0,0c6.5,0,11.7,5.3,11.7,11.7l0,0
						c0,6.5-5.3,11.7-11.7,11.7l0,0C-563.2,1364.8-568.4,1359.6-568.4,1353.1z"/>
				</g>
			</g>
		</g>
	</g>
	<g>
		<g>
			<g>
				<g>
					<path class="st9" d="M-344.5,1069.4L-344.5,1069.4c0-6.5,5.3-11.7,11.7-11.7l0,0c6.5,0,11.7,5.3,11.7,11.7l0,0
						c0,6.5-5.3,11.7-11.7,11.7l0,0C-339.3,1081.1-344.5,1075.9-344.5,1069.4z"/>
					<path class="st9" d="M-376.6,1069.4L-376.6,1069.4c0-6.5,5.3-11.7,11.7-11.7l0,0c6.5,0,11.7,5.3,11.7,11.7l0,0
						c0,6.5-5.3,11.7-11.7,11.7l0,0C-371.3,1081.1-376.6,1075.9-376.6,1069.4z"/>
					<path class="st9" d="M-344.5,1101.1L-344.5,1101.1c0-6.5,5.3-11.7,11.7-11.7l0,0c6.5,0,11.7,5.3,11.7,11.7l0,0
						c0,6.5-5.3,11.7-11.7,11.7l0,0C-339.3,1112.8-344.5,1107.6-344.5,1101.1z"/>
					<path class="st9" d="M-376.6,1101.1L-376.6,1101.1c0-6.5,5.3-11.7,11.7-11.7l0,0c6.5,0,11.7,5.3,11.7,11.7l0,0
						c0,6.5-5.3,11.7-11.7,11.7l0,0C-371.3,1112.8-376.6,1107.6-376.6,1101.1z"/>
					<path class="st9" d="M-344.5,1132.1L-344.5,1132.1c0-6.5,5.3-11.7,11.7-11.7l0,0c6.5,0,11.7,5.3,11.7,11.7l0,0
						c0,6.5-5.3,11.7-11.7,11.7l0,0C-339.3,1143.8-344.5,1138.6-344.5,1132.1z"/>
					<path class="st9" d="M-376.6,1132.1L-376.6,1132.1c0-6.5,5.3-11.7,11.7-11.7l0,0c6.5,0,11.7,5.3,11.7,11.7l0,0
						c0,6.5-5.3,11.7-11.7,11.7l0,0C-371.3,1143.8-376.6,1138.6-376.6,1132.1z"/>
					<path class="st9" d="M-344.5,1163.8L-344.5,1163.8c0-6.5,5.3-11.7,11.7-11.7l0,0c6.5,0,11.7,5.3,11.7,11.7l0,0
						c0,6.5-5.3,11.7-11.7,11.7l0,0C-339.3,1175.5-344.5,1170.3-344.5,1163.8z"/>
					<path class="st9" d="M-376.6,1163.8L-376.6,1163.8c0-6.5,5.3-11.7,11.7-11.7l0,0c6.5,0,11.7,5.3,11.7,11.7l0,0
						c0,6.5-5.3,11.7-11.7,11.7l0,0C-371.3,1175.5-376.6,1170.3-376.6,1163.8z"/>
					<path class="st9" d="M-344.5,1195.5L-344.5,1195.5c0-6.5,5.3-11.7,11.7-11.7l0,0c6.5,0,11.7,5.3,11.7,11.7l0,0
						c0,6.5-5.3,11.7-11.7,11.7l0,0C-339.3,1207.3-344.5,1202-344.5,1195.5z"/>
					<path class="st9" d="M-376.6,1195.5L-376.6,1195.5c0-6.5,5.3-11.7,11.7-11.7l0,0c6.5,0,11.7,5.3,11.7,11.7l0,0
						c0,6.5-5.3,11.7-11.7,11.7l0,0C-371.3,1207.3-376.6,1202-376.6,1195.5z"/>
					<path class="st9" d="M-344.5,1227.2L-344.5,1227.2c0-6.5,5.3-11.7,11.7-11.7l0,0c6.5,0,11.7,5.3,11.7,11.7l0,0
						c0,6.5-5.3,11.7-11.7,11.7l0,0C-339.3,1239-344.5,1233.7-344.5,1227.2z"/>
					<path class="st9" d="M-376.6,1227.2L-376.6,1227.2c0-6.5,5.3-11.7,11.7-11.7l0,0c6.5,0,11.7,5.3,11.7,11.7l0,0
						c0,6.5-5.3,11.7-11.7,11.7l0,0C-371.3,1239-376.6,1233.7-376.6,1227.2z"/>
					<path class="st9" d="M-344.5,1258.2L-344.5,1258.2c0-6.5,5.3-11.7,11.7-11.7l0,0c6.5,0,11.7,5.3,11.7,11.7l0,0
						c0,6.5-5.3,11.7-11.7,11.7l0,0C-339.3,1270-344.5,1264.7-344.5,1258.2z"/>
					<path class="st9" d="M-376.6,1258.2L-376.6,1258.2c0-6.5,5.3-11.7,11.7-11.7l0,0c6.5,0,11.7,5.3,11.7,11.7l0,0
						c0,6.5-5.3,11.7-11.7,11.7l0,0C-371.3,1270-376.6,1264.7-376.6,1258.2z"/>
					<path class="st9" d="M-344.5,1289.9L-344.5,1289.9c0-6.5,5.3-11.7,11.7-11.7l0,0c6.5,0,11.7,5.3,11.7,11.7l0,0
						c0,6.5-5.3,11.7-11.7,11.7l0,0C-339.3,1301.7-344.5,1296.4-344.5,1289.9z"/>
					<path class="st9" d="M-376.6,1289.9L-376.6,1289.9c0-6.5,5.3-11.7,11.7-11.7l0,0c6.5,0,11.7,5.3,11.7,11.7l0,0
						c0,6.5-5.3,11.7-11.7,11.7l0,0C-371.3,1301.7-376.6,1296.4-376.6,1289.9z"/>
					<path class="st9" d="M-344.5,1290.4L-344.5,1290.4c0-6.5,5.3-11.7,11.7-11.7l0,0c6.5,0,11.7,5.3,11.7,11.7l0,0
						c0,6.5-5.3,11.7-11.7,11.7l0,0C-339.3,1302.1-344.5,1296.9-344.5,1290.4z"/>
					<path class="st9" d="M-376.6,1290.4L-376.6,1290.4c0-6.5,5.3-11.7,11.7-11.7l0,0c6.5,0,11.7,5.3,11.7,11.7l0,0
						c0,6.5-5.3,11.7-11.7,11.7l0,0C-371.3,1302.1-376.6,1296.9-376.6,1290.4z"/>
					<path class="st9" d="M-344.5,1322.1L-344.5,1322.1c0-6.5,5.3-11.7,11.7-11.7l0,0c6.5,0,11.7,5.3,11.7,11.7l0,0
						c0,6.5-5.3,11.7-11.7,11.7l0,0C-339.3,1333.9-344.5,1328.6-344.5,1322.1z"/>
					<path class="st9" d="M-376.6,1322.1L-376.6,1322.1c0-6.5,5.3-11.7,11.7-11.7l0,0c6.5,0,11.7,5.3,11.7,11.7l0,0
						c0,6.5-5.3,11.7-11.7,11.7l0,0C-371.3,1333.9-376.6,1328.6-376.6,1322.1z"/>
					<path class="st9" d="M-344.5,1353.1L-344.5,1353.1c0-6.5,5.3-11.7,11.7-11.7l0,0c6.5,0,11.7,5.3,11.7,11.7l0,0
						c0,6.5-5.3,11.7-11.7,11.7l0,0C-339.3,1364.8-344.5,1359.6-344.5,1353.1z"/>
					<path class="st9" d="M-376.6,1353.1L-376.6,1353.1c0-6.5,5.3-11.7,11.7-11.7l0,0c6.5,0,11.7,5.3,11.7,11.7l0,0
						c0,6.5-5.3,11.7-11.7,11.7l0,0C-371.3,1364.8-376.6,1359.6-376.6,1353.1z"/>
				</g>
			</g>
			<g>
				<g>
					<path class="st9" d="M-408.6,1069.4L-408.6,1069.4c0-6.5,5.3-11.7,11.7-11.7h0c6.5,0,11.7,5.3,11.7,11.7l0,0
						c0,6.5-5.3,11.7-11.7,11.7h0C-403.3,1081.1-408.6,1075.9-408.6,1069.4z"/>
					<path class="st9" d="M-440.6,1069.4L-440.6,1069.4c0-6.5,5.3-11.7,11.7-11.7l0,0c6.5,0,11.7,5.3,11.7,11.7l0,0
						c0,6.5-5.3,11.7-11.7,11.7l0,0C-435.4,1081.1-440.6,1075.9-440.6,1069.4z"/>
					<path class="st9" d="M-408.6,1101.1L-408.6,1101.1c0-6.5,5.3-11.7,11.7-11.7h0c6.5,0,11.7,5.3,11.7,11.7l0,0
						c0,6.5-5.3,11.7-11.7,11.7h0C-403.3,1112.8-408.6,1107.6-408.6,1101.1z"/>
					<path class="st9" d="M-440.6,1101.1L-440.6,1101.1c0-6.5,5.3-11.7,11.7-11.7l0,0c6.5,0,11.7,5.3,11.7,11.7l0,0
						c0,6.5-5.3,11.7-11.7,11.7l0,0C-435.4,1112.8-440.6,1107.6-440.6,1101.1z"/>
					<path class="st9" d="M-408.6,1132.1L-408.6,1132.1c0-6.5,5.3-11.7,11.7-11.7h0c6.5,0,11.7,5.3,11.7,11.7l0,0
						c0,6.5-5.3,11.7-11.7,11.7h0C-403.3,1143.8-408.6,1138.6-408.6,1132.1z"/>
					<path class="st9" d="M-440.6,1132.1L-440.6,1132.1c0-6.5,5.3-11.7,11.7-11.7l0,0c6.5,0,11.7,5.3,11.7,11.7l0,0
						c0,6.5-5.3,11.7-11.7,11.7l0,0C-435.4,1143.8-440.6,1138.6-440.6,1132.1z"/>
					<path class="st9" d="M-408.6,1163.8L-408.6,1163.8c0-6.5,5.3-11.7,11.7-11.7h0c6.5,0,11.7,5.3,11.7,11.7l0,0
						c0,6.5-5.3,11.7-11.7,11.7h0C-403.3,1175.5-408.6,1170.3-408.6,1163.8z"/>
					<path class="st9" d="M-440.6,1163.8L-440.6,1163.8c0-6.5,5.3-11.7,11.7-11.7l0,0c6.5,0,11.7,5.3,11.7,11.7l0,0
						c0,6.5-5.3,11.7-11.7,11.7l0,0C-435.4,1175.5-440.6,1170.3-440.6,1163.8z"/>
					<path class="st9" d="M-408.6,1195.5L-408.6,1195.5c0-6.5,5.3-11.7,11.7-11.7h0c6.5,0,11.7,5.3,11.7,11.7l0,0
						c0,6.5-5.3,11.7-11.7,11.7h0C-403.3,1207.3-408.6,1202-408.6,1195.5z"/>
					<path class="st9" d="M-440.6,1195.5L-440.6,1195.5c0-6.5,5.3-11.7,11.7-11.7l0,0c6.5,0,11.7,5.3,11.7,11.7l0,0
						c0,6.5-5.3,11.7-11.7,11.7l0,0C-435.4,1207.3-440.6,1202-440.6,1195.5z"/>
					<path class="st9" d="M-408.6,1227.2L-408.6,1227.2c0-6.5,5.3-11.7,11.7-11.7h0c6.5,0,11.7,5.3,11.7,11.7l0,0
						c0,6.5-5.3,11.7-11.7,11.7h0C-403.3,1239-408.6,1233.7-408.6,1227.2z"/>
					<path class="st9" d="M-440.6,1227.2L-440.6,1227.2c0-6.5,5.3-11.7,11.7-11.7l0,0c6.5,0,11.7,5.3,11.7,11.7l0,0
						c0,6.5-5.3,11.7-11.7,11.7l0,0C-435.4,1239-440.6,1233.7-440.6,1227.2z"/>
					<path class="st9" d="M-408.6,1258.2L-408.6,1258.2c0-6.5,5.3-11.7,11.7-11.7h0c6.5,0,11.7,5.3,11.7,11.7l0,0
						c0,6.5-5.3,11.7-11.7,11.7h0C-403.3,1270-408.6,1264.7-408.6,1258.2z"/>
					<path class="st9" d="M-440.6,1258.2L-440.6,1258.2c0-6.5,5.3-11.7,11.7-11.7l0,0c6.5,0,11.7,5.3,11.7,11.7l0,0
						c0,6.5-5.3,11.7-11.7,11.7l0,0C-435.4,1270-440.6,1264.7-440.6,1258.2z"/>
					<path class="st9" d="M-408.6,1289.9L-408.6,1289.9c0-6.5,5.3-11.7,11.7-11.7h0c6.5,0,11.7,5.3,11.7,11.7l0,0
						c0,6.5-5.3,11.7-11.7,11.7h0C-403.3,1301.7-408.6,1296.4-408.6,1289.9z"/>
					<path class="st9" d="M-440.6,1289.9L-440.6,1289.9c0-6.5,5.3-11.7,11.7-11.7l0,0c6.5,0,11.7,5.3,11.7,11.7l0,0
						c0,6.5-5.3,11.7-11.7,11.7l0,0C-435.4,1301.7-440.6,1296.4-440.6,1289.9z"/>
					<path class="st9" d="M-408.6,1290.4L-408.6,1290.4c0-6.5,5.3-11.7,11.7-11.7h0c6.5,0,11.7,5.3,11.7,11.7l0,0
						c0,6.5-5.3,11.7-11.7,11.7h0C-403.3,1302.1-408.6,1296.9-408.6,1290.4z"/>
					<path class="st9" d="M-440.6,1290.4L-440.6,1290.4c0-6.5,5.3-11.7,11.7-11.7l0,0c6.5,0,11.7,5.3,11.7,11.7l0,0
						c0,6.5-5.3,11.7-11.7,11.7l0,0C-435.4,1302.1-440.6,1296.9-440.6,1290.4z"/>
					<path class="st9" d="M-408.6,1322.1L-408.6,1322.1c0-6.5,5.3-11.7,11.7-11.7h0c6.5,0,11.7,5.3,11.7,11.7l0,0
						c0,6.5-5.3,11.7-11.7,11.7h0C-403.3,1333.9-408.6,1328.6-408.6,1322.1z"/>
					<path class="st9" d="M-440.6,1322.1L-440.6,1322.1c0-6.5,5.3-11.7,11.7-11.7l0,0c6.5,0,11.7,5.3,11.7,11.7l0,0
						c0,6.5-5.3,11.7-11.7,11.7l0,0C-435.4,1333.9-440.6,1328.6-440.6,1322.1z"/>
					<path class="st9" d="M-408.6,1353.1L-408.6,1353.1c0-6.5,5.3-11.7,11.7-11.7h0c6.5,0,11.7,5.3,11.7,11.7l0,0
						c0,6.5-5.3,11.7-11.7,11.7h0C-403.3,1364.8-408.6,1359.6-408.6,1353.1z"/>
					<path class="st9" d="M-440.6,1353.1L-440.6,1353.1c0-6.5,5.3-11.7,11.7-11.7l0,0c6.5,0,11.7,5.3,11.7,11.7l0,0
						c0,6.5-5.3,11.7-11.7,11.7l0,0C-435.4,1364.8-440.6,1359.6-440.6,1353.1z"/>
				</g>
			</g>
		</g>
	</g>
</g>
<g>
	<g>
		<rect x="-392.8" y="865.6" class="st3" width="229.7" height="6.1"/>
	</g>
	<g>
		<rect x="-392.8" y="849.9" class="st3" width="229.7" height="6.1"/>
	</g>
</g>
<g>
	<g>
		<polygon class="st3" points="-113.8,1091 -161.2,1091 -161.2,1082.2 -122.6,1082.2 -122.6,1043.7 -113.8,1043.7 		"/>
	</g>
	<g>
		<polygon class="st3" points="-133.2,1071.6 -180.5,1071.6 -180.5,1062.8 -142,1062.8 -142,1024.3 -133.2,1024.3 		"/>
	</g>
</g>
</svg>
