<?xml version="1.0" encoding="utf-8"?>
<!-- Generator: Adobe Illustrator 22.0.1, SVG Export Plug-In . SVG Version: 6.00 Build 0)  -->
<svg version="1.1" id="Camada_1" xmlns="http://www.w3.org/2000/svg" xmlns:xlink="http://www.w3.org/1999/xlink" x="0px" y="0px"
	 viewBox="0 0 634.1 218.7" style="enable-background:new 0 0 634.1 218.7;" xml:space="preserve">
<style type="text/css">
	.st0{display:none;}
	.st1{display:inline;}
	.st2{fill:#222442;}
	.st3{opacity:0.5;fill:#373A5E;enable-background:new    ;}
	.st4{fill:none;stroke:#222442;stroke-width:2;stroke-miterlimit:10;}
	.st5{fill:#FFFFFF;}
	.st6{font-family:'Open Sans';}
	.st7{font-size:8.3821px;}
	.st8{fill:#FF9100;}
	.st9{font-size:10.1849px;}
</style>
<g id="BACKGROUND" class="st0">
	<g class="st1">
		<rect x="21.1" class="st2" width="750" height="500"/>
		<g>
			<path class="st3" d="M470.4,325.8c-0.3,0.6-0.1,1.7-0.5,2.1c-1.1,1.1-3.3,3.8-4.9,4.7c-2,1.2-4.5,1-4.5,4.4c0,1.1,1,2.9,1,3.6
				c0,0.1-1.4,3.1-1.4,3.1c-0.1,0-1.4,1.1-1.4,1.4c0,1,0,2.2,0.8,2.8c0.1,0.5-0.1,0.8-0.1,1.7c0,1.8,1.5,3.8,3.3,3.8
				c4.2,0,4.9-4.7,6.1-7.8c1.5-4,3.2-7.5,3.2-12.5c0.1,0,0.2,0.2,1.3,0.3v-1C472.3,330.5,472.7,326,470.4,325.8z"/>
			<path class="st3" d="M531.1,287.3c0,1,0.8,1.9,1.7,1.9c1.3,0,2.2-1.6,2.2-2.9c0-2.2-2-3.1-3-4.7
				C532.1,283.7,531.1,285.3,531.1,287.3z"/>
			<path class="st3" d="M582.6,311.5c0-0.7-0.8-1.7,0.3-1.9c0-1.5,0-2.1,0-3c0-0.7-0.9-0.9-1.3-1.3c-0.8-0.8-1.6-1.2-1.6-2.6
				c-0.8,0-1.3-0.2-1.3-1.1l0.3-0.4c-0.1-0.3-0.3-0.4-0.6-0.4c-0.2,0-0.3,0-0.6,0c0,0,0.1-0.5,0.1-0.6c0-1-1.2-1.5-2.2-1.9
				c-1.9-0.6-2.7-1.6-4-2.9c-0.7-0.7-1.2-1.6-2.2-1.9c-0.3-0.1-0.6,0-0.8-0.4c-0.6-1.1-1-2.7-2.6-2.7h-2.3c-0.6,0-0.7-2.1-1.4-2.1
				c-0.1,0-0.3,0-0.3,0v2c0,0.7,1.2,2.6,1.8,2.8c0.6,0.1,1.3,0,1.6,0.6c0.4,0.8,0.6,1.3,1,2.1c0.5,1,2.1,0.7,2.6,2.3
				c0.1,0.6,0.6,2.2,1,2.4c0.2,0.1,1,0.2,1.1,0.4c0.1,0.2,0,0.6,0.2,0.6s1,1.4,1.2,1.7c0.8,1.6,1.3,2.9,2.7,4.2
				c1.2,1.3,2.5,1.8,3.8,3.1c0.1,0.1,1.3,1.9,1.6,1.9C581.3,312.5,582.6,312.3,582.6,311.5z"/>
			<path class="st3" d="M589.2,299.3c0,0.3,0.7,2.8,1,2.9c0.4,0.1,0.8,0.1,0.9,0.4c0,0.1-0.1,0.3-0.1,0.3c0.9,1.4-0.2,3.8,2.4,3.8
				c0.6,0,0.9-0.4,1.5-0.3c0.1,0.3,0,1,0.1,1c0.2,0,0.4,0.3,0.6,0.3c0.8,0,1.2-0.8,1.7-0.8c1.2,0,1.9,0.8,3.1,1.1c0,0.4,0.2,1,0.9,1
				c0.9,0,1-0.8,2.2-1.1c0-0.8,0.8-1.8,0.8-2.4c0-0.3-0.3-0.5-0.3-1c0-0.4,0.7-1.5,1.5-1.6c0-1.2,0.6-1.6,0.9-3.1l0.4-0.7
				c0.2-0.1,0.5-0.1,0.7-0.1c0.8,0,1.3,0.3,1.5-0.7c-1.2,0-3.1-3.5-3.1-4.5c0-0.2,0.3-0.4,0.5-0.5c-0.1-0.2-0.2-0.4-0.3-0.6
				c0,0,1.9-0.8,2-1c-0.1,0-0.3-0.2-0.3-0.3c0-0.6,1.5-0.2,1.5-0.8c0-1.4-2.9-0.6-2.9-2c0-1,0.1-1.7-1-1.7c-1.1,0-2.6,2.6-3.2,3.7
				c-0.3,0.6-1.9,0.2-2.5,0.8c-0.1,0.1-0.2,0.5-0.4,0.6c-0.3,0.1-0.3,0.3-0.7,0.5c0,0-0.8,0.6-0.5,0.8c-0.6,0.6-0.6,1.3-1.6,1.5
				c-0.8,0.1-1.5,0.1-1.9,0.6c-1,1-0.7,3.1-2.9,3.1C590.7,298.6,589.2,298.1,589.2,299.3z"/>
			<path class="st3" d="M613.7,300.1c1.2,0,1.7-0.3,2.6-0.3c0.9,0,1.5,0.5,2.4,0.5c1.4,0,1.9-1.2,2.1-2.2c0.2,0,0.3-0.5,0.3-0.5
				h-0.4c-0.8,1-1.8,1-2.2,1h-0.6l-4.8-0.6c-1.8,0-2.6,2.4-2.6,4.1c0,0.4-0.6,0.8-0.6,1.1c-0.5,1.6-1.4,2.3-1.4,3.8
				c0,0.8,1.3,0.9,1.3,0.9c0,1.1,0,2.6,0,3.3c0,0.4,0.7,0.9,1.2,0.9c0.8,0,1.1-2.4,1.1-2.8c0-0.9-0.6-1.4-0.6-2.3
				c0-0.5,0.6-0.8,1.1-0.8c0.2,0,0.4,0.1,0.6,0l-0.3,1.5c0,0.9,1.1,1.5,1.1,2.4c0,0.2,0,0.9,0,0.9h0.9c0-2.1,1.5-0.9,1.5-1.7
				c-0.3-0.1-1-1-1-1.4c0-0.1,0.2-0.3,0.3-0.5c-0.4-0.2-1.5-2.7-1.5-3c1.9,0,1.8-1.6,3.9-2v-0.6c0-0.1-4.3,1-4.4,1.2v-0.3
				c-0.3,0.3-0.4,0.7-0.8,0.7c-1,0-1.5-1.3-1.5-2.4C611.4,299.8,612.5,300.1,613.7,300.1z"/>
			<path class="st3" d="M600.3,317.7c0.8,0,0.8,0.5,1.5,0.5c0.1,0,0.6-0.5,0.8-0.8c-0.5-0.2-0.5-0.4-1.1-0.6
				c-0.6-0.2-1.2,0.4-1.7-0.1c-0.1-0.1-0.1-0.6-0.6-0.6c-1.2,0-2.2,0.1-2.9-0.6c0.1,0.1,2.5-0.2,2.6-0.2h-0.6h-2.1
				c-1.3,0-1.7-1.4-3.1-1.4c-0.8,0-1,1-2.1,1c-2.3,0-3.2-2.3-5.3-2.3c-0.4,0-0.7,0.4-1.1,0.4c-0.2,0-0.3-0.3-0.6-0.3
				c-0.4,0-1.7,1.2-1.7,1.5c1,0,1.6,0.8,2.3,1.5c0.7,0.7,1.7,0,2.8,0.3c1.4,0.4,2.5,0.5,3.8,0.5c0.7,0,0.9,0.9,1.7,0.9
				c2.7,0,5.1,0.1,7.4,1C600.3,318.2,600.1,317.7,600.3,317.7z"/>
			<path class="st3" d="M614.9,318.2c0.9,0,1.5-0.3,2-1.2c-0.6,0.3-1,0.8-2,0.8s-1.5-0.4-2.8-0.4c-0.5,0-1.3-0.2-1.3,0.3
				c0,0.8,1,0.5,1.5,0.5C613,318.2,614,318.2,614.9,318.2z"/>
			<path class="st3" d="M607.4,317.2c0,0-0.1,0.5-0.1,0.7c-0.3-0.1-0.7-0.2-1.3-0.2s-1.2,0-1.2,0.7c0,0.3,0.8,0.5,1.4,0.5
				c0.7,0,1-0.5,1.7-0.8l0.6,0.1h1.3v-1L607.4,317.2L607.4,317.2z"/>
			<path class="st3" d="M611.4,319.3c-0.2,0-0.5,0-0.7,0c-0.5,0-1.3-0.1-1.3,0.5c0,0.7,1.1,0.7,1.8,0.7c0,0.2,0.1,0.9,0.4,0.9
				c0.1,0,0.2,0,0.3,0c0.2,0,0.6-0.3,0.6-0.5C612.4,320,611.4,319.3,611.4,319.3z"/>
			<path class="st3" d="M603.9,317.4c-0.2,0-0.4,0-0.6,0c0,0.2,0,0.5,0,0.7s0.4,0.5,0.6,0.5c0.3,0,0.6-0.3,0.7-0.7
				C604.2,317.8,604.2,317.4,603.9,317.4z"/>
			<path class="st3" d="M621,319.6c1.1,0,3.4-0.6,4.1-1.6c-0.6-0.4-3.7-0.1-4.4,0.6c-0.1,0.1-0.1,0.6-0.3,0.6
				c-1,0.3-2.4,0.3-2.4,1.9c0,0.3,0.2,0.6,0.5,0.6c0.8,0,2-0.8,2.3-1.2C621,320.3,620.7,319.6,621,319.6z"/>
			<path class="st3" d="M640.2,312.6c0-0.5-0.1-0.2-0.3-0.8c-0.5,0.1-0.4,0.7-0.4,1.2c0,0.4-0.7,0.5-0.7,1.2c0,0.2,0.2,0.6,0.4,0.6
				c0.6,0,0.4-0.8,0.4-1.5C640,313.3,640.2,313,640.2,312.6z"/>
			<path class="st3" d="M623.1,307.3c0,0.6,0.8,1.3,1.2,1.3c0.2,0,0.7-0.8,0.7-0.9C625,307,623.1,306.5,623.1,307.3z"/>
			<path class="st3" d="M626.7,307.5c0,0,1,0.3,1.2,0.3c0.6,0,0.9,0,1.6,0c1,0,1.5,0.5,2.4,0.5c0.1,0,0.4-0.1,0.4-0.2
				c0-0.6-0.8-0.7-0.8-1.3l-0.2,0.1c-0.4,0-0.9-0.2-1-0.2h-3.1C627,306.9,626.7,307.2,626.7,307.5z"/>
			<path class="st3" d="M626.4,296.3c-0.6,0.3-1.2,0.8-1.2,1.4c0,0.9,0,1.2,0,1.9c0,0.7,0,0.5,0,0.9s0.7,1.3,1.4,1.3
				c-0.3-0.5-0.3-0.8-0.3-1.2v-0.5c0,0,1.4-0.1,1.7-0.1c-0.1-0.6-0.5-0.7-0.5-1c0-0.4,0.7-0.5,0.7-0.9
				C627,297.8,626.5,297.2,626.4,296.3z"/>
			<path class="st3" d="M667.8,312c0.2,1,1.1,0.6,1.7,1.1c0,0,0.1,0,0.1,0.1c0.1,0,0.1,0.1,0.1,0.1l-0.1-0.1c0.3,0.2,0.8,0.5,1,0.5
				c1.5,0,2.1-0.8,3.3-1c0-1.3,1.5-1,1.5-2.4c0-0.4-0.2-1-0.6-1c-1,0-0.6,1.5-1.5,2c-0.6,0.3-1.7,0.3-2.7,0.7c0,0-0.6,0.3-0.8,0.3
				h-2V312z"/>
			<path class="st3" d="M664.3,312.5c-1.7-0.8-1.6-2.7-3.8-3.4c-0.3-0.1-0.9-0.1-0.9-0.7c-0.8,0-1.5-1-2.4-1c-1.5,0-3-0.7-5-1.5
				v-0.1h0.2c-0.1-0.1,0-0.1-0.1-0.2l0.2,0.5c-0.3-0.1-0.8-0.3-1.1-0.3h-1.9c-0.4-2.1-1-1.3-1.8-1.6c-0.2-0.1-0.8-0.1-0.8-0.5
				c-0.8,0.1-1.7,1.3-2.3,1.5c-1,0.3-1.1,0.3-1.7,0.9c-0.1,0.1-0.8,1.2-1.3,1.2c-0.4,0-1.6-1.1-1.6-1.4c-0.6,0-1.3-0.3-1.3-0.6
				c0-0.6,0-1.5,0-2.5c-2.1-0.3-1.9-1.4-3.1-1.4c-1.3,0-1.6,1.2-2.5,1.2c-0.4,0-0.9,0.2-0.9,0.6c0,1,1.7,0.6,2.2,1.5
				c0.1,0.2,0.2,0.6,0.4,0.6c0.3,0.1,0.6,0.5,1,0.5c0.8,0,1.3,0,2,0h0.5c-0.5,0-2.6,0.4-3.5,0.9c0.1,0.6,0.9,0.1,1.3,0.7
				c0.3,0.6,0,0.8,0.3,1.5c0.1,0.2-0.3,0.2-0.1,0.2c0.6,0,0.3-0.7,0.3-1.3v0.6c2.1-0.3,2.3,1.5,3.3,1.5c1.1,0,3.4,0.3,4.1,0.7
				c0.7,0.3,2.8,1.1,3.1,1.9c0.4,1,0,2,1,3c-0.4,0.2-1.7,0.5-1.7,1.3c0,0.6,0.7,0.5,1.2,0.5h1.5c0,0,0.8-0.8,1-0.8
				c1.8,0,2.3,1.8,4.1,1.8c0.8,0,1,0,2.6,0c0,0,0.6-0.3,0.3-1.2c1-0.5,0.8-1.5,2.6-1.5c2.3,0,3.5,2.1,4.9,3.5
				c0.1,0.1,0.7,0.3,0.7,0.6c0,0.8,1.6,1.8,2.6,1.8h1.8c0.1,0,1.2,1,1.3,1s0.3,0,0.4,0c0,0,0.5-0.9,0.9-1.2c-0.2-0.1-1.3,0-1.4-0.3
				c-0.1-0.3-0.3-0.7-0.7-0.9c-0.3-0.1-0.7,0.2-0.8-0.1c-0.1-0.3-0.3-0.8-0.6-0.8c-0.5,0-1.3-0.3-1.5-0.7c-0.6-0.8-0.4-1.3-1.1-2
				c-0.1-0.1-1.3-1.3-1.3-1.7c0-0.6,1.3-0.3,1.3-1.1C666.5,312,665,312.8,664.3,312.5z"/>
			<path class="st3" d="M675.9,307.9c-0.8-0.8-1.4-1.6-2.7-2c0.2,0.6,0.7,0.5,1.3,0.8c0.9,0.6,0.8,1.3,1.7,1.7
				c-0.1,0.7-0.1,1.2,0.7,1.3c0.1,0.1,0.3,0,0.4,0c-0.1-0.1,0-0.3,0-0.5C677.2,308.4,676.5,308.5,675.9,307.9z"/>
			<path class="st3" d="M680.3,311.6c-0.1,0.7-0.2,1.4,0.8,1.5c0,0.2,0,0.3,0,0.6c0,0.2,0.4,0.5,0.6,0.5c0.2,0,0.5-0.3,0.5-0.6
				C682.2,313.4,680.7,311.9,680.3,311.6z"/>
			<path class="st3" d="M693.9,320.9c-0.1,0.4,0.4,1.5,1.1,1.5c-0.1-0.1,0-0.3,0-0.4C695,321.4,694.4,321.3,693.9,320.9z"/>
			<path class="st3" d="M690.8,319.8c0,0.8,1.1,1.1,1.9,1.1c0.1,0,0.3-0.1,0.3-0.1C692.6,320.1,691.9,319.8,690.8,319.8z"/>
			<path class="st3" d="M691.1,317.1c0.1,0.6,1.3,2.2,2,2.2C692.8,318.3,692.1,317.7,691.1,317.1z"/>
			<path class="st3" d="M687.2,315.2l-0.1-0.1H687c0,1,1.6,1.6,2.2,1.6c0.2,0,0.4-0.1,0.6-0.1C689.2,316,687.8,315.5,687.2,315.2z"
				/>
			<path class="st3" d="M684.1,313.9c0,0.1-0.3,0.1-0.3,0.1l1,0.7h0.6C685.1,314.2,684.7,314.2,684.1,313.9z"/>
			<path class="st3" d="M683.8,313.7c0.1,0.1,0.2,0.2,0.3,0.2l0,0L683.8,313.7z"/>
			<path class="st3" d="M663.7,386.5c-0.1,0-3.8-1-3.8,0c0,2.1,2.3,6.9,4.4,6.9c1.4,0,3.3-3.5,3.3-5.1c0-0.8-0.6-1.5-0.8-2.3
				C665.8,386.3,664.6,386.5,663.7,386.5z"/>
			<path class="st3" d="M667.2,385.7c0.1-0.3,0.2-0.5,0.2-1.2c-0.2,0.1-0.6,0.1-0.9,0C666.5,385.1,666.5,385.5,667.2,385.7z"/>
			<path class="st3" d="M643.9,375.5c0.6,0.6,1.7,0.5,2.4,0C645.3,375,645.2,374.8,643.9,375.5z"/>
			<path class="st3" d="M632.9,324.4c0.2,0,0.6,0,1.6,0v-1c-1-0.1-2,0-3.3,0.3C631.6,324.1,632.1,324.4,632.9,324.4z"/>
			<path class="st3" d="M675.9,351.6c-1.3-1.3-4-2.5-4-5.3c-0.9,0-2,0-2.3-0.9c-0.3-1-0.4-2.3-1.3-3.1c-1.2-1.2-4.2-1.8-4.7-3.5
				c-0.6-1.7-1.1-2.6-1.7-4.5c-0.3-1.1-0.3-3.3-1.2-3.9c-0.3-0.1-1.6-0.6-2.3-0.8c-0.8-0.6-0.4-1.8-0.7-2.8
				c-0.4-1.3-1.3-2.6-1.6-4.5c-1.2,0.6-0.9,1.5-2,2.4v6.3c0,1.6-0.7,5.7-2.9,5.7c-1.3,0-1.7-1.5-2.6-1.9c-1.7-0.7-2.8-1-4.6-1.7
				c-0.3-0.1-0.3-1.1-0.7-1.4s-1.4-0.1-1.4-0.7l0.8-3.5c0.6-0.4,1.6-0.5,1.6-1.4c0-0.6-1-1.3-1.4-1.3c-0.8,0-1,0.6-1.9,0.6
				c-2.5,0-3.9-1-6.3-2c0.1,0.8,0.8,1,1.3,1.6c-0.2,0.1-0.8,0.5-1.3,0.5c-1.2,0-4,0.6-4,1.6s-1,1.5-1,2.4c0,0.6,0.2,1.1-0.2,1.7
				c-0.1-0.1-0.7-0.6-1-0.6c-0.6,0-1.2,0.3-1.5,0.8c-0.1-1.3-0.8-2.6-2.1-2.6c-1.5,0-1.8,1.4-3.7,1.4c-0.1,1.6-1.5,1.9-1.5,3.8
				c-0.6,0-0.9-0.3-1.5-0.6c-0.4,0.8,0,1.8-0.8,2.3c-0.3-0.5-1-0.8-1.3-1.4c-0.7,0.3-1.2,1-1.2,1.7c0,0.4,0,0.8,0,1.2
				c0,2.4-5.4,4.3-7.9,4.7c-1.3,0.2-3.7,0.3-4.5,1.2c-0.8,0.8-2.3,2.5-3.6,2.6c0-0.2,0.2-0.5,0.1-0.7c-0.3,0.1-0.6,0.3-0.6,0.8
				c0,1.8,0,1.9,0,4c0,1.7,0.7,2.6,0.7,3.6c0,0.3,0.1,0.6-0.1,0.9c-0.2-0.2-0.5-0.6-0.7-0.9c-0.2,0.3-0.3,0.6-0.4,0.9
				c-0.3,1,1,1.4,1.4,2.4c0.9,2.7,1.1,3.7,1.9,6.7c0.3,1.3,1.4,2.4,1.4,4.4c0,1.6-1.6,2.1-1.6,3.1s3.3,2.4,4.5,2.4
				c3.1,0,4.2-2.3,6.6-2.3c0.8,0,0.8-0.6,1.9,0c1.5,0,2.7-0.4,4.2-0.5c0.6-3.5,4.9-2.3,8.5-3.5c1.5-0.5,2-1.6,4.5-1.6
				c2.3,0,6.4,0.7,7.5,2.1c0.6,0.8,2.1,4.2,2.6,4.2c0,0-0.3,1.3,0.6,1.3c1.5,0,3.2-3.6,4.5-4.9c0.1,1-0.3,4.7-2,5
				c0,0.3,0.3,0.7,0.7,0.7c1,0,1.1-1.3,1.7-1.5c0-0.2,0.1-0.5,0.1-0.7c0.3,0.3,0.7,0.6,0.7,1.5c0,0.7-0.3,0.6-0.5,1.6h0.8
				c0.6,0,0.9-0.3,1.4-0.6c0,0.1,0.1,0.3,0.1,0.3c0.1,0.9,1,1.7,1,2.8c0,2.9,4.4,4.6,7.2,4.6c1.7,0,1.2-1.4,2.8-1.5
				c0.1,0.4,2.8,2,3.4,2.1c0.6-3.3,7-1.9,7-5.1v0.1c0-2.4,1.5-4.6,2.1-6.3c0.7-2.2,2.2-2.9,3.4-4.9c0.3-0.6,0.7-0.8,0.7-1.4v-2
				c1-0.6,0.9-2.8,0.9-4.3c0-2.1-0.8-5.8-1.9-7.3L675.9,351.6z"/>
			<path class="st3" d="M717.9,387.7c-0.2,0-0.4-0.1-0.5-0.3c-0.3,0.1-0.7,0.6-1.2,0.6c-0.4,0-0.3-0.5-0.3-1c-0.2,0-0.5-0.2-0.5-0.7
				c-0.6,0.3-1.7,1.3-1.7,2.3c0,0.1-0.1,0.3-0.1,0.4c-0.6,0.1-1,0.2-1.3,0.8c-0.1,0.2-0.1,0.7-0.1,0.7s-1,1.5-1.3,1.7
				c-1.2,0.6-2.2,2.3-3.9,2.3c-0.5,0-0.8,0.4-1.1,0.9c-0.7,1-2.8,2-2.8,3.8c0,0.1,0.2,0.3,0.3,0.3c0,0.3,2.7,1.4,3.1,1.4
				c0.4,0,1.3,0.3,1.5,0.3c0.8,0,2-1,2.6-1.7c0,0,1.9-4,2.2-4.9c0.6,0,2.2-0.4,2.6-0.4c0.1-0.8-0.2-1.1,0-2.2c1.1,0,2.5-2.6,2.7-3.5
				C718,388.6,717.9,388.3,717.9,387.7z"/>
			<path class="st3" d="M726.3,379.3c-1.1,0-1,1.2-2.4,1.2c-1.7,0-2.6-1.3-2.6-2.3c-0.1,0-0.3,0-0.4,0c-0.3,0-0.6,0-0.6,0h-0.4
				c-0.4,0-1.2-2.1-1.2-2.4c0-0.2,0.2-0.4,0.3-0.6c-0.4-0.2-0.4-0.7-0.8-1.2c-0.7-0.7-1.9-0.8-2.6-2c0.4,1.7,1.4,4,3,4.2
				c-0.1,0.2,0,0.5,0,0.7c0,0.6,0.9,0.8,0.9,1.3l0,0c0,0.4,0.1,0.9,0.1,1.4c0,1-0.2,2-0.9,2.7c-0.4,0.3-1,0.4-1,1.1
				c0,1.3,2.6,0.7,2.6,2.1c0,0.8-0.8,1.2-0.8,2c0,0.6,0.4,0.9,1,0.9c1.5,0,1.9-1.4,2.6-2.4c0.1-0.2,1-0.9,1-1.4
				c0-0.2-0.3-0.5-0.3-0.7c0-0.6,0.7-0.8,1.4-0.9c0.1,0,0.1-0.2,0.2-0.2l0.3,0.3c0.7-1,0.4-2.5,1.4-3.5
				C726.7,379.5,726.5,379.3,726.3,379.3z"/>
			<path class="st3" d="M725.6,337v-0.8c0-0.1-0.2-0.3-0.4-0.6c-0.6,0.2-1.4,0.4-1.4,1.3c0,0.3,0.6,0.4,1.1,0.4
				C725.5,337.3,725.6,337.4,725.6,337z"/>
			<path class="st3" d="M726.6,334.4c0,0.2,0.1,0.6,0.3,0.6c0.7,0,1.6-0.7,1.6-0.9c0-0.2,0-0.4,0-0.6
				C728.5,333.5,726.6,333.6,726.6,334.4z"/>
			<path class="st3" d="M621.9,281.3c-0.1,0.2,0,1-0.2,1.4s-1.3,0.1-1.3,0.9c-0.4,0.1-0.6,0.4-0.6,0.8c-0.1,0-0.2,0-0.4,0
				c-0.4,0-0.3-1-1.1-1c-1.1,0-0.8,1.3-2.2,1.3c-0.1,0.6-0.4,1-0.4,1.6c0,0.2,0.2,0.4,0.2,0.6s-0.5,1.4,0,1.4c0.7,0,0.6-2,1.3-2.6
				c0,0,0.4,0.5,0.6,0.6c0.1-0.1,0.2-0.3,0.2-0.3c0.1,0.1,0.2,0.3,0.6,0.3c-0.1-0.2,0-0.4,0-0.5h0.9c0.1,0.2,0.2,0.4,0.2,0.6
				c-0.2,0.1-0.3,0.3-0.3,0.7c0,1.1,0.7,2.1,1.6,2.1c0.2,0,0.4,0.1,0.6,0c0,0.2,0.1,0.5,0.3,0.5c0.4,0,0.7-0.4,0.7-0.8
				c0-0.7-0.7-0.9-0.7-1.3s0.3-0.5,0.6-0.8c0.1,0.2,0.3,0.3,0.4,0.5v-0.1c0.1,0.3,0.6,1.4,0.8,1.4c0-1,0.8-1.4,0.8-2
				c0-0.5-1-4.1-1.5-4.6C622.6,281.6,622.3,281.3,621.9,281.3z"/>
			<path class="st3" d="M607.1,283.7h0.4c0.8-0.5,2-1.2,2.3-2.6c0.5,0,1-0.1,1.1-0.6c0.3,0,0.4-0.2,0.6-0.4c-0.2-0.2-0.6-0.4-0.6-1
				c-0.2,0.2-0.2,0.5-0.3,0.8C609.9,281.2,607.7,281.9,607.1,283.7z"/>
			<path class="st3" d="M610.6,270.9c0,0.4,1.1,1.1,1.4,1.1c0.2,0,0.3-0.2,0.5-0.4h0.4v0.6c-0.1,0.1-0.4,0.3-0.4,0.7
				c0,0.3,0.5,0.9,0.9,0.9c0.4,0,0.6-0.4,1-0.4c0.9,0,0.9,1.3,1.8,1.4c-0.2-0.5-0.4-0.7,0-1.1c0.4,0.5,1.9,1.1,2.3,1.9
				c0.1,0.2,0.1,0.5,0.3,0.5c0.1,0,0.3-0.2,0.3-0.4c0-0.2,0-0.3,0-0.5c-0.4,0-0.8-0.3-0.8-0.7c-0.1,0.1-0.4,0.1-0.4,0
				c0-0.3,0.3-0.4,0.4-0.7c-0.1,0-0.2-0.1-0.4-0.1c-0.3,0-0.3,0.4-0.6,0.4c-0.4,0-0.6-1.4-1.3-1.4c-0.4,0-0.7,0.2-0.7,0.5
				c0,0.1,0,0.2,0,0.3c-0.7-0.3-1.6-1.8-1.5-2.7c0-1.3,1.2-1.4,1.2-2.7c0-1-0.8-1.9-0.8-2.7c0-0.1-0.1-0.3-0.1-0.4s-0.1-0.2-0.1-0.3
				c-0.3,0.1-0.5,0.6-0.8,0.6c-0.6,0-0.4-1.1-1.1-1.1c-0.5,0-0.6,0.6-0.7,1.2c0,0.7,0.3,1.2,0.3,1.9c0,0.5-0.1,1.4-0.4,1.8
				C610.4,268.7,610.6,269.9,610.6,270.9z"/>
			<path class="st3" d="M621.2,276.4c-0.5,0-0.9-0.3-1.4-0.3c-0.2,0-0.4,0.2-0.6,0.2c0.1,0.5,1.5,0.9,1.5,1.8c0,0.1-0.2,0.4-0.3,0.4
				s-0.5,0-0.8,0v0.4c0.1,0.2,0.5,0.8,0.9,0.8v0.4c-0.3,0.4-0.1,0.8,0.3,0.9c0.2,0,0.4,0,0.6,0v-0.4c-0.3-0.1-0.5-0.7-0.5-1.2h0.9
				c0.1-0.2,0.2-0.4,0.3-0.8c-0.1,0-0.5-0.6-0.5-0.6s0.1-0.6,0-1c-0.1,0-0.3,0-0.4,0C621.3,276.8,621.2,276.5,621.2,276.4z"/>
			<path class="st3" d="M615.8,277.5c-0.1-0.1-0.2-0.2-0.3-0.2s-0.4,0.2-0.4,0.3c0,0.5,0.2,1.7,0.2,2.7c0.6-0.4,2-0.9,2.1-1.9
				C617.4,278,616.3,277.8,615.8,277.5z"/>
			<path class="st3" d="M617.7,279.3c-0.3,0.1-0.7,1.6-0.7,1.7c-0.2,0-0.6,0.2-0.6,0.4c0,0.4,1.1,1.6,1.4,1.6c0.1,0,0.4-0.2,0.4-0.3
				c0-0.4-0.3-0.2-0.3-0.8c0-0.7,0.7-1.2,0.7-1.9C618.6,279.6,618.3,279.1,617.7,279.3z"/>
			<path class="st3" d="M618.3,282c0.1,0,0.3,0,0.3,0c0-1,0.8-1.4,0.9-2.5c-0.2,0-0.4,0.1-0.6,0.1C618.9,280.8,618.5,281,618.3,282z
				"/>
			<path class="st3" d="M620.2,280.9c-0.2,0.2-0.5,0.1-0.8,0c-0.2,0.4-0.6,0.5-0.6,0.9c0,0.1,0.2,0.3,0.4,0.3
				C619.8,282.1,620.2,281.6,620.2,280.9z"/>
			<path class="st3" d="M618.9,277.6c0-0.8-0.8-1-1-1.5h-0.6c0,0.2,0,0.5,0,0.9c0.3,0,0.6,0,0.9,0
				C618.2,277.3,618.9,277.9,618.9,277.6z"/>
			<path class="st3" d="M613.8,276.5c0.3,0,0.6-0.7,0.5-1.2c-0.2-0.7-0.9-0.6-1.6-1.1h-0.6C612,274.1,613.5,276.5,613.8,276.5z"/>
			<path class="st3" d="M614.5,274.5c0.1,0.1,0.5,0.1,0.6,0C615,274.4,614.6,274.5,614.5,274.5z"/>
			<path class="st3" d="M613.6,249.4c-1,0-2.4,2.7-2.4,4.2c0,1-0.2,1.9,1,1.9C613.8,255.5,615.3,249.4,613.6,249.4z"/>
			<path class="st3" d="M593.1,261.2c0-0.4-0.7-1-1-1c-0.9,0-3,1.7-4,1.7c0,0,0,0.6,0,1c0,0.9,0.7,1.4,1.7,1.4
				C590.8,264.3,593.1,262.2,593.1,261.2z"/>
			<path class="st3" d="M583.2,305.3c0.1,0.2,0.3,1.1,0.5,1.1c0.3,0,0.5,0.5,0.9,0.5c0.1,0,0.3,0,0.5,0c-0.1,0-0.1-0.6-0.1-0.8
				c-1,0-1.4-1.4-1.7-2.4c-0.5,0.1-1.5,0.5-1.5,0.9C581.8,305.1,582.9,304.7,583.2,305.3z"/>
			<path class="st3" d="M587.4,307.1c0.4,0,0.7-0.4,0.8-0.8c-0.2-0.1-0.4-0.3-0.6-0.3s-0.5,0-0.7,0c-0.1,0,0,0.3,0,0.3
				C586.8,306.6,587,307.1,587.4,307.1z"/>
			<path class="st3" d="M569.8,303.1h-1c0,0,0-0.1,0,0c0,0.5,1.1,1.6,1.5,1.7C570.4,304.1,569.8,303.7,569.8,303.1
				C569.8,303.2,569.8,303.1,569.8,303.1z"/>
			<path class="st3" d="M567,298.6l-0.3,0.1h0.1c0.1,0.4,1,1.5,1.3,1.5C568.5,300.3,567.4,298.9,567,298.6z"/>
			<path class="st3" d="M630.2,232.5c0,0.3,0.3,0.8,0.7,0.8c0.2,0,0.5-0.3,0.8-0.3c-0.1-0.2,0-0.4,0-0.6c0.1,0.3,0.1,0.8,0.6,0.9
				l-0.3,1c0,0-1.1,1-1.1,1.1c0,0.3,0.6,1.1,0.6,1.1V236c0,0.2,0.4,0.6,0.6,0.6c1,0,1.7-2.2,1.9-3.4c0.2,0.1,0.5,0,0.7,0
				c-0.1-0.2,0-0.5,0-0.7l-0.6-0.6c-0.2,0-0.1-0.5-0.1-0.7c-0.8,0-1.2-0.6-1.8-0.6C632.1,230.8,630.2,232.1,630.2,232.5z"/>
			<path class="st3" d="M636.6,233c0.9,0,0.8-1.1,1.4-1.7c0.2,0.1,0.8,0.5,0.8,0.5c1,0,2.1-2.4,0-2.4c0,0-0.9,1.2-2.1,0.8
				c0,0.1-1.2,1-1.2,1c0,0.3,0.2,0.5,0.6,0.8C636,232.4,636.2,233,636.6,233z"/>
			<path class="st3" d="M644.1,224.3c-0.6,0-1,1.9-2.2,1.9c-1.6,0-2.2,0-4.3,0c-1.8,0-2.4,2-3.9,3c-0.3,0.1-0.9,0.4-0.9,0.6
				c0,0.3,0.5,0.3,1,0.3c1.5,0,2.7-0.5,3.6-0.9c0.6-0.3,1,0.1,1.5-0.2c0.2-0.1,0.3-0.5,0.7-0.5c0.8,0,0.9,0.4,1.8,0.6
				c0,0.3-0.5,0.8-0.5,1.2c0,0.2,0,0.6,0,0.6c1,0,0.7,0.6,1.3,0.7c0.4-0.7,1.3-1.8,1.8-1.8c0.2,0,0.6,0,0.8-0.1
				c-0.1,0-0.7-0.8-0.7-1.1c0-0.2,0.2-0.6,0.4-0.6c0.6,0,0.6,1.2,2,1.2c0.6,0,1,0.2,1.4-0.9h0.7c0,1,0.2,0.4,0.3,0.4
				c0.3-1,0.9-1,1.9-1.7c-0.1,0.5-0.3,0.6-0.1,1.1c0.8-0.3,0.8-1,1.7-1.4c-0.1-0.4-0.3-0.7-0.3-1.3c0-0.9,0.8-1.3,0.8-1.9
				c0-0.8-0.1-2.9,0.6-3.1c0.2-0.1,0.8,0.1,0.8-0.1c0-0.1,0-0.3,0-0.4c0-0.9,0.8-1,0.8-2.2c0-1-1-1.5-1-2.4c0-0.5,0-0.9-0.2-1.4
				c-0.1-0.2-0.4-0.4-0.9-0.4c-0.2,0-0.1,0.6,0.1,0.6c0.1,0,0.1,0.1,0.2,0.1c-0.8,0.7-0.8-0.2-0.9-0.2c-0.9,0-1.6,1.7-1.6,2.6
				c0,0.4,0.3,0.4,0.3,0.8c0,2.2-2.4,5.1-3.8,5.6c-0.8,0.3-1,1-2,1c-0.1,0-0.3-0.2-0.3-0.3c0-0.3,0.1-0.7,0.3-0.9
				C645,222.8,644.1,224.3,644.1,224.3z"/>
			<path class="st3" d="M651.1,209.1c0,0.5-0.8,1-0.8,1.7c0,0.3,0.8,0.4,0.8,0.7c0,0.1,0,1.3,0,1.3h0.3c0.6,0,1.1-0.1,1.7-0.9
				c-0.3-0.3-1.3-0.2-1.3-0.9c0-1.2,1.2-0.4,2.1-0.4c0-0.2,0.3-0.5,0.5-0.5c1.2,0.8,1.9,0.9,3,1.6c0.6-0.8,1-2.4,2.5-2.4
				c1,0,1.5-0.2,2.2-0.6c-0.3-0.1-0.8-0.5-0.8-0.9c0-0.3,0.3-0.5,0.4-0.8c-0.4-0.3-0.9,0.1-1.5,0.1c-2.7,0-3.5-2.2-5.4-3.5
				c-0.1,0.2-0.4,0.4-0.4,0.9c0,0.3,0.3,0.4,0.3,0.7c0,0.9-0.5,3.6-1.7,3.6c-0.2,0-0.5,0.1-0.7,0l-0.3,0.1c-0.2-0.1-0.9-0.2-0.9-0.3
				L651.1,209.1z"/>
			<path class="st3" d="M661.9,207c-0.1,0.2-0.2,0.6,0,0.6c0.6,0,1.5-1,1.7-1.5l-0.2-0.2C662.9,206,662.2,206.6,661.9,207z"/>
			<path class="st3" d="M663.3,205.9l0.1,0.1h0.1L663.3,205.9z"/>
			<path class="st3" d="M667.3,203.5c-0.8,0-1.7,1.4-1.7,1.4c0,0.1,0,0.4,0,0.4c1,0,1-1.4,2.1-1.4v-0.4
				C667.7,203.5,667.8,203.5,667.3,203.5z"/>
			<path class="st3" d="M670.5,202.7c0.6,0,1.1-1,1.2-1.4c-0.1,0-1,0-1.1,0.4c-0.1,0.2,0.1,0.6-0.1,0.6
				C670.4,202.3,670.4,202.7,670.5,202.7z"/>
			<path class="st3" d="M657.2,183.6c-0.3-0.9-0.8-1.9-0.8-2.9c-0.1,0-0.2,0-0.2,0s0,0.2,0,0.9c0,0.3-0.4,0.5-0.4,0.9
				c-1,0.2-1.5,2.1-1.5,3.5c0,1,1,1.5,1,2.5c0,1.7,0,2.3,0,4.1c0,0.8-0.3,1.1-0.3,2.2c0,0.8,0.5,1,0.5,1.9c0,1-0.2,1.9-0.2,3.1
				c0,0.3,0,2,0,2c1,0,0.6-1.5,1.5-1.5c0.2,0,0.5,0,0.7,0c0.1,0,0.4,0.8,0.7,0.7c0.1,0,0.2-0.1,0.2-0.1c-0.6-1.2-2-2-2-3.5
				c0-1.8,0.2-4,2.1-4c0.6,0,1.1,0.4,1.5,0.9c-0.4-1.7-1.4-3.1-2-4.8c-0.1-0.4-0.6-1.2-0.6-1.9V186
				C656.3,185,657.5,184.6,657.2,183.6z"/>
			<path class="st3" d="M487,129.7C487,129.7,487,129.8,487,129.7c0.1,0.2,0.2,0.2,0.3,0.3L487,129.7z"/>
			<path class="st3" d="M476.5,127.2c0,0,1.9-0.1,2.1,0c1.2,0.3,0.6,1.5,1,2.4c0.1,0.3,1.3,0,1.7,0c0.2,0,0.3,0.5,0.5,0.5h5.4
				c-0.1,0-0.2-0.2-0.2-0.3c-1.5-1.4-3.8-2-3.8-4.5c0-4.4,4.8-9.1,8.3-10.1c1.2-0.3,1.6-1.9,3.3-1.9c0.8,0,1.1-1.4,1.5-1.6
				c2.3-1.1,4-0.6,6.5-1.7c1.7-0.8,7.1-1.3,7.1-3.6c0-0.8-1.9-1.7-2.8-1.7c-3.5,0-6.7,4-10.4,4c-0.8,0-1.3-0.8-2.1-0.8
				c-1.3,0-1.3,0.8-2.2,0.8c-2.6,0-4.5,3.3-6.3,3.3c-1,0-1.7,0.5-2.8,0.5c-0.5,0-0.7,0.4-0.7,0.7c0,0.4,0.5,0.7,0.5,1.3
				c0,1.9-3.6,3-3.6,4.2c0,0.6,1,0.7,1.1,1.5c-1.1,0.3-3.3,0.8-3.3,1.9c0,0.8,0,1,0,1c0,1.3-2.2,1.1-2.2,2.8
				C475.3,126.6,476.5,127.2,476.5,127.2z"/>
			<path class="st3" d="M486.5,129.3l0.4,0.4C486.8,129.5,486.7,129.4,486.5,129.3z"/>
			<path class="st3" d="M480.5,224.1c-1,0.2-2.2,0.4-3.4,0.4c-0.9,0-2.7,0.1-3.3-0.4c-0.4-0.4-0.6-1.1-1.2-1.3
				c-0.8-0.1-1.7,0.3-2-0.5c-0.4-0.8,0.2-1.4-0.4-2.2c-0.3-0.6-0.9-0.5-0.9-1.2l1,0.1c0.8-1.1,0.8-2.8,1.9-3.3
				c-1.9-1-4.7-5.2-4.7-7.6c0-0.7-1.5-1.7-1.5-2.8c0-0.3,1.3-2.9,1.7-3.3c0.3,0.2,2.4-1,2.6-1c1.8-0.7,2.9-1.2,5.2-1.2
				c3.8,0,4.4,1.8,5.8,3.9c-1,0.8-2.4,0.1-3.7,0.1c-1.9,0-4.7,1.8-4.9,1.7c0.1,1.4,1.2,1.3,1.6,2.1c1.3,2.3,3.2,3.2,3.2,5.9
				c0.6-0.3,1.9-1.1,2.4-1.2c0.1,1,1.2,1.4,1.2,2.5H479c-0.6,0-1.3,0.9-1.4,1.9c1.5,0.2,2.4,1.7,2.4,3c0,0.8-0.4,1-0.4,1.6
				s0.8,1.4,0.8,1.5C480.5,223.4,480.5,223.5,480.5,224.1L480.5,224.1z M497.3,227.5c-0.7,0-1-0.6-1.7-0.6c-0.2,0-0.2,0.3-0.3,0.4
				c-0.2-0.4-0.2-0.8-0.2-1.4c0,0.4,0.1,0.8,0.2,1.2C496,226.3,496.6,227.5,497.3,227.5L497.3,227.5z M442.7,240.1L442.7,240.1
				L442.7,240.1L442.7,240.1L442.7,240.1z M413.8,180.2c0.1,0,0.2,0,0.2,0C413.9,180.2,413.9,180.2,413.8,180.2L413.8,180.2z
				 M735.3,138c-5.5-3.2-12.8-6.6-20.9-6.6c-2.2,0-3.8,0.5-3.5,1.4c2.1,6.8-3.2-0.1-4.5,0l-16-0.3c-0.9-3.6-3.3-4.9-8-4.9
				c-2.6,0-6.5,1-8-0.3c-1.4-1.2-1.5-2.9-3.5-3.5c-4.2-1.4-8.8-2.9-14.3-2.9c-5.4,0-6.2,3-6.6,5.1c-5.1,0-7.6,0-11.1,0
				c-2,0-2.2-1.1-4.5-1.3c-0.2,1-0.6,3.4-1.7,3.4c-2.9,0-4.2-3.5-4.2-5.4c0-0.5,5.6-3.7-8.7-4.9c-1.8-0.2-2.8,1-2.8,3.1h-7.6
				c-2.3-1-14.3-2.3-15.9-4.8c-9.1,7.4-7.1,2.8-7.1,2.8c2.2-2.7,23.2-9.4,5.9-12.5H585c-0.7-2.1-2.2-4-5.2-4c-3.6,0-5.1,2.6-7,4.1
				c-1.4,1-10.4,4.6-9.6,1.4c-2.3,0.7-12.1,1.3-17.2,5.9c-1.1,1-1.4,3.8-3,3.8c-2.3,0-10.9-0.8-10.9,3.1c0,0.8,0.8,1.7,1,2.8
				c-1.5,1-2.1,0-6.9,0c-4.1,5.5-3.8-0.8-4.7-2.1c-0.3,2.2-1.8,3.2-3.6,4.2c0.6,2,3.5,4,1.4,6.3c-1.5,1.6,2.8,6.8,0.6,6.8
				c-2.9,0-3.7-10.5-3.7-12.7c0-2.4,3.9-3.3-2.1-4.5c-3-0.6-8.7,4.3-8.7,7c0,3.2,1.5,5.3,3.1,7c3.9,6.1-5.4-0.7-8.8-1.6
				c-9.5-2.5-6.5,0.8-6.5,1.2c-0.3,5.4-2.6,1-3.8,1c-2.2,0-6.6,2.9-9.7,1.4c-1.6-4.1-12,5.2-14.6,5.2c-0.8,0-2-0.6-1.7-1.4
				c1.1-2.8-0.5-8.9-3.5,0.3c-0.2,0.6,1,0.8,1,2.1c0,2.4-3.6,0.8-5.5,1.4c-1.9,0.6-0.7,7.3-9,3.8v2.8c-3.1-0.4-3.5-4.6-4.9-6.6
				c3,0,4.6-0.1,7.5,0.7c3.9,1,11.6-3.8-0.2-7.6c-3.4-1.1-10.9-4.9-13.2-4.9c-0.2,0-0.3-0.3-1.9-0.1c-0.2,0-1.7-0.2-2.3-0.3
				c0-0.4-0.5-0.5-1.2-1c1.6-0.6,2.2,0,2.8-1.7c-0.6-0.3-2.1-1.1-2.4-1.1c-0.6,0-0.8,0.5-1,1c-0.8-0.1-0.6-0.7-0.7-1.6
				c-1.1,0.7-1.7,1-2.6,1.9c-0.1-0.4-0.1-0.8-0.3-1.3c-1.2,0.6-1.6,2.2-3,2.1c0.3-1,1.5-1.3,1.5-2.2s-2.6,0.8-3.7,0.8
				c-0.6,0-1-0.6-1.5-1c-0.2,0.4-1.5,0.7-1.5,1c0,0.5,1,0.6,1.6,0.8c-1.3,0.7-2.8,0.3-2.8,1.9v-1.2c-3.1,0.1-3.1,1.7-3.1,1.9v-0.8
				c-1,0.2-2.5,0.1-3.2,0.8c0.3,0.3,0.1,0.2,0.4,0.6c-0.5,0.3-1,0.1-1.5,0.1c-0.7,0-1.3,0.6-1.6,1.1c0.6-0.1,0.6,0,1.1,0.1
				c-0.1,0.1-0.9,1.7-1.3,1.7c-0.9,0-1.2-0.7-2.3-0.7c0.2-0.5,0.1-0.8-0.2-1.3c-0.2,0.2-0.4,0.5-0.6,0.9c-0.2,0-0.3-0.2-0.6-0.2
				c-0.6,0-0.9,0.4-1,1.1c0,0,0.7,0.2,1,0.2c-0.3,0.1-1,0.5-1.4,1c1.7,0,2.4-0.9,4.1-1.3c-0.3,1.5-2.3,3.8-3.8,4.4
				c-1.5,0.6-2.4,1.5-3.3,2.9c0,0.1-0.7,1.6-0.7,1.6c-0.6,0-0.4,2.2-1.3,2.8c-2.1,1.7-3.3,4.1-6.3,4.9c0.6,0.1,0.9,0.3,1.7,0.5
				c-2.5-0.3-2.8,1.4-4,1.7c-1.5,0.4-2.3,1.3-3.1,2.4c-0.4,0.6-1.5,0.6-1.5,1.6c0,1.9,0.1,3.7,1.2,4.9c-0.4,0.5-0.8,1.3-0.8,1.8
				c0.8-0.3,1.1-0.3,2.1-0.3v1c-1,0.1-1.5,0.5-1.5,1c0,0.3,2.6,1.9,3,1.9c2.9,0,5.1-2.6,6.5-4.7c0.5,0.7,0.6,1.2,1.3,1.7
				c-0.1,0.3-0.4,0.7-0.4,1c0,1.3,1,1.5,1.4,2.6c0.5,1.5,0.3,2.5,1.5,3.7c0,0.2-0.1,0.5-0.1,0.7c0,0.3,1,3.6,1.5,3.6
				c1.7,0,2.2-1.9,3.3-1.9c0.6,0,0.9,0,1.9,0c0.2-2.1,1.9-1.8,2.1-3.7c-0.4-0.1-1-0.5-1-1.4c0-1.5,0.6-3.6,1.9-3.6
				c0.7,0,2.8-1.8,2.8-2.8c0-1.3-1.8-2.6-3.1-2.8c0-0.5-0.5-1-0.5-1.3v-1.4c0-0.5,0.3-1.8,0.9-2.8c0.7-1.3,1.9-1.5,3.1-2.2
				c1.5-0.8,4.6-2.2,4.6-3.8c0.2-0.4,0-0.8,0-1.6c0-1.9,1.9-2.8,4.2-2.8c1.7,0,4,0.3,4,2.1c0,1.2-1.7,1.5-2.6,2.1
				c-1.8,1-3.3,4.9-6.3,4.9c0.1,0.5,0,0.9,0,1.4c0,0.8,0.6,2.4,1.3,2.6c-0.2,0.3-1,0.8-1,1.5c0,1.5,1.5,2.4,3,2.4
				c0,0.8,0.6,0.9,1.5,0.9c1.2,0,2.8-0.6,4.2-1c1.3,0.2,4.5,0,5.2-1.4c0.6,0.8,1.3,1.1,1.7,2.4c-0.8,0.6-2.9,1.5-3.8,1.5
				c-1.2,0-1.9-0.5-3.5-0.5c-1.5,0-5,1.4-4,2.4c3.5,3.3,1.7,4.5,0.8,4.5c-1.4,0-1.6-1.7-2.8-1.7c-1.3,0-2.8,3.2-2.8,4.9
				c0,2.7-2.2,2.3-2.4,4.8c-0.8,0.1-1.7,0.2-2.5,0.2c0-0.1,0.1-0.5,0.3-0.8c-0.5-0.2-1.5-0.3-2.4-0.3c-0.8,0-1.9,1-2.6,1.3
				c-1,0.5-1.9,0.3-3.1,0.8c-0.4,0.1-0.4,0.6-1.2,0.6c0,0-1.2-0.8-1.2-1s0.3-0.4,0.4-0.8c-1.6-0.2-2.9,1.4-4.8,1.4
				c-0.2,0-0.4-0.5-0.5-0.8c-0.6,0-0.9-0.3-1.7-0.3c0.1-0.2,0-0.3,0-0.8c-0.4-0.1-0.8-0.6-0.8-1.3c0-1.2,0.7-1.9,1.3-2.6
				c0.2-0.2,0.7-0.4,0.7-0.7c0-0.2,0-0.4,0-0.6c0,0-0.9-0.1-0.9-0.8s-1.2-1.1,0.9-1.8v-0.8c-3.1,1.3-4.7,1.5-4.7,4.4
				c0,1.7,1,2.2,1.3,4.1c0,0.1,0.4,1.4,0.4,1.7c0,0.6-1.1,1.2-1.6,1.2c-0.6,0-1.3-0.4-1.8,0.1c-0.1,0.1-0.4,0.7-0.6,0.5
				c-0.5,0.2-0.1,0-1,0c-1.6,0-2.6,1.1-3.6,2.1c-0.1,0.1-0.7,0.5-0.7,0.8c0,0.8,0.2,1.7-0.3,2.2c-0.3,0.3-3.1,1.4-3.5,1.5
				c-0.3,0.1-0.6,0.1-1,0.1c-0.4,1.7-1,3.2-3.1,3.2c-0.1,0.6-0.6,0.8-1.2,0.8c-0.8,0-1.5-1.1-2.1-1.1h-0.5v1c0,0.2,0,1.3,0,1.4v0.5
				c0,0.1-1,0.3-1.5,0.3c-0.6,0-1.6-0.3-1.8-0.7c-0.7,0.2-2.6,0.6-2.6,1.3c0,0.1,0,0.3,0.1,0.3c0,1,3.1,1.6,4.2,2
				c0.3,0.1,0.4,0.4,0.8,0.5c0,1.1,0.4,2.4,1.8,2.4c0,0.6,0.4,0.4,0.4,1c0,0.3-0.1,0.8-0.3,1l0.1-0.1c0,0.4,0.1,1.6,0.1,1.9
				c0,1.3-0.9,1.7-0.9,3.1c-0.2,0-1.3,0.1-1.7,0.1c-0.7,0-1.1-0.5-1.9-0.5h-3.3c-0.3,0-0.9,0-1.2,0h-3.1c-0.4,0-0.8-0.3-1-0.3
				c-0.4,0-2.8,1.5-2.8,1.9c0,0.6,0.8,1.6,0.8,2.6c0,1.8-0.6,3.6-0.6,5.4c0,0.5-0.8,0.7-0.8,1.6c0,0.6,0,1,1,1c0,0.8,0,1.3,0,2.8
				c0,0.2,0.2,0.6,0.6,0.6c1,0,1.9-0.5,3-0.5c1.6,0,1.7,2.6,2.7,2.6c1.5,0,2.3-1.4,4-1.4c0.3,0,2-0.3,2-0.1V224
				c2.1,0.4,1.7-1.3,2.5-1.7c1.5-0.7,1.9-1.5,2.9-2.9c-0.3-0.1-0.7-0.3-0.7-0.9c0-1.5,2-4.4,3.3-4.7c1.5-0.3,3-0.8,3.4-2.2l-0.4-1.5
				c0-1,1.1-1.7,2.2-1.7c1.4,0,2.4,0.8,3.9,0.8s2.4-1.2,3.8-1.9c0.6-0.3,0.7-1.2,1.9-1.2c2.6,0,3.1,2.8,4.3,4.4
				c0.1,0.5,1.2,0.8,1.7,1.3c1.2,1.2,1.7,1.8,3.8,2.3c0,0.4,1,0.7,1.3,0.7c0.1,0.4,1.7,2.1,1.9,2.1c0.1,0.6,0.7,0.9,0.7,1.9
				c0,0.8-0.3,1.9-1.2,1.9c0,0.3,0.3,0.5,0.8,0.5c1,0,0.8-1.5,1.5-2.1c0,0,0.9,0,0.9-0.3c0-0.9-1.3-1.1-1.3-2c0-0.7,0.7-1.1,1.5-1.1
				c1.1,0,1.5,0.9,2.2,1c0.2-1.5-1.5-2-2.9-2.7c-0.4-0.2-2.1-0.6-1.8-1.4c0.1-0.1,0.1-0.3,0.1-0.6c-1,0-1.7,0.4-2.8-0.1
				c-0.6-0.3-1-1.4-1.3-2.4c-0.2-0.6-0.8-1.8-1.8-2.2c-0.8-0.3-1.5-0.7-1.5-1.7c0-0.4,0.1-0.8,0.3-1.3c-0.1,0-0.4-0.3-0.4-0.4
				c0-0.8,1.5-0.5,2.3-1c0.4,0.4,0,2.1,0.9,2.1c0.8,0,1.3,0,2.1,0c0,1,1.7,3.1,3.3,3.1c0.3,0,0.6,0,1,0c0,1,1.3,1.2,2.2,1.7
				c1,0.5,2.7,2.2,2.7,3.1c0,0.6,0,1,0,1.8c0,1.5,1,2.1,1.8,2.9c0.6,0.6,1.1,0.6,1.4,1.6c0,0.1,0.1,0.2,0.3,0.2c0.4,0,0.8,0,1.2,0
				c-0.2,2.1-0.9,1-0.9,1.4c0,1.2,1,2.7,2.1,2.7c0.1,0,0.6,0,1,0c-0.7,0-0.1-1-0.1-1.4c0-0.6-0.5-0.6-0.5-1v-0.6
				c0,0.4,1.3,0.9,2,0.9h0.1c0.1,0,0.8-0.1,1.2-0.3c-0.1-0.1-0.3-0.4-0.3-0.6c-0.6,0-2.4-1.7-2.4-1.9s0.2-0.4,0.3-0.8l-1.3-1.5
				c0-0.3,0.4-0.8,0.8-0.8c0.6,0,0.8,1,1.8,1c0.1-0.6,0.1-1,0-1.5c0.9-0.3,1.2-0.9,2.3-0.9c1.3,0,1.9,1.4,2.9,1.4
				c0.9,0,1.1-0.9,2-1.3c0.6-0.3,1.1,0,1.7-0.2c0.3-0.1,0.6,0,0.9-0.3c-0.4-0.6-1.9-1.6-1.9-3c0-1,2.3-2.4,2.3-3.1v-1.8
				c0-0.4-0.2,0.1,0.1-1c0-0.7,0.6-1,1.3-1.2c-0.1-0.3-0.1-0.7-0.2-1c1.5-0.4,1.6-2.2,3.2-2.2c1.3,0,4.4,5.2,5.4,5.2
				s4.3-1.5,4.9-2.2c-0.1,0-2-0.3-2-0.3c-0.3,0-1.2-0.2-1.2-1c0-0.6,5.1-2.4,7-3.1c0,0-0.9,1-1.3,1.2c0.1,0.4,2,2.3-2.1,3.3
				c1.7,4.1,9.7,3.4,9.7,8.9h0.3c0.2-0.1,0.4,0,0.7-0.1c-1.6,0.4-2.4,1.9-4.1,1.9c-0.7,0-1.9,0-4,0c-0.8,0-3.5-0.7-3.5-1.5
				c-1.6,0-1.5-1.1-3.4-1.1c-1.2,0-3.1-0.2-4,0.4c-0.8,0.5-2,1.2-2.9,1.2c0,0-1.3,0-2.2,0c-0.4,0-1.7-0.1-1.7,0.5
				c0,0.5,0.4,0.4,0.6,0.9c-1.3,0.6-6.3,0.3-6.3,2.4c0,0.4,0.7,0.4,1.2,0.4c-0.1,0.3,0,0.4,0,0.8c0,1.3-0.8,1.2-1.5,1.9
				c1,0.5,1.7,0.4,2.4,1.3c-0.7,0.7,1.3,1.5,1.7,1.9c-0.1,0.1-0.4,0.1-0.6,0.1h0.8c1.3,0,2,1.5,3.3,1.5s1-1.5,2.4-1.5
				c1.5,0,2,1.8,3.5,1.8c2,0,2.4-0.9,3.5-1.7c0.3,0.3,0.5,0.6,1.2,0.6c0.6,0,1.1-0.4,1.1-0.6v0.7c0,0.1-0.3,0.3-0.3,0.7
				c0,0.8,0.5,1.8,0.5,3c0,1.6-1.3,1.9-1.7,3.3c-0.4,1.4-0.6,2.2-1.1,3.7c-0.1,0.3-0.6,0.3-0.6,0.8l0.5,1.1
				c-0.1-0.2-0.2-0.4-0.3-0.7c-0.9,0.2-0.9,0.6-1.9,0.6c-1.5,0-2.3-0.9-3.6-0.9c-2.2,0-2.9,1-5.1,1c-2.4,0-5.6-1-7.8-1.9
				c-1.1-0.4-2.7,0.2-3.3-0.7c-0.3-0.4-1.1-0.5-1.1-1.6h-1.5v-0.2c-2.2,0.7-3.6,0.7-3.6,2.9c0,0.5,0,0.9,0,1.4
				c0,0.3-0.9,1.2-1.6,1.2c-5.1,0-6.9-5.4-11.5-5.4c-0.6,0-1.1,0-1.9,0c-1.3,0-3.1-1.7-3.1-3.5c0-1,0.9-1.7,0.9-2.7
				c0-0.6-0.9-1-0.9-1.6c0-0.9,1-0.8,1-1.8c-0.4,0.1-0.6,0.4-1,0.4c-1.1,0-0.8-1.3-2.1-1.3c-1.3,0-1.4,1-2.8,1
				c-0.8,0-1.2-0.5-2.1-0.5c-1,0-2.2,1-2.9,1c-0.6,0-1.5-0.7-2.4-0.7c-3.1,0-8.3,1.9-11,3.3c-0.8,0.4-1.1,1.3-2.6,1.3
				c-2.4,0-4.2-0.1-5.9-1.3c-0.7,0.6-0.8,1.2-1.4,2.3h0.1c-1.7,1-4.1,3.9-5.9,6.2c-1.4,1.7-0.3,2.7-1.2,5.2c-0.4,1.1-2.1,2.4-3.1,3
				c-1.2,0.7-3.1,0.5-4,1.8c-1.7,2.3-3.8,6-4.7,8.7c-0.3,1.1-1.9,1.9-1.9,3.3c0,2.8,1.4,4.7,1.4,7.8c0,1.7-1.4,5.5-2.9,6.3
				c0.5,1,1,1.2,1,2.1c0,0.6,0.4,1,0.4,2.1h-0.2c0.3,0,0.6,0.7,0.9,1.1c0,0.3,3.7,3.6,4.2,4c1.7,1.4,2.2,3.1,3.5,5.1
				c1.5,2.2,5.5,4.6,7.4,6.1c0.3,0.2,1.3,0.6,2.1,0.6c2.7,0,3.9-1.4,6.6-1.4c1.4,0,3.1,1,4.2,1c1,0,1.4-0.9,2.4-1.3
				c2.6-0.8,5.2-2.6,8.7-2.6c2.9,0,3.3,3.9,5.4,3.9c0.6,0,1.7,0,2.9,0c2.4,0,3.6,1.6,4.4,3.1c-0.7,0.6-0.7,2.7-0.7,3.6
				c0,0.3-0.3,0.5,0,1.1c-0.5,0.3-1.6,2-1.6,2.8c0,3.3,4,5.7,5.8,8c0.9,1.2,0.6,2.8,1.2,4.2c0.7,1.7,1.2,2.8,1.7,5.8
				c0.2,1.5,0.9,2.2,0.9,4c0,3.7-4.4,4.9-4.4,9.7c0,4.5,2,7.2,4,10.4c0.6,1,1.3,1.3,1.3,2.3c0,0.6,0,0.8,0,1.9
				c0,6.1,3.2,10.2,5.7,14.5c0.3,0.6,2.3,2.7,2.3,3.8c0,0.8-0.3,1.3-0.9,1.9c0.6,0.6,1.3,2.1,1.3,3.5c0.1-0.1,0.3-0.3,0.7-0.4
				c0.4,0.8,1,1.4,2.2,1.4c2.6,0,4.4-2.1,7.3-2.1c0.8,0,1.2,0.7,1.9,0.7c0.6,0,1.2-0.4,2.1-0.5c0.2-1.3,2-0.7,3.1-1.3
				c2.8-1.4,3.6-3.3,5.4-5.6c1.1-1.4,1.2-3,2.8-4.5c0.8-0.8,2.8-2.4,2.8-4.3c0-0.6-0.4-1.1-1-1.5c0.8-1.7,1.8-2.4,3.5-3.3
				c0.5-0.2,1.7,0.1,2.1-0.5s0.6-2.9,0.6-4c0-2.1-2-3.1-2-4.7c0-0.8,1.1-1.9,2.1-2.1c0.8-4.6,10-4,10-9.4c0-0.6-0.1-1-0.5-1.4
				c0-2,0.3-3.3,0.3-4.4v-1.7c0-0.1,0.4-0.6,0.4-1c0-1.3-2.6-2.5-2.6-4.9c0-2.1-0.6-3.1-0.6-5.2c0-2,1.8-2.4,2.3-4.2
				c1.7-6.2,6.7-7.3,11.3-10.9c2.6-2,3.5-4.5,5.6-7.3c1.7-2.4,4.9-7.5,4.9-11.5c0-0.4-0.3-0.6-0.5-1c-2.5,0.6-5,1.7-7.7,2.1
				c-1,0.1-1.7-0.4-2.8,0c-0.9,0.3-1,1.2-2.1,1.2c-1.2,0-2.1-2.2-3-2.9c0.7-0.8,0-1,0-2.2c-2.3,0-2.9-2.9-4-3.7
				c-1.3-0.9-2-1-3.1-2.1c-1.3-1.3-0.7-3.1-2-4.7c-1-1.4-2.3-1.4-3.4-3.3v-3.7c-2.1-0.8-3.1-3.9-2.7-5.4l-6.2-10.7v-1.2
				c1,1.2,2.6,4.3,4,4.5c0.2-0.7,1.1-2.5,1.4-3.5c-0.1,0.9-0.3,1.7-0.3,2.2c0,0.2,1,1.3,1.2,1.7c0.8,1.2,1.5,2.2,2.3,3.5
				c0.3,0.4,0.8,1,1,1.7c0.1,0.4,0,1.5,0.4,1.9c0.2,0.2,1.1,0.1,1.4,0.3c0.2,0.2,0.6,0.6,0.9,0.9c0.3,1.3,1.2,1.7,1.2,3.3
				c0,2.6,0.6,4.1,3,4.6c0,1.7,1.9,4.1,2.8,4.9c0.8,0.8,1.9,1.4,1.6,2.9c-0.1,0.6-0.7,1.9,0.1,2c0,1.3,0.5,2.5,1.2,3.5
				c0.5,0.7-0.1,0.7,0.1,0.8c0.2,0.1,2,1,2.2,1l0.4-0.1c1.5,0,1.6-1.2,2.8-1.2h2.2c0.9,0,3.7-2.6,4.5-2.8c1.7-0.4,3.8-1,5.4-1.8
				c-0.1-0.1-0.3-0.5-0.3-0.7c0-1.5,4.2-2.3,6.1-2.7c0-0.8,1.3-2,1.9-2c1,0,1-2,2-2c0.8,0,0.8-1.2,1-2c0.3-0.8,1-1.1,2-1.1
				c0-1.7,1.7-2.2,1.7-3.8c0-0.6-0.6-0.5-1.6-1.1v0.1c0-0.3,0.2-1.5-0.6-1.7c-2-0.6-3.6-1-3.6-3v-2.6c-4.1,1.9-3.3,4.7-8,4.7
				c-1,0-3.1-0.5-3.1-1.5c0-0.8,0.4-1.4,0.4-2.2c0-0.3-0.1-0.5-0.1-0.8c-0.7,0.1-0.6,1-1.4,1.3c-0.1-0.6-0.5-0.8-0.5-1.6
				c-1.6-0.3-3.6-3.3-4-5c-0.1-0.6-0.1-0.9-0.1-1.6c0-1,0.4-2.2,1.4-2.2c1.9,0,3.5,2.2,4.2,3.7c0.1,0.3-0.1,0.8,0.3,1.2
				c0.8,0.8,1.9,0.4,2.7,1.2c0.7,0.7,1.3,2,2.4,2h3.5c0.4,0,0.7-1.1,1.5-1.1c1.5,0,1.5,2.1,2.1,2.8c0.1,0.1,2.1,0.6,2.4,0.6
				c1.9,0,4.9,0.8,6.3,0.8c0.1,0,0.3,0,0.3,0l2.4-0.1c0.1-0.1,0.3-0.3,0.6-0.5l1.8,0.5c0.7,0,0.9-0.6,1.7-0.6c0.8,0,1.3-0.1,2.1,0.1
				c0.8,0.3,1.2,1.9,1.8,2.8c0.7,1,2.7,2.4,4.1,2.4c0.6,0,1,0,1.6,0.1c-0.3,0.3-0.4,0.9-0.9,1c-0.6,0.2-1.1-0.1-1.7,0.3
				c1,1,1.9,3.3,4,3.3c1.8,0,1.9-2.1,2.8-3.2h0.6c0,0-0.4,0.7-0.4,0.9c0,0.9,0.7,1.7,0.7,2.8c0,0.9-0.3,1-0.3,2l-0.1-0.1
				c0,0.2,0.1,0.8,0.1,1c0,1.3,0.8,2.6,1.2,4c0.5,1.5,1.7,3.8,2.1,4.9c0.3,0.9,0.3,1.3,0.8,2.2c0.6,0.8,0.2,1.7,0.8,2.9
				c0.3,0.6,1.3,1.3,1.5,2.2c0.5,1.5,1.3,2.9,1.8,4.5c0.1,0.2,0.3,0.7,0.6,0.7c0.1,0.5,0.5,0.8,1,0.7c0.6,0,0.6-0.8,0.9-1.4
				c0.3-0.7,0.5-0.4,1.3-0.8c0.6-0.3,0.4-2.1,1.3-2.4c0.2-0.1,0.7-0.1,0.7-0.3l0.3-0.1l-0.3-1.8c0-1.3,0.8-2.4,0.8-4.2
				c0-1.1-0.5-1.8-0.5-3.1c0-1.5,1.5-1.7,2.7-2.1c0.5-0.1,1.3-1,1.8-1.5c1.3-1.3,2.6-2.7,4-4.1c1.1-1.1,3.1-1.5,4.4-2.7
				c0.6-0.6,0.6-1.4,0.8-2.4c0.2-0.6,1.7-0.7,2.2-1.7c0.6,0.3,0.6,0.7,1.7,0.7c1.8,0,3.8-0.4,3.8-2.5c1,0.2,2.2,0.6,2.5,1.6
				c0.3,0.8,0.1,2,0.7,2.8c0.6,0.9,1.3,1.5,2.3,2.2c0.7,1.1,1.5,2.2,2,3.7c0.1,0.3,0.4,0.6,0.4,0.9c0,0.8-0.3,1.2-0.3,2.1
				s0.1,1.7,1.1,1.7c2,0,2.4-2,3.6-3.2c0.4,0.4,0.2,0.7,0.6,1.1c0.1,0.1,0.7,0,0.9,0.3c0.7,1-0.7,3.1,0.2,3.1c0,2.2,1.6,4.2,1.6,7.2
				c0,0.8,0,2.8,0,2.8h0.2h-0.1c-0.2,1-0.1,1.3-0.1,2.3c0,0.1,0,0.8,0,0.8s0.1,0,0.8,0c1.1,0,1.5,2.3,2,3.3c0.8,1.6,0.9,3,1.5,5
				c0.8,2.3,2.7,4.3,4.9,5c0.4,0.1,0.5,0.6,1.2,0.6c0.2,0,0.3-0.3,0.5-0.3c0.3,0,0.3,0,0.9-0.1c-0.3-0.8-0.3-1.1-0.6-2
				c-0.3-0.8-1.3-1.3-1.3-2.5c0-0.6,0.3-0.6,0.3-1.3c0-3.5-4.1-4.3-6-6.1c-0.5-0.5-0.6-0.5-0.8-2.6h0.1c0-1-2.4-0.8-2.4-3
				c0-1.9,2-2.2,2-4.3c0-0.6-0.3-0.6-0.3-1.2c0-0.3-0.1-0.7,0.4-0.7c0.8,0,1.6,0.2,1.8,0.9c0,0,0.2,0.9,0.3,0.9
				c1.1,0.3,2.1,0.4,3.1,1.4c0.8,0.8,0.1,1.9,1.6,1.9c0,1,1.4,1.4,2.4,1.4c0.1,0.4,0.2,0.9,0.5,1c-0.3,0.1-0.3,0.4-0.3,1
				c0,0.4,0.1,1.4,0.4,1.4s1.5-1,1.5-1.7c0-0.1,0-0.4,0-0.8c0,0.2,0.2,0.6,0.4,0.6c0.8,0,0.8-1.1,1.6-1.5c1.8-0.9,2.1-1.7,4.3-2.2
				c0-1.3,0.9-1.9,0.9-3.5c0-2.3-1.1-5.4-2.8-6.5c-1.7-1.1-2.4-2.9-4-4.5c-0.3-0.3-0.6-0.4-0.6-1c0-3,3.4-3.5,4.8-5.6
				c1.2,0.6,2,0.1,3.3,0.8c-0.1,0.4-0.3,1.7,0.3,1.7c0.8,0,0.4-0.9,0.9-1.5c0.5-0.5,1.9-0.7,2.4-1c1.3-0.6,2.6-0.3,3.5-1.2
				c0,0,0.7-1.3,0.8-1.3c0.7,0,1,0.6,1.7,0.6c3.2,0,4-1.9,5.9-3.1c0.6-0.3,0.9-0.6,1-1.3c1.7,0,2.2-2.6,2.8-3.9
				c0.4-0.8,2.3-3.6,3.3-3.8c0-1.5,1-2.2,1-4.2c0-3-0.7-4.1-1.9-6c-0.2-0.3-0.2-1.1-0.8-1.5h0.1h-0.1c0,0-0.1-1.2-0.1-1.4
				c-0.6-0.1-1.9-0.8-1.9-1.8c0-0.8,1.2-0.9,1.5-1.8c0.6-1.9,3.6-1.9,5-3.3c-0.6-0.8-1.6,0-2.6-0.6c-0.5-0.3-0.8-0.8-1.5-0.8
				c-0.6,0-0.6,1.5-1,1.5c-0.6,0-1.3,0.2-1.8-0.1c-0.8-0.6-0.6-1.3-1.4-1.9c-0.3-0.2-1.5-0.5-1.5-1.2c0-1.5,2-1,3-1.7
				c0.8-0.6,2.4-1.7,3-2.6c0.1-0.2,0.4-0.9,1.1-0.9c0.6,0,1.3,0.9,1.3,1.3c0,1.1-1.3,1.6-1.3,2.8c1.9,0,3.5-2.1,5.8-2.1
				c0.8,0,1.2,0.8,2.2,0.8c-0.4,0.7,0,0.7,0,1.5c0,0.7-0.8,0.6-0.8,1.5c0,0.3,0.2,1.2,0.7,1.2c0.2,0,0.5-0.3,1-0.3
				c0.8,0,1.8,0.6,1.8,1.4c0,0.5-1.1,0.9-1.1,0.9v0.7c0,0.1,0.3,0.4,0.7,0.5c0,0.4,0.4,0.8,0.4,1.2c0,0.2-0.6,1.1-0.6,1.6
				c0,0.3,0,0.6,0.3,0.6c-0.1,0.3-0.4,0.9-0.4,0.9h1c0.4,0,0.6-0.4,1.4-0.6c0-0.6,1.7-0.7,2.2-0.8c1-0.3,1.4-1,1.4-2.6
				c0-2.7-1-4.3-2.6-5.8c-0.6-0.6-1.3-1.2-1.2-2.4c0.8,0,1.5-0.5,2.1-1c0.5-0.5,1.7-1.2,2-1.7c0.9-1.9,1.5-3,3.1-4.3
				c0,0,2.7,0.7,4.9,0.7c4,0,7.7-8.4,10.5-11.2c1.1-1.1,2.7-3.4,3.1-5.2c0.5-2-0.3-3.3,0.8-5.2c0.4-0.7,1.2-2.3,1.2-3.8
				c0-1.9-3-5.5-4.4-4.5c-4.1,3.1-6.3-1.7-6.3-2.1c0-1.9,3.8-4.1,5.2-5.6c2.2-2.2,5-5.8,8-6.6c2.6-0.7,10.9-1.5,13.2-1.5
				c2.8,0,4.2,1.3,5.9,1.3c1,0,1.6,0,3.8,0c1.1-4.1,3.2-7.2,8-7.2c1.3,0,1.8-0.3,4.2,0.1c-1.2,0.9-1.7,7,5.9-2.4
				c0.8-0.1,4.4,1.4-1,4.9c-1.9,1.2-3.6,0.6-4.9,2.4c-1.5,2.1-2.8,4.7-4.9,5.9c-1.7,1-4.2,2.6-4.2,5.6c0,2.6,0.8,11,2.8,12.5
				c1.4-2.1,2.4-5.9,5.2-6.6c-0.3-1.9,2.8-2.4,2.8-3.8c0-2.3,2.4-2.9,2.4-4.2c0-0.8-0.7-1.7,0-3.1c5.6-12,10.8-5.6,12.9-5.6
				c6.2,0,10.6-7.9,16-8c10.3-0.2,2.1-4.1,2.1-5.2c0-3,4-2.5,4.9-4.2c0.3-0.7-0.3-2.4,1-2.4c4.4,0,8,5.9,11.1,5.9
				c1.4,0,1.7-2.6,2.4-3.5c1.2-1.4,2.3-1.3,4.2-1.9C747.4,142.2,739.3,140.3,735.3,138z"/>
			<path class="st3" d="M727.9,128.6c0.8,0,6.3-0.3,6.3-1.3s-2.6-1.7-3.7-1.7c-1.2,0-3.3,1.2-3.3,2.3
				C727.2,128.2,727.4,128.6,727.9,128.6z"/>
			<path class="st3" d="M708.2,132.8c0.3,0,0.7-0.4,0.7-0.8c0-0.4-0.4-0.9-0.5-0.9h-2.3C706.5,132.1,707.2,132.8,708.2,132.8z"/>
			<path class="st3" d="M642,110.9c0.5,0,0.6-0.5,0.7-0.9l0,0l0,0v-0.1h-0.1l-0.6-0.6c-0.3,0.4-0.6,0.6-0.6,1
				C641.4,110.7,641.6,110.9,642,110.9z"/>
			<path class="st3" d="M596.2,114.3c-0.7,0-1.5,0.3-1.5,1c0,0.6,0.8,0.8,1.5,0.8c0.6,0,1-0.2,1.4-0.4c0.1-0.1,0.2-0.3,0.2-0.4
				C597.8,114.5,597.2,114.3,596.2,114.3z"/>
			<path class="st3" d="M597.3,116.2l0.6-0.5c-0.1,0-0.1,0.1-0.2,0.1C597.5,116,597.4,116.1,597.3,116.2z"/>
			<path class="st3" d="M570.1,99.9c0,0.7,0.2,1,1,1l3.7-1c0,0,2.2-0.4,2.4-0.4c1.3,0.2,4.9-0.1,4.9-1.7c0-1-2.9-2.8-3.8-2.8
				c-0.5,0-0.8,0.9-1.3,1.1c0.6-0.6,0.2-0.1,0.2-1.2c-0.3,0-0.3,0-0.9,0c-2.8,0-3.4,2.2-5,3.8C571,99.1,570.1,98.8,570.1,99.9z"/>
			<path class="st3" d="M553.3,91.5c0,0.6,1,1.7,1.4,1.7c0.8,0,3.1-0.1,3.3-1.4c-0.5-0.1-2.4-1-2.8-1
				C554.8,90.8,553.3,90.8,553.3,91.5z"/>
			<path class="st3" d="M562.8,91.3c-2.2,0.7-2.9,1.5-5.2,2.2c1,0.6,2.9,2.5,3.7,2.5c2.5,0,4.7,1.3,7.8,1.3c0.6,0,1.4-0.4,1.4-1
				c0-0.5-0.6-0.7-1-0.8c0.4-0.1,1.4-0.2,1.4-0.9c0-0.7-0.1-0.3,0.6-0.8c-0.9-0.9-0.9-0.8-2.3-0.8c-0.5,0-0.9,0-1.4,0
				c-0.8,0-1.2-1.3-2.1-1.3c-0.6,0-0.8-0.5-1.5-0.3c0.6-0.3,1.3-1,1.3-1.4c0-0.3,0.1-0.6,0-1.5c0.3,0.1,0.1,0.2,0.8-0.1
				c-1.1-0.8-2.2-2.7-4.2-2.7c-3.3,0-4.4,3.3-7.3,4.1c1.8,0.9,3.1,1.5,5.1,1.5C560.3,91.2,562.1,91.3,562.8,91.3z"/>
			<path class="st3" d="M562.7,105.5c0.8,0,1.3-0.3,1.4-1.3h-1c-0.3,0-0.6,0.4-1,0.7C562.1,105.2,562.3,105.5,562.7,105.5z"/>
			<path class="st3" d="M554.4,86.2l-0.2-0.6h-2.6C552,87.7,553.3,86.3,554.4,86.2z"/>
			<path class="st3" d="M585.8,100.4c0.5,0,0.8-0.6,0.9-1c-0.6,0.3-0.8-0.1-2.3,0.2C584.6,99.9,585,100.4,585.8,100.4z"/>
			<path class="st3" d="M465.5,88.4c0.6,0,1,0.4,1.6,0.6c-0.3,0.3-0.7,0.4-1,0.6c0.3,0.1,0.6,0.1,1.2,0.1c-0.6,0.1-0.9,0.1-1.5,0.4
				c0.2,0.6,0.9,0.6,1.9,0.6h-0.1c0.2,0,0.4,0.8,0.8,0.9c0.6,0.1,0.8-1.1,1.4-1.4c1-0.5,1.4,0.2,2.4-0.2v-0.4c0,0.1,0.5,0.1,0.7,0
				c0.8-0.6,1.7,0,1.9-1.3c-0.4-0.1-1.3-0.7-2.1-0.7c-1,0-1.5,0.9-2.6,0.9c-1.3,0-2.3-0.9-4-0.9c-1.5,0-4.7,0.2-5.4,1.3
				c0.6,0.1,1,0.3,1.5,0.3C463.4,89.3,464.7,88.4,465.5,88.4z"/>
			<path class="st3" d="M472.8,89.8c-0.2,0.1-0.3,0.2-0.5,0.3v0.3L472.8,89.8z"/>
			<path class="st3" d="M498.5,88c0.5,0,3.2-0.6,3.7-0.9l-1-2.2c-1,0-3.9,1.1-3.9,2.1C497.3,87.7,497.7,88,498.5,88z"/>
			<path class="st3" d="M494.7,89.8l-0.3-0.8c0.6,0,1.3,0.3,1.7-0.4c0-0.3,0.1-0.4,0-1c-0.6,0.1-1.8,0.4-2.2,0.3
				c0.1,0,0.6-0.2,0.7-0.2h-2.3c0,0-0.1,0,0,0.6c-0.8,0.3-1.4,0.7-1.4,1.7C490.9,90.3,494.3,90,494.7,89.8z"/>
			<path class="st3" d="M487.4,89.6c-0.7,0-3.5,0.4-3.5,1.4c0,0.3,0.3,0.5,0.7,0.5c0.6,0,0.9,0,1-0.7c0.4,0,1,0.7,1.4,0.7
				c1,0,0.9-1,2.3-1C489,90,488.3,89.6,487.4,89.6z"/>
			<path class="st3" d="M487,88.3c0.8,0,1.5,0.1,2.1-0.3c-1.5-0.6-2-0.8-4-1c0.7-0.7,2.1-1.1,3.2-1.8c0-0.3,0.3-0.7,0.6-0.9
				c0-0.2-0.1-0.8-0.2-0.8c-0.6,0-1,0.6-1.1,1.2c-2,0-2,1.4-4.1,1.4V87c1-0.4,0.2-1.2,1,0.8h-2.9c-0.3,0-0.5,0.1-0.9,0.4
				c0.1,0.1,3,1.1,3.5,1.1C485.1,89.3,486.2,88.3,487,88.3z"/>
			<path class="st3" d="M396.3,95.9c0.2,0,0.3,0.2,0.6,0.3c-0.3,1.1,0.8,1.7,1.9,2.3c-0.2,0-0.3,0.1-0.6,0.1
				c0.3,0.7,1.1,1.2,2.2,1.2c1.5,0,1.5-1.8,2.1-1.8c0.2,0,0.3,0,0.6,0c0.3,0,0.9,0,1,0c0.3,0,0.8,0,1.8,0c-0.8,1-2.6,1.7-3.5,2
				c-0.4,0.1-2,0.2-2,0.8c0,1.7,1.8,1,2.6,1c0.5,0,2.7,0.1,3.1,0.4c-0.8,0.2-1.6,0-2.3,0.6c0,0-1.6-0.2-2.6-0.1
				c0,2.4,3.8,3.3,5.4,4.4c1-1,0.8-2.9,2-3.8c0.4-0.3,0.9-0.1,1-0.6c0.7-1.8,1.5-4.9,3.8-4.9c0,0,0.6,0.9,1.7,1
				c-0.3,0-0.6,0.1-1,0.1c0.3,0.6,0.9,1.8,1.4,1.9c-0.1,1-0.9,0.7-1,2c0.9,0.1,2.4,0,3.2,0.1c-0.2,0.4-0.2,0.7-0.1,1.3
				c1.7-0.6,2.5-1.9,4.4-2.5c-0.6-0.9-2.6-0.6-2.6-2.7c-0.8,0-1.2,0-2.2,0c0.2,0,0.1-0.5,0-0.9c-0.5,0.1-0.7,0.2-1.3,0.1
				c0.2,0,0.5,0,0.7,0c-0.7-0.8-4.4-2.9-5.6-2.9c-0.2,0-0.5-0.1-0.7-0.1c0.1-0.6,0.3-1.7-0.8-1.7c-0.6,0-0.7,0.6-1.2,0.9
				c0-0.5,0.2-0.9,0.2-1.4c0-0.7-1.9-1.4-2.8-1.4c-0.9,0-1.4,0-1.4,1c0,1.3,0.4,1.9,0.8,3.1c-1.7-0.6-1.3-3.1-3.1-3.1
				c-0.6,0-1.2,0.6-1.2,1.2c0,0.4,0.2,0.8,0.5,0.9c-0.5-0.5-1.2-0.5-1.9-1c0.2-0.4,0.5-0.6,0.8-1c-1.6-0.3-2.4-0.3-3.5-0.3
				c-0.7,0-2.2,1.3-2.4,1.7C395,94.7,395.8,95.9,396.3,95.9z"/>
			<path class="st3" d="M410,92.3c-0.1,1.6,1.3,0.7,2.4,0.7c0.1,0,3,0.2,3.3,0.2c-0.3,0.1-1.1,0.1-1.7,0.3c-0.1,0-0.9,0.1-1.4,0.2
				c0.1,0.6,0.3,1.2,0.9,1.2h4c0.5,1,1.2,1.1,2.4,1.1c2,0,5.5-2.3,7.2-3.5c-0.4-0.8-1.7-1.8-3.1-1.8c-1,0-0.6,0-2.3,0
				c-1,0-1.5,0.7-2.1,0.7c-0.1-0.5,0-1.7,0-1.7h-0.8c-0.3,0-0.9,1.5-1.7,1.5c-0.3,0-2.4-1.5-2.8-1.5h-1.9h0.3h-1.4v0.9
				c0,0.2-0.8,0.1-1.2,0.1h-1C409.1,90.8,409.5,91.9,410,92.3z"/>
			<path class="st3" d="M394.7,96.7c-0.1,0-0.1,0-0.1,0.1l0.1,0.1V96.7z"/>
			<path class="st3" d="M396.9,99.7c-0.5-1.5-1.4-1.8-2.3-2.9C393.5,97.5,395.6,99.4,396.9,99.7z"/>
			<path class="st3" d="M394.5,96.7C394.6,96.8,394.6,96.8,394.5,96.7C394.6,96.8,394.6,96.8,394.5,96.7L394.5,96.7z"/>
			<path class="st3" d="M354.1,187.1c0,0.8,0.9,1.6,1.7,1.6c0.4,0,1-0.1,1.3-0.3c0.6-0.3,1.4-1.5,2.5-1.5c0.7,0,1.4,0.1,1.8-0.3
				c0.6-0.6,0.1-1.4,0.1-1.9c0-0.1,0-1.9,0-2.4c0-0.6,1.2-0.9,1.2-1.4c0-1.2-0.8-3.2-2.4-3.2c-0.4,0-0.8,0-1.2,0
				c-0.7,0-2.1,1.2-2.1,1.7c0,0.3,0.1,0.7,0.4,1.1c-0.4,0.4-1.6,0.9-2,0.9c-0.2,0-0.8-0.1-0.8,0.8c0,0.7,0.6,1.1,1.3,1.5
				C355.9,185.2,354.1,185.4,354.1,187.1z"/>
			<path class="st3" d="M360.4,171.2c0.8,0,1.3-0.8,1.3-1.6c-0.6,0-1.7,0.3-1.7,0.8C360,170.6,360.2,171.2,360.4,171.2z"/>
			<path class="st3" d="M362.7,173.2v0.6c0,0.1-0.8,0.6-0.8,0.9c0,0.3,0.8,0.5,0.8,0.6v0.6c0,0.1,0,0.3,0,0.5c0,0.3,0,1.3,0,1.3h0.8
				c-0.1,0-0.3-0.6,0-1.2c0.2,0.1,0.6,0.3,1.2,0.3c-0.2,0.6,0,0.7,0,1.3s-0.7,0.9-0.7,1.5s0.5,0.5,1.1,0.5s0.9-0.3,1.6-0.3
				c0.2,0,0.4,0.1,0.6,0.1c-0.1,0.3-0.3,0.4-0.3,1c0,0.7-0.2,0.8,1.9,0.8v1c0,0.7-2.1,1.3-3.3,1.3c0,0.8,0.4,1.1,0.4,2
				c0,1-2,1.1-2,2.2c0,0.1,0.2,0.3,0.3,0.3c0.3,0,0.3-0.3,0.7-0.3c0.8,0,1,0.8,1.9,0.8c0.5,0,1-0.3,1.2-0.7c0,0.1,0.1,0.3,0.1,0.5
				c0,1-1.3,0.6-2.3,0.9c-0.2,0.1-2.3,2.3-2.3,2.6l0,0h0.3c0.3,0,0.5,0,1,0h1c0,0,0.4-1.2,1.1-1.2c0.5,0,0.8,0.1,1.3,0.1
				c1,0,2.9-0.9,3.6-0.9c0.4,0,1.9,0,2.8,0c0.8,0,0.4,0.2,1.4-0.5v-0.5c0,0-0.4-0.1-1.1-0.3c0.6-0.9,2.4-1.5,2.4-2.8
				c0-0.7-0.6-1.3-1.4-1.3c-0.6,0-0.4-0.1-0.9,0.3l0.6-0.3c-0.3,0.1-0.6,0.3-0.6,0.5v-0.5c0-0.1,0.1-0.3,0.1-0.5
				c0-0.6-0.9-0.9-0.9-1.5c0-1.7-1.9-2.2-3-3.3c-0.8-0.8-0.7-2.5-2-2.9c-0.6-0.1-0.9,0.1-1.6-0.1c0.1-0.3,0.3-0.6,0.5-0.7
				c0-1.5,2.1-2.3,1.9-4.4H366c-0.1,0-0.2-0.2-0.2-0.4c0.2-1,1.7-1,1.7-1.9c0-0.1-0.4-0.8-0.7-0.8c-0.5,0-1.3,0-2,0
				c-0.4,0-1.1,0.8-1.1,1.1s-0.3,0.7-0.3,1.3c-0.5,0-1,0.3-1,0.9c0,0.1,0.2,0.4,0.3,0.4c0,0.1-0.1,0.7-0.3,0.7
				c-0.1,0-0.5-0.3-0.5-0.3h-1.1C361,172.5,361.6,173,362.7,173.2z"/>
			<path class="st3" d="M365,181c-0.4,0.2-0.5,0.5-0.5,0.8c0.4,0,0.6,0,0.8,0c0-0.3,0.1-0.6,0.1-0.8C365.3,181,365,181,365,181z"/>
			<path class="st3" d="M347,149.2l0.1-0.1c0-1.9-2.6-1.5-2.6-3.5c0-0.2,0.2-0.5,0.4-0.6c-0.6,0-1,0.4-1.7,0.4
				c-0.7,0-1.3-0.1-1.3-0.9c-0.3,0.2-0.3,0.1-0.8,0c-0.1,0.3-0.3,0.5-0.3,1c-0.6-0.6-1.5,0.2-2.4,0.2c-0.6,0-1.2-0.2-2.2-0.2
				c0,0.2-0.1,0.5,0,0.7c-0.3-0.1-0.4-0.3-1-0.5l-1.7,0.4c-0.4,0-0.6-0.3-0.9-0.6c-0.2,0.3-0.1,0.4,0,0.9c-0.3,0.1-0.8,0.4-1.3,0.4
				s-1.1-0.8-1-1.3c-0.1-0.4-0.3,0.1-0.4-0.9c-0.2,0-0.3,0-0.6,0c-0.6,0-1,0.5-1,0.5c0,0.2,0,0.3,0,0.6c0-0.2-0.9-0.3-1.5-0.1
				c0.1,0.8,2.7,1.5,3.5,1.5c0,0.2,0,0.4,0.3,0.6c-0.8,0.3-2.6,0.6-3.6,0.6c0.7,0.7,1.9,0,3,0.3c-0.1,0.8-0.4,1.2-0.4,2.1
				c-0.2,0-0.4,0.2-0.6,0.3c1.5,0,2.1,1,3.1,1.3c1.9,0.6,3.7,1.3,6.3,1.3c2.4,0,3.7-1.2,5.4-1.7C344.7,151.4,346.4,150.2,347,149.2z
				"/>
			<path class="st3" d="M227,261.2c-0.5-0.2-0.8-1.2-1.6-1.4l-1-0.1c-0.1-0.1,0-0.3,0-0.5c-1.6,0-3.3-0.8-4.3-1.7
				c-0.1-0.1-0.7-0.8-1.2-0.8c-2.3,0-3.8-1.1-6.8-1.1c-3.1,0-4.6,0.6-5.7,3.7h0.6c0.7-2.1,2.6-2.3,3.9-2.3c0.3,0,0.7-0.4,1-0.2
				c-0.2,0.2-0.3,0.4,0.1,0.4h2c1,0,1.5,1.1,2.4,1.1c0.6,0,0.9-0.2,1.5,0.1c0.3,0.1,0.2,0.6,0.8,0.6c0.2,1,1.2,1,2.2,1.5
				c-0.1,0.4,0.2,0.6-0.9,0.6c0,0.1,0,0.3,0,0.4c1,0,2.6,0.5,4.2,0.5C225,262,226.5,262,227,261.2z"/>
			<path class="st3" d="M209.8,257.6v0.5c-0.2,0-0.6,0.1-0.6,0.6c0,0.1,0.9,0,1,0c0.1-0.4,0.1-0.7,0-1l-0.2-0.1H209.8z"/>
			<path class="st3" d="M219.6,265c0,0.6,0.6,1,1.1,1c0.8,0,1.5-0.3,2.3-0.4c-0.1-0.3-0.2-0.5-0.6-0.6l0.1,0.1
				c-0.4-0.1-1.4-0.6-2.2-0.6C220,264.6,219.6,264.8,219.6,265z"/>
			<path class="st3" d="M241.5,264.9c0,0.7,0.9,0.8,1.7,0.8c0.4,0,0.9,0,1.1-0.4c-0.2-0.4-1.9-0.8-2.1-0.8S241.5,264.6,241.5,264.9z
				"/>
			<path class="st3" d="M227.1,264.6c0,0.4,0.4,1,0.8,1.1c0-0.2,0.1-0.3,0.1-0.6c0.3,0.2,0.3,0,0.8,0c0.8,0,2.5-0.2,3.1,0.2
				c0.3,0.2,0.2,0.9,0.8,0.9c0.8,0,0.7-1.3,1.6-1.3c0.3,0,0.3,0.2,0.7,0.2c0.5,0,0.8,0.3,1.3-0.7h2.6c-0.5,0-1.2-0.8-1.9-1.4
				l0.3,0.4c-1.2-0.6-1.7-1.8-3.9-1.8c-0.8,0-1.2,0.3-2.1,0.3c-0.6,0-1-0.5-1.7-0.5c-0.2,0-0.6,0.3-0.6,0.5c0,0.4,0.5,0.8,0.9,0.8
				c0,0.6,0.1,1,0.5,1.5c-0.8,0.4-1.5,0.1-3.1,0.1C227.4,264.4,227.3,264.6,227.1,264.6z"/>
			<path class="st3" d="M252.2,281.9c0,0.2,0.4,0,0.6,0c0.4,0,0.7-0.6,0.8-0.9v-0.5c-0.2,0-0.4,0-0.6,0
				C252.7,280.5,252.2,281.2,252.2,281.9z"/>
			<path class="st3" d="M275.3,301.7c-0.8,0-1.4,0.6-1.4,1.7c0,0.6,1.8,1.8,2.9,1.8c0.8,0,1.9-1.6,1.9-2.2c0-0.1-0.2-0.6-0.5-0.6
				c-0.3,0-1,0.8-1.1-0.1c-0.6,0-1-0.6-1.5-0.6C275.5,301.7,275.3,301.7,275.3,301.7z"/>
			<path class="st3" d="M228.3,395.8h1V393c0-0.2,0.1-0.3,0.1-0.8c0-0.6-1-1.1-1.6-1.1c-0.4,0-1.6,2.1-1.6,2.1s0,0.6,0,0.9
				C226.2,394.3,227.9,395.8,228.3,395.8z"/>
			<path class="st3" d="M198.7,197.4c0.7-0.3,0.4-1.5,1.1-1.5c0.8,0,1.4,1.1,1.7,1.4c0.1-0.3,0.1-0.1,0.1-1.1c0.2,0,0.3,0,0.6,0
				c0.4,0,3.3,2.5,3.5,2.8c0.4,0.8,0,1.5,0.6,2.1c1.6,1.6,3.8,2.4,5.5,2.4h1.8c0.8,1,1.9,1.3,1.9,2.4c0,0.5-0.3,0.9-0.7,0.9
				c-0.8,0-1.7-0.9-1.9-1.2c-0.3,1.1-0.9,4.5-1.9,4.5c-0.7-0.6-0.7-1-1-2.1c-0.7,0.2-0.6,0.5-1.4,0.5c0.2-1,0.8-1.6,0.8-2.6
				c0-0.8-2.6-2.1-3.1-2.1c-1.1,0,0.4,1.7-2.2,1.8c-0.8,0-0.4,2.2-0.4,3c0,0,0,1.4,0,2.2c0,0.9-0.7,3-1.7,3c-0.8,0-1.8-0.6-1.8-1.4
				c0-1.8,0.5-5.4,1.7-6.9c-0.7,0-1,0.7-1.7,1.1c0.1-1.4,2.6-3.2,4.2-3.2c0.6,0,3.5,0,3.5,0v-1.2c-2.1,0-2.4-0.9-4-0.9
				c-0.8,0-1.1,0.3-2,0.3c-0.5,0-1.1,0.8-1.2-1.3h-1.4c0.3,0,0.8-0.3,0.8-1.3c-1,0.2-2.3,1.7-3.1,1.7c-0.6,0-0.7,1-1.9,1
				c-0.6,0-0.8,0.3-1-0.3c-0.5,0.1-0.8,0.9-1.3,0.9h-1c1.6-3.1,3.5-3.1,5.4-4.3C197.8,197.9,197.9,197.8,198.7,197.4L198.7,197.4z
				 M215.6,212.3c-0.3,0.2-0.8-0.3-1.7-0.3c-1,0-2-0.1-2.6,0.6c-0.3,0.3-0.4,0.7-1,0.7c-0.4,0-0.8-0.5-1-0.8c0,0.7,0.3,1.7,1,1.7
				C211.7,214.1,214,213.1,215.6,212.3L215.6,212.3z M216.4,210.9c0-0.1-0.1-0.2-0.1-0.3C216.4,210.7,216.4,210.8,216.4,210.9
				L216.4,210.9z M216.8,209.3c1.5-0.5,4.8-1.3,6.5-1.3c0,2.6-4.5,1.9-6.5,1.9c-0.3,0-0.3,0.1-0.8,0.1c0.1,0.1,0.2,0.3,0.2,0.5
				c-0.1-0.2-0.4-0.4-0.4-0.6C215.9,209.5,216.6,209.4,216.8,209.3L216.8,209.3z M240.5,201.2c0-0.2-0.1-0.3-0.1-0.4
				C240.4,200.9,240.5,201,240.5,201.2L240.5,201.2z M240.6,202c0-0.1,0-0.3,0-0.4C240.6,201.8,240.6,201.9,240.6,202L240.6,202z
				 M240.7,203c0-0.1,0-0.3,0-0.4C240.7,202.8,240.7,202.9,240.7,203L240.7,203z M240.8,204c0-0.1,0-0.2,0-0.3
				C240.8,203.8,240.8,203.9,240.8,204L240.8,204z M240.9,204.8c0-0.1,0-0.2-0.1-0.3C240.9,204.6,240.9,204.7,240.9,204.8
				L240.9,204.8z M240.3,200.4c-0.1-0.3-0.2-0.5-0.3-0.7C240.1,199.9,240.2,200.2,240.3,200.4L240.3,200.4z M241.1,205.3
				c0,0.1,0.1,0.2,0.1,0.3C241.1,205.4,241.1,205.3,241.1,205.3L241.1,205.3z M216,212c0.3-0.1,0.5-0.3,0.7-0.3
				c-0.1-0.2-0.1-0.4-0.2-0.5c0.1,0.2,0.1,0.4,0.2,0.5C216.5,211.8,216.3,211.9,216,212L216,212z M304,311.9c-1-0.3-1.6,0.1-2.6-0.1
				c-1.1-0.3-3.3-2.3-3.9-3.3c-0.8-0.3-1.9-0.8-3.3-1.1l-2.6,0.4c-1.4,0-1.7-1.3-3.1-1.3c-0.6,0-0.9,0.5-1.5,0.5h-0.5
				c0,0,0.1-0.9-0.1-1.5c-0.1-0.6-0.8-0.3-1.3-0.6c-0.9-0.6-3.4-1.8-4.7-1.8c-1.1,0-1.9,1.5-2.6,2.6c-0.2,0.3-0.5,1-0.8,1
				c-0.2,0-0.3-0.6-0.3-0.6H275c-0.1-2.1-0.5-1.4-1.2-1.7c-0.3-0.1-1-0.1-1-0.8c0-2.1,2-2.8,3.1-4.2c0-0.7-0.9-0.7-1.3-1.4
				c-0.3-0.8-1.3-2.9-1.3-3.8c-1.2-0.3-2.6-2.5-3.8-2.5c-0.1,0,0,0,0,0v-0.2c-2.1,0-2.2-0.8-2.7-0.8h-1.7c-1.9,0-4.8-0.1-5.3-2.1
				c-0.3,0-0.9-0.1-1-0.3c-0.8-1.7-1.5-0.7-2.8-2.8h-1.9c-0.3,0,0.4-2-0.5-2.3c-1-0.4-2.5-0.6-2.5-1.6V281c0,0.1,0.3,0.1,0.6-0.1
				c0,0-1.5-0.2-2.2-0.2c-0.2,0.1-1.8,0.1-1.9,0.4c-0.4,0.8-1.2,0.9-2.2,1c-0.6,0-1.4-0.7-1.4-0.7c-0.6,0-2.6,0-3.8,0
				c-0.4,0-0.8-0.6-0.8-1.3c-1-0.2-2.6-0.6-2.9-1.8l-1.2,0.3c0,0.8,1-0.4,1.3,1.7h-1.7c-0.6,0-1.7-0.1-1.7,0.9c0,0.8,0.8,1.1,0.8,2
				c0,0.3-0.4,1-0.7,1c-0.8,0-1.1-1.4-1.1-2.2c0-0.6,0.4-1.8,0.6-2.9c0.3,0,0.7-0.3,0.7-0.8c0-0.1-0.3-0.8-0.6-0.8
				c-0.9,0-1.1,1-2,1.3c-1.7,0.6-2.9,0.8-4.5,1.4c-0.9,0.3-1.5,0.5-1.9,1.6c-0.1,0.6-0.2,1.5-0.6,1.7c-0.4,0.3-0.7,0.5-0.7,1.2
				c-0.1,0,0,0.2,0,0.3c0,0.1,0,0.3,0,0.4s-0.7,0.1-1.2,0c-0.1,0.2-0.5,0.3-0.7,0.5c0.2-0.3,0.3-0.5,0.4-0.5c-1.1-0.8-2-2.2-4-2.2
				c-1.7,0-2.6,1.4-4.4,1.4c-1.2,0-1.2-1.3-1.9-1.7c-1.1-0.6-2.6-1.2-2.6-2.7c0-1.1,0-2.6,0-4.2c1-0.7,1-2.4,1-3.1c0-0.3,0-0.7,0-1
				c-1-0.3-2-1.5-3.6-1.5c-2.4,0-4.5,0.4-6.8,0.4c-0.4,0-1-0.3-1-0.8c0-0.1,0-0.2,0-0.4c0-0.4,1-0.7,1-1.4c0-1,0-2.4,0-3.6l0,0
				c0,0,0,0.6,0,0.8c1-0.7,1.4-1.2,1.4-2.3c0-1.3,1.7-2.6,1.7-3.5c0-0.2,0-0.4,0-0.6c0,0-1.5-0.1-1.8-0.1c-0.3-0.1-0.8-0.2-1.5-0.2
				c-1.9,0-4.2,0.7-4.2,2.7c0,1-1.2,1.9-1.5,2.8c-0.1,0.3-0.4,1.1-1,1.1c-0.3,0-0.6-0.4-1.3-0.4c-1.4,0-2.5,1-3.8,1
				c-0.6,0-0.6-0.6-1.2-0.8c-1.8-0.6-1.8-1.7-3.1-3c-0.5-0.5-1.4-1.5-1.7-2c-0.3-0.6,0.6-1,0.3-1.7c-0.1-0.3,0-0.8,0-1.4v-3.9
				c0-1,0.2-1.5,0.2-2.8c0-0.4-0.4-0.7-0.5-1.1l-0.2-0.2c0.1,0,0.1,0,0.1,0c0-0.2-0.4-0.5-0.4-0.7c0-2.1,0.9-4,2.4-4.5
				c0.7-0.3,1.3,0.2,1.9-0.3c0.8-0.8,1.8-2.6,3.8-2.6c0.8,0,1.2,0.7,1.9,0.7c0.4,0,0.6-0.6,1-0.6c1.4,0,3.1,2.4,5,1.4
				c-0.8-0.6-0.2-1.2-0.1-2.2c-0.4,0.2-0.3,0.2-1,0c1.2-0.4,2.6-0.3,3.8-0.6c0,0.2,0.3,0.6,0.5,0.6c0.6,0,0.8-0.6,1.7-0.6
				c1.7,0,2.4,1.6,3.7,1.6c0.6,0,0.9-0.9,1.5-0.9c3.1,0,2.2,4.2,3.3,6.5c0.6,1.1,1.3,1.5,2.1,2.6c0.4,0.6,0.4,1.7,1.4,1.7
				c1.2,0,1.6-1.3,1.6-2.8c0-1.3-0.7-1.9-0.7-2.8v-0.3c0-2.2-2.1-2.9-2.1-5.2c0-5.1,4.1-6.4,7.4-8.2l-0.2-0.1
				c0.4-0.4,0.3-0.6,1.2-0.9c0.6-0.1,0.9-0.7,1.7-0.8c0.4-0.1,0.7-0.5,1-0.8l-0.7-0.5v-0.6c1,0,0.8,0.1,0.9-0.7
				c-0.3-0.1-0.6-0.1-0.9-0.6c0.3,0,1-0.3,1-0.8c0-0.2,0-0.4,0-0.4s-0.6,0-0.8,0c-0.4-1,0-0.5,0-1.2s-0.4-2-0.4-2.5
				c0,0,0.1-0.6,0.2-0.9c0.1,0.7,0.9,1.8,0.9,2.3c0,0.3,0,0.5,0,0.8c0,0.1,0,0.4,0.1,0.4c0.2,0,1.5-2.4,1.5-2.8
				c0-0.6-0.5-0.8-0.7-1.3l0.3-0.3c0.1,0.1,0.3,0.6,0.5,0.6c0.5,0,1.8-2.4,1.9-3c0,0-0.6-0.5-0.6-0.8c0-0.2,0.2-0.4,0.4-0.5
				c0.2,0,0.4,0.1,0.6,0.1c1,0,1.7,0.2,2.6-0.1c-0.5-0.3-1.1,0.2-1.7,0.2h-0.7c1.4-1,4-0.7,5.4-1.7c0.3,0.3,1.5-0.2,2.6-0.4V214
				c0,0-0.9,0.5-1.1,0.5c-0.4,0-0.8-0.9-0.8-1.2c-0.2-0.1-0.4-0.4-0.4-0.6c0-2.6,2.3-3.4,3.4-4.5c0.7-0.3,0.7,0,1.6,0
				c1,0,1.7-0.4,2.2-1.2c-0.1-0.2-0.5-0.3-0.6-0.5l-0.3-0.2v0.1c0,0,1,0,1.2,0c0.4,0,2.2,0.1,2.8-0.3c0.6-0.4,0.6-1.4,1.7-1.5
				c0,1-0.1,1,1,1c-1.6,0.1-4.1,1.2-4.1,2.8c0,0.6,1,1.7,1.4,1.7c0.6,0,1.8-1.9,3.2-2.3c0.4-0.1,5.1-1.9,5.1-2.4
				c0-0.8-1.8-0.8-2.2-0.8c-2,0-5.2-1.9-5.2-3.7c0-0.4,0.6-1,0.7-1.7c-0.3,0-1.1-0.2-1.7-0.2c0.4-0.6,2.9-0.9,2.9-2.3
				c0-1.3-2.2-1-3.6-1c-3.1,0-4.4,2.2-6.5,2.4c0.9-1.9,2.4-1.2,3.9-2.8c1-1,0.3-1.6,1.7-2.1c2.6-0.8,4.2-0.3,6.8-0.3
				c3.5,0,5.4,1.1,7.4-1.5c1-1.3,6.6-1.6,6.6-3.8c0-1.6-0.4-2.3-1-3.3c-0.6,0-0.4-0.7-0.4-1v-0.8c-2.1,0.9-5.1,2.1-6.8,2.1
				c-0.2,0-0.7-0.1-0.8-0.3c1.4-0.8,5.2-1.3,5.6-2.6c0.1-0.3-0.8-0.4-0.9-0.8c-1.7,0.2-5.5-0.6-5.5-2.9v-0.2c-2.1,0-2.2-1-3.1-1.7
				c0.3-0.2,1.2-0.4,1.2-1.3c0-0.7-0.6-1.3-0.4-1.9c-0.6-0.2-2.9-1.6-2.3-2.9c0.7-1.6-2.2-1.9-2.4-3.8c-0.2,0-0.9-0.6-1.2-0.9
				c-0.5,0.4-1.6,1-1.6,2s-2.2,3.6-4,3.6c-1.3,0-1.5-1.5-2.3-1.5c-1.2,0-1.7-3.4-1.9-4.9c-0.3-2-4-0.6-4-3.1
				c-1.9-0.3-2.4-2.6-4.3-2.6c-0.9,0-0.9,0.7-1.9,0.7c-2,0-3.3-1.2-5.2-1.2c-1,0-2.1,0.5-2.1,1.7c0,0.7,2.5,1.7,0.2,3.1
				c-0.9,0.6,1.3,2.1,1.4,3.1c0.2,2.1-1.7,2.6-2.6,2.9c1.6,2.7,4,3.6,4,8.2c0,1.3-4.2,4.4-5.6,4.7c2.4,1.2,1.5,5,2.4,6.2
				c-0.3,0.4-1.2,0.9-1.3,1.7c-0.8,0-1.4,1.4-2.1,0.8c-1.7-1.4-4.2-4.1-4.2-6.1c0-2.2,0.4-4.8-1.5-5.8h-4.5c-2.6,0-5.5-2.4-8.6-3.6
				c-0.6-0.2-2.2-1.1-3.1-1.1c-1,0-1.5,1.2-2.6,1.2c0-1.7-1.1-5.5-2.6-5.5c-0.7,0-1,0.6-1.7,0.7c0.3-0.8,0-1.1,0-3.1
				c0-2.8,0.8-4.4,2.4-6c0.6-0.6,1.7-3.3,2.3-3.5c1.2-0.4,3.3,0.3,3.3-1.4c0-1-2.7-1.1-3.6-1.7c0.6,0.2-1.5-1.7,4.2,0.1
				c1.5,0.4,0.6-2,1.4-2c0.1,0,0.7,0,1.5,0c1.7,0,1.6-0.8,2.6-1.6v-1c-2.1-0.6-3.7-0.4-4.7-2.5c0,0,0.8,0,1.3,0
				c0.9,1,1.8,1.7,3.1,1.7c1.1,0,3.1-1.4,3.1-2.2c0-0.3-1-1.5-0.5-1.5c1.5,0,2.1,1.4,3.1,1.4c0.6,0,1-0.6,2.3-0.6
				c-0.3-0.4,0-1.6,0.8-0.3c0.5,0.7,4-2.4,4-3.3c0-0.6-1.6-1.3-1.6-1.7c0-0.5-0.9-1.6,1.3-2.6c0.3-0.6,0-0.6,0-1.7
				c-2.2,0-1.7-1.7-4.5-1.7c-0.6-0.1-1.1-0.5-1.7-0.5c-0.8,0-1.7,0.6-1.7,1.4c0,0.9,1,1.2,1,1.9s-1.6,0.7-1.9,1.4
				c-0.6,1.2-0.4,2.1-1.4,3.4c-1.6,2-3.6-1.2-3.6-2c0-0.9,1.2-0.7,1.2-1.7c0-0.5-2-2.4-2.6-2.4c-2,0-0.6,3-2.8,3
				c0-1.2-0.1-2-1.6-2.7c0.2-0.4,0.3-0.6,0.7-0.8c-1.1-0.7-2.6,0-3.5-1c0.5-0.3,1.7-0.8,1.7-1.7c0-1.3-2-1.3-2.1-2.3
				c-0.1-2.2-1.6-3.6-4.3-3.6c-1.3,0-0.8,0.8-0.7,1.5c-0.8,0.2-1.9,0-1.9,1c0,0.7,0.6,1,0.6,1.7s-0.9,0.6-0.9,1.6
				c0,2.3,4.7,0.9,4.7,3.3c0,0.4-0.6,2.1-0.6,2.1c0.5-0.3,0.9-0.4,1.5-0.7c0.9,2.9-3.7,1.5-3.7,4.9c-2.3,0.6-0.5-1.7-1-2.4
				c-0.2-0.3-2.1-0.8-3.1-0.8c-1.3,0-1.7,0.8-1.7,2.2c-1.2-0.1-1.9,0-5.9,0c-3.8,0-8.1-1.3-9-4.2c-1.3,0.3-5.4,0.4-5.4,1.9
				c0,0.5,0.3,0.8,0.9,0.8c1.1,0,2.9-0.5,3.8-1.1c0.3,2.3-3.3,0.4-3.3,2.8c0,0.5,0.8,2.1,0.4,2.1c-1.4,0-1.7-1.6-2.9-2.1l-1-0.3
				c-1.7,0-2.8,0-4.4,0c-1.4,0-2.3,0.4-3.8,0.5c-2.8,0.1-2.8-1-2.8-1.2c0-0.6,2.1-0.4,2.5-0.8c-1.9-2.7-1.6-2.3-5.6-2
				c-4.2,0.3-6.3-3.1-10.6-3.1c-1.3,0-1.9,0.9-3,0.9c-0.8,0-1.5-1.3-1.7-1.9c-1.3,0.3-1.3,1.8-2.7,1.8c-1.3,0-3.2-3.1-3.6-3.1
				c-1.4,0-0.9,2-2.4,2c-0.6,0-1-0.4-1.3-1c-2.2,0.5-2.9,0.6-4.9,1.4c-0.8,0.1-2.6,1.5-3.2,0.9c-1.8-1.7-1.5,0.5-2.2,0.5
				c-4.5,0.2-1.4,1.8-2,1.8c-1.7,0-4.9-0.3-7.7-2.1c-0.1-0.1-1-0.7-1-0.9c-0.5,0.3,0.2,0.1-0.9,0v0.1c-1-0.6-2.3-1.4-4.3-1.4
				c-1.2,0-2,0.3-3.2,0.3c-2.2,0-6.4,1.2-7.8-1.9h-4.8c-1,0-1.3,0-2.1-1h-3.5c-0.6,0-0.8-0.4-1.6-0.7c-0.3,0.6-1,1.1-1.7,0.9
				c0.2-0.3,0.3-0.5,0.6-0.9c-0.9-0.3-1.3-1-2.2-1c-1.2,0-1.9,1.5-3,1.9c-1,0.3-1.6-0.5-2.6-0.3c-3.7,1.2-6.8,5.2-8.9,6.2h-3.8
				c-0.1,0-1,2.3-1,2.3c0,0.5,2.9,1.2,3.7,1.7c0.7,0.4,1.5,2.6,2.1,2.9c2,1,3.5,1.2,4.2,3.4c-0.8,0.2-1,0.3-1.9,0.3
				c-1.5,0-2.6,0.7-2.6-1.3h-1.2c-1.7,1-4.5,1.8-6.3,2.8c0.3,0.7,1,1,2.1,1c-0.1,0.2-0.2,0.4-0.2,0.6c0,0.6,0.8,0.8,0.9,1.8
				c0.6,0,2.2,0,3.7,0c1-1,1.5,0.5,2.9,0.5c1.5,0,2.3-1.2,3.5-1.2c0.4,0-0.6,0,1.5,0v1c-2.1-0.3-0.8-0.3-1.5,0.1
				c0.1,0.2,0.9,1.2,0.9,1.7c0,0.9-4.8,2.8-5.5,2.8c-1.5,0-5.3,1.7-5.3,3.8c0,1.1,2.2,1.5,2.8,3c-0.3,0-0.7,0.2-1.1,0.2
				c0.5,0.6,3.7,3.2,4.7,3.2c0.3,0,0.8-1.2,1.4-1.2s0.5,0.8,0.5,1c0,0.6,0,0.6,0,1.4c0,0.6,0.3,1.2,0.7,1.2c0.3,0,0.7-1.1,1.1-1.1
				c0.3,0,0.2,0,0.8,0c0,0-0.1-0.1,0.1-0.5c1.2,0.9,1.7,1.6,3.3,2.2c0.1-0.5,0.3-0.6,0.5-1.1c0.7,0.2,1,0.4,1.9,0.4c1,0,1.5-1,2.6-1
				h1c-1.7,2.1-1.7,3.3-3.3,4.4c-1.7,1.1-4.4,2.4-5.6,3.9c-0.8,1-2.2,0.4-3.3,1.1c-0.8,0.4-1.4,1.8-2.2,2.3
				c-1.2,0.7-2.5,0.2-3.3,1.5c2.9,0.8,4.3-2.1,6.8-2.5c2-0.3,4.5-1,5.6-2.1s3.5-1.8,4.5-3.1c0.6-0.7,1.1-1.4,2-1.7
				c1.6-0.6,3.4-1.2,3.4-2.8c0-0.3,0-0.7,0-1c0-2.3,4.1-6.1,5.8-6.1c0.3,0,0.2,0,0.8,0c0,0-0.1,0.5-0.1,0.7c-2,0.6-3.1,1.8-3.1,3.3
				c0,0.3-0.3,0.3,0.1,0.8c-0.1,0.1-0.6,0.1-0.6,0.6c0,0.3,0.4,0.5,0.7,0.5c1.6,0,6-2.5,7-3.9c-0.3-0.3-0.5-0.5-0.7-1
				c0.6-0.4,2-0.9,2.9-1.2c1.2,2.4,4.2,3.3,6.5,3.3h3.8c2.1,1,4.5,1.3,6.3,2.6c0.8,0.6,1.8,2.7,3.3,2.7c0.6,0,0.8-0.7,1-1.2
				c0.6,0.6,1,1.1,2.1,1.1c0.3-0.5,0.9,0.2,1.3,0.5c-0.2,0.3-0.7,0.6-0.7,1.5c0,0.4,0.8,1,1,1c0.9,0,0.8-0.8,1.9-0.9
				c0,0.1,0,0.4,0,0.9c0,0.6-1,0.6-1,1.2c0,0.4,0.2,1,1.1,1c1.3,0,2,0,2,1c0,0.6,0,0.4,0,1c0,0.8,1.9,2.1,3,2.1
				c0.3,0,0.4-0.1,0.8-0.1c0,0.3,0.4,0.6,0.4,1c0,0.9-0.3,2.8,0.7,3.1c0.6,0.1,1.1,0.1,1.5,0.6c0.6,0.6-0.1,1.5,0.7,2.1
				c0,0,1.8,1.1,1.9,1.3c0.5,1.6,0.6,3.5,3,3.5c0.3,1.4,2.8,0.5,3.3,2.3c0.2,0.7,1.9,0.8,2.6,1.5c0.1,0.1,0.5,0.3,0.8,0.4
				c0.3,0.7,0.9,0.9,0.9,1.6c0,0.6-0.6,1.5-1,1.9c-0.3-0.6-1-1.2-2-1.2c-0.3,0-1,0.1-1,0.5c0,1.5,1.7,2.2,1.7,3.7
				c0,2.2-1.8,6.1-1.2,7.8c0.7,1.7-0.1,4.3,0.7,5.8c-0.4,0.3-1,0.7-0.7,1.3c1.2,2.1,2.7,5.1,4.2,5.4c-0.4,2.9,1.6,3.7,2.6,6.1
				c0.2,0.6,0,1.3,0.6,1.6c2.5,1,6.1,3.5,7.1,4.5h-0.7v0.4c0,1.6,1.4,2,2,3.3c0.4,0.8,0.5,2.8,1.3,3.3c1.2,0.8,2.4,2.3,3.5,3.7
				c0.6,0.9-1,0.6-1.4,0.6c0.7,1,2.6,0.8,3.6,1.8c0.7,0.7,1.4,1.5,2.4,2.2v1.8c0,0.3-0.1,0.3,0.3,0.6c0.8,0.5,1.3,2.1,2.5,2.1
				c0.1,0.3,0.9,1.5,1,1.5c0.2,0,0.4-0.7,0.4-1.1c0-0.6-0.9-1.7-1.4-1.2c-1.2-0.8-1.7-2.6-2.2-4.3c-0.5-1.5-1.9-2.2-2.4-3.8
				c-0.4-1.2-0.5-1.9-1.5-2.8c-0.7-0.7-1.6-0.7-2.1-1.7c-0.6-1.2-1.2-2.1-1.2-3.5c0-0.2-0.1-0.6,0.1-0.9c0.9,0.9,2,0.8,3.2,1.4
				c0.6,0.3,0.4,1.8,1,2.4c0.6,0.6,0.4,1.8,1,2.4c0.8,0.8,1.5,1.5,2.4,2.4c0.2-0.2,0.1-0.1,0.8,0c0,1.7,2.2,1.8,2.8,3.1
				c0.3,0.8-0.1,1.5,0.4,2c0.7,0.7,1.8,1,2.5,1.7c1.5,1.5,3.9,3.5,4.7,6.1c0.1,0.5,0.7,0.7,0.7,1.6c0,0.8-0.7,1.2-0.7,1.9
				c0,0.6,0.4,1.4,1,1.4c0.2,0.9,2.4,1.4,3.2,2.2c0.2,0.2,0.3,0.3,0.8,0.5c0.9,0.4,1.4,0.3,2.3,0.7c1,0.5,1.2,1.3,2.2,1.6
				c0.8,0.2,1.2-0.2,2,0.1c0.7,0.3,3.1,2,3.9,2c0.6,0,1-0.1,1.6,0.1c0.3,0.1,0.8,0.6,1.4,0.6c1.2,0,1.4-1.1,2.6-1.1
				c0.6,0,1-0.2,1.5,0.9h0.4c1.9,1,2.2,2.2,4.3,3.2c1.4,0.7,2.4,0.2,3.7,0.8c0.9,0.4,1.6,0.8,2.9,0.8c0.5,0,0.8-0.7,1.3-0.7
				c0.1,0,0.3,0,0.4,0c0.4,2.1,1.6,2.6,2.7,3.7c0.3,0.3,0.7,0.3,0.9,1c0.3,1-0.3,2.5,0.7,2.5h0.7c-0.1,0-0.1-0.1,0-0.3
				c0.1,0,2.4,1.6,2.6,2c0.3,0.6,0.3,1.3,1.3,1.5c0,0.1,0.2,0.5,0.3,0.5c0.5,0,1.6-0.4,2.1,0.1c0.6,0.6,1.3,1.9,2.4,1.9
				c0.6,0,0.9-0.3,1-1c-0.1-0.1-0.6-0.3-0.6-0.6c0-0.4,1.9-1.8,2.4-1.8c0.8,0,1,0.9,1.7,1.3c-0.1,0.3-0.4,0.4-0.4,0.7
				c0,0.2,0.6,0.4,0.8,0.5c0,0,0.1,0,0.2-0.1c-0.1,0.1-0.1,0.3-0.1,0.4c0,1.2,1.3,1,1.3,2.5c0,0.7-0.3,1-0.3,1.8
				c0,0.6,0.4,1,0.4,1.5c0,0.1,0,0.2,0,0.4l-0.3,0.6c0,0.2,0.3,0.6,0.7,0.7c-0.4,1.9-2.2,1.4-3,2.9c-0.6,1.1-1,3-2.9,3
				c0.3,3.1-1.5,2.8-1.5,4.4c0,1,0.1,2.4,1.1,2.4c0.5,0,0.4-0.3,1,0.1c-0.3,1.1-1.5,1.4-2.2,2.4c-0.3,0.3-0.8,1.3-0.8,2.1
				c0,1.3,1,2.6,1.7,3.4c0.3,0.3,0.8,0.1,1,0.6s0.3,1.5,0.8,1.9c0.2,0.2,0.7,0.1,0.9,0.5c0.6,1.3,1,2.2,1.5,3.8
				c0.5,1.5,1.9,2.8,2.4,4.4c0.3,1,1.3,1.5,1.3,2.6c0,0.8-0.3,1.6,0.3,2.2c1.3,1.3,2.2,2.2,4.2,2.9c1,0.3,1.4,0.6,2.2,1.4
				c0.8,0.8,1.5,0.6,2.6,1.1c1.2,0.6,2.4,1.7,3,3.3c0.2,0.8,0.7,4.9,0.7,5.6c0,1.1-0.5,3-0.5,4c0,0.9,0,0.9,0,3.1c0,0.7,0,1.9,0,2.4
				c0,0.2,0,0.4,0,0.6c0,2.4-2,4.1-2,6.7c0,1.1-0.9,2.1-0.5,3.3v5.2c-0.4,1.7-0.5,2.8-1,4.4c-0.1,0.3-0.4,0.2-0.6,0.5
				c-0.3,0.5-0.5,1.5-0.8,2c-0.6,1-1.6,2.6-1.6,4.2c0,0.5,0.1,2.4,0.3,2.4c0,0,0.4,0.3,0.4,0.8c0,0.2-0.2,0.4-0.7,0.4
				c-0.2,1.2-0.7,1.8-0.7,3.1c0,0.8,0.4,2.4,1,2.4c0.5,0,0.2-0.6,0.7-0.8c0.2-0.1,0.3,0,0.3,0v1l-1.9,10.3c-1,0-0.4-1.4-1.6-1.4
				c-0.3,0-0.5,0.6-0.5,0.6h-1.1v1c0,0.8,1.5,1.9,1.5,2.4c0,1.1-1.6,1.6-1.6,2.9c0,1.2,1.1,3.6,1.1,5.1c0,0.3,0,0.5,0,1
				c0,1.5,2.1,1.2,2.1,2.9c0,0.4-0.2,0.8-0.4,1.2c0.2,0.1,0.4,0.3,0.6,0.3c-0.1,0.6-1.3,0.6-1.3,1.2c0,0.1,0.4,0.5,0.6,0.7
				c0.9,0.9,1.5,2,3.4,2c0.1,0.3,0.2,1.1,0.8,1.1c0.5,0,0.8,0,1.3,0c0,1,1.5,0.9,2.6,1.2c1.1,0.4,0.6,1.9,2.2,1.9c0.7,0,1.2,0,1.9,0
				c0.2,0,0.5,0,0.7,0c0.3,0,0.3,0,0.8,0c0.6,0,2.4-1.2,3.4-1.2c0.4,0,0.8,0.2,1.1-0.2c-1.9-0.9-3.8-1.5-5.3-3
				c-0.9-0.9-0.8-4.1-2.1-4.8c-0.4-0.1-1-0.9-1-1.6c0-1.3,0.4-2.3,1.2-3.1c0.6-0.6,1.7-0.2,2.2-1.2c0.4-0.9,0.2-1.8,0.8-2.4
				c1-1,2.7-1.2,2.7-3.1c0-2.2-3.1-1.2-3.1-3.9c0-1.2,1-2.2,2.1-2.4c0.5-0.1,1.7-0.1,1.9-0.9c0.4-1.7,0.4-3,1.7-4.2
				c-0.3-0.1-0.8-0.3-0.8-1c0.7,0,1,0.6,1.8,0.6c0.1,0,0.7-0.5,0.7-0.9s-0.3-0.4-0.6-0.7c-0.2,0.1-0.6,0.5-1,0.5
				c-0.6,0-1.5-1.8-1.5-2.8c0-0.3,0.2-0.8,0.7-0.8c1.4,0,1.6,1,3.1,1c0.5,0,1.5-0.5,1.5-0.8c0-0.2,0-0.5,0-0.7c1-1-0.2-3.1,0.7-4
				c0.6-0.6,3,0.1,4.1-0.2c1.7-0.6,3.1-0.2,4.3-1.4c0.7-0.7,1.2-1.1,1.8-2.1c0.3-0.6,0.3-1,0.3-1.9c0-0.8-1.1-0.8-1.3-1.5
				c-0.3-0.8-0.3-1.6-0.8-2.2c-0.2-0.2-1.3-0.6-1.3-1.2c0-0.2,0.4-0.3,0.6-0.3c1,0,1.9,0.8,2.9,0.8c0.5,0,2,0.8,3.2,0.8
				c3.2,0,3.7-3.5,5.1-5.6c1.2-1.8,2.8-2,4-3.9c0.6-0.9,1.2-1.4,1.2-2.3v0.1c1-1.5,1-2.6,2.1-3.3v-3.3c0-1.3,0-2.3,0.9-3.2
				c0.6-0.6,1.5-0.6,2.1-1.5c1.2-1.9,3-1,4.7-2.6c0.2-0.2,0.3-0.6,0.7-0.8c1-0.5,2.1-0.4,3.4-0.4c1.2,0,2.6-1,3.1-1.8
				c0.1-0.3,0.1-1.1,0.4-1.5c1-1.4,1.4-2.1,2.4-3.7c0.1-0.3,0.4-1.7,0.4-2.4c0-0.6,0.6-1.3,0.9-1.6c0.1-0.2,0.4-0.5,0.4-0.8
				c0-0.9,0.5-2.1,0.5-3.3c0-1.7-1-3.9,0-5c0.7-0.7,1.5-0.8,2.2-1.9c0.4-0.6,0.7-0.8,1.1-1.4c1.9-2.8,4.7-4.2,4.7-9.4
				C305.7,313.8,305.4,312.3,304,311.9z"/>
			<path class="st3" d="M218.9,251.1c0,0.6,0,1.3,0.7,1.3c0.1,0,0.3-0.2,0.3-0.3c0-0.5-0.2-0.9-0.8-1H218.9z"/>
			<path class="st3" d="M218.9,247.2c-0.3,0-0.8,0.3-1,0.6c0.4,0,1.1,0.1,1.8,0C219.6,247.5,219.4,247.2,218.9,247.2z"/>
			<path class="st3" d="M221,248c-0.1,0.2,0.1,0.6,0.3,0.6L221,248z"/>
			<path class="st3" d="M229.4,259.1v-0.6c-0.3,0.4-0.8,0.8-1.4,0.6c0,0.1,0,0.3,0,0.4s0.2,0,0.3,0
				C228.7,259.5,229.2,259.3,229.4,259.1z"/>
			<path class="st3" d="M111.8,180.5c0.3,0,0.6-0.2,0.6-0.7c0-1.5-1.9-1.7-1.7-3.6c-1.5-0.3-1.8-0.3-1.8,1.4c0.8-0.6,0.4-0.2,1.5,0
				c-0.2,0.3,0,0.9,0,1.4C110.4,179.1,111.2,180.5,111.8,180.5z"/>
			<path class="st3" d="M106.8,173.6c-0.1,0.1-0.7,0.2-0.7,0c-0.3-1.1,0-1.1,0-2.9c-1,0.6-0.3,0-1.6,0c-0.3,0-0.8,0.1-0.8,0.7
				c0,1,0.8,1.9,1.9,2.1c0,1.1,0.3,1.9,1.1,2.8C107.4,175.5,106.7,174.6,106.8,173.6z"/>
			<path class="st3" d="M171.2,133.6c1.3,0,1.5,0.3,2.8-0.6c-1.3-1-7.2-2.6-7.2-4.8c0-1.8-1.9-3.4-1.9-5.9c0-0.6,1.5-1.3,1.5-2.3
				s-1.2-1.5-2.4-1.5c-1.1,0-2.1,0.5-2.1,1.2c0,0.2,0,0.5,0.1,0.7c-1.1,0.6-0.7,0-1.9,0c-0.6,0-1.3,0.3-1.3,0.9s1,3.9,1.6,4.8
				c-0.3,0.3-0.3,0.6-0.9,0.6c-1.3,0-0.8-1.9-1.2-2.7c-0.3-0.8-1.3-1.1-2.3-2.1h-1.5c0.1,1,0.3,0.8,0.3,1.4
				c-0.8,0.2-1.3,0.4-2.1,0.6c-0.5-1.2-1.2-2-3.1-2c-1.1,0-1.6,0.9-2.2,1.3c-0.3-0.4-0.2-2.4-1.2-2.4c-2.5,0-8.8,2.5-8.8,5.9
				c0,0.3,1.3,1.4,2.1,1.4c0.9,0,1.3-0.2,2.4,0.1c-0.8,0.5-2.8,0.1-2.8,1.7c0,1.9,3.8,1.5,5.4,1.5c0.7,0,2.4,0,3.7,0
				c0.7,0,1.3,0.2,1.7,0.5c-0.8,0.1-1.3,0-2.3,0c-2.9,0-5.1,0.3-6.7,1.5c0.5,0.8,1.7,2.4,3.3,2.4c1,0,3.1-0.4,3.8,0.2
				c0.8,0.6,0.1,1.6,1.3,1.6c1.9,0,3.1,0,6.3,0c1.5-1,3.2-0.3,5-1.2c1-0.5,0.6-1.2,1.8-1.2c2,0,3,2.1,5.7,2.1c1.7,0,3.3,0.1,4-1.2
				c-0.3-0.2-0.6-0.4-0.7-1c-0.3,0-1,0-1-0.6C170.3,133.8,170.6,133.6,171.2,133.6z"/>
			<path class="st3" d="M127.3,126.9c0.2,0.3,0.7,1.4,1,1.4c0.4,0,0.6,0.7,1,0.7c0.6,0,5.4-1.7,5.4-2.3c0-1.6,3.1-4.5,5.2-5.2
				c0.7-0.2,4.4-0.8,4.4-1.5c0-1.6-3.4-3-4.9-3c-0.9,0-1.7,0.8-2.4,0.2c-1.5-0.1-2.2-1-3.8-1.4c-1.3-0.3-1.9,0.5-2.8,0.5
				c-1.7,0-2.4-0.7-4.2,0c0.1,0.8,1,1.9,1,2.4c0,2.5-3.5,4.4-3.5,6.8C124,126.3,126.8,126.1,127.3,126.9z"/>
			<path class="st3" d="M146.3,110.1c-0.2,0-0.7-0.1-1.1-0.2C145.5,110,145.9,110,146.3,110.1L146.3,110.1z M144.4,108.6
				c-0.1,0-0.1,0-0.2,0c-0.6,0-1.1,0.4-1.4,0.8c0.2,0.1,0.5,0.1,0.7,0.2c-0.2,0-0.3-0.2-0.3-0.2h-1.7v1.2c0,0.1,0.8,0.2,1,0.3
				c-0.2,0-0.4-0.1-0.6-0.1c-0.7,0-1,0.6-1.7,0.7c0.3,0.5,0,0.3,0,1c0,0.6,0.5,1,1.1,1c0.5,0,1.5,0.5,2.4,0.5c0.8,0,1.7-0.3,2.9-0.5
				c0-0.4,0.3-0.8,0.8-0.9c0.1,0.7,0.8,1,1.2,1.6c-0.9,0-1.9-0.2-1.9,0.8c0,0.4,1.1,1,1.9,1c1.7,0,3.1-0.5,4.5-1
				c0.2-0.1,4.7-1,4.7-1.2s4.1,0.3,4.5,0.1c0.6-0.2,2.3-2.3,2.3-3.3c0-0.8-0.8-1.7-1.6-1.7c-0.9,0-1.2,0.8-1.9,0.8
				c-1.3,0-2.6-1.5-2.6-2.6c0-0.1-0.1-0.3,0-0.9c-0.5,0-0.9-0.2-1.3-0.5c-0.7,0.6-2.7,1.1-2.7,2.2c0,0.6,1.5,1,1.5,1v0.9
				c0,0-0.4,0.1-0.5,0.3c0.3,0.1,0.7,0.2,1.5,0.2c-0.3,0.6-0.6,1.2-1.5,1.2c-3.1,0-4.5-2.4-6.6-2.4c-0.1,0-0.8,0-1.6,0
				c-0.1-1-0.9-1.3-1.2-1.3c-0.6,0-1-0.3-2.3-0.1C143.8,108.3,144,108.4,144.4,108.6z"/>
			<path class="st3" d="M136.7,111.2c0,0.5,0.6,0.8,1.2,0.8c0.9,0,1.9-1.5,2.1-2.4C139.3,109.5,136.7,110.1,136.7,111.2z"/>
			<path class="st3" d="M146.5,108.4h1.2v-2.1h-2.1C145.6,106.3,146.1,108.4,146.5,108.4z"/>
			<path class="st3" d="M131.7,109.6c0.7,0,1.1,0.4,1.9,0c0.1,0.3,0.6,1,1.2,1c0.8,0,1.3-0.8,1.5-1.5c1.2,0.1,2.2-1,2.4-2.2
				c0.6,0.3,0.6,1.9,1.7,1.9l3-2.2c0-0.6-0.5-0.7-0.6-1.4c0.5-0.1,0.9-0.6,0.9-1.1c0-1.2-4.2-0.1-4.2-0.1c-0.6-0.1-0.7-0.1-1.3-0.1
				c-1.9,0-2.3,1.8-3.6,2.6c-1.2,0.7-2.2,0.8-3.3,1.4c-0.3,0.1-1.5,1.1-1.5,1.3c0,0.2,0.6,0.6,0.7,1
				C131,110.1,131.2,109.6,131.7,109.6z"/>
			<path class="st3" d="M151.5,100.1c1.5,0,1.1,0,3,0c0.8,0,1.3-0.3,1.9-0.5c-0.3-0.9-1.5-1.7-2.9-1.7c-0.9,0-5.1,1.6-5.1,2.5
				c0.6-0.1,0.8-0.7,1.4-0.7C150.4,99.7,150.6,100.1,151.5,100.1z"/>
			<path class="st3" d="M154.3,100.8c-1.5,0-5.7,0.1-5.7,1.7c0,0.6,1.2,2.3,2.2,2.3c1.5,0,3.8-0.6,3.7-1.6h-1.9c1,0,2.2-0.7,3-1.3
				C155.3,101.6,155,100.8,154.3,100.8z"/>
			<path class="st3" d="M146.6,103c0.5,0,0.7-0.4,1-0.8c-0.4-0.2-2.4-1.9-2.4-0.2C145.2,102.3,146,103,146.6,103z"/>
			<path class="st3" d="M181.2,123c0-0.7,0.2-0.1,0.2-1c0-0.8-2-0.1-2.6-0.1c0.5-0.6,2.2-1.2,2.2-2.6c0-0.3-0.5-0.7-0.7-0.7
				c0,0-1.5,0-2.8,0c-1.5,0-3.1-0.3-4.2,0.8c-0.1,0.2-0.8,0.3-0.8,0.5c0,0.9,0.9,0.8,1.9,0.9v1.9c0,0,0.3,0-0.4,0
				c-1.2,0-2.7-0.9-2.7-0.9v1.2c1,2,3.9,1.7,5.9,3.7c0.4,0.4,0.4,1.2,1.4,1.2c0.6,0,0.7-0.8,1.3-1c2.2-0.8,2.4,0.2,2.8-3.6
				C182.4,123.2,181.5,123.1,181.2,123z"/>
			<path class="st3" d="M167.5,108.4c-0.3,0-0.6,0-0.8,0c0,0,0.4,0,0.5,0.2l0.2-0.7v1.3c0,0.4,0.8,0.9,1.5,0.7v0.7h1
				c0,0,0.3,0.9,0.8,0.9c1.4,0,3.8-0.7,5.1-0.7c0.3,0,0.6,0.1,0.8,0.2c-0.4,0.4-1.7,0.4-1.7,1c-0.1,0.2-0.1,0.5,0,0.7
				c-0.3,0.1-0.5,0.4-0.5,0.7c0,0.6,1.8,0.4,2.2,0.4c0.2,0,1.7,0,2.8-0.4c-0.3-1.9,0.6-2.8,0.6-4.4c0-1-0.1-1.7-1.4-1.7
				c-0.6,0-0.8,0.6-1.4,0.6c-1.3,0-2-0.7-3.1-0.7c-0.5,0-1.1-0.1-1.6,0.1c0.3,1,1.1,1,2.1,1v1.5c-1,0-2.1-1.5-3.1-1.5v0.8
				c0,0.3,0.8,1.4,1.3,1.8C170.6,111.3,169.5,108.4,167.5,108.4z"/>
			<path class="st3" d="M178.3,135.7c-0.3,0.1-1.5-0.2-1.5,0.3c0,0.2,5.1,2.1,6.1,2.1c0.8,0,1-0.7,1.7-1.1c-0.4-1-3.3-3.5-4.3-3.5
				C178.8,133.5,179.1,135.4,178.3,135.7z"/>
			<path class="st3" d="M187.7,117.1c-1.5,0-1.8,1.2-1.8,1.3c0,0.2-1,1.4,0,1.4c-1,0-2.1,0-2.1,0v0.3c0,1.4,0.2,1.9,1.3,3.1
				c-0.1,0.3,0.1,0.8,0.1,1.8h1.4c0.8,0,1.4-1,1.6-2.1h-0.9c0.4-1,0.4-0.3,1.9-0.3c2.1,0,3.1-1.4,4-2.7c0,0,1.3-0.9,1.3-1
				c0-0.3,0-0.5,0-0.9C192,117.9,190.1,117.1,187.7,117.1z"/>
			<path class="st3" d="M165.7,105.1c0.5,0,0.9-0.3,1-0.8c-1.5-0.5-1.6-1.9-3.4-1.9C163.3,103.2,165,105.1,165.7,105.1z"/>
			<path class="st3" d="M165.4,113.6c0.6-0.1,0.7,0.1,1.4,0.1c0.4,0,1-0.1,1-0.9c0-0.5-0.3-0.7-0.5-1
				C166.4,112,165.7,112.4,165.4,113.6z"/>
			<path class="st3" d="M165.4,96.9c-0.1,0.3-0.3,0.6-0.5,0.7c0.6,0.4,0.9,0,2.4,0c-0.1,0.2-0.1,0.6,0,0.8c-0.8,0.3-1.5,0.2-2.1,0.8
				c0.6,0.6,0.9,0.6,1.9,0.6s1.9-0.4,2.3,0.3c1.3-0.1,2,0.3,3.3,0.3c1.6,0,1.5,1.7,3.1,1.7c0.6,0,1.3-0.2,1.3-0.9
				c0-0.8-1.4-1.3-1.9-1.9c0.1-0.2,0.4-0.5,0.6-0.7c-0.3-0.3-1.1-1.6-2.1-1.6c-0.4,0-0.6,0.6-1,0.6c-0.8,0-0.7-1.6-2.1-1.6
				c-0.6,0-0.8,0.6-1.4,0.6c-0.8,0-1.2-1.2-2.6-1.2c-0.8,0-1.4,0.4-2.2,0.6C164.2,96.7,164.4,96.9,165.4,96.9z"/>
			<path class="st3" d="M172.8,101.8c-0.6-0.2-0.8-0.6-1.6-0.6c-0.3,0-1.9,1-0.6,1C171.6,102.3,172.4,102.3,172.8,101.8z"/>
			<path class="st3" d="M197.2,114.6h0.8c-0.1,1,2,1,3.5,1h5.6c0.6,0,0.8-0.7,1.7-0.8c0.1,0.5,0.5,1.1,1.4,1.1c2.4,0,5.6,0,5.8-2.4
				c0,0-0.4,0.1-0.9-0.1c0.1-0.3,0.2-0.5,0.3-0.6c0.2,0,0.5-0.1,0.6-0.1c-1-1.8-2.8-1.9-5.6-1.9c-3.6,0-4.9,1.7-8.7,1.7
				c-1.7,0-3.1-0.4-4.8-0.8c-0.3,0.2-1.1,0.6-1.1-0.4c0-0.2,0.4-0.1,0.5-0.3c-1-0.8-2.7-0.5-3.1-1.5h2.8c-0.6,0-3.8,0-3.3-1
				c0,0-0.8,0-1.3,0c-0.3,0-0.7,0-1.4,0c-2.4,0-2.9-2.7-6-2.7c-0.8,0-2.1-0.1-2.1,0.9c0,0.6,4.2,2.4,5,2.4c0.6,0,1-0.3,1.4-0.7
				c1.2,1.2,1.5,2.3,2.8,3.5c-0.3,0.1-0.8,0.6-0.8,1.1c0,1.4,3.5,3.1,5,3.1C195.9,115.8,197,114.6,197.2,114.6z"/>
			<path class="st3" d="M188.3,113.3c0-0.9-1.7-2.3-2.9-2.3c-1.6,0-1.3,1.6-2.1,1.6c-0.1,0-0.9,0.4-0.9,1c0,0,4,1.9,4.5,1.9
				C187.9,115.5,188.3,114.5,188.3,113.3z"/>
			<path class="st3" d="M188,103.2c0-0.1,0,0,0-1c0,0,0.2,0-0.6,0c-1.3,0-3.7,0.2-4.4,0.9c0,0,3.8,0.8,4.2,0.8
				C187.8,103.9,188,103.6,188,103.2z"/>
			<path class="st3" d="M181.2,100.8c-0.2,0.1-0.7,0.3-0.7,0.7c0,0.8,2.4,0.6,4.9,0c-0.2-0.8,0-1.3,0-1.7c0-1.5-2.4,0.1-2.4-1.6
				c-0.8,0-2.2-0.5-2.4-1c-0.7,0.1-1.6,0.3-1.6,1C178.9,99.5,180.4,99.9,181.2,100.8z"/>
			<path class="st3" d="M177.8,93.9h0.9v-1.5c0,0-1.4,0-2.3,0C176.4,93.3,177.3,93.9,177.8,93.9z"/>
			<path class="st3" d="M186.6,93c-0.6,0-1.7-0.1-2.1-0.1h-1c0.2,1,1.7,1.7,4,1.7c-0.4,0.6-0.9,0.3-1.6,0.6c0,0.4,0.1,0.6,0.6,0.6
				c0.6,0,0.8-0.3,1.5-0.6c0.2,0.4,0.3,0.9,1,0.9c0.8,0,1-0.6,2.1-0.6c1,0,1.8,0.3,2.9,0.5c-1,0.2-5.3,0.1-5.3,1.4
				c0,1,1.9,1.7,3.1,1.7c-0.2,0.2-0.4,0.4-0.9,0.5c0.1,1,1.7,1.3,2.8,1.3c1,0,1.4-0.3,1.4-1.6c0.6,0.4,2.3,1.3,2.3,1.3v-1.4h1.7
				c-0.2,0-0.5-0.5-0.9-1.2c0.3-0.3,0.5-0.6,0.8-0.9c0.2,0.8,0.2,1.4,1.1,1.4c0.9,0,1.9-2.1,3.3-2.2c0.6-0.1,1.3,0.1,1.6-0.3
				c0.2-0.3,0.1-0.1,0.1-0.6c-0.9-0.1-2.7-0.4-3.4-0.4c-0.1,0-1.2,0-1.2,0c0-1,0.5-1,0.5-1.5s-0.8-0.7-0.8-1.2
				c0-0.8,0.1-1.4-0.9-1.4c-0.2,0-0.5,0-0.7,0l-0.1,0.4V93h-0.4c-0.6-2.1-0.2-1.9-1.3-2.3c-1-0.4-1.7,0.1-2.8-0.3
				c-1.1-0.4-0.8-2.5-2.2-3.1c-1.3-0.5-2.6-0.7-4.4-0.8c0.1,1,1.3,1.4,2.1,1.4h-1.2c-1.3,0-1.8,0.1-2.6,0.6c0,0.1,0.6,1.1,0.9,1.1
				c0.4,0,1.3-0.4,1.9,0c-0.2,0.2-0.3,0.7-0.8,0.7c-0.6,0-0.9-0.5-1.9-0.5c-0.6,0-1.6-0.1-1.6,0.7c0,0.8,2.2,1.5,3.1,1.8
				C187.2,92.2,186.9,93,186.6,93z"/>
			<path class="st3" d="M212,152.2c-0.3-0.3-0.1-0.8-0.5-1.3c-1.3-1.7-3.5-1-4.9-2.8c-0.2,0.1-0.4,0.3-0.6,0.6
				c-0.3-0.7-0.8-0.9-1.1-2c-1.9,0.2-2.4,3-2.4,4.2c0,0.6,0,0.4,0,1c0,0.4-0.3,0.6-0.6,0.9c-0.1,0.3-0.9,0.2-1,1.4
				c0.6-0.1,1.9-0.3,3,0c-0.1,0.7-0.3,1.4,0.5,1.4c0.3,0,0.4-0.2,0.6-0.6c1,0.4,3.3-0.8,3.3-2.3c0.4,0.1,2.6,2,2.6,2
				c0.7,0,1,0,1.9,0c0.9,0,1.5-0.6,2.3-1C214.3,153,213.1,153.1,212,152.2z"/>
			<path class="st3" d="M225.2,140.4c0-3.1-4.3-3.1-4.3,0c0,1,0.7,1.5,1.7,1.5C223.5,141.9,225.2,141.4,225.2,140.4z"/>
			<path class="st3" d="M209.9,156.2c-0.1,0.4-1.2,1-1.2,1.7v0.9c1-0.1,2.7-1.5,3.3-2.4C211.1,156.1,211.2,156.1,209.9,156.2z"/>
			<path class="st3" d="M217.1,122.7c1.2,0,1.8-0.7,2.6-0.7c0.8,0,1.2,0.5,2.1,0.5c0.6,0,1-0.5,1.3-1.1c-1.3-0.6-2.9-2.2-4.7-2.2
				c-1.5,0-1.9-0.6-3.5-0.6c-0.6,0-1.2,0.3-1.2,1c0,0.8,0.8,1.1,1.4,1.5C214.5,122.3,215.7,122.7,217.1,122.7z"/>
			<path class="st3" d="M215.5,160.2c0.7,0,0.8-1,1.3-1.5c-0.7-0.8-2.3-0.8-2.3,0.5C214.4,159.2,215.3,160.2,215.5,160.2z"/>
			<path class="st3" d="M228.2,140.3c-0.2-0.3-0.8-1.1-1.4-1.1c-0.1,0-0.9,0.5-0.9,0.7c0,0.4,0.4,0.6,0.9,0.6
				C227.5,140.4,227.3,140.5,228.2,140.3z"/>
			<path class="st3" d="M218.4,135.1c-0.8,0-2.4,1.6-1.6,1.6C217.7,136.7,218.2,136,218.4,135.1z"/>
			<path class="st3" d="M233.6,128.5c0.2-1.2-1.7-1.6-2.5-1.6c-0.5,0-0.7,0-1.7,0c-2.3,0-2.8-2.2-4.3-3.3c-0.9-0.6-3.9-0.9-5.2-0.9
				c-1.3,0-1.6,1.8-2.8,1.8c-0.6,0-1-0.7-1.7-0.7c-0.7,0-1.5,0.7-1.5,0.7s0-1.1,0-1.4c0-1.5-0.8-4-2.6-4c-2.8,0-7.4,0.8-7.4,3.5
				c0,0.7,0.7,1.2,0.7,1.9c0,0.6-1,1.4-1.4,1.4c-0.8,0-0.7-0.6-0.7-1.2c0,0-0.1-0.8,0-1.3c-0.3,0-0.6-0.3-0.6-0.7c0-2,2.3-2.2,3-3.6
				c-0.1,0-2.3-0.7-2.3-0.7c-2.4,0-4.2,1.2-5.6,2.6c-0.3,0.3,0.1,1.5-0.5,1.9c-1,0.8-1.4,1.2-1.4,3.1c0,0.6,0.7,1.9,0.7,1.9
				s3.5,0.3,3.5,0.7v0.9c-1-0.1-1.9-0.8-2.8-0.4c0.1,1,1.5,1.9,1.9,1.9h3.3c0.4,1,1.5,1.6,2.1,1.6c3.1,0,8.4-0.1,10.6,0.1
				c-0.1,0.5-0.3,1.7,0.6,1.7c1.3,0,2.4-2.6,3.3-2.6c0.8,0,4.5,3.2,5.1,3.8c-0.4,0.1-1.7,0.2-1.7,0.9c0,0.1,0.3,0.8,0.6,0.8
				c0.9,0,1.3-0.8,2.2-0.8c1.5,0,5.9,3.4,5.9,5.2c0,1-1.5,2.5-2.1,3.1c-0.5,0.5-1.7-0.1-1.7,1c0,0.6,0.9,1.4,1.2,1.6
				c-0.8,0.6-2.5,1.1-3.1,1.1c-0.6,0-1.7,0-3,0c-1,0-2.8,1.1-2.8,1.7c0,1,2.2,1.9,3,1.9s1.3-1.1,2.1-1.1c0.6,0,0.5,0.5,1.2,0.5
				c0.6,0,1-0.6,1.4-1.1c2,1.2,3.1,2.5,5.4,3.5c-1.2,2.2,3,2.2,4.7,3.1c1.7,1,3.1,0.6,5.1,1.6c0.2,0.1,0.3,0.8,0.7,0.8
				c0.3,0,0.7-0.9,0.7-1.4c0-1.9-3.9-2.3-5.1-5.4h1c0.8,2.1,5.2,3.2,6.5,3.4c0.3-0.8,1-1.8,1-2.5c0-0.8-1.2-1.1-1.2-1.6
				c-0.1-0.3-0.1-0.3,0-1.4c-0.5,0-0.5,0-1.2,0c-0.1,0-0.6-0.2-1.9-0.6c-0.6-0.2-1.4-1.4-1.5-2.5h-1.1v-1.2c0,0.2,0,0.1,1,0v-0.8
				c-1,0.1-0.7,0.2-1.3-0.1c0.1,0,1-0.8,1.4-0.8c3.3,0,3.5,4.7,7,4.7c0.8,0,0.9-1.2,0.9-2c1.3,0,1.5-0.6,1.5-0.8
				c0-0.4,0.1-0.1,0-0.9c0.9,0,2.1-0.3,2.1-1.2c0-1.1-0.6-1.6-1.9-1.6c-0.3,0-0.9,0-1.3-0.3c-0.6-1.3-0.9-0.3-2.4-0.3
				c-1,0-1.4-1.2-1.5-2.4c-1.5-0.1-3.3-0.8-3.5-2.4c-0.9,0-1.3-0.2-1.9-0.6c0.6-1,1.2-1,2.3-1.6c-0.2-0.4-0.7-0.6-1-0.6
				c-0.6,0-0.9,0-2.1-0.1c0.6-0.8,1.5-0.6,2.4-0.8c-0.4-1-1-1.5-1.9-1.5h-0.8v-1.5C236.5,130.5,235.5,129.2,233.6,128.5z"/>
			<path class="st3" d="M218.6,154.9c0.7,0.6,0.9,0.6,1.6,0C219.4,154.5,219.3,154,218.6,154.9z"/>
			<path class="st3" d="M207,146.5c-0.1,0.5,0.5,1,1.4,1.1C207.9,147,207.9,146,207,146.5z"/>
			<path class="st3" d="M194.2,84.6h2.1c-0.8,0-1.2,0.6-1.9,1.3c0.1,0.1,0.9,0.6,1.3,0.6c1.3,0,1.4-1.2,2.8-1.2c0.6,0,0.8,0,1.4,0.2
				c-1.8,0.6-3.5,0.4-4.3,2.2c0.6-0.1,1.9,0,3.3,0c-0.9,0.1-1.4,0.4-1.9,0.8c0.5,0.6,2.4,1.3,3.8,1.3c0.6,0,1,0.2,1.5-0.9h0.9
				c-0.4,1,1.4,1.6,2.8,1.6c0.6,0,0.8-0.6,1.4-0.6c0.7,0,1.1,0.6,2.4,0.6c2.2,0,3.8-0.5,5.2-1.6h1c-0.8,1-2,1-3.3,2.1h-3.5
				c-0.1,0-0.5,0.4-0.5,0.6c0,0.4,2.2,1.8,2.6,2.1c-2,0.2-2.6-1.8-4.3-2.4c-1.4-0.4-2.9-0.1-3.7-0.1c-0.3,0-0.7-0.1-1,0
				c0.1,0.6,0.3,0.8,1,0.8c-0.7,0-1.7-0.1-1.7,0.6c0,1.3,4.7,1.3,4.7,3.5c0,1.9-2.6,1.3-4.3,1.9c-1,0.3-1.6,1.1-2.6,2.3l0,0h2.1
				c0.3,0,0.3,0,0.7,0h1c0,1,2.2,3.1,3.1,4.1H205c-1.3-1-2.1-2.1-4.3-2.1c-0.7,0-1.7-0.4-1.7,0.6c0,1.2,1.5,1.4,2.3,2
				c-1.5,1-5.1,0-5.1,2.8c0,0.2,0.2,0.5,0.7,0.5c0.3,0,0.6-0.4,0.8-0.7c2.4,0.8,4.3,1.5,6.6,1.5c1,0,1.5-0.6,2.1-0.6
				c1.7,0,3.2,0,5.2,0c1.4,0,0.7,0.9,2.3,0.9c1.6,0,5.6-1.2,5.6-2.4c0-0.6-0.8-0.5-1-0.5c-0.5,0-0.7,0-1.7,0c0-2.1,2.9-1.5,2.9-3.7
				c0-0.4-0.3,0.6-0.5-1.5c0.6,0,0.5,0,3.5,0c1.2-1,1.7-2.2,3.1-2.9c-0.4-1-1.2-0.9-2-1.4c1.3,0.1,2.2-0.9,2-0.9h-1.9
				c1.1-1,2.9-1.2,4.4-1.7c1.1-0.3,2.6,0.4,3.6-0.3c2.1-1.5,3.7-4.3,6.5-5.2c2.5-0.8,6.4-1.8,8-3.4c-1.7-0.1-4.5,0.5-5.2-0.2
				c3.7-1.8,7.1-0.6,9.9-2.6c0.5-0.3,1.7-0.1,1.7-1c0-1.3-3.7-0.9-4.5-1.7c-0.4-0.4-0.4-1-1.2-1.2c-0.5-0.1-0.8-0.3-1.3-0.6
				l-5.6,1.6c0.6-0.1,0.8,0.1,1.2-0.4c-1.4-1.4-7.4-0.8-9-0.8c-0.7,0-1.1,0-2,0c-0.6,0-1-0.9-2.1-0.9c-1,0-1.3,1-2.2,1
				c-1,0-1.4-0.7-2.6-0.7c-0.3,0-0.7,0.6-0.8,0.6c-3.6,0-4.4,0-8,0c-0.7,0-1.3,0-1.6,0.7c-0.9,0.8-0.2,0-1.4,0c-2,0-2.9,1.4-3.5,3.1
				c-0.6-0.2-3.3-1.6-4.7-1.6c-1.5,0-0.6,1.4-2.8,1.4c0,0.3-0.3,0.5-0.6,0.5c-0.1,0-0.7,0-1.5,0c-2,0-6.5,1-7,2.1c0.4,0,1.3,0,1.5,0
				C193.4,84.6,193.8,84.6,194.2,84.6z"/>
			<path class="st3" d="M330.1,131.9c-1.5-0.5-7.6-0.2-7.6-2.3c0.3-0.1,1.5-0.3,1.5-0.9c0-0.6-0.7-0.8-0.7-1.7c0.3,0.2,0.7,0,1,0
				c2.9,0,2.2,3.5,5.4,3.5c0.8,0,1.8-0.1,1.8-0.8c0-4-4-5.1-7.1-7.6v-1c0,0,0.5,0.1,1,0c0.4,1.3,2.6,3.1,3.9,3.1
				c0.8,0,1.1-0.7,1.1-1.6c0-1.9-3.1-1.7-3.8-2.8h1c0.6,0,1.3,0.7,2.1,1.2c0.6-1.5,3.3-0.7,3.8-2.8c-0.3-0.1-0.7-0.7-0.7-1.1
				c1.3-0.1,2.7-0.8,3.1-1.9c-0.8-0.3-2.8-0.2-2.8-1.4c0-0.9,1.1-0.9,2.2-0.9c-0.3-0.4,0-1,0-1.5c0-1-1-1.5-1-3c-1,0-2.2,0-2.2-1.2
				c0-0.5,0.6-1,1.4-1c1.3,0,4.9,0.6,4.9-1c0-1.7-2.7-1.3-3-2.4c0.4,0,0.9-0.2,1.3-0.4c-0.7-0.6-1.7-1.3-2.8-1.3
				c-0.8,0-1.3,0.3-2.1,0c0.4-0.7,0.3-2.4,1.2-3c1.3-1,2.8-1.5,2.8-2.9c0-0.3,0.1-0.3,0-1c1.3-0.4,3.1-0.6,3.1-1.7
				c0-0.7,0.5,0.1,0-0.9c1.3-0.3,3.1-0.3,3.1-2.2c-0.6,0.4-0.6,0.4-1.5,0c3.1,0,4.6-2,6.9-2.8c0.4-0.1,1.7-0.8,1.7-1.6
				c0-0.9-3.3-2.7-4.2-2.7c-0.7,0-1.2,0.6-1.4,0.6h-3.3c-1.1,1-1.3,0.8-2.6,1.3c-0.3,0.1-1.6-0.3-1.6-0.3s-2.9,0-4.7,0
				c-1.1,1-4.6,5.8-6.4,6.2c0.2-0.7,4.7-5.3,4.7-5.9c0-1-0.5-2-1.7-2c-2.3,0-6.4,4-8.2,4c-0.6,0,2.5-2.9,2.6-3.5
				c-1.3-0.5-12.9,0.9-14.1,0l15.3-0.8c1.9-0.7,6.6-0.3,7-2.8c-1.7-0.4-4.2,0.1-6.1-0.6c-3.3-1.4-6.3-4-10.4-4c-3.5,0-6.2,0-10.1,0
				c-3.5,0-5.9,1.9-9.2,1.9c-1,0-2.4-0.2-2.4-0.1v1.3h-2.2c-1.5,0-2.6-0.7-4.3-0.7c-2.3,0-4,0.4-5.9,1.3c0.3,0.5,0.9,0.5,1.4,1
				c-0.6,0.1-2.8-0.2-2.8,0.8c0,1.3,2.9,1.7,4,2.8h-3.1c-1.7-1-3.4-2.4-6.3-2.4c-0.7,0-1.7,0.1-1.7,0.9c0,0.6,0.3,0.5,0.6,1.5
				c0,0-0.7,0-1,0c-1.4-1-2.6-0.4-3.3-1.8l-0.7,0.7c0,0.5,0.4,0.9,0.4,1.4c-1.3,0-1.7-2.1-2.9-2.1c-1.9,0-3.3,1.1-5.2,1.6
				c-2.6,0-3.7,0.7-6.5,1c-2.2,0.3-0.3,3.5-2.8,3.5c-0.7,0-1.3-0.1-1.8-0.6c-1.4,1.4-4.5,3.1-6.9,3.8c-0.3,0.1-1.4,0.4-1.4,1
				c0,1.3,4,1.3,5.2,1.4c0,1.7-0.8,3-1.9,3.7c-1.5,0.9-4-0.1-5.9,0.5c-1.3,0.4-2.1,1.2-3.3,1.6c-1.5,0.5-4-0.3-4,1.9
				c0,1.1,6.7,3,7,3c0.9,0,1.3,0,2.4,0c0.3,0,0.6,0,0.7,0h2.8c-0.2,0-0.2,1-0.9,1h-4c-0.3,0-0.6,1-1.3,1c-0.5,0-1,0-1.7,0
				c-0.6,0-1.9,0.1-2.1,1.1c1.3,0.5,0.9-0.2,2.4-0.2c0.8,0,1.7,0.7,2.8,1.1c-0.3,0.6-0.8,0.7-1.4,1.1c0.8,1,3.1,1.6,4.5,1.6
				c0.6,0,0.5,0.2,0.9-0.2c-0.2-0.1-0.5-0.4-0.7-0.6c0.3-0.1,0.6-0.3,1.4-0.3s1.5,1,2.1,1c0.9,0,1.3-0.5,2.2-0.5c0.6,0,0.9,0,2.1,0
				c7.8,0,13.2,5.2,14.2,11.2v1c2.1,0.1,1.9,0.1,1.9,1.2c0,1.6-1.4,1.5-1.4,3c0,1,0.7,1.2,1.9,1.2c0.9,0,1.1-1.2,1.8-1.2
				c2.3,0,2.9,3.3,5.1,4c-0.1,0.4,0,1-0.7,1c-1.7,0-2.7-1-4.2-1c-0.6,0-0.6-0.3-1.2,0c0.3,1.9,5.4,2.3,7.5,3
				c-0.6,1.9-1.9,2.6-2.3,4.7c-1-0.4-1.1-0.3-2.2,0.1v0.1c-2.1,1.1-2.1,2.5-3.1,3.8v1.6c0-0.4,1.3-0.3,1.8,0c-0.2,0.7-0.5,1-0.5,1.7
				c0,1.9,2,2.6,2.4,4c0.2,0.7,0.5,2,0.7,2.3c1.2,0.6,1.6-1.1,2.6,0.2c-0.5,0.5-1,0.4-1,1.3c0,2,2.6,5.1,4,6.3
				c0.2,0.1,0.1,1.1,0.5,1.4c1.1,0.8,1.8,0.3,2.3,1.9c0.8-0.1,2-0.9,2.9-0.9c1.7,0,1.6,3.1,3.3,3.1c0.4,0,0.6-0.4,1.4-0.5
				c0.1,0.4,0.3,0.7,0.8,0.7c1.9,0,1-3.6,2.6-4.4c-0.1-0.8,0-2.6,0-3.8c0-2,3.3-1.3,3.3-3.6c0-0.8-0.8-1.1-0.8-1.6
				c0-0.3,0.3-0.6,0.5-0.8c0-0.2-0.1-0.5-0.1-0.7c0-2.3,4.2-1.7,5.6-3.1c0.6-0.6-0.3-1.3,1.8-1.7v1.7h0.2c1.5-1,3.8-0.8,5.2-2.2
				c1-1,1.1-2.5,2.4-3.5l1.7-1.8c0-0.6,0.7-1.7,1.4-1.7h3.3c2.6-1,4.7-0.4,7.2-1.2c2-0.6,2.7-2.3,5-3.1
				C328.3,132.6,329,132.8,330.1,131.9z"/>
			<path class="st3" d="M266.8,135.2h1.5c1.2,0,2.6-0.3,2.8-1.5c-1.8-0.6-2.4-2.5-4.2-2.5c-0.6,0-1.5,0.4-1.5,1.5
				C265.4,133.5,266.2,135.2,266.8,135.2z"/>
			<path class="st3" d="M337.2,111.5c-0.2,0-0.7,0.6-0.7,1s0.4,0.5,0.9,0.5c0.7,0,1.9,0.5,2.2-1.6h-1.7L337.2,111.5L337.2,111.5z"/>
			<path class="st3" d="M264.1,189.4c0-0.3-0.3-0.7-0.6-0.7c-1.1,0-1.6,1.2-2.1,2.1c-1,1.6-2.3,4.7-4.2,5.7c0.1,0.2,0.1,0.4,0.1,0.4
				v0.4c0,0.1-0.8,1-0.8,1.3c0,0.2,0.6,0.7,0.9,0.7c0.8,0,1.2-0.4,2.3-0.4c0.8,0,1.2,0.5,2.1,0.5c0.5,0,0.9-0.1,1.4-0.3
				c0.3,0.7,1.3,0.3,2,0.3c-0.2,0.4-0.8,0.1-0.8,1.1c0,0,0.3,0,0.4,0c0.8,0,1.5-1.1,2-1.9c0.6,0.6,0.1,1.9,0.7,1.9
				c0.2,0,0.3,0.1,0.6,0.1c0,0.3,0.1,0.8,0.6,0.8c0.7,0,1.1-0.8,1.1-1.7c0-0.7-0.5-0.6-0.5-1.5c-0.4,0.3-0.2,0.4-0.9,0.4
				c0-0.5-0.5-0.8-0.5-1.1s0.6-0.4,0.7-1c-0.3,0-0.6,0.1-0.8,0.2c0-1,0.1-1.7,0.1-2.3c-0.3,0.2-1,0.2-1.8,0l-0.6,0.3v-0.5h-2.1v-0.5
				l0.5-0.3c-0.3-0.3-0.4-0.4-0.8-0.4c-0.5,0-0.7,0.4-0.7,0.6V193C262.4,191.7,264.1,190.9,264.1,189.4z"/>
			<path class="st3" d="M648.6,113.6c0.7,0,1-0.6,1.5-1c0.4,0.4,0.6,0.7,1.3,0.7c0.7,0,1.1-0.6,1.5-0.6c0.6,0,0.8-0.5,1.4-0.5
				c0.5,0,0.8,0.3,1.3,0.3c0.8,0,1.2-1.1,1.7-1.1h1.9c0,0,1-0.9,1.3-1.9c-1.5-0.4-5.6-1.7-6.8-1.7c-0.8,0-1.2,0.9-1.2,2
				c-1.9,0-2-2.2-4.2-2.2c-1.5,0-3.1,1.2-3.1,2.8C645.1,112.2,646.8,113.6,648.6,113.6z"/>
			<path class="st3" d="M213.7,185.9c0.1,0,0.3,1,0.3,0c0,0-1.2-1.2-2.4-1.2c0.1,0.1,0.1,0.3,0,0.5
				C212.1,185.6,213.1,185.9,213.7,185.9z"/>
			<path class="st3" d="M123.4,194.8c1.1,0.7,3.5,2.5,5.1,2.5c0.2,0,0.5,0,0.5,0v-0.5c-1-1.8-3.4-3.5-6.4-4.4
				c-0.5-0.1-1.1-0.8-1.8-0.8c-0.3,0-0.7,0.6-0.9,0.6h0.2c0,0,0.7,0,1,0.1c-0.1,0.2-0.3,0.4-0.7,0.5c0.3,0.8,2.2,1.5,3.6,1.5
				C123.9,194.3,123.5,194.3,123.4,194.8z"/>
			<path class="st3" d="M112.9,185.3c0-0.4-0.3-0.5-0.3-0.8c0-0.7,0.1-1.1,0-1.5c-0.1,0.3-0.4,0.9-0.9,0.9c-0.4,0,0.4-0.8,0.4-0.8
				c-0.6-0.1-0.6-0.5-1.6-0.5v0.6c1,0.4,0.6,1.2,0.9,1.2c0.4,0,0.6,0.8,1.1,0.9c0,0.1-0.3,0.4-0.3,0.8c0,0.6,0.4,1.3,1,1.3
				c0.7,0-0.6-1-0.6-1.3C112.6,185.8,112.9,185.6,112.9,185.3z"/>
			<path class="st3" d="M68,173.1v0.8c1,0.3,0.8,0.4,1.4,0.9c1-0.8,1.7-1.3,2.7-2v-0.4c0,0-0.3,0-0.8,0
				C70.1,172.5,69.1,172.8,68,173.1z"/>
			<path class="st3" d="M403.8,221.7c-1-0.2-1.7,0.5-2.6,0.5c-1,0-1.3-0.9-3.3-0.2v0.5c0,0.3,1,0.3,1.2,0.3c1.1,0.3,2.1,1.5,3.3,1.8
				c0,0.2,0.4,0.3,0.6,0.3s0.4-0.3,0.4-0.5c0-0.6-0.3-0.6-0.3-1.1c0-0.3,0.4-0.8,0.4-0.8L403.8,221.7z"/>
			<path class="st3" d="M392,213.9c0.2-0.4,0.4-1.9,0.6-2.8c-0.2-0.1-0.3-0.4-0.3-0.8c-0.3,0.1-0.6,0.7-1.1,0.7
				c-0.1,0-0.3,0.1-0.5,0.1C391.1,211.8,391.3,213.8,392,213.9z"/>
			<path class="st3" d="M391,216.8c0,0.5-0.3,0.8-0.4,1.4c0,0.6,0,1.5,0.7,1.5c0.6,0,1.8-1,1.8-1.9c0-1.1,0.2-1.7-0.4-2.8
				c-0.2,0-0.4-0.4-0.9-0.4c-0.6,0-0.7,0.7-1.5,0.9C390.4,215.9,391,216.2,391,216.8z"/>
			<path class="st3" d="M380.6,218.3c0-0.2-0.3-0.6-0.3-0.8c-0.4,0.1-0.7,0.3-1.1,0.5c0.1,0.1,0.6,0.6,0.9,0.6
				C380.2,218.7,380.6,218.5,380.6,218.3z"/>
			<path class="st3" d="M395.1,179c0-0.7-0.3-1.4-0.3-1.4h-1.1c0,0,0,0.4,0,0.6c0,0.7,0,0.9,1,0.9c0,0.2,0,0.3,0,0.6
				C394.7,179.4,395.1,179.5,395.1,179z"/>
			<path class="st3" d="M396.1,179.6l-0.1-0.3c-0.1,0.1-0.3,0.2-0.3,0.4c0.1,0.1,0.5,0.4,1,0.4c1.5,0,1-2.4,2.2-2.8
				c-0.3-1.2-0.4-1.8-1.8-1.8c-0.5,0-1.3,1.8-1.3,2.1c0,0.4,0.8,1,1.5,1.1C397.1,179.1,396.6,179.6,396.1,179.6z"/>
			<path class="st3" d="M411.1,170.5c-1.2,0.1-1.6,1.3-1.6,1.7c0,0.3-0.2,0.6,0,0.9c0.5-0.6,1-1,1-1.7
				C410.5,171,410.9,170.7,411.1,170.5z"/>
			<path class="st3" d="M416.8,170.1c0.3,0,0.6-0.5,0.6-0.7c0-0.3,0-0.6,0-0.8c0-0.1,1-0.6,1.1-0.9c-0.3-0.1-0.2-0.3-0.5-0.7
				c0,0-0.5,0.4-0.5,0.7c0,0.4,0.3,0.6,0.6,0.8c-0.6,0.1-1.2,0.5-1.8,0.6C416.4,169.5,416.2,170.1,416.8,170.1z"/>
			<path class="st3" d="M425.3,228.4c-1.2-0.3-2.8-0.7-4.4-0.4c0.8,0.4,2.1,0.6,2.6,0.6C424.1,228.5,424.4,228.9,425.3,228.4z"/>
			<path class="st3" d="M441.8,227.1c-1.2,0.2-3,0.9-4,1.4c0,0.1,0.2,0.3,0.4,0.3c0,0.2,0.3,0.4,0.5,0.4c0.6,0,1.9-0.4,2.2-0.8
				c0.1-0.2-0.1-0.6,0.1-0.7C441.3,227.6,441.6,227.8,441.8,227.1z"/>
			<path class="st3" d="M479.7,277c0.6,0,1.1-0.6,1.3-0.8c-0.9,0-1.4,0.1-2,0.3C479,276.9,479.5,277,479.7,277z"/>
			<path class="st3" d="M469.2,134.3c-0.1,0-0.9,1.3-0.9,1.6c0,0.7,0.3,0.8,1.2,0.8c1.2,0,1.8-0.7,2.8-1.2v-0.9c-1-0.1-1.4-1-2.4-1
				C469.6,133.6,469.5,134.3,469.2,134.3z"/>
			<path class="st3" d="M489.1,131.4c0,0.8,1.5,1.7,2.4,1.7c0,0,0.9,0.1,0.9-0.3C492.5,131.4,489.1,130,489.1,131.4z"/>
			<path class="st3" d="M514.5,120.2c-0.7-0.6-1-1.3-1.8-1.3c-0.6,0-1.1,0.8-1.1,1.4c0,0.2,0,0.7,0,0.7
				C512.6,120.9,514.2,120.5,514.5,120.2z"/>
			<path class="st3" d="M655.7,119.7h2.1c-0.1-1-1.5-2.9-3.3-2.9c-1.6,0-2.5,0.9-3.3,2l0.3-0.3C652.8,119.1,654.4,119.7,655.7,119.7
				z"/>
			<path class="st3" d="M669.4,113.4c1.1,0,3.1-0.3,3.1-1c0-0.3-0.3-0.7-0.7-0.7c-0.3,0-7.6-0.9-8.2-1.4l0.7,0.6
				C664.4,112.6,667.6,113.4,669.4,113.4z"/>
			<path class="st3" d="M652.9,115.9c0-1-1.9-1.1-1.9,0c0,0.6,0.1,0.9,0.8,0.9C652.3,116.8,652.9,116.4,652.9,115.9z"/>
			<path class="st3" d="M251.6,195c-1.5-0.8-2.8-2.2-4.9-1.7c0.8,0.6,2.8,2.1,4,2.1C251.2,195.4,251.4,195.4,251.6,195z"/>
			<path class="st3" d="M247.3,201.1c-0.1,0.1-0.3,0.2-0.3,0.4c0,0.5,2.6,1.7,3.1,1.7c0.1,0,0.9-0.4,0.9-0.8c0-0.1,0,0.1,0,0.1h-2.2
				C248.1,202.4,247.7,201.8,247.3,201.1z"/>
			<path class="st3" d="M255.2,203.1c0-0.1,0-0.3,0-0.5c-1,0-0.5-0.4-0.5-1c0-0.3-0.3-0.4-0.4-0.7c-0.6,0.2-1.6,1.9-1.6,2.4
				c0,0.4,0.4,0.8,1,0.8C254.5,204,255.2,203.6,255.2,203.1z"/>
			<path class="st3" d="M45.3,164.9c-0.6,0-0.8-0.7-1,0.3h-1c0.1,0,0.6,0,0.8,1h2.3C46.2,165.2,46.1,164.9,45.3,164.9z"/>
		</g>
	</g>
</g>
<g id="OBJECTS">
	<g>
		<g>
			<line class="st4" x1="-0.6" y1="147.4" x2="628.2" y2="147.4"/>
			<g>
				<g>
					<rect x="469" y="146.4" class="st2" width="41.9" height="2"/>
				</g>
				<g>
					<path class="st2" d="M507.8,153.4v-11.8l8.5,5.9L507.8,153.4z"/>
				</g>
			</g>
			<g>
				<g>
					<rect x="353.8" y="146.4" class="st2" width="41.9" height="2"/>
				</g>
				<g>
					<path class="st2" d="M392.7,153.4v-11.8l8.5,5.9L392.7,153.4z"/>
				</g>
			</g>
			<line class="st4" x1="495.3" y1="146.7" x2="495.3" y2="52.3"/>
			<path class="st2" d="M495.3,61.8c6.9,0,12.5-5.6,12.5-12.5s-5.6-12.5-12.5-12.5s-12.5,5.6-12.5,12.5S488.5,61.8,495.3,61.8z"/>
			<text transform="matrix(1 0 0 1 485.8383 51.7585)" class="st5 st6 st7">2018</text>
			<line class="st4" x1="374.8" y1="146.7" x2="374.8" y2="52.3"/>
			<path class="st2" d="M374.8,61.8c6.9,0,12.5-5.6,12.5-12.5s-5.6-12.5-12.5-12.5s-12.5,5.6-12.5,12.5S367.9,61.8,374.8,61.8z"/>
			<text transform="matrix(1 0 0 1 365.2529 51.7585)" class="st5 st6 st7">2017</text>
			<line class="st4" x1="262.1" y1="146.7" x2="262.1" y2="52.3"/>
			<path class="st2" d="M262.1,61.8c6.9,0,12.5-5.6,12.5-12.5s-5.6-12.5-12.5-12.5c-6.9,0-12.5,5.6-12.5,12.5S255.2,61.8,262.1,61.8
				z"/>
			<text transform="matrix(1 0 0 1 252.5668 51.7585)" class="st5 st6 st7">2016</text>
			<path class="st2" d="M629.1,152.9c2.8,0,5.1-2.3,5.1-5.1s-2.3-5.1-5.1-5.1c-2.8,0-5.1,2.3-5.1,5.1
				C624,150.6,626.3,152.9,629.1,152.9z"/>
		</g>
		<g>
			
				<ellipse transform="matrix(0.9893 -0.1462 0.1462 0.9893 -18.2409 48.4099)" class="st2" cx="320.2" cy="148.3" rx="33.6" ry="33.6"/>
			<ellipse class="st8" cx="320.2" cy="148.3" rx="26.9" ry="26.9"/>
		</g>
		<g>
			
				<ellipse transform="matrix(0.9239 -0.3827 0.3827 0.9239 -23.6156 177.8867)" class="st2" cx="435.3" cy="148.3" rx="33.6" ry="33.6"/>
			<ellipse class="st8" cx="435.3" cy="148.3" rx="26.9" ry="26.9"/>
		</g>
		<g>
			
				<ellipse transform="matrix(0.9991 -4.271394e-02 4.271394e-02 0.9991 -5.8321 23.6508)" class="st2" cx="550.5" cy="148.3" rx="33.6" ry="33.6"/>
			
				<ellipse transform="matrix(0.9506 -0.3103 0.3103 0.9506 -18.8391 178.153)" class="st8" cx="550.5" cy="148.3" rx="26.7" ry="26.7"/>
		</g>
	</g>
	<text transform="matrix(1 0 0 1 294.4008 150.9734)" class="st2 st6 st9">Res</text>
	<text transform="matrix(1 0 0 1 312.2008 150.9734)" class="st2 st6 st9"> </text>
	<text transform="matrix(1 0 0 1 312.2008 150.9734)" class="st2 st6 st9">510/16</text>
	<text transform="matrix(1 0 0 1 410.0101 150.9734)" class="st2 st6 st9">Res</text>
	<text transform="matrix(1 0 0 1 427.8101 150.9734)" class="st2 st6 st9"> </text>
	<text transform="matrix(1 0 0 1 427.8101 150.9734)" class="st2 st6 st9">563/17</text>
	<text transform="matrix(1 0 0 1 524.6194 150.9734)" class="st2 st6 st9">Res</text>
	<text transform="matrix(1 0 0 1 542.4194 150.9734)" class="st2 st6 st9"> </text>
	<text transform="matrix(1 0 0 1 542.4194 150.9734)" class="st2 st6 st9">580/18</text>
</g>
</svg>
