<?xml version="1.0" encoding="utf-8"?>
<!-- Generator: Adobe Illustrator 22.0.1, SVG Export Plug-In . SVG Version: 6.00 Build 0)  -->
<svg version="1.1" id="Camada_1" xmlns="http://www.w3.org/2000/svg" xmlns:xlink="http://www.w3.org/1999/xlink" x="0px" y="0px"
	 viewBox="0 0 936.2 218.7" style="enable-background:new 0 0 936.2 218.7;" xml:space="preserve">
<style type="text/css">
	.st0{display:none;}
	.st1{display:inline;}
	.st2{fill:#222442;}
	.st3{opacity:0.5;fill:#373A5E;enable-background:new    ;}
	.st4{fill:none;stroke:#222442;stroke-width:2;stroke-miterlimit:10;}
	.st5{fill:#FFFFFF;}
	.st6{font-family:'Open Sans';}
	.st7{font-size:8.3821px;}
	.st8{fill:#FF9100;}
	.st9{font-size:10.1849px;}
</style>
<g id="BACKGROUND" class="st0">
	<g class="st1">
		<rect x="82.5" class="st2" width="750" height="500"/>
		<g>
			<path class="st3" d="M531.8,325.8c-0.3,0.6-0.1,1.7-0.5,2.1c-1.1,1.1-3.3,3.8-4.9,4.7c-2,1.2-4.5,1-4.5,4.4c0,1.1,1,2.9,1,3.6
				c0,0.1-1.4,3.1-1.4,3.1c-0.1,0-1.4,1.1-1.4,1.4c0,1,0,2.2,0.8,2.8c0.1,0.5-0.1,0.8-0.1,1.7c0,1.8,1.5,3.8,3.3,3.8
				c4.2,0,4.9-4.7,6.1-7.8c1.5-4,3.2-7.5,3.2-12.5c0.1,0,0.2,0.2,1.3,0.3v-1C533.7,330.5,534.1,326,531.8,325.8z"/>
			<path class="st3" d="M592.5,287.3c0,1,0.8,1.9,1.7,1.9c1.3,0,2.2-1.6,2.2-2.9c0-2.2-2-3.1-3-4.7
				C593.5,283.7,592.5,285.3,592.5,287.3z"/>
			<path class="st3" d="M644,311.5c0-0.7-0.8-1.7,0.3-1.9c0-1.5,0-2.1,0-3c0-0.7-0.9-0.9-1.3-1.3c-0.8-0.8-1.6-1.2-1.6-2.6
				c-0.8,0-1.3-0.2-1.3-1.1l0.3-0.4c-0.1-0.3-0.3-0.4-0.6-0.4c-0.2,0-0.3,0-0.6,0c0,0,0.1-0.5,0.1-0.6c0-1-1.2-1.5-2.2-1.9
				c-1.9-0.6-2.7-1.6-4-2.9c-0.7-0.7-1.2-1.6-2.2-1.9c-0.3-0.1-0.6,0-0.8-0.4c-0.6-1.1-1-2.7-2.6-2.7h-2.3c-0.6,0-0.7-2.1-1.4-2.1
				c-0.1,0-0.3,0-0.3,0v2c0,0.7,1.2,2.6,1.8,2.8c0.6,0.1,1.3,0,1.6,0.6c0.4,0.8,0.6,1.3,1,2.1c0.5,1,2.1,0.7,2.6,2.3
				c0.1,0.6,0.6,2.2,1,2.4c0.2,0.1,1,0.2,1.1,0.4c0.1,0.2,0,0.6,0.2,0.6c0.2,0,1,1.4,1.2,1.7c0.8,1.6,1.3,2.9,2.7,4.2
				c1.2,1.3,2.5,1.8,3.8,3.1c0.1,0.1,1.3,1.9,1.6,1.9C642.7,312.5,644,312.3,644,311.5z"/>
			<path class="st3" d="M650.6,299.3c0,0.3,0.7,2.8,1,2.9c0.4,0.1,0.8,0.1,0.9,0.4c0,0.1-0.1,0.3-0.1,0.3c0.9,1.4-0.2,3.8,2.4,3.8
				c0.6,0,0.9-0.4,1.5-0.3c0.1,0.3,0,1,0.1,1c0.2,0,0.4,0.3,0.6,0.3c0.8,0,1.2-0.8,1.7-0.8c1.2,0,1.9,0.8,3.1,1.1c0,0.4,0.2,1,0.9,1
				c0.9,0,1-0.8,2.2-1.1c0-0.8,0.8-1.8,0.8-2.4c0-0.3-0.3-0.5-0.3-1c0-0.4,0.7-1.5,1.5-1.6c0-1.2,0.6-1.6,0.9-3.1l0.4-0.7
				c0.2-0.1,0.5-0.1,0.7-0.1c0.8,0,1.3,0.3,1.5-0.7c-1.2,0-3.1-3.5-3.1-4.5c0-0.2,0.3-0.4,0.5-0.5c-0.1-0.2-0.2-0.4-0.3-0.6
				c0,0,1.9-0.8,2-1c-0.1,0-0.3-0.2-0.3-0.3c0-0.6,1.5-0.2,1.5-0.8c0-1.4-2.9-0.6-2.9-2c0-1,0.1-1.7-1-1.7s-2.6,2.6-3.2,3.7
				c-0.3,0.6-1.9,0.2-2.5,0.8c-0.1,0.1-0.2,0.5-0.4,0.6c-0.3,0.1-0.3,0.3-0.7,0.5c0,0-0.8,0.6-0.5,0.8c-0.6,0.6-0.6,1.3-1.6,1.5
				c-0.8,0.1-1.5,0.1-1.9,0.6c-1,1-0.7,3.1-2.9,3.1C652.1,298.6,650.6,298.1,650.6,299.3z"/>
			<path class="st3" d="M675.1,300.1c1.2,0,1.7-0.3,2.6-0.3s1.5,0.5,2.4,0.5c1.4,0,1.9-1.2,2.1-2.2c0.2,0,0.3-0.5,0.3-0.5h-0.4
				c-0.8,1-1.8,1-2.2,1h-0.6l-4.8-0.6c-1.8,0-2.6,2.4-2.6,4.1c0,0.4-0.6,0.8-0.6,1.1c-0.5,1.6-1.4,2.3-1.4,3.8
				c0,0.8,1.3,0.9,1.3,0.9c0,1.1,0,2.6,0,3.3c0,0.4,0.7,0.9,1.2,0.9c0.8,0,1.1-2.4,1.1-2.8c0-0.9-0.6-1.4-0.6-2.3
				c0-0.5,0.6-0.8,1.1-0.8c0.2,0,0.4,0.1,0.6,0l-0.3,1.5c0,0.9,1.1,1.5,1.1,2.4c0,0.2,0,0.9,0,0.9h0.9c0-2.1,1.5-0.9,1.5-1.7
				c-0.3-0.1-1-1-1-1.4c0-0.1,0.2-0.3,0.3-0.5c-0.4-0.2-1.5-2.7-1.5-3c1.9,0,1.8-1.6,3.9-2v-0.6c0-0.1-4.3,1-4.4,1.2v-0.3
				c-0.3,0.3-0.4,0.7-0.8,0.7c-1,0-1.5-1.3-1.5-2.4C672.8,299.8,673.9,300.1,675.1,300.1z"/>
			<path class="st3" d="M661.7,317.7c0.8,0,0.8,0.5,1.5,0.5c0.1,0,0.6-0.5,0.8-0.8c-0.5-0.2-0.5-0.4-1.1-0.6
				c-0.6-0.2-1.2,0.4-1.7-0.1c-0.1-0.1-0.1-0.6-0.6-0.6c-1.2,0-2.2,0.1-2.9-0.6c0.1,0.1,2.5-0.2,2.6-0.2h-0.6h-2.1
				c-1.3,0-1.7-1.4-3.1-1.4c-0.8,0-1,1-2.1,1c-2.3,0-3.2-2.3-5.3-2.3c-0.4,0-0.7,0.4-1.1,0.4c-0.2,0-0.3-0.3-0.6-0.3
				c-0.4,0-1.7,1.2-1.7,1.5c1,0,1.6,0.8,2.3,1.5s1.7,0,2.8,0.3c1.4,0.4,2.5,0.5,3.8,0.5c0.7,0,0.9,0.9,1.7,0.9c2.7,0,5.1,0.1,7.4,1
				C661.7,318.2,661.5,317.7,661.7,317.7z"/>
			<path class="st3" d="M676.3,318.2c0.9,0,1.5-0.3,2-1.2c-0.6,0.3-1,0.8-2,0.8s-1.5-0.4-2.8-0.4c-0.5,0-1.3-0.2-1.3,0.3
				c0,0.8,1,0.5,1.5,0.5C674.4,318.2,675.4,318.2,676.3,318.2z"/>
			<path class="st3" d="M668.8,317.2c0,0-0.1,0.5-0.1,0.7c-0.3-0.1-0.7-0.2-1.3-0.2s-1.2,0-1.2,0.7c0,0.3,0.8,0.5,1.4,0.5
				c0.7,0,1-0.5,1.7-0.8l0.6,0.1h1.3v-1L668.8,317.2L668.8,317.2z"/>
			<path class="st3" d="M672.8,319.3c-0.2,0-0.5,0-0.7,0c-0.5,0-1.3-0.1-1.3,0.5c0,0.7,1.1,0.7,1.8,0.7c0,0.2,0.1,0.9,0.4,0.9
				c0.1,0,0.2,0,0.3,0c0.2,0,0.6-0.3,0.6-0.5C673.8,320,672.8,319.3,672.8,319.3z"/>
			<path class="st3" d="M665.3,317.4c-0.2,0-0.4,0-0.6,0c0,0.2,0,0.5,0,0.7s0.4,0.5,0.6,0.5c0.3,0,0.6-0.3,0.7-0.7
				C665.6,317.8,665.6,317.4,665.3,317.4z"/>
			<path class="st3" d="M682.4,319.6c1.1,0,3.4-0.6,4.1-1.6c-0.6-0.4-3.7-0.1-4.4,0.6c-0.1,0.1-0.1,0.6-0.3,0.6
				c-1,0.3-2.4,0.3-2.4,1.9c0,0.3,0.2,0.6,0.5,0.6c0.8,0,2-0.8,2.3-1.2C682.4,320.3,682.1,319.6,682.4,319.6z"/>
			<path class="st3" d="M701.6,312.6c0-0.5-0.1-0.2-0.3-0.8c-0.5,0.1-0.4,0.7-0.4,1.2c0,0.4-0.7,0.5-0.7,1.2c0,0.2,0.2,0.6,0.4,0.6
				c0.6,0,0.4-0.8,0.4-1.5C701.4,313.3,701.6,313,701.6,312.6z"/>
			<path class="st3" d="M684.5,307.3c0,0.6,0.8,1.3,1.2,1.3c0.2,0,0.7-0.8,0.7-0.9C686.4,307,684.5,306.5,684.5,307.3z"/>
			<path class="st3" d="M688.1,307.5c0,0,1,0.3,1.2,0.3c0.6,0,0.9,0,1.6,0c1,0,1.5,0.5,2.4,0.5c0.1,0,0.4-0.1,0.4-0.2
				c0-0.6-0.8-0.7-0.8-1.3l-0.2,0.1c-0.4,0-0.9-0.2-1-0.2h-3.1C688.4,306.9,688.1,307.2,688.1,307.5z"/>
			<path class="st3" d="M687.8,296.3c-0.6,0.3-1.2,0.8-1.2,1.4c0,0.9,0,1.2,0,1.9c0,0.7,0,0.5,0,0.9s0.7,1.3,1.4,1.3
				c-0.3-0.5-0.3-0.8-0.3-1.2v-0.5c0,0,1.4-0.1,1.7-0.1c-0.1-0.6-0.5-0.7-0.5-1c0-0.4,0.7-0.5,0.7-0.9
				C688.4,297.8,687.9,297.2,687.8,296.3z"/>
			<path class="st3" d="M729.2,312c0.2,1,1.1,0.6,1.7,1.1c0,0,0.1,0,0.1,0.1c0.1,0,0.1,0.1,0.1,0.1l-0.1-0.1c0.3,0.2,0.8,0.5,1,0.5
				c1.5,0,2.1-0.8,3.3-1c0-1.3,1.5-1,1.5-2.4c0-0.4-0.2-1-0.6-1c-1,0-0.6,1.5-1.5,2c-0.6,0.3-1.7,0.3-2.7,0.7c0,0-0.6,0.3-0.8,0.3
				h-2V312z"/>
			<path class="st3" d="M725.7,312.5c-1.7-0.8-1.6-2.7-3.8-3.4c-0.3-0.1-0.9-0.1-0.9-0.7c-0.8,0-1.5-1-2.4-1c-1.5,0-3-0.7-5-1.5
				v-0.1h0.2c-0.1-0.1,0-0.1-0.1-0.2l0.2,0.5c-0.3-0.1-0.8-0.3-1.1-0.3h-1.9c-0.4-2.1-1-1.3-1.8-1.6c-0.2-0.1-0.8-0.1-0.8-0.5
				c-0.8,0.1-1.7,1.3-2.3,1.5c-1,0.3-1.1,0.3-1.7,0.9c-0.1,0.1-0.8,1.2-1.3,1.2c-0.4,0-1.6-1.1-1.6-1.4c-0.6,0-1.3-0.3-1.3-0.6
				c0-0.6,0-1.5,0-2.5c-2.1-0.3-1.9-1.4-3.1-1.4c-1.3,0-1.6,1.2-2.5,1.2c-0.4,0-0.9,0.2-0.9,0.6c0,1,1.7,0.6,2.2,1.5
				c0.1,0.2,0.2,0.6,0.4,0.6c0.3,0.1,0.6,0.5,1,0.5c0.8,0,1.3,0,2,0h0.5c-0.5,0-2.6,0.4-3.5,0.9c0.1,0.6,0.9,0.1,1.3,0.7
				c0.3,0.6,0,0.8,0.3,1.5c0.1,0.2-0.3,0.2-0.1,0.2c0.6,0,0.3-0.7,0.3-1.3v0.6c2.1-0.3,2.3,1.5,3.3,1.5c1.1,0,3.4,0.3,4.1,0.7
				c0.7,0.3,2.8,1.1,3.1,1.9c0.4,1,0,2,1,3c-0.4,0.2-1.7,0.5-1.7,1.3c0,0.6,0.7,0.5,1.2,0.5h1.5c0,0,0.8-0.8,1-0.8
				c1.8,0,2.3,1.8,4.1,1.8c0.8,0,1,0,2.6,0c0,0,0.6-0.3,0.3-1.2c1-0.5,0.8-1.5,2.6-1.5c2.3,0,3.5,2.1,4.9,3.5
				c0.1,0.1,0.7,0.3,0.7,0.6c0,0.8,1.6,1.8,2.6,1.8h1.8c0.1,0,1.2,1,1.3,1s0.3,0,0.4,0c0,0,0.5-0.9,0.9-1.2c-0.2-0.1-1.3,0-1.4-0.3
				c-0.1-0.3-0.3-0.7-0.7-0.9c-0.3-0.1-0.7,0.2-0.8-0.1c-0.1-0.3-0.3-0.8-0.6-0.8c-0.5,0-1.3-0.3-1.5-0.7c-0.6-0.8-0.4-1.3-1.1-2
				c-0.1-0.1-1.3-1.3-1.3-1.7c0-0.6,1.3-0.3,1.3-1.1C727.9,312,726.4,312.8,725.7,312.5z"/>
			<path class="st3" d="M737.3,307.9c-0.8-0.8-1.4-1.6-2.7-2c0.2,0.6,0.7,0.5,1.3,0.8c0.9,0.6,0.8,1.3,1.7,1.7
				c-0.1,0.7-0.1,1.2,0.7,1.3c0.1,0.1,0.3,0,0.4,0c-0.1-0.1,0-0.3,0-0.5C738.6,308.4,737.9,308.5,737.3,307.9z"/>
			<path class="st3" d="M741.7,311.6c-0.1,0.7-0.2,1.4,0.8,1.5c0,0.2,0,0.3,0,0.6c0,0.2,0.4,0.5,0.6,0.5c0.2,0,0.5-0.3,0.5-0.6
				C743.6,313.4,742.1,311.9,741.7,311.6z"/>
			<path class="st3" d="M755.3,320.9c-0.1,0.4,0.4,1.5,1.1,1.5c-0.1-0.1,0-0.3,0-0.4C756.4,321.4,755.8,321.3,755.3,320.9z"/>
			<path class="st3" d="M752.2,319.8c0,0.8,1.1,1.1,1.9,1.1c0.1,0,0.3-0.1,0.3-0.1C754,320.1,753.3,319.8,752.2,319.8z"/>
			<path class="st3" d="M752.5,317.1c0.1,0.6,1.3,2.2,2,2.2C754.2,318.3,753.5,317.7,752.5,317.1z"/>
			<path class="st3" d="M748.6,315.2l-0.1-0.1h-0.1c0,1,1.6,1.6,2.2,1.6c0.2,0,0.4-0.1,0.6-0.1C750.6,316,749.2,315.5,748.6,315.2z"
				/>
			<path class="st3" d="M745.5,313.9c0,0.1-0.3,0.1-0.3,0.1l1,0.7h0.6C746.5,314.2,746.1,314.2,745.5,313.9z"/>
			<path class="st3" d="M745.2,313.7c0.1,0.1,0.2,0.2,0.3,0.2l0,0L745.2,313.7z"/>
			<path class="st3" d="M725.1,386.5c-0.1,0-3.8-1-3.8,0c0,2.1,2.3,6.9,4.4,6.9c1.4,0,3.3-3.5,3.3-5.1c0-0.8-0.6-1.5-0.8-2.3
				C727.2,386.3,726,386.5,725.1,386.5z"/>
			<path class="st3" d="M728.6,385.7c0.1-0.3,0.2-0.5,0.2-1.2c-0.2,0.1-0.6,0.1-0.9,0C727.9,385.1,727.9,385.5,728.6,385.7z"/>
			<path class="st3" d="M705.3,375.5c0.6,0.6,1.7,0.5,2.4,0C706.7,375,706.6,374.8,705.3,375.5z"/>
			<path class="st3" d="M694.3,324.4c0.2,0,0.6,0,1.6,0v-1c-1-0.1-2,0-3.3,0.3C693,324.1,693.5,324.4,694.3,324.4z"/>
			<path class="st3" d="M737.3,351.6c-1.3-1.3-4-2.5-4-5.3c-0.9,0-2,0-2.3-0.9c-0.3-1-0.4-2.3-1.3-3.1c-1.2-1.2-4.2-1.8-4.7-3.5
				c-0.6-1.7-1.1-2.6-1.7-4.5c-0.3-1.1-0.3-3.3-1.2-3.9c-0.3-0.1-1.6-0.6-2.3-0.8c-0.8-0.6-0.4-1.8-0.7-2.8
				c-0.4-1.3-1.3-2.6-1.6-4.5c-1.2,0.6-0.9,1.5-2,2.4v6.3c0,1.6-0.7,5.7-2.9,5.7c-1.3,0-1.7-1.5-2.6-1.9c-1.7-0.7-2.8-1-4.6-1.7
				c-0.3-0.1-0.3-1.1-0.7-1.4s-1.4-0.1-1.4-0.7l0.8-3.5c0.6-0.4,1.6-0.5,1.6-1.4c0-0.6-1-1.3-1.4-1.3c-0.8,0-1,0.6-1.9,0.6
				c-2.5,0-3.9-1-6.3-2c0.1,0.8,0.8,1,1.3,1.6c-0.2,0.1-0.8,0.5-1.3,0.5c-1.2,0-4,0.6-4,1.6s-1,1.5-1,2.4c0,0.6,0.2,1.1-0.2,1.7
				c-0.1-0.1-0.7-0.6-1-0.6c-0.6,0-1.2,0.3-1.5,0.8c-0.1-1.3-0.8-2.6-2.1-2.6c-1.5,0-1.8,1.4-3.7,1.4c-0.1,1.6-1.5,1.9-1.5,3.8
				c-0.6,0-0.9-0.3-1.5-0.6c-0.4,0.8,0,1.8-0.8,2.3c-0.3-0.5-1-0.8-1.3-1.4c-0.7,0.3-1.2,1-1.2,1.7c0,0.4,0,0.8,0,1.2
				c0,2.4-5.4,4.3-7.9,4.7c-1.3,0.2-3.7,0.3-4.5,1.2c-0.8,0.8-2.3,2.5-3.6,2.6c0-0.2,0.2-0.5,0.1-0.7c-0.3,0.1-0.6,0.3-0.6,0.8
				c0,1.8,0,1.9,0,4c0,1.7,0.7,2.6,0.7,3.6c0,0.3,0.1,0.6-0.1,0.9c-0.2-0.2-0.5-0.6-0.7-0.9c-0.2,0.3-0.3,0.6-0.4,0.9
				c-0.3,1,1,1.4,1.4,2.4c0.9,2.7,1.1,3.7,1.9,6.7c0.3,1.3,1.4,2.4,1.4,4.4c0,1.6-1.6,2.1-1.6,3.1s3.3,2.4,4.5,2.4
				c3.1,0,4.2-2.3,6.6-2.3c0.8,0,0.8-0.6,1.9,0c1.5,0,2.7-0.4,4.2-0.5c0.6-3.5,4.9-2.3,8.5-3.5c1.5-0.5,2-1.6,4.5-1.6
				c2.3,0,6.4,0.7,7.5,2.1c0.6,0.8,2.1,4.2,2.6,4.2c0,0-0.3,1.3,0.6,1.3c1.5,0,3.2-3.6,4.5-4.9c0.1,1-0.3,4.7-2,5
				c0,0.3,0.3,0.7,0.7,0.7c1,0,1.1-1.3,1.7-1.5c0-0.2,0.1-0.5,0.1-0.7c0.3,0.3,0.7,0.6,0.7,1.5c0,0.7-0.3,0.6-0.5,1.6h0.8
				c0.6,0,0.9-0.3,1.4-0.6c0,0.1,0.1,0.3,0.1,0.3c0.1,0.9,1,1.7,1,2.8c0,2.9,4.4,4.6,7.2,4.6c1.7,0,1.2-1.4,2.8-1.5
				c0.1,0.4,2.8,2,3.4,2.1c0.6-3.3,7-1.9,7-5.1v0.1c0-2.4,1.5-4.6,2.1-6.3c0.7-2.2,2.2-2.9,3.4-4.9c0.3-0.6,0.7-0.8,0.7-1.4v-2
				c1-0.6,0.9-2.8,0.9-4.3c0-2.1-0.8-5.8-1.9-7.3L737.3,351.6z"/>
			<path class="st3" d="M779.3,387.7c-0.2,0-0.4-0.1-0.5-0.3c-0.3,0.1-0.7,0.6-1.2,0.6c-0.4,0-0.3-0.5-0.3-1c-0.2,0-0.5-0.2-0.5-0.7
				c-0.6,0.3-1.7,1.3-1.7,2.3c0,0.1-0.1,0.3-0.1,0.4c-0.6,0.1-1,0.2-1.3,0.8c-0.1,0.2-0.1,0.7-0.1,0.7s-1,1.5-1.3,1.7
				c-1.2,0.6-2.2,2.3-3.9,2.3c-0.5,0-0.8,0.4-1.1,0.9c-0.7,1-2.8,2-2.8,3.8c0,0.1,0.2,0.3,0.3,0.3c0,0.3,2.7,1.4,3.1,1.4
				c0.4,0,1.3,0.3,1.5,0.3c0.8,0,2-1,2.6-1.7c0,0,1.9-4,2.2-4.9c0.6,0,2.2-0.4,2.6-0.4c0.1-0.8-0.2-1.1,0-2.2c1.1,0,2.5-2.6,2.7-3.5
				C779.4,388.6,779.3,388.3,779.3,387.7z"/>
			<path class="st3" d="M787.7,379.3c-1.1,0-1,1.2-2.4,1.2c-1.7,0-2.6-1.3-2.6-2.3c-0.1,0-0.3,0-0.4,0c-0.3,0-0.6,0-0.6,0h-0.4
				c-0.4,0-1.2-2.1-1.2-2.4c0-0.2,0.2-0.4,0.3-0.6c-0.4-0.2-0.4-0.7-0.8-1.2c-0.7-0.7-1.9-0.8-2.6-2c0.4,1.7,1.4,4,3,4.2
				c-0.1,0.2,0,0.5,0,0.7c0,0.6,0.9,0.8,0.9,1.3l0,0c0,0.4,0.1,0.9,0.1,1.4c0,1-0.2,2-0.9,2.7c-0.4,0.3-1,0.4-1,1.1
				c0,1.3,2.6,0.7,2.6,2.1c0,0.8-0.8,1.2-0.8,2c0,0.6,0.4,0.9,1,0.9c1.5,0,1.9-1.4,2.6-2.4c0.1-0.2,1-0.9,1-1.4
				c0-0.2-0.3-0.5-0.3-0.7c0-0.6,0.7-0.8,1.4-0.9c0.1,0,0.1-0.2,0.2-0.2l0.3,0.3c0.7-1,0.4-2.5,1.4-3.5
				C788.1,379.5,787.9,379.3,787.7,379.3z"/>
			<path class="st3" d="M787,337v-0.8c0-0.1-0.2-0.3-0.4-0.6c-0.6,0.2-1.4,0.4-1.4,1.3c0,0.3,0.6,0.4,1.1,0.4
				C786.9,337.3,787,337.4,787,337z"/>
			<path class="st3" d="M788,334.4c0,0.2,0.1,0.6,0.3,0.6c0.7,0,1.6-0.7,1.6-0.9c0-0.2,0-0.4,0-0.6C789.9,333.5,788,333.6,788,334.4
				z"/>
			<path class="st3" d="M683.3,281.3c-0.1,0.2,0,1-0.2,1.4s-1.3,0.1-1.3,0.9c-0.4,0.1-0.6,0.4-0.6,0.8c-0.1,0-0.2,0-0.4,0
				c-0.4,0-0.3-1-1.1-1c-1.1,0-0.8,1.3-2.2,1.3c-0.1,0.6-0.4,1-0.4,1.6c0,0.2,0.2,0.4,0.2,0.6s-0.5,1.4,0,1.4c0.7,0,0.6-2,1.3-2.6
				c0,0,0.4,0.5,0.6,0.6c0.1-0.1,0.2-0.3,0.2-0.3c0.1,0.1,0.2,0.3,0.6,0.3c-0.1-0.2,0-0.4,0-0.5h0.9c0.1,0.2,0.2,0.4,0.2,0.6
				c-0.2,0.1-0.3,0.3-0.3,0.7c0,1.1,0.7,2.1,1.6,2.1c0.2,0,0.4,0.1,0.6,0c0,0.2,0.1,0.5,0.3,0.5c0.4,0,0.7-0.4,0.7-0.8
				c0-0.7-0.7-0.9-0.7-1.3s0.3-0.5,0.6-0.8c0.1,0.2,0.3,0.3,0.4,0.5v-0.1c0.1,0.3,0.6,1.4,0.8,1.4c0-1,0.8-1.4,0.8-2
				c0-0.5-1-4.1-1.5-4.6C684,281.6,683.7,281.3,683.3,281.3z"/>
			<path class="st3" d="M668.5,283.7h0.4c0.8-0.5,2-1.2,2.3-2.6c0.5,0,1-0.1,1.1-0.6c0.3,0,0.4-0.2,0.6-0.4c-0.2-0.2-0.6-0.4-0.6-1
				c-0.2,0.2-0.2,0.5-0.3,0.8C671.3,281.2,669.1,281.9,668.5,283.7z"/>
			<path class="st3" d="M672,270.9c0,0.4,1.1,1.1,1.4,1.1c0.2,0,0.3-0.2,0.5-0.4h0.4v0.6c-0.1,0.1-0.4,0.3-0.4,0.7
				c0,0.3,0.5,0.9,0.9,0.9s0.6-0.4,1-0.4c0.9,0,0.9,1.3,1.8,1.4c-0.2-0.5-0.4-0.7,0-1.1c0.4,0.5,1.9,1.1,2.3,1.9
				c0.1,0.2,0.1,0.5,0.3,0.5c0.1,0,0.3-0.2,0.3-0.4c0-0.2,0-0.3,0-0.5c-0.4,0-0.8-0.3-0.8-0.7c-0.1,0.1-0.4,0.1-0.4,0
				c0-0.3,0.3-0.4,0.4-0.7c-0.1,0-0.2-0.1-0.4-0.1c-0.3,0-0.3,0.4-0.6,0.4c-0.4,0-0.6-1.4-1.3-1.4c-0.4,0-0.7,0.2-0.7,0.5
				c0,0.1,0,0.2,0,0.3c-0.7-0.3-1.6-1.8-1.5-2.7c0-1.3,1.2-1.4,1.2-2.7c0-1-0.8-1.9-0.8-2.7c0-0.1-0.1-0.3-0.1-0.4s-0.1-0.2-0.1-0.3
				c-0.3,0.1-0.5,0.6-0.8,0.6c-0.6,0-0.4-1.1-1.1-1.1c-0.5,0-0.6,0.6-0.7,1.2c0,0.7,0.3,1.2,0.3,1.9c0,0.5-0.1,1.4-0.4,1.8
				C671.8,268.7,672,269.9,672,270.9z"/>
			<path class="st3" d="M682.6,276.4c-0.5,0-0.9-0.3-1.4-0.3c-0.2,0-0.4,0.2-0.6,0.2c0.1,0.5,1.5,0.9,1.5,1.8c0,0.1-0.2,0.4-0.3,0.4
				s-0.5,0-0.8,0v0.4c0.1,0.2,0.5,0.8,0.9,0.8v0.4c-0.3,0.4-0.1,0.8,0.3,0.9c0.2,0,0.4,0,0.6,0v-0.4c-0.3-0.1-0.5-0.7-0.5-1.2h0.9
				c0.1-0.2,0.2-0.4,0.3-0.8c-0.1,0-0.5-0.6-0.5-0.6s0.1-0.6,0-1c-0.1,0-0.3,0-0.4,0C682.7,276.8,682.6,276.5,682.6,276.4z"/>
			<path class="st3" d="M677.2,277.5c-0.1-0.1-0.2-0.2-0.3-0.2s-0.4,0.2-0.4,0.3c0,0.5,0.2,1.7,0.2,2.7c0.6-0.4,2-0.9,2.1-1.9
				C678.8,278,677.7,277.8,677.2,277.5z"/>
			<path class="st3" d="M679.1,279.3c-0.3,0.1-0.7,1.6-0.7,1.7c-0.2,0-0.6,0.2-0.6,0.4c0,0.4,1.1,1.6,1.4,1.6c0.1,0,0.4-0.2,0.4-0.3
				c0-0.4-0.3-0.2-0.3-0.8c0-0.7,0.7-1.2,0.7-1.9C680,279.6,679.7,279.1,679.1,279.3z"/>
			<path class="st3" d="M679.7,282c0.1,0,0.3,0,0.3,0c0-1,0.8-1.4,0.9-2.5c-0.2,0-0.4,0.1-0.6,0.1C680.3,280.8,679.9,281,679.7,282z
				"/>
			<path class="st3" d="M681.6,280.9c-0.2,0.2-0.5,0.1-0.8,0c-0.2,0.4-0.6,0.5-0.6,0.9c0,0.1,0.2,0.3,0.4,0.3
				C681.2,282.1,681.6,281.6,681.6,280.9z"/>
			<path class="st3" d="M680.3,277.6c0-0.8-0.8-1-1-1.5h-0.6c0,0.2,0,0.5,0,0.9c0.3,0,0.6,0,0.9,0
				C679.6,277.3,680.3,277.9,680.3,277.6z"/>
			<path class="st3" d="M675.2,276.5c0.3,0,0.6-0.7,0.5-1.2c-0.2-0.7-0.9-0.6-1.6-1.1h-0.6C673.4,274.1,674.9,276.5,675.2,276.5z"/>
			<path class="st3" d="M675.9,274.5c0.1,0.1,0.5,0.1,0.6,0C676.4,274.4,676,274.5,675.9,274.5z"/>
			<path class="st3" d="M675,249.4c-1,0-2.4,2.7-2.4,4.2c0,1-0.2,1.9,1,1.9C675.2,255.5,676.7,249.4,675,249.4z"/>
			<path class="st3" d="M654.5,261.2c0-0.4-0.7-1-1-1c-0.9,0-3,1.7-4,1.7c0,0,0,0.6,0,1c0,0.9,0.7,1.4,1.7,1.4
				C652.2,264.3,654.5,262.2,654.5,261.2z"/>
			<path class="st3" d="M644.6,305.3c0.1,0.2,0.3,1.1,0.5,1.1c0.3,0,0.5,0.5,0.9,0.5c0.1,0,0.3,0,0.5,0c-0.1,0-0.1-0.6-0.1-0.8
				c-1,0-1.4-1.4-1.7-2.4c-0.5,0.1-1.5,0.5-1.5,0.9C643.2,305.1,644.3,304.7,644.6,305.3z"/>
			<path class="st3" d="M648.8,307.1c0.4,0,0.7-0.4,0.8-0.8c-0.2-0.1-0.4-0.3-0.6-0.3c-0.2,0-0.5,0-0.7,0c-0.1,0,0,0.3,0,0.3
				C648.2,306.6,648.4,307.1,648.8,307.1z"/>
			<path class="st3" d="M631.2,303.1h-1c0,0,0-0.1,0,0c0,0.5,1.1,1.6,1.5,1.7C631.8,304.1,631.2,303.7,631.2,303.1
				C631.2,303.2,631.2,303.1,631.2,303.1z"/>
			<path class="st3" d="M628.4,298.6l-0.3,0.1h0.1c0.1,0.4,1,1.5,1.3,1.5C629.9,300.3,628.8,298.9,628.4,298.6z"/>
			<path class="st3" d="M691.6,232.5c0,0.3,0.3,0.8,0.7,0.8c0.2,0,0.5-0.3,0.8-0.3c-0.1-0.2,0-0.4,0-0.6c0.1,0.3,0.1,0.8,0.6,0.9
				l-0.3,1c0,0-1.1,1-1.1,1.1c0,0.3,0.6,1.1,0.6,1.1V236c0,0.2,0.4,0.6,0.6,0.6c1,0,1.7-2.2,1.9-3.4c0.2,0.1,0.5,0,0.7,0
				c-0.1-0.2,0-0.5,0-0.7l-0.6-0.6c-0.2,0-0.1-0.5-0.1-0.7c-0.8,0-1.2-0.6-1.8-0.6C693.5,230.8,691.6,232.1,691.6,232.5z"/>
			<path class="st3" d="M698,233c0.9,0,0.8-1.1,1.4-1.7c0.2,0.1,0.8,0.5,0.8,0.5c1,0,2.1-2.4,0-2.4c0,0-0.9,1.2-2.1,0.8
				c0,0.1-1.2,1-1.2,1c0,0.3,0.2,0.5,0.6,0.8C697.4,232.4,697.6,233,698,233z"/>
			<path class="st3" d="M705.5,224.3c-0.6,0-1,1.9-2.2,1.9c-1.6,0-2.2,0-4.3,0c-1.8,0-2.4,2-3.9,3c-0.3,0.1-0.9,0.4-0.9,0.6
				c0,0.3,0.5,0.3,1,0.3c1.5,0,2.7-0.5,3.6-0.9c0.6-0.3,1,0.1,1.5-0.2c0.2-0.1,0.3-0.5,0.7-0.5c0.8,0,0.9,0.4,1.8,0.6
				c0,0.3-0.5,0.8-0.5,1.2c0,0.2,0,0.6,0,0.6c1,0,0.7,0.6,1.3,0.7c0.4-0.7,1.3-1.8,1.8-1.8c0.2,0,0.6,0,0.8-0.1
				c-0.1,0-0.7-0.8-0.7-1.1c0-0.2,0.2-0.6,0.4-0.6c0.6,0,0.6,1.2,2,1.2c0.6,0,1,0.2,1.4-0.9h0.7c0,1,0.2,0.4,0.3,0.4
				c0.3-1,0.9-1,1.9-1.7c-0.1,0.5-0.3,0.6-0.1,1.1c0.8-0.3,0.8-1,1.7-1.4c-0.1-0.4-0.3-0.7-0.3-1.3c0-0.9,0.8-1.3,0.8-1.9
				c0-0.8-0.1-2.9,0.6-3.1c0.2-0.1,0.8,0.1,0.8-0.1c0-0.1,0-0.3,0-0.4c0-0.9,0.8-1,0.8-2.2c0-1-1-1.5-1-2.4c0-0.5,0-0.9-0.2-1.4
				c-0.1-0.2-0.4-0.4-0.9-0.4c-0.2,0-0.1,0.6,0.1,0.6c0.1,0,0.1,0.1,0.2,0.1c-0.8,0.7-0.8-0.2-0.9-0.2c-0.9,0-1.6,1.7-1.6,2.6
				c0,0.4,0.3,0.4,0.3,0.8c0,2.2-2.4,5.1-3.8,5.6c-0.8,0.3-1,1-2,1c-0.1,0-0.3-0.2-0.3-0.3c0-0.3,0.1-0.7,0.3-0.9
				C706.4,222.8,705.5,224.3,705.5,224.3z"/>
			<path class="st3" d="M712.5,209.1c0,0.5-0.8,1-0.8,1.7c0,0.3,0.8,0.4,0.8,0.7c0,0.1,0,1.3,0,1.3h0.3c0.6,0,1.1-0.1,1.7-0.9
				c-0.3-0.3-1.3-0.2-1.3-0.9c0-1.2,1.2-0.4,2.1-0.4c0-0.2,0.3-0.5,0.5-0.5c1.2,0.8,1.9,0.9,3,1.6c0.6-0.8,1-2.4,2.5-2.4
				c1,0,1.5-0.2,2.2-0.6c-0.3-0.1-0.8-0.5-0.8-0.9c0-0.3,0.3-0.5,0.4-0.8c-0.4-0.3-0.9,0.1-1.5,0.1c-2.7,0-3.5-2.2-5.4-3.5
				c-0.1,0.2-0.4,0.4-0.4,0.9c0,0.3,0.3,0.4,0.3,0.7c0,0.9-0.5,3.6-1.7,3.6c-0.2,0-0.5,0.1-0.7,0l-0.3,0.1c-0.2-0.1-0.9-0.2-0.9-0.3
				L712.5,209.1z"/>
			<path class="st3" d="M723.3,207c-0.1,0.2-0.2,0.6,0,0.6c0.6,0,1.5-1,1.7-1.5l-0.2-0.2C724.3,206,723.6,206.6,723.3,207z"/>
			<path class="st3" d="M724.7,205.9l0.1,0.1h0.1L724.7,205.9z"/>
			<path class="st3" d="M728.7,203.5c-0.8,0-1.7,1.4-1.7,1.4c0,0.1,0,0.4,0,0.4c1,0,1-1.4,2.1-1.4v-0.4
				C729.1,203.5,729.2,203.5,728.7,203.5z"/>
			<path class="st3" d="M731.9,202.7c0.6,0,1.1-1,1.2-1.4c-0.1,0-1,0-1.1,0.4c-0.1,0.2,0.1,0.6-0.1,0.6
				C731.8,202.3,731.8,202.7,731.9,202.7z"/>
			<path class="st3" d="M718.6,183.6c-0.3-0.9-0.8-1.9-0.8-2.9c-0.1,0-0.2,0-0.2,0s0,0.2,0,0.9c0,0.3-0.4,0.5-0.4,0.9
				c-1,0.2-1.5,2.1-1.5,3.5c0,1,1,1.5,1,2.5c0,1.7,0,2.3,0,4.1c0,0.8-0.3,1.1-0.3,2.2c0,0.8,0.5,1,0.5,1.9c0,1-0.2,1.9-0.2,3.1
				c0,0.3,0,2,0,2c1,0,0.6-1.5,1.5-1.5c0.2,0,0.5,0,0.7,0c0.1,0,0.4,0.8,0.7,0.7c0.1,0,0.2-0.1,0.2-0.1c-0.6-1.2-2-2-2-3.5
				c0-1.8,0.2-4,2.1-4c0.6,0,1.1,0.4,1.5,0.9c-0.4-1.7-1.4-3.1-2-4.8c-0.1-0.4-0.6-1.2-0.6-1.9V186
				C717.7,185,718.9,184.6,718.6,183.6z"/>
			<path class="st3" d="M548.4,129.7C548.4,129.7,548.4,129.8,548.4,129.7c0.1,0.2,0.2,0.2,0.3,0.3L548.4,129.7z"/>
			<path class="st3" d="M537.9,127.2c0,0,1.9-0.1,2.1,0c1.2,0.3,0.6,1.5,1,2.4c0.1,0.3,1.3,0,1.7,0c0.2,0,0.3,0.5,0.5,0.5h5.4
				c-0.1,0-0.2-0.2-0.2-0.3c-1.5-1.4-3.8-2-3.8-4.5c0-4.4,4.8-9.1,8.3-10.1c1.2-0.3,1.6-1.9,3.3-1.9c0.8,0,1.1-1.4,1.5-1.6
				c2.3-1.1,4-0.6,6.5-1.7c1.7-0.8,7.1-1.3,7.1-3.6c0-0.8-1.9-1.7-2.8-1.7c-3.5,0-6.7,4-10.4,4c-0.8,0-1.3-0.8-2.1-0.8
				c-1.3,0-1.3,0.8-2.2,0.8c-2.6,0-4.5,3.3-6.3,3.3c-1,0-1.7,0.5-2.8,0.5c-0.5,0-0.7,0.4-0.7,0.7c0,0.4,0.5,0.7,0.5,1.3
				c0,1.9-3.6,3-3.6,4.2c0,0.6,1,0.7,1.1,1.5c-1.1,0.3-3.3,0.8-3.3,1.9c0,0.8,0,1,0,1c0,1.3-2.2,1.1-2.2,2.8
				C536.7,126.6,537.9,127.2,537.9,127.2z"/>
			<path class="st3" d="M547.9,129.3l0.4,0.4C548.2,129.5,548.1,129.4,547.9,129.3z"/>
			<path class="st3" d="M541.9,224.1c-1,0.2-2.2,0.4-3.4,0.4c-0.9,0-2.7,0.1-3.3-0.4c-0.4-0.4-0.6-1.1-1.2-1.3
				c-0.8-0.1-1.7,0.3-2-0.5c-0.4-0.8,0.2-1.4-0.4-2.2c-0.3-0.6-0.9-0.5-0.9-1.2l1,0.1c0.8-1.1,0.8-2.8,1.9-3.3
				c-1.9-1-4.7-5.2-4.7-7.6c0-0.7-1.5-1.7-1.5-2.8c0-0.3,1.3-2.9,1.7-3.3c0.3,0.2,2.4-1,2.6-1c1.8-0.7,2.9-1.2,5.2-1.2
				c3.8,0,4.4,1.8,5.8,3.9c-1,0.8-2.4,0.1-3.7,0.1c-1.9,0-4.7,1.8-4.9,1.7c0.1,1.4,1.2,1.3,1.6,2.1c1.3,2.3,3.2,3.2,3.2,5.9
				c0.6-0.3,1.9-1.1,2.4-1.2c0.1,1,1.2,1.4,1.2,2.5h-2.1c-0.6,0-1.3,0.9-1.4,1.9c1.5,0.2,2.4,1.7,2.4,3c0,0.8-0.4,1-0.4,1.6
				s0.8,1.4,0.8,1.5C541.9,223.4,541.9,223.5,541.9,224.1L541.9,224.1z M558.7,227.5c-0.7,0-1-0.6-1.7-0.6c-0.2,0-0.2,0.3-0.3,0.4
				c-0.2-0.4-0.2-0.8-0.2-1.4c0,0.4,0.1,0.8,0.2,1.2C557.4,226.3,558,227.5,558.7,227.5L558.7,227.5z M504.1,240.1L504.1,240.1
				L504.1,240.1L504.1,240.1L504.1,240.1z M475.2,180.2c0.1,0,0.2,0,0.2,0C475.3,180.2,475.3,180.2,475.2,180.2L475.2,180.2z
				 M796.7,138c-5.5-3.2-12.8-6.6-20.9-6.6c-2.2,0-3.8,0.5-3.5,1.4c2.1,6.8-3.2-0.1-4.5,0l-16-0.3c-0.9-3.6-3.3-4.9-8-4.9
				c-2.6,0-6.5,1-8-0.3c-1.4-1.2-1.5-2.9-3.5-3.5c-4.2-1.4-8.8-2.9-14.3-2.9c-5.4,0-6.2,3-6.6,5.1c-5.1,0-7.6,0-11.1,0
				c-2,0-2.2-1.1-4.5-1.3c-0.2,1-0.6,3.4-1.7,3.4c-2.9,0-4.2-3.5-4.2-5.4c0-0.5,5.6-3.7-8.7-4.9c-1.8-0.2-2.8,1-2.8,3.1h-7.6
				c-2.3-1-14.3-2.3-15.9-4.8c-9.1,7.4-7.1,2.8-7.1,2.8c2.2-2.7,23.2-9.4,5.9-12.5h-7.3c-0.7-2.1-2.2-4-5.2-4c-3.6,0-5.1,2.6-7,4.1
				c-1.4,1-10.4,4.6-9.6,1.4c-2.3,0.7-12.1,1.3-17.2,5.9c-1.1,1-1.4,3.8-3,3.8c-2.3,0-10.9-0.8-10.9,3.1c0,0.8,0.8,1.7,1,2.8
				c-1.5,1-2.1,0-6.9,0c-4.1,5.5-3.8-0.8-4.7-2.1c-0.3,2.2-1.8,3.2-3.6,4.2c0.6,2,3.5,4,1.4,6.3c-1.5,1.6,2.8,6.8,0.6,6.8
				c-2.9,0-3.7-10.5-3.7-12.7c0-2.4,3.9-3.3-2.1-4.5c-3-0.6-8.7,4.3-8.7,7c0,3.2,1.5,5.3,3.1,7c3.9,6.1-5.4-0.7-8.8-1.6
				c-9.5-2.5-6.5,0.8-6.5,1.2c-0.3,5.4-2.6,1-3.8,1c-2.2,0-6.6,2.9-9.7,1.4c-1.6-4.1-12,5.2-14.6,5.2c-0.8,0-2-0.6-1.7-1.4
				c1.1-2.8-0.5-8.9-3.5,0.3c-0.2,0.6,1,0.8,1,2.1c0,2.4-3.6,0.8-5.5,1.4c-1.9,0.6-0.7,7.3-9,3.8v2.8c-3.1-0.4-3.5-4.6-4.9-6.6
				c3,0,4.6-0.1,7.5,0.7c3.9,1,11.6-3.8-0.2-7.6c-3.4-1.1-10.9-4.9-13.2-4.9c-0.2,0-0.3-0.3-1.9-0.1c-0.2,0-1.7-0.2-2.3-0.3
				c0-0.4-0.5-0.5-1.2-1c1.6-0.6,2.2,0,2.8-1.7c-0.6-0.3-2.1-1.1-2.4-1.1c-0.6,0-0.8,0.5-1,1c-0.8-0.1-0.6-0.7-0.7-1.6
				c-1.1,0.7-1.7,1-2.6,1.9c-0.1-0.4-0.1-0.8-0.3-1.3c-1.2,0.6-1.6,2.2-3,2.1c0.3-1,1.5-1.3,1.5-2.2s-2.6,0.8-3.7,0.8
				c-0.6,0-1-0.6-1.5-1c-0.2,0.4-1.5,0.7-1.5,1c0,0.5,1,0.6,1.6,0.8c-1.3,0.7-2.8,0.3-2.8,1.9v-1.2c-3.1,0.1-3.1,1.7-3.1,1.9v-0.8
				c-1,0.2-2.5,0.1-3.2,0.8c0.3,0.3,0.1,0.2,0.4,0.6c-0.5,0.3-1,0.1-1.5,0.1c-0.7,0-1.3,0.6-1.6,1.1c0.6-0.1,0.6,0,1.1,0.1
				c-0.1,0.1-0.9,1.7-1.3,1.7c-0.9,0-1.2-0.7-2.3-0.7c0.2-0.5,0.1-0.8-0.2-1.3c-0.2,0.2-0.4,0.5-0.6,0.9c-0.2,0-0.3-0.2-0.6-0.2
				c-0.6,0-0.9,0.4-1,1.1c0,0,0.7,0.2,1,0.2c-0.3,0.1-1,0.5-1.4,1c1.7,0,2.4-0.9,4.1-1.3c-0.3,1.5-2.3,3.8-3.8,4.4
				c-1.5,0.6-2.4,1.5-3.3,2.9c0,0.1-0.7,1.6-0.7,1.6c-0.6,0-0.4,2.2-1.3,2.8c-2.1,1.7-3.3,4.1-6.3,4.9c0.6,0.1,0.9,0.3,1.7,0.5
				c-2.5-0.3-2.8,1.4-4,1.7c-1.5,0.4-2.3,1.3-3.1,2.4c-0.4,0.6-1.5,0.6-1.5,1.6c0,1.9,0.1,3.7,1.2,4.9c-0.4,0.5-0.8,1.3-0.8,1.8
				c0.8-0.3,1.1-0.3,2.1-0.3v1c-1,0.1-1.5,0.5-1.5,1c0,0.3,2.6,1.9,3,1.9c2.9,0,5.1-2.6,6.5-4.7c0.5,0.7,0.6,1.2,1.3,1.7
				c-0.1,0.3-0.4,0.7-0.4,1c0,1.3,1,1.5,1.4,2.6c0.5,1.5,0.3,2.5,1.5,3.7c0,0.2-0.1,0.5-0.1,0.7c0,0.3,1,3.6,1.5,3.6
				c1.7,0,2.2-1.9,3.3-1.9c0.6,0,0.9,0,1.9,0c0.2-2.1,1.9-1.8,2.1-3.7c-0.4-0.1-1-0.5-1-1.4c0-1.5,0.6-3.6,1.9-3.6
				c0.7,0,2.8-1.8,2.8-2.8c0-1.3-1.8-2.6-3.1-2.8c0-0.5-0.5-1-0.5-1.3v-1.4c0-0.5,0.3-1.8,0.9-2.8c0.7-1.3,1.9-1.5,3.1-2.2
				c1.5-0.8,4.6-2.2,4.6-3.8c0.2-0.4,0-0.8,0-1.6c0-1.9,1.9-2.8,4.2-2.8c1.7,0,4,0.3,4,2.1c0,1.2-1.7,1.5-2.6,2.1
				c-1.8,1-3.3,4.9-6.3,4.9c0.1,0.5,0,0.9,0,1.4c0,0.8,0.6,2.4,1.3,2.6c-0.2,0.3-1,0.8-1,1.5c0,1.5,1.5,2.4,3,2.4
				c0,0.8,0.6,0.9,1.5,0.9c1.2,0,2.8-0.6,4.2-1c1.3,0.2,4.5,0,5.2-1.4c0.6,0.8,1.3,1.1,1.7,2.4c-0.8,0.6-2.9,1.5-3.8,1.5
				c-1.2,0-1.9-0.5-3.5-0.5c-1.5,0-5,1.4-4,2.4c3.5,3.3,1.7,4.5,0.8,4.5c-1.4,0-1.6-1.7-2.8-1.7c-1.3,0-2.8,3.2-2.8,4.9
				c0,2.7-2.2,2.3-2.4,4.8c-0.8,0.1-1.7,0.2-2.5,0.2c0-0.1,0.1-0.5,0.3-0.8c-0.5-0.2-1.5-0.3-2.4-0.3c-0.8,0-1.9,1-2.6,1.3
				c-1,0.5-1.9,0.3-3.1,0.8c-0.4,0.1-0.4,0.6-1.2,0.6c0,0-1.2-0.8-1.2-1s0.3-0.4,0.4-0.8c-1.6-0.2-2.9,1.4-4.8,1.4
				c-0.2,0-0.4-0.5-0.5-0.8c-0.6,0-0.9-0.3-1.7-0.3c0.1-0.2,0-0.3,0-0.8c-0.4-0.1-0.8-0.6-0.8-1.3c0-1.2,0.7-1.9,1.3-2.6
				c0.2-0.2,0.7-0.4,0.7-0.7c0-0.2,0-0.4,0-0.6c0,0-0.9-0.1-0.9-0.8s-1.2-1.1,0.9-1.8v-0.8c-3.1,1.3-4.7,1.5-4.7,4.4
				c0,1.7,1,2.2,1.3,4.1c0,0.1,0.4,1.4,0.4,1.7c0,0.6-1.1,1.2-1.6,1.2c-0.6,0-1.3-0.4-1.8,0.1c-0.1,0.1-0.4,0.7-0.6,0.5
				c-0.5,0.2-0.1,0-1,0c-1.6,0-2.6,1.1-3.6,2.1c-0.1,0.1-0.7,0.5-0.7,0.8c0,0.8,0.2,1.7-0.3,2.2c-0.3,0.3-3.1,1.4-3.5,1.5
				c-0.3,0.1-0.6,0.1-1,0.1c-0.4,1.7-1,3.2-3.1,3.2c-0.1,0.6-0.6,0.8-1.2,0.8c-0.8,0-1.5-1.1-2.1-1.1h-0.5v1c0,0.2,0,1.3,0,1.4v0.5
				c0,0.1-1,0.3-1.5,0.3c-0.6,0-1.6-0.3-1.8-0.7c-0.7,0.2-2.6,0.6-2.6,1.3c0,0.1,0,0.3,0.1,0.3c0,1,3.1,1.6,4.2,2
				c0.3,0.1,0.4,0.4,0.8,0.5c0,1.1,0.4,2.4,1.8,2.4c0,0.6,0.4,0.4,0.4,1c0,0.3-0.1,0.8-0.3,1l0.1-0.1c0,0.4,0.1,1.6,0.1,1.9
				c0,1.3-0.9,1.7-0.9,3.1c-0.2,0-1.3,0.1-1.7,0.1c-0.7,0-1.1-0.5-1.9-0.5h-3.3c-0.3,0-0.9,0-1.2,0H421c-0.4,0-0.8-0.3-1-0.3
				c-0.4,0-2.8,1.5-2.8,1.9c0,0.6,0.8,1.6,0.8,2.6c0,1.8-0.6,3.6-0.6,5.4c0,0.5-0.8,0.7-0.8,1.6c0,0.6,0,1,1,1c0,0.8,0,1.3,0,2.8
				c0,0.2,0.2,0.6,0.6,0.6c1,0,1.9-0.5,3-0.5c1.6,0,1.7,2.6,2.7,2.6c1.5,0,2.3-1.4,4-1.4c0.3,0,2-0.3,2-0.1V224
				c2.1,0.4,1.7-1.3,2.5-1.7c1.5-0.7,1.9-1.5,2.9-2.9c-0.3-0.1-0.7-0.3-0.7-0.9c0-1.5,2-4.4,3.3-4.7c1.5-0.3,3-0.8,3.4-2.2l-0.4-1.5
				c0-1,1.1-1.7,2.2-1.7c1.4,0,2.4,0.8,3.9,0.8s2.4-1.2,3.8-1.9c0.6-0.3,0.7-1.2,1.9-1.2c2.6,0,3.1,2.8,4.3,4.4
				c0.1,0.5,1.2,0.8,1.7,1.3c1.2,1.2,1.7,1.8,3.8,2.3c0,0.4,1,0.7,1.3,0.7c0.1,0.4,1.7,2.1,1.9,2.1c0.1,0.6,0.7,0.9,0.7,1.9
				c0,0.8-0.3,1.9-1.2,1.9c0,0.3,0.3,0.5,0.8,0.5c1,0,0.8-1.5,1.5-2.1c0,0,0.9,0,0.9-0.3c0-0.9-1.3-1.1-1.3-2c0-0.7,0.7-1.1,1.5-1.1
				c1.1,0,1.5,0.9,2.2,1c0.2-1.5-1.5-2-2.9-2.7c-0.4-0.2-2.1-0.6-1.8-1.4c0.1-0.1,0.1-0.3,0.1-0.6c-1,0-1.7,0.4-2.8-0.1
				c-0.6-0.3-1-1.4-1.3-2.4c-0.2-0.6-0.8-1.8-1.8-2.2c-0.8-0.3-1.5-0.7-1.5-1.7c0-0.4,0.1-0.8,0.3-1.3c-0.1,0-0.4-0.3-0.4-0.4
				c0-0.8,1.5-0.5,2.3-1c0.4,0.4,0,2.1,0.9,2.1c0.8,0,1.3,0,2.1,0c0,1,1.7,3.1,3.3,3.1c0.3,0,0.6,0,1,0c0,1,1.3,1.2,2.2,1.7
				c1,0.5,2.7,2.2,2.7,3.1c0,0.6,0,1,0,1.8c0,1.5,1,2.1,1.8,2.9c0.6,0.6,1.1,0.6,1.4,1.6c0,0.1,0.1,0.2,0.3,0.2c0.4,0,0.8,0,1.2,0
				c-0.2,2.1-0.9,1-0.9,1.4c0,1.2,1,2.7,2.1,2.7c0.1,0,0.6,0,1,0c-0.7,0-0.1-1-0.1-1.4c0-0.6-0.5-0.6-0.5-1v-0.6
				c0,0.4,1.3,0.9,2,0.9h0.1c0.1,0,0.8-0.1,1.2-0.3c-0.1-0.1-0.3-0.4-0.3-0.6c-0.6,0-2.4-1.7-2.4-1.9s0.2-0.4,0.3-0.8l-1.3-1.5
				c0-0.3,0.4-0.8,0.8-0.8c0.6,0,0.8,1,1.8,1c0.1-0.6,0.1-1,0-1.5c0.9-0.3,1.2-0.9,2.3-0.9c1.3,0,1.9,1.4,2.9,1.4
				c0.9,0,1.1-0.9,2-1.3c0.6-0.3,1.1,0,1.7-0.2c0.3-0.1,0.6,0,0.9-0.3c-0.4-0.6-1.9-1.6-1.9-3c0-1,2.3-2.4,2.3-3.1v-1.8
				c0-0.4-0.2,0.1,0.1-1c0-0.7,0.6-1,1.3-1.2c-0.1-0.3-0.1-0.7-0.2-1c1.5-0.4,1.6-2.2,3.2-2.2c1.3,0,4.4,5.2,5.4,5.2
				s4.3-1.5,4.9-2.2c-0.1,0-2-0.3-2-0.3c-0.3,0-1.2-0.2-1.2-1c0-0.6,5.1-2.4,7-3.1c0,0-0.9,1-1.3,1.2c0.1,0.4,2,2.3-2.1,3.3
				c1.7,4.1,9.7,3.4,9.7,8.9h0.3c0.2-0.1,0.4,0,0.7-0.1c-1.6,0.4-2.4,1.9-4.1,1.9c-0.7,0-1.9,0-4,0c-0.8,0-3.5-0.7-3.5-1.5
				c-1.6,0-1.5-1.1-3.4-1.1c-1.2,0-3.1-0.2-4,0.4c-0.8,0.5-2,1.2-2.9,1.2c0,0-1.3,0-2.2,0c-0.4,0-1.7-0.1-1.7,0.5
				c0,0.5,0.4,0.4,0.6,0.9c-1.3,0.6-6.3,0.3-6.3,2.4c0,0.4,0.7,0.4,1.2,0.4c-0.1,0.3,0,0.4,0,0.8c0,1.3-0.8,1.2-1.5,1.9
				c1,0.5,1.7,0.4,2.4,1.3c-0.7,0.7,1.3,1.5,1.7,1.9c-0.1,0.1-0.4,0.1-0.6,0.1h0.8c1.3,0,2,1.5,3.3,1.5s1-1.5,2.4-1.5
				c1.5,0,2,1.8,3.5,1.8c2,0,2.4-0.9,3.5-1.7c0.3,0.3,0.5,0.6,1.2,0.6c0.6,0,1.1-0.4,1.1-0.6v0.7c0,0.1-0.3,0.3-0.3,0.7
				c0,0.8,0.5,1.8,0.5,3c0,1.6-1.3,1.9-1.7,3.3c-0.4,1.4-0.6,2.2-1.1,3.7c-0.1,0.3-0.6,0.3-0.6,0.8l0.5,1.1
				c-0.1-0.2-0.2-0.4-0.3-0.7c-0.9,0.2-0.9,0.6-1.9,0.6c-1.5,0-2.3-0.9-3.6-0.9c-2.2,0-2.9,1-5.1,1c-2.4,0-5.6-1-7.8-1.9
				c-1.1-0.4-2.7,0.2-3.3-0.7c-0.3-0.4-1.1-0.5-1.1-1.6h-1.5v-0.2c-2.2,0.7-3.6,0.7-3.6,2.9c0,0.5,0,0.9,0,1.4
				c0,0.3-0.9,1.2-1.6,1.2c-5.1,0-6.9-5.4-11.5-5.4c-0.6,0-1.1,0-1.9,0c-1.3,0-3.1-1.7-3.1-3.5c0-1,0.9-1.7,0.9-2.7
				c0-0.6-0.9-1-0.9-1.6c0-0.9,1-0.8,1-1.8c-0.4,0.1-0.6,0.4-1,0.4c-1.1,0-0.8-1.3-2.1-1.3c-1.3,0-1.4,1-2.8,1
				c-0.8,0-1.2-0.5-2.1-0.5c-1,0-2.2,1-2.9,1c-0.6,0-1.5-0.7-2.4-0.7c-3.1,0-8.3,1.9-11,3.3c-0.8,0.4-1.1,1.3-2.6,1.3
				c-2.4,0-4.2-0.1-5.9-1.3c-0.7,0.6-0.8,1.2-1.4,2.3h0.1c-1.7,1-4.1,3.9-5.9,6.2c-1.4,1.7-0.3,2.7-1.2,5.2c-0.4,1.1-2.1,2.4-3.1,3
				c-1.2,0.7-3.1,0.5-4,1.8c-1.7,2.3-3.8,6-4.7,8.7c-0.3,1.1-1.9,1.9-1.9,3.3c0,2.8,1.4,4.7,1.4,7.8c0,1.7-1.4,5.5-2.9,6.3
				c0.5,1,1,1.2,1,2.1c0,0.6,0.4,1,0.4,2.1H402c0.3,0,0.6,0.7,0.9,1.1c0,0.3,3.7,3.6,4.2,4c1.7,1.4,2.2,3.1,3.5,5.1
				c1.5,2.2,5.5,4.6,7.4,6.1c0.3,0.2,1.3,0.6,2.1,0.6c2.7,0,3.9-1.4,6.6-1.4c1.4,0,3.1,1,4.2,1c1,0,1.4-0.9,2.4-1.3
				c2.6-0.8,5.2-2.6,8.7-2.6c2.9,0,3.3,3.9,5.4,3.9c0.6,0,1.7,0,2.9,0c2.4,0,3.6,1.6,4.4,3.1c-0.7,0.6-0.7,2.7-0.7,3.6
				c0,0.3-0.3,0.5,0,1.1c-0.5,0.3-1.6,2-1.6,2.8c0,3.3,4,5.7,5.8,8c0.9,1.2,0.6,2.8,1.2,4.2c0.7,1.7,1.2,2.8,1.7,5.8
				c0.2,1.5,0.9,2.2,0.9,4c0,3.7-4.4,4.9-4.4,9.7c0,4.5,2,7.2,4,10.4c0.6,1,1.3,1.3,1.3,2.3c0,0.6,0,0.8,0,1.9
				c0,6.1,3.2,10.2,5.7,14.5c0.3,0.6,2.3,2.7,2.3,3.8c0,0.8-0.3,1.3-0.9,1.9c0.6,0.6,1.3,2.1,1.3,3.5c0.1-0.1,0.3-0.3,0.7-0.4
				c0.4,0.8,1,1.4,2.2,1.4c2.6,0,4.4-2.1,7.3-2.1c0.8,0,1.2,0.7,1.9,0.7c0.6,0,1.2-0.4,2.1-0.5c0.2-1.3,2-0.7,3.1-1.3
				c2.8-1.4,3.6-3.3,5.4-5.6c1.1-1.4,1.2-3,2.8-4.5c0.8-0.8,2.8-2.4,2.8-4.3c0-0.6-0.4-1.1-1-1.5c0.8-1.7,1.8-2.4,3.5-3.3
				c0.5-0.2,1.7,0.1,2.1-0.5s0.6-2.9,0.6-4c0-2.1-2-3.1-2-4.7c0-0.8,1.1-1.9,2.1-2.1c0.8-4.6,10-4,10-9.4c0-0.6-0.1-1-0.5-1.4
				c0-2,0.3-3.3,0.3-4.4v-1.7c0-0.1,0.4-0.6,0.4-1c0-1.3-2.6-2.5-2.6-4.9c0-2.1-0.6-3.1-0.6-5.2c0-2,1.8-2.4,2.3-4.2
				c1.7-6.2,6.7-7.3,11.3-10.9c2.6-2,3.5-4.5,5.6-7.3c1.7-2.4,4.9-7.5,4.9-11.5c0-0.4-0.3-0.6-0.5-1c-2.5,0.6-5,1.7-7.7,2.1
				c-1,0.1-1.7-0.4-2.8,0c-0.9,0.3-1,1.2-2.1,1.2c-1.2,0-2.1-2.2-3-2.9c0.7-0.8,0-1,0-2.2c-2.3,0-2.9-2.9-4-3.7
				c-1.3-0.9-2-1-3.1-2.1c-1.3-1.3-0.7-3.1-2-4.7c-1-1.4-2.3-1.4-3.4-3.3v-3.7c-2.1-0.8-3.1-3.9-2.7-5.4l-6.2-10.7v-1.2
				c1,1.2,2.6,4.3,4,4.5c0.2-0.7,1.1-2.5,1.4-3.5c-0.1,0.9-0.3,1.7-0.3,2.2c0,0.2,1,1.3,1.2,1.7c0.8,1.2,1.5,2.2,2.3,3.5
				c0.3,0.4,0.8,1,1,1.7c0.1,0.4,0,1.5,0.4,1.9c0.2,0.2,1.1,0.1,1.4,0.3c0.2,0.2,0.6,0.6,0.9,0.9c0.3,1.3,1.2,1.7,1.2,3.3
				c0,2.6,0.6,4.1,3,4.6c0,1.7,1.9,4.1,2.8,4.9c0.8,0.8,1.9,1.4,1.6,2.9c-0.1,0.6-0.7,1.9,0.1,2c0,1.3,0.5,2.5,1.2,3.5
				c0.5,0.7-0.1,0.7,0.1,0.8c0.2,0.1,2,1,2.2,1l0.4-0.1c1.5,0,1.6-1.2,2.8-1.2h2.2c0.9,0,3.7-2.6,4.5-2.8c1.7-0.4,3.8-1,5.4-1.8
				c-0.1-0.1-0.3-0.5-0.3-0.7c0-1.5,4.2-2.3,6.1-2.7c0-0.8,1.3-2,1.9-2c1,0,1-2,2-2c0.8,0,0.8-1.2,1-2c0.3-0.8,1-1.1,2-1.1
				c0-1.7,1.7-2.2,1.7-3.8c0-0.6-0.6-0.5-1.6-1.1v0.1c0-0.3,0.2-1.5-0.6-1.7c-2-0.6-3.6-1-3.6-3v-2.6c-4.1,1.9-3.3,4.7-8,4.7
				c-1,0-3.1-0.5-3.1-1.5c0-0.8,0.4-1.4,0.4-2.2c0-0.3-0.1-0.5-0.1-0.8c-0.7,0.1-0.6,1-1.4,1.3c-0.1-0.6-0.5-0.8-0.5-1.6
				c-1.6-0.3-3.6-3.3-4-5c-0.1-0.6-0.1-0.9-0.1-1.6c0-1,0.4-2.2,1.4-2.2c1.9,0,3.5,2.2,4.2,3.7c0.1,0.3-0.1,0.8,0.3,1.2
				c0.8,0.8,1.9,0.4,2.7,1.2c0.7,0.7,1.3,2,2.4,2h3.5c0.4,0,0.7-1.1,1.5-1.1c1.5,0,1.5,2.1,2.1,2.8c0.1,0.1,2.1,0.6,2.4,0.6
				c1.9,0,4.9,0.8,6.3,0.8c0.1,0,0.3,0,0.3,0l2.4-0.1c0.1-0.1,0.3-0.3,0.6-0.5l1.8,0.5c0.7,0,0.9-0.6,1.7-0.6c0.8,0,1.3-0.1,2.1,0.1
				c0.8,0.3,1.2,1.9,1.8,2.8c0.7,1,2.7,2.4,4.1,2.4c0.6,0,1,0,1.6,0.1c-0.3,0.3-0.4,0.9-0.9,1c-0.6,0.2-1.1-0.1-1.7,0.3
				c1,1,1.9,3.3,4,3.3c1.8,0,1.9-2.1,2.8-3.2h0.6c0,0-0.4,0.7-0.4,0.9c0,0.9,0.7,1.7,0.7,2.8c0,0.9-0.3,1-0.3,2l-0.1-0.1
				c0,0.2,0.1,0.8,0.1,1c0,1.3,0.8,2.6,1.2,4c0.5,1.5,1.7,3.8,2.1,4.9c0.3,0.9,0.3,1.3,0.8,2.2c0.6,0.8,0.2,1.7,0.8,2.9
				c0.3,0.6,1.3,1.3,1.5,2.2c0.5,1.5,1.3,2.9,1.8,4.5c0.1,0.2,0.3,0.7,0.6,0.7c0.1,0.5,0.5,0.8,1,0.7c0.6,0,0.6-0.8,0.9-1.4
				c0.3-0.7,0.5-0.4,1.3-0.8c0.6-0.3,0.4-2.1,1.3-2.4c0.2-0.1,0.7-0.1,0.7-0.3l0.3-0.1l-0.3-1.8c0-1.3,0.8-2.4,0.8-4.2
				c0-1.1-0.5-1.8-0.5-3.1c0-1.5,1.5-1.7,2.7-2.1c0.5-0.1,1.3-1,1.8-1.5c1.3-1.3,2.6-2.7,4-4.1c1.1-1.1,3.1-1.5,4.4-2.7
				c0.6-0.6,0.6-1.4,0.8-2.4c0.2-0.6,1.7-0.7,2.2-1.7c0.6,0.3,0.6,0.7,1.7,0.7c1.8,0,3.8-0.4,3.8-2.5c1,0.2,2.2,0.6,2.5,1.6
				c0.3,0.8,0.1,2,0.7,2.8c0.6,0.9,1.3,1.5,2.3,2.2c0.7,1.1,1.5,2.2,2,3.7c0.1,0.3,0.4,0.6,0.4,0.9c0,0.8-0.3,1.2-0.3,2.1
				s0.1,1.7,1.1,1.7c2,0,2.4-2,3.6-3.2c0.4,0.4,0.2,0.7,0.6,1.1c0.1,0.1,0.7,0,0.9,0.3c0.7,1-0.7,3.1,0.2,3.1c0,2.2,1.6,4.2,1.6,7.2
				c0,0.8,0,2.8,0,2.8h0.2h-0.1c-0.2,1-0.1,1.3-0.1,2.3c0,0.1,0,0.8,0,0.8s0.1,0,0.8,0c1.1,0,1.5,2.3,2,3.3c0.8,1.6,0.9,3,1.5,5
				c0.8,2.3,2.7,4.3,4.9,5c0.4,0.1,0.5,0.6,1.2,0.6c0.2,0,0.3-0.3,0.5-0.3c0.3,0,0.3,0,0.9-0.1c-0.3-0.8-0.3-1.1-0.6-2
				c-0.3-0.8-1.3-1.3-1.3-2.5c0-0.6,0.3-0.6,0.3-1.3c0-3.5-4.1-4.3-6-6.1c-0.5-0.5-0.6-0.5-0.8-2.6h0.1c0-1-2.4-0.8-2.4-3
				c0-1.9,2-2.2,2-4.3c0-0.6-0.3-0.6-0.3-1.2c0-0.3-0.1-0.7,0.4-0.7c0.8,0,1.6,0.2,1.8,0.9c0,0,0.2,0.9,0.3,0.9
				c1.1,0.3,2.1,0.4,3.1,1.4c0.8,0.8,0.1,1.9,1.6,1.9c0,1,1.4,1.4,2.4,1.4c0.1,0.4,0.2,0.9,0.5,1c-0.3,0.1-0.3,0.4-0.3,1
				c0,0.4,0.1,1.4,0.4,1.4c0.3,0,1.5-1,1.5-1.7c0-0.1,0-0.4,0-0.8c0,0.2,0.2,0.6,0.4,0.6c0.8,0,0.8-1.1,1.6-1.5
				c1.8-0.9,2.1-1.7,4.3-2.2c0-1.3,0.9-1.9,0.9-3.5c0-2.3-1.1-5.4-2.8-6.5s-2.4-2.9-4-4.5c-0.3-0.3-0.6-0.4-0.6-1
				c0-3,3.4-3.5,4.8-5.6c1.2,0.6,2,0.1,3.3,0.8c-0.1,0.4-0.3,1.7,0.3,1.7c0.8,0,0.4-0.9,0.9-1.5c0.5-0.5,1.9-0.7,2.4-1
				c1.3-0.6,2.6-0.3,3.5-1.2c0,0,0.7-1.3,0.8-1.3c0.7,0,1,0.6,1.7,0.6c3.2,0,4-1.9,5.9-3.1c0.6-0.3,0.9-0.6,1-1.3
				c1.7,0,2.2-2.6,2.8-3.9c0.4-0.8,2.3-3.6,3.3-3.8c0-1.5,1-2.2,1-4.2c0-3-0.7-4.1-1.9-6c-0.2-0.3-0.2-1.1-0.8-1.5h0.1h-0.1
				c0,0-0.1-1.2-0.1-1.4c-0.6-0.1-1.9-0.8-1.9-1.8c0-0.8,1.2-0.9,1.5-1.8c0.6-1.9,3.6-1.9,5-3.3c-0.6-0.8-1.6,0-2.6-0.6
				c-0.5-0.3-0.8-0.8-1.5-0.8c-0.6,0-0.6,1.5-1,1.5c-0.6,0-1.3,0.2-1.8-0.1c-0.8-0.6-0.6-1.3-1.4-1.9c-0.3-0.2-1.5-0.5-1.5-1.2
				c0-1.5,2-1,3-1.7c0.8-0.6,2.4-1.7,3-2.6c0.1-0.2,0.4-0.9,1.1-0.9c0.6,0,1.3,0.9,1.3,1.3c0,1.1-1.3,1.6-1.3,2.8
				c1.9,0,3.5-2.1,5.8-2.1c0.8,0,1.2,0.8,2.2,0.8c-0.4,0.7,0,0.7,0,1.5c0,0.7-0.8,0.6-0.8,1.5c0,0.3,0.2,1.2,0.7,1.2
				c0.2,0,0.5-0.3,1-0.3c0.8,0,1.8,0.6,1.8,1.4c0,0.5-1.1,0.9-1.1,0.9v0.7c0,0.1,0.3,0.4,0.7,0.5c0,0.4,0.4,0.8,0.4,1.2
				c0,0.2-0.6,1.1-0.6,1.6c0,0.3,0,0.6,0.3,0.6c-0.1,0.3-0.4,0.9-0.4,0.9h1c0.4,0,0.6-0.4,1.4-0.6c0-0.6,1.7-0.7,2.2-0.8
				c1-0.3,1.4-1,1.4-2.6c0-2.7-1-4.3-2.6-5.8c-0.6-0.6-1.3-1.2-1.2-2.4c0.8,0,1.5-0.5,2.1-1c0.5-0.5,1.7-1.2,2-1.7
				c0.9-1.9,1.5-3,3.1-4.3c0,0,2.7,0.7,4.9,0.7c4,0,7.7-8.4,10.5-11.2c1.1-1.1,2.7-3.4,3.1-5.2c0.5-2-0.3-3.3,0.8-5.2
				c0.4-0.7,1.2-2.3,1.2-3.8c0-1.9-3-5.5-4.4-4.5c-4.1,3.1-6.3-1.7-6.3-2.1c0-1.9,3.8-4.1,5.2-5.6c2.2-2.2,5-5.8,8-6.6
				c2.6-0.7,10.9-1.5,13.2-1.5c2.8,0,4.2,1.3,5.9,1.3c1,0,1.6,0,3.8,0c1.1-4.1,3.2-7.2,8-7.2c1.3,0,1.8-0.3,4.2,0.1
				c-1.2,0.9-1.7,7,5.9-2.4c0.8-0.1,4.4,1.4-1,4.9c-1.9,1.2-3.6,0.6-4.9,2.4c-1.5,2.1-2.8,4.7-4.9,5.9c-1.7,1-4.2,2.6-4.2,5.6
				c0,2.6,0.8,11,2.8,12.5c1.4-2.1,2.4-5.9,5.2-6.6c-0.3-1.9,2.8-2.4,2.8-3.8c0-2.3,2.4-2.9,2.4-4.2c0-0.8-0.7-1.7,0-3.1
				c5.6-12,10.8-5.6,12.9-5.6c6.2,0,10.6-7.9,16-8c10.3-0.2,2.1-4.1,2.1-5.2c0-3,4-2.5,4.9-4.2c0.3-0.7-0.3-2.4,1-2.4
				c4.4,0,8,5.9,11.1,5.9c1.4,0,1.7-2.6,2.4-3.5c1.2-1.4,2.3-1.3,4.2-1.9C808.8,142.2,800.7,140.3,796.7,138z"/>
			<path class="st3" d="M789.3,128.6c0.8,0,6.3-0.3,6.3-1.3s-2.6-1.7-3.7-1.7c-1.2,0-3.3,1.2-3.3,2.3
				C788.6,128.2,788.8,128.6,789.3,128.6z"/>
			<path class="st3" d="M769.6,132.8c0.3,0,0.7-0.4,0.7-0.8c0-0.4-0.4-0.9-0.5-0.9h-2.3C767.9,132.1,768.6,132.8,769.6,132.8z"/>
			<path class="st3" d="M703.4,110.9c0.5,0,0.6-0.5,0.7-0.9l0,0l0,0v-0.1H704l-0.6-0.6c-0.3,0.4-0.6,0.6-0.6,1
				C702.8,110.7,703,110.9,703.4,110.9z"/>
			<path class="st3" d="M657.6,114.3c-0.7,0-1.5,0.3-1.5,1c0,0.6,0.8,0.8,1.5,0.8c0.6,0,1-0.2,1.4-0.4c0.1-0.1,0.2-0.3,0.2-0.4
				C659.2,114.5,658.6,114.3,657.6,114.3z"/>
			<path class="st3" d="M658.7,116.2l0.6-0.5c-0.1,0-0.1,0.1-0.2,0.1C658.9,116,658.8,116.1,658.7,116.2z"/>
			<path class="st3" d="M631.5,99.9c0,0.7,0.2,1,1,1l3.7-1c0,0,2.2-0.4,2.4-0.4c1.3,0.2,4.9-0.1,4.9-1.7c0-1-2.9-2.8-3.8-2.8
				c-0.5,0-0.8,0.9-1.3,1.1c0.6-0.6,0.2-0.1,0.2-1.2c-0.3,0-0.3,0-0.9,0c-2.8,0-3.4,2.2-5,3.8C632.4,99.1,631.5,98.8,631.5,99.9z"/>
			<path class="st3" d="M614.7,91.5c0,0.6,1,1.7,1.4,1.7c0.8,0,3.1-0.1,3.3-1.4c-0.5-0.1-2.4-1-2.8-1
				C616.2,90.8,614.7,90.8,614.7,91.5z"/>
			<path class="st3" d="M624.2,91.3c-2.2,0.7-2.9,1.5-5.2,2.2c1,0.6,2.9,2.5,3.7,2.5c2.5,0,4.7,1.3,7.8,1.3c0.6,0,1.4-0.4,1.4-1
				c0-0.5-0.6-0.7-1-0.8c0.4-0.1,1.4-0.2,1.4-0.9c0-0.7-0.1-0.3,0.6-0.8c-0.9-0.9-0.9-0.8-2.3-0.8c-0.5,0-0.9,0-1.4,0
				c-0.8,0-1.2-1.3-2.1-1.3c-0.6,0-0.8-0.5-1.5-0.3c0.6-0.3,1.3-1,1.3-1.4c0-0.3,0.1-0.6,0-1.5c0.3,0.1,0.1,0.2,0.8-0.1
				c-1.1-0.8-2.2-2.7-4.2-2.7c-3.3,0-4.4,3.3-7.3,4.1c1.8,0.9,3.1,1.5,5.1,1.5C621.7,91.2,623.5,91.3,624.2,91.3z"/>
			<path class="st3" d="M624.1,105.5c0.8,0,1.3-0.3,1.4-1.3h-1c-0.3,0-0.6,0.4-1,0.7C623.5,105.2,623.7,105.5,624.1,105.5z"/>
			<path class="st3" d="M615.8,86.2l-0.2-0.6H613C613.4,87.7,614.7,86.3,615.8,86.2z"/>
			<path class="st3" d="M647.2,100.4c0.5,0,0.8-0.6,0.9-1c-0.6,0.3-0.8-0.1-2.3,0.2C646,99.9,646.4,100.4,647.2,100.4z"/>
			<path class="st3" d="M526.9,88.4c0.6,0,1,0.4,1.6,0.6c-0.3,0.3-0.7,0.4-1,0.6c0.3,0.1,0.6,0.1,1.2,0.1c-0.6,0.1-0.9,0.1-1.5,0.4
				c0.2,0.6,0.9,0.6,1.9,0.6H529c0.2,0,0.4,0.8,0.8,0.9c0.6,0.1,0.8-1.1,1.4-1.4c1-0.5,1.4,0.2,2.4-0.2v-0.4c0,0.1,0.5,0.1,0.7,0
				c0.8-0.6,1.7,0,1.9-1.3c-0.4-0.1-1.3-0.7-2.1-0.7c-1,0-1.5,0.9-2.6,0.9c-1.3,0-2.3-0.9-4-0.9c-1.5,0-4.7,0.2-5.4,1.3
				c0.6,0.1,1,0.3,1.5,0.3C524.8,89.3,526.1,88.4,526.9,88.4z"/>
			<path class="st3" d="M534.2,89.8c-0.2,0.1-0.3,0.2-0.5,0.3v0.3L534.2,89.8z"/>
			<path class="st3" d="M559.9,88c0.5,0,3.2-0.6,3.7-0.9l-1-2.2c-1,0-3.9,1.1-3.9,2.1C558.7,87.7,559.1,88,559.9,88z"/>
			<path class="st3" d="M556.1,89.8l-0.3-0.8c0.6,0,1.3,0.3,1.7-0.4c0-0.3,0.1-0.4,0-1c-0.6,0.1-1.8,0.4-2.2,0.3
				c0.1,0,0.6-0.2,0.7-0.2h-2.3c0,0-0.1,0,0,0.6c-0.8,0.3-1.4,0.7-1.4,1.7C552.3,90.3,555.7,90,556.1,89.8z"/>
			<path class="st3" d="M548.8,89.6c-0.7,0-3.5,0.4-3.5,1.4c0,0.3,0.3,0.5,0.7,0.5c0.6,0,0.9,0,1-0.7c0.4,0,1,0.7,1.4,0.7
				c1,0,0.9-1,2.3-1C550.4,90,549.7,89.6,548.8,89.6z"/>
			<path class="st3" d="M548.4,88.3c0.8,0,1.5,0.1,2.1-0.3c-1.5-0.6-2-0.8-4-1c0.7-0.7,2.1-1.1,3.2-1.8c0-0.3,0.3-0.7,0.6-0.9
				c0-0.2-0.1-0.8-0.2-0.8c-0.6,0-1,0.6-1.1,1.2c-2,0-2,1.4-4.1,1.4V87c1-0.4,0.2-1.2,1,0.8H543c-0.3,0-0.5,0.1-0.9,0.4
				c0.1,0.1,3,1.1,3.5,1.1C546.5,89.3,547.6,88.3,548.4,88.3z"/>
			<path class="st3" d="M457.7,95.9c0.2,0,0.3,0.2,0.6,0.3c-0.3,1.1,0.8,1.7,1.9,2.3c-0.2,0-0.3,0.1-0.6,0.1
				c0.3,0.7,1.1,1.2,2.2,1.2c1.5,0,1.5-1.8,2.1-1.8c0.2,0,0.3,0,0.6,0c0.3,0,0.9,0,1,0c0.3,0,0.8,0,1.8,0c-0.8,1-2.6,1.7-3.5,2
				c-0.4,0.1-2,0.2-2,0.8c0,1.7,1.8,1,2.6,1c0.5,0,2.7,0.1,3.1,0.4c-0.8,0.2-1.6,0-2.3,0.6c0,0-1.6-0.2-2.6-0.1
				c0,2.4,3.8,3.3,5.4,4.4c1-1,0.8-2.9,2-3.8c0.4-0.3,0.9-0.1,1-0.6c0.7-1.8,1.5-4.9,3.8-4.9c0,0,0.6,0.9,1.7,1
				c-0.3,0-0.6,0.1-1,0.1c0.3,0.6,0.9,1.8,1.4,1.9c-0.1,1-0.9,0.7-1,2c0.9,0.1,2.4,0,3.2,0.1c-0.2,0.4-0.2,0.7-0.1,1.3
				c1.7-0.6,2.5-1.9,4.4-2.5c-0.6-0.9-2.6-0.6-2.6-2.7c-0.8,0-1.2,0-2.2,0c0.2,0,0.1-0.5,0-0.9c-0.5,0.1-0.7,0.2-1.3,0.1
				c0.2,0,0.5,0,0.7,0c-0.7-0.8-4.4-2.9-5.6-2.9c-0.2,0-0.5-0.1-0.7-0.1c0.1-0.6,0.3-1.7-0.8-1.7c-0.6,0-0.7,0.6-1.2,0.9
				c0-0.5,0.2-0.9,0.2-1.4c0-0.7-1.9-1.4-2.8-1.4s-1.4,0-1.4,1c0,1.3,0.4,1.9,0.8,3.1c-1.7-0.6-1.3-3.1-3.1-3.1
				c-0.6,0-1.2,0.6-1.2,1.2c0,0.4,0.2,0.8,0.5,0.9c-0.5-0.5-1.2-0.5-1.9-1c0.2-0.4,0.5-0.6,0.8-1c-1.6-0.3-2.4-0.3-3.5-0.3
				c-0.7,0-2.2,1.3-2.4,1.7C456.4,94.7,457.2,95.9,457.7,95.9z"/>
			<path class="st3" d="M471.4,92.3c-0.1,1.6,1.3,0.7,2.4,0.7c0.1,0,3,0.2,3.3,0.2c-0.3,0.1-1.1,0.1-1.7,0.3c-0.1,0-0.9,0.1-1.4,0.2
				c0.1,0.6,0.3,1.2,0.9,1.2h4c0.5,1,1.2,1.1,2.4,1.1c2,0,5.5-2.3,7.2-3.5c-0.4-0.8-1.7-1.8-3.1-1.8c-1,0-0.6,0-2.3,0
				c-1,0-1.5,0.7-2.1,0.7c-0.1-0.5,0-1.7,0-1.7h-0.8c-0.3,0-0.9,1.5-1.7,1.5c-0.3,0-2.4-1.5-2.8-1.5h-1.9h0.3h-1.4v0.9
				c0,0.2-0.8,0.1-1.2,0.1h-1C470.5,90.8,470.9,91.9,471.4,92.3z"/>
			<path class="st3" d="M456.1,96.7c-0.1,0-0.1,0-0.1,0.1l0.1,0.1V96.7z"/>
			<path class="st3" d="M458.3,99.7c-0.5-1.5-1.4-1.8-2.3-2.9C454.9,97.5,457,99.4,458.3,99.7z"/>
			<path class="st3" d="M455.9,96.7C456,96.8,456,96.8,455.9,96.7C456,96.8,456,96.8,455.9,96.7L455.9,96.7z"/>
			<path class="st3" d="M415.5,187.1c0,0.8,0.9,1.6,1.7,1.6c0.4,0,1-0.1,1.3-0.3c0.6-0.3,1.4-1.5,2.5-1.5c0.7,0,1.4,0.1,1.8-0.3
				c0.6-0.6,0.1-1.4,0.1-1.9c0-0.1,0-1.9,0-2.4c0-0.6,1.2-0.9,1.2-1.4c0-1.2-0.8-3.2-2.4-3.2c-0.4,0-0.8,0-1.2,0
				c-0.7,0-2.1,1.2-2.1,1.7c0,0.3,0.1,0.7,0.4,1.1c-0.4,0.4-1.6,0.9-2,0.9c-0.2,0-0.8-0.1-0.8,0.8c0,0.7,0.6,1.1,1.3,1.5
				C417.3,185.2,415.5,185.4,415.5,187.1z"/>
			<path class="st3" d="M421.8,171.2c0.8,0,1.3-0.8,1.3-1.6c-0.6,0-1.7,0.3-1.7,0.8C421.4,170.6,421.6,171.2,421.8,171.2z"/>
			<path class="st3" d="M424.1,173.2v0.6c0,0.1-0.8,0.6-0.8,0.9c0,0.3,0.8,0.5,0.8,0.6v0.6c0,0.1,0,0.3,0,0.5c0,0.3,0,1.3,0,1.3h0.8
				c-0.1,0-0.3-0.6,0-1.2c0.2,0.1,0.6,0.3,1.2,0.3c-0.2,0.6,0,0.7,0,1.3s-0.7,0.9-0.7,1.5s0.5,0.5,1.1,0.5c0.6,0,0.9-0.3,1.6-0.3
				c0.2,0,0.4,0.1,0.6,0.1c-0.1,0.3-0.3,0.4-0.3,1c0,0.7-0.2,0.8,1.9,0.8v1c0,0.7-2.1,1.3-3.3,1.3c0,0.8,0.4,1.1,0.4,2
				c0,1-2,1.1-2,2.2c0,0.1,0.2,0.3,0.3,0.3c0.3,0,0.3-0.3,0.7-0.3c0.8,0,1,0.8,1.9,0.8c0.5,0,1-0.3,1.2-0.7c0,0.1,0.1,0.3,0.1,0.5
				c0,1-1.3,0.6-2.3,0.9c-0.2,0.1-2.3,2.3-2.3,2.6l0,0h0.3c0.3,0,0.5,0,1,0h1c0,0,0.4-1.2,1.1-1.2c0.5,0,0.8,0.1,1.3,0.1
				c1,0,2.9-0.9,3.6-0.9c0.4,0,1.9,0,2.8,0c0.8,0,0.4,0.2,1.4-0.5v-0.5c0,0-0.4-0.1-1.1-0.3c0.6-0.9,2.4-1.5,2.4-2.8
				c0-0.7-0.6-1.3-1.4-1.3c-0.6,0-0.4-0.1-0.9,0.3l0.6-0.3c-0.3,0.1-0.6,0.3-0.6,0.5v-0.5c0-0.1,0.1-0.3,0.1-0.5
				c0-0.6-0.9-0.9-0.9-1.5c0-1.7-1.9-2.2-3-3.3c-0.8-0.8-0.7-2.5-2-2.9c-0.6-0.1-0.9,0.1-1.6-0.1c0.1-0.3,0.3-0.6,0.5-0.7
				c0-1.5,2.1-2.3,1.9-4.4h-4.1c-0.1,0-0.2-0.2-0.2-0.4c0.2-1,1.7-1,1.7-1.9c0-0.1-0.4-0.8-0.7-0.8c-0.5,0-1.3,0-2,0
				c-0.4,0-1.1,0.8-1.1,1.1s-0.3,0.7-0.3,1.3c-0.5,0-1,0.3-1,0.9c0,0.1,0.2,0.4,0.3,0.4c0,0.1-0.1,0.7-0.3,0.7
				c-0.1,0-0.5-0.3-0.5-0.3h-1.1C422.4,172.5,423,173,424.1,173.2z"/>
			<path class="st3" d="M426.4,181c-0.4,0.2-0.5,0.5-0.5,0.8c0.4,0,0.6,0,0.8,0c0-0.3,0.1-0.6,0.1-0.8
				C426.7,181,426.4,181,426.4,181z"/>
			<path class="st3" d="M408.4,149.2l0.1-0.1c0-1.9-2.6-1.5-2.6-3.5c0-0.2,0.2-0.5,0.4-0.6c-0.6,0-1,0.4-1.7,0.4
				c-0.7,0-1.3-0.1-1.3-0.9c-0.3,0.2-0.3,0.1-0.8,0c-0.1,0.3-0.3,0.5-0.3,1c-0.6-0.6-1.5,0.2-2.4,0.2c-0.6,0-1.2-0.2-2.2-0.2
				c0,0.2-0.1,0.5,0,0.7c-0.3-0.1-0.4-0.3-1-0.5l-1.7,0.4c-0.4,0-0.6-0.3-0.9-0.6c-0.2,0.3-0.1,0.4,0,0.9c-0.3,0.1-0.8,0.4-1.3,0.4
				s-1.1-0.8-1-1.3c-0.1-0.4-0.3,0.1-0.4-0.9c-0.2,0-0.3,0-0.6,0c-0.6,0-1,0.5-1,0.5c0,0.2,0,0.3,0,0.6c0-0.2-0.9-0.3-1.5-0.1
				c0.1,0.8,2.7,1.5,3.5,1.5c0,0.2,0,0.4,0.3,0.6c-0.8,0.3-2.6,0.6-3.6,0.6c0.7,0.7,1.9,0,3,0.3c-0.1,0.8-0.4,1.2-0.4,2.1
				c-0.2,0-0.4,0.2-0.6,0.3c1.5,0,2.1,1,3.1,1.3c1.9,0.6,3.7,1.3,6.3,1.3c2.4,0,3.7-1.2,5.4-1.7
				C406.1,151.4,407.8,150.2,408.4,149.2z"/>
			<path class="st3" d="M288.4,261.2c-0.5-0.2-0.8-1.2-1.6-1.4l-1-0.1c-0.1-0.1,0-0.3,0-0.5c-1.6,0-3.3-0.8-4.3-1.7
				c-0.1-0.1-0.7-0.8-1.2-0.8c-2.3,0-3.8-1.1-6.8-1.1c-3.1,0-4.6,0.6-5.7,3.7h0.6c0.7-2.1,2.6-2.3,3.9-2.3c0.3,0,0.7-0.4,1-0.2
				c-0.2,0.2-0.3,0.4,0.1,0.4h2c1,0,1.5,1.1,2.4,1.1c0.6,0,0.9-0.2,1.5,0.1c0.3,0.1,0.2,0.6,0.8,0.6c0.2,1,1.2,1,2.2,1.5
				c-0.1,0.4,0.2,0.6-0.9,0.6c0,0.1,0,0.3,0,0.4c1,0,2.6,0.5,4.2,0.5C286.4,262,287.9,262,288.4,261.2z"/>
			<path class="st3" d="M271.2,257.6v0.5c-0.2,0-0.6,0.1-0.6,0.6c0,0.1,0.9,0,1,0c0.1-0.4,0.1-0.7,0-1l-0.2-0.1H271.2z"/>
			<path class="st3" d="M281,265c0,0.6,0.6,1,1.1,1c0.8,0,1.5-0.3,2.3-0.4c-0.1-0.3-0.2-0.5-0.6-0.6l0.1,0.1
				c-0.4-0.1-1.4-0.6-2.2-0.6C281.4,264.6,281,264.8,281,265z"/>
			<path class="st3" d="M302.9,264.9c0,0.7,0.9,0.8,1.7,0.8c0.4,0,0.9,0,1.1-0.4c-0.2-0.4-1.9-0.8-2.1-0.8
				C303.4,264.5,302.9,264.6,302.9,264.9z"/>
			<path class="st3" d="M288.5,264.6c0,0.4,0.4,1,0.8,1.1c0-0.2,0.1-0.3,0.1-0.6c0.3,0.2,0.3,0,0.8,0c0.8,0,2.5-0.2,3.1,0.2
				c0.3,0.2,0.2,0.9,0.8,0.9c0.8,0,0.7-1.3,1.6-1.3c0.3,0,0.3,0.2,0.7,0.2c0.5,0,0.8,0.3,1.3-0.7h2.6c-0.5,0-1.2-0.8-1.9-1.4
				l0.3,0.4c-1.2-0.6-1.7-1.8-3.9-1.8c-0.8,0-1.2,0.3-2.1,0.3c-0.6,0-1-0.5-1.7-0.5c-0.2,0-0.6,0.3-0.6,0.5c0,0.4,0.5,0.8,0.9,0.8
				c0,0.6,0.1,1,0.5,1.5c-0.8,0.4-1.5,0.1-3.1,0.1C288.8,264.4,288.7,264.6,288.5,264.6z"/>
			<path class="st3" d="M313.6,281.9c0,0.2,0.4,0,0.6,0c0.4,0,0.7-0.6,0.8-0.9v-0.5c-0.2,0-0.4,0-0.6,0
				C314.1,280.5,313.6,281.2,313.6,281.9z"/>
			<path class="st3" d="M336.7,301.7c-0.8,0-1.4,0.6-1.4,1.7c0,0.6,1.8,1.8,2.9,1.8c0.8,0,1.9-1.6,1.9-2.2c0-0.1-0.2-0.6-0.5-0.6
				c-0.3,0-1,0.8-1.1-0.1c-0.6,0-1-0.6-1.5-0.6C336.9,301.7,336.7,301.7,336.7,301.7z"/>
			<path class="st3" d="M289.7,395.8h1V393c0-0.2,0.1-0.3,0.1-0.8c0-0.6-1-1.1-1.6-1.1c-0.4,0-1.6,2.1-1.6,2.1s0,0.6,0,0.9
				C287.6,394.3,289.3,395.8,289.7,395.8z"/>
			<path class="st3" d="M260.1,197.4c0.7-0.3,0.4-1.5,1.1-1.5c0.8,0,1.4,1.1,1.7,1.4c0.1-0.3,0.1-0.1,0.1-1.1c0.2,0,0.3,0,0.6,0
				c0.4,0,3.3,2.5,3.5,2.8c0.4,0.8,0,1.5,0.6,2.1c1.6,1.6,3.8,2.4,5.5,2.4h1.8c0.8,1,1.9,1.3,1.9,2.4c0,0.5-0.3,0.9-0.7,0.9
				c-0.8,0-1.7-0.9-1.9-1.2c-0.3,1.1-0.9,4.5-1.9,4.5c-0.7-0.6-0.7-1-1-2.1c-0.7,0.2-0.6,0.5-1.4,0.5c0.2-1,0.8-1.6,0.8-2.6
				c0-0.8-2.6-2.1-3.1-2.1c-1.1,0,0.4,1.7-2.2,1.8c-0.8,0-0.4,2.2-0.4,3c0,0,0,1.4,0,2.2c0,0.9-0.7,3-1.7,3c-0.8,0-1.8-0.6-1.8-1.4
				c0-1.8,0.5-5.4,1.7-6.9c-0.7,0-1,0.7-1.7,1.1c0.1-1.4,2.6-3.2,4.2-3.2c0.6,0,3.5,0,3.5,0v-1.2c-2.1,0-2.4-0.9-4-0.9
				c-0.8,0-1.1,0.3-2,0.3c-0.5,0-1.1,0.8-1.2-1.3h-1.4c0.3,0,0.8-0.3,0.8-1.3c-1,0.2-2.3,1.7-3.1,1.7c-0.6,0-0.7,1-1.9,1
				c-0.6,0-0.8,0.3-1-0.3c-0.5,0.1-0.8,0.9-1.3,0.9h-1c1.6-3.1,3.5-3.1,5.4-4.3C259.2,197.9,259.3,197.8,260.1,197.4L260.1,197.4z
				 M277,212.3c-0.3,0.2-0.8-0.3-1.7-0.3c-1,0-2-0.1-2.6,0.6c-0.3,0.3-0.4,0.7-1,0.7c-0.4,0-0.8-0.5-1-0.8c0,0.7,0.3,1.7,1,1.7
				C273.1,214.1,275.4,213.1,277,212.3L277,212.3z M277.8,210.9c0-0.1-0.1-0.2-0.1-0.3C277.8,210.7,277.8,210.8,277.8,210.9
				L277.8,210.9z M278.2,209.3c1.5-0.5,4.8-1.3,6.5-1.3c0,2.6-4.5,1.9-6.5,1.9c-0.3,0-0.3,0.1-0.8,0.1c0.1,0.1,0.2,0.3,0.2,0.5
				c-0.1-0.2-0.4-0.4-0.4-0.6C277.3,209.5,278,209.4,278.2,209.3L278.2,209.3z M301.9,201.2c0-0.2-0.1-0.3-0.1-0.4
				C301.8,200.9,301.9,201,301.9,201.2L301.9,201.2z M302,202c0-0.1,0-0.3,0-0.4C302,201.8,302,201.9,302,202L302,202z M302.1,203
				c0-0.1,0-0.3,0-0.4C302.1,202.8,302.1,202.9,302.1,203L302.1,203z M302.2,204c0-0.1,0-0.2,0-0.3
				C302.2,203.8,302.2,203.9,302.2,204L302.2,204z M302.3,204.8c0-0.1,0-0.2-0.1-0.3C302.3,204.6,302.3,204.7,302.3,204.8
				L302.3,204.8z M301.7,200.4c-0.1-0.3-0.2-0.5-0.3-0.7C301.5,199.9,301.6,200.2,301.7,200.4L301.7,200.4z M302.5,205.3
				c0,0.1,0.1,0.2,0.1,0.3C302.5,205.4,302.5,205.3,302.5,205.3L302.5,205.3z M277.4,212c0.3-0.1,0.5-0.3,0.7-0.3
				c-0.1-0.2-0.1-0.4-0.2-0.5c0.1,0.2,0.1,0.4,0.2,0.5C277.9,211.8,277.7,211.9,277.4,212L277.4,212z M365.4,311.9
				c-1-0.3-1.6,0.1-2.6-0.1c-1.1-0.3-3.3-2.3-3.9-3.3c-0.8-0.3-1.9-0.8-3.3-1.1l-2.6,0.4c-1.4,0-1.7-1.3-3.1-1.3
				c-0.6,0-0.9,0.5-1.5,0.5h-0.5c0,0,0.1-0.9-0.1-1.5c-0.1-0.6-0.8-0.3-1.3-0.6c-0.9-0.6-3.4-1.8-4.7-1.8c-1.1,0-1.9,1.5-2.6,2.6
				c-0.2,0.3-0.5,1-0.8,1c-0.2,0-0.3-0.6-0.3-0.6h-1.7c-0.1-2.1-0.5-1.4-1.2-1.7c-0.3-0.1-1-0.1-1-0.8c0-2.1,2-2.8,3.1-4.2
				c0-0.7-0.9-0.7-1.3-1.4c-0.3-0.8-1.3-2.9-1.3-3.8c-1.2-0.3-2.6-2.5-3.8-2.5c-0.1,0,0,0,0,0v-0.2c-2.1,0-2.2-0.8-2.7-0.8h-1.7
				c-1.9,0-4.8-0.1-5.3-2.1c-0.3,0-0.9-0.1-1-0.3c-0.8-1.7-1.5-0.7-2.8-2.8h-1.9c-0.3,0,0.4-2-0.5-2.3c-1-0.4-2.5-0.6-2.5-1.6V281
				c0,0.1,0.3,0.1,0.6-0.1c0,0-1.5-0.2-2.2-0.2c-0.2,0.1-1.8,0.1-1.9,0.4c-0.4,0.8-1.2,0.9-2.2,1c-0.6,0-1.4-0.7-1.4-0.7
				c-0.6,0-2.6,0-3.8,0c-0.4,0-0.8-0.6-0.8-1.3c-1-0.2-2.6-0.6-2.9-1.8l-1.2,0.3c0,0.8,1-0.4,1.3,1.7h-1.7c-0.6,0-1.7-0.1-1.7,0.9
				c0,0.8,0.8,1.1,0.8,2c0,0.3-0.4,1-0.7,1c-0.8,0-1.1-1.4-1.1-2.2c0-0.6,0.4-1.8,0.6-2.9c0.3,0,0.7-0.3,0.7-0.8
				c0-0.1-0.3-0.8-0.6-0.8c-0.9,0-1.1,1-2,1.3c-1.7,0.6-2.9,0.8-4.5,1.4c-0.9,0.3-1.5,0.5-1.9,1.6c-0.1,0.6-0.2,1.5-0.6,1.7
				c-0.4,0.3-0.7,0.5-0.7,1.2c-0.1,0,0,0.2,0,0.3c0,0.1,0,0.3,0,0.4s-0.7,0.1-1.2,0c-0.1,0.2-0.5,0.3-0.7,0.5
				c0.2-0.3,0.3-0.5,0.4-0.5c-1.1-0.8-2-2.2-4-2.2c-1.7,0-2.6,1.4-4.4,1.4c-1.2,0-1.2-1.3-1.9-1.7c-1.1-0.6-2.6-1.2-2.6-2.7
				c0-1.1,0-2.6,0-4.2c1-0.7,1-2.4,1-3.1c0-0.3,0-0.7,0-1c-1-0.3-2-1.5-3.6-1.5c-2.4,0-4.5,0.4-6.8,0.4c-0.4,0-1-0.3-1-0.8
				c0-0.1,0-0.2,0-0.4c0-0.4,1-0.7,1-1.4c0-1,0-2.4,0-3.6l0,0c0,0,0,0.6,0,0.8c1-0.7,1.4-1.2,1.4-2.3c0-1.3,1.7-2.6,1.7-3.5
				c0-0.2,0-0.4,0-0.6c0,0-1.5-0.1-1.8-0.1c-0.3-0.1-0.8-0.2-1.5-0.2c-1.9,0-4.2,0.7-4.2,2.7c0,1-1.2,1.9-1.5,2.8
				c-0.1,0.3-0.4,1.1-1,1.1c-0.3,0-0.6-0.4-1.3-0.4c-1.4,0-2.5,1-3.8,1c-0.6,0-0.6-0.6-1.2-0.8c-1.8-0.6-1.8-1.7-3.1-3
				c-0.5-0.5-1.4-1.5-1.7-2c-0.3-0.6,0.6-1,0.3-1.7c-0.1-0.3,0-0.8,0-1.4v-3.9c0-1,0.2-1.5,0.2-2.8c0-0.4-0.4-0.7-0.5-1.1l-0.2-0.2
				c0.1,0,0.1,0,0.1,0c0-0.2-0.4-0.5-0.4-0.7c0-2.1,0.9-4,2.4-4.5c0.7-0.3,1.3,0.2,1.9-0.3c0.8-0.8,1.8-2.6,3.8-2.6
				c0.8,0,1.2,0.7,1.9,0.7c0.4,0,0.6-0.6,1-0.6c1.4,0,3.1,2.4,5,1.4c-0.8-0.6-0.2-1.2-0.1-2.2c-0.4,0.2-0.3,0.2-1,0
				c1.2-0.4,2.6-0.3,3.8-0.6c0,0.2,0.3,0.6,0.5,0.6c0.6,0,0.8-0.6,1.7-0.6c1.7,0,2.4,1.6,3.7,1.6c0.6,0,0.9-0.9,1.5-0.9
				c3.1,0,2.2,4.2,3.3,6.5c0.6,1.1,1.3,1.5,2.1,2.6c0.4,0.6,0.4,1.7,1.4,1.7c1.2,0,1.6-1.3,1.6-2.8c0-1.3-0.7-1.9-0.7-2.8v-0.3
				c0-2.2-2.1-2.9-2.1-5.2c0-5.1,4.1-6.4,7.4-8.2l-0.2-0.1c0.4-0.4,0.3-0.6,1.2-0.9c0.6-0.1,0.9-0.7,1.7-0.8c0.4-0.1,0.7-0.5,1-0.8
				l-0.7-0.5v-0.6c1,0,0.8,0.1,0.9-0.7c-0.3-0.1-0.6-0.1-0.9-0.6c0.3,0,1-0.3,1-0.8c0-0.2,0-0.4,0-0.4s-0.6,0-0.8,0
				c-0.4-1,0-0.5,0-1.2s-0.4-2-0.4-2.5c0,0,0.1-0.6,0.2-0.9c0.1,0.7,0.9,1.8,0.9,2.3c0,0.3,0,0.5,0,0.8c0,0.1,0,0.4,0.1,0.4
				c0.2,0,1.5-2.4,1.5-2.8c0-0.6-0.5-0.8-0.7-1.3l0.3-0.3c0.1,0.1,0.3,0.6,0.5,0.6c0.5,0,1.8-2.4,1.9-3c0,0-0.6-0.5-0.6-0.8
				c0-0.2,0.2-0.4,0.4-0.5c0.2,0,0.4,0.1,0.6,0.1c1,0,1.7,0.2,2.6-0.1c-0.5-0.3-1.1,0.2-1.7,0.2h-0.7c1.4-1,4-0.7,5.4-1.7
				c0.3,0.3,1.5-0.2,2.6-0.4V214c0,0-0.9,0.5-1.1,0.5c-0.4,0-0.8-0.9-0.8-1.2c-0.2-0.1-0.4-0.4-0.4-0.6c0-2.6,2.3-3.4,3.4-4.5
				c0.7-0.3,0.7,0,1.6,0c1,0,1.7-0.4,2.2-1.2c-0.1-0.2-0.5-0.3-0.6-0.5l-0.3-0.2v0.1c0,0,1,0,1.2,0c0.4,0,2.2,0.1,2.8-0.3
				c0.6-0.4,0.6-1.4,1.7-1.5c0,1-0.1,1,1,1c-1.6,0.1-4.1,1.2-4.1,2.8c0,0.6,1,1.7,1.4,1.7c0.6,0,1.8-1.9,3.2-2.3
				c0.4-0.1,5.1-1.9,5.1-2.4c0-0.8-1.8-0.8-2.2-0.8c-2,0-5.2-1.9-5.2-3.7c0-0.4,0.6-1,0.7-1.7c-0.3,0-1.1-0.2-1.7-0.2
				c0.4-0.6,2.9-0.9,2.9-2.3c0-1.3-2.2-1-3.6-1c-3.1,0-4.4,2.2-6.5,2.4c0.9-1.9,2.4-1.2,3.9-2.8c1-1,0.3-1.6,1.7-2.1
				c2.6-0.8,4.2-0.3,6.8-0.3c3.5,0,5.4,1.1,7.4-1.5c1-1.3,6.6-1.6,6.6-3.8c0-1.6-0.4-2.3-1-3.3c-0.6,0-0.4-0.7-0.4-1v-0.8
				c-2.1,0.9-5.1,2.1-6.8,2.1c-0.2,0-0.7-0.1-0.8-0.3c1.4-0.8,5.2-1.3,5.6-2.6c0.1-0.3-0.8-0.4-0.9-0.8c-1.7,0.2-5.5-0.6-5.5-2.9
				v-0.2c-2.1,0-2.2-1-3.1-1.7c0.3-0.2,1.2-0.4,1.2-1.3c0-0.7-0.6-1.3-0.4-1.9c-0.6-0.2-2.9-1.6-2.3-2.9c0.7-1.6-2.2-1.9-2.4-3.8
				c-0.2,0-0.9-0.6-1.2-0.9c-0.5,0.4-1.6,1-1.6,2s-2.2,3.6-4,3.6c-1.3,0-1.5-1.5-2.3-1.5c-1.2,0-1.7-3.4-1.9-4.9c-0.3-2-4-0.6-4-3.1
				c-1.9-0.3-2.4-2.6-4.3-2.6c-0.9,0-0.9,0.7-1.9,0.7c-2,0-3.3-1.2-5.2-1.2c-1,0-2.1,0.5-2.1,1.7c0,0.7,2.5,1.7,0.2,3.1
				c-0.9,0.6,1.3,2.1,1.4,3.1c0.2,2.1-1.7,2.6-2.6,2.9c1.6,2.7,4,3.6,4,8.2c0,1.3-4.2,4.4-5.6,4.7c2.4,1.2,1.5,5,2.4,6.2
				c-0.3,0.4-1.2,0.9-1.3,1.7c-0.8,0-1.4,1.4-2.1,0.8c-1.7-1.4-4.2-4.1-4.2-6.1c0-2.2,0.4-4.8-1.5-5.8h-4.5c-2.6,0-5.5-2.4-8.6-3.6
				c-0.6-0.2-2.2-1.1-3.1-1.1c-1,0-1.5,1.2-2.6,1.2c0-1.7-1.1-5.5-2.6-5.5c-0.7,0-1,0.6-1.7,0.7c0.3-0.8,0-1.1,0-3.1
				c0-2.8,0.8-4.4,2.4-6c0.6-0.6,1.7-3.3,2.3-3.5c1.2-0.4,3.3,0.3,3.3-1.4c0-1-2.7-1.1-3.6-1.7c0.6,0.2-1.5-1.7,4.2,0.1
				c1.5,0.4,0.6-2,1.4-2c0.1,0,0.7,0,1.5,0c1.7,0,1.6-0.8,2.6-1.6v-1c-2.1-0.6-3.7-0.4-4.7-2.5c0,0,0.8,0,1.3,0
				c0.9,1,1.8,1.7,3.1,1.7c1.1,0,3.1-1.4,3.1-2.2c0-0.3-1-1.5-0.5-1.5c1.5,0,2.1,1.4,3.1,1.4c0.6,0,1-0.6,2.3-0.6
				c-0.3-0.4,0-1.6,0.8-0.3c0.5,0.7,4-2.4,4-3.3c0-0.6-1.6-1.3-1.6-1.7c0-0.5-0.9-1.6,1.3-2.6c0.3-0.6,0-0.6,0-1.7
				c-2.2,0-1.7-1.7-4.5-1.7c-0.6-0.1-1.1-0.5-1.7-0.5c-0.8,0-1.7,0.6-1.7,1.4c0,0.9,1,1.2,1,1.9s-1.6,0.7-1.9,1.4
				c-0.6,1.2-0.4,2.1-1.4,3.4c-1.6,2-3.6-1.2-3.6-2c0-0.9,1.2-0.7,1.2-1.7c0-0.5-2-2.4-2.6-2.4c-2,0-0.6,3-2.8,3
				c0-1.2-0.1-2-1.6-2.7c0.2-0.4,0.3-0.6,0.7-0.8c-1.1-0.7-2.6,0-3.5-1c0.5-0.3,1.7-0.8,1.7-1.7c0-1.3-2-1.3-2.1-2.3
				c-0.1-2.2-1.6-3.6-4.3-3.6c-1.3,0-0.8,0.8-0.7,1.5c-0.8,0.2-1.9,0-1.9,1c0,0.7,0.6,1,0.6,1.7s-0.9,0.6-0.9,1.6
				c0,2.3,4.7,0.9,4.7,3.3c0,0.4-0.6,2.1-0.6,2.1c0.5-0.3,0.9-0.4,1.5-0.7c0.9,2.9-3.7,1.5-3.7,4.9c-2.3,0.6-0.5-1.7-1-2.4
				c-0.2-0.3-2.1-0.8-3.1-0.8c-1.3,0-1.7,0.8-1.7,2.2c-1.2-0.1-1.9,0-5.9,0c-3.8,0-8.1-1.3-9-4.2c-1.3,0.3-5.4,0.4-5.4,1.9
				c0,0.5,0.3,0.8,0.9,0.8c1.1,0,2.9-0.5,3.8-1.1c0.3,2.3-3.3,0.4-3.3,2.8c0,0.5,0.8,2.1,0.4,2.1c-1.4,0-1.7-1.6-2.9-2.1l-1-0.3
				c-1.7,0-2.8,0-4.4,0c-1.4,0-2.3,0.4-3.8,0.5c-2.8,0.1-2.8-1-2.8-1.2c0-0.6,2.1-0.4,2.5-0.8c-1.9-2.7-1.6-2.3-5.6-2
				c-4.2,0.3-6.3-3.1-10.6-3.1c-1.3,0-1.9,0.9-3,0.9c-0.8,0-1.5-1.3-1.7-1.9c-1.3,0.3-1.3,1.8-2.7,1.8c-1.3,0-3.2-3.1-3.6-3.1
				c-1.4,0-0.9,2-2.4,2c-0.6,0-1-0.4-1.3-1c-2.2,0.5-2.9,0.6-4.9,1.4c-0.8,0.1-2.6,1.5-3.2,0.9c-1.8-1.7-1.5,0.5-2.2,0.5
				c-4.5,0.2-1.4,1.8-2,1.8c-1.7,0-4.9-0.3-7.7-2.1c-0.1-0.1-1-0.7-1-0.9c-0.5,0.3,0.2,0.1-0.9,0v0.1c-1-0.6-2.3-1.4-4.3-1.4
				c-1.2,0-2,0.3-3.2,0.3c-2.2,0-6.4,1.2-7.8-1.9h-4.8c-1,0-1.3,0-2.1-1h-3.5c-0.6,0-0.8-0.4-1.6-0.7c-0.3,0.6-1,1.1-1.7,0.9
				c0.2-0.3,0.3-0.5,0.6-0.9c-0.9-0.3-1.3-1-2.2-1c-1.2,0-1.9,1.5-3,1.9c-1,0.3-1.6-0.5-2.6-0.3c-3.7,1.2-6.8,5.2-8.9,6.2h-3.8
				c-0.1,0-1,2.3-1,2.3c0,0.5,2.9,1.2,3.7,1.7c0.7,0.4,1.5,2.6,2.1,2.9c2,1,3.5,1.2,4.2,3.4c-0.8,0.2-1,0.3-1.9,0.3
				c-1.5,0-2.6,0.7-2.6-1.3H110c-1.7,1-4.5,1.8-6.3,2.8c0.3,0.7,1,1,2.1,1c-0.1,0.2-0.2,0.4-0.2,0.6c0,0.6,0.8,0.8,0.9,1.8
				c0.6,0,2.2,0,3.7,0c1-1,1.5,0.5,2.9,0.5c1.5,0,2.3-1.2,3.5-1.2c0.4,0-0.6,0,1.5,0v1c-2.1-0.3-0.8-0.3-1.5,0.1
				c0.1,0.2,0.9,1.2,0.9,1.7c0,0.9-4.8,2.8-5.5,2.8c-1.5,0-5.3,1.7-5.3,3.8c0,1.1,2.2,1.5,2.8,3c-0.3,0-0.7,0.2-1.1,0.2
				c0.5,0.6,3.7,3.2,4.7,3.2c0.3,0,0.8-1.2,1.4-1.2s0.5,0.8,0.5,1c0,0.6,0,0.6,0,1.4c0,0.6,0.3,1.2,0.7,1.2c0.3,0,0.7-1.1,1.1-1.1
				c0.3,0,0.2,0,0.8,0c0,0-0.1-0.1,0.1-0.5c1.2,0.9,1.7,1.6,3.3,2.2c0.1-0.5,0.3-0.6,0.5-1.1c0.7,0.2,1,0.4,1.9,0.4c1,0,1.5-1,2.6-1
				h1c-1.7,2.1-1.7,3.3-3.3,4.4c-1.7,1.1-4.4,2.4-5.6,3.9c-0.8,1-2.2,0.4-3.3,1.1c-0.8,0.4-1.4,1.8-2.2,2.3
				c-1.2,0.7-2.5,0.2-3.3,1.5c2.9,0.8,4.3-2.1,6.8-2.5c2-0.3,4.5-1,5.6-2.1s3.5-1.8,4.5-3.1c0.6-0.7,1.1-1.4,2-1.7
				c1.6-0.6,3.4-1.2,3.4-2.8c0-0.3,0-0.7,0-1c0-2.3,4.1-6.1,5.8-6.1c0.3,0,0.2,0,0.8,0c0,0-0.1,0.5-0.1,0.7c-2,0.6-3.1,1.8-3.1,3.3
				c0,0.3-0.3,0.3,0.1,0.8c-0.1,0.1-0.6,0.1-0.6,0.6c0,0.3,0.4,0.5,0.7,0.5c1.6,0,6-2.5,7-3.9c-0.3-0.3-0.5-0.5-0.7-1
				c0.6-0.4,2-0.9,2.9-1.2c1.2,2.4,4.2,3.3,6.5,3.3h3.8c2.1,1,4.5,1.3,6.3,2.6c0.8,0.6,1.8,2.7,3.3,2.7c0.6,0,0.8-0.7,1-1.2
				c0.6,0.6,1,1.1,2.1,1.1c0.3-0.5,0.9,0.2,1.3,0.5c-0.2,0.3-0.7,0.6-0.7,1.5c0,0.4,0.8,1,1,1c0.9,0,0.8-0.8,1.9-0.9
				c0,0.1,0,0.4,0,0.9c0,0.6-1,0.6-1,1.2c0,0.4,0.2,1,1.1,1c1.3,0,2,0,2,1c0,0.6,0,0.4,0,1c0,0.8,1.9,2.1,3,2.1
				c0.3,0,0.4-0.1,0.8-0.1c0,0.3,0.4,0.6,0.4,1c0,0.9-0.3,2.8,0.7,3.1c0.6,0.1,1.1,0.1,1.5,0.6c0.6,0.6-0.1,1.5,0.7,2.1
				c0,0,1.8,1.1,1.9,1.3c0.5,1.6,0.6,3.5,3,3.5c0.3,1.4,2.8,0.5,3.3,2.3c0.2,0.7,1.9,0.8,2.6,1.5c0.1,0.1,0.5,0.3,0.8,0.4
				c0.3,0.7,0.9,0.9,0.9,1.6c0,0.6-0.6,1.5-1,1.9c-0.3-0.6-1-1.2-2-1.2c-0.3,0-1,0.1-1,0.5c0,1.5,1.7,2.2,1.7,3.7
				c0,2.2-1.8,6.1-1.2,7.8c0.7,1.7-0.1,4.3,0.7,5.8c-0.4,0.3-1,0.7-0.7,1.3c1.2,2.1,2.7,5.1,4.2,5.4c-0.4,2.9,1.6,3.7,2.6,6.1
				c0.2,0.6,0,1.3,0.6,1.6c2.5,1,6.1,3.5,7.1,4.5h-0.7v0.4c0,1.6,1.4,2,2,3.3c0.4,0.8,0.5,2.8,1.3,3.3c1.2,0.8,2.4,2.3,3.5,3.7
				c0.6,0.9-1,0.6-1.4,0.6c0.7,1,2.6,0.8,3.6,1.8c0.7,0.7,1.4,1.5,2.4,2.2v1.8c0,0.3-0.1,0.3,0.3,0.6c0.8,0.5,1.3,2.1,2.5,2.1
				c0.1,0.3,0.9,1.5,1,1.5c0.2,0,0.4-0.7,0.4-1.1c0-0.6-0.9-1.7-1.4-1.2c-1.2-0.8-1.7-2.6-2.2-4.3c-0.5-1.5-1.9-2.2-2.4-3.8
				c-0.4-1.2-0.5-1.9-1.5-2.8c-0.7-0.7-1.6-0.7-2.1-1.7c-0.6-1.2-1.2-2.1-1.2-3.5c0-0.2-0.1-0.6,0.1-0.9c0.9,0.9,2,0.8,3.2,1.4
				c0.6,0.3,0.4,1.8,1,2.4c0.6,0.6,0.4,1.8,1,2.4c0.8,0.8,1.5,1.5,2.4,2.4c0.2-0.2,0.1-0.1,0.8,0c0,1.7,2.2,1.8,2.8,3.1
				c0.3,0.8-0.1,1.5,0.4,2c0.7,0.7,1.8,1,2.5,1.7c1.5,1.5,3.9,3.5,4.7,6.1c0.1,0.5,0.7,0.7,0.7,1.6c0,0.8-0.7,1.2-0.7,1.9
				c0,0.6,0.4,1.4,1,1.4c0.2,0.9,2.4,1.4,3.2,2.2c0.2,0.2,0.3,0.3,0.8,0.5c0.9,0.4,1.4,0.3,2.3,0.7c1,0.5,1.2,1.3,2.2,1.6
				c0.8,0.2,1.2-0.2,2,0.1c0.7,0.3,3.1,2,3.9,2c0.6,0,1-0.1,1.6,0.1c0.3,0.1,0.8,0.6,1.4,0.6c1.2,0,1.4-1.1,2.6-1.1
				c0.6,0,1-0.2,1.5,0.9h0.4c1.9,1,2.2,2.2,4.3,3.2c1.4,0.7,2.4,0.2,3.7,0.8c0.9,0.4,1.6,0.8,2.9,0.8c0.5,0,0.8-0.7,1.3-0.7
				c0.1,0,0.3,0,0.4,0c0.4,2.1,1.6,2.6,2.7,3.7c0.3,0.3,0.7,0.3,0.9,1c0.3,1-0.3,2.5,0.7,2.5h0.7c-0.1,0-0.1-0.1,0-0.3
				c0.1,0,2.4,1.6,2.6,2c0.3,0.6,0.3,1.3,1.3,1.5c0,0.1,0.2,0.5,0.3,0.5c0.5,0,1.6-0.4,2.1,0.1c0.6,0.6,1.3,1.9,2.4,1.9
				c0.6,0,0.9-0.3,1-1c-0.1-0.1-0.6-0.3-0.6-0.6c0-0.4,1.9-1.8,2.4-1.8c0.8,0,1,0.9,1.7,1.3c-0.1,0.3-0.4,0.4-0.4,0.7
				c0,0.2,0.6,0.4,0.8,0.5c0,0,0.1,0,0.2-0.1c-0.1,0.1-0.1,0.3-0.1,0.4c0,1.2,1.3,1,1.3,2.5c0,0.7-0.3,1-0.3,1.8
				c0,0.6,0.4,1,0.4,1.5c0,0.1,0,0.2,0,0.4l-0.3,0.6c0,0.2,0.3,0.6,0.7,0.7c-0.4,1.9-2.2,1.4-3,2.9c-0.6,1.1-1,3-2.9,3
				c0.3,3.1-1.5,2.8-1.5,4.4c0,1,0.1,2.4,1.1,2.4c0.5,0,0.4-0.3,1,0.1c-0.3,1.1-1.5,1.4-2.2,2.4c-0.3,0.3-0.8,1.3-0.8,2.1
				c0,1.3,1,2.6,1.7,3.4c0.3,0.3,0.8,0.1,1,0.6c0.2,0.5,0.3,1.5,0.8,1.9c0.2,0.2,0.7,0.1,0.9,0.5c0.6,1.3,1,2.2,1.5,3.8
				c0.5,1.5,1.9,2.8,2.4,4.4c0.3,1,1.3,1.5,1.3,2.6c0,0.8-0.3,1.6,0.3,2.2c1.3,1.3,2.2,2.2,4.2,2.9c1,0.3,1.4,0.6,2.2,1.4
				c0.8,0.8,1.5,0.6,2.6,1.1c1.2,0.6,2.4,1.7,3,3.3c0.2,0.8,0.7,4.9,0.7,5.6c0,1.1-0.5,3-0.5,4c0,0.9,0,0.9,0,3.1c0,0.7,0,1.9,0,2.4
				c0,0.2,0,0.4,0,0.6c0,2.4-2,4.1-2,6.7c0,1.1-0.9,2.1-0.5,3.3v5.2c-0.4,1.7-0.5,2.8-1,4.4c-0.1,0.3-0.4,0.2-0.6,0.5
				c-0.3,0.5-0.5,1.5-0.8,2c-0.6,1-1.6,2.6-1.6,4.2c0,0.5,0.1,2.4,0.3,2.4c0,0,0.4,0.3,0.4,0.8c0,0.2-0.2,0.4-0.7,0.4
				c-0.2,1.2-0.7,1.8-0.7,3.1c0,0.8,0.4,2.4,1,2.4c0.5,0,0.2-0.6,0.7-0.8c0.2-0.1,0.3,0,0.3,0v1l-1.9,10.3c-1,0-0.4-1.4-1.6-1.4
				c-0.3,0-0.5,0.6-0.5,0.6h-1.1v1c0,0.8,1.5,1.9,1.5,2.4c0,1.1-1.6,1.6-1.6,2.9c0,1.2,1.1,3.6,1.1,5.1c0,0.3,0,0.5,0,1
				c0,1.5,2.1,1.2,2.1,2.9c0,0.4-0.2,0.8-0.4,1.2c0.2,0.1,0.4,0.3,0.6,0.3c-0.1,0.6-1.3,0.6-1.3,1.2c0,0.1,0.4,0.5,0.6,0.7
				c0.9,0.9,1.5,2,3.4,2c0.1,0.3,0.2,1.1,0.8,1.1c0.5,0,0.8,0,1.3,0c0,1,1.5,0.9,2.6,1.2c1.1,0.4,0.6,1.9,2.2,1.9c0.7,0,1.2,0,1.9,0
				c0.2,0,0.5,0,0.7,0c0.3,0,0.3,0,0.8,0c0.6,0,2.4-1.2,3.4-1.2c0.4,0,0.8,0.2,1.1-0.2c-1.9-0.9-3.8-1.5-5.3-3
				c-0.9-0.9-0.8-4.1-2.1-4.8c-0.4-0.1-1-0.9-1-1.6c0-1.3,0.4-2.3,1.2-3.1c0.6-0.6,1.7-0.2,2.2-1.2c0.4-0.9,0.2-1.8,0.8-2.4
				c1-1,2.7-1.2,2.7-3.1c0-2.2-3.1-1.2-3.1-3.9c0-1.2,1-2.2,2.1-2.4c0.5-0.1,1.7-0.1,1.9-0.9c0.4-1.7,0.4-3,1.7-4.2
				c-0.3-0.1-0.8-0.3-0.8-1c0.7,0,1,0.6,1.8,0.6c0.1,0,0.7-0.5,0.7-0.9s-0.3-0.4-0.6-0.7c-0.2,0.1-0.6,0.5-1,0.5
				c-0.6,0-1.5-1.8-1.5-2.8c0-0.3,0.2-0.8,0.7-0.8c1.4,0,1.6,1,3.1,1c0.5,0,1.5-0.5,1.5-0.8c0-0.2,0-0.5,0-0.7c1-1-0.2-3.1,0.7-4
				c0.6-0.6,3,0.1,4.1-0.2c1.7-0.6,3.1-0.2,4.3-1.4c0.7-0.7,1.2-1.1,1.8-2.1c0.3-0.6,0.3-1,0.3-1.9c0-0.8-1.1-0.8-1.3-1.5
				c-0.3-0.8-0.3-1.6-0.8-2.2c-0.2-0.2-1.3-0.6-1.3-1.2c0-0.2,0.4-0.3,0.6-0.3c1,0,1.9,0.8,2.9,0.8c0.5,0,2,0.8,3.2,0.8
				c3.2,0,3.7-3.5,5.1-5.6c1.2-1.8,2.8-2,4-3.9c0.6-0.9,1.2-1.4,1.2-2.3v0.1c1-1.5,1-2.6,2.1-3.3v-3.3c0-1.3,0-2.3,0.9-3.2
				c0.6-0.6,1.5-0.6,2.1-1.5c1.2-1.9,3-1,4.7-2.6c0.2-0.2,0.3-0.6,0.7-0.8c1-0.5,2.1-0.4,3.4-0.4c1.2,0,2.6-1,3.1-1.8
				c0.1-0.3,0.1-1.1,0.4-1.5c1-1.4,1.4-2.1,2.4-3.7c0.1-0.3,0.4-1.7,0.4-2.4c0-0.6,0.6-1.3,0.9-1.6c0.1-0.2,0.4-0.5,0.4-0.8
				c0-0.9,0.5-2.1,0.5-3.3c0-1.7-1-3.9,0-5c0.7-0.7,1.5-0.8,2.2-1.9c0.4-0.6,0.7-0.8,1.1-1.4c1.9-2.8,4.7-4.2,4.7-9.4
				C367.1,313.8,366.8,312.3,365.4,311.9z"/>
			<path class="st3" d="M280.3,251.1c0,0.6,0,1.3,0.7,1.3c0.1,0,0.3-0.2,0.3-0.3c0-0.5-0.2-0.9-0.8-1H280.3z"/>
			<path class="st3" d="M280.3,247.2c-0.3,0-0.8,0.3-1,0.6c0.4,0,1.1,0.1,1.8,0C281,247.5,280.8,247.2,280.3,247.2z"/>
			<path class="st3" d="M282.4,248c-0.1,0.2,0.1,0.6,0.3,0.6L282.4,248z"/>
			<path class="st3" d="M290.8,259.1v-0.6c-0.3,0.4-0.8,0.8-1.4,0.6c0,0.1,0,0.3,0,0.4s0.2,0,0.3,0
				C290.1,259.5,290.6,259.3,290.8,259.1z"/>
			<path class="st3" d="M173.2,180.5c0.3,0,0.6-0.2,0.6-0.7c0-1.5-1.9-1.7-1.7-3.6c-1.5-0.3-1.8-0.3-1.8,1.4c0.8-0.6,0.4-0.2,1.5,0
				c-0.2,0.3,0,0.9,0,1.4C171.8,179.1,172.6,180.5,173.2,180.5z"/>
			<path class="st3" d="M168.2,173.6c-0.1,0.1-0.7,0.2-0.7,0c-0.3-1.1,0-1.1,0-2.9c-1,0.6-0.3,0-1.6,0c-0.3,0-0.8,0.1-0.8,0.7
				c0,1,0.8,1.9,1.9,2.1c0,1.1,0.3,1.9,1.1,2.8C168.8,175.5,168.1,174.6,168.2,173.6z"/>
			<path class="st3" d="M232.6,133.6c1.3,0,1.5,0.3,2.8-0.6c-1.3-1-7.2-2.6-7.2-4.8c0-1.8-1.9-3.4-1.9-5.9c0-0.6,1.5-1.3,1.5-2.3
				s-1.2-1.5-2.4-1.5c-1.1,0-2.1,0.5-2.1,1.2c0,0.2,0,0.5,0.1,0.7c-1.1,0.6-0.7,0-1.9,0c-0.6,0-1.3,0.3-1.3,0.9s1,3.9,1.6,4.8
				c-0.3,0.3-0.3,0.6-0.9,0.6c-1.3,0-0.8-1.9-1.2-2.7c-0.3-0.8-1.3-1.1-2.3-2.1h-1.5c0.1,1,0.3,0.8,0.3,1.4
				c-0.8,0.2-1.3,0.4-2.1,0.6c-0.5-1.2-1.2-2-3.1-2c-1.1,0-1.6,0.9-2.2,1.3c-0.3-0.4-0.2-2.4-1.2-2.4c-2.5,0-8.8,2.5-8.8,5.9
				c0,0.3,1.3,1.4,2.1,1.4c0.9,0,1.3-0.2,2.4,0.1c-0.8,0.5-2.8,0.1-2.8,1.7c0,1.9,3.8,1.5,5.4,1.5c0.7,0,2.4,0,3.7,0
				c0.7,0,1.3,0.2,1.7,0.5c-0.8,0.1-1.3,0-2.3,0c-2.9,0-5.1,0.3-6.7,1.5c0.5,0.8,1.7,2.4,3.3,2.4c1,0,3.1-0.4,3.8,0.2
				c0.8,0.6,0.1,1.6,1.3,1.6c1.9,0,3.1,0,6.3,0c1.5-1,3.2-0.3,5-1.2c1-0.5,0.6-1.2,1.8-1.2c2,0,3,2.1,5.7,2.1c1.7,0,3.3,0.1,4-1.2
				c-0.3-0.2-0.6-0.4-0.7-1c-0.3,0-1,0-1-0.6C231.7,133.8,232,133.6,232.6,133.6z"/>
			<path class="st3" d="M188.7,126.9c0.2,0.3,0.7,1.4,1,1.4c0.4,0,0.6,0.7,1,0.7c0.6,0,5.4-1.7,5.4-2.3c0-1.6,3.1-4.5,5.2-5.2
				c0.7-0.2,4.4-0.8,4.4-1.5c0-1.6-3.4-3-4.9-3c-0.9,0-1.7,0.8-2.4,0.2c-1.5-0.1-2.2-1-3.8-1.4c-1.3-0.3-1.9,0.5-2.8,0.5
				c-1.7,0-2.4-0.7-4.2,0c0.1,0.8,1,1.9,1,2.4c0,2.5-3.5,4.4-3.5,6.8C185.4,126.3,188.2,126.1,188.7,126.9z"/>
			<path class="st3" d="M207.7,110.1c-0.2,0-0.7-0.1-1.1-0.2C206.9,110,207.3,110,207.7,110.1L207.7,110.1z M205.8,108.6
				c-0.1,0-0.1,0-0.2,0c-0.6,0-1.1,0.4-1.4,0.8c0.2,0.1,0.5,0.1,0.7,0.2c-0.2,0-0.3-0.2-0.3-0.2h-1.7v1.2c0,0.1,0.8,0.2,1,0.3
				c-0.2,0-0.4-0.1-0.6-0.1c-0.7,0-1,0.6-1.7,0.7c0.3,0.5,0,0.3,0,1c0,0.6,0.5,1,1.1,1c0.5,0,1.5,0.5,2.4,0.5c0.8,0,1.7-0.3,2.9-0.5
				c0-0.4,0.3-0.8,0.8-0.9c0.1,0.7,0.8,1,1.2,1.6c-0.9,0-1.9-0.2-1.9,0.8c0,0.4,1.1,1,1.9,1c1.7,0,3.1-0.5,4.5-1
				c0.2-0.1,4.7-1,4.7-1.2s4.1,0.3,4.5,0.1c0.6-0.2,2.3-2.3,2.3-3.3c0-0.8-0.8-1.7-1.6-1.7c-0.9,0-1.2,0.8-1.9,0.8
				c-1.3,0-2.6-1.5-2.6-2.6c0-0.1-0.1-0.3,0-0.9c-0.5,0-0.9-0.2-1.3-0.5c-0.7,0.6-2.7,1.1-2.7,2.2c0,0.6,1.5,1,1.5,1v0.9
				c0,0-0.4,0.1-0.5,0.3c0.3,0.1,0.7,0.2,1.5,0.2c-0.3,0.6-0.6,1.2-1.5,1.2c-3.1,0-4.5-2.4-6.6-2.4c-0.1,0-0.8,0-1.6,0
				c-0.1-1-0.9-1.3-1.2-1.3c-0.6,0-1-0.3-2.3-0.1C205.2,108.3,205.4,108.4,205.8,108.6z"/>
			<path class="st3" d="M198.1,111.2c0,0.5,0.6,0.8,1.2,0.8c0.9,0,1.9-1.5,2.1-2.4C200.7,109.5,198.1,110.1,198.1,111.2z"/>
			<path class="st3" d="M207.9,108.4h1.2v-2.1H207C207,106.3,207.5,108.4,207.9,108.4z"/>
			<path class="st3" d="M193.1,109.6c0.7,0,1.1,0.4,1.9,0c0.1,0.3,0.6,1,1.2,1c0.8,0,1.3-0.8,1.5-1.5c1.2,0.1,2.2-1,2.4-2.2
				c0.6,0.3,0.6,1.9,1.7,1.9l3-2.2c0-0.6-0.5-0.7-0.6-1.4c0.5-0.1,0.9-0.6,0.9-1.1c0-1.2-4.2-0.1-4.2-0.1c-0.6-0.1-0.7-0.1-1.3-0.1
				c-1.9,0-2.3,1.8-3.6,2.6c-1.2,0.7-2.2,0.8-3.3,1.4c-0.3,0.1-1.5,1.1-1.5,1.3c0,0.2,0.6,0.6,0.7,1
				C192.4,110.1,192.6,109.6,193.1,109.6z"/>
			<path class="st3" d="M212.9,100.1c1.5,0,1.1,0,3,0c0.8,0,1.3-0.3,1.9-0.5c-0.3-0.9-1.5-1.7-2.9-1.7c-0.9,0-5.1,1.6-5.1,2.5
				c0.6-0.1,0.8-0.7,1.4-0.7C211.8,99.7,212,100.1,212.9,100.1z"/>
			<path class="st3" d="M215.7,100.8c-1.5,0-5.7,0.1-5.7,1.7c0,0.6,1.2,2.3,2.2,2.3c1.5,0,3.8-0.6,3.7-1.6H214c1,0,2.2-0.7,3-1.3
				C216.7,101.6,216.4,100.8,215.7,100.8z"/>
			<path class="st3" d="M208,103c0.5,0,0.7-0.4,1-0.8c-0.4-0.2-2.4-1.9-2.4-0.2C206.6,102.3,207.4,103,208,103z"/>
			<path class="st3" d="M242.6,123c0-0.7,0.2-0.1,0.2-1c0-0.8-2-0.1-2.6-0.1c0.5-0.6,2.2-1.2,2.2-2.6c0-0.3-0.5-0.7-0.7-0.7
				c0,0-1.5,0-2.8,0c-1.5,0-3.1-0.3-4.2,0.8c-0.1,0.2-0.8,0.3-0.8,0.5c0,0.9,0.9,0.8,1.9,0.9v1.9c0,0,0.3,0-0.4,0
				c-1.2,0-2.7-0.9-2.7-0.9v1.2c1,2,3.9,1.7,5.9,3.7c0.4,0.4,0.4,1.2,1.4,1.2c0.6,0,0.7-0.8,1.3-1c2.2-0.8,2.4,0.2,2.8-3.6
				C243.8,123.2,242.9,123.1,242.6,123z"/>
			<path class="st3" d="M228.9,108.4c-0.3,0-0.6,0-0.8,0c0,0,0.4,0,0.5,0.2l0.2-0.7v1.3c0,0.4,0.8,0.9,1.5,0.7v0.7h1
				c0,0,0.3,0.9,0.8,0.9c1.4,0,3.8-0.7,5.1-0.7c0.3,0,0.6,0.1,0.8,0.2c-0.4,0.4-1.7,0.4-1.7,1c-0.1,0.2-0.1,0.5,0,0.7
				c-0.3,0.1-0.5,0.4-0.5,0.7c0,0.6,1.8,0.4,2.2,0.4c0.2,0,1.7,0,2.8-0.4c-0.3-1.9,0.6-2.8,0.6-4.4c0-1-0.1-1.7-1.4-1.7
				c-0.6,0-0.8,0.6-1.4,0.6c-1.3,0-2-0.7-3.1-0.7c-0.5,0-1.1-0.1-1.6,0.1c0.3,1,1.1,1,2.1,1v1.5c-1,0-2.1-1.5-3.1-1.5v0.8
				c0,0.3,0.8,1.4,1.3,1.8C232,111.3,230.9,108.4,228.9,108.4z"/>
			<path class="st3" d="M239.7,135.7c-0.3,0.1-1.5-0.2-1.5,0.3c0,0.2,5.1,2.1,6.1,2.1c0.8,0,1-0.7,1.7-1.1c-0.4-1-3.3-3.5-4.3-3.5
				C240.2,133.5,240.5,135.4,239.7,135.7z"/>
			<path class="st3" d="M249.1,117.1c-1.5,0-1.8,1.2-1.8,1.3c0,0.2-1,1.4,0,1.4c-1,0-2.1,0-2.1,0v0.3c0,1.4,0.2,1.9,1.3,3.1
				c-0.1,0.3,0.1,0.8,0.1,1.8h1.4c0.8,0,1.4-1,1.6-2.1h-0.9c0.4-1,0.4-0.3,1.9-0.3c2.1,0,3.1-1.4,4-2.7c0,0,1.3-0.9,1.3-1
				c0-0.3,0-0.5,0-0.9C253.4,117.9,251.5,117.1,249.1,117.1z"/>
			<path class="st3" d="M227.1,105.1c0.5,0,0.9-0.3,1-0.8c-1.5-0.5-1.6-1.9-3.4-1.9C224.7,103.2,226.4,105.1,227.1,105.1z"/>
			<path class="st3" d="M226.8,113.6c0.6-0.1,0.7,0.1,1.4,0.1c0.4,0,1-0.1,1-0.9c0-0.5-0.3-0.7-0.5-1
				C227.8,112,227.1,112.4,226.8,113.6z"/>
			<path class="st3" d="M226.8,96.9c-0.1,0.3-0.3,0.6-0.5,0.7c0.6,0.4,0.9,0,2.4,0c-0.1,0.2-0.1,0.6,0,0.8c-0.8,0.3-1.5,0.2-2.1,0.8
				c0.6,0.6,0.9,0.6,1.9,0.6s1.9-0.4,2.3,0.3c1.3-0.1,2,0.3,3.3,0.3c1.6,0,1.5,1.7,3.1,1.7c0.6,0,1.3-0.2,1.3-0.9
				c0-0.8-1.4-1.3-1.9-1.9c0.1-0.2,0.4-0.5,0.6-0.7c-0.3-0.3-1.1-1.6-2.1-1.6c-0.4,0-0.6,0.6-1,0.6c-0.8,0-0.7-1.6-2.1-1.6
				c-0.6,0-0.8,0.6-1.4,0.6c-0.8,0-1.2-1.2-2.6-1.2c-0.8,0-1.4,0.4-2.2,0.6C225.6,96.7,225.8,96.9,226.8,96.9z"/>
			<path class="st3" d="M234.2,101.8c-0.6-0.2-0.8-0.6-1.6-0.6c-0.3,0-1.9,1-0.6,1C233,102.3,233.8,102.3,234.2,101.8z"/>
			<path class="st3" d="M258.6,114.6h0.8c-0.1,1,2,1,3.5,1h5.6c0.6,0,0.8-0.7,1.7-0.8c0.1,0.5,0.5,1.1,1.4,1.1c2.4,0,5.6,0,5.8-2.4
				c0,0-0.4,0.1-0.9-0.1c0.1-0.3,0.2-0.5,0.3-0.6c0.2,0,0.5-0.1,0.6-0.1c-1-1.8-2.8-1.9-5.6-1.9c-3.6,0-4.9,1.7-8.7,1.7
				c-1.7,0-3.1-0.4-4.8-0.8c-0.3,0.2-1.1,0.6-1.1-0.4c0-0.2,0.4-0.1,0.5-0.3c-1-0.8-2.7-0.5-3.1-1.5h2.8c-0.6,0-3.8,0-3.3-1
				c0,0-0.8,0-1.3,0c-0.3,0-0.7,0-1.4,0c-2.4,0-2.9-2.7-6-2.7c-0.8,0-2.1-0.1-2.1,0.9c0,0.6,4.2,2.4,5,2.4c0.6,0,1-0.3,1.4-0.7
				c1.2,1.2,1.5,2.3,2.8,3.5c-0.3,0.1-0.8,0.6-0.8,1.1c0,1.4,3.5,3.1,5,3.1C257.3,115.8,258.4,114.6,258.6,114.6z"/>
			<path class="st3" d="M249.7,113.3c0-0.9-1.7-2.3-2.9-2.3c-1.6,0-1.3,1.6-2.1,1.6c-0.1,0-0.9,0.4-0.9,1c0,0,4,1.9,4.5,1.9
				C249.3,115.5,249.7,114.5,249.7,113.3z"/>
			<path class="st3" d="M249.4,103.2c0-0.1,0,0,0-1c0,0,0.2,0-0.6,0c-1.3,0-3.7,0.2-4.4,0.9c0,0,3.8,0.8,4.2,0.8
				C249.2,103.9,249.4,103.6,249.4,103.2z"/>
			<path class="st3" d="M242.6,100.8c-0.2,0.1-0.7,0.3-0.7,0.7c0,0.8,2.4,0.6,4.9,0c-0.2-0.8,0-1.3,0-1.7c0-1.5-2.4,0.1-2.4-1.6
				c-0.8,0-2.2-0.5-2.4-1c-0.7,0.1-1.6,0.3-1.6,1C240.3,99.5,241.8,99.9,242.6,100.8z"/>
			<path class="st3" d="M239.2,93.9h0.9v-1.5c0,0-1.4,0-2.3,0C237.8,93.3,238.7,93.9,239.2,93.9z"/>
			<path class="st3" d="M248,93c-0.6,0-1.7-0.1-2.1-0.1h-1c0.2,1,1.7,1.7,4,1.7c-0.4,0.6-0.9,0.3-1.6,0.6c0,0.4,0.1,0.6,0.6,0.6
				c0.6,0,0.8-0.3,1.5-0.6c0.2,0.4,0.3,0.9,1,0.9c0.8,0,1-0.6,2.1-0.6c1,0,1.8,0.3,2.9,0.5c-1,0.2-5.3,0.1-5.3,1.4
				c0,1,1.9,1.7,3.1,1.7c-0.2,0.2-0.4,0.4-0.9,0.5c0.1,1,1.7,1.3,2.8,1.3c1,0,1.4-0.3,1.4-1.6c0.6,0.4,2.3,1.3,2.3,1.3v-1.4h1.7
				c-0.2,0-0.5-0.5-0.9-1.2c0.3-0.3,0.5-0.6,0.8-0.9c0.2,0.8,0.2,1.4,1.1,1.4s1.9-2.1,3.3-2.2c0.6-0.1,1.3,0.1,1.6-0.3
				c0.2-0.3,0.1-0.1,0.1-0.6c-0.9-0.1-2.7-0.4-3.4-0.4c-0.1,0-1.2,0-1.2,0c0-1,0.5-1,0.5-1.5s-0.8-0.7-0.8-1.2
				c0-0.8,0.1-1.4-0.9-1.4c-0.2,0-0.5,0-0.7,0l-0.1,0.4V93h-0.4c-0.6-2.1-0.2-1.9-1.3-2.3c-1-0.4-1.7,0.1-2.8-0.3s-0.8-2.5-2.2-3.1
				c-1.3-0.5-2.6-0.7-4.4-0.8c0.1,1,1.3,1.4,2.1,1.4h-1.2c-1.3,0-1.8,0.1-2.6,0.6c0,0.1,0.6,1.1,0.9,1.1c0.4,0,1.3-0.4,1.9,0
				c-0.2,0.2-0.3,0.7-0.8,0.7c-0.6,0-0.9-0.5-1.9-0.5c-0.6,0-1.6-0.1-1.6,0.7c0,0.8,2.2,1.5,3.1,1.8C248.6,92.2,248.3,93,248,93z"/>
			<path class="st3" d="M273.4,152.2c-0.3-0.3-0.1-0.8-0.5-1.3c-1.3-1.7-3.5-1-4.9-2.8c-0.2,0.1-0.4,0.3-0.6,0.6
				c-0.3-0.7-0.8-0.9-1.1-2c-1.9,0.2-2.4,3-2.4,4.2c0,0.6,0,0.4,0,1c0,0.4-0.3,0.6-0.6,0.9c-0.1,0.3-0.9,0.2-1,1.4
				c0.6-0.1,1.9-0.3,3,0c-0.1,0.7-0.3,1.4,0.5,1.4c0.3,0,0.4-0.2,0.6-0.6c1,0.4,3.3-0.8,3.3-2.3c0.4,0.1,2.6,2,2.6,2
				c0.7,0,1,0,1.9,0c0.9,0,1.5-0.6,2.3-1C275.7,153,274.5,153.1,273.4,152.2z"/>
			<path class="st3" d="M286.6,140.4c0-3.1-4.3-3.1-4.3,0c0,1,0.7,1.5,1.7,1.5C284.9,141.9,286.6,141.4,286.6,140.4z"/>
			<path class="st3" d="M271.3,156.2c-0.1,0.4-1.2,1-1.2,1.7v0.9c1-0.1,2.7-1.5,3.3-2.4C272.5,156.1,272.6,156.1,271.3,156.2z"/>
			<path class="st3" d="M278.5,122.7c1.2,0,1.8-0.7,2.6-0.7c0.8,0,1.2,0.5,2.1,0.5c0.6,0,1-0.5,1.3-1.1c-1.3-0.6-2.9-2.2-4.7-2.2
				c-1.5,0-1.9-0.6-3.5-0.6c-0.6,0-1.2,0.3-1.2,1c0,0.8,0.8,1.1,1.4,1.5C275.9,122.3,277.1,122.7,278.5,122.7z"/>
			<path class="st3" d="M276.9,160.2c0.7,0,0.8-1,1.3-1.5c-0.7-0.8-2.3-0.8-2.3,0.5C275.8,159.2,276.7,160.2,276.9,160.2z"/>
			<path class="st3" d="M289.6,140.3c-0.2-0.3-0.8-1.1-1.4-1.1c-0.1,0-0.9,0.5-0.9,0.7c0,0.4,0.4,0.6,0.9,0.6
				C288.9,140.4,288.7,140.5,289.6,140.3z"/>
			<path class="st3" d="M279.8,135.1c-0.8,0-2.4,1.6-1.6,1.6C279.1,136.7,279.6,136,279.8,135.1z"/>
			<path class="st3" d="M295,128.5c0.2-1.2-1.7-1.6-2.5-1.6c-0.5,0-0.7,0-1.7,0c-2.3,0-2.8-2.2-4.3-3.3c-0.9-0.6-3.9-0.9-5.2-0.9
				c-1.3,0-1.6,1.8-2.8,1.8c-0.6,0-1-0.7-1.7-0.7c-0.7,0-1.5,0.7-1.5,0.7s0-1.1,0-1.4c0-1.5-0.8-4-2.6-4c-2.8,0-7.4,0.8-7.4,3.5
				c0,0.7,0.7,1.2,0.7,1.9c0,0.6-1,1.4-1.4,1.4c-0.8,0-0.7-0.6-0.7-1.2c0,0-0.1-0.8,0-1.3c-0.3,0-0.6-0.3-0.6-0.7c0-2,2.3-2.2,3-3.6
				c-0.1,0-2.3-0.7-2.3-0.7c-2.4,0-4.2,1.2-5.6,2.6c-0.3,0.3,0.1,1.5-0.5,1.9c-1,0.8-1.4,1.2-1.4,3.1c0,0.6,0.7,1.9,0.7,1.9
				s3.5,0.3,3.5,0.7v0.9c-1-0.1-1.9-0.8-2.8-0.4c0.1,1,1.5,1.9,1.9,1.9h3.3c0.4,1,1.5,1.6,2.1,1.6c3.1,0,8.4-0.1,10.6,0.1
				c-0.1,0.5-0.3,1.7,0.6,1.7c1.3,0,2.4-2.6,3.3-2.6c0.8,0,4.5,3.2,5.1,3.8c-0.4,0.1-1.7,0.2-1.7,0.9c0,0.1,0.3,0.8,0.6,0.8
				c0.9,0,1.3-0.8,2.2-0.8c1.5,0,5.9,3.4,5.9,5.2c0,1-1.5,2.5-2.1,3.1c-0.5,0.5-1.7-0.1-1.7,1c0,0.6,0.9,1.4,1.2,1.6
				c-0.8,0.6-2.5,1.1-3.1,1.1s-1.7,0-3,0c-1,0-2.8,1.1-2.8,1.7c0,1,2.2,1.9,3,1.9c0.8,0,1.3-1.1,2.1-1.1c0.6,0,0.5,0.5,1.2,0.5
				c0.6,0,1-0.6,1.4-1.1c2,1.2,3.1,2.5,5.4,3.5c-1.2,2.2,3,2.2,4.7,3.1c1.7,1,3.1,0.6,5.1,1.6c0.2,0.1,0.3,0.8,0.7,0.8
				c0.3,0,0.7-0.9,0.7-1.4c0-1.9-3.9-2.3-5.1-5.4h1c0.8,2.1,5.2,3.2,6.5,3.4c0.3-0.8,1-1.8,1-2.5c0-0.8-1.2-1.1-1.2-1.6
				c-0.1-0.3-0.1-0.3,0-1.4c-0.5,0-0.5,0-1.2,0c-0.1,0-0.6-0.2-1.9-0.6c-0.6-0.2-1.4-1.4-1.5-2.5h-1.1v-1.2c0,0.2,0,0.1,1,0v-0.8
				c-1,0.1-0.7,0.2-1.3-0.1c0.1,0,1-0.8,1.4-0.8c3.3,0,3.5,4.7,7,4.7c0.8,0,0.9-1.2,0.9-2c1.3,0,1.5-0.6,1.5-0.8
				c0-0.4,0.1-0.1,0-0.9c0.9,0,2.1-0.3,2.1-1.2c0-1.1-0.6-1.6-1.9-1.6c-0.3,0-0.9,0-1.3-0.3c-0.6-1.3-0.9-0.3-2.4-0.3
				c-1,0-1.4-1.2-1.5-2.4c-1.5-0.1-3.3-0.8-3.5-2.4c-0.9,0-1.3-0.2-1.9-0.6c0.6-1,1.2-1,2.3-1.6c-0.2-0.4-0.7-0.6-1-0.6
				c-0.6,0-0.9,0-2.1-0.1c0.6-0.8,1.5-0.6,2.4-0.8c-0.4-1-1-1.5-1.9-1.5h-0.8v-1.5C297.9,130.5,296.9,129.2,295,128.5z"/>
			<path class="st3" d="M280,154.9c0.7,0.6,0.9,0.6,1.6,0C280.8,154.5,280.7,154,280,154.9z"/>
			<path class="st3" d="M268.4,146.5c-0.1,0.5,0.5,1,1.4,1.1C269.3,147,269.3,146,268.4,146.5z"/>
			<path class="st3" d="M255.6,84.6h2.1c-0.8,0-1.2,0.6-1.9,1.3c0.1,0.1,0.9,0.6,1.3,0.6c1.3,0,1.4-1.2,2.8-1.2c0.6,0,0.8,0,1.4,0.2
				c-1.8,0.6-3.5,0.4-4.3,2.2c0.6-0.1,1.9,0,3.3,0c-0.9,0.1-1.4,0.4-1.9,0.8c0.5,0.6,2.4,1.3,3.8,1.3c0.6,0,1,0.2,1.5-0.9h0.9
				c-0.4,1,1.4,1.6,2.8,1.6c0.6,0,0.8-0.6,1.4-0.6c0.7,0,1.1,0.6,2.4,0.6c2.2,0,3.8-0.5,5.2-1.6h1c-0.8,1-2,1-3.3,2.1h-3.5
				c-0.1,0-0.5,0.4-0.5,0.6c0,0.4,2.2,1.8,2.6,2.1c-2,0.2-2.6-1.8-4.3-2.4c-1.4-0.4-2.9-0.1-3.7-0.1c-0.3,0-0.7-0.1-1,0
				c0.1,0.6,0.3,0.8,1,0.8c-0.7,0-1.7-0.1-1.7,0.6c0,1.3,4.7,1.3,4.7,3.5c0,1.9-2.6,1.3-4.3,1.9c-1,0.3-1.6,1.1-2.6,2.3l0,0h2.1
				c0.3,0,0.3,0,0.7,0h1c0,1,2.2,3.1,3.1,4.1h-1.3c-1.3-1-2.1-2.1-4.3-2.1c-0.7,0-1.7-0.4-1.7,0.6c0,1.2,1.5,1.4,2.3,2
				c-1.5,1-5.1,0-5.1,2.8c0,0.2,0.2,0.5,0.7,0.5c0.3,0,0.6-0.4,0.8-0.7c2.4,0.8,4.3,1.5,6.6,1.5c1,0,1.5-0.6,2.1-0.6
				c1.7,0,3.2,0,5.2,0c1.4,0,0.7,0.9,2.3,0.9s5.6-1.2,5.6-2.4c0-0.6-0.8-0.5-1-0.5c-0.5,0-0.7,0-1.7,0c0-2.1,2.9-1.5,2.9-3.7
				c0-0.4-0.3,0.6-0.5-1.5c0.6,0,0.5,0,3.5,0c1.2-1,1.7-2.2,3.1-2.9c-0.4-1-1.2-0.9-2-1.4c1.3,0.1,2.2-0.9,2-0.9h-1.9
				c1.1-1,2.9-1.2,4.4-1.7c1.1-0.3,2.6,0.4,3.6-0.3c2.1-1.5,3.7-4.3,6.5-5.2c2.5-0.8,6.4-1.8,8-3.4c-1.7-0.1-4.5,0.5-5.2-0.2
				c3.7-1.8,7.1-0.6,9.9-2.6c0.5-0.3,1.7-0.1,1.7-1c0-1.3-3.7-0.9-4.5-1.7c-0.4-0.4-0.4-1-1.2-1.2c-0.5-0.1-0.8-0.3-1.3-0.6
				l-5.6,1.6c0.6-0.1,0.8,0.1,1.2-0.4c-1.4-1.4-7.4-0.8-9-0.8c-0.7,0-1.1,0-2,0c-0.6,0-1-0.9-2.1-0.9c-1,0-1.3,1-2.2,1
				c-1,0-1.4-0.7-2.6-0.7c-0.3,0-0.7,0.6-0.8,0.6c-3.6,0-4.4,0-8,0c-0.7,0-1.3,0-1.6,0.7c-0.9,0.8-0.2,0-1.4,0c-2,0-2.9,1.4-3.5,3.1
				c-0.6-0.2-3.3-1.6-4.7-1.6c-1.5,0-0.6,1.4-2.8,1.4c0,0.3-0.3,0.5-0.6,0.5c-0.1,0-0.7,0-1.5,0c-2,0-6.5,1-7,2.1c0.4,0,1.3,0,1.5,0
				C254.8,84.6,255.2,84.6,255.6,84.6z"/>
			<path class="st3" d="M391.5,131.9c-1.5-0.5-7.6-0.2-7.6-2.3c0.3-0.1,1.5-0.3,1.5-0.9c0-0.6-0.7-0.8-0.7-1.7c0.3,0.2,0.7,0,1,0
				c2.9,0,2.2,3.5,5.4,3.5c0.8,0,1.8-0.1,1.8-0.8c0-4-4-5.1-7.1-7.6v-1c0,0,0.5,0.1,1,0c0.4,1.3,2.6,3.1,3.9,3.1
				c0.8,0,1.1-0.7,1.1-1.6c0-1.9-3.1-1.7-3.8-2.8h1c0.6,0,1.3,0.7,2.1,1.2c0.6-1.5,3.3-0.7,3.8-2.8c-0.3-0.1-0.7-0.7-0.7-1.1
				c1.3-0.1,2.7-0.8,3.1-1.9c-0.8-0.3-2.8-0.2-2.8-1.4c0-0.9,1.1-0.9,2.2-0.9c-0.3-0.4,0-1,0-1.5c0-1-1-1.5-1-3c-1,0-2.2,0-2.2-1.2
				c0-0.5,0.6-1,1.4-1c1.3,0,4.9,0.6,4.9-1c0-1.7-2.7-1.3-3-2.4c0.4,0,0.9-0.2,1.3-0.4c-0.7-0.6-1.7-1.3-2.8-1.3
				c-0.8,0-1.3,0.3-2.1,0c0.4-0.7,0.3-2.4,1.2-3c1.3-1,2.8-1.5,2.8-2.9c0-0.3,0.1-0.3,0-1c1.3-0.4,3.1-0.6,3.1-1.7
				c0-0.7,0.5,0.1,0-0.9c1.3-0.3,3.1-0.3,3.1-2.2c-0.6,0.4-0.6,0.4-1.5,0c3.1,0,4.6-2,6.9-2.8c0.4-0.1,1.7-0.8,1.7-1.6
				c0-0.9-3.3-2.7-4.2-2.7c-0.7,0-1.2,0.6-1.4,0.6h-3.3c-1.1,1-1.3,0.8-2.6,1.3c-0.3,0.1-1.6-0.3-1.6-0.3s-2.9,0-4.7,0
				c-1.1,1-4.6,5.8-6.4,6.2c0.2-0.7,4.7-5.3,4.7-5.9c0-1-0.5-2-1.7-2c-2.3,0-6.4,4-8.2,4c-0.6,0,2.5-2.9,2.6-3.5
				c-1.3-0.5-12.9,0.9-14.1,0l15.3-0.8c1.9-0.7,6.6-0.3,7-2.8c-1.7-0.4-4.2,0.1-6.1-0.6c-3.3-1.4-6.3-4-10.4-4c-3.5,0-6.2,0-10.1,0
				c-3.5,0-5.9,1.9-9.2,1.9c-1,0-2.4-0.2-2.4-0.1v1.3h-2.2c-1.5,0-2.6-0.7-4.3-0.7c-2.3,0-4,0.4-5.9,1.3c0.3,0.5,0.9,0.5,1.4,1
				c-0.6,0.1-2.8-0.2-2.8,0.8c0,1.3,2.9,1.7,4,2.8h-3.1c-1.7-1-3.4-2.4-6.3-2.4c-0.7,0-1.7,0.1-1.7,0.9c0,0.6,0.3,0.5,0.6,1.5
				c0,0-0.7,0-1,0c-1.4-1-2.6-0.4-3.3-1.8l-0.7,0.7c0,0.5,0.4,0.9,0.4,1.4c-1.3,0-1.7-2.1-2.9-2.1c-1.9,0-3.3,1.1-5.2,1.6
				c-2.6,0-3.7,0.7-6.5,1c-2.2,0.3-0.3,3.5-2.8,3.5c-0.7,0-1.3-0.1-1.8-0.6c-1.4,1.4-4.5,3.1-6.9,3.8c-0.3,0.1-1.4,0.4-1.4,1
				c0,1.3,4,1.3,5.2,1.4c0,1.7-0.8,3-1.9,3.7c-1.5,0.9-4-0.1-5.9,0.5c-1.3,0.4-2.1,1.2-3.3,1.6c-1.5,0.5-4-0.3-4,1.9
				c0,1.1,6.7,3,7,3c0.9,0,1.3,0,2.4,0c0.3,0,0.6,0,0.7,0h2.8c-0.2,0-0.2,1-0.9,1h-4c-0.3,0-0.6,1-1.3,1c-0.5,0-1,0-1.7,0
				c-0.6,0-1.9,0.1-2.1,1.1c1.3,0.5,0.9-0.2,2.4-0.2c0.8,0,1.7,0.7,2.8,1.1c-0.3,0.6-0.8,0.7-1.4,1.1c0.8,1,3.1,1.6,4.5,1.6
				c0.6,0,0.5,0.2,0.9-0.2c-0.2-0.1-0.5-0.4-0.7-0.6c0.3-0.1,0.6-0.3,1.4-0.3c0.8,0,1.5,1,2.1,1c0.9,0,1.3-0.5,2.2-0.5
				c0.6,0,0.9,0,2.1,0c7.8,0,13.2,5.2,14.2,11.2v1c2.1,0.1,1.9,0.1,1.9,1.2c0,1.6-1.4,1.5-1.4,3c0,1,0.7,1.2,1.9,1.2
				c0.9,0,1.1-1.2,1.8-1.2c2.3,0,2.9,3.3,5.1,4c-0.1,0.4,0,1-0.7,1c-1.7,0-2.7-1-4.2-1c-0.6,0-0.6-0.3-1.2,0c0.3,1.9,5.4,2.3,7.5,3
				c-0.6,1.9-1.9,2.6-2.3,4.7c-1-0.4-1.1-0.3-2.2,0.1v0.1c-2.1,1.1-2.1,2.5-3.1,3.8v1.6c0-0.4,1.3-0.3,1.8,0c-0.2,0.7-0.5,1-0.5,1.7
				c0,1.9,2,2.6,2.4,4c0.2,0.7,0.5,2,0.7,2.3c1.2,0.6,1.6-1.1,2.6,0.2c-0.5,0.5-1,0.4-1,1.3c0,2,2.6,5.1,4,6.3
				c0.2,0.1,0.1,1.1,0.5,1.4c1.1,0.8,1.8,0.3,2.3,1.9c0.8-0.1,2-0.9,2.9-0.9c1.7,0,1.6,3.1,3.3,3.1c0.4,0,0.6-0.4,1.4-0.5
				c0.1,0.4,0.3,0.7,0.8,0.7c1.9,0,1-3.6,2.6-4.4c-0.1-0.8,0-2.6,0-3.8c0-2,3.3-1.3,3.3-3.6c0-0.8-0.8-1.1-0.8-1.6
				c0-0.3,0.3-0.6,0.5-0.8c0-0.2-0.1-0.5-0.1-0.7c0-2.3,4.2-1.7,5.6-3.1c0.6-0.6-0.3-1.3,1.8-1.7v1.7h0.2c1.5-1,3.8-0.8,5.2-2.2
				c1-1,1.1-2.5,2.4-3.5l1.7-1.8c0-0.6,0.7-1.7,1.4-1.7h3.3c2.6-1,4.7-0.4,7.2-1.2c2-0.6,2.7-2.3,5-3.1
				C389.7,132.6,390.4,132.8,391.5,131.9z"/>
			<path class="st3" d="M328.2,135.2h1.5c1.2,0,2.6-0.3,2.8-1.5c-1.8-0.6-2.4-2.5-4.2-2.5c-0.6,0-1.5,0.4-1.5,1.5
				C326.8,133.5,327.6,135.2,328.2,135.2z"/>
			<path class="st3" d="M398.6,111.5c-0.2,0-0.7,0.6-0.7,1s0.4,0.5,0.9,0.5c0.7,0,1.9,0.5,2.2-1.6h-1.7L398.6,111.5L398.6,111.5z"/>
			<path class="st3" d="M325.5,189.4c0-0.3-0.3-0.7-0.6-0.7c-1.1,0-1.6,1.2-2.1,2.1c-1,1.6-2.3,4.7-4.2,5.7c0.1,0.2,0.1,0.4,0.1,0.4
				v0.4c0,0.1-0.8,1-0.8,1.3c0,0.2,0.6,0.7,0.9,0.7c0.8,0,1.2-0.4,2.3-0.4c0.8,0,1.2,0.5,2.1,0.5c0.5,0,0.9-0.1,1.4-0.3
				c0.3,0.7,1.3,0.3,2,0.3c-0.2,0.4-0.8,0.1-0.8,1.1c0,0,0.3,0,0.4,0c0.8,0,1.5-1.1,2-1.9c0.6,0.6,0.1,1.9,0.7,1.9
				c0.2,0,0.3,0.1,0.6,0.1c0,0.3,0.1,0.8,0.6,0.8c0.7,0,1.1-0.8,1.1-1.7c0-0.7-0.5-0.6-0.5-1.5c-0.4,0.3-0.2,0.4-0.9,0.4
				c0-0.5-0.5-0.8-0.5-1.1s0.6-0.4,0.7-1c-0.3,0-0.6,0.1-0.8,0.2c0-1,0.1-1.7,0.1-2.3c-0.3,0.2-1,0.2-1.8,0l-0.6,0.3v-0.5h-2.1v-0.5
				l0.5-0.3c-0.3-0.3-0.4-0.4-0.8-0.4c-0.5,0-0.7,0.4-0.7,0.6V193C323.8,191.7,325.5,190.9,325.5,189.4z"/>
			<path class="st3" d="M710,113.6c0.7,0,1-0.6,1.5-1c0.4,0.4,0.6,0.7,1.3,0.7s1.1-0.6,1.5-0.6c0.6,0,0.8-0.5,1.4-0.5
				c0.5,0,0.8,0.3,1.3,0.3c0.8,0,1.2-1.1,1.7-1.1h1.9c0,0,1-0.9,1.3-1.9c-1.5-0.4-5.6-1.7-6.8-1.7c-0.8,0-1.2,0.9-1.2,2
				c-1.9,0-2-2.2-4.2-2.2c-1.5,0-3.1,1.2-3.1,2.8C706.5,112.2,708.2,113.6,710,113.6z"/>
			<path class="st3" d="M275.1,185.9c0.1,0,0.3,1,0.3,0c0,0-1.2-1.2-2.4-1.2c0.1,0.1,0.1,0.3,0,0.5
				C273.5,185.6,274.5,185.9,275.1,185.9z"/>
			<path class="st3" d="M184.8,194.8c1.1,0.7,3.5,2.5,5.1,2.5c0.2,0,0.5,0,0.5,0v-0.5c-1-1.8-3.4-3.5-6.4-4.4
				c-0.5-0.1-1.1-0.8-1.8-0.8c-0.3,0-0.7,0.6-0.9,0.6h0.2c0,0,0.7,0,1,0.1c-0.1,0.2-0.3,0.4-0.7,0.5c0.3,0.8,2.2,1.5,3.6,1.5
				C185.3,194.3,184.9,194.3,184.8,194.8z"/>
			<path class="st3" d="M174.3,185.3c0-0.4-0.3-0.5-0.3-0.8c0-0.7,0.1-1.1,0-1.5c-0.1,0.3-0.4,0.9-0.9,0.9c-0.4,0,0.4-0.8,0.4-0.8
				c-0.6-0.1-0.6-0.5-1.6-0.5v0.6c1,0.4,0.6,1.2,0.9,1.2c0.4,0,0.6,0.8,1.1,0.9c0,0.1-0.3,0.4-0.3,0.8c0,0.6,0.4,1.3,1,1.3
				c0.7,0-0.6-1-0.6-1.3C174,185.8,174.3,185.6,174.3,185.3z"/>
			<path class="st3" d="M129.4,173.1v0.8c1,0.3,0.8,0.4,1.4,0.9c1-0.8,1.7-1.3,2.7-2v-0.4c0,0-0.3,0-0.8,0
				C131.5,172.5,130.5,172.8,129.4,173.1z"/>
			<path class="st3" d="M465.2,221.7c-1-0.2-1.7,0.5-2.6,0.5c-1,0-1.3-0.9-3.3-0.2v0.5c0,0.3,1,0.3,1.2,0.3c1.1,0.3,2.1,1.5,3.3,1.8
				c0,0.2,0.4,0.3,0.6,0.3s0.4-0.3,0.4-0.5c0-0.6-0.3-0.6-0.3-1.1c0-0.3,0.4-0.8,0.4-0.8L465.2,221.7z"/>
			<path class="st3" d="M453.4,213.9c0.2-0.4,0.4-1.9,0.6-2.8c-0.2-0.1-0.3-0.4-0.3-0.8c-0.3,0.1-0.6,0.7-1.1,0.7
				c-0.1,0-0.3,0.1-0.5,0.1C452.5,211.8,452.7,213.8,453.4,213.9z"/>
			<path class="st3" d="M452.4,216.8c0,0.5-0.3,0.8-0.4,1.4c0,0.6,0,1.5,0.7,1.5c0.6,0,1.8-1,1.8-1.9c0-1.1,0.2-1.7-0.4-2.8
				c-0.2,0-0.4-0.4-0.9-0.4c-0.6,0-0.7,0.7-1.5,0.9C451.8,215.9,452.4,216.2,452.4,216.8z"/>
			<path class="st3" d="M442,218.3c0-0.2-0.3-0.6-0.3-0.8c-0.4,0.1-0.7,0.3-1.1,0.5c0.1,0.1,0.6,0.6,0.9,0.6
				C441.6,218.7,442,218.5,442,218.3z"/>
			<path class="st3" d="M456.5,179c0-0.7-0.3-1.4-0.3-1.4h-1.1c0,0,0,0.4,0,0.6c0,0.7,0,0.9,1,0.9c0,0.2,0,0.3,0,0.6
				C456.1,179.4,456.5,179.5,456.5,179z"/>
			<path class="st3" d="M457.5,179.6l-0.1-0.3c-0.1,0.1-0.3,0.2-0.3,0.4c0.1,0.1,0.5,0.4,1,0.4c1.5,0,1-2.4,2.2-2.8
				c-0.3-1.2-0.4-1.8-1.8-1.8c-0.5,0-1.3,1.8-1.3,2.1c0,0.4,0.8,1,1.5,1.1C458.5,179.1,458,179.6,457.5,179.6z"/>
			<path class="st3" d="M472.5,170.5c-1.2,0.1-1.6,1.3-1.6,1.7c0,0.3-0.2,0.6,0,0.9c0.5-0.6,1-1,1-1.7
				C471.9,171,472.3,170.7,472.5,170.5z"/>
			<path class="st3" d="M478.2,170.1c0.3,0,0.6-0.5,0.6-0.7c0-0.3,0-0.6,0-0.8c0-0.1,1-0.6,1.1-0.9c-0.3-0.1-0.2-0.3-0.5-0.7
				c0,0-0.5,0.4-0.5,0.7c0,0.4,0.3,0.6,0.6,0.8c-0.6,0.1-1.2,0.5-1.8,0.6C477.8,169.5,477.6,170.1,478.2,170.1z"/>
			<path class="st3" d="M486.7,228.4c-1.2-0.3-2.8-0.7-4.4-0.4c0.8,0.4,2.1,0.6,2.6,0.6C485.5,228.5,485.8,228.9,486.7,228.4z"/>
			<path class="st3" d="M503.2,227.1c-1.2,0.2-3,0.9-4,1.4c0,0.1,0.2,0.3,0.4,0.3c0,0.2,0.3,0.4,0.5,0.4c0.6,0,1.9-0.4,2.2-0.8
				c0.1-0.2-0.1-0.6,0.1-0.7C502.7,227.6,503,227.8,503.2,227.1z"/>
			<path class="st3" d="M541.1,277c0.6,0,1.1-0.6,1.3-0.8c-0.9,0-1.4,0.1-2,0.3C540.4,276.9,540.9,277,541.1,277z"/>
			<path class="st3" d="M530.6,134.3c-0.1,0-0.9,1.3-0.9,1.6c0,0.7,0.3,0.8,1.2,0.8c1.2,0,1.8-0.7,2.8-1.2v-0.9c-1-0.1-1.4-1-2.4-1
				C531,133.6,530.9,134.3,530.6,134.3z"/>
			<path class="st3" d="M550.5,131.4c0,0.8,1.5,1.7,2.4,1.7c0,0,0.9,0.1,0.9-0.3C553.9,131.4,550.5,130,550.5,131.4z"/>
			<path class="st3" d="M575.9,120.2c-0.7-0.6-1-1.3-1.8-1.3c-0.6,0-1.1,0.8-1.1,1.4c0,0.2,0,0.7,0,0.7
				C574,120.9,575.6,120.5,575.9,120.2z"/>
			<path class="st3" d="M717.1,119.7h2.1c-0.1-1-1.5-2.9-3.3-2.9c-1.6,0-2.5,0.9-3.3,2l0.3-0.3C714.2,119.1,715.8,119.7,717.1,119.7
				z"/>
			<path class="st3" d="M730.8,113.4c1.1,0,3.1-0.3,3.1-1c0-0.3-0.3-0.7-0.7-0.7c-0.3,0-7.6-0.9-8.2-1.4l0.7,0.6
				C725.8,112.6,729,113.4,730.8,113.4z"/>
			<path class="st3" d="M714.3,115.9c0-1-1.9-1.1-1.9,0c0,0.6,0.1,0.9,0.8,0.9C713.7,116.8,714.3,116.4,714.3,115.9z"/>
			<path class="st3" d="M313,195c-1.5-0.8-2.8-2.2-4.9-1.7c0.8,0.6,2.8,2.1,4,2.1C312.6,195.4,312.8,195.4,313,195z"/>
			<path class="st3" d="M308.7,201.1c-0.1,0.1-0.3,0.2-0.3,0.4c0,0.5,2.6,1.7,3.1,1.7c0.1,0,0.9-0.4,0.9-0.8c0-0.1,0,0.1,0,0.1h-2.2
				C309.5,202.4,309.1,201.8,308.7,201.1z"/>
			<path class="st3" d="M316.6,203.1c0-0.1,0-0.3,0-0.5c-1,0-0.5-0.4-0.5-1c0-0.3-0.3-0.4-0.4-0.7c-0.6,0.2-1.6,1.9-1.6,2.4
				c0,0.4,0.4,0.8,1,0.8C315.9,204,316.6,203.6,316.6,203.1z"/>
			<path class="st3" d="M106.7,164.9c-0.6,0-0.8-0.7-1,0.3h-1c0.1,0,0.6,0,0.8,1h2.3C107.6,165.2,107.5,164.9,106.7,164.9z"/>
		</g>
	</g>
</g>
<g id="OBJECTS">
	<g>
		<g>
			<line class="st4" x1="1.9" y1="138.5" x2="934.3" y2="138.5"/>
			<g>
				<g>
					<rect x="500.5" y="137.5" class="st2" width="41.9" height="2"/>
				</g>
				<g>
					<path class="st2" d="M539.3,144.5v-11.8l8.5,5.9L539.3,144.5z"/>
				</g>
			</g>
			<g>
				<g>
					<rect x="385.3" y="137.5" class="st2" width="41.9" height="2"/>
				</g>
				<g>
					<path class="st2" d="M424.2,144.5v-11.8l8.5,5.9L424.2,144.5z"/>
				</g>
			</g>
			<line class="st4" x1="526.8" y1="137.8" x2="526.8" y2="43.4"/>
			<path class="st2" d="M526.8,53c6.9,0,12.5-5.6,12.5-12.5S533.7,28,526.8,28s-12.5,5.6-12.5,12.5C514.3,47.3,520,53,526.8,53z"/>
			<text transform="matrix(1 0 0 1 517.3087 42.8781)" class="st5 st6 st7">2016</text>
			<line class="st4" x1="406.3" y1="137.8" x2="406.3" y2="43.4"/>
			<path class="st2" d="M406.3,53c6.9,0,12.5-5.6,12.5-12.5S413.2,28,406.3,28c-6.9,0-12.5,5.6-12.5,12.5
				C393.8,47.3,399.4,53,406.3,53z"/>
			<text transform="matrix(1 0 0 1 396.7234 42.8781)" class="st5 st6 st7">2013</text>
			<line class="st4" x1="293.6" y1="137.8" x2="293.6" y2="43.4"/>
			<path class="st2" d="M293.6,53c6.9,0,12.5-5.6,12.5-12.5S300.5,28,293.6,28s-12.5,5.6-12.5,12.5C281.1,47.3,286.7,53,293.6,53z"
				/>
			<text transform="matrix(1 0 0 1 284.0374 42.8781)" class="st5 st6 st7">2012</text>
		</g>
		<g>
			<ellipse class="st2" cx="351.7" cy="139.4" rx="33.6" ry="33.6"/>
			<ellipse class="st8" cx="351.7" cy="139.4" rx="26.9" ry="26.9"/>
		</g>
		<g>
			<ellipse class="st2" cx="466.8" cy="139.4" rx="33.6" ry="33.6"/>
			<ellipse class="st8" cx="466.8" cy="139.4" rx="26.9" ry="26.9"/>
		</g>
		<g>
			<ellipse class="st2" cx="582" cy="139.4" rx="33.6" ry="33.6"/>
			
				<ellipse transform="matrix(0.9506 -0.3103 0.3103 0.9506 -14.5232 187.4794)" class="st8" cx="582" cy="139.4" rx="26.7" ry="26.7"/>
		</g>
	</g>
	<text transform="matrix(1 0 0 1 325.8713 142.0931)" class="st2 st6 st9">Res</text>
	<text transform="matrix(1 0 0 1 343.6713 142.0931)" class="st2 st6 st9"> </text>
	<text transform="matrix(1 0 0 1 343.6713 142.0931)" class="st2 st6 st9">466/12</text>
	<text transform="matrix(1 0 0 1 441.4806 142.0931)" class="st2 st6 st9">NO</text>
	<text transform="matrix(1 0 0 1 459.2806 142.0931)" class="st2 st6 st9"> </text>
	<text transform="matrix(1 0 0 1 459.2806 142.0931)" class="st2 st6 st9">001/13</text>
	<text transform="matrix(1 0 0 1 556.09 142.0931)" class="st2 st6 st9">Res</text>
	<text transform="matrix(1 0 0 1 573.8899 142.0931)" class="st2 st6 st9"> </text>
	<text transform="matrix(1 0 0 1 573.8899 142.0931)" class="st2 st6 st9">506/16</text>
</g>
</svg>
