<?xml version="1.0" encoding="utf-8"?>
<!-- Generator: Adobe Illustrator 22.0.1, SVG Export Plug-In . SVG Version: 6.00 Build 0)  -->
<svg version="1.1" id="Camada_1" xmlns="http://www.w3.org/2000/svg" xmlns:xlink="http://www.w3.org/1999/xlink" x="0px" y="0px"
	 viewBox="0 0 500 148.2" style="enable-background:new 0 0 500 148.2;" xml:space="preserve">
<style type="text/css">
	.st0{fill:url(#SVGID_1_);}
	.st1{fill:#FFFFFF;stroke:url(#SVGID_2_);stroke-width:5;stroke-miterlimit:10;}
	.st2{fill:#FFFFFF;}
	.st3{fill:#BDBDFA;}
	.st4{fill:url(#SVGID_3_);}
	.st5{font-family:'Open Sans';}
	.st6{font-size:31.654px;}
</style>
<g>
	
		<linearGradient id="SVGID_1_" gradientUnits="userSpaceOnUse" x1="495.1" y1="73.45" x2="74.9" y2="73.45" gradientTransform="matrix(1 0 0 -1 0 150)">
		<stop  offset="0" style="stop-color:#9895EF"/>
		<stop  offset="1" style="stop-color:#7F79C2"/>
	</linearGradient>
	<rect x="74.9" y="35.8" class="st0" width="420.2" height="81.5"/>
	
		<linearGradient id="SVGID_2_" gradientUnits="userSpaceOnUse" x1="117.8" y1="76.4" x2="2.4" y2="76.4" gradientTransform="matrix(1 0 0 -1 0 150)">
		<stop  offset="0" style="stop-color:#9895EF"/>
		<stop  offset="1" style="stop-color:#7F79C2"/>
	</linearGradient>
	<circle class="st1" cx="60.1" cy="73.6" r="55.2"/>
	<polygon class="st2" points="482.9,76.1 468.3,65.2 468.3,86.9 	"/>
</g>
<g>
	<g>
		<path class="st2" d="M62.1,39.7c0-9.7-3.4-11-8.8-9c-5.4,2.1-8.8,6.3-8.8,14v6.9l-16,6.1v-5.9c0-17.3,8.6-30.4,25.3-36.8
			c16.6-6.4,25.3,0.2,25.3,17.4v2.8c0,11.6-3.7,20.1-11.9,26.6v0.3c8.5,0.5,11.9,7,11.9,18v8.5c0,17.3-8.6,30.4-25.3,36.8
			c-16.6,6.4-25.3-0.2-25.3-17.4v-8.9l16-6.1v10c0,7.7,3.4,9.3,8.8,7.3c5.4-2.1,8.8-6,8.8-15.5v-8.5c0-10-3.4-12.4-11.1-9.5L45.3,79
			V63.5L52,61c6.3-2.4,10.2-6.7,10.2-15.3v-6H62.1z"/>
	</g>
	<path class="st3" d="M91.7,43v-2.8c0-8-1.8-13.7-5.5-16.9l0,0l0,0c-1-0.9-2.1-1.5-3.3-2l-9.3-5.6c-4.2-3.7-10.8-4-19.8-0.6
		c-16.6,6.4-25.3,19.5-25.3,36.8v5.9l12.6,7.7l4.2-1.6V79l12.6,7.7l4.1-1.6c0,0.4,0,0.8,0,1.2v8.5c0,7-1.8,11-4.9,13.4v-7.5L44.5,93
		l-16,6.1v8.9c0,10.6,3.2,17.1,9.6,19.1l9.4,6.1c0.3,0.2,0.6,0.4,0.9,0.6l0.2,0.1l0,0c4.2,2.3,10.2,2.1,17.8-0.8
		c16.6-6.4,25.3-19.5,25.3-36.8v-8.5c0-7.6-1.6-13.2-5.5-16l0,0l0,0c-0.8-0.6-1.7-1.1-2.7-1.4L80.7,69C88.2,62.6,91.7,54.1,91.7,43z
		"/>
	<g>
		<g>
			<path class="st2" d="M74.8,47.3c0-9.7-3.4-11-8.8-9c-5.4,2.1-8.8,6.3-8.8,14v6.9l-16,6.1v-5.9c0-17.3,8.6-30.4,25.3-36.8
				c16.6-6.4,25.3,0.2,25.3,17.4v3c0,11.6-3.7,20.1-11.9,26.6v0.3c8.5,0.5,11.9,7,11.9,18v8.5c0,17.3-8.6,30.4-25.3,36.8
				c-16.6,6.4-25.3-0.2-25.3-17.4v-8.9l16-6.1v10c0,7.7,3.4,9.3,8.8,7.3c5.4-2.1,8.8-6,8.8-15.5v-8.5c0-10-3.4-12.4-11.1-9.5l-5.7,2
				V71.2l6.6-2.5c6.3-2.4,10.2-6.7,10.2-15.3C74.8,53.4,74.8,47.3,74.8,47.3z"/>
		</g>
		<g>
			
				<linearGradient id="SVGID_3_" gradientUnits="userSpaceOnUse" x1="-216.3265" y1="-156.6839" x2="-165.7826" y2="-156.6839" gradientTransform="matrix(1 0 0 -1 257.5265 -78.7839)">
				<stop  offset="0" style="stop-color:#9895EF"/>
				<stop  offset="1" style="stop-color:#7F79C2"/>
			</linearGradient>
			<path class="st4" d="M74.8,47.3c0-9.7-3.4-11-8.8-9c-5.4,2.1-8.8,6.3-8.8,14v6.9l-16,6.1v-5.9c0-17.3,8.6-30.4,25.3-36.8
				c16.6-6.4,25.3,0.2,25.3,17.4v3c0,11.6-3.7,20.1-11.9,26.6v0.3c8.5,0.5,11.9,7,11.9,18v8.5c0,17.3-8.6,30.4-25.3,36.8
				c-16.6,6.4-25.3-0.2-25.3-17.4v-8.9l16-6.1v10c0,7.7,3.4,9.3,8.8,7.3c5.4-2.1,8.8-6,8.8-15.5v-8.5c0-10-3.4-12.4-11.1-9.5l-5.7,2
				V71.2l6.6-2.5c6.3-2.4,10.2-6.7,10.2-15.3C74.8,53.4,74.8,47.3,74.8,47.3z"/>
		</g>
	</g>
</g>
<text transform="matrix(1 0 0 1 198.001 88.7)" class="st2 st5 st6">Último estagio</text>
</svg>
