<?xml version="1.0" encoding="utf-8"?>
<!-- Generator: Adobe Illustrator 22.0.1, SVG Export Plug-In . SVG Version: 6.00 Build 0)  -->
<svg version="1.1" id="Camada_1" xmlns="http://www.w3.org/2000/svg" xmlns:xlink="http://www.w3.org/1999/xlink" x="0px" y="0px"
	 viewBox="0 0 1492.3 1117.8" style="enable-background:new 0 0 1492.3 1117.8;" xml:space="preserve">
<style type="text/css">
	.st0{fill:none;stroke:#211915;stroke-width:4;stroke-miterlimit:10;}
	.st1{fill:#F3D0CA;}
	.st2{fill:#DBE1F4;}
	.st3{fill:#F2F2F2;}
	.st4{fill:#E5EDD9;}
	.st5{fill:#3D3D3D;}
	.st6{font-family:'Open Sans';}
	.st7{font-size:20.516px;}
	.st8{font-size:18px;}
	.st9{font-size:14px;}
</style>
<line class="st0" x1="930.5" y1="70.2" x2="930.5" y2="121.1"/>
<line class="st0" x1="1322.6" y1="121.1" x2="1322.6" y2="171.9"/>
<line class="st0" x1="1322.6" y1="211.4" x2="1322.6" y2="494.8"/>
<line class="st0" x1="937.4" y1="271.4" x2="937.4" y2="494.8"/>
<line class="st0" x1="615.3" y1="121.1" x2="615.3" y2="171.9"/>
<line class="st0" x1="615.3" y1="211.9" x2="615.3" y2="285.8"/>
<line class="st0" x1="352.5" y1="318.7" x2="352.5" y2="347.4"/>
<line class="st0" x1="206.9" y1="347.4" x2="206.9" y2="376.2"/>
<line class="st0" x1="574.6" y1="347.4" x2="574.6" y2="376.2"/>
<line class="st0" x1="574.6" y1="451.7" x2="574.6" y2="500.3"/>
<line class="st0" x1="206.9" y1="451.7" x2="206.9" y2="500.3"/>
<line class="st0" x1="1321.2" y1="121.1" x2="616.3" y2="121.1"/>
<line class="st0" x1="1199.6" y1="285.8" x2="494.8" y2="285.8"/>
<line class="st0" x1="576.8" y1="347.4" x2="206.9" y2="347.4"/>
<g>
	<rect x="683.5" y="17.6" class="st1" width="490.1" height="51.6"/>
	<rect x="210.2" y="245.3" class="st2" width="284.6" height="80.2"/>
	<rect x="821.8" y="245.3" class="st2" width="231.6" height="80.2"/>
	<rect x="1200.1" y="245.3" class="st2" width="245" height="80.2"/>
	<rect x="1179.7" y="366" class="st3" width="287.4" height="94.9"/>
	<rect x="755.3" y="366" class="st3" width="363.3" height="94.9"/>
	<rect x="434.7" y="366" class="st3" width="282.5" height="94.9"/>
	<rect x="101.1" y="366" class="st3" width="211.7" height="94.9"/>
	<rect x="10.9" y="494.8" class="st3" width="388.5" height="492.7"/>
	<rect x="411.5" y="494.8" class="st3" width="326.3" height="293.4"/>
	<rect x="765.7" y="494.8" class="st3" width="343.4" height="293.4"/>
	<rect x="1162.8" y="494.8" class="st3" width="319.5" height="268.5"/>
	<rect x="1200.1" y="170.1" class="st4" width="245" height="49.6"/>
	<rect x="492.8" y="170.1" class="st4" width="245" height="49.6"/>
</g>
<text transform="matrix(1 0 0 1 777.8207 50.9799)" class="st5 st6 st7">EVENTO ADVERSO GRAVE - EAG</text>
<text transform="matrix(1 0 0 1 1242.4417 201.939)" class="st5 st6 st7">EAG fora do país</text>
<text transform="matrix(1 0 0 1 537.8879 201.939)" class="st5 st6 st7">EAG fora do país</text>
<text transform="matrix(1 0 0 1 1252.3959 282.542)" class="st5 st6 st7">CEP do Centro</text>
<text transform="matrix(1 0 0 1 1257.2959 307.142)" class="st5 st6 st7">Coordenador</text>
<text transform="matrix(1 0 0 1 1214.9403 397.7863)" class="st5 st6 st7">Relatório consolidado</text>
<text transform="matrix(1 0 0 1 1221.7404 422.3863)" class="st5 st6 st7">anexo aos relatórios</text>
<text transform="matrix(1 0 0 1 1253.2404 446.9863)" class="st5 st6 st7">parcial e final </text>
<text transform="matrix(1 0 0 1 468.3034 397.7863)" class="st5 st6 st7">Relatório consolidado</text>
<text transform="matrix(1 0 0 1 475.1034 422.3863)" class="st5 st6 st7">anexo aos relatórios</text>
<text transform="matrix(1 0 0 1 506.6034 446.9863)" class="st5 st6 st7">parcial e final </text>
<text transform="matrix(1 0 0 1 1208.6141 551.0305)" class="st5 st6 st7">Distribuição absoluta e</text>
<text transform="matrix(1 0 0 1 1200.0142 575.6305)" class="st5 st6 st7">relativa dos tipos de EAG</text>
<text transform="matrix(1 0 0 1 1201.5142 624.9305)" class="st5 st6 st7">Descrição detalhada dos</text>
<text transform="matrix(1 0 0 1 1176.4142 649.5305)" class="st5 st6 st7">casos em que houver sequela</text>
<text transform="matrix(1 0 0 1 1181.8141 674.1305)" class="st5 st6 st7">ou morte em decorrência da</text>
<text transform="matrix(1 0 0 1 1199.5142 698.7305)" class="st5 st6 st7">participação na pesquisa</text>
<text transform="matrix(1 0 0 1 867.4276 283.542)" class="st5 st6 st7">CEP do Centro</text>
<text transform="matrix(1 0 0 1 872.3276 308.142)" class="st5 st6 st7">Coordenador</text>
<text transform="matrix(1 0 0 1 268.4776 279.542)" class="st5 st6 st7">CEP vinculado ao</text>
<text transform="matrix(1 0 0 1 258.5776 304.142)" class="st5 st6 st7">centro de pesquisa</text>
<text transform="matrix(1 0 0 1 777.2196 394.7863)" class="st5 st6 st7">Relatório consolidado de TODOS</text>
<text transform="matrix(1 0 0 1 791.9196 419.3863)" class="st5 st6 st7">os centros de pesquisa anexo</text>
<text transform="matrix(1 0 0 1 800.4196 443.9863)" class="st5 st6 st7">aos relatórios parcial e final</text>
<text transform="matrix(1 0 0 1 823.6459 526.0305)" class="st5 st6 st7">Distribuição absoluta e</text>
<text transform="matrix(1 0 0 1 815.0459 550.6305)" class="st5 st6 st7">relativa dos tipos de EAG</text>
<text transform="matrix(1 0 0 1 816.5459 599.9305)" class="st5 st6 st7">Descrição detalhada dos</text>
<text transform="matrix(1 0 0 1 791.4459 624.5305)" class="st5 st6 st7">casos em que houver sequela</text>
<text transform="matrix(1 0 0 1 796.8459 649.1305)" class="st5 st6 st7">ou morte em decorrência da</text>
<text transform="matrix(1 0 0 1 814.5459 673.7305)" class="st5 st6 st7">participação na pesquisa</text>
<text transform="matrix(1 0 0 1 786.6459 723.0305)" class="st5 st6 st7">Descrição detalhada dos casos</text>
<text transform="matrix(1 0 0 1 790.1459 747.6305)" class="st5 st6 st7">que requisitaram indenização</text>
<text transform="matrix(1 0 0 1 789.5459 772.2305)" class="st5 st6 st7">ou qualquer demanda judicial</text>
<text transform="matrix(1 0 0 1 462.8634 526.0305)" class="st5 st6 st7">Distribuição absoluta e</text>
<text transform="matrix(1 0 0 1 454.2634 550.6305)" class="st5 st6 st7">relativa dos tipos de EAG</text>
<text transform="matrix(1 0 0 1 455.7634 599.9305)" class="st5 st6 st7">Descrição detalhada dos</text>
<text transform="matrix(1 0 0 1 430.6634 624.5305)" class="st5 st6 st7">casos em que houver sequela</text>
<text transform="matrix(1 0 0 1 436.0634 649.1305)" class="st5 st6 st7">ou morte em decorrência da</text>
<text transform="matrix(1 0 0 1 453.7634 673.7305)" class="st5 st6 st7">participação na pesquisa</text>
<text transform="matrix(1 0 0 1 425.8634 723.0305)" class="st5 st6 st7">Descrição detalhada dos casos</text>
<text transform="matrix(1 0 0 1 429.3634 747.6305)" class="st5 st6 st7">que requisitaram indenização</text>
<text transform="matrix(1 0 0 1 428.7634 772.2305)" class="st5 st6 st7">ou qualquer demanda judicial</text>
<text transform="matrix(1 0 0 1 152.09 406.7863)" class="st5 st6 st7">Notificação</text>
<text transform="matrix(1 0 0 1 173.29 431.3863)" class="st5 st6 st7">de EAG</text>
<text transform="matrix(1 0 0 1 76.3527 551.0305)" class="st5 st6 st7">Data da ocorrência do EAG</text>
<text transform="matrix(1 0 0 1 38.1527 600.2305)" class="st5 st6 st7">Número ou código do participante</text>
<text transform="matrix(1 0 0 1 107.1527 649.5305)" class="st5 st6 st7">Classificação do EAG</text>
<text transform="matrix(1 0 0 1 148.9527 698.7305)" class="st5 st6 st7">Tipo do EAG</text>
<text transform="matrix(1 0 0 1 72.2527 748.0305)" class="st5 st6 st7">Causalidade com o produto</text>
<text transform="matrix(1 0 0 1 63.2527 772.6305)" class="st5 st6 st7">investigado ou procedimento</text>
<text transform="matrix(1 0 0 1 149.1527 797.2305)" class="st5 st6 st7">da pesquisa</text>
<text transform="matrix(1 0 0 1 28.5527 846.4305)" class="st5 st6 st7">Assistência prestada ao participante</text>
<text transform="matrix(1 0 0 1 76.0527 895.7305)" class="st5 st6 st7">Data da última atualização</text>
<text transform="matrix(1 0 0 1 72.3527 944.9305)" class="st5 st6 st7">Situação do participante na</text>
<text transform="matrix(1 0 0 1 77.1527 969.5305)" class="st5 st6 st7">data da última atualização</text>
<text transform="matrix(1 0 0 1 11.9279 1028.5017)" class="st5 st6 st7">1 - a Conep fará avaliação do relatório consolidado no caso do protocolo enquadrar-se no item IX, 4. da Resolução CNS nº 466 de 2012.</text>
<text transform="matrix(1 0 0 1 11.9279 1053.1017)" class="st5 st6 st7">2 - a Conep fará apreciação do relatório quando, a critério do CEP, houver necessidade.</text>
<text transform="matrix(1 0 0 1 11.9279 1108.1017)" class="st5 st6 st8">Modelo de tabela para a notificação dos eventos adversos graves.</text>
<text transform="matrix(1 0 0 1 1390.0795 442.2051)" class="st5 st6 st9">1,2</text>
<text transform="matrix(1 0 0 1 1078.9447 438.2051)" class="st5 st6 st9">1</text>
<text transform="matrix(1 0 0 1 644.9447 440.2051)" class="st5 st6 st9">1</text>
<polygon class="st5" points="72.8,541.2 71,539.7 65.3,546.9 61.9,542.1 60.4,543.1 65.2,549.8 65.9,549.8 66.2,549.5 "/>
<polygon class="st5" points="35.2,589.6 33.4,588.1 27.7,595.2 24.3,590.4 22.8,591.5 27.6,598.2 28.3,598.2 28.6,597.9 "/>
<polygon class="st5" points="102.1,639 100.3,637.5 94.6,644.7 91.2,639.9 89.7,640.9 94.5,647.6 95.2,647.6 95.5,647.3 "/>
<polygon class="st5" points="142.4,688.3 140.6,686.8 134.9,694 131.5,689.2 130,690.2 134.8,696.9 135.5,696.9 135.8,696.6 "/>
<polygon class="st5" points="65.2,737.5 63.3,736.1 57.7,743.2 54.3,738.4 52.8,739.5 57.5,746.2 58.3,746.2 58.6,745.9 "/>
<polygon class="st5" points="26.7,835.7 24.8,834.2 19.2,841.4 15.8,836.6 14.3,837.6 19,844.3 19.8,844.3 20.1,844 "/>
<polygon class="st5" points="70.9,884.8 69.1,883.3 63.4,890.4 60,885.6 58.5,886.7 63.3,893.4 64,893.4 64.3,893.1 "/>
<polygon class="st5" points="67.7,933.7 65.8,932.3 60.2,939.4 56.8,934.6 55.3,935.7 60,942.4 60.8,942.4 61.1,942.1 "/>
<polygon class="st5" points="425.7,712.7 423.8,711.3 418.2,718.4 414.8,713.6 413.3,714.7 418,721.4 418.8,721.4 419.1,721.1 "/>
<polygon class="st5" points="450.6,588.8 448.7,587.3 443.1,594.4 439.7,589.6 438.2,590.7 442.9,597.4 443.7,597.4 444,597.1 "/>
<polygon class="st5" points="456.8,514.7 454.9,513.3 449.3,520.4 445.9,515.6 444.4,516.7 449.1,523.4 449.9,523.4 450.2,523.1 "/>
<polygon class="st5" points="818.3,515.5 816.4,514.1 810.8,521.2 807.4,516.4 805.9,517.5 810.6,524.2 811.4,524.2 811.7,523.9 "/>
<polygon class="st5" points="811.1,588.8 809.2,587.4 803.6,594.5 800.2,589.7 798.7,590.8 803.4,597.5 804.2,597.5 804.5,597.2 "/>
<polygon class="st5" points="782.6,712.1 780.7,710.7 775.1,717.8 771.7,713 770.2,714.1 774.9,720.8 775.7,720.8 776,720.5 "/>
<polygon class="st5" points="1203.5,540.1 1201.7,538.7 1196,545.8 1192.6,541 1191.1,542.1 1195.9,548.8 1196.6,548.8 
	1196.9,548.5 "/>
<polygon class="st5" points="1198,613.8 1196.1,612.3 1190.5,619.5 1187.1,614.7 1185.6,615.7 1190.3,622.4 1191.1,622.4 
	1191.4,622.1 "/>
</svg>
