<?xml version="1.0" encoding="utf-8"?>
<!-- Generator: Adobe Illustrator 22.0.1, SVG Export Plug-In . SVG Version: 6.00 Build 0)  -->
<svg version="1.1" id="Camada_1" xmlns="http://www.w3.org/2000/svg" xmlns:xlink="http://www.w3.org/1999/xlink" x="0px" y="0px"
	 viewBox="0 0 815.7 218.7" style="enable-background:new 0 0 815.7 218.7;" xml:space="preserve">
<style type="text/css">
	.st0{fill:#222442;}
	.st1{display:none;}
	.st2{display:inline;}
	.st3{opacity:0.5;fill:#373A5E;enable-background:new    ;}
	.st4{fill:none;stroke:#222442;stroke-width:2;stroke-miterlimit:10;}
	.st5{fill:#FFFFFF;}
	.st6{font-family:'Open Sans';}
	.st7{font-size:8.3821px;}
	.st8{opacity:0.3;fill:#FCD9B1;}
	.st9{opacity:0.3;fill:#222442;}
	.st10{fill:#FF9100;}
	.st11{font-size:10.1849px;}
</style>
<g>
	<rect x="-2.6" y="137.5" class="st0" width="260.3" height="2"/>
	<rect x="324.9" y="137.5" class="st0" width="489.9" height="2"/>
</g>
<g id="BACKGROUND" class="st1">
	<g class="st2">
		<rect x="32.6" class="st0" width="750" height="500"/>
		<g>
			<path class="st3" d="M481.9,325.8c-0.3,0.6-0.1,1.7-0.5,2.1c-1.1,1.1-3.3,3.8-4.9,4.7c-2,1.2-4.5,1-4.5,4.4c0,1.1,1,2.9,1,3.6
				c0,0.1-1.4,3.1-1.4,3.1c-0.1,0-1.4,1.1-1.4,1.4c0,1,0,2.2,0.8,2.8c0.1,0.5-0.1,0.8-0.1,1.7c0,1.8,1.5,3.8,3.3,3.8
				c4.2,0,4.9-4.7,6.1-7.8c1.5-4,3.2-7.5,3.2-12.5c0.1,0,0.2,0.2,1.3,0.3v-1C483.8,330.5,484.2,326,481.9,325.8z"/>
			<path class="st3" d="M542.6,287.3c0,1,0.8,1.9,1.7,1.9c1.3,0,2.2-1.6,2.2-2.9c0-2.2-2-3.1-3-4.7
				C543.6,283.7,542.6,285.3,542.6,287.3z"/>
			<path class="st3" d="M594.1,311.5c0-0.7-0.8-1.7,0.3-1.9c0-1.5,0-2.1,0-3c0-0.7-0.9-0.9-1.3-1.3c-0.8-0.8-1.6-1.2-1.6-2.6
				c-0.8,0-1.3-0.2-1.3-1.1l0.3-0.4c-0.1-0.3-0.3-0.4-0.6-0.4c-0.2,0-0.3,0-0.6,0c0,0,0.1-0.5,0.1-0.6c0-1-1.2-1.5-2.2-1.9
				c-1.9-0.6-2.7-1.6-4-2.9c-0.7-0.7-1.2-1.6-2.2-1.9c-0.3-0.1-0.6,0-0.8-0.4c-0.6-1.1-1-2.7-2.6-2.7h-2.3c-0.6,0-0.7-2.1-1.4-2.1
				c-0.1,0-0.3,0-0.3,0v2c0,0.7,1.2,2.6,1.8,2.8c0.6,0.1,1.3,0,1.6,0.6c0.4,0.8,0.6,1.3,1,2.1c0.5,1,2.1,0.7,2.6,2.3
				c0.1,0.6,0.6,2.2,1,2.4c0.2,0.1,1,0.2,1.1,0.4c0.1,0.2,0,0.6,0.2,0.6s1,1.4,1.2,1.7c0.8,1.6,1.3,2.9,2.7,4.2
				c1.2,1.3,2.5,1.8,3.8,3.1c0.1,0.1,1.3,1.9,1.6,1.9C592.8,312.5,594.1,312.3,594.1,311.5z"/>
			<path class="st3" d="M600.7,299.3c0,0.3,0.7,2.8,1,2.9c0.4,0.1,0.8,0.1,0.9,0.4c0,0.1-0.1,0.3-0.1,0.3c0.9,1.4-0.2,3.8,2.4,3.8
				c0.6,0,0.9-0.4,1.5-0.3c0.1,0.3,0,1,0.1,1c0.2,0,0.4,0.3,0.6,0.3c0.8,0,1.2-0.8,1.7-0.8c1.2,0,1.9,0.8,3.1,1.1c0,0.4,0.2,1,0.9,1
				c0.9,0,1-0.8,2.2-1.1c0-0.8,0.8-1.8,0.8-2.4c0-0.3-0.3-0.5-0.3-1c0-0.4,0.7-1.5,1.5-1.6c0-1.2,0.6-1.6,0.9-3.1l0.4-0.7
				c0.2-0.1,0.5-0.1,0.7-0.1c0.8,0,1.3,0.3,1.5-0.7c-1.2,0-3.1-3.5-3.1-4.5c0-0.2,0.3-0.4,0.5-0.5c-0.1-0.2-0.2-0.4-0.3-0.6
				c0,0,1.9-0.8,2-1c-0.1,0-0.3-0.2-0.3-0.3c0-0.6,1.5-0.2,1.5-0.8c0-1.4-2.9-0.6-2.9-2c0-1,0.1-1.7-1-1.7s-2.6,2.6-3.2,3.7
				c-0.3,0.6-1.9,0.2-2.5,0.8c-0.1,0.1-0.2,0.5-0.4,0.6c-0.3,0.1-0.3,0.3-0.7,0.5c0,0-0.8,0.6-0.5,0.8c-0.6,0.6-0.6,1.3-1.6,1.5
				c-0.8,0.1-1.5,0.1-1.9,0.6c-1,1-0.7,3.1-2.9,3.1C602.2,298.6,600.7,298.1,600.7,299.3z"/>
			<path class="st3" d="M625.2,300.1c1.2,0,1.7-0.3,2.6-0.3c0.9,0,1.5,0.5,2.4,0.5c1.4,0,1.9-1.2,2.1-2.2c0.2,0,0.3-0.5,0.3-0.5
				h-0.4c-0.8,1-1.8,1-2.2,1h-0.6l-4.8-0.6c-1.8,0-2.6,2.4-2.6,4.1c0,0.4-0.6,0.8-0.6,1.1c-0.5,1.6-1.4,2.3-1.4,3.8
				c0,0.8,1.3,0.9,1.3,0.9c0,1.1,0,2.6,0,3.3c0,0.4,0.7,0.9,1.2,0.9c0.8,0,1.1-2.4,1.1-2.8c0-0.9-0.6-1.4-0.6-2.3
				c0-0.5,0.6-0.8,1.1-0.8c0.2,0,0.4,0.1,0.6,0l-0.3,1.5c0,0.9,1.1,1.5,1.1,2.4c0,0.2,0,0.9,0,0.9h0.9c0-2.1,1.5-0.9,1.5-1.7
				c-0.3-0.1-1-1-1-1.4c0-0.1,0.2-0.3,0.3-0.5c-0.4-0.2-1.5-2.7-1.5-3c1.9,0,1.8-1.6,3.9-2v-0.6c0-0.1-4.3,1-4.4,1.2v-0.3
				c-0.3,0.3-0.4,0.7-0.8,0.7c-1,0-1.5-1.3-1.5-2.4C622.9,299.8,624,300.1,625.2,300.1z"/>
			<path class="st3" d="M611.8,317.7c0.8,0,0.8,0.5,1.5,0.5c0.1,0,0.6-0.5,0.8-0.8c-0.5-0.2-0.5-0.4-1.1-0.6s-1.2,0.4-1.7-0.1
				c-0.1-0.1-0.1-0.6-0.6-0.6c-1.2,0-2.2,0.1-2.9-0.6c0.1,0.1,2.5-0.2,2.6-0.2h-0.6h-2.1c-1.3,0-1.7-1.4-3.1-1.4c-0.8,0-1,1-2.1,1
				c-2.3,0-3.2-2.3-5.3-2.3c-0.4,0-0.7,0.4-1.1,0.4c-0.2,0-0.3-0.3-0.6-0.3c-0.4,0-1.7,1.2-1.7,1.5c1,0,1.6,0.8,2.3,1.5
				s1.7,0,2.8,0.3c1.4,0.4,2.5,0.5,3.8,0.5c0.7,0,0.9,0.9,1.7,0.9c2.7,0,5.1,0.1,7.4,1C611.8,318.2,611.6,317.7,611.8,317.7z"/>
			<path class="st3" d="M626.4,318.2c0.9,0,1.5-0.3,2-1.2c-0.6,0.3-1,0.8-2,0.8s-1.5-0.4-2.8-0.4c-0.5,0-1.3-0.2-1.3,0.3
				c0,0.8,1,0.5,1.5,0.5C624.5,318.2,625.5,318.2,626.4,318.2z"/>
			<path class="st3" d="M618.9,317.2c0,0-0.1,0.5-0.1,0.7c-0.3-0.1-0.7-0.2-1.3-0.2s-1.2,0-1.2,0.7c0,0.3,0.8,0.5,1.4,0.5
				c0.7,0,1-0.5,1.7-0.8l0.6,0.1h1.3v-1L618.9,317.2L618.9,317.2z"/>
			<path class="st3" d="M622.9,319.3c-0.2,0-0.5,0-0.7,0c-0.5,0-1.3-0.1-1.3,0.5c0,0.7,1.1,0.7,1.8,0.7c0,0.2,0.1,0.9,0.4,0.9
				c0.1,0,0.2,0,0.3,0c0.2,0,0.6-0.3,0.6-0.5C623.9,320,622.9,319.3,622.9,319.3z"/>
			<path class="st3" d="M615.4,317.4c-0.2,0-0.4,0-0.6,0c0,0.2,0,0.5,0,0.7s0.4,0.5,0.6,0.5c0.3,0,0.6-0.3,0.7-0.7
				C615.7,317.8,615.7,317.4,615.4,317.4z"/>
			<path class="st3" d="M632.5,319.6c1.1,0,3.4-0.6,4.1-1.6c-0.6-0.4-3.7-0.1-4.4,0.6c-0.1,0.1-0.1,0.6-0.3,0.6
				c-1,0.3-2.4,0.3-2.4,1.9c0,0.3,0.2,0.6,0.5,0.6c0.8,0,2-0.8,2.3-1.2C632.5,320.3,632.2,319.6,632.5,319.6z"/>
			<path class="st3" d="M651.7,312.6c0-0.5-0.1-0.2-0.3-0.8c-0.5,0.1-0.4,0.7-0.4,1.2c0,0.4-0.7,0.5-0.7,1.2c0,0.2,0.2,0.6,0.4,0.6
				c0.6,0,0.4-0.8,0.4-1.5C651.5,313.3,651.7,313,651.7,312.6z"/>
			<path class="st3" d="M634.6,307.3c0,0.6,0.8,1.3,1.2,1.3c0.2,0,0.7-0.8,0.7-0.9C636.5,307,634.6,306.5,634.6,307.3z"/>
			<path class="st3" d="M638.2,307.5c0,0,1,0.3,1.2,0.3c0.6,0,0.9,0,1.6,0c1,0,1.5,0.5,2.4,0.5c0.1,0,0.4-0.1,0.4-0.2
				c0-0.6-0.8-0.7-0.8-1.3l-0.2,0.1c-0.4,0-0.9-0.2-1-0.2h-3.1C638.5,306.9,638.2,307.2,638.2,307.5z"/>
			<path class="st3" d="M637.9,296.3c-0.6,0.3-1.2,0.8-1.2,1.4c0,0.9,0,1.2,0,1.9c0,0.7,0,0.5,0,0.9s0.7,1.3,1.4,1.3
				c-0.3-0.5-0.3-0.8-0.3-1.2v-0.5c0,0,1.4-0.1,1.7-0.1c-0.1-0.6-0.5-0.7-0.5-1c0-0.4,0.7-0.5,0.7-0.9
				C638.5,297.8,638,297.2,637.9,296.3z"/>
			<path class="st3" d="M679.3,312c0.2,1,1.1,0.6,1.7,1.1c0,0,0.1,0,0.1,0.1c0.1,0,0.1,0.1,0.1,0.1l-0.1-0.1c0.3,0.2,0.8,0.5,1,0.5
				c1.5,0,2.1-0.8,3.3-1c0-1.3,1.5-1,1.5-2.4c0-0.4-0.2-1-0.6-1c-1,0-0.6,1.5-1.5,2c-0.6,0.3-1.7,0.3-2.7,0.7c0,0-0.6,0.3-0.8,0.3
				h-2V312z"/>
			<path class="st3" d="M675.8,312.5c-1.7-0.8-1.6-2.7-3.8-3.4c-0.3-0.1-0.9-0.1-0.9-0.7c-0.8,0-1.5-1-2.4-1c-1.5,0-3-0.7-5-1.5
				v-0.1h0.2c-0.1-0.1,0-0.1-0.1-0.2l0.2,0.5c-0.3-0.1-0.8-0.3-1.1-0.3H661c-0.4-2.1-1-1.3-1.8-1.6c-0.2-0.1-0.8-0.1-0.8-0.5
				c-0.8,0.1-1.7,1.3-2.3,1.5c-1,0.3-1.1,0.3-1.7,0.9c-0.1,0.1-0.8,1.2-1.3,1.2c-0.4,0-1.6-1.1-1.6-1.4c-0.6,0-1.3-0.3-1.3-0.6
				c0-0.6,0-1.5,0-2.5c-2.1-0.3-1.9-1.4-3.1-1.4c-1.3,0-1.6,1.2-2.5,1.2c-0.4,0-0.9,0.2-0.9,0.6c0,1,1.7,0.6,2.2,1.5
				c0.1,0.2,0.2,0.6,0.4,0.6c0.3,0.1,0.6,0.5,1,0.5c0.8,0,1.3,0,2,0h0.5c-0.5,0-2.6,0.4-3.5,0.9c0.1,0.6,0.9,0.1,1.3,0.7
				c0.3,0.6,0,0.8,0.3,1.5c0.1,0.2-0.3,0.2-0.1,0.2c0.6,0,0.3-0.7,0.3-1.3v0.6c2.1-0.3,2.3,1.5,3.3,1.5c1.1,0,3.4,0.3,4.1,0.7
				c0.7,0.3,2.8,1.1,3.1,1.9c0.4,1,0,2,1,3c-0.4,0.2-1.7,0.5-1.7,1.3c0,0.6,0.7,0.5,1.2,0.5h1.5c0,0,0.8-0.8,1-0.8
				c1.8,0,2.3,1.8,4.1,1.8c0.8,0,1,0,2.6,0c0,0,0.6-0.3,0.3-1.2c1-0.5,0.8-1.5,2.6-1.5c2.3,0,3.5,2.1,4.9,3.5
				c0.1,0.1,0.7,0.3,0.7,0.6c0,0.8,1.6,1.8,2.6,1.8h1.8c0.1,0,1.2,1,1.3,1s0.3,0,0.4,0c0,0,0.5-0.9,0.9-1.2c-0.2-0.1-1.3,0-1.4-0.3
				c-0.1-0.3-0.3-0.7-0.7-0.9c-0.3-0.1-0.7,0.2-0.8-0.1c-0.1-0.3-0.3-0.8-0.6-0.8c-0.5,0-1.3-0.3-1.5-0.7c-0.6-0.8-0.4-1.3-1.1-2
				c-0.1-0.1-1.3-1.3-1.3-1.7c0-0.6,1.3-0.3,1.3-1.1C678,312,676.5,312.8,675.8,312.5z"/>
			<path class="st3" d="M687.4,307.9c-0.8-0.8-1.4-1.6-2.7-2c0.2,0.6,0.7,0.5,1.3,0.8c0.9,0.6,0.8,1.3,1.7,1.7
				c-0.1,0.7-0.1,1.2,0.7,1.3c0.1,0.1,0.3,0,0.4,0c-0.1-0.1,0-0.3,0-0.5C688.7,308.4,688,308.5,687.4,307.9z"/>
			<path class="st3" d="M691.8,311.6c-0.1,0.7-0.2,1.4,0.8,1.5c0,0.2,0,0.3,0,0.6c0,0.2,0.4,0.5,0.6,0.5c0.2,0,0.5-0.3,0.5-0.6
				C693.7,313.4,692.2,311.9,691.8,311.6z"/>
			<path class="st3" d="M705.4,320.9c-0.1,0.4,0.4,1.5,1.1,1.5c-0.1-0.1,0-0.3,0-0.4C706.5,321.4,705.9,321.3,705.4,320.9z"/>
			<path class="st3" d="M702.3,319.8c0,0.8,1.1,1.1,1.9,1.1c0.1,0,0.3-0.1,0.3-0.1C704.1,320.1,703.4,319.8,702.3,319.8z"/>
			<path class="st3" d="M702.6,317.1c0.1,0.6,1.3,2.2,2,2.2C704.3,318.3,703.6,317.7,702.6,317.1z"/>
			<path class="st3" d="M698.7,315.2l-0.1-0.1h-0.1c0,1,1.6,1.6,2.2,1.6c0.2,0,0.4-0.1,0.6-0.1C700.7,316,699.3,315.5,698.7,315.2z"
				/>
			<path class="st3" d="M695.6,313.9c0,0.1-0.3,0.1-0.3,0.1l1,0.7h0.6C696.6,314.2,696.2,314.2,695.6,313.9z"/>
			<path class="st3" d="M695.3,313.7c0.1,0.1,0.2,0.2,0.3,0.2l0,0L695.3,313.7z"/>
			<path class="st3" d="M675.2,386.5c-0.1,0-3.8-1-3.8,0c0,2.1,2.3,6.9,4.4,6.9c1.4,0,3.3-3.5,3.3-5.1c0-0.8-0.6-1.5-0.8-2.3
				C677.3,386.3,676.1,386.5,675.2,386.5z"/>
			<path class="st3" d="M678.7,385.7c0.1-0.3,0.2-0.5,0.2-1.2c-0.2,0.1-0.6,0.1-0.9,0C678,385.1,678,385.5,678.7,385.7z"/>
			<path class="st3" d="M655.4,375.5c0.6,0.6,1.7,0.5,2.4,0C656.8,375,656.7,374.8,655.4,375.5z"/>
			<path class="st3" d="M644.4,324.4c0.2,0,0.6,0,1.6,0v-1c-1-0.1-2,0-3.3,0.3C643.1,324.1,643.6,324.4,644.4,324.4z"/>
			<path class="st3" d="M687.4,351.6c-1.3-1.3-4-2.5-4-5.3c-0.9,0-2,0-2.3-0.9c-0.3-1-0.4-2.3-1.3-3.1c-1.2-1.2-4.2-1.8-4.7-3.5
				c-0.6-1.7-1.1-2.6-1.7-4.5c-0.3-1.1-0.3-3.3-1.2-3.9c-0.3-0.1-1.6-0.6-2.3-0.8c-0.8-0.6-0.4-1.8-0.7-2.8
				c-0.4-1.3-1.3-2.6-1.6-4.5c-1.2,0.6-0.9,1.5-2,2.4v6.3c0,1.6-0.7,5.7-2.9,5.7c-1.3,0-1.7-1.5-2.6-1.9c-1.7-0.7-2.8-1-4.6-1.7
				c-0.3-0.1-0.3-1.1-0.7-1.4s-1.4-0.1-1.4-0.7l0.8-3.5c0.6-0.4,1.6-0.5,1.6-1.4c0-0.6-1-1.3-1.4-1.3c-0.8,0-1,0.6-1.9,0.6
				c-2.5,0-3.9-1-6.3-2c0.1,0.8,0.8,1,1.3,1.6c-0.2,0.1-0.8,0.5-1.3,0.5c-1.2,0-4,0.6-4,1.6s-1,1.5-1,2.4c0,0.6,0.2,1.1-0.2,1.7
				c-0.1-0.1-0.7-0.6-1-0.6c-0.6,0-1.2,0.3-1.5,0.8c-0.1-1.3-0.8-2.6-2.1-2.6c-1.5,0-1.8,1.4-3.7,1.4c-0.1,1.6-1.5,1.9-1.5,3.8
				c-0.6,0-0.9-0.3-1.5-0.6c-0.4,0.8,0,1.8-0.8,2.3c-0.3-0.5-1-0.8-1.3-1.4c-0.7,0.3-1.2,1-1.2,1.7c0,0.4,0,0.8,0,1.2
				c0,2.4-5.4,4.3-7.9,4.7c-1.3,0.2-3.7,0.3-4.5,1.2c-0.8,0.8-2.3,2.5-3.6,2.6c0-0.2,0.2-0.5,0.1-0.7c-0.3,0.1-0.6,0.3-0.6,0.8
				c0,1.8,0,1.9,0,4c0,1.7,0.7,2.6,0.7,3.6c0,0.3,0.1,0.6-0.1,0.9c-0.2-0.2-0.5-0.6-0.7-0.9c-0.2,0.3-0.3,0.6-0.4,0.9
				c-0.3,1,1,1.4,1.4,2.4c0.9,2.7,1.1,3.7,1.9,6.7c0.3,1.3,1.4,2.4,1.4,4.4c0,1.6-1.6,2.1-1.6,3.1s3.3,2.4,4.5,2.4
				c3.1,0,4.2-2.3,6.6-2.3c0.8,0,0.8-0.6,1.9,0c1.5,0,2.7-0.4,4.2-0.5c0.6-3.5,4.9-2.3,8.5-3.5c1.5-0.5,2-1.6,4.5-1.6
				c2.3,0,6.4,0.7,7.5,2.1c0.6,0.8,2.1,4.2,2.6,4.2c0,0-0.3,1.3,0.6,1.3c1.5,0,3.2-3.6,4.5-4.9c0.1,1-0.3,4.7-2,5
				c0,0.3,0.3,0.7,0.7,0.7c1,0,1.1-1.3,1.7-1.5c0-0.2,0.1-0.5,0.1-0.7c0.3,0.3,0.7,0.6,0.7,1.5c0,0.7-0.3,0.6-0.5,1.6h0.8
				c0.6,0,0.9-0.3,1.4-0.6c0,0.1,0.1,0.3,0.1,0.3c0.1,0.9,1,1.7,1,2.8c0,2.9,4.4,4.6,7.2,4.6c1.7,0,1.2-1.4,2.8-1.5
				c0.1,0.4,2.8,2,3.4,2.1c0.6-3.3,7-1.9,7-5.1v0.1c0-2.4,1.5-4.6,2.1-6.3c0.7-2.2,2.2-2.9,3.4-4.9c0.3-0.6,0.7-0.8,0.7-1.4v-2
				c1-0.6,0.9-2.8,0.9-4.3c0-2.1-0.8-5.8-1.9-7.3L687.4,351.6z"/>
			<path class="st3" d="M729.4,387.7c-0.2,0-0.4-0.1-0.5-0.3c-0.3,0.1-0.7,0.6-1.2,0.6c-0.4,0-0.3-0.5-0.3-1c-0.2,0-0.5-0.2-0.5-0.7
				c-0.6,0.3-1.7,1.3-1.7,2.3c0,0.1-0.1,0.3-0.1,0.4c-0.6,0.1-1,0.2-1.3,0.8c-0.1,0.2-0.1,0.7-0.1,0.7s-1,1.5-1.3,1.7
				c-1.2,0.6-2.2,2.3-3.9,2.3c-0.5,0-0.8,0.4-1.1,0.9c-0.7,1-2.8,2-2.8,3.8c0,0.1,0.2,0.3,0.3,0.3c0,0.3,2.7,1.4,3.1,1.4
				c0.4,0,1.3,0.3,1.5,0.3c0.8,0,2-1,2.6-1.7c0,0,1.9-4,2.2-4.9c0.6,0,2.2-0.4,2.6-0.4c0.1-0.8-0.2-1.1,0-2.2c1.1,0,2.5-2.6,2.7-3.5
				C729.5,388.6,729.4,388.3,729.4,387.7z"/>
			<path class="st3" d="M737.8,379.3c-1.1,0-1,1.2-2.4,1.2c-1.7,0-2.6-1.3-2.6-2.3c-0.1,0-0.3,0-0.4,0c-0.3,0-0.6,0-0.6,0h-0.4
				c-0.4,0-1.2-2.1-1.2-2.4c0-0.2,0.2-0.4,0.3-0.6c-0.4-0.2-0.4-0.7-0.8-1.2c-0.7-0.7-1.9-0.8-2.6-2c0.4,1.7,1.4,4,3,4.2
				c-0.1,0.2,0,0.5,0,0.7c0,0.6,0.9,0.8,0.9,1.3l0,0c0,0.4,0.1,0.9,0.1,1.4c0,1-0.2,2-0.9,2.7c-0.4,0.3-1,0.4-1,1.1
				c0,1.3,2.6,0.7,2.6,2.1c0,0.8-0.8,1.2-0.8,2c0,0.6,0.4,0.9,1,0.9c1.5,0,1.9-1.4,2.6-2.4c0.1-0.2,1-0.9,1-1.4
				c0-0.2-0.3-0.5-0.3-0.7c0-0.6,0.7-0.8,1.4-0.9c0.1,0,0.1-0.2,0.2-0.2l0.3,0.3c0.7-1,0.4-2.5,1.4-3.5
				C738.2,379.5,738,379.3,737.8,379.3z"/>
			<path class="st3" d="M737.1,337v-0.8c0-0.1-0.2-0.3-0.4-0.6c-0.6,0.2-1.4,0.4-1.4,1.3c0,0.3,0.6,0.4,1.1,0.4
				C737,337.3,737.1,337.4,737.1,337z"/>
			<path class="st3" d="M738.1,334.4c0,0.2,0.1,0.6,0.3,0.6c0.7,0,1.6-0.7,1.6-0.9c0-0.2,0-0.4,0-0.6
				C740,333.5,738.1,333.6,738.1,334.4z"/>
			<path class="st3" d="M633.4,281.3c-0.1,0.2,0,1-0.2,1.4s-1.3,0.1-1.3,0.9c-0.4,0.1-0.6,0.4-0.6,0.8c-0.1,0-0.2,0-0.4,0
				c-0.4,0-0.3-1-1.1-1c-1.1,0-0.8,1.3-2.2,1.3c-0.1,0.6-0.4,1-0.4,1.6c0,0.2,0.2,0.4,0.2,0.6s-0.5,1.4,0,1.4c0.7,0,0.6-2,1.3-2.6
				c0,0,0.4,0.5,0.6,0.6c0.1-0.1,0.2-0.3,0.2-0.3c0.1,0.1,0.2,0.3,0.6,0.3c-0.1-0.2,0-0.4,0-0.5h0.9c0.1,0.2,0.2,0.4,0.2,0.6
				c-0.2,0.1-0.3,0.3-0.3,0.7c0,1.1,0.7,2.1,1.6,2.1c0.2,0,0.4,0.1,0.6,0c0,0.2,0.1,0.5,0.3,0.5c0.4,0,0.7-0.4,0.7-0.8
				c0-0.7-0.7-0.9-0.7-1.3s0.3-0.5,0.6-0.8c0.1,0.2,0.3,0.3,0.4,0.5v-0.1c0.1,0.3,0.6,1.4,0.8,1.4c0-1,0.8-1.4,0.8-2
				c0-0.5-1-4.1-1.5-4.6C634.1,281.6,633.8,281.3,633.4,281.3z"/>
			<path class="st3" d="M618.6,283.7h0.4c0.8-0.5,2-1.2,2.3-2.6c0.5,0,1-0.1,1.1-0.6c0.3,0,0.4-0.2,0.6-0.4c-0.2-0.2-0.6-0.4-0.6-1
				c-0.2,0.2-0.2,0.5-0.3,0.8C621.4,281.2,619.2,281.9,618.6,283.7z"/>
			<path class="st3" d="M622.1,270.9c0,0.4,1.1,1.1,1.4,1.1c0.2,0,0.3-0.2,0.5-0.4h0.4v0.6c-0.1,0.1-0.4,0.3-0.4,0.7
				c0,0.3,0.5,0.9,0.9,0.9s0.6-0.4,1-0.4c0.9,0,0.9,1.3,1.8,1.4c-0.2-0.5-0.4-0.7,0-1.1c0.4,0.5,1.9,1.1,2.3,1.9
				c0.1,0.2,0.1,0.5,0.3,0.5c0.1,0,0.3-0.2,0.3-0.4c0-0.2,0-0.3,0-0.5c-0.4,0-0.8-0.3-0.8-0.7c-0.1,0.1-0.4,0.1-0.4,0
				c0-0.3,0.3-0.4,0.4-0.7c-0.1,0-0.2-0.1-0.4-0.1c-0.3,0-0.3,0.4-0.6,0.4c-0.4,0-0.6-1.4-1.3-1.4c-0.4,0-0.7,0.2-0.7,0.5
				c0,0.1,0,0.2,0,0.3c-0.7-0.3-1.6-1.8-1.5-2.7c0-1.3,1.2-1.4,1.2-2.7c0-1-0.8-1.9-0.8-2.7c0-0.1-0.1-0.3-0.1-0.4s-0.1-0.2-0.1-0.3
				c-0.3,0.1-0.5,0.6-0.8,0.6c-0.6,0-0.4-1.1-1.1-1.1c-0.5,0-0.6,0.6-0.7,1.2c0,0.7,0.3,1.2,0.3,1.9c0,0.5-0.1,1.4-0.4,1.8
				C621.9,268.7,622.1,269.9,622.1,270.9z"/>
			<path class="st3" d="M632.7,276.4c-0.5,0-0.9-0.3-1.4-0.3c-0.2,0-0.4,0.2-0.6,0.2c0.1,0.5,1.5,0.9,1.5,1.8c0,0.1-0.2,0.4-0.3,0.4
				s-0.5,0-0.8,0v0.4c0.1,0.2,0.5,0.8,0.9,0.8v0.4c-0.3,0.4-0.1,0.8,0.3,0.9c0.2,0,0.4,0,0.6,0v-0.4c-0.3-0.1-0.5-0.7-0.5-1.2h0.9
				c0.1-0.2,0.2-0.4,0.3-0.8c-0.1,0-0.5-0.6-0.5-0.6s0.1-0.6,0-1c-0.1,0-0.3,0-0.4,0C632.8,276.8,632.7,276.5,632.7,276.4z"/>
			<path class="st3" d="M627.3,277.5c-0.1-0.1-0.2-0.2-0.3-0.2s-0.4,0.2-0.4,0.3c0,0.5,0.2,1.7,0.2,2.7c0.6-0.4,2-0.9,2.1-1.9
				C628.9,278,627.8,277.8,627.3,277.5z"/>
			<path class="st3" d="M629.2,279.3c-0.3,0.1-0.7,1.6-0.7,1.7c-0.2,0-0.6,0.2-0.6,0.4c0,0.4,1.1,1.6,1.4,1.6c0.1,0,0.4-0.2,0.4-0.3
				c0-0.4-0.3-0.2-0.3-0.8c0-0.7,0.7-1.2,0.7-1.9C630.1,279.6,629.8,279.1,629.2,279.3z"/>
			<path class="st3" d="M629.8,282c0.1,0,0.3,0,0.3,0c0-1,0.8-1.4,0.9-2.5c-0.2,0-0.4,0.1-0.6,0.1C630.4,280.8,630,281,629.8,282z"
				/>
			<path class="st3" d="M631.7,280.9c-0.2,0.2-0.5,0.1-0.8,0c-0.2,0.4-0.6,0.5-0.6,0.9c0,0.1,0.2,0.3,0.4,0.3
				C631.3,282.1,631.7,281.6,631.7,280.9z"/>
			<path class="st3" d="M630.4,277.6c0-0.8-0.8-1-1-1.5h-0.6c0,0.2,0,0.5,0,0.9c0.3,0,0.6,0,0.9,0
				C629.7,277.3,630.4,277.9,630.4,277.6z"/>
			<path class="st3" d="M625.3,276.5c0.3,0,0.6-0.7,0.5-1.2c-0.2-0.7-0.9-0.6-1.6-1.1h-0.6C623.5,274.1,625,276.5,625.3,276.5z"/>
			<path class="st3" d="M626,274.5c0.1,0.1,0.5,0.1,0.6,0C626.5,274.4,626.1,274.5,626,274.5z"/>
			<path class="st3" d="M625.1,249.4c-1,0-2.4,2.7-2.4,4.2c0,1-0.2,1.9,1,1.9C625.3,255.5,626.8,249.4,625.1,249.4z"/>
			<path class="st3" d="M604.6,261.2c0-0.4-0.7-1-1-1c-0.9,0-3,1.7-4,1.7c0,0,0,0.6,0,1c0,0.9,0.7,1.4,1.7,1.4
				C602.3,264.3,604.6,262.2,604.6,261.2z"/>
			<path class="st3" d="M594.7,305.3c0.1,0.2,0.3,1.1,0.5,1.1c0.3,0,0.5,0.5,0.9,0.5c0.1,0,0.3,0,0.5,0c-0.1,0-0.1-0.6-0.1-0.8
				c-1,0-1.4-1.4-1.7-2.4c-0.5,0.1-1.5,0.5-1.5,0.9C593.3,305.1,594.4,304.7,594.7,305.3z"/>
			<path class="st3" d="M598.9,307.1c0.4,0,0.7-0.4,0.8-0.8c-0.2-0.1-0.4-0.3-0.6-0.3s-0.5,0-0.7,0c-0.1,0,0,0.3,0,0.3
				C598.3,306.6,598.5,307.1,598.9,307.1z"/>
			<path class="st3" d="M581.3,303.1h-1c0,0,0-0.1,0,0c0,0.5,1.1,1.6,1.5,1.7C581.9,304.1,581.3,303.7,581.3,303.1
				C581.3,303.2,581.3,303.1,581.3,303.1z"/>
			<path class="st3" d="M578.5,298.6l-0.3,0.1h0.1c0.1,0.4,1,1.5,1.3,1.5C580,300.3,578.9,298.9,578.5,298.6z"/>
			<path class="st3" d="M641.7,232.5c0,0.3,0.3,0.8,0.7,0.8c0.2,0,0.5-0.3,0.8-0.3c-0.1-0.2,0-0.4,0-0.6c0.1,0.3,0.1,0.8,0.6,0.9
				l-0.3,1c0,0-1.1,1-1.1,1.1c0,0.3,0.6,1.1,0.6,1.1V236c0,0.2,0.4,0.6,0.6,0.6c1,0,1.7-2.2,1.9-3.4c0.2,0.1,0.5,0,0.7,0
				c-0.1-0.2,0-0.5,0-0.7l-0.6-0.6c-0.2,0-0.1-0.5-0.1-0.7c-0.8,0-1.2-0.6-1.8-0.6C643.6,230.8,641.7,232.1,641.7,232.5z"/>
			<path class="st3" d="M648.1,233c0.9,0,0.8-1.1,1.4-1.7c0.2,0.1,0.8,0.5,0.8,0.5c1,0,2.1-2.4,0-2.4c0,0-0.9,1.2-2.1,0.8
				c0,0.1-1.2,1-1.2,1c0,0.3,0.2,0.5,0.6,0.8C647.5,232.4,647.7,233,648.1,233z"/>
			<path class="st3" d="M655.6,224.3c-0.6,0-1,1.9-2.2,1.9c-1.6,0-2.2,0-4.3,0c-1.8,0-2.4,2-3.9,3c-0.3,0.1-0.9,0.4-0.9,0.6
				c0,0.3,0.5,0.3,1,0.3c1.5,0,2.7-0.5,3.6-0.9c0.6-0.3,1,0.1,1.5-0.2c0.2-0.1,0.3-0.5,0.7-0.5c0.8,0,0.9,0.4,1.8,0.6
				c0,0.3-0.5,0.8-0.5,1.2c0,0.2,0,0.6,0,0.6c1,0,0.7,0.6,1.3,0.7c0.4-0.7,1.3-1.8,1.8-1.8c0.2,0,0.6,0,0.8-0.1
				c-0.1,0-0.7-0.8-0.7-1.1c0-0.2,0.2-0.6,0.4-0.6c0.6,0,0.6,1.2,2,1.2c0.6,0,1,0.2,1.4-0.9h0.7c0,1,0.2,0.4,0.3,0.4
				c0.3-1,0.9-1,1.9-1.7c-0.1,0.5-0.3,0.6-0.1,1.1c0.8-0.3,0.8-1,1.7-1.4c-0.1-0.4-0.3-0.7-0.3-1.3c0-0.9,0.8-1.3,0.8-1.9
				c0-0.8-0.1-2.9,0.6-3.1c0.2-0.1,0.8,0.1,0.8-0.1c0-0.1,0-0.3,0-0.4c0-0.9,0.8-1,0.8-2.2c0-1-1-1.5-1-2.4c0-0.5,0-0.9-0.2-1.4
				c-0.1-0.2-0.4-0.4-0.9-0.4c-0.2,0-0.1,0.6,0.1,0.6c0.1,0,0.1,0.1,0.2,0.1c-0.8,0.7-0.8-0.2-0.9-0.2c-0.9,0-1.6,1.7-1.6,2.6
				c0,0.4,0.3,0.4,0.3,0.8c0,2.2-2.4,5.1-3.8,5.6c-0.8,0.3-1,1-2,1c-0.1,0-0.3-0.2-0.3-0.3c0-0.3,0.1-0.7,0.3-0.9
				C656.5,222.8,655.6,224.3,655.6,224.3z"/>
			<path class="st3" d="M662.6,209.1c0,0.5-0.8,1-0.8,1.7c0,0.3,0.8,0.4,0.8,0.7c0,0.1,0,1.3,0,1.3h0.3c0.6,0,1.1-0.1,1.7-0.9
				c-0.3-0.3-1.3-0.2-1.3-0.9c0-1.2,1.2-0.4,2.1-0.4c0-0.2,0.3-0.5,0.5-0.5c1.2,0.8,1.9,0.9,3,1.6c0.6-0.8,1-2.4,2.5-2.4
				c1,0,1.5-0.2,2.2-0.6c-0.3-0.1-0.8-0.5-0.8-0.9c0-0.3,0.3-0.5,0.4-0.8c-0.4-0.3-0.9,0.1-1.5,0.1c-2.7,0-3.5-2.2-5.4-3.5
				c-0.1,0.2-0.4,0.4-0.4,0.9c0,0.3,0.3,0.4,0.3,0.7c0,0.9-0.5,3.6-1.7,3.6c-0.2,0-0.5,0.1-0.7,0l-0.3,0.1c-0.2-0.1-0.9-0.2-0.9-0.3
				L662.6,209.1z"/>
			<path class="st3" d="M673.4,207c-0.1,0.2-0.2,0.6,0,0.6c0.6,0,1.5-1,1.7-1.5l-0.2-0.2C674.4,206,673.7,206.6,673.4,207z"/>
			<path class="st3" d="M674.8,205.9l0.1,0.1h0.1L674.8,205.9z"/>
			<path class="st3" d="M678.8,203.5c-0.8,0-1.7,1.4-1.7,1.4c0,0.1,0,0.4,0,0.4c1,0,1-1.4,2.1-1.4v-0.4
				C679.2,203.5,679.3,203.5,678.8,203.5z"/>
			<path class="st3" d="M682,202.7c0.6,0,1.1-1,1.2-1.4c-0.1,0-1,0-1.1,0.4c-0.1,0.2,0.1,0.6-0.1,0.6
				C681.9,202.3,681.9,202.7,682,202.7z"/>
			<path class="st3" d="M668.7,183.6c-0.3-0.9-0.8-1.9-0.8-2.9c-0.1,0-0.2,0-0.2,0s0,0.2,0,0.9c0,0.3-0.4,0.5-0.4,0.9
				c-1,0.2-1.5,2.1-1.5,3.5c0,1,1,1.5,1,2.5c0,1.7,0,2.3,0,4.1c0,0.8-0.3,1.1-0.3,2.2c0,0.8,0.5,1,0.5,1.9c0,1-0.2,1.9-0.2,3.1
				c0,0.3,0,2,0,2c1,0,0.6-1.5,1.5-1.5c0.2,0,0.5,0,0.7,0c0.1,0,0.4,0.8,0.7,0.7c0.1,0,0.2-0.1,0.2-0.1c-0.6-1.2-2-2-2-3.5
				c0-1.8,0.2-4,2.1-4c0.6,0,1.1,0.4,1.5,0.9c-0.4-1.7-1.4-3.1-2-4.8c-0.1-0.4-0.6-1.2-0.6-1.9V186C667.8,185,669,184.6,668.7,183.6
				z"/>
			<path class="st3" d="M498.5,129.7C498.5,129.7,498.5,129.8,498.5,129.7c0.1,0.2,0.2,0.2,0.3,0.3L498.5,129.7z"/>
			<path class="st3" d="M488,127.2c0,0,1.9-0.1,2.1,0c1.2,0.3,0.6,1.5,1,2.4c0.1,0.3,1.3,0,1.7,0c0.2,0,0.3,0.5,0.5,0.5h5.4
				c-0.1,0-0.2-0.2-0.2-0.3c-1.5-1.4-3.8-2-3.8-4.5c0-4.4,4.8-9.1,8.3-10.1c1.2-0.3,1.6-1.9,3.3-1.9c0.8,0,1.1-1.4,1.5-1.6
				c2.3-1.1,4-0.6,6.5-1.7c1.7-0.8,7.1-1.3,7.1-3.6c0-0.8-1.9-1.7-2.8-1.7c-3.5,0-6.7,4-10.4,4c-0.8,0-1.3-0.8-2.1-0.8
				c-1.3,0-1.3,0.8-2.2,0.8c-2.6,0-4.5,3.3-6.3,3.3c-1,0-1.7,0.5-2.8,0.5c-0.5,0-0.7,0.4-0.7,0.7c0,0.4,0.5,0.7,0.5,1.3
				c0,1.9-3.6,3-3.6,4.2c0,0.6,1,0.7,1.1,1.5c-1.1,0.3-3.3,0.8-3.3,1.9c0,0.8,0,1,0,1c0,1.3-2.2,1.1-2.2,2.8
				C486.8,126.6,488,127.2,488,127.2z"/>
			<path class="st3" d="M498,129.3l0.4,0.4C498.3,129.5,498.2,129.4,498,129.3z"/>
			<path class="st3" d="M492,224.1c-1,0.2-2.2,0.4-3.4,0.4c-0.9,0-2.7,0.1-3.3-0.4c-0.4-0.4-0.6-1.1-1.2-1.3c-0.8-0.1-1.7,0.3-2-0.5
				c-0.4-0.8,0.2-1.4-0.4-2.2c-0.3-0.6-0.9-0.5-0.9-1.2l1,0.1c0.8-1.1,0.8-2.8,1.9-3.3c-1.9-1-4.7-5.2-4.7-7.6
				c0-0.7-1.5-1.7-1.5-2.8c0-0.3,1.3-2.9,1.7-3.3c0.3,0.2,2.4-1,2.6-1c1.8-0.7,2.9-1.2,5.2-1.2c3.8,0,4.4,1.8,5.8,3.9
				c-1,0.8-2.4,0.1-3.7,0.1c-1.9,0-4.7,1.8-4.9,1.7c0.1,1.4,1.2,1.3,1.6,2.1c1.3,2.3,3.2,3.2,3.2,5.9c0.6-0.3,1.9-1.1,2.4-1.2
				c0.1,1,1.2,1.4,1.2,2.5h-2.1c-0.6,0-1.3,0.9-1.4,1.9c1.5,0.2,2.4,1.7,2.4,3c0,0.8-0.4,1-0.4,1.6s0.8,1.4,0.8,1.5
				C492,223.4,492,223.5,492,224.1L492,224.1z M508.8,227.5c-0.7,0-1-0.6-1.7-0.6c-0.2,0-0.2,0.3-0.3,0.4c-0.2-0.4-0.2-0.8-0.2-1.4
				c0,0.4,0.1,0.8,0.2,1.2C507.5,226.3,508.1,227.5,508.8,227.5L508.8,227.5z M454.2,240.1L454.2,240.1L454.2,240.1L454.2,240.1
				L454.2,240.1z M425.3,180.2c0.1,0,0.2,0,0.2,0C425.4,180.2,425.4,180.2,425.3,180.2L425.3,180.2z M746.8,138
				c-5.5-3.2-12.8-6.6-20.9-6.6c-2.2,0-3.8,0.5-3.5,1.4c2.1,6.8-3.2-0.1-4.5,0l-16-0.3c-0.9-3.6-3.3-4.9-8-4.9c-2.6,0-6.5,1-8-0.3
				c-1.4-1.2-1.5-2.9-3.5-3.5c-4.2-1.4-8.8-2.9-14.3-2.9c-5.4,0-6.2,3-6.6,5.1c-5.1,0-7.6,0-11.1,0c-2,0-2.2-1.1-4.5-1.3
				c-0.2,1-0.6,3.4-1.7,3.4c-2.9,0-4.2-3.5-4.2-5.4c0-0.5,5.6-3.7-8.7-4.9c-1.8-0.2-2.8,1-2.8,3.1h-7.6c-2.3-1-14.3-2.3-15.9-4.8
				c-9.1,7.4-7.1,2.8-7.1,2.8c2.2-2.7,23.2-9.4,5.9-12.5h-7.3c-0.7-2.1-2.2-4-5.2-4c-3.6,0-5.1,2.6-7,4.1c-1.4,1-10.4,4.6-9.6,1.4
				c-2.3,0.7-12.1,1.3-17.2,5.9c-1.1,1-1.4,3.8-3,3.8c-2.3,0-10.9-0.8-10.9,3.1c0,0.8,0.8,1.7,1,2.8c-1.5,1-2.1,0-6.9,0
				c-4.1,5.5-3.8-0.8-4.7-2.1c-0.3,2.2-1.8,3.2-3.6,4.2c0.6,2,3.5,4,1.4,6.3c-1.5,1.6,2.8,6.8,0.6,6.8c-2.9,0-3.7-10.5-3.7-12.7
				c0-2.4,3.9-3.3-2.1-4.5c-3-0.6-8.7,4.3-8.7,7c0,3.2,1.5,5.3,3.1,7c3.9,6.1-5.4-0.7-8.8-1.6c-9.5-2.5-6.5,0.8-6.5,1.2
				c-0.3,5.4-2.6,1-3.8,1c-2.2,0-6.6,2.9-9.7,1.4c-1.6-4.1-12,5.2-14.6,5.2c-0.8,0-2-0.6-1.7-1.4c1.1-2.8-0.5-8.9-3.5,0.3
				c-0.2,0.6,1,0.8,1,2.1c0,2.4-3.6,0.8-5.5,1.4c-1.9,0.6-0.7,7.3-9,3.8v2.8c-3.1-0.4-3.5-4.6-4.9-6.6c3,0,4.6-0.1,7.5,0.7
				c3.9,1,11.6-3.8-0.2-7.6c-3.4-1.1-10.9-4.9-13.2-4.9c-0.2,0-0.3-0.3-1.9-0.1c-0.2,0-1.7-0.2-2.3-0.3c0-0.4-0.5-0.5-1.2-1
				c1.6-0.6,2.2,0,2.8-1.7c-0.6-0.3-2.1-1.1-2.4-1.1c-0.6,0-0.8,0.5-1,1c-0.8-0.1-0.6-0.7-0.7-1.6c-1.1,0.7-1.7,1-2.6,1.9
				c-0.1-0.4-0.1-0.8-0.3-1.3c-1.2,0.6-1.6,2.2-3,2.1c0.3-1,1.5-1.3,1.5-2.2s-2.6,0.8-3.7,0.8c-0.6,0-1-0.6-1.5-1
				c-0.2,0.4-1.5,0.7-1.5,1c0,0.5,1,0.6,1.6,0.8c-1.3,0.7-2.8,0.3-2.8,1.9v-1.2c-3.1,0.1-3.1,1.7-3.1,1.9v-0.8
				c-1,0.2-2.5,0.1-3.2,0.8c0.3,0.3,0.1,0.2,0.4,0.6c-0.5,0.3-1,0.1-1.5,0.1c-0.7,0-1.3,0.6-1.6,1.1c0.6-0.1,0.6,0,1.1,0.1
				c-0.1,0.1-0.9,1.7-1.3,1.7c-0.9,0-1.2-0.7-2.3-0.7c0.2-0.5,0.1-0.8-0.2-1.3c-0.2,0.2-0.4,0.5-0.6,0.9c-0.2,0-0.3-0.2-0.6-0.2
				c-0.6,0-0.9,0.4-1,1.1c0,0,0.7,0.2,1,0.2c-0.3,0.1-1,0.5-1.4,1c1.7,0,2.4-0.9,4.1-1.3c-0.3,1.5-2.3,3.8-3.8,4.4
				c-1.5,0.6-2.4,1.5-3.3,2.9c0,0.1-0.7,1.6-0.7,1.6c-0.6,0-0.4,2.2-1.3,2.8c-2.1,1.7-3.3,4.1-6.3,4.9c0.6,0.1,0.9,0.3,1.7,0.5
				c-2.5-0.3-2.8,1.4-4,1.7c-1.5,0.4-2.3,1.3-3.1,2.4c-0.4,0.6-1.5,0.6-1.5,1.6c0,1.9,0.1,3.7,1.2,4.9c-0.4,0.5-0.8,1.3-0.8,1.8
				c0.8-0.3,1.1-0.3,2.1-0.3v1c-1,0.1-1.5,0.5-1.5,1c0,0.3,2.6,1.9,3,1.9c2.9,0,5.1-2.6,6.5-4.7c0.5,0.7,0.6,1.2,1.3,1.7
				c-0.1,0.3-0.4,0.7-0.4,1c0,1.3,1,1.5,1.4,2.6c0.5,1.5,0.3,2.5,1.5,3.7c0,0.2-0.1,0.5-0.1,0.7c0,0.3,1,3.6,1.5,3.6
				c1.7,0,2.2-1.9,3.3-1.9c0.6,0,0.9,0,1.9,0c0.2-2.1,1.9-1.8,2.1-3.7c-0.4-0.1-1-0.5-1-1.4c0-1.5,0.6-3.6,1.9-3.6
				c0.7,0,2.8-1.8,2.8-2.8c0-1.3-1.8-2.6-3.1-2.8c0-0.5-0.5-1-0.5-1.3v-1.4c0-0.5,0.3-1.8,0.9-2.8c0.7-1.3,1.9-1.5,3.1-2.2
				c1.5-0.8,4.6-2.2,4.6-3.8c0.2-0.4,0-0.8,0-1.6c0-1.9,1.9-2.8,4.2-2.8c1.7,0,4,0.3,4,2.1c0,1.2-1.7,1.5-2.6,2.1
				c-1.8,1-3.3,4.9-6.3,4.9c0.1,0.5,0,0.9,0,1.4c0,0.8,0.6,2.4,1.3,2.6c-0.2,0.3-1,0.8-1,1.5c0,1.5,1.5,2.4,3,2.4
				c0,0.8,0.6,0.9,1.5,0.9c1.2,0,2.8-0.6,4.2-1c1.3,0.2,4.5,0,5.2-1.4c0.6,0.8,1.3,1.1,1.7,2.4c-0.8,0.6-2.9,1.5-3.8,1.5
				c-1.2,0-1.9-0.5-3.5-0.5c-1.5,0-5,1.4-4,2.4c3.5,3.3,1.7,4.5,0.8,4.5c-1.4,0-1.6-1.7-2.8-1.7c-1.3,0-2.8,3.2-2.8,4.9
				c0,2.7-2.2,2.3-2.4,4.8c-0.8,0.1-1.7,0.2-2.5,0.2c0-0.1,0.1-0.5,0.3-0.8c-0.5-0.2-1.5-0.3-2.4-0.3c-0.8,0-1.9,1-2.6,1.3
				c-1,0.5-1.9,0.3-3.1,0.8c-0.4,0.1-0.4,0.6-1.2,0.6c0,0-1.2-0.8-1.2-1s0.3-0.4,0.4-0.8c-1.6-0.2-2.9,1.4-4.8,1.4
				c-0.2,0-0.4-0.5-0.5-0.8c-0.6,0-0.9-0.3-1.7-0.3c0.1-0.2,0-0.3,0-0.8c-0.4-0.1-0.8-0.6-0.8-1.3c0-1.2,0.7-1.9,1.3-2.6
				c0.2-0.2,0.7-0.4,0.7-0.7c0-0.2,0-0.4,0-0.6c0,0-0.9-0.1-0.9-0.8s-1.2-1.1,0.9-1.8v-0.8c-3.1,1.3-4.7,1.5-4.7,4.4
				c0,1.7,1,2.2,1.3,4.1c0,0.1,0.4,1.4,0.4,1.7c0,0.6-1.1,1.2-1.6,1.2c-0.6,0-1.3-0.4-1.8,0.1c-0.1,0.1-0.4,0.7-0.6,0.5
				c-0.5,0.2-0.1,0-1,0c-1.6,0-2.6,1.1-3.6,2.1c-0.1,0.1-0.7,0.5-0.7,0.8c0,0.8,0.2,1.7-0.3,2.2c-0.3,0.3-3.1,1.4-3.5,1.5
				c-0.3,0.1-0.6,0.1-1,0.1c-0.4,1.7-1,3.2-3.1,3.2c-0.1,0.6-0.6,0.8-1.2,0.8c-0.8,0-1.5-1.1-2.1-1.1h-0.5v1c0,0.2,0,1.3,0,1.4v0.5
				c0,0.1-1,0.3-1.5,0.3c-0.6,0-1.6-0.3-1.8-0.7c-0.7,0.2-2.6,0.6-2.6,1.3c0,0.1,0,0.3,0.1,0.3c0,1,3.1,1.6,4.2,2
				c0.3,0.1,0.4,0.4,0.8,0.5c0,1.1,0.4,2.4,1.8,2.4c0,0.6,0.4,0.4,0.4,1c0,0.3-0.1,0.8-0.3,1l0.1-0.1c0,0.4,0.1,1.6,0.1,1.9
				c0,1.3-0.9,1.7-0.9,3.1c-0.2,0-1.3,0.1-1.7,0.1c-0.7,0-1.1-0.5-1.9-0.5h-3.3c-0.3,0-0.9,0-1.2,0h-3.1c-0.4,0-0.8-0.3-1-0.3
				c-0.4,0-2.8,1.5-2.8,1.9c0,0.6,0.8,1.6,0.8,2.6c0,1.8-0.6,3.6-0.6,5.4c0,0.5-0.8,0.7-0.8,1.6c0,0.6,0,1,1,1c0,0.8,0,1.3,0,2.8
				c0,0.2,0.2,0.6,0.6,0.6c1,0,1.9-0.5,3-0.5c1.6,0,1.7,2.6,2.7,2.6c1.5,0,2.3-1.4,4-1.4c0.3,0,2-0.3,2-0.1V224
				c2.1,0.4,1.7-1.3,2.5-1.7c1.5-0.7,1.9-1.5,2.9-2.9c-0.3-0.1-0.7-0.3-0.7-0.9c0-1.5,2-4.4,3.3-4.7c1.5-0.3,3-0.8,3.4-2.2l-0.4-1.5
				c0-1,1.1-1.7,2.2-1.7c1.4,0,2.4,0.8,3.9,0.8s2.4-1.2,3.8-1.9c0.6-0.3,0.7-1.2,1.9-1.2c2.6,0,3.1,2.8,4.3,4.4
				c0.1,0.5,1.2,0.8,1.7,1.3c1.2,1.2,1.7,1.8,3.8,2.3c0,0.4,1,0.7,1.3,0.7c0.1,0.4,1.7,2.1,1.9,2.1c0.1,0.6,0.7,0.9,0.7,1.9
				c0,0.8-0.3,1.9-1.2,1.9c0,0.3,0.3,0.5,0.8,0.5c1,0,0.8-1.5,1.5-2.1c0,0,0.9,0,0.9-0.3c0-0.9-1.3-1.1-1.3-2c0-0.7,0.7-1.1,1.5-1.1
				c1.1,0,1.5,0.9,2.2,1c0.2-1.5-1.5-2-2.9-2.7c-0.4-0.2-2.1-0.6-1.8-1.4c0.1-0.1,0.1-0.3,0.1-0.6c-1,0-1.7,0.4-2.8-0.1
				c-0.6-0.3-1-1.4-1.3-2.4c-0.2-0.6-0.8-1.8-1.8-2.2c-0.8-0.3-1.5-0.7-1.5-1.7c0-0.4,0.1-0.8,0.3-1.3c-0.1,0-0.4-0.3-0.4-0.4
				c0-0.8,1.5-0.5,2.3-1c0.4,0.4,0,2.1,0.9,2.1c0.8,0,1.3,0,2.1,0c0,1,1.7,3.1,3.3,3.1c0.3,0,0.6,0,1,0c0,1,1.3,1.2,2.2,1.7
				c1,0.5,2.7,2.2,2.7,3.1c0,0.6,0,1,0,1.8c0,1.5,1,2.1,1.8,2.9c0.6,0.6,1.1,0.6,1.4,1.6c0,0.1,0.1,0.2,0.3,0.2c0.4,0,0.8,0,1.2,0
				c-0.2,2.1-0.9,1-0.9,1.4c0,1.2,1,2.7,2.1,2.7c0.1,0,0.6,0,1,0c-0.7,0-0.1-1-0.1-1.4c0-0.6-0.5-0.6-0.5-1v-0.6
				c0,0.4,1.3,0.9,2,0.9h0.1c0.1,0,0.8-0.1,1.2-0.3c-0.1-0.1-0.3-0.4-0.3-0.6c-0.6,0-2.4-1.7-2.4-1.9s0.2-0.4,0.3-0.8l-1.3-1.5
				c0-0.3,0.4-0.8,0.8-0.8c0.6,0,0.8,1,1.8,1c0.1-0.6,0.1-1,0-1.5c0.9-0.3,1.2-0.9,2.3-0.9c1.3,0,1.9,1.4,2.9,1.4
				c0.9,0,1.1-0.9,2-1.3c0.6-0.3,1.1,0,1.7-0.2c0.3-0.1,0.6,0,0.9-0.3c-0.4-0.6-1.9-1.6-1.9-3c0-1,2.3-2.4,2.3-3.1v-1.8
				c0-0.4-0.2,0.1,0.1-1c0-0.7,0.6-1,1.3-1.2c-0.1-0.3-0.1-0.7-0.2-1c1.5-0.4,1.6-2.2,3.2-2.2c1.3,0,4.4,5.2,5.4,5.2
				s4.3-1.5,4.9-2.2c-0.1,0-2-0.3-2-0.3c-0.3,0-1.2-0.2-1.2-1c0-0.6,5.1-2.4,7-3.1c0,0-0.9,1-1.3,1.2c0.1,0.4,2,2.3-2.1,3.3
				c1.7,4.1,9.7,3.4,9.7,8.9h0.3c0.2-0.1,0.4,0,0.7-0.1c-1.6,0.4-2.4,1.9-4.1,1.9c-0.7,0-1.9,0-4,0c-0.8,0-3.5-0.7-3.5-1.5
				c-1.6,0-1.5-1.1-3.4-1.1c-1.2,0-3.1-0.2-4,0.4c-0.8,0.5-2,1.2-2.9,1.2c0,0-1.3,0-2.2,0c-0.4,0-1.7-0.1-1.7,0.5
				c0,0.5,0.4,0.4,0.6,0.9c-1.3,0.6-6.3,0.3-6.3,2.4c0,0.4,0.7,0.4,1.2,0.4c-0.1,0.3,0,0.4,0,0.8c0,1.3-0.8,1.2-1.5,1.9
				c1,0.5,1.7,0.4,2.4,1.3c-0.7,0.7,1.3,1.5,1.7,1.9c-0.1,0.1-0.4,0.1-0.6,0.1h0.8c1.3,0,2,1.5,3.3,1.5s1-1.5,2.4-1.5
				c1.5,0,2,1.8,3.5,1.8c2,0,2.4-0.9,3.5-1.7c0.3,0.3,0.5,0.6,1.2,0.6c0.6,0,1.1-0.4,1.1-0.6v0.7c0,0.1-0.3,0.3-0.3,0.7
				c0,0.8,0.5,1.8,0.5,3c0,1.6-1.3,1.9-1.7,3.3c-0.4,1.4-0.6,2.2-1.1,3.7c-0.1,0.3-0.6,0.3-0.6,0.8l0.5,1.1
				c-0.1-0.2-0.2-0.4-0.3-0.7c-0.9,0.2-0.9,0.6-1.9,0.6c-1.5,0-2.3-0.9-3.6-0.9c-2.2,0-2.9,1-5.1,1c-2.4,0-5.6-1-7.8-1.9
				c-1.1-0.4-2.7,0.2-3.3-0.7c-0.3-0.4-1.1-0.5-1.1-1.6H428v-0.2c-2.2,0.7-3.6,0.7-3.6,2.9c0,0.5,0,0.9,0,1.4c0,0.3-0.9,1.2-1.6,1.2
				c-5.1,0-6.9-5.4-11.5-5.4c-0.6,0-1.1,0-1.9,0c-1.3,0-3.1-1.7-3.1-3.5c0-1,0.9-1.7,0.9-2.7c0-0.6-0.9-1-0.9-1.6c0-0.9,1-0.8,1-1.8
				c-0.4,0.1-0.6,0.4-1,0.4c-1.1,0-0.8-1.3-2.1-1.3c-1.3,0-1.4,1-2.8,1c-0.8,0-1.2-0.5-2.1-0.5c-1,0-2.2,1-2.9,1
				c-0.6,0-1.5-0.7-2.4-0.7c-3.1,0-8.3,1.9-11,3.3c-0.8,0.4-1.1,1.3-2.6,1.3c-2.4,0-4.2-0.1-5.9-1.3c-0.7,0.6-0.8,1.2-1.4,2.3h0.1
				c-1.7,1-4.1,3.9-5.9,6.2c-1.4,1.7-0.3,2.7-1.2,5.2c-0.4,1.1-2.1,2.4-3.1,3c-1.2,0.7-3.1,0.5-4,1.8c-1.7,2.3-3.8,6-4.7,8.7
				c-0.3,1.1-1.9,1.9-1.9,3.3c0,2.8,1.4,4.7,1.4,7.8c0,1.7-1.4,5.5-2.9,6.3c0.5,1,1,1.2,1,2.1c0,0.6,0.4,1,0.4,2.1h-0.2
				c0.3,0,0.6,0.7,0.9,1.1c0,0.3,3.7,3.6,4.2,4c1.7,1.4,2.2,3.1,3.5,5.1c1.5,2.2,5.5,4.6,7.4,6.1c0.3,0.2,1.3,0.6,2.1,0.6
				c2.7,0,3.9-1.4,6.6-1.4c1.4,0,3.1,1,4.2,1c1,0,1.4-0.9,2.4-1.3c2.6-0.8,5.2-2.6,8.7-2.6c2.9,0,3.3,3.9,5.4,3.9c0.6,0,1.7,0,2.9,0
				c2.4,0,3.6,1.6,4.4,3.1c-0.7,0.6-0.7,2.7-0.7,3.6c0,0.3-0.3,0.5,0,1.1c-0.5,0.3-1.6,2-1.6,2.8c0,3.3,4,5.7,5.8,8
				c0.9,1.2,0.6,2.8,1.2,4.2c0.7,1.7,1.2,2.8,1.7,5.8c0.2,1.5,0.9,2.2,0.9,4c0,3.7-4.4,4.9-4.4,9.7c0,4.5,2,7.2,4,10.4
				c0.6,1,1.3,1.3,1.3,2.3c0,0.6,0,0.8,0,1.9c0,6.1,3.2,10.2,5.7,14.5c0.3,0.6,2.3,2.7,2.3,3.8c0,0.8-0.3,1.3-0.9,1.9
				c0.6,0.6,1.3,2.1,1.3,3.5c0.1-0.1,0.3-0.3,0.7-0.4c0.4,0.8,1,1.4,2.2,1.4c2.6,0,4.4-2.1,7.3-2.1c0.8,0,1.2,0.7,1.9,0.7
				c0.6,0,1.2-0.4,2.1-0.5c0.2-1.3,2-0.7,3.1-1.3c2.8-1.4,3.6-3.3,5.4-5.6c1.1-1.4,1.2-3,2.8-4.5c0.8-0.8,2.8-2.4,2.8-4.3
				c0-0.6-0.4-1.1-1-1.5c0.8-1.7,1.8-2.4,3.5-3.3c0.5-0.2,1.7,0.1,2.1-0.5s0.6-2.9,0.6-4c0-2.1-2-3.1-2-4.7c0-0.8,1.1-1.9,2.1-2.1
				c0.8-4.6,10-4,10-9.4c0-0.6-0.1-1-0.5-1.4c0-2,0.3-3.3,0.3-4.4v-1.7c0-0.1,0.4-0.6,0.4-1c0-1.3-2.6-2.5-2.6-4.9
				c0-2.1-0.6-3.1-0.6-5.2c0-2,1.8-2.4,2.3-4.2c1.7-6.2,6.7-7.3,11.3-10.9c2.6-2,3.5-4.5,5.6-7.3c1.7-2.4,4.9-7.5,4.9-11.5
				c0-0.4-0.3-0.6-0.5-1c-2.5,0.6-5,1.7-7.7,2.1c-1,0.1-1.7-0.4-2.8,0c-0.9,0.3-1,1.2-2.1,1.2c-1.2,0-2.1-2.2-3-2.9
				c0.7-0.8,0-1,0-2.2c-2.3,0-2.9-2.9-4-3.7c-1.3-0.9-2-1-3.1-2.1c-1.3-1.3-0.7-3.1-2-4.7c-1-1.4-2.3-1.4-3.4-3.3v-3.7
				c-2.1-0.8-3.1-3.9-2.7-5.4l-6.2-10.7v-1.2c1,1.2,2.6,4.3,4,4.5c0.2-0.7,1.1-2.5,1.4-3.5c-0.1,0.9-0.3,1.7-0.3,2.2
				c0,0.2,1,1.3,1.2,1.7c0.8,1.2,1.5,2.2,2.3,3.5c0.3,0.4,0.8,1,1,1.7c0.1,0.4,0,1.5,0.4,1.9c0.2,0.2,1.1,0.1,1.4,0.3
				c0.2,0.2,0.6,0.6,0.9,0.9c0.3,1.3,1.2,1.7,1.2,3.3c0,2.6,0.6,4.1,3,4.6c0,1.7,1.9,4.1,2.8,4.9c0.8,0.8,1.9,1.4,1.6,2.9
				c-0.1,0.6-0.7,1.9,0.1,2c0,1.3,0.5,2.5,1.2,3.5c0.5,0.7-0.1,0.7,0.1,0.8c0.2,0.1,2,1,2.2,1l0.4-0.1c1.5,0,1.6-1.2,2.8-1.2h2.2
				c0.9,0,3.7-2.6,4.5-2.8c1.7-0.4,3.8-1,5.4-1.8c-0.1-0.1-0.3-0.5-0.3-0.7c0-1.5,4.2-2.3,6.1-2.7c0-0.8,1.3-2,1.9-2c1,0,1-2,2-2
				c0.8,0,0.8-1.2,1-2c0.3-0.8,1-1.1,2-1.1c0-1.7,1.7-2.2,1.7-3.8c0-0.6-0.6-0.5-1.6-1.1v0.1c0-0.3,0.2-1.5-0.6-1.7
				c-2-0.6-3.6-1-3.6-3v-2.6c-4.1,1.9-3.3,4.7-8,4.7c-1,0-3.1-0.5-3.1-1.5c0-0.8,0.4-1.4,0.4-2.2c0-0.3-0.1-0.5-0.1-0.8
				c-0.7,0.1-0.6,1-1.4,1.3c-0.1-0.6-0.5-0.8-0.5-1.6c-1.6-0.3-3.6-3.3-4-5c-0.1-0.6-0.1-0.9-0.1-1.6c0-1,0.4-2.2,1.4-2.2
				c1.9,0,3.5,2.2,4.2,3.7c0.1,0.3-0.1,0.8,0.3,1.2c0.8,0.8,1.9,0.4,2.7,1.2c0.7,0.7,1.3,2,2.4,2h3.5c0.4,0,0.7-1.1,1.5-1.1
				c1.5,0,1.5,2.1,2.1,2.8c0.1,0.1,2.1,0.6,2.4,0.6c1.9,0,4.9,0.8,6.3,0.8c0.1,0,0.3,0,0.3,0l2.4-0.1c0.1-0.1,0.3-0.3,0.6-0.5
				l1.8,0.5c0.7,0,0.9-0.6,1.7-0.6s1.3-0.1,2.1,0.1c0.8,0.3,1.2,1.9,1.8,2.8c0.7,1,2.7,2.4,4.1,2.4c0.6,0,1,0,1.6,0.1
				c-0.3,0.3-0.4,0.9-0.9,1c-0.6,0.2-1.1-0.1-1.7,0.3c1,1,1.9,3.3,4,3.3c1.8,0,1.9-2.1,2.8-3.2h0.6c0,0-0.4,0.7-0.4,0.9
				c0,0.9,0.7,1.7,0.7,2.8c0,0.9-0.3,1-0.3,2l-0.1-0.1c0,0.2,0.1,0.8,0.1,1c0,1.3,0.8,2.6,1.2,4c0.5,1.5,1.7,3.8,2.1,4.9
				c0.3,0.9,0.3,1.3,0.8,2.2c0.6,0.8,0.2,1.7,0.8,2.9c0.3,0.6,1.3,1.3,1.5,2.2c0.5,1.5,1.3,2.9,1.8,4.5c0.1,0.2,0.3,0.7,0.6,0.7
				c0.1,0.5,0.5,0.8,1,0.7c0.6,0,0.6-0.8,0.9-1.4c0.3-0.7,0.5-0.4,1.3-0.8c0.6-0.3,0.4-2.1,1.3-2.4c0.2-0.1,0.7-0.1,0.7-0.3l0.3-0.1
				l-0.3-1.8c0-1.3,0.8-2.4,0.8-4.2c0-1.1-0.5-1.8-0.5-3.1c0-1.5,1.5-1.7,2.7-2.1c0.5-0.1,1.3-1,1.8-1.5c1.3-1.3,2.6-2.7,4-4.1
				c1.1-1.1,3.1-1.5,4.4-2.7c0.6-0.6,0.6-1.4,0.8-2.4c0.2-0.6,1.7-0.7,2.2-1.7c0.6,0.3,0.6,0.7,1.7,0.7c1.8,0,3.8-0.4,3.8-2.5
				c1,0.2,2.2,0.6,2.5,1.6c0.3,0.8,0.1,2,0.7,2.8c0.6,0.9,1.3,1.5,2.3,2.2c0.7,1.1,1.5,2.2,2,3.7c0.1,0.3,0.4,0.6,0.4,0.9
				c0,0.8-0.3,1.2-0.3,2.1s0.1,1.7,1.1,1.7c2,0,2.4-2,3.6-3.2c0.4,0.4,0.2,0.7,0.6,1.1c0.1,0.1,0.7,0,0.9,0.3c0.7,1-0.7,3.1,0.2,3.1
				c0,2.2,1.6,4.2,1.6,7.2c0,0.8,0,2.8,0,2.8h0.2h-0.1c-0.2,1-0.1,1.3-0.1,2.3c0,0.1,0,0.8,0,0.8s0.1,0,0.8,0c1.1,0,1.5,2.3,2,3.3
				c0.8,1.6,0.9,3,1.5,5c0.8,2.3,2.7,4.3,4.9,5c0.4,0.1,0.5,0.6,1.2,0.6c0.2,0,0.3-0.3,0.5-0.3c0.3,0,0.3,0,0.9-0.1
				c-0.3-0.8-0.3-1.1-0.6-2c-0.3-0.8-1.3-1.3-1.3-2.5c0-0.6,0.3-0.6,0.3-1.3c0-3.5-4.1-4.3-6-6.1c-0.5-0.5-0.6-0.5-0.8-2.6h0.1
				c0-1-2.4-0.8-2.4-3c0-1.9,2-2.2,2-4.3c0-0.6-0.3-0.6-0.3-1.2c0-0.3-0.1-0.7,0.4-0.7c0.8,0,1.6,0.2,1.8,0.9c0,0,0.2,0.9,0.3,0.9
				c1.1,0.3,2.1,0.4,3.1,1.4c0.8,0.8,0.1,1.9,1.6,1.9c0,1,1.4,1.4,2.4,1.4c0.1,0.4,0.2,0.9,0.5,1c-0.3,0.1-0.3,0.4-0.3,1
				c0,0.4,0.1,1.4,0.4,1.4s1.5-1,1.5-1.7c0-0.1,0-0.4,0-0.8c0,0.2,0.2,0.6,0.4,0.6c0.8,0,0.8-1.1,1.6-1.5c1.8-0.9,2.1-1.7,4.3-2.2
				c0-1.3,0.9-1.9,0.9-3.5c0-2.3-1.1-5.4-2.8-6.5s-2.4-2.9-4-4.5c-0.3-0.3-0.6-0.4-0.6-1c0-3,3.4-3.5,4.8-5.6c1.2,0.6,2,0.1,3.3,0.8
				c-0.1,0.4-0.3,1.7,0.3,1.7c0.8,0,0.4-0.9,0.9-1.5c0.5-0.5,1.9-0.7,2.4-1c1.3-0.6,2.6-0.3,3.5-1.2c0,0,0.7-1.3,0.8-1.3
				c0.7,0,1,0.6,1.7,0.6c3.2,0,4-1.9,5.9-3.1c0.6-0.3,0.9-0.6,1-1.3c1.7,0,2.2-2.6,2.8-3.9c0.4-0.8,2.3-3.6,3.3-3.8
				c0-1.5,1-2.2,1-4.2c0-3-0.7-4.1-1.9-6c-0.2-0.3-0.2-1.1-0.8-1.5h0.1h-0.1c0,0-0.1-1.2-0.1-1.4c-0.6-0.1-1.9-0.8-1.9-1.8
				c0-0.8,1.2-0.9,1.5-1.8c0.6-1.9,3.6-1.9,5-3.3c-0.6-0.8-1.6,0-2.6-0.6c-0.5-0.3-0.8-0.8-1.5-0.8c-0.6,0-0.6,1.5-1,1.5
				c-0.6,0-1.3,0.2-1.8-0.1c-0.8-0.6-0.6-1.3-1.4-1.9c-0.3-0.2-1.5-0.5-1.5-1.2c0-1.5,2-1,3-1.7c0.8-0.6,2.4-1.7,3-2.6
				c0.1-0.2,0.4-0.9,1.1-0.9c0.6,0,1.3,0.9,1.3,1.3c0,1.1-1.3,1.6-1.3,2.8c1.9,0,3.5-2.1,5.8-2.1c0.8,0,1.2,0.8,2.2,0.8
				c-0.4,0.7,0,0.7,0,1.5c0,0.7-0.8,0.6-0.8,1.5c0,0.3,0.2,1.2,0.7,1.2c0.2,0,0.5-0.3,1-0.3c0.8,0,1.8,0.6,1.8,1.4
				c0,0.5-1.1,0.9-1.1,0.9v0.7c0,0.1,0.3,0.4,0.7,0.5c0,0.4,0.4,0.8,0.4,1.2c0,0.2-0.6,1.1-0.6,1.6c0,0.3,0,0.6,0.3,0.6
				c-0.1,0.3-0.4,0.9-0.4,0.9h1c0.4,0,0.6-0.4,1.4-0.6c0-0.6,1.7-0.7,2.2-0.8c1-0.3,1.4-1,1.4-2.6c0-2.7-1-4.3-2.6-5.8
				c-0.6-0.6-1.3-1.2-1.2-2.4c0.8,0,1.5-0.5,2.1-1c0.5-0.5,1.7-1.2,2-1.7c0.9-1.9,1.5-3,3.1-4.3c0,0,2.7,0.7,4.9,0.7
				c4,0,7.7-8.4,10.5-11.2c1.1-1.1,2.7-3.4,3.1-5.2c0.5-2-0.3-3.3,0.8-5.2c0.4-0.7,1.2-2.3,1.2-3.8c0-1.9-3-5.5-4.4-4.5
				c-4.1,3.1-6.3-1.7-6.3-2.1c0-1.9,3.8-4.1,5.2-5.6c2.2-2.2,5-5.8,8-6.6c2.6-0.7,10.9-1.5,13.2-1.5c2.8,0,4.2,1.3,5.9,1.3
				c1,0,1.6,0,3.8,0c1.1-4.1,3.2-7.2,8-7.2c1.3,0,1.8-0.3,4.2,0.1c-1.2,0.9-1.7,7,5.9-2.4c0.8-0.1,4.4,1.4-1,4.9
				c-1.9,1.2-3.6,0.6-4.9,2.4c-1.5,2.1-2.8,4.7-4.9,5.9c-1.7,1-4.2,2.6-4.2,5.6c0,2.6,0.8,11,2.8,12.5c1.4-2.1,2.4-5.9,5.2-6.6
				c-0.3-1.9,2.8-2.4,2.8-3.8c0-2.3,2.4-2.9,2.4-4.2c0-0.8-0.7-1.7,0-3.1c5.6-12,10.8-5.6,12.9-5.6c6.2,0,10.6-7.9,16-8
				c10.3-0.2,2.1-4.1,2.1-5.2c0-3,4-2.5,4.9-4.2c0.3-0.7-0.3-2.4,1-2.4c4.4,0,8,5.9,11.1,5.9c1.4,0,1.7-2.6,2.4-3.5
				c1.2-1.4,2.3-1.3,4.2-1.9C758.9,142.2,750.8,140.3,746.8,138z"/>
			<path class="st3" d="M739.4,128.6c0.8,0,6.3-0.3,6.3-1.3s-2.6-1.7-3.7-1.7c-1.2,0-3.3,1.2-3.3,2.3
				C738.7,128.2,738.9,128.6,739.4,128.6z"/>
			<path class="st3" d="M719.7,132.8c0.3,0,0.7-0.4,0.7-0.8c0-0.4-0.4-0.9-0.5-0.9h-2.3C718,132.1,718.7,132.8,719.7,132.8z"/>
			<path class="st3" d="M653.5,110.9c0.5,0,0.6-0.5,0.7-0.9l0,0l0,0v-0.1h-0.1l-0.6-0.6c-0.3,0.4-0.6,0.6-0.6,1
				C652.9,110.7,653.1,110.9,653.5,110.9z"/>
			<path class="st3" d="M607.7,114.3c-0.7,0-1.5,0.3-1.5,1c0,0.6,0.8,0.8,1.5,0.8c0.6,0,1-0.2,1.4-0.4c0.1-0.1,0.2-0.3,0.2-0.4
				C609.3,114.5,608.7,114.3,607.7,114.3z"/>
			<path class="st3" d="M608.8,116.2l0.6-0.5c-0.1,0-0.1,0.1-0.2,0.1C609,116,608.9,116.1,608.8,116.2z"/>
			<path class="st3" d="M581.6,99.9c0,0.7,0.2,1,1,1l3.7-1c0,0,2.2-0.4,2.4-0.4c1.3,0.2,4.9-0.1,4.9-1.7c0-1-2.9-2.8-3.8-2.8
				c-0.5,0-0.8,0.9-1.3,1.1c0.6-0.6,0.2-0.1,0.2-1.2c-0.3,0-0.3,0-0.9,0c-2.8,0-3.4,2.2-5,3.8C582.5,99.1,581.6,98.8,581.6,99.9z"/>
			<path class="st3" d="M564.8,91.5c0,0.6,1,1.7,1.4,1.7c0.8,0,3.1-0.1,3.3-1.4c-0.5-0.1-2.4-1-2.8-1
				C566.3,90.8,564.8,90.8,564.8,91.5z"/>
			<path class="st3" d="M574.3,91.3c-2.2,0.7-2.9,1.5-5.2,2.2c1,0.6,2.9,2.5,3.7,2.5c2.5,0,4.7,1.3,7.8,1.3c0.6,0,1.4-0.4,1.4-1
				c0-0.5-0.6-0.7-1-0.8c0.4-0.1,1.4-0.2,1.4-0.9c0-0.7-0.1-0.3,0.6-0.8c-0.9-0.9-0.9-0.8-2.3-0.8c-0.5,0-0.9,0-1.4,0
				c-0.8,0-1.2-1.3-2.1-1.3c-0.6,0-0.8-0.5-1.5-0.3c0.6-0.3,1.3-1,1.3-1.4c0-0.3,0.1-0.6,0-1.5c0.3,0.1,0.1,0.2,0.8-0.1
				c-1.1-0.8-2.2-2.7-4.2-2.7c-3.3,0-4.4,3.3-7.3,4.1c1.8,0.9,3.1,1.5,5.1,1.5C571.8,91.2,573.6,91.3,574.3,91.3z"/>
			<path class="st3" d="M574.2,105.5c0.8,0,1.3-0.3,1.4-1.3h-1c-0.3,0-0.6,0.4-1,0.7C573.6,105.2,573.8,105.5,574.2,105.5z"/>
			<path class="st3" d="M565.9,86.2l-0.2-0.6h-2.6C563.5,87.7,564.8,86.3,565.9,86.2z"/>
			<path class="st3" d="M597.3,100.4c0.5,0,0.8-0.6,0.9-1c-0.6,0.3-0.8-0.1-2.3,0.2C596.1,99.9,596.5,100.4,597.3,100.4z"/>
			<path class="st3" d="M477,88.4c0.6,0,1,0.4,1.6,0.6c-0.3,0.3-0.7,0.4-1,0.6c0.3,0.1,0.6,0.1,1.2,0.1c-0.6,0.1-0.9,0.1-1.5,0.4
				c0.2,0.6,0.9,0.6,1.9,0.6h-0.1c0.2,0,0.4,0.8,0.8,0.9c0.6,0.1,0.8-1.1,1.4-1.4c1-0.5,1.4,0.2,2.4-0.2v-0.4c0,0.1,0.5,0.1,0.7,0
				c0.8-0.6,1.7,0,1.9-1.3c-0.4-0.1-1.3-0.7-2.1-0.7c-1,0-1.5,0.9-2.6,0.9c-1.3,0-2.3-0.9-4-0.9c-1.5,0-4.7,0.2-5.4,1.3
				c0.6,0.1,1,0.3,1.5,0.3C474.9,89.3,476.2,88.4,477,88.4z"/>
			<path class="st3" d="M484.3,89.8c-0.2,0.1-0.3,0.2-0.5,0.3v0.3L484.3,89.8z"/>
			<path class="st3" d="M510,88c0.5,0,3.2-0.6,3.7-0.9l-1-2.2c-1,0-3.9,1.1-3.9,2.1C508.8,87.7,509.2,88,510,88z"/>
			<path class="st3" d="M506.2,89.8l-0.3-0.8c0.6,0,1.3,0.3,1.7-0.4c0-0.3,0.1-0.4,0-1c-0.6,0.1-1.8,0.4-2.2,0.3
				c0.1,0,0.6-0.2,0.7-0.2h-2.3c0,0-0.1,0,0,0.6c-0.8,0.3-1.4,0.7-1.4,1.7C502.4,90.3,505.8,90,506.2,89.8z"/>
			<path class="st3" d="M498.9,89.6c-0.7,0-3.5,0.4-3.5,1.4c0,0.3,0.3,0.5,0.7,0.5c0.6,0,0.9,0,1-0.7c0.4,0,1,0.7,1.4,0.7
				c1,0,0.9-1,2.3-1C500.5,90,499.8,89.6,498.9,89.6z"/>
			<path class="st3" d="M498.5,88.3c0.8,0,1.5,0.1,2.1-0.3c-1.5-0.6-2-0.8-4-1c0.7-0.7,2.1-1.1,3.2-1.8c0-0.3,0.3-0.7,0.6-0.9
				c0-0.2-0.1-0.8-0.2-0.8c-0.6,0-1,0.6-1.1,1.2c-2,0-2,1.4-4.1,1.4V87c1-0.4,0.2-1.2,1,0.8h-2.9c-0.3,0-0.5,0.1-0.9,0.4
				c0.1,0.1,3,1.1,3.5,1.1C496.6,89.3,497.7,88.3,498.5,88.3z"/>
			<path class="st3" d="M407.8,95.9c0.2,0,0.3,0.2,0.6,0.3c-0.3,1.1,0.8,1.7,1.9,2.3c-0.2,0-0.3,0.1-0.6,0.1
				c0.3,0.7,1.1,1.2,2.2,1.2c1.5,0,1.5-1.8,2.1-1.8c0.2,0,0.3,0,0.6,0c0.3,0,0.9,0,1,0c0.3,0,0.8,0,1.8,0c-0.8,1-2.6,1.7-3.5,2
				c-0.4,0.1-2,0.2-2,0.8c0,1.7,1.8,1,2.6,1c0.5,0,2.7,0.1,3.1,0.4c-0.8,0.2-1.6,0-2.3,0.6c0,0-1.6-0.2-2.6-0.1
				c0,2.4,3.8,3.3,5.4,4.4c1-1,0.8-2.9,2-3.8c0.4-0.3,0.9-0.1,1-0.6c0.7-1.8,1.5-4.9,3.8-4.9c0,0,0.6,0.9,1.7,1
				c-0.3,0-0.6,0.1-1,0.1c0.3,0.6,0.9,1.8,1.4,1.9c-0.1,1-0.9,0.7-1,2c0.9,0.1,2.4,0,3.2,0.1c-0.2,0.4-0.2,0.7-0.1,1.3
				c1.7-0.6,2.5-1.9,4.4-2.5c-0.6-0.9-2.6-0.6-2.6-2.7c-0.8,0-1.2,0-2.2,0c0.2,0,0.1-0.5,0-0.9c-0.5,0.1-0.7,0.2-1.3,0.1
				c0.2,0,0.5,0,0.7,0c-0.7-0.8-4.4-2.9-5.6-2.9c-0.2,0-0.5-0.1-0.7-0.1c0.1-0.6,0.3-1.7-0.8-1.7c-0.6,0-0.7,0.6-1.2,0.9
				c0-0.5,0.2-0.9,0.2-1.4c0-0.7-1.9-1.4-2.8-1.4s-1.4,0-1.4,1c0,1.3,0.4,1.9,0.8,3.1c-1.7-0.6-1.3-3.1-3.1-3.1
				c-0.6,0-1.2,0.6-1.2,1.2c0,0.4,0.2,0.8,0.5,0.9c-0.5-0.5-1.2-0.5-1.9-1c0.2-0.4,0.5-0.6,0.8-1c-1.6-0.3-2.4-0.3-3.5-0.3
				c-0.7,0-2.2,1.3-2.4,1.7C406.5,94.7,407.3,95.9,407.8,95.9z"/>
			<path class="st3" d="M421.5,92.3c-0.1,1.6,1.3,0.7,2.4,0.7c0.1,0,3,0.2,3.3,0.2c-0.3,0.1-1.1,0.1-1.7,0.3c-0.1,0-0.9,0.1-1.4,0.2
				c0.1,0.6,0.3,1.2,0.9,1.2h4c0.5,1,1.2,1.1,2.4,1.1c2,0,5.5-2.3,7.2-3.5c-0.4-0.8-1.7-1.8-3.1-1.8c-1,0-0.6,0-2.3,0
				c-1,0-1.5,0.7-2.1,0.7c-0.1-0.5,0-1.7,0-1.7h-0.8c-0.3,0-0.9,1.5-1.7,1.5c-0.3,0-2.4-1.5-2.8-1.5h-1.9h0.3h-1.4v0.9
				c0,0.2-0.8,0.1-1.2,0.1h-1C420.6,90.8,421,91.9,421.5,92.3z"/>
			<path class="st3" d="M406.2,96.7c-0.1,0-0.1,0-0.1,0.1l0.1,0.1V96.7z"/>
			<path class="st3" d="M408.4,99.7c-0.5-1.5-1.4-1.8-2.3-2.9C405,97.5,407.1,99.4,408.4,99.7z"/>
			<path class="st3" d="M406,96.7C406.1,96.8,406.1,96.8,406,96.7C406.1,96.8,406.1,96.8,406,96.7L406,96.7z"/>
			<path class="st3" d="M365.6,187.1c0,0.8,0.9,1.6,1.7,1.6c0.4,0,1-0.1,1.3-0.3c0.6-0.3,1.4-1.5,2.5-1.5c0.7,0,1.4,0.1,1.8-0.3
				c0.6-0.6,0.1-1.4,0.1-1.9c0-0.1,0-1.9,0-2.4c0-0.6,1.2-0.9,1.2-1.4c0-1.2-0.8-3.2-2.4-3.2c-0.4,0-0.8,0-1.2,0
				c-0.7,0-2.1,1.2-2.1,1.7c0,0.3,0.1,0.7,0.4,1.1c-0.4,0.4-1.6,0.9-2,0.9c-0.2,0-0.8-0.1-0.8,0.8c0,0.7,0.6,1.1,1.3,1.5
				C367.4,185.2,365.6,185.4,365.6,187.1z"/>
			<path class="st3" d="M371.9,171.2c0.8,0,1.3-0.8,1.3-1.6c-0.6,0-1.7,0.3-1.7,0.8C371.5,170.6,371.7,171.2,371.9,171.2z"/>
			<path class="st3" d="M374.2,173.2v0.6c0,0.1-0.8,0.6-0.8,0.9c0,0.3,0.8,0.5,0.8,0.6v0.6c0,0.1,0,0.3,0,0.5c0,0.3,0,1.3,0,1.3h0.8
				c-0.1,0-0.3-0.6,0-1.2c0.2,0.1,0.6,0.3,1.2,0.3c-0.2,0.6,0,0.7,0,1.3s-0.7,0.9-0.7,1.5s0.5,0.5,1.1,0.5s0.9-0.3,1.6-0.3
				c0.2,0,0.4,0.1,0.6,0.1c-0.1,0.3-0.3,0.4-0.3,1c0,0.7-0.2,0.8,1.9,0.8v1c0,0.7-2.1,1.3-3.3,1.3c0,0.8,0.4,1.1,0.4,2
				c0,1-2,1.1-2,2.2c0,0.1,0.2,0.3,0.3,0.3c0.3,0,0.3-0.3,0.7-0.3c0.8,0,1,0.8,1.9,0.8c0.5,0,1-0.3,1.2-0.7c0,0.1,0.1,0.3,0.1,0.5
				c0,1-1.3,0.6-2.3,0.9c-0.2,0.1-2.3,2.3-2.3,2.6l0,0h0.3c0.3,0,0.5,0,1,0h1c0,0,0.4-1.2,1.1-1.2c0.5,0,0.8,0.1,1.3,0.1
				c1,0,2.9-0.9,3.6-0.9c0.4,0,1.9,0,2.8,0c0.8,0,0.4,0.2,1.4-0.5v-0.5c0,0-0.4-0.1-1.1-0.3c0.6-0.9,2.4-1.5,2.4-2.8
				c0-0.7-0.6-1.3-1.4-1.3c-0.6,0-0.4-0.1-0.9,0.3l0.6-0.3c-0.3,0.1-0.6,0.3-0.6,0.5v-0.5c0-0.1,0.1-0.3,0.1-0.5
				c0-0.6-0.9-0.9-0.9-1.5c0-1.7-1.9-2.2-3-3.3c-0.8-0.8-0.7-2.5-2-2.9c-0.6-0.1-0.9,0.1-1.6-0.1c0.1-0.3,0.3-0.6,0.5-0.7
				c0-1.5,2.1-2.3,1.9-4.4h-4.1c-0.1,0-0.2-0.2-0.2-0.4c0.2-1,1.7-1,1.7-1.9c0-0.1-0.4-0.8-0.7-0.8c-0.5,0-1.3,0-2,0
				c-0.4,0-1.1,0.8-1.1,1.1s-0.3,0.7-0.3,1.3c-0.5,0-1,0.3-1,0.9c0,0.1,0.2,0.4,0.3,0.4c0,0.1-0.1,0.7-0.3,0.7
				c-0.1,0-0.5-0.3-0.5-0.3h-1.1C372.5,172.5,373.1,173,374.2,173.2z"/>
			<path class="st3" d="M376.5,181c-0.4,0.2-0.5,0.5-0.5,0.8c0.4,0,0.6,0,0.8,0c0-0.3,0.1-0.6,0.1-0.8
				C376.8,181,376.5,181,376.5,181z"/>
			<path class="st3" d="M358.5,149.2l0.1-0.1c0-1.9-2.6-1.5-2.6-3.5c0-0.2,0.2-0.5,0.4-0.6c-0.6,0-1,0.4-1.7,0.4s-1.3-0.1-1.3-0.9
				c-0.3,0.2-0.3,0.1-0.8,0c-0.1,0.3-0.3,0.5-0.3,1c-0.6-0.6-1.5,0.2-2.4,0.2c-0.6,0-1.2-0.2-2.2-0.2c0,0.2-0.1,0.5,0,0.7
				c-0.3-0.1-0.4-0.3-1-0.5l-1.7,0.4c-0.4,0-0.6-0.3-0.9-0.6c-0.2,0.3-0.1,0.4,0,0.9c-0.3,0.1-0.8,0.4-1.3,0.4s-1.1-0.8-1-1.3
				c-0.1-0.4-0.3,0.1-0.4-0.9c-0.2,0-0.3,0-0.6,0c-0.6,0-1,0.5-1,0.5c0,0.2,0,0.3,0,0.6c0-0.2-0.9-0.3-1.5-0.1
				c0.1,0.8,2.7,1.5,3.5,1.5c0,0.2,0,0.4,0.3,0.6c-0.8,0.3-2.6,0.6-3.6,0.6c0.7,0.7,1.9,0,3,0.3c-0.1,0.8-0.4,1.2-0.4,2.1
				c-0.2,0-0.4,0.2-0.6,0.3c1.5,0,2.1,1,3.1,1.3c1.9,0.6,3.7,1.3,6.3,1.3c2.4,0,3.7-1.2,5.4-1.7
				C356.2,151.4,357.9,150.2,358.5,149.2z"/>
			<path class="st3" d="M238.5,261.2c-0.5-0.2-0.8-1.2-1.6-1.4l-1-0.1c-0.1-0.1,0-0.3,0-0.5c-1.6,0-3.3-0.8-4.3-1.7
				c-0.1-0.1-0.7-0.8-1.2-0.8c-2.3,0-3.8-1.1-6.8-1.1c-3.1,0-4.6,0.6-5.7,3.7h0.6c0.7-2.1,2.6-2.3,3.9-2.3c0.3,0,0.7-0.4,1-0.2
				c-0.2,0.2-0.3,0.4,0.1,0.4h2c1,0,1.5,1.1,2.4,1.1c0.6,0,0.9-0.2,1.5,0.1c0.3,0.1,0.2,0.6,0.8,0.6c0.2,1,1.2,1,2.2,1.5
				c-0.1,0.4,0.2,0.6-0.9,0.6c0,0.1,0,0.3,0,0.4c1,0,2.6,0.5,4.2,0.5C236.5,262,238,262,238.5,261.2z"/>
			<path class="st3" d="M221.3,257.6v0.5c-0.2,0-0.6,0.1-0.6,0.6c0,0.1,0.9,0,1,0c0.1-0.4,0.1-0.7,0-1l-0.2-0.1H221.3z"/>
			<path class="st3" d="M231.1,265c0,0.6,0.6,1,1.1,1c0.8,0,1.5-0.3,2.3-0.4c-0.1-0.3-0.2-0.5-0.6-0.6l0.1,0.1
				c-0.4-0.1-1.4-0.6-2.2-0.6C231.5,264.6,231.1,264.8,231.1,265z"/>
			<path class="st3" d="M253,264.9c0,0.7,0.9,0.8,1.7,0.8c0.4,0,0.9,0,1.1-0.4c-0.2-0.4-1.9-0.8-2.1-0.8
				C253.5,264.5,253,264.6,253,264.9z"/>
			<path class="st3" d="M238.6,264.6c0,0.4,0.4,1,0.8,1.1c0-0.2,0.1-0.3,0.1-0.6c0.3,0.2,0.3,0,0.8,0c0.8,0,2.5-0.2,3.1,0.2
				c0.3,0.2,0.2,0.9,0.8,0.9c0.8,0,0.7-1.3,1.6-1.3c0.3,0,0.3,0.2,0.7,0.2c0.5,0,0.8,0.3,1.3-0.7h2.6c-0.5,0-1.2-0.8-1.9-1.4
				l0.3,0.4c-1.2-0.6-1.7-1.8-3.9-1.8c-0.8,0-1.2,0.3-2.1,0.3c-0.6,0-1-0.5-1.7-0.5c-0.2,0-0.6,0.3-0.6,0.5c0,0.4,0.5,0.8,0.9,0.8
				c0,0.6,0.1,1,0.5,1.5c-0.8,0.4-1.5,0.1-3.1,0.1C238.9,264.4,238.8,264.6,238.6,264.6z"/>
			<path class="st3" d="M263.7,281.9c0,0.2,0.4,0,0.6,0c0.4,0,0.7-0.6,0.8-0.9v-0.5c-0.2,0-0.4,0-0.6,0
				C264.2,280.5,263.7,281.2,263.7,281.9z"/>
			<path class="st3" d="M286.8,301.7c-0.8,0-1.4,0.6-1.4,1.7c0,0.6,1.8,1.8,2.9,1.8c0.8,0,1.9-1.6,1.9-2.2c0-0.1-0.2-0.6-0.5-0.6
				s-1,0.8-1.1-0.1c-0.6,0-1-0.6-1.5-0.6C287,301.7,286.8,301.7,286.8,301.7z"/>
			<path class="st3" d="M239.8,395.8h1V393c0-0.2,0.1-0.3,0.1-0.8c0-0.6-1-1.1-1.6-1.1c-0.4,0-1.6,2.1-1.6,2.1s0,0.6,0,0.9
				C237.7,394.3,239.4,395.8,239.8,395.8z"/>
			<path class="st3" d="M210.2,197.4c0.7-0.3,0.4-1.5,1.1-1.5c0.8,0,1.4,1.1,1.7,1.4c0.1-0.3,0.1-0.1,0.1-1.1c0.2,0,0.3,0,0.6,0
				c0.4,0,3.3,2.5,3.5,2.8c0.4,0.8,0,1.5,0.6,2.1c1.6,1.6,3.8,2.4,5.5,2.4h1.8c0.8,1,1.9,1.3,1.9,2.4c0,0.5-0.3,0.9-0.7,0.9
				c-0.8,0-1.7-0.9-1.9-1.2c-0.3,1.1-0.9,4.5-1.9,4.5c-0.7-0.6-0.7-1-1-2.1c-0.7,0.2-0.6,0.5-1.4,0.5c0.2-1,0.8-1.6,0.8-2.6
				c0-0.8-2.6-2.1-3.1-2.1c-1.1,0,0.4,1.7-2.2,1.8c-0.8,0-0.4,2.2-0.4,3c0,0,0,1.4,0,2.2c0,0.9-0.7,3-1.7,3c-0.8,0-1.8-0.6-1.8-1.4
				c0-1.8,0.5-5.4,1.7-6.9c-0.7,0-1,0.7-1.7,1.1c0.1-1.4,2.6-3.2,4.2-3.2c0.6,0,3.5,0,3.5,0v-1.2c-2.1,0-2.4-0.9-4-0.9
				c-0.8,0-1.1,0.3-2,0.3c-0.5,0-1.1,0.8-1.2-1.3h-1.4c0.3,0,0.8-0.3,0.8-1.3c-1,0.2-2.3,1.7-3.1,1.7c-0.6,0-0.7,1-1.9,1
				c-0.6,0-0.8,0.3-1-0.3c-0.5,0.1-0.8,0.9-1.3,0.9h-1c1.6-3.1,3.5-3.1,5.4-4.3C209.3,197.9,209.4,197.8,210.2,197.4L210.2,197.4z
				 M227.1,212.3c-0.3,0.2-0.8-0.3-1.7-0.3c-1,0-2-0.1-2.6,0.6c-0.3,0.3-0.4,0.7-1,0.7c-0.4,0-0.8-0.5-1-0.8c0,0.7,0.3,1.7,1,1.7
				C223.2,214.1,225.5,213.1,227.1,212.3L227.1,212.3z M227.9,210.9c0-0.1-0.1-0.2-0.1-0.3C227.9,210.7,227.9,210.8,227.9,210.9
				L227.9,210.9z M228.3,209.3c1.5-0.5,4.8-1.3,6.5-1.3c0,2.6-4.5,1.9-6.5,1.9c-0.3,0-0.3,0.1-0.8,0.1c0.1,0.1,0.2,0.3,0.2,0.5
				c-0.1-0.2-0.4-0.4-0.4-0.6C227.4,209.5,228.1,209.4,228.3,209.3L228.3,209.3z M252,201.2c0-0.2-0.1-0.3-0.1-0.4
				C251.9,200.9,252,201,252,201.2L252,201.2z M252.1,202c0-0.1,0-0.3,0-0.4C252.1,201.8,252.1,201.9,252.1,202L252.1,202z
				 M252.2,203c0-0.1,0-0.3,0-0.4C252.2,202.8,252.2,202.9,252.2,203L252.2,203z M252.3,204c0-0.1,0-0.2,0-0.3
				C252.3,203.8,252.3,203.9,252.3,204L252.3,204z M252.4,204.8c0-0.1,0-0.2-0.1-0.3C252.4,204.6,252.4,204.7,252.4,204.8
				L252.4,204.8z M251.8,200.4c-0.1-0.3-0.2-0.5-0.3-0.7C251.6,199.9,251.7,200.2,251.8,200.4L251.8,200.4z M252.6,205.3
				c0,0.1,0.1,0.2,0.1,0.3C252.6,205.4,252.6,205.3,252.6,205.3L252.6,205.3z M227.5,212c0.3-0.1,0.5-0.3,0.7-0.3
				c-0.1-0.2-0.1-0.4-0.2-0.5c0.1,0.2,0.1,0.4,0.2,0.5C228,211.8,227.8,211.9,227.5,212L227.5,212z M315.5,311.9
				c-1-0.3-1.6,0.1-2.6-0.1c-1.1-0.3-3.3-2.3-3.9-3.3c-0.8-0.3-1.9-0.8-3.3-1.1l-2.6,0.4c-1.4,0-1.7-1.3-3.1-1.3
				c-0.6,0-0.9,0.5-1.5,0.5H298c0,0,0.1-0.9-0.1-1.5c-0.1-0.6-0.8-0.3-1.3-0.6c-0.9-0.6-3.4-1.8-4.7-1.8c-1.1,0-1.9,1.5-2.6,2.6
				c-0.2,0.3-0.5,1-0.8,1c-0.2,0-0.3-0.6-0.3-0.6h-1.7c-0.1-2.1-0.5-1.4-1.2-1.7c-0.3-0.1-1-0.1-1-0.8c0-2.1,2-2.8,3.1-4.2
				c0-0.7-0.9-0.7-1.3-1.4c-0.3-0.8-1.3-2.9-1.3-3.8c-1.2-0.3-2.6-2.5-3.8-2.5c-0.1,0,0,0,0,0v-0.2c-2.1,0-2.2-0.8-2.7-0.8h-1.7
				c-1.9,0-4.8-0.1-5.3-2.1c-0.3,0-0.9-0.1-1-0.3c-0.8-1.7-1.5-0.7-2.8-2.8h-1.9c-0.3,0,0.4-2-0.5-2.3c-1-0.4-2.5-0.6-2.5-1.6V281
				c0,0.1,0.3,0.1,0.6-0.1c0,0-1.5-0.2-2.2-0.2c-0.2,0.1-1.8,0.1-1.9,0.4c-0.4,0.8-1.2,0.9-2.2,1c-0.6,0-1.4-0.7-1.4-0.7
				c-0.6,0-2.6,0-3.8,0c-0.4,0-0.8-0.6-0.8-1.3c-1-0.2-2.6-0.6-2.9-1.8l-1.2,0.3c0,0.8,1-0.4,1.3,1.7h-1.7c-0.6,0-1.7-0.1-1.7,0.9
				c0,0.8,0.8,1.1,0.8,2c0,0.3-0.4,1-0.7,1c-0.8,0-1.1-1.4-1.1-2.2c0-0.6,0.4-1.8,0.6-2.9c0.3,0,0.7-0.3,0.7-0.8
				c0-0.1-0.3-0.8-0.6-0.8c-0.9,0-1.1,1-2,1.3c-1.7,0.6-2.9,0.8-4.5,1.4c-0.9,0.3-1.5,0.5-1.9,1.6c-0.1,0.6-0.2,1.5-0.6,1.7
				c-0.4,0.3-0.7,0.5-0.7,1.2c-0.1,0,0,0.2,0,0.3c0,0.1,0,0.3,0,0.4s-0.7,0.1-1.2,0c-0.1,0.2-0.5,0.3-0.7,0.5
				c0.2-0.3,0.3-0.5,0.4-0.5c-1.1-0.8-2-2.2-4-2.2c-1.7,0-2.6,1.4-4.4,1.4c-1.2,0-1.2-1.3-1.9-1.7c-1.1-0.6-2.6-1.2-2.6-2.7
				c0-1.1,0-2.6,0-4.2c1-0.7,1-2.4,1-3.1c0-0.3,0-0.7,0-1c-1-0.3-2-1.5-3.6-1.5c-2.4,0-4.5,0.4-6.8,0.4c-0.4,0-1-0.3-1-0.8
				c0-0.1,0-0.2,0-0.4c0-0.4,1-0.7,1-1.4c0-1,0-2.4,0-3.6l0,0c0,0,0,0.6,0,0.8c1-0.7,1.4-1.2,1.4-2.3c0-1.3,1.7-2.6,1.7-3.5
				c0-0.2,0-0.4,0-0.6c0,0-1.5-0.1-1.8-0.1c-0.3-0.1-0.8-0.2-1.5-0.2c-1.9,0-4.2,0.7-4.2,2.7c0,1-1.2,1.9-1.5,2.8
				c-0.1,0.3-0.4,1.1-1,1.1c-0.3,0-0.6-0.4-1.3-0.4c-1.4,0-2.5,1-3.8,1c-0.6,0-0.6-0.6-1.2-0.8c-1.8-0.6-1.8-1.7-3.1-3
				c-0.5-0.5-1.4-1.5-1.7-2c-0.3-0.6,0.6-1,0.3-1.7c-0.1-0.3,0-0.8,0-1.4v-3.9c0-1,0.2-1.5,0.2-2.8c0-0.4-0.4-0.7-0.5-1.1l-0.2-0.2
				c0.1,0,0.1,0,0.1,0c0-0.2-0.4-0.5-0.4-0.7c0-2.1,0.9-4,2.4-4.5c0.7-0.3,1.3,0.2,1.9-0.3c0.8-0.8,1.8-2.6,3.8-2.6
				c0.8,0,1.2,0.7,1.9,0.7c0.4,0,0.6-0.6,1-0.6c1.4,0,3.1,2.4,5,1.4c-0.8-0.6-0.2-1.2-0.1-2.2c-0.4,0.2-0.3,0.2-1,0
				c1.2-0.4,2.6-0.3,3.8-0.6c0,0.2,0.3,0.6,0.5,0.6c0.6,0,0.8-0.6,1.7-0.6c1.7,0,2.4,1.6,3.7,1.6c0.6,0,0.9-0.9,1.5-0.9
				c3.1,0,2.2,4.2,3.3,6.5c0.6,1.1,1.3,1.5,2.1,2.6c0.4,0.6,0.4,1.7,1.4,1.7c1.2,0,1.6-1.3,1.6-2.8c0-1.3-0.7-1.9-0.7-2.8v-0.3
				c0-2.2-2.1-2.9-2.1-5.2c0-5.1,4.1-6.4,7.4-8.2l-0.2-0.1c0.4-0.4,0.3-0.6,1.2-0.9c0.6-0.1,0.9-0.7,1.7-0.8c0.4-0.1,0.7-0.5,1-0.8
				l-0.7-0.5v-0.6c1,0,0.8,0.1,0.9-0.7c-0.3-0.1-0.6-0.1-0.9-0.6c0.3,0,1-0.3,1-0.8c0-0.2,0-0.4,0-0.4s-0.6,0-0.8,0
				c-0.4-1,0-0.5,0-1.2s-0.4-2-0.4-2.5c0,0,0.1-0.6,0.2-0.9c0.1,0.7,0.9,1.8,0.9,2.3c0,0.3,0,0.5,0,0.8c0,0.1,0,0.4,0.1,0.4
				c0.2,0,1.5-2.4,1.5-2.8c0-0.6-0.5-0.8-0.7-1.3l0.3-0.3c0.1,0.1,0.3,0.6,0.5,0.6c0.5,0,1.8-2.4,1.9-3c0,0-0.6-0.5-0.6-0.8
				c0-0.2,0.2-0.4,0.4-0.5c0.2,0,0.4,0.1,0.6,0.1c1,0,1.7,0.2,2.6-0.1c-0.5-0.3-1.1,0.2-1.7,0.2h-0.7c1.4-1,4-0.7,5.4-1.7
				c0.3,0.3,1.5-0.2,2.6-0.4V214c0,0-0.9,0.5-1.1,0.5c-0.4,0-0.8-0.9-0.8-1.2c-0.2-0.1-0.4-0.4-0.4-0.6c0-2.6,2.3-3.4,3.4-4.5
				c0.7-0.3,0.7,0,1.6,0c1,0,1.7-0.4,2.2-1.2c-0.1-0.2-0.5-0.3-0.6-0.5l-0.3-0.2v0.1c0,0,1,0,1.2,0c0.4,0,2.2,0.1,2.8-0.3
				c0.6-0.4,0.6-1.4,1.7-1.5c0,1-0.1,1,1,1c-1.6,0.1-4.1,1.2-4.1,2.8c0,0.6,1,1.7,1.4,1.7c0.6,0,1.8-1.9,3.2-2.3
				c0.4-0.1,5.1-1.9,5.1-2.4c0-0.8-1.8-0.8-2.2-0.8c-2,0-5.2-1.9-5.2-3.7c0-0.4,0.6-1,0.7-1.7c-0.3,0-1.1-0.2-1.7-0.2
				c0.4-0.6,2.9-0.9,2.9-2.3c0-1.3-2.2-1-3.6-1c-3.1,0-4.4,2.2-6.5,2.4c0.9-1.9,2.4-1.2,3.9-2.8c1-1,0.3-1.6,1.7-2.1
				c2.6-0.8,4.2-0.3,6.8-0.3c3.5,0,5.4,1.1,7.4-1.5c1-1.3,6.6-1.6,6.6-3.8c0-1.6-0.4-2.3-1-3.3c-0.6,0-0.4-0.7-0.4-1v-0.8
				c-2.1,0.9-5.1,2.1-6.8,2.1c-0.2,0-0.7-0.1-0.8-0.3c1.4-0.8,5.2-1.3,5.6-2.6c0.1-0.3-0.8-0.4-0.9-0.8c-1.7,0.2-5.5-0.6-5.5-2.9
				v-0.2c-2.1,0-2.2-1-3.1-1.7c0.3-0.2,1.2-0.4,1.2-1.3c0-0.7-0.6-1.3-0.4-1.9c-0.6-0.2-2.9-1.6-2.3-2.9c0.7-1.6-2.2-1.9-2.4-3.8
				c-0.2,0-0.9-0.6-1.2-0.9c-0.5,0.4-1.6,1-1.6,2s-2.2,3.6-4,3.6c-1.3,0-1.5-1.5-2.3-1.5c-1.2,0-1.7-3.4-1.9-4.9c-0.3-2-4-0.6-4-3.1
				c-1.9-0.3-2.4-2.6-4.3-2.6c-0.9,0-0.9,0.7-1.9,0.7c-2,0-3.3-1.2-5.2-1.2c-1,0-2.1,0.5-2.1,1.7c0,0.7,2.5,1.7,0.2,3.1
				c-0.9,0.6,1.3,2.1,1.4,3.1c0.2,2.1-1.7,2.6-2.6,2.9c1.6,2.7,4,3.6,4,8.2c0,1.3-4.2,4.4-5.6,4.7c2.4,1.2,1.5,5,2.4,6.2
				c-0.3,0.4-1.2,0.9-1.3,1.7c-0.8,0-1.4,1.4-2.1,0.8c-1.7-1.4-4.2-4.1-4.2-6.1c0-2.2,0.4-4.8-1.5-5.8h-4.5c-2.6,0-5.5-2.4-8.6-3.6
				c-0.6-0.2-2.2-1.1-3.1-1.1c-1,0-1.5,1.2-2.6,1.2c0-1.7-1.1-5.5-2.6-5.5c-0.7,0-1,0.6-1.7,0.7c0.3-0.8,0-1.1,0-3.1
				c0-2.8,0.8-4.4,2.4-6c0.6-0.6,1.7-3.3,2.3-3.5c1.2-0.4,3.3,0.3,3.3-1.4c0-1-2.7-1.1-3.6-1.7c0.6,0.2-1.5-1.7,4.2,0.1
				c1.5,0.4,0.6-2,1.4-2c0.1,0,0.7,0,1.5,0c1.7,0,1.6-0.8,2.6-1.6v-1c-2.1-0.6-3.7-0.4-4.7-2.5c0,0,0.8,0,1.3,0
				c0.9,1,1.8,1.7,3.1,1.7c1.1,0,3.1-1.4,3.1-2.2c0-0.3-1-1.5-0.5-1.5c1.5,0,2.1,1.4,3.1,1.4c0.6,0,1-0.6,2.3-0.6
				c-0.3-0.4,0-1.6,0.8-0.3c0.5,0.7,4-2.4,4-3.3c0-0.6-1.6-1.3-1.6-1.7c0-0.5-0.9-1.6,1.3-2.6c0.3-0.6,0-0.6,0-1.7
				c-2.2,0-1.7-1.7-4.5-1.7c-0.6-0.1-1.1-0.5-1.7-0.5c-0.8,0-1.7,0.6-1.7,1.4c0,0.9,1,1.2,1,1.9s-1.6,0.7-1.9,1.4
				c-0.6,1.2-0.4,2.1-1.4,3.4c-1.6,2-3.6-1.2-3.6-2c0-0.9,1.2-0.7,1.2-1.7c0-0.5-2-2.4-2.6-2.4c-2,0-0.6,3-2.8,3
				c0-1.2-0.1-2-1.6-2.7c0.2-0.4,0.3-0.6,0.7-0.8c-1.1-0.7-2.6,0-3.5-1c0.5-0.3,1.7-0.8,1.7-1.7c0-1.3-2-1.3-2.1-2.3
				c-0.1-2.2-1.6-3.6-4.3-3.6c-1.3,0-0.8,0.8-0.7,1.5c-0.8,0.2-1.9,0-1.9,1c0,0.7,0.6,1,0.6,1.7s-0.9,0.6-0.9,1.6
				c0,2.3,4.7,0.9,4.7,3.3c0,0.4-0.6,2.1-0.6,2.1c0.5-0.3,0.9-0.4,1.5-0.7c0.9,2.9-3.7,1.5-3.7,4.9c-2.3,0.6-0.5-1.7-1-2.4
				c-0.2-0.3-2.1-0.8-3.1-0.8c-1.3,0-1.7,0.8-1.7,2.2c-1.2-0.1-1.9,0-5.9,0c-3.8,0-8.1-1.3-9-4.2c-1.3,0.3-5.4,0.4-5.4,1.9
				c0,0.5,0.3,0.8,0.9,0.8c1.1,0,2.9-0.5,3.8-1.1c0.3,2.3-3.3,0.4-3.3,2.8c0,0.5,0.8,2.1,0.4,2.1c-1.4,0-1.7-1.6-2.9-2.1l-1-0.3
				c-1.7,0-2.8,0-4.4,0c-1.4,0-2.3,0.4-3.8,0.5c-2.8,0.1-2.8-1-2.8-1.2c0-0.6,2.1-0.4,2.5-0.8c-1.9-2.7-1.6-2.3-5.6-2
				c-4.2,0.3-6.3-3.1-10.6-3.1c-1.3,0-1.9,0.9-3,0.9c-0.8,0-1.5-1.3-1.7-1.9c-1.3,0.3-1.3,1.8-2.7,1.8c-1.3,0-3.2-3.1-3.6-3.1
				c-1.4,0-0.9,2-2.4,2c-0.6,0-1-0.4-1.3-1c-2.2,0.5-2.9,0.6-4.9,1.4c-0.8,0.1-2.6,1.5-3.2,0.9c-1.8-1.7-1.5,0.5-2.2,0.5
				c-4.5,0.2-1.4,1.8-2,1.8c-1.7,0-4.9-0.3-7.7-2.1c-0.1-0.1-1-0.7-1-0.9c-0.5,0.3,0.2,0.1-0.9,0v0.1c-1-0.6-2.3-1.4-4.3-1.4
				c-1.2,0-2,0.3-3.2,0.3c-2.2,0-6.4,1.2-7.8-1.9h-4.8c-1,0-1.3,0-2.1-1H80c-0.6,0-0.8-0.4-1.6-0.7c-0.3,0.6-1,1.1-1.7,0.9
				c0.2-0.3,0.3-0.5,0.6-0.9c-0.9-0.3-1.3-1-2.2-1c-1.2,0-1.9,1.5-3,1.9c-1,0.3-1.6-0.5-2.6-0.3c-3.7,1.2-6.8,5.2-8.9,6.2h-3.8
				c-0.1,0-1,2.3-1,2.3c0,0.5,2.9,1.2,3.7,1.7c0.7,0.4,1.5,2.6,2.1,2.9c2,1,3.5,1.2,4.2,3.4c-0.8,0.2-1,0.3-1.9,0.3
				c-1.5,0-2.6,0.7-2.6-1.3h-1.2c-1.7,1-4.5,1.8-6.3,2.8c0.3,0.7,1,1,2.1,1c-0.1,0.2-0.2,0.4-0.2,0.6c0,0.6,0.8,0.8,0.9,1.8
				c0.6,0,2.2,0,3.7,0c1-1,1.5,0.5,2.9,0.5c1.5,0,2.3-1.2,3.5-1.2c0.4,0-0.6,0,1.5,0v1c-2.1-0.3-0.8-0.3-1.5,0.1
				c0.1,0.2,0.9,1.2,0.9,1.7c0,0.9-4.8,2.8-5.5,2.8c-1.5,0-5.3,1.7-5.3,3.8c0,1.1,2.2,1.5,2.8,3c-0.3,0-0.7,0.2-1.1,0.2
				c0.5,0.6,3.7,3.2,4.7,3.2c0.3,0,0.8-1.2,1.4-1.2s0.5,0.8,0.5,1c0,0.6,0,0.6,0,1.4c0,0.6,0.3,1.2,0.7,1.2c0.3,0,0.7-1.1,1.1-1.1
				c0.3,0,0.2,0,0.8,0c0,0-0.1-0.1,0.1-0.5c1.2,0.9,1.7,1.6,3.3,2.2c0.1-0.5,0.3-0.6,0.5-1.1c0.7,0.2,1,0.4,1.9,0.4c1,0,1.5-1,2.6-1
				h1c-1.7,2.1-1.7,3.3-3.3,4.4c-1.7,1.1-4.4,2.4-5.6,3.9c-0.8,1-2.2,0.4-3.3,1.1c-0.8,0.4-1.4,1.8-2.2,2.3
				c-1.2,0.7-2.5,0.2-3.3,1.5c2.9,0.8,4.3-2.1,6.8-2.5c2-0.3,4.5-1,5.6-2.1s3.5-1.8,4.5-3.1c0.6-0.7,1.1-1.4,2-1.7
				c1.6-0.6,3.4-1.2,3.4-2.8c0-0.3,0-0.7,0-1c0-2.3,4.1-6.1,5.8-6.1c0.3,0,0.2,0,0.8,0c0,0-0.1,0.5-0.1,0.7c-2,0.6-3.1,1.8-3.1,3.3
				c0,0.3-0.3,0.3,0.1,0.8c-0.1,0.1-0.6,0.1-0.6,0.6c0,0.3,0.4,0.5,0.7,0.5c1.6,0,6-2.5,7-3.9c-0.3-0.3-0.5-0.5-0.7-1
				c0.6-0.4,2-0.9,2.9-1.2c1.2,2.4,4.2,3.3,6.5,3.3h3.8c2.1,1,4.5,1.3,6.3,2.6c0.8,0.6,1.8,2.7,3.3,2.7c0.6,0,0.8-0.7,1-1.2
				c0.6,0.6,1,1.1,2.1,1.1c0.3-0.5,0.9,0.2,1.3,0.5c-0.2,0.3-0.7,0.6-0.7,1.5c0,0.4,0.8,1,1,1c0.9,0,0.8-0.8,1.9-0.9
				c0,0.1,0,0.4,0,0.9c0,0.6-1,0.6-1,1.2c0,0.4,0.2,1,1.1,1c1.3,0,2,0,2,1c0,0.6,0,0.4,0,1c0,0.8,1.9,2.1,3,2.1
				c0.3,0,0.4-0.1,0.8-0.1c0,0.3,0.4,0.6,0.4,1c0,0.9-0.3,2.8,0.7,3.1c0.6,0.1,1.1,0.1,1.5,0.6c0.6,0.6-0.1,1.5,0.7,2.1
				c0,0,1.8,1.1,1.9,1.3c0.5,1.6,0.6,3.5,3,3.5c0.3,1.4,2.8,0.5,3.3,2.3c0.2,0.7,1.9,0.8,2.6,1.5c0.1,0.1,0.5,0.3,0.8,0.4
				c0.3,0.7,0.9,0.9,0.9,1.6c0,0.6-0.6,1.5-1,1.9c-0.3-0.6-1-1.2-2-1.2c-0.3,0-1,0.1-1,0.5c0,1.5,1.7,2.2,1.7,3.7
				c0,2.2-1.8,6.1-1.2,7.8c0.7,1.7-0.1,4.3,0.7,5.8c-0.4,0.3-1,0.7-0.7,1.3c1.2,2.1,2.7,5.1,4.2,5.4c-0.4,2.9,1.6,3.7,2.6,6.1
				c0.2,0.6,0,1.3,0.6,1.6c2.5,1,6.1,3.5,7.1,4.5H153v0.4c0,1.6,1.4,2,2,3.3c0.4,0.8,0.5,2.8,1.3,3.3c1.2,0.8,2.4,2.3,3.5,3.7
				c0.6,0.9-1,0.6-1.4,0.6c0.7,1,2.6,0.8,3.6,1.8c0.7,0.7,1.4,1.5,2.4,2.2v1.8c0,0.3-0.1,0.3,0.3,0.6c0.8,0.5,1.3,2.1,2.5,2.1
				c0.1,0.3,0.9,1.5,1,1.5c0.2,0,0.4-0.7,0.4-1.1c0-0.6-0.9-1.7-1.4-1.2c-1.2-0.8-1.7-2.6-2.2-4.3c-0.5-1.5-1.9-2.2-2.4-3.8
				c-0.4-1.2-0.5-1.9-1.5-2.8c-0.7-0.7-1.6-0.7-2.1-1.7c-0.6-1.2-1.2-2.1-1.2-3.5c0-0.2-0.1-0.6,0.1-0.9c0.9,0.9,2,0.8,3.2,1.4
				c0.6,0.3,0.4,1.8,1,2.4c0.6,0.6,0.4,1.8,1,2.4c0.8,0.8,1.5,1.5,2.4,2.4c0.2-0.2,0.1-0.1,0.8,0c0,1.7,2.2,1.8,2.8,3.1
				c0.3,0.8-0.1,1.5,0.4,2c0.7,0.7,1.8,1,2.5,1.7c1.5,1.5,3.9,3.5,4.7,6.1c0.1,0.5,0.7,0.7,0.7,1.6c0,0.8-0.7,1.2-0.7,1.9
				c0,0.6,0.4,1.4,1,1.4c0.2,0.9,2.4,1.4,3.2,2.2c0.2,0.2,0.3,0.3,0.8,0.5c0.9,0.4,1.4,0.3,2.3,0.7c1,0.5,1.2,1.3,2.2,1.6
				c0.8,0.2,1.2-0.2,2,0.1c0.7,0.3,3.1,2,3.9,2c0.6,0,1-0.1,1.6,0.1c0.3,0.1,0.8,0.6,1.4,0.6c1.2,0,1.4-1.1,2.6-1.1
				c0.6,0,1-0.2,1.5,0.9h0.4c1.9,1,2.2,2.2,4.3,3.2c1.4,0.7,2.4,0.2,3.7,0.8c0.9,0.4,1.6,0.8,2.9,0.8c0.5,0,0.8-0.7,1.3-0.7
				c0.1,0,0.3,0,0.4,0c0.4,2.1,1.6,2.6,2.7,3.7c0.3,0.3,0.7,0.3,0.9,1c0.3,1-0.3,2.5,0.7,2.5h0.7c-0.1,0-0.1-0.1,0-0.3
				c0.1,0,2.4,1.6,2.6,2c0.3,0.6,0.3,1.3,1.3,1.5c0,0.1,0.2,0.5,0.3,0.5c0.5,0,1.6-0.4,2.1,0.1c0.6,0.6,1.3,1.9,2.4,1.9
				c0.6,0,0.9-0.3,1-1c-0.1-0.1-0.6-0.3-0.6-0.6c0-0.4,1.9-1.8,2.4-1.8c0.8,0,1,0.9,1.7,1.3c-0.1,0.3-0.4,0.4-0.4,0.7
				c0,0.2,0.6,0.4,0.8,0.5c0,0,0.1,0,0.2-0.1c-0.1,0.1-0.1,0.3-0.1,0.4c0,1.2,1.3,1,1.3,2.5c0,0.7-0.3,1-0.3,1.8
				c0,0.6,0.4,1,0.4,1.5c0,0.1,0,0.2,0,0.4l-0.3,0.6c0,0.2,0.3,0.6,0.7,0.7c-0.4,1.9-2.2,1.4-3,2.9c-0.6,1.1-1,3-2.9,3
				c0.3,3.1-1.5,2.8-1.5,4.4c0,1,0.1,2.4,1.1,2.4c0.5,0,0.4-0.3,1,0.1c-0.3,1.1-1.5,1.4-2.2,2.4c-0.3,0.3-0.8,1.3-0.8,2.1
				c0,1.3,1,2.6,1.7,3.4c0.3,0.3,0.8,0.1,1,0.6s0.3,1.5,0.8,1.9c0.2,0.2,0.7,0.1,0.9,0.5c0.6,1.3,1,2.2,1.5,3.8
				c0.5,1.5,1.9,2.8,2.4,4.4c0.3,1,1.3,1.5,1.3,2.6c0,0.8-0.3,1.6,0.3,2.2c1.3,1.3,2.2,2.2,4.2,2.9c1,0.3,1.4,0.6,2.2,1.4
				s1.5,0.6,2.6,1.1c1.2,0.6,2.4,1.7,3,3.3c0.2,0.8,0.7,4.9,0.7,5.6c0,1.1-0.5,3-0.5,4c0,0.9,0,0.9,0,3.1c0,0.7,0,1.9,0,2.4
				c0,0.2,0,0.4,0,0.6c0,2.4-2,4.1-2,6.7c0,1.1-0.9,2.1-0.5,3.3v5.2c-0.4,1.7-0.5,2.8-1,4.4c-0.1,0.3-0.4,0.2-0.6,0.5
				c-0.3,0.5-0.5,1.5-0.8,2c-0.6,1-1.6,2.6-1.6,4.2c0,0.5,0.1,2.4,0.3,2.4c0,0,0.4,0.3,0.4,0.8c0,0.2-0.2,0.4-0.7,0.4
				c-0.2,1.2-0.7,1.8-0.7,3.1c0,0.8,0.4,2.4,1,2.4c0.5,0,0.2-0.6,0.7-0.8c0.2-0.1,0.3,0,0.3,0v1l-1.9,10.3c-1,0-0.4-1.4-1.6-1.4
				c-0.3,0-0.5,0.6-0.5,0.6h-1.1v1c0,0.8,1.5,1.9,1.5,2.4c0,1.1-1.6,1.6-1.6,2.9c0,1.2,1.1,3.6,1.1,5.1c0,0.3,0,0.5,0,1
				c0,1.5,2.1,1.2,2.1,2.9c0,0.4-0.2,0.8-0.4,1.2c0.2,0.1,0.4,0.3,0.6,0.3c-0.1,0.6-1.3,0.6-1.3,1.2c0,0.1,0.4,0.5,0.6,0.7
				c0.9,0.9,1.5,2,3.4,2c0.1,0.3,0.2,1.1,0.8,1.1c0.5,0,0.8,0,1.3,0c0,1,1.5,0.9,2.6,1.2c1.1,0.4,0.6,1.9,2.2,1.9c0.7,0,1.2,0,1.9,0
				c0.2,0,0.5,0,0.7,0c0.3,0,0.3,0,0.8,0c0.6,0,2.4-1.2,3.4-1.2c0.4,0,0.8,0.2,1.1-0.2c-1.9-0.9-3.8-1.5-5.3-3
				c-0.9-0.9-0.8-4.1-2.1-4.8c-0.4-0.1-1-0.9-1-1.6c0-1.3,0.4-2.3,1.2-3.1c0.6-0.6,1.7-0.2,2.2-1.2c0.4-0.9,0.2-1.8,0.8-2.4
				c1-1,2.7-1.2,2.7-3.1c0-2.2-3.1-1.2-3.1-3.9c0-1.2,1-2.2,2.1-2.4c0.5-0.1,1.7-0.1,1.9-0.9c0.4-1.7,0.4-3,1.7-4.2
				c-0.3-0.1-0.8-0.3-0.8-1c0.7,0,1,0.6,1.8,0.6c0.1,0,0.7-0.5,0.7-0.9s-0.3-0.4-0.6-0.7c-0.2,0.1-0.6,0.5-1,0.5
				c-0.6,0-1.5-1.8-1.5-2.8c0-0.3,0.2-0.8,0.7-0.8c1.4,0,1.6,1,3.1,1c0.5,0,1.5-0.5,1.5-0.8c0-0.2,0-0.5,0-0.7c1-1-0.2-3.1,0.7-4
				c0.6-0.6,3,0.1,4.1-0.2c1.7-0.6,3.1-0.2,4.3-1.4c0.7-0.7,1.2-1.1,1.8-2.1c0.3-0.6,0.3-1,0.3-1.9c0-0.8-1.1-0.8-1.3-1.5
				c-0.3-0.8-0.3-1.6-0.8-2.2c-0.2-0.2-1.3-0.6-1.3-1.2c0-0.2,0.4-0.3,0.6-0.3c1,0,1.9,0.8,2.9,0.8c0.5,0,2,0.8,3.2,0.8
				c3.2,0,3.7-3.5,5.1-5.6c1.2-1.8,2.8-2,4-3.9c0.6-0.9,1.2-1.4,1.2-2.3v0.1c1-1.5,1-2.6,2.1-3.3v-3.3c0-1.3,0-2.3,0.9-3.2
				c0.6-0.6,1.5-0.6,2.1-1.5c1.2-1.9,3-1,4.7-2.6c0.2-0.2,0.3-0.6,0.7-0.8c1-0.5,2.1-0.4,3.4-0.4c1.2,0,2.6-1,3.1-1.8
				c0.1-0.3,0.1-1.1,0.4-1.5c1-1.4,1.4-2.1,2.4-3.7c0.1-0.3,0.4-1.7,0.4-2.4c0-0.6,0.6-1.3,0.9-1.6c0.1-0.2,0.4-0.5,0.4-0.8
				c0-0.9,0.5-2.1,0.5-3.3c0-1.7-1-3.9,0-5c0.7-0.7,1.5-0.8,2.2-1.9c0.4-0.6,0.7-0.8,1.1-1.4c1.9-2.8,4.7-4.2,4.7-9.4
				C317.2,313.8,316.9,312.3,315.5,311.9z"/>
			<path class="st3" d="M230.4,251.1c0,0.6,0,1.3,0.7,1.3c0.1,0,0.3-0.2,0.3-0.3c0-0.5-0.2-0.9-0.8-1H230.4z"/>
			<path class="st3" d="M230.4,247.2c-0.3,0-0.8,0.3-1,0.6c0.4,0,1.1,0.1,1.8,0C231.1,247.5,230.9,247.2,230.4,247.2z"/>
			<path class="st3" d="M232.5,248c-0.1,0.2,0.1,0.6,0.3,0.6L232.5,248z"/>
			<path class="st3" d="M240.9,259.1v-0.6c-0.3,0.4-0.8,0.8-1.4,0.6c0,0.1,0,0.3,0,0.4s0.2,0,0.3,0
				C240.2,259.5,240.7,259.3,240.9,259.1z"/>
			<path class="st3" d="M123.3,180.5c0.3,0,0.6-0.2,0.6-0.7c0-1.5-1.9-1.7-1.7-3.6c-1.5-0.3-1.8-0.3-1.8,1.4c0.8-0.6,0.4-0.2,1.5,0
				c-0.2,0.3,0,0.9,0,1.4C121.9,179.1,122.7,180.5,123.3,180.5z"/>
			<path class="st3" d="M118.3,173.6c-0.1,0.1-0.7,0.2-0.7,0c-0.3-1.1,0-1.1,0-2.9c-1,0.6-0.3,0-1.6,0c-0.3,0-0.8,0.1-0.8,0.7
				c0,1,0.8,1.9,1.9,2.1c0,1.1,0.3,1.9,1.1,2.8C118.9,175.5,118.2,174.6,118.3,173.6z"/>
			<path class="st3" d="M182.7,133.6c1.3,0,1.5,0.3,2.8-0.6c-1.3-1-7.2-2.6-7.2-4.8c0-1.8-1.9-3.4-1.9-5.9c0-0.6,1.5-1.3,1.5-2.3
				s-1.2-1.5-2.4-1.5c-1.1,0-2.1,0.5-2.1,1.2c0,0.2,0,0.5,0.1,0.7c-1.1,0.6-0.7,0-1.9,0c-0.6,0-1.3,0.3-1.3,0.9s1,3.9,1.6,4.8
				c-0.3,0.3-0.3,0.6-0.9,0.6c-1.3,0-0.8-1.9-1.2-2.7c-0.3-0.8-1.3-1.1-2.3-2.1H166c0.1,1,0.3,0.8,0.3,1.4c-0.8,0.2-1.3,0.4-2.1,0.6
				c-0.5-1.2-1.2-2-3.1-2c-1.1,0-1.6,0.9-2.2,1.3c-0.3-0.4-0.2-2.4-1.2-2.4c-2.5,0-8.8,2.5-8.8,5.9c0,0.3,1.3,1.4,2.1,1.4
				c0.9,0,1.3-0.2,2.4,0.1c-0.8,0.5-2.8,0.1-2.8,1.7c0,1.9,3.8,1.5,5.4,1.5c0.7,0,2.4,0,3.7,0c0.7,0,1.3,0.2,1.7,0.5
				c-0.8,0.1-1.3,0-2.3,0c-2.9,0-5.1,0.3-6.7,1.5c0.5,0.8,1.7,2.4,3.3,2.4c1,0,3.1-0.4,3.8,0.2c0.8,0.6,0.1,1.6,1.3,1.6
				c1.9,0,3.1,0,6.3,0c1.5-1,3.2-0.3,5-1.2c1-0.5,0.6-1.2,1.8-1.2c2,0,3,2.1,5.7,2.1c1.7,0,3.3,0.1,4-1.2c-0.3-0.2-0.6-0.4-0.7-1
				c-0.3,0-1,0-1-0.6C181.8,133.8,182.1,133.6,182.7,133.6z"/>
			<path class="st3" d="M138.8,126.9c0.2,0.3,0.7,1.4,1,1.4c0.4,0,0.6,0.7,1,0.7c0.6,0,5.4-1.7,5.4-2.3c0-1.6,3.1-4.5,5.2-5.2
				c0.7-0.2,4.4-0.8,4.4-1.5c0-1.6-3.4-3-4.9-3c-0.9,0-1.7,0.8-2.4,0.2c-1.5-0.1-2.2-1-3.8-1.4c-1.3-0.3-1.9,0.5-2.8,0.5
				c-1.7,0-2.4-0.7-4.2,0c0.1,0.8,1,1.9,1,2.4c0,2.5-3.5,4.4-3.5,6.8C135.5,126.3,138.3,126.1,138.8,126.9z"/>
			<path class="st3" d="M157.8,110.1c-0.2,0-0.7-0.1-1.1-0.2C157,110,157.4,110,157.8,110.1L157.8,110.1z M155.9,108.6
				c-0.1,0-0.1,0-0.2,0c-0.6,0-1.1,0.4-1.4,0.8c0.2,0.1,0.5,0.1,0.7,0.2c-0.2,0-0.3-0.2-0.3-0.2H153v1.2c0,0.1,0.8,0.2,1,0.3
				c-0.2,0-0.4-0.1-0.6-0.1c-0.7,0-1,0.6-1.7,0.7c0.3,0.5,0,0.3,0,1c0,0.6,0.5,1,1.1,1c0.5,0,1.5,0.5,2.4,0.5c0.8,0,1.7-0.3,2.9-0.5
				c0-0.4,0.3-0.8,0.8-0.9c0.1,0.7,0.8,1,1.2,1.6c-0.9,0-1.9-0.2-1.9,0.8c0,0.4,1.1,1,1.9,1c1.7,0,3.1-0.5,4.5-1
				c0.2-0.1,4.7-1,4.7-1.2s4.1,0.3,4.5,0.1c0.6-0.2,2.3-2.3,2.3-3.3c0-0.8-0.8-1.7-1.6-1.7c-0.9,0-1.2,0.8-1.9,0.8
				c-1.3,0-2.6-1.5-2.6-2.6c0-0.1-0.1-0.3,0-0.9c-0.5,0-0.9-0.2-1.3-0.5c-0.7,0.6-2.7,1.1-2.7,2.2c0,0.6,1.5,1,1.5,1v0.9
				c0,0-0.4,0.1-0.5,0.3c0.3,0.1,0.7,0.2,1.5,0.2c-0.3,0.6-0.6,1.2-1.5,1.2c-3.1,0-4.5-2.4-6.6-2.4c-0.1,0-0.8,0-1.6,0
				c-0.1-1-0.9-1.3-1.2-1.3c-0.6,0-1-0.3-2.3-0.1C155.3,108.3,155.5,108.4,155.9,108.6z"/>
			<path class="st3" d="M148.2,111.2c0,0.5,0.6,0.8,1.2,0.8c0.9,0,1.9-1.5,2.1-2.4C150.8,109.5,148.2,110.1,148.2,111.2z"/>
			<path class="st3" d="M158,108.4h1.2v-2.1h-2.1C157.1,106.3,157.6,108.4,158,108.4z"/>
			<path class="st3" d="M143.2,109.6c0.7,0,1.1,0.4,1.9,0c0.1,0.3,0.6,1,1.2,1c0.8,0,1.3-0.8,1.5-1.5c1.2,0.1,2.2-1,2.4-2.2
				c0.6,0.3,0.6,1.9,1.7,1.9l3-2.2c0-0.6-0.5-0.7-0.6-1.4c0.5-0.1,0.9-0.6,0.9-1.1c0-1.2-4.2-0.1-4.2-0.1c-0.6-0.1-0.7-0.1-1.3-0.1
				c-1.9,0-2.3,1.8-3.6,2.6c-1.2,0.7-2.2,0.8-3.3,1.4c-0.3,0.1-1.5,1.1-1.5,1.3c0,0.2,0.6,0.6,0.7,1
				C142.5,110.1,142.7,109.6,143.2,109.6z"/>
			<path class="st3" d="M163,100.1c1.5,0,1.1,0,3,0c0.8,0,1.3-0.3,1.9-0.5c-0.3-0.9-1.5-1.7-2.9-1.7c-0.9,0-5.1,1.6-5.1,2.5
				c0.6-0.1,0.8-0.7,1.4-0.7C161.9,99.7,162.1,100.1,163,100.1z"/>
			<path class="st3" d="M165.8,100.8c-1.5,0-5.7,0.1-5.7,1.7c0,0.6,1.2,2.3,2.2,2.3c1.5,0,3.8-0.6,3.7-1.6h-1.9c1,0,2.2-0.7,3-1.3
				C166.8,101.6,166.5,100.8,165.8,100.8z"/>
			<path class="st3" d="M158.1,103c0.5,0,0.7-0.4,1-0.8c-0.4-0.2-2.4-1.9-2.4-0.2C156.7,102.3,157.5,103,158.1,103z"/>
			<path class="st3" d="M192.7,123c0-0.7,0.2-0.1,0.2-1c0-0.8-2-0.1-2.6-0.1c0.5-0.6,2.2-1.2,2.2-2.6c0-0.3-0.5-0.7-0.7-0.7
				c0,0-1.5,0-2.8,0c-1.5,0-3.1-0.3-4.2,0.8c-0.1,0.2-0.8,0.3-0.8,0.5c0,0.9,0.9,0.8,1.9,0.9v1.9c0,0,0.3,0-0.4,0
				c-1.2,0-2.7-0.9-2.7-0.9v1.2c1,2,3.9,1.7,5.9,3.7c0.4,0.4,0.4,1.2,1.4,1.2c0.6,0,0.7-0.8,1.3-1c2.2-0.8,2.4,0.2,2.8-3.6
				C193.9,123.2,193,123.1,192.7,123z"/>
			<path class="st3" d="M179,108.4c-0.3,0-0.6,0-0.8,0c0,0,0.4,0,0.5,0.2l0.2-0.7v1.3c0,0.4,0.8,0.9,1.5,0.7v0.7h1
				c0,0,0.3,0.9,0.8,0.9c1.4,0,3.8-0.7,5.1-0.7c0.3,0,0.6,0.1,0.8,0.2c-0.4,0.4-1.7,0.4-1.7,1c-0.1,0.2-0.1,0.5,0,0.7
				c-0.3,0.1-0.5,0.4-0.5,0.7c0,0.6,1.8,0.4,2.2,0.4c0.2,0,1.7,0,2.8-0.4c-0.3-1.9,0.6-2.8,0.6-4.4c0-1-0.1-1.7-1.4-1.7
				c-0.6,0-0.8,0.6-1.4,0.6c-1.3,0-2-0.7-3.1-0.7c-0.5,0-1.1-0.1-1.6,0.1c0.3,1,1.1,1,2.1,1v1.5c-1,0-2.1-1.5-3.1-1.5v0.8
				c0,0.3,0.8,1.4,1.3,1.8C182.1,111.3,181,108.4,179,108.4z"/>
			<path class="st3" d="M189.8,135.7c-0.3,0.1-1.5-0.2-1.5,0.3c0,0.2,5.1,2.1,6.1,2.1c0.8,0,1-0.7,1.7-1.1c-0.4-1-3.3-3.5-4.3-3.5
				C190.3,133.5,190.6,135.4,189.8,135.7z"/>
			<path class="st3" d="M199.2,117.1c-1.5,0-1.8,1.2-1.8,1.3c0,0.2-1,1.4,0,1.4c-1,0-2.1,0-2.1,0v0.3c0,1.4,0.2,1.9,1.3,3.1
				c-0.1,0.3,0.1,0.8,0.1,1.8h1.4c0.8,0,1.4-1,1.6-2.1h-0.9c0.4-1,0.4-0.3,1.9-0.3c2.1,0,3.1-1.4,4-2.7c0,0,1.3-0.9,1.3-1
				c0-0.3,0-0.5,0-0.9C203.5,117.9,201.6,117.1,199.2,117.1z"/>
			<path class="st3" d="M177.2,105.1c0.5,0,0.9-0.3,1-0.8c-1.5-0.5-1.6-1.9-3.4-1.9C174.8,103.2,176.5,105.1,177.2,105.1z"/>
			<path class="st3" d="M176.9,113.6c0.6-0.1,0.7,0.1,1.4,0.1c0.4,0,1-0.1,1-0.9c0-0.5-0.3-0.7-0.5-1
				C177.9,112,177.2,112.4,176.9,113.6z"/>
			<path class="st3" d="M176.9,96.9c-0.1,0.3-0.3,0.6-0.5,0.7c0.6,0.4,0.9,0,2.4,0c-0.1,0.2-0.1,0.6,0,0.8c-0.8,0.3-1.5,0.2-2.1,0.8
				c0.6,0.6,0.9,0.6,1.9,0.6s1.9-0.4,2.3,0.3c1.3-0.1,2,0.3,3.3,0.3c1.6,0,1.5,1.7,3.1,1.7c0.6,0,1.3-0.2,1.3-0.9
				c0-0.8-1.4-1.3-1.9-1.9c0.1-0.2,0.4-0.5,0.6-0.7c-0.3-0.3-1.1-1.6-2.1-1.6c-0.4,0-0.6,0.6-1,0.6c-0.8,0-0.7-1.6-2.1-1.6
				c-0.6,0-0.8,0.6-1.4,0.6c-0.8,0-1.2-1.2-2.6-1.2c-0.8,0-1.4,0.4-2.2,0.6C175.7,96.7,175.9,96.9,176.9,96.9z"/>
			<path class="st3" d="M184.3,101.8c-0.6-0.2-0.8-0.6-1.6-0.6c-0.3,0-1.9,1-0.6,1C183.1,102.3,183.9,102.3,184.3,101.8z"/>
			<path class="st3" d="M208.7,114.6h0.8c-0.1,1,2,1,3.5,1h5.6c0.6,0,0.8-0.7,1.7-0.8c0.1,0.5,0.5,1.1,1.4,1.1c2.4,0,5.6,0,5.8-2.4
				c0,0-0.4,0.1-0.9-0.1c0.1-0.3,0.2-0.5,0.3-0.6c0.2,0,0.5-0.1,0.6-0.1c-1-1.8-2.8-1.9-5.6-1.9c-3.6,0-4.9,1.7-8.7,1.7
				c-1.7,0-3.1-0.4-4.8-0.8c-0.3,0.2-1.1,0.6-1.1-0.4c0-0.2,0.4-0.1,0.5-0.3c-1-0.8-2.7-0.5-3.1-1.5h2.8c-0.6,0-3.8,0-3.3-1
				c0,0-0.8,0-1.3,0c-0.3,0-0.7,0-1.4,0c-2.4,0-2.9-2.7-6-2.7c-0.8,0-2.1-0.1-2.1,0.9c0,0.6,4.2,2.4,5,2.4c0.6,0,1-0.3,1.4-0.7
				c1.2,1.2,1.5,2.3,2.8,3.5c-0.3,0.1-0.8,0.6-0.8,1.1c0,1.4,3.5,3.1,5,3.1C207.4,115.8,208.5,114.6,208.7,114.6z"/>
			<path class="st3" d="M199.8,113.3c0-0.9-1.7-2.3-2.9-2.3c-1.6,0-1.3,1.6-2.1,1.6c-0.1,0-0.9,0.4-0.9,1c0,0,4,1.9,4.5,1.9
				C199.4,115.5,199.8,114.5,199.8,113.3z"/>
			<path class="st3" d="M199.5,103.2c0-0.1,0,0,0-1c0,0,0.2,0-0.6,0c-1.3,0-3.7,0.2-4.4,0.9c0,0,3.8,0.8,4.2,0.8
				C199.3,103.9,199.5,103.6,199.5,103.2z"/>
			<path class="st3" d="M192.7,100.8c-0.2,0.1-0.7,0.3-0.7,0.7c0,0.8,2.4,0.6,4.9,0c-0.2-0.8,0-1.3,0-1.7c0-1.5-2.4,0.1-2.4-1.6
				c-0.8,0-2.2-0.5-2.4-1c-0.7,0.1-1.6,0.3-1.6,1C190.4,99.5,191.9,99.9,192.7,100.8z"/>
			<path class="st3" d="M189.3,93.9h0.9v-1.5c0,0-1.4,0-2.3,0C187.9,93.3,188.8,93.9,189.3,93.9z"/>
			<path class="st3" d="M198.1,93c-0.6,0-1.7-0.1-2.1-0.1h-1c0.2,1,1.7,1.7,4,1.7c-0.4,0.6-0.9,0.3-1.6,0.6c0,0.4,0.1,0.6,0.6,0.6
				c0.6,0,0.8-0.3,1.5-0.6c0.2,0.4,0.3,0.9,1,0.9c0.8,0,1-0.6,2.1-0.6c1,0,1.8,0.3,2.9,0.5c-1,0.2-5.3,0.1-5.3,1.4
				c0,1,1.9,1.7,3.1,1.7c-0.2,0.2-0.4,0.4-0.9,0.5c0.1,1,1.7,1.3,2.8,1.3c1,0,1.4-0.3,1.4-1.6c0.6,0.4,2.3,1.3,2.3,1.3v-1.4h1.7
				c-0.2,0-0.5-0.5-0.9-1.2c0.3-0.3,0.5-0.6,0.8-0.9c0.2,0.8,0.2,1.4,1.1,1.4c0.9,0,1.9-2.1,3.3-2.2c0.6-0.1,1.3,0.1,1.6-0.3
				c0.2-0.3,0.1-0.1,0.1-0.6c-0.9-0.1-2.7-0.4-3.4-0.4c-0.1,0-1.2,0-1.2,0c0-1,0.5-1,0.5-1.5s-0.8-0.7-0.8-1.2
				c0-0.8,0.1-1.4-0.9-1.4c-0.2,0-0.5,0-0.7,0l-0.1,0.4V93h-0.4c-0.6-2.1-0.2-1.9-1.3-2.3c-1-0.4-1.7,0.1-2.8-0.3s-0.8-2.5-2.2-3.1
				c-1.3-0.5-2.6-0.7-4.4-0.8c0.1,1,1.3,1.4,2.1,1.4h-1.2c-1.3,0-1.8,0.1-2.6,0.6c0,0.1,0.6,1.1,0.9,1.1c0.4,0,1.3-0.4,1.9,0
				c-0.2,0.2-0.3,0.7-0.8,0.7c-0.6,0-0.9-0.5-1.9-0.5c-0.6,0-1.6-0.1-1.6,0.7c0,0.8,2.2,1.5,3.1,1.8C198.7,92.2,198.4,93,198.1,93z"
				/>
			<path class="st3" d="M223.5,152.2c-0.3-0.3-0.1-0.8-0.5-1.3c-1.3-1.7-3.5-1-4.9-2.8c-0.2,0.1-0.4,0.3-0.6,0.6
				c-0.3-0.7-0.8-0.9-1.1-2c-1.9,0.2-2.4,3-2.4,4.2c0,0.6,0,0.4,0,1c0,0.4-0.3,0.6-0.6,0.9c-0.1,0.3-0.9,0.2-1,1.4
				c0.6-0.1,1.9-0.3,3,0c-0.1,0.7-0.3,1.4,0.5,1.4c0.3,0,0.4-0.2,0.6-0.6c1,0.4,3.3-0.8,3.3-2.3c0.4,0.1,2.6,2,2.6,2
				c0.7,0,1,0,1.9,0s1.5-0.6,2.3-1C225.8,153,224.6,153.1,223.5,152.2z"/>
			<path class="st3" d="M236.7,140.4c0-3.1-4.3-3.1-4.3,0c0,1,0.7,1.5,1.7,1.5C235,141.9,236.7,141.4,236.7,140.4z"/>
			<path class="st3" d="M221.4,156.2c-0.1,0.4-1.2,1-1.2,1.7v0.9c1-0.1,2.7-1.5,3.3-2.4C222.6,156.1,222.7,156.1,221.4,156.2z"/>
			<path class="st3" d="M228.6,122.7c1.2,0,1.8-0.7,2.6-0.7s1.2,0.5,2.1,0.5c0.6,0,1-0.5,1.3-1.1c-1.3-0.6-2.9-2.2-4.7-2.2
				c-1.5,0-1.9-0.6-3.5-0.6c-0.6,0-1.2,0.3-1.2,1c0,0.8,0.8,1.1,1.4,1.5C226,122.3,227.2,122.7,228.6,122.7z"/>
			<path class="st3" d="M227,160.2c0.7,0,0.8-1,1.3-1.5c-0.7-0.8-2.3-0.8-2.3,0.5C225.9,159.2,226.8,160.2,227,160.2z"/>
			<path class="st3" d="M239.7,140.3c-0.2-0.3-0.8-1.1-1.4-1.1c-0.1,0-0.9,0.5-0.9,0.7c0,0.4,0.4,0.6,0.9,0.6
				C239,140.4,238.8,140.5,239.7,140.3z"/>
			<path class="st3" d="M229.9,135.1c-0.8,0-2.4,1.6-1.6,1.6C229.2,136.7,229.7,136,229.9,135.1z"/>
			<path class="st3" d="M245.1,128.5c0.2-1.2-1.7-1.6-2.5-1.6c-0.5,0-0.7,0-1.7,0c-2.3,0-2.8-2.2-4.3-3.3c-0.9-0.6-3.9-0.9-5.2-0.9
				s-1.6,1.8-2.8,1.8c-0.6,0-1-0.7-1.7-0.7s-1.5,0.7-1.5,0.7s0-1.1,0-1.4c0-1.5-0.8-4-2.6-4c-2.8,0-7.4,0.8-7.4,3.5
				c0,0.7,0.7,1.2,0.7,1.9c0,0.6-1,1.4-1.4,1.4c-0.8,0-0.7-0.6-0.7-1.2c0,0-0.1-0.8,0-1.3c-0.3,0-0.6-0.3-0.6-0.7c0-2,2.3-2.2,3-3.6
				c-0.1,0-2.3-0.7-2.3-0.7c-2.4,0-4.2,1.2-5.6,2.6c-0.3,0.3,0.1,1.5-0.5,1.9c-1,0.8-1.4,1.2-1.4,3.1c0,0.6,0.7,1.9,0.7,1.9
				s3.5,0.3,3.5,0.7v0.9c-1-0.1-1.9-0.8-2.8-0.4c0.1,1,1.5,1.9,1.9,1.9h3.3c0.4,1,1.5,1.6,2.1,1.6c3.1,0,8.4-0.1,10.6,0.1
				c-0.1,0.5-0.3,1.7,0.6,1.7c1.3,0,2.4-2.6,3.3-2.6c0.8,0,4.5,3.2,5.1,3.8c-0.4,0.1-1.7,0.2-1.7,0.9c0,0.1,0.3,0.8,0.6,0.8
				c0.9,0,1.3-0.8,2.2-0.8c1.5,0,5.9,3.4,5.9,5.2c0,1-1.5,2.5-2.1,3.1c-0.5,0.5-1.7-0.1-1.7,1c0,0.6,0.9,1.4,1.2,1.6
				c-0.8,0.6-2.5,1.1-3.1,1.1s-1.7,0-3,0c-1,0-2.8,1.1-2.8,1.7c0,1,2.2,1.9,3,1.9s1.3-1.1,2.1-1.1c0.6,0,0.5,0.5,1.2,0.5
				c0.6,0,1-0.6,1.4-1.1c2,1.2,3.1,2.5,5.4,3.5c-1.2,2.2,3,2.2,4.7,3.1c1.7,1,3.1,0.6,5.1,1.6c0.2,0.1,0.3,0.8,0.7,0.8
				c0.3,0,0.7-0.9,0.7-1.4c0-1.9-3.9-2.3-5.1-5.4h1c0.8,2.1,5.2,3.2,6.5,3.4c0.3-0.8,1-1.8,1-2.5c0-0.8-1.2-1.1-1.2-1.6
				c-0.1-0.3-0.1-0.3,0-1.4c-0.5,0-0.5,0-1.2,0c-0.1,0-0.6-0.2-1.9-0.6c-0.6-0.2-1.4-1.4-1.5-2.5h-1.1v-1.2c0,0.2,0,0.1,1,0v-0.8
				c-1,0.1-0.7,0.2-1.3-0.1c0.1,0,1-0.8,1.4-0.8c3.3,0,3.5,4.7,7,4.7c0.8,0,0.9-1.2,0.9-2c1.3,0,1.5-0.6,1.5-0.8
				c0-0.4,0.1-0.1,0-0.9c0.9,0,2.1-0.3,2.1-1.2c0-1.1-0.6-1.6-1.9-1.6c-0.3,0-0.9,0-1.3-0.3c-0.6-1.3-0.9-0.3-2.4-0.3
				c-1,0-1.4-1.2-1.5-2.4c-1.5-0.1-3.3-0.8-3.5-2.4c-0.9,0-1.3-0.2-1.9-0.6c0.6-1,1.2-1,2.3-1.6c-0.2-0.4-0.7-0.6-1-0.6
				c-0.6,0-0.9,0-2.1-0.1c0.6-0.8,1.5-0.6,2.4-0.8c-0.4-1-1-1.5-1.9-1.5h-0.8v-1.5C248,130.5,247,129.2,245.1,128.5z"/>
			<path class="st3" d="M230.1,154.9c0.7,0.6,0.9,0.6,1.6,0C230.9,154.5,230.8,154,230.1,154.9z"/>
			<path class="st3" d="M218.5,146.5c-0.1,0.5,0.5,1,1.4,1.1C219.4,147,219.4,146,218.5,146.5z"/>
			<path class="st3" d="M205.7,84.6h2.1c-0.8,0-1.2,0.6-1.9,1.3c0.1,0.1,0.9,0.6,1.3,0.6c1.3,0,1.4-1.2,2.8-1.2c0.6,0,0.8,0,1.4,0.2
				c-1.8,0.6-3.5,0.4-4.3,2.2c0.6-0.1,1.9,0,3.3,0c-0.9,0.1-1.4,0.4-1.9,0.8c0.5,0.6,2.4,1.3,3.8,1.3c0.6,0,1,0.2,1.5-0.9h0.9
				c-0.4,1,1.4,1.6,2.8,1.6c0.6,0,0.8-0.6,1.4-0.6c0.7,0,1.1,0.6,2.4,0.6c2.2,0,3.8-0.5,5.2-1.6h1c-0.8,1-2,1-3.3,2.1h-3.5
				c-0.1,0-0.5,0.4-0.5,0.6c0,0.4,2.2,1.8,2.6,2.1c-2,0.2-2.6-1.8-4.3-2.4c-1.4-0.4-2.9-0.1-3.7-0.1c-0.3,0-0.7-0.1-1,0
				c0.1,0.6,0.3,0.8,1,0.8c-0.7,0-1.7-0.1-1.7,0.6c0,1.3,4.7,1.3,4.7,3.5c0,1.9-2.6,1.3-4.3,1.9c-1,0.3-1.6,1.1-2.6,2.3l0,0h2.1
				c0.3,0,0.3,0,0.7,0h1c0,1,2.2,3.1,3.1,4.1h-1.3c-1.3-1-2.1-2.1-4.3-2.1c-0.7,0-1.7-0.4-1.7,0.6c0,1.2,1.5,1.4,2.3,2
				c-1.5,1-5.1,0-5.1,2.8c0,0.2,0.2,0.5,0.7,0.5c0.3,0,0.6-0.4,0.8-0.7c2.4,0.8,4.3,1.5,6.6,1.5c1,0,1.5-0.6,2.1-0.6
				c1.7,0,3.2,0,5.2,0c1.4,0,0.7,0.9,2.3,0.9s5.6-1.2,5.6-2.4c0-0.6-0.8-0.5-1-0.5c-0.5,0-0.7,0-1.7,0c0-2.1,2.9-1.5,2.9-3.7
				c0-0.4-0.3,0.6-0.5-1.5c0.6,0,0.5,0,3.5,0c1.2-1,1.7-2.2,3.1-2.9c-0.4-1-1.2-0.9-2-1.4c1.3,0.1,2.2-0.9,2-0.9h-1.9
				c1.1-1,2.9-1.2,4.4-1.7c1.1-0.3,2.6,0.4,3.6-0.3c2.1-1.5,3.7-4.3,6.5-5.2c2.5-0.8,6.4-1.8,8-3.4c-1.7-0.1-4.5,0.5-5.2-0.2
				c3.7-1.8,7.1-0.6,9.9-2.6c0.5-0.3,1.7-0.1,1.7-1c0-1.3-3.7-0.9-4.5-1.7c-0.4-0.4-0.4-1-1.2-1.2c-0.5-0.1-0.8-0.3-1.3-0.6
				l-5.6,1.6c0.6-0.1,0.8,0.1,1.2-0.4c-1.4-1.4-7.4-0.8-9-0.8c-0.7,0-1.1,0-2,0c-0.6,0-1-0.9-2.1-0.9c-1,0-1.3,1-2.2,1
				c-1,0-1.4-0.7-2.6-0.7c-0.3,0-0.7,0.6-0.8,0.6c-3.6,0-4.4,0-8,0c-0.7,0-1.3,0-1.6,0.7c-0.9,0.8-0.2,0-1.4,0c-2,0-2.9,1.4-3.5,3.1
				c-0.6-0.2-3.3-1.6-4.7-1.6c-1.5,0-0.6,1.4-2.8,1.4c0,0.3-0.3,0.5-0.6,0.5c-0.1,0-0.7,0-1.5,0c-2,0-6.5,1-7,2.1c0.4,0,1.3,0,1.5,0
				C204.9,84.6,205.3,84.6,205.7,84.6z"/>
			<path class="st3" d="M341.6,131.9c-1.5-0.5-7.6-0.2-7.6-2.3c0.3-0.1,1.5-0.3,1.5-0.9c0-0.6-0.7-0.8-0.7-1.7c0.3,0.2,0.7,0,1,0
				c2.9,0,2.2,3.5,5.4,3.5c0.8,0,1.8-0.1,1.8-0.8c0-4-4-5.1-7.1-7.6v-1c0,0,0.5,0.1,1,0c0.4,1.3,2.6,3.1,3.9,3.1
				c0.8,0,1.1-0.7,1.1-1.6c0-1.9-3.1-1.7-3.8-2.8h1c0.6,0,1.3,0.7,2.1,1.2c0.6-1.5,3.3-0.7,3.8-2.8c-0.3-0.1-0.7-0.7-0.7-1.1
				c1.3-0.1,2.7-0.8,3.1-1.9c-0.8-0.3-2.8-0.2-2.8-1.4c0-0.9,1.1-0.9,2.2-0.9c-0.3-0.4,0-1,0-1.5c0-1-1-1.5-1-3c-1,0-2.2,0-2.2-1.2
				c0-0.5,0.6-1,1.4-1c1.3,0,4.9,0.6,4.9-1c0-1.7-2.7-1.3-3-2.4c0.4,0,0.9-0.2,1.3-0.4c-0.7-0.6-1.7-1.3-2.8-1.3
				c-0.8,0-1.3,0.3-2.1,0c0.4-0.7,0.3-2.4,1.2-3c1.3-1,2.8-1.5,2.8-2.9c0-0.3,0.1-0.3,0-1c1.3-0.4,3.1-0.6,3.1-1.7
				c0-0.7,0.5,0.1,0-0.9c1.3-0.3,3.1-0.3,3.1-2.2c-0.6,0.4-0.6,0.4-1.5,0c3.1,0,4.6-2,6.9-2.8c0.4-0.1,1.7-0.8,1.7-1.6
				c0-0.9-3.3-2.7-4.2-2.7c-0.7,0-1.2,0.6-1.4,0.6h-3.3c-1.1,1-1.3,0.8-2.6,1.3c-0.3,0.1-1.6-0.3-1.6-0.3s-2.9,0-4.7,0
				c-1.1,1-4.6,5.8-6.4,6.2c0.2-0.7,4.7-5.3,4.7-5.9c0-1-0.5-2-1.7-2c-2.3,0-6.4,4-8.2,4c-0.6,0,2.5-2.9,2.6-3.5
				c-1.3-0.5-12.9,0.9-14.1,0l15.3-0.8c1.9-0.7,6.6-0.3,7-2.8c-1.7-0.4-4.2,0.1-6.1-0.6c-3.3-1.4-6.3-4-10.4-4c-3.5,0-6.2,0-10.1,0
				c-3.5,0-5.9,1.9-9.2,1.9c-1,0-2.4-0.2-2.4-0.1v1.3h-2.2c-1.5,0-2.6-0.7-4.3-0.7c-2.3,0-4,0.4-5.9,1.3c0.3,0.5,0.9,0.5,1.4,1
				c-0.6,0.1-2.8-0.2-2.8,0.8c0,1.3,2.9,1.7,4,2.8h-3.1c-1.7-1-3.4-2.4-6.3-2.4c-0.7,0-1.7,0.1-1.7,0.9c0,0.6,0.3,0.5,0.6,1.5
				c0,0-0.7,0-1,0c-1.4-1-2.6-0.4-3.3-1.8l-0.7,0.7c0,0.5,0.4,0.9,0.4,1.4c-1.3,0-1.7-2.1-2.9-2.1c-1.9,0-3.3,1.1-5.2,1.6
				c-2.6,0-3.7,0.7-6.5,1c-2.2,0.3-0.3,3.5-2.8,3.5c-0.7,0-1.3-0.1-1.8-0.6c-1.4,1.4-4.5,3.1-6.9,3.8c-0.3,0.1-1.4,0.4-1.4,1
				c0,1.3,4,1.3,5.2,1.4c0,1.7-0.8,3-1.9,3.7c-1.5,0.9-4-0.1-5.9,0.5c-1.3,0.4-2.1,1.2-3.3,1.6c-1.5,0.5-4-0.3-4,1.9
				c0,1.1,6.7,3,7,3c0.9,0,1.3,0,2.4,0c0.3,0,0.6,0,0.7,0h2.8c-0.2,0-0.2,1-0.9,1h-4c-0.3,0-0.6,1-1.3,1c-0.5,0-1,0-1.7,0
				c-0.6,0-1.9,0.1-2.1,1.1c1.3,0.5,0.9-0.2,2.4-0.2c0.8,0,1.7,0.7,2.8,1.1c-0.3,0.6-0.8,0.7-1.4,1.1c0.8,1,3.1,1.6,4.5,1.6
				c0.6,0,0.5,0.2,0.9-0.2c-0.2-0.1-0.5-0.4-0.7-0.6c0.3-0.1,0.6-0.3,1.4-0.3c0.8,0,1.5,1,2.1,1c0.9,0,1.3-0.5,2.2-0.5
				c0.6,0,0.9,0,2.1,0c7.8,0,13.2,5.2,14.2,11.2v1c2.1,0.1,1.9,0.1,1.9,1.2c0,1.6-1.4,1.5-1.4,3c0,1,0.7,1.2,1.9,1.2
				c0.9,0,1.1-1.2,1.8-1.2c2.3,0,2.9,3.3,5.1,4c-0.1,0.4,0,1-0.7,1c-1.7,0-2.7-1-4.2-1c-0.6,0-0.6-0.3-1.2,0c0.3,1.9,5.4,2.3,7.5,3
				c-0.6,1.9-1.9,2.6-2.3,4.7c-1-0.4-1.1-0.3-2.2,0.1v0.1c-2.1,1.1-2.1,2.5-3.1,3.8v1.6c0-0.4,1.3-0.3,1.8,0c-0.2,0.7-0.5,1-0.5,1.7
				c0,1.9,2,2.6,2.4,4c0.2,0.7,0.5,2,0.7,2.3c1.2,0.6,1.6-1.1,2.6,0.2c-0.5,0.5-1,0.4-1,1.3c0,2,2.6,5.1,4,6.3
				c0.2,0.1,0.1,1.1,0.5,1.4c1.1,0.8,1.8,0.3,2.3,1.9c0.8-0.1,2-0.9,2.9-0.9c1.7,0,1.6,3.1,3.3,3.1c0.4,0,0.6-0.4,1.4-0.5
				c0.1,0.4,0.3,0.7,0.8,0.7c1.9,0,1-3.6,2.6-4.4c-0.1-0.8,0-2.6,0-3.8c0-2,3.3-1.3,3.3-3.6c0-0.8-0.8-1.1-0.8-1.6
				c0-0.3,0.3-0.6,0.5-0.8c0-0.2-0.1-0.5-0.1-0.7c0-2.3,4.2-1.7,5.6-3.1c0.6-0.6-0.3-1.3,1.8-1.7v1.7h0.2c1.5-1,3.8-0.8,5.2-2.2
				c1-1,1.1-2.5,2.4-3.5l1.7-1.8c0-0.6,0.7-1.7,1.4-1.7h3.3c2.6-1,4.7-0.4,7.2-1.2c2-0.6,2.7-2.3,5-3.1
				C339.8,132.6,340.5,132.8,341.6,131.9z"/>
			<path class="st3" d="M278.3,135.2h1.5c1.2,0,2.6-0.3,2.8-1.5c-1.8-0.6-2.4-2.5-4.2-2.5c-0.6,0-1.5,0.4-1.5,1.5
				C276.9,133.5,277.7,135.2,278.3,135.2z"/>
			<path class="st3" d="M348.7,111.5c-0.2,0-0.7,0.6-0.7,1s0.4,0.5,0.9,0.5c0.7,0,1.9,0.5,2.2-1.6h-1.7L348.7,111.5L348.7,111.5z"/>
			<path class="st3" d="M275.6,189.4c0-0.3-0.3-0.7-0.6-0.7c-1.1,0-1.6,1.2-2.1,2.1c-1,1.6-2.3,4.7-4.2,5.7c0.1,0.2,0.1,0.4,0.1,0.4
				v0.4c0,0.1-0.8,1-0.8,1.3c0,0.2,0.6,0.7,0.9,0.7c0.8,0,1.2-0.4,2.3-0.4c0.8,0,1.2,0.5,2.1,0.5c0.5,0,0.9-0.1,1.4-0.3
				c0.3,0.7,1.3,0.3,2,0.3c-0.2,0.4-0.8,0.1-0.8,1.1c0,0,0.3,0,0.4,0c0.8,0,1.5-1.1,2-1.9c0.6,0.6,0.1,1.9,0.7,1.9
				c0.2,0,0.3,0.1,0.6,0.1c0,0.3,0.1,0.8,0.6,0.8c0.7,0,1.1-0.8,1.1-1.7c0-0.7-0.5-0.6-0.5-1.5c-0.4,0.3-0.2,0.4-0.9,0.4
				c0-0.5-0.5-0.8-0.5-1.1s0.6-0.4,0.7-1c-0.3,0-0.6,0.1-0.8,0.2c0-1,0.1-1.7,0.1-2.3c-0.3,0.2-1,0.2-1.8,0l-0.6,0.3v-0.5h-2.1v-0.5
				l0.5-0.3c-0.3-0.3-0.4-0.4-0.8-0.4c-0.5,0-0.7,0.4-0.7,0.6V193C273.9,191.7,275.6,190.9,275.6,189.4z"/>
			<path class="st3" d="M660.1,113.6c0.7,0,1-0.6,1.5-1c0.4,0.4,0.6,0.7,1.3,0.7s1.1-0.6,1.5-0.6c0.6,0,0.8-0.5,1.4-0.5
				c0.5,0,0.8,0.3,1.3,0.3c0.8,0,1.2-1.1,1.7-1.1h1.9c0,0,1-0.9,1.3-1.9c-1.5-0.4-5.6-1.7-6.8-1.7c-0.8,0-1.2,0.9-1.2,2
				c-1.9,0-2-2.2-4.2-2.2c-1.5,0-3.1,1.2-3.1,2.8C656.6,112.2,658.3,113.6,660.1,113.6z"/>
			<path class="st3" d="M225.2,185.9c0.1,0,0.3,1,0.3,0c0,0-1.2-1.2-2.4-1.2c0.1,0.1,0.1,0.3,0,0.5
				C223.6,185.6,224.6,185.9,225.2,185.9z"/>
			<path class="st3" d="M134.9,194.8c1.1,0.7,3.5,2.5,5.1,2.5c0.2,0,0.5,0,0.5,0v-0.5c-1-1.8-3.4-3.5-6.4-4.4
				c-0.5-0.1-1.1-0.8-1.8-0.8c-0.3,0-0.7,0.6-0.9,0.6h0.2c0,0,0.7,0,1,0.1c-0.1,0.2-0.3,0.4-0.7,0.5c0.3,0.8,2.2,1.5,3.6,1.5
				C135.4,194.3,135,194.3,134.9,194.8z"/>
			<path class="st3" d="M124.4,185.3c0-0.4-0.3-0.5-0.3-0.8c0-0.7,0.1-1.1,0-1.5c-0.1,0.3-0.4,0.9-0.9,0.9c-0.4,0,0.4-0.8,0.4-0.8
				c-0.6-0.1-0.6-0.5-1.6-0.5v0.6c1,0.4,0.6,1.2,0.9,1.2c0.4,0,0.6,0.8,1.1,0.9c0,0.1-0.3,0.4-0.3,0.8c0,0.6,0.4,1.3,1,1.3
				c0.7,0-0.6-1-0.6-1.3C124.1,185.8,124.4,185.6,124.4,185.3z"/>
			<path class="st3" d="M79.5,173.1v0.8c1,0.3,0.8,0.4,1.4,0.9c1-0.8,1.7-1.3,2.7-2v-0.4c0,0-0.3,0-0.8,0
				C81.6,172.5,80.6,172.8,79.5,173.1z"/>
			<path class="st3" d="M415.3,221.7c-1-0.2-1.7,0.5-2.6,0.5c-1,0-1.3-0.9-3.3-0.2v0.5c0,0.3,1,0.3,1.2,0.3c1.1,0.3,2.1,1.5,3.3,1.8
				c0,0.2,0.4,0.3,0.6,0.3s0.4-0.3,0.4-0.5c0-0.6-0.3-0.6-0.3-1.1c0-0.3,0.4-0.8,0.4-0.8L415.3,221.7z"/>
			<path class="st3" d="M403.5,213.9c0.2-0.4,0.4-1.9,0.6-2.8c-0.2-0.1-0.3-0.4-0.3-0.8c-0.3,0.1-0.6,0.7-1.1,0.7
				c-0.1,0-0.3,0.1-0.5,0.1C402.6,211.8,402.8,213.8,403.5,213.9z"/>
			<path class="st3" d="M402.5,216.8c0,0.5-0.3,0.8-0.4,1.4c0,0.6,0,1.5,0.7,1.5c0.6,0,1.8-1,1.8-1.9c0-1.1,0.2-1.7-0.4-2.8
				c-0.2,0-0.4-0.4-0.9-0.4c-0.6,0-0.7,0.7-1.5,0.9C401.9,215.9,402.5,216.2,402.5,216.8z"/>
			<path class="st3" d="M392.1,218.3c0-0.2-0.3-0.6-0.3-0.8c-0.4,0.1-0.7,0.3-1.1,0.5c0.1,0.1,0.6,0.6,0.9,0.6
				C391.7,218.7,392.1,218.5,392.1,218.3z"/>
			<path class="st3" d="M406.6,179c0-0.7-0.3-1.4-0.3-1.4h-1.1c0,0,0,0.4,0,0.6c0,0.7,0,0.9,1,0.9c0,0.2,0,0.3,0,0.6
				C406.2,179.4,406.6,179.5,406.6,179z"/>
			<path class="st3" d="M407.6,179.6l-0.1-0.3c-0.1,0.1-0.3,0.2-0.3,0.4c0.1,0.1,0.5,0.4,1,0.4c1.5,0,1-2.4,2.2-2.8
				c-0.3-1.2-0.4-1.8-1.8-1.8c-0.5,0-1.3,1.8-1.3,2.1c0,0.4,0.8,1,1.5,1.1C408.6,179.1,408.1,179.6,407.6,179.6z"/>
			<path class="st3" d="M422.6,170.5c-1.2,0.1-1.6,1.3-1.6,1.7c0,0.3-0.2,0.6,0,0.9c0.5-0.6,1-1,1-1.7
				C422,171,422.4,170.7,422.6,170.5z"/>
			<path class="st3" d="M428.3,170.1c0.3,0,0.6-0.5,0.6-0.7c0-0.3,0-0.6,0-0.8c0-0.1,1-0.6,1.1-0.9c-0.3-0.1-0.2-0.3-0.5-0.7
				c0,0-0.5,0.4-0.5,0.7c0,0.4,0.3,0.6,0.6,0.8c-0.6,0.1-1.2,0.5-1.8,0.6C427.9,169.5,427.7,170.1,428.3,170.1z"/>
			<path class="st3" d="M436.8,228.4c-1.2-0.3-2.8-0.7-4.4-0.4c0.8,0.4,2.1,0.6,2.6,0.6C435.6,228.5,435.9,228.9,436.8,228.4z"/>
			<path class="st3" d="M453.3,227.1c-1.2,0.2-3,0.9-4,1.4c0,0.1,0.2,0.3,0.4,0.3c0,0.2,0.3,0.4,0.5,0.4c0.6,0,1.9-0.4,2.2-0.8
				c0.1-0.2-0.1-0.6,0.1-0.7C452.8,227.6,453.1,227.8,453.3,227.1z"/>
			<path class="st3" d="M491.2,277c0.6,0,1.1-0.6,1.3-0.8c-0.9,0-1.4,0.1-2,0.3C490.5,276.9,491,277,491.2,277z"/>
			<path class="st3" d="M480.7,134.3c-0.1,0-0.9,1.3-0.9,1.6c0,0.7,0.3,0.8,1.2,0.8c1.2,0,1.8-0.7,2.8-1.2v-0.9c-1-0.1-1.4-1-2.4-1
				C481.1,133.6,481,134.3,480.7,134.3z"/>
			<path class="st3" d="M500.6,131.4c0,0.8,1.5,1.7,2.4,1.7c0,0,0.9,0.1,0.9-0.3C504,131.4,500.6,130,500.6,131.4z"/>
			<path class="st3" d="M526,120.2c-0.7-0.6-1-1.3-1.8-1.3c-0.6,0-1.1,0.8-1.1,1.4c0,0.2,0,0.7,0,0.7
				C524.1,120.9,525.7,120.5,526,120.2z"/>
			<path class="st3" d="M667.2,119.7h2.1c-0.1-1-1.5-2.9-3.3-2.9c-1.6,0-2.5,0.9-3.3,2l0.3-0.3C664.3,119.1,665.9,119.7,667.2,119.7
				z"/>
			<path class="st3" d="M680.9,113.4c1.1,0,3.1-0.3,3.1-1c0-0.3-0.3-0.7-0.7-0.7c-0.3,0-7.6-0.9-8.2-1.4l0.7,0.6
				C675.9,112.6,679.1,113.4,680.9,113.4z"/>
			<path class="st3" d="M664.4,115.9c0-1-1.9-1.1-1.9,0c0,0.6,0.1,0.9,0.8,0.9C663.8,116.8,664.4,116.4,664.4,115.9z"/>
			<path class="st3" d="M263.1,195c-1.5-0.8-2.8-2.2-4.9-1.7c0.8,0.6,2.8,2.1,4,2.1C262.7,195.4,262.9,195.4,263.1,195z"/>
			<path class="st3" d="M258.8,201.1c-0.1,0.1-0.3,0.2-0.3,0.4c0,0.5,2.6,1.7,3.1,1.7c0.1,0,0.9-0.4,0.9-0.8c0-0.1,0,0.1,0,0.1h-2.2
				C259.6,202.4,259.2,201.8,258.8,201.1z"/>
			<path class="st3" d="M266.7,203.1c0-0.1,0-0.3,0-0.5c-1,0-0.5-0.4-0.5-1c0-0.3-0.3-0.4-0.4-0.7c-0.6,0.2-1.6,1.9-1.6,2.4
				c0,0.4,0.4,0.8,1,0.8C266,204,266.7,203.6,266.7,203.1z"/>
			<path class="st3" d="M56.8,164.9c-0.6,0-0.8-0.7-1,0.3h-1c0.1,0,0.6,0,0.8,1h2.3C57.7,165.2,57.6,164.9,56.8,164.9z"/>
		</g>
	</g>
</g>
<rect x="440" y="137.5" class="st0" width="41.9" height="2"/>
<path class="st0" d="M478.8,144.5v-11.8l8.5,5.9L478.8,144.5z"/>
<path class="st0" d="M363.7,144.5v-11.8l8.5,5.9L363.7,144.5z"/>
<line class="st4" x1="346.3" y1="137.8" x2="346.3" y2="43.4"/>
<path class="st0" d="M346.3,53c6.9,0,12.5-5.6,12.5-12.5S353.2,28,346.3,28c-6.9,0-12.5,5.6-12.5,12.5C333.8,47.3,339.5,53,346.3,53
	z"/>
<text transform="matrix(1 0 0 1 336.9184 42.8781)" class="st5 st6 st7">2011</text>
<line class="st4" x1="225.8" y1="137.8" x2="225.8" y2="43.4"/>
<path class="st0" d="M225.8,53c6.9,0,12.5-5.6,12.5-12.5S232.7,28,225.8,28s-12.5,5.6-12.5,12.5C213.3,47.3,218.9,53,225.8,53z"/>
<text transform="matrix(1 0 0 1 216.3331 42.8781)" class="st5 st6 st7">2008</text>
<ellipse class="st8" cx="291.3" cy="139.4" rx="26.9" ry="26.9"/>
<path class="st9" d="M291.3,105.8c-18.6,0-33.6,15-33.6,33.6s15,33.6,33.6,33.6s33.6-15,33.6-33.6S309.9,105.8,291.3,105.8z
	 M291.3,166.3c-14.9,0-26.9-12-26.9-26.9c0-14.9,12-26.9,26.9-26.9s26.9,12,26.9,26.9C318.2,154.3,306.2,166.3,291.3,166.3z"/>
<ellipse class="st0" cx="406.4" cy="139.4" rx="33.6" ry="33.6"/>
<ellipse class="st10" cx="406.3" cy="139.4" rx="26.9" ry="26.9"/>
<ellipse transform="matrix(0.1735 -0.9848 0.9848 0.1735 293.7324 628.8043)" class="st0" cx="521.5" cy="139.4" rx="33.6" ry="33.6"/>
<ellipse transform="matrix(7.710541e-02 -0.997 0.997 7.710541e-02 342.3762 648.6845)" class="st10" cx="521.6" cy="139.4" rx="26.7" ry="26.7"/>
<text transform="matrix(1 0 0 1 265.481 142.0931)" class="st0 st6 st11">Res</text>
<text transform="matrix(1 0 0 1 283.281 142.0931)" class="st0 st6 st11"> </text>
<text transform="matrix(1 0 0 1 283.281 142.0931)" class="st0 st6 st11">404/08</text>
<text transform="matrix(1 0 0 1 381.0902 142.0931)" class="st0 st6 st11">Res</text>
<text transform="matrix(1 0 0 1 398.8903 142.0931)" class="st0 st6 st11"> </text>
<text transform="matrix(1 0 0 1 398.8903 142.0931)" class="st0 st6 st11">441/11</text>
<text transform="matrix(1 0 0 1 495.6996 142.0931)" class="st0 st6 st11">Res</text>
<text transform="matrix(1 0 0 1 513.4995 142.0931)" class="st0 st6 st11"> </text>
<text transform="matrix(1 0 0 1 513.4995 142.0931)" class="st0 st6 st11">446/11</text>
</svg>
