<?xml version="1.0" encoding="utf-8"?>
<!-- Generator: Adobe Illustrator 22.0.1, SVG Export Plug-In . SVG Version: 6.00 Build 0)  -->
<svg version="1.1" xmlns="http://www.w3.org/2000/svg" xmlns:xlink="http://www.w3.org/1999/xlink" x="0px" y="0px"
	 viewBox="0 0 463.7 383.3" style="enable-background:new 0 0 463.7 383.3;" xml:space="preserve">
<style type="text/css">
	.st0{fill:url(#SVGID_1_);}
	.st1{enable-background:new    ;}
	.st2{clip-path:url(#SVGID_3_);}
	.st3{fill:url(#SVGID_4_);}
	.st4{fill:url(#SVGID_5_);}
	.st5{fill:url(#SVGID_6_);}
	.st6{fill:url(#SVGID_7_);}
	.st7{fill:#808080;}
	.st8{fill:url(#SVGID_8_);}
	.st9{fill:url(#SVGID_9_);}
	.st10{fill:#86839A;}
	.st11{fill:#FFFFFF;}
	.st12{fill:url(#SVGID_10_);}
	.st13{fill:none;}
	.st14{fill:#3A395B;}
	.st15{font-family:'Open Sans';}
	.st16{font-size:10px;}
	.st17{fill:none;stroke:#1B1464;stroke-width:0.5;stroke-miterlimit:10;}
	.st18{fill:#1B1464;}
	.st19{fill:#836CB0;}
	.st20{font-family:'Lato-Black';}
	.st21{font-size:40.4731px;}
	.st22{fill:#BA469D;}
	.st23{fill:#E98700;}
</style>
<g id="BACKGROUND">
</g>
<g id="OBJECTS">
	<g>
		<linearGradient id="SVGID_1_" gradientUnits="userSpaceOnUse" x1="317.0461" y1="196.6047" x2="421.8855" y2="88.6819">
			<stop  offset="0" style="stop-color:#7A4500"/>
			<stop  offset="0.3807" style="stop-color:#C66300"/>
			<stop  offset="1" style="stop-color:#E4B900"/>
		</linearGradient>
		<path class="st0" d="M396,57.4l-97.3,71.3l21.7,2.5c0,0-0.1,0-0.1,0c-0.5,0.1-0.7,1.5-0.8,2.1c-1.7,5.1-3.5,10.2-5.4,15.2
			c-4.2,11.2-8.9,22.4-14.5,33c-2.7,5.2-5.6,10.3-9.1,15.1c-2.9,4.1-6.3,8.4-10.7,10.9c-1.7,1-3.7,1.6-5.7,1.3
			c6,0.8,11.9,1.6,17.9,2.5c12.6,1.7,25.1,3.5,37.7,5.2c11.1,1.5,22.2,3.1,33.3,4.6c2.5,0.3,5,0.7,7.5,1c6.1,0.8,11.1-4.6,14.6-9
			c7.2-8.9,12.6-19.5,17.3-29.9c4.7-10.3,8.9-20.8,12.7-31.5c0.9-2.4,1.7-4.8,2.5-7.2c0.6-1.9,1.3-3.8,1.9-5.7l23.8,4.2L396,57.4z"
			/>
		<g class="st1">
			<defs>
				<path id="SVGID_2_" class="st1" d="M369.6,231.2l-96.7-13.9c-2.7-0.4-4.8-1.6-6.5-3.3c-1.7-1.7-2.9-4.1-3.7-6.7
					c-0.9-2.7-1.5-5.7-1.9-8.8c-0.4-3.1-0.7-6.4-0.9-9.5c-0.3-4-0.7-7.6-1.1-10.8c-0.5-3.2-1-6-1.9-8.3c-0.8-2.3-1.9-4.1-3.4-5.5
					c-1.4-1.3-3.3-2.1-5.5-2.4l95.6,10c2.4,0.3,4.3,1.1,5.8,2.5c1.5,1.4,2.6,3.4,3.5,5.8c0.9,2.5,1.5,5.4,2,8.9
					c0.5,3.4,0.8,7.3,1.1,11.6c0.3,3.4,0.5,6.9,1,10.2c0.4,3.3,1,6.6,2,9.4c0.9,2.8,2.2,5.3,3.9,7.2
					C364.5,229.5,366.7,230.7,369.6,231.2z"/>
			</defs>
			<clipPath id="SVGID_3_">
				<use xlink:href="#SVGID_2_"  style="overflow:visible;"/>
			</clipPath>
			<g class="st2">
				<linearGradient id="SVGID_4_" gradientUnits="userSpaceOnUse" x1="247.9615" y1="196.5363" x2="369.5984" y2="196.5363">
					<stop  offset="0.3706" style="stop-color:#6A3A5E"/>
					<stop  offset="0.7942" style="stop-color:#A1588F"/>
					<stop  offset="0.9949" style="stop-color:#BD67A8"/>
				</linearGradient>
				<path class="st3" d="M369.6,231.2l-96.7-13.9c-2.7-0.4-4.8-1.6-6.5-3.3c-1.7-1.7-2.9-4.1-3.7-6.7c-0.9-2.7-1.5-5.7-1.9-8.8
					c-0.4-3.1-0.7-6.4-0.9-9.5c-0.3-4-0.7-7.6-1.1-10.8c-0.5-3.2-1-6-1.9-8.3c-0.8-2.3-1.9-4.1-3.4-5.5c-1.4-1.3-3.3-2.1-5.5-2.4
					l95.6,10c2.4,0.3,4.3,1.1,5.8,2.5c1.5,1.4,2.6,3.4,3.5,5.8c0.9,2.5,1.5,5.4,2,8.9c0.5,3.4,0.8,7.3,1.1,11.6
					c0.3,3.4,0.5,6.9,1,10.2c0.4,3.3,1,6.6,2,9.4c0.9,2.8,2.2,5.3,3.9,7.2C364.5,229.5,366.7,230.7,369.6,231.2"/>
			</g>
		</g>
		<linearGradient id="SVGID_5_" gradientUnits="userSpaceOnUse" x1="244.5672" y1="282.3043" x2="258.9237" y2="153.9668">
			<stop  offset="0" style="stop-color:#66007D"/>
			<stop  offset="0.1503" style="stop-color:#6B067F"/>
			<stop  offset="0.3456" style="stop-color:#781686"/>
			<stop  offset="0.5656" style="stop-color:#8F3190"/>
			<stop  offset="0.8021" style="stop-color:#AE569F"/>
			<stop  offset="0.9036" style="stop-color:#BD68A6"/>
			<stop  offset="1" style="stop-color:#D8A6CA"/>
		</linearGradient>
		<path class="st4" d="M288.8,235.7c5.7-12,11.3-24,17.5-35.7c2.9-5.4,5.9-10.7,9.3-15.8c3.4-5.1,7-10,11.5-14.2
			c4.6-4.2,10.4-7.8,16.8-7.2c-2.1-0.2-4.3-0.4-6.4-0.6c-5.4-0.5-10.8-1.1-16.3-1.6c-7.2-0.7-14.4-1.4-21.5-2.1
			c-7.4-0.7-14.8-1.5-22.3-2.2c-6.1-0.6-12.3-1.2-18.4-1.8c-3.3-0.3-6.7-0.7-10-1c-7.9-0.8-14.6,4.1-19.7,9.7
			c-8.8,9.6-15,21.5-20.9,33c-6.5,12.7-12.3,25.7-18.8,38.4c-3,5.9-6.1,11.8-9.7,17.5c-3.3,5.3-7.1,11.2-12.4,14.8
			c-2.3,1.5-4.8,2-7.5,1.5c0,0,0,0,0,0c4.9,1,9.8,1.9,14.7,2.9c10.6,2.1,21.2,4.2,31.8,6.3c10.4,2.1,20.8,4.1,31.2,6.2
			c3.3,0.7,6.6,1.3,9.8,2c1.7,0.3,3.5,0.8,5.3,0.9c3.5,0.1,6.7-2.4,9-4.7c3.3-3.3,6.1-7.3,8.6-11.2c5.6-8.8,10.2-18.1,14.8-27.5
			C286.5,240.7,287.6,238.2,288.8,235.7C289.7,233.8,288.5,236.4,288.8,235.7z"/>
		<linearGradient id="SVGID_6_" gradientUnits="userSpaceOnUse" x1="123.6735" y1="250.2719" x2="248.4481" y2="250.2719">
			<stop  offset="5.076140e-03" style="stop-color:#320C7C"/>
			<stop  offset="1" style="stop-color:#745AA6"/>
		</linearGradient>
		<path class="st5" d="M238.6,289.9c-2.5-2.6-4.3-6-5.7-9.8c-1.4-3.8-2.3-8.1-2.9-12.5c-0.7-4.4-1.1-9-1.5-13.4
			c-0.5-5.1-1-9.8-1.6-14c-0.7-4.1-1.5-7.7-2.6-10.8c-1.1-3-2.6-5.5-4.5-7.3c-1.9-1.8-4.4-3-7.4-3.4l-88.7-13.5
			c2.9,0.4,5.2,1.5,7,3.2c1.8,1.7,3.2,4,4.3,6.8c1.1,2.8,1.9,6.2,2.5,10c0.6,3.9,1.1,8.2,1.6,13c0.4,4.1,0.8,8.4,1.4,12.5
			c0.6,4.1,1.5,8.1,2.8,11.7c1.3,3.6,3,6.7,5.4,9.1c2.4,2.4,5.4,4.2,9.3,5l90.4,18.6C244.3,294.4,241.2,292.6,238.6,289.9z"/>
		<g>
			<linearGradient id="SVGID_7_" gradientUnits="userSpaceOnUse" x1="289.3035" y1="299.0536" x2="242.0592" y2="177.8618">
				<stop  offset="0" style="stop-color:#464465"/>
				<stop  offset="0.4873" style="stop-color:#9897A9"/>
				<stop  offset="0.4975" style="stop-color:#D9D9DF"/>
				<stop  offset="1" style="stop-color:#9897A9"/>
			</linearGradient>
			<path class="st6" d="M419.4,138.9c2.1,0.8,4.2,1.7,6.3,2.5c0.2,0.1,0.8,0.2,0.9,0.4c0.2,0.3-0.5,1.7-0.6,2.1
				c-0.6,1.9-1.3,3.9-1.9,5.8c-3.5,10.2-7.3,20.3-11.5,30.2c-4.4,10.3-9.3,20.4-15.2,29.8c-2.6,4.1-5.5,8.2-8.8,11.8
				c-3.3,3.7-7.2,7.2-11.9,8.9c-4,1.4-8.7,1.2-12.2-1.3c-3.9-2.9-5.6-8-6.6-12.5c-2.3-10.7-1.5-21.8-3.9-32.5c-1-4.3-2.7-9.2-7-11.2
				c-4.5-2.1-9.1-0.4-12.8,2.4c-4,3.1-7.2,7.2-10.1,11.3c-3.1,4.4-5.9,9-8.5,13.7c-11.1,20-19.8,41.3-30.4,61.5
				c-4.9,9.3-10.1,19-17.6,26.5c-3.3,3.4-7.4,6.4-12.2,7.3c-4.5,0.8-9.6-0.4-13.4-2.9c-8.6-5.5-10.8-17-12.1-26.4
				c-1.5-10.8-1.5-21.8-4.2-32.4c-1.1-4.4-2.8-9.1-6.4-12.1c-3.3-2.8-8-3.7-12.2-3c-9.3,1.4-16.9,9.3-22.7,16.1
				c-6.6,7.8-12.1,16.4-17.2,25.1c-5.7,9.9-10.9,20.1-15.7,30.4c-9.3,19.9-17.5,40.5-24.7,61.2c-1.4,3.9-2.7,7.8-3.9,11.8
				c-2.1-0.7-4.2-1.4-6.4-2.1c-0.4-0.1-1.6-0.3-1.7-0.7c-0.1-0.2,0.3-0.9,0.4-1.1c0.3-1,0.6-1.9,0.9-2.9c3.1-9.3,6.4-18.4,9.9-27.6
				c8.1-21.3,17.1-42.4,27.8-62.6c4.9-9.3,10.2-18.4,16.2-27c5.8-8.3,12.3-16.3,20.3-22.5c8-6.1,18-9.9,27.9-6.4
				c9.7,3.4,13.9,13.1,15.9,22.4c2.4,10.9,2.4,22.1,4.1,33c1.3,8.6,4.2,21,15.3,20.5c4.6-0.2,8.4-4.5,11.1-7.8
				c3.4-4.1,6.3-8.7,8.9-13.3c5.8-9.9,10.7-20.3,15.6-30.7c5-10.4,9.8-20.9,15.2-31.2c5.1-9.7,10.5-19.6,17.5-28
				c6.2-7.4,14.7-14.6,25-12.2c10.4,2.4,13.9,13.3,15.4,22.6c0.9,5.7,1.2,11.5,1.7,17.2c0.4,4.5,0.8,9.2,2.1,13.6
				c0.5,1.7,1.2,3.8,2.9,4.8c2,1.2,4.7,0.6,6.6-0.3c4.4-2.1,7.8-6.2,10.7-10c6.6-8.7,11.6-18.7,16.1-28.6
				c4.7-10.3,8.9-20.9,12.7-31.6C416.7,147.1,418.1,143,419.4,138.9z"/>
		</g>
		<g>
			<polygon class="st7" points="123.9,352.1 40.4,328.3 32.7,325.9 115.8,349.5 			"/>
		</g>
		<linearGradient id="SVGID_8_" gradientUnits="userSpaceOnUse" x1="110.2666" y1="366.8745" x2="135.9393" y2="173.6975">
			<stop  offset="0" style="stop-color:#251979"/>
			<stop  offset="0.8122" style="stop-color:#5F4C9B"/>
			<stop  offset="0.8426" style="stop-color:#715AA5"/>
			<stop  offset="1" style="stop-color:#FFFFFF"/>
		</linearGradient>
		<path class="st8" d="M124.9,196.7c-8.2-1.2-16,2.2-22.4,7.2c-7.5,5.7-13.6,13.2-19,20.9C72,240.9,63,258.9,55,277
			c-7.9,17.7-14.9,35.8-21.2,54.1c-0.6,1.8-1.2,3.6-1.8,5.5c-0.2,0.5-0.2,0.4,0,0.6c0.3,0.3,1.4,0.4,1.8,0.5
			c2.8,0.8,5.6,1.6,8.4,2.4c9.6,2.7,19.2,5.5,28.7,8.2c10,2.9,20.1,5.7,30.1,8.6c3.4,1,6.7,1.9,10.1,2.9c0.9,0.3,1.9,0.5,2.8,0.8
			c0.2,0.1,0.8,0.4,1,0.3c0.3-0.1,0.7-2,0.8-2.4c0.3-1,0.6-1.9,1-2.9c0.7-2.1,1.4-4.3,2.2-6.4c1.5-4.4,3.1-8.7,4.7-13
			c3.4-9.3,7-18.5,10.8-27.7c7.9-19.1,16.7-37.9,27.3-55.7c5.1-8.6,10.7-17,17.2-24.5c6-6.9,13-13.6,21.6-17
			c4.3-1.7,8.8-2.3,13.4-1.7c-2.9-0.4-5.9-0.9-8.8-1.3c-7.1-1-14.2-2.1-21.2-3.1c-8.5-1.2-17.1-2.5-25.6-3.7
			c-7.4-1.1-14.8-2.1-22.2-3.2c-3.6-0.5-7.2-1-10.8-1.6C125,196.7,124.9,196.7,124.9,196.7z"/>
		<linearGradient id="SVGID_9_" gradientUnits="userSpaceOnUse" x1="432.6788" y1="58.0435" x2="415.7186" y2="149.0119">
			<stop  offset="0.5025" style="stop-color:#D9D9DF"/>
			<stop  offset="1" style="stop-color:#464465"/>
		</linearGradient>
		<polygon class="st9" points="453,146.7 405.5,61.5 396,57.4 443.2,143.1 		"/>
		<polygon class="st10" points="419.4,138.9 426.6,141.8 453,146.7 442.9,143.1 		"/>
		<g>
			<path class="st11" d="M126,329.2c3.6-9.8,7.5-19.5,11.5-29.2c4.1-9.6,8.5-19.1,13.2-28.4c4.7-9.3,9.8-18.5,15.5-27.3
				c5.7-8.7,12-17.3,19.8-24.4c3.9-3.5,8.3-6.6,13.1-8.7c4.9-2.1,10.3-3,15.6-2c2.6,0.5,5.2,1.4,7.4,2.8c2.3,1.4,4.2,3.3,5.8,5.4
				c3.2,4.2,5,9.3,6.2,14.4c2.4,10.3,2.6,20.8,3.9,31.1c0.6,5.2,1.4,10.4,3.5,15.2c1.1,2.4,2.5,4.6,4.6,6.2c2.1,1.6,4.7,2.3,7.3,2.2
				c-2.6,0.2-5.3-0.5-7.4-2.1c-2.1-1.6-3.7-3.8-4.8-6.2c-2.2-4.8-3.1-10-3.8-15.2c-1.4-10.4-1.6-20.9-4-31c-1.2-5-3-10-6.2-14.1
				c-1.6-2-3.5-3.8-5.7-5.2c-2.2-1.3-4.6-2.2-7.2-2.7c-5.1-1-10.3,0-15.1,2c-4.8,2-9,5.1-12.8,8.6c-7.8,6.9-14,15.4-19.8,24.1
				c-5.7,8.7-10.8,17.8-15.6,27.1c-4.8,9.3-9.2,18.8-13.4,28.3C133.7,309.8,129.8,319.5,126,329.2z"/>
		</g>
		<g>
			<path class="st11" d="M273.6,265.4c3.9-7,7.5-14.1,10.9-21.4l10.2-21.7c3.4-7.2,6.9-14.4,10.6-21.5c3.7-7.1,7.6-14.1,12.4-20.6
				c2.4-3.2,4.9-6.4,7.8-9.2c2.9-2.8,6.1-5.4,9.9-7c1.9-0.8,3.9-1.3,5.9-1.5c2-0.2,4.1,0,6.1,0.5c4,1,7.5,3.6,9.8,7
				c2.3,3.4,3.7,7.2,4.6,11.1c0.9,3.9,1.4,7.9,1.7,11.9c0.3,4,0.5,8,0.9,12c0.3,4,0.7,8,1.8,11.8c-1.2-3.8-1.7-7.8-2.1-11.8
				c-0.4-4-0.7-8-1.1-11.9c-0.4-4-0.9-7.9-1.9-11.8c-0.9-3.8-2.3-7.6-4.6-10.9c-2.2-3.2-5.6-5.7-9.4-6.6c-1.9-0.5-3.9-0.6-5.8-0.5
				c-1.9,0.2-3.8,0.7-5.6,1.5c-3.6,1.5-6.8,4.1-9.6,6.8c-2.8,2.8-5.3,5.9-7.6,9.1c-4.7,6.4-8.6,13.4-12.4,20.5
				c-3.8,7.1-7.2,14.2-10.7,21.4C288.5,237.1,281.8,251.7,273.6,265.4z"/>
		</g>
		
			<radialGradient id="SVGID_10_" cx="334.6581" cy="-5845.5312" r="47.6727" gradientTransform="matrix(-0.3483 0.8452 -6.920000e-02 -2.850000e-02 114.6104 -272.0248)" gradientUnits="userSpaceOnUse">
			<stop  offset="0" style="stop-color:#FFFFFF"/>
			<stop  offset="2.542749e-02" style="stop-color:#E1E1E1"/>
			<stop  offset="6.966468e-02" style="stop-color:#B2B2B2"/>
			<stop  offset="0.1179" style="stop-color:#878787"/>
			<stop  offset="0.1691" style="stop-color:#636363"/>
			<stop  offset="0.2239" style="stop-color:#444444"/>
			<stop  offset="0.2836" style="stop-color:#2B2B2B"/>
			<stop  offset="0.3501" style="stop-color:#181818"/>
			<stop  offset="0.427" style="stop-color:#0A0A0A"/>
			<stop  offset="0.5239" style="stop-color:#020202"/>
			<stop  offset="0.7056" style="stop-color:#000000"/>
		</radialGradient>
		<path class="st12" d="M386,217.7c-1.8-0.8,4.1-19.4,13.3-41.6c9.2-22.2,18.1-39.7,19.9-38.9c1.8,0.8-4.1,19.4-13.3,41.6
			C396.7,201,387.8,218.5,386,217.7z"/>
	</g>
	<g>
		<rect x="74.1" y="126.2" class="st13" width="72.9" height="95.6"/>
		<text transform="matrix(1 0 0 1 74.0845 133.8072)"><tspan x="0" y="0" class="st14 st15 st16">Antes da </tspan><tspan x="0" y="10.3" class="st14 st15 st16">inclusão do </tspan><tspan x="0" y="20.6" class="st14 st15 st16">primeiro </tspan><tspan x="0" y="30.8" class="st14 st15 st16">participante</tspan></text>
		<g>
			<g>
				<line class="st17" x1="73.7" y1="183.6" x2="73.7" y2="285.9"/>
				<g>
					<path class="st18" d="M71.8,183.7c0-1,0.8-1.9,1.9-1.9s1.9,0.8,1.9,1.9c0,1-0.8,1.9-1.9,1.9S71.8,184.7,71.8,183.7z"/>
				</g>
			</g>
		</g>
		<g>
			<text transform="matrix(1 0 0 1 41.1704 155.3867)" class="st19 st20 st21">1</text>
		</g>
	</g>
	<g>
		<g>
			<g>
				<line class="st17" x1="206" y1="122.9" x2="206" y2="205.4"/>
				<g>
					<circle class="st18" cx="206" cy="123" r="1.9"/>
				</g>
			</g>
		</g>
		<rect x="206.3" y="59.6" class="st13" width="90.7" height="95.6"/>
		<text transform="matrix(1 0 0 1 206.3394 67.1905)"><tspan x="0" y="0" class="st14 st15 st16">Durante o </tspan><tspan x="0" y="10.3" class="st14 st15 st16">recrutamento</tspan><tspan x="0" y="20.6" class="st14 st15 st16">e fase de </tspan><tspan x="0" y="30.8" class="st14 st15 st16">acompanhamento </tspan><tspan x="0" y="41.1" class="st14 st15 st16">dos participantes</tspan></text>
		<g>
			<text transform="matrix(1 0 0 1 173.4258 88.769)" class="st22 st20 st21">2</text>
		</g>
	</g>
	<g>
		<g>
			<g>
				<line class="st17" x1="323.8" y1="57.1" x2="323.8" y2="139.6"/>
				<g>
					<path class="st18" d="M321.9,57.2c0-1,0.8-1.9,1.9-1.9s1.9,0.8,1.9,1.9c0,1-0.8,1.9-1.9,1.9S321.9,58.3,321.9,57.2z"/>
				</g>
			</g>
		</g>
		<g>
			<rect x="331.5" y="12.5" class="st13" width="72.9" height="95.6"/>
			<text transform="matrix(1 0 0 1 331.5186 20.0909)"><tspan x="0" y="0" class="st14 st15 st16">Após a última </tspan><tspan x="0" y="10.3" class="st14 st15 st16">visita do último </tspan><tspan x="0" y="20.6" class="st14 st15 st16">participante</tspan></text>
		</g>
		<g>
			<text transform="matrix(1 0 0 1 298.605 41.6695)" class="st23 st20 st21">3</text>
		</g>
	</g>
</g>
<g id="DESIGNED_BY_FREEPIK">
</g>
</svg>
