<?xml version="1.0" encoding="utf-8"?>
<!-- Generator: Adobe Illustrator 22.0.1, SVG Export Plug-In . SVG Version: 6.00 Build 0)  -->
<svg version="1.1" id="Camada_1" xmlns="http://www.w3.org/2000/svg" xmlns:xlink="http://www.w3.org/1999/xlink" x="0px" y="0px"
	 viewBox="0 0 929.5 1080" style="enable-background:new 0 0 929.5 1080;" xml:space="preserve">
<style type="text/css">
	.st0{fill:#D14D4A;}
	.st1{fill:#7AC2FF;}
	.st2{fill:#6E90FF;}
	.st3{fill:#E04AA1;}
	.st4{fill:#F1C44C;}
	.st5{fill:#222442;}
	.st6{font-family:'Open Sans';}
	.st7{font-size:41.7954px;}
</style>
<g>
	<g>
		<path class="st0" d="M206.2,289.5c-0.4,0-0.8-0.2-1.1-0.6c-0.3-0.6-0.1-1.4,0.5-1.7l13-7.5c0.6-0.3,1.4-0.1,1.7,0.5
			c0.3,0.6,0.1,1.4-0.5,1.7l-13,7.5C206.6,289.4,206.4,289.5,206.2,289.5z M232.1,274.5c-0.4,0-0.8-0.2-1.1-0.6
			c-0.3-0.6-0.1-1.4,0.5-1.7l12.9-7.5c0.6-0.3,1.4-0.1,1.7,0.5c0.3,0.6,0.1,1.4-0.5,1.7l-12.9,7.5
			C232.5,274.5,232.3,274.5,232.1,274.5z M258,259.6c-0.4,0-0.8-0.2-1.1-0.6c-0.3-0.6-0.1-1.4,0.5-1.7l12.9-7.5
			c0.6-0.3,1.4-0.1,1.7,0.5c0.3,0.6,0.1,1.4-0.5,1.7l-12.9,7.5C258.4,259.5,258.2,259.6,258,259.6z M283.9,244.6
			c-0.4,0-0.8-0.2-1.1-0.6c-0.3-0.6-0.1-1.4,0.5-1.7l13-7.5c0.6-0.3,1.4-0.1,1.7,0.5c0.3,0.6,0.1,1.4-0.5,1.7l-13,7.5
			C284.3,244.6,284.1,244.6,283.9,244.6z M309.8,229.7c-0.4,0-0.8-0.2-1.1-0.6c-0.3-0.6-0.1-1.4,0.5-1.7l12.9-7.5
			c0.6-0.3,1.4-0.1,1.7,0.5c0.3,0.6,0.1,1.4-0.5,1.7l-12.9,7.5C310.2,229.6,310,229.7,309.8,229.7z M335.7,214.7
			c-0.4,0-0.8-0.2-1.1-0.6c-0.3-0.6-0.1-1.4,0.5-1.7l12.9-7.5c0.6-0.3,1.4-0.1,1.7,0.5c0.3,0.6,0.1,1.4-0.5,1.7l-12.9,7.5
			C336.1,214.7,335.9,214.7,335.7,214.7z M361.6,199.8c-0.4,0-0.8-0.2-1.1-0.6c-0.3-0.6-0.1-1.4,0.5-1.7l13-7.5
			c0.6-0.3,1.4-0.1,1.7,0.5c0.3,0.6,0.1,1.4-0.5,1.7l-13,7.5C362,199.7,361.8,199.8,361.6,199.8z M387.5,184.8
			c-0.4,0-0.8-0.2-1.1-0.6c-0.3-0.6-0.1-1.4,0.5-1.7l13-7.5c0.6-0.3,1.4-0.1,1.7,0.5c0.3,0.6,0.1,1.4-0.5,1.7l-13,7.5
			C387.9,184.8,387.7,184.8,387.5,184.8z M413.4,169.9c-0.4,0-0.8-0.2-1.1-0.6c-0.3-0.6-0.1-1.4,0.5-1.7l12.9-7.5
			c0.6-0.3,1.4-0.1,1.7,0.5c0.3,0.6,0.1,1.4-0.5,1.7l-12.9,7.5C413.8,169.8,413.6,169.9,413.4,169.9z M439.3,154.9
			c-0.4,0-0.8-0.2-1.1-0.6c-0.3-0.6-0.1-1.4,0.5-1.7l12.9-7.5c0.6-0.3,1.4-0.1,1.7,0.5c0.3,0.6,0.1,1.4-0.5,1.7l-12.9,7.5
			C439.7,154.9,439.5,154.9,439.3,154.9z M465.2,140c-0.4,0-0.8-0.2-1.1-0.6c-0.3-0.6-0.1-1.4,0.5-1.7l13-7.5
			c0.6-0.3,1.4-0.1,1.7,0.5c0.3,0.6,0.1,1.4-0.5,1.7l-13,7.5C465.6,139.9,465.4,140,465.2,140z M491,125c-0.4,0-0.8-0.2-1.1-0.6
			c-0.3-0.6-0.1-1.4,0.5-1.7l12.9-7.5c0.6-0.3,1.4-0.1,1.7,0.5c0.3,0.6,0.1,1.4-0.5,1.7l-12.9,7.5C491.5,125,491.3,125,491,125z
			 M516.9,110c-0.4,0-0.8-0.2-1.1-0.6c-0.3-0.6-0.1-1.4,0.5-1.7l12.9-7.5c0.6-0.3,1.4-0.1,1.7,0.5c0.3,0.6,0.1,1.4-0.5,1.7
			l-12.9,7.5C517.4,110,517.2,110,516.9,110z M542.8,95.1c-0.4,0-0.8-0.2-1.1-0.6c-0.3-0.6-0.1-1.4,0.5-1.7l13-7.5
			c0.6-0.3,1.4-0.1,1.7,0.5c0.3,0.6,0.1,1.4-0.5,1.7l-13,7.5C543.3,95,543.1,95.1,542.8,95.1z"/>
		<path class="st1" d="M626.2,990.7c-0.2,0-0.4-0.1-0.6-0.2l-13-7.5c-0.6-0.3-0.8-1.1-0.5-1.7c0.3-0.6,1.1-0.8,1.7-0.5l13,7.5
			c0.6,0.3,0.8,1.1,0.5,1.7C627,990.5,626.6,990.7,626.2,990.7z M600.3,975.8c-0.2,0-0.4-0.1-0.6-0.2l-12.9-7.5
			c-0.6-0.3-0.8-1.1-0.5-1.7c0.3-0.6,1.1-0.8,1.7-0.5l12.9,7.5c0.6,0.3,0.8,1.1,0.5,1.7C601.1,975.5,600.7,975.8,600.3,975.8z
			 M574.4,960.8c-0.2,0-0.4-0.1-0.6-0.2l-12.9-7.5c-0.6-0.3-0.8-1.1-0.5-1.7c0.3-0.6,1.1-0.8,1.7-0.5l12.9,7.5
			c0.6,0.3,0.8,1.1,0.5,1.7C575.3,960.6,574.8,960.8,574.4,960.8z M548.5,945.8c-0.2,0-0.4-0.1-0.6-0.2l-13-7.5
			c-0.6-0.3-0.8-1.1-0.5-1.7c0.3-0.6,1.1-0.8,1.7-0.5l13,7.5c0.6,0.3,0.8,1.1,0.5,1.7C549.4,945.6,548.9,945.8,548.5,945.8z
			 M522.6,930.9c-0.2,0-0.4-0.1-0.6-0.2l-12.9-7.5c-0.6-0.3-0.8-1.1-0.5-1.7c0.3-0.6,1.1-0.8,1.7-0.5l12.9,7.5
			c0.6,0.3,0.8,1.1,0.5,1.7C523.5,930.7,523,930.9,522.6,930.9z M496.7,915.9c-0.2,0-0.4-0.1-0.6-0.2l-12.9-7.5
			c-0.6-0.3-0.8-1.1-0.5-1.7c0.3-0.6,1.1-0.8,1.7-0.5l12.9,7.5c0.6,0.3,0.8,1.1,0.5,1.7C497.6,915.7,497.1,915.9,496.7,915.9z
			 M470.8,901c-0.2,0-0.4-0.1-0.6-0.2l-12.9-7.5c-0.6-0.3-0.8-1.1-0.5-1.7c0.3-0.6,1.1-0.8,1.7-0.5l12.9,7.5
			c0.6,0.3,0.8,1.1,0.5,1.7C471.7,900.8,471.2,901,470.8,901z M444.9,886c-0.2,0-0.4-0.1-0.6-0.2l-13-7.5c-0.6-0.3-0.8-1.1-0.5-1.7
			c0.3-0.6,1.1-0.8,1.7-0.5l13,7.5c0.6,0.3,0.8,1.1,0.5,1.7C445.8,885.8,445.3,886,444.9,886z M419,871.1c-0.2,0-0.4-0.1-0.6-0.2
			l-12.9-7.5c-0.6-0.3-0.8-1.1-0.5-1.7c0.3-0.6,1.1-0.8,1.7-0.5l12.9,7.5c0.6,0.3,0.8,1.1,0.5,1.7
			C419.9,870.9,419.4,871.1,419,871.1z M393.1,856.1c-0.2,0-0.4-0.1-0.6-0.2l-12.9-7.5c-0.6-0.3-0.8-1.1-0.5-1.7
			c0.3-0.6,1.1-0.8,1.7-0.5l12.9,7.5c0.6,0.3,0.8,1.1,0.5,1.7C394,855.9,393.5,856.1,393.1,856.1z M367.2,841.2
			c-0.2,0-0.4-0.1-0.6-0.2l-10.4-6l6.2-3.6c0.6-0.3,1.4-0.1,1.7,0.5c0.3,0.6,0.1,1.4-0.5,1.7l-2.5,1.5l6.7,3.9
			c0.6,0.3,0.8,1.1,0.5,1.7C368.1,840.9,367.6,841.2,367.2,841.2z"/>
	</g>
	<g>
		<path class="st0" d="M580.5,90.1c-13.7,0-24.9-11.2-24.9-24.9c0-13.7,11.2-24.9,24.9-24.9c13.7,0,24.9,11.2,24.9,24.9
			C605.4,78.9,594.3,90.1,580.5,90.1z M580.5,47.7c-9.6,0-17.4,7.8-17.4,17.4c0,9.6,7.8,17.4,17.4,17.4c9.6,0,17.4-7.8,17.4-17.4
			C597.9,55.6,590.1,47.7,580.5,47.7z"/>
	</g>
	<g>
		<path class="st2" d="M152.4,319.4c-13.7,0-24.9-11.2-24.9-24.9c0-13.7,11.2-24.9,24.9-24.9c13.7,0,24.9,11.2,24.9,24.9
			C177.4,308.2,166.2,319.4,152.4,319.4z M152.4,277.1c-9.6,0-17.4,7.8-17.4,17.4c0,9.6,7.8,17.4,17.4,17.4
			c9.6,0,17.4-7.8,17.4-17.4C169.9,284.9,162,277.1,152.4,277.1z"/>
	</g>
	<g>
		<path class="st3" d="M774.4,639.1c-13.7,0-24.9-11.2-24.9-24.9c0-13.7,11.2-24.9,24.9-24.9c13.7,0,24.9,11.2,24.9,24.9
			C799.3,628,788.1,639.1,774.4,639.1z M774.4,596.8c-9.6,0-17.4,7.8-17.4,17.4c0,9.6,7.8,17.4,17.4,17.4c9.6,0,17.4-7.8,17.4-17.4
			C791.8,604.6,784,596.8,774.4,596.8z"/>
	</g>
	<g>
		<path class="st1" d="M324.4,859.1c-13.7,0-24.9-11.2-24.9-24.9c0-13.7,11.2-24.9,24.9-24.9c13.7,0,24.9,11.2,24.9,24.9
			C349.3,847.9,338.2,859.1,324.4,859.1z M324.4,816.8c-9.6,0-17.4,7.8-17.4,17.4c0,9.6,7.8,17.4,17.4,17.4
			c9.6,0,17.4-7.8,17.4-17.4C341.8,824.6,334,816.8,324.4,816.8z"/>
	</g>
	<g>
		<path class="st4" d="M654.7,1035.6c-13.7,0-24.9-11.2-24.9-24.9c0-13.7,11.2-24.9,24.9-24.9c13.7,0,24.9,11.2,24.9,24.9
			C679.6,1024.4,668.4,1035.6,654.7,1035.6z M654.7,993.2c-9.6,0-17.4,7.8-17.4,17.4c0,9.6,7.8,17.4,17.4,17.4
			c9.6,0,17.4-7.8,17.4-17.4C672.1,1001,664.3,993.2,654.7,993.2z"/>
	</g>
</g>
<text transform="matrix(1 0 0 1 445.8887 77.6528)" class="st5 st6 st7">1992</text>
<text transform="matrix(1 0 0 1 21.1236 311.9242)" class="st5 st6 st7">1998</text>
<text transform="matrix(1 0 0 1 805.0082 629.1662)" class="st5 st6 st7">2005</text>
<text transform="matrix(1 0 0 1 193.4876 848.1458)" class="st5 st6 st7">2012</text>
<text transform="matrix(1 0 0 1 688.2957 1028.0979)" class="st5 st6 st7">2019</text>
<path class="st2" d="M456.4,454c-0.2,0-0.4-0.1-0.6-0.2l-13-7.5c-0.6-0.3-0.8-1.1-0.5-1.7c0.3-0.6,1.1-0.8,1.7-0.5l13,7.5
	c0.6,0.3,0.8,1.1,0.5,1.7C457.2,453.8,456.8,454,456.4,454z"/>
<path class="st2" d="M430.5,439c-0.2,0-0.4-0.1-0.6-0.2l-12.9-7.5c-0.6-0.3-0.8-1.1-0.5-1.7c0.3-0.6,1.1-0.8,1.7-0.5l12.9,7.5
	c0.6,0.3,0.8,1.1,0.5,1.7C431.3,438.8,430.9,439,430.5,439z"/>
<path class="st2" d="M404.6,424.1c-0.2,0-0.4-0.1-0.6-0.2l-12.9-7.5c-0.6-0.3-0.8-1.1-0.5-1.7c0.3-0.6,1.1-0.8,1.7-0.5l12.9,7.5
	c0.6,0.3,0.8,1.1,0.5,1.7C405.4,423.9,405,424.1,404.6,424.1z"/>
<path class="st2" d="M378.7,409.1c-0.2,0-0.4-0.1-0.6-0.2l-13-7.5c-0.6-0.3-0.8-1.1-0.5-1.7c0.3-0.6,1.1-0.8,1.7-0.5l13,7.5
	c0.6,0.3,0.8,1.1,0.5,1.7C379.5,408.9,379.1,409.1,378.7,409.1z"/>
<path class="st2" d="M352.8,394.2c-0.2,0-0.4-0.1-0.6-0.2l-12.9-7.5c-0.6-0.3-0.8-1.1-0.5-1.7c0.3-0.6,1.1-0.8,1.7-0.5l12.9,7.5
	c0.6,0.3,0.8,1.1,0.5,1.7C353.6,393.9,353.2,394.2,352.8,394.2z"/>
<path class="st2" d="M326.9,379.2c-0.2,0-0.4-0.1-0.6-0.2l-12.9-7.5c-0.6-0.3-0.8-1.1-0.5-1.7c0.3-0.6,1.1-0.8,1.7-0.5l12.9,7.5
	c0.6,0.3,0.8,1.1,0.5,1.7C327.7,379,327.3,379.2,326.9,379.2z"/>
<path class="st2" d="M301,364.3c-0.2,0-0.4-0.1-0.6-0.2l-12.9-7.5c-0.6-0.3-0.8-1.1-0.5-1.7c0.3-0.6,1.1-0.8,1.7-0.5l12.9,7.5
	c0.6,0.3,0.8,1.1,0.5,1.7C301.8,364,301.4,364.3,301,364.3z"/>
<path class="st2" d="M275.1,349.3c-0.2,0-0.4-0.1-0.6-0.2l-13-7.5c-0.6-0.3-0.8-1.1-0.5-1.7c0.3-0.6,1.1-0.8,1.7-0.5l13,7.5
	c0.6,0.3,0.8,1.1,0.5,1.7C275.9,349.1,275.5,349.3,275.1,349.3z"/>
<path class="st2" d="M249.2,334.4c-0.2,0-0.4-0.1-0.6-0.2l-12.9-7.5c-0.6-0.3-0.8-1.1-0.5-1.7c0.3-0.6,1.1-0.8,1.7-0.5l12.9,7.5
	c0.6,0.3,0.8,1.1,0.5,1.7C250,334.1,249.6,334.4,249.2,334.4z"/>
<path class="st2" d="M223.3,319.4c-0.2,0-0.4-0.1-0.6-0.2l-12.9-7.5c-0.6-0.3-0.8-1.1-0.5-1.7c0.3-0.6,1.1-0.8,1.7-0.5l12.9,7.5
	c0.6,0.3,0.8,1.1,0.5,1.7C224.1,319.2,223.7,319.4,223.3,319.4z"/>
<path class="st2" d="M197.4,304.4c-0.2,0-0.4-0.1-0.6-0.2l-10.4-6l6.2-3.6c0.6-0.3,1.4-0.1,1.7,0.5c0.3,0.6,0.1,1.4-0.5,1.7
	l-2.5,1.5l6.7,3.9c0.6,0.3,0.8,1.1,0.5,1.7C198.2,304.2,197.8,304.4,197.4,304.4z"/>
<path class="st2" d="M470.4,459.7c0.2,0,0.4,0.1,0.6,0.2l13,7.5c0.6,0.3,0.8,1.1,0.5,1.7c-0.3,0.6-1.1,0.8-1.7,0.5l-13-7.5
	c-0.6-0.3-0.8-1.1-0.5-1.7C469.6,459.9,470,459.7,470.4,459.7z"/>
<path class="st2" d="M496.3,474.7c0.2,0,0.4,0.1,0.6,0.2l12.9,7.5c0.6,0.3,0.8,1.1,0.5,1.7c-0.3,0.6-1.1,0.8-1.7,0.5l-12.9-7.5
	c-0.6-0.3-0.8-1.1-0.5-1.7C495.5,474.9,495.9,474.7,496.3,474.7z"/>
<path class="st2" d="M522.2,489.6c0.2,0,0.4,0.1,0.6,0.2l12.9,7.5c0.6,0.3,0.8,1.1,0.5,1.7c-0.3,0.6-1.1,0.8-1.7,0.5l-12.9-7.5
	c-0.6-0.3-0.8-1.1-0.5-1.7C521.4,489.8,521.8,489.6,522.2,489.6z"/>
<path class="st2" d="M548.1,504.6c0.2,0,0.4,0.1,0.6,0.2l13,7.5c0.6,0.3,0.8,1.1,0.5,1.7c-0.3,0.6-1.1,0.8-1.7,0.5l-13-7.5
	c-0.6-0.3-0.8-1.1-0.5-1.7C547.3,504.8,547.7,504.6,548.1,504.6z"/>
<path class="st2" d="M574,519.5c0.2,0,0.4,0.1,0.6,0.2l12.9,7.5c0.6,0.3,0.8,1.1,0.5,1.7c-0.3,0.6-1.1,0.8-1.7,0.5l-12.9-7.5
	c-0.6-0.3-0.8-1.1-0.5-1.7C573.2,519.7,573.6,519.5,574,519.5z"/>
<path class="st2" d="M599.9,534.5c0.2,0,0.4,0.1,0.6,0.2l12.9,7.5c0.6,0.3,0.8,1.1,0.5,1.7c-0.3,0.6-1.1,0.8-1.7,0.5l-12.9-7.5
	c-0.6-0.3-0.8-1.1-0.5-1.7C599.1,534.7,599.5,534.5,599.9,534.5z"/>
<path class="st2" d="M625.8,549.4c0.2,0,0.4,0.1,0.6,0.2l12.9,7.5c0.6,0.3,0.8,1.1,0.5,1.7c-0.3,0.6-1.1,0.8-1.7,0.5l-12.9-7.5
	c-0.6-0.3-0.8-1.1-0.5-1.7C625,549.6,625.4,549.4,625.8,549.4z"/>
<path class="st2" d="M651.7,564.4c0.2,0,0.4,0.1,0.6,0.2l13,7.5c0.6,0.3,0.8,1.1,0.5,1.7c-0.3,0.6-1.1,0.8-1.7,0.5l-13-7.5
	c-0.6-0.3-0.8-1.1-0.5-1.7C650.9,564.6,651.3,564.4,651.7,564.4z"/>
<path class="st2" d="M677.6,579.3c0.2,0,0.4,0.1,0.6,0.2l12.9,7.5c0.6,0.3,0.8,1.1,0.5,1.7c-0.3,0.6-1.1,0.8-1.7,0.5l-12.9-7.5
	c-0.6-0.3-0.8-1.1-0.5-1.7C676.8,579.5,677.2,579.3,677.6,579.3z"/>
<path class="st2" d="M703.5,594.3c0.2,0,0.4,0.1,0.6,0.2l12.9,7.5c0.6,0.3,0.8,1.1,0.5,1.7c-0.3,0.6-1.1,0.8-1.7,0.5l-12.9-7.5
	c-0.6-0.3-0.8-1.1-0.5-1.7C702.7,594.5,703.1,594.3,703.5,594.3z"/>
<path class="st3" d="M729.4,609.2c0.2,0,0.4,0.1,0.6,0.2l10.4,6l-6.2,3.6c-0.6,0.3-1.4,0.1-1.7-0.5c-0.3-0.6-0.1-1.4,0.5-1.7
	l2.5-1.5l-6.7-3.9c-0.6-0.3-0.8-1.1-0.5-1.7C728.6,609.5,729,609.2,729.4,609.2z M720.7,624.2c0.4,0,0.8,0.2,1.1,0.6
	c0.3,0.6,0.1,1.4-0.5,1.7l-13,7.5c-0.6,0.3-1.4,0.1-1.7-0.5c-0.3-0.6-0.1-1.4,0.5-1.7l13-7.5C720.2,624.2,720.5,624.2,720.7,624.2z
	 M694.8,639.1c0.4,0,0.8,0.2,1.1,0.6c0.3,0.6,0.1,1.4-0.5,1.7l-12.9,7.5c-0.6,0.3-1.4,0.1-1.7-0.5c-0.3-0.6-0.1-1.4,0.5-1.7
	l12.9-7.5C694.3,639.2,694.6,639.1,694.8,639.1z M668.9,654.1c0.4,0,0.8,0.2,1.1,0.6c0.3,0.6,0.1,1.4-0.5,1.7l-12.9,7.5
	c-0.6,0.3-1.4,0.1-1.7-0.5c-0.3-0.6-0.1-1.4,0.5-1.7l12.9-7.5C668.4,654.1,668.7,654.1,668.9,654.1z M643,669c0.4,0,0.8,0.2,1.1,0.6
	c0.3,0.6,0.1,1.4-0.5,1.7l-13,7.5c-0.6,0.3-1.4,0.1-1.7-0.5c-0.3-0.6-0.1-1.4,0.5-1.7l13-7.5C642.5,669.1,642.8,669,643,669z
	 M617.1,684c0.4,0,0.8,0.2,1.1,0.6c0.3,0.6,0.1,1.4-0.5,1.7l-12.9,7.5c-0.6,0.3-1.4,0.1-1.7-0.5c-0.3-0.6-0.1-1.4,0.5-1.7l12.9-7.5
	C616.6,684.1,616.9,684,617.1,684z M591.2,699c0.4,0,0.8,0.2,1.1,0.6c0.3,0.6,0.1,1.4-0.5,1.7l-12.9,7.5c-0.6,0.3-1.4,0.1-1.7-0.5
	c-0.3-0.6-0.1-1.4,0.5-1.7l12.9-7.5C590.7,699,591,699,591.2,699z M565.3,713.9c0.4,0,0.8,0.2,1.1,0.6c0.3,0.6,0.1,1.4-0.5,1.7
	l-13,7.5c-0.6,0.3-1.4,0.1-1.7-0.5c-0.3-0.6-0.1-1.4,0.5-1.7l13-7.5C564.8,714,565.1,713.9,565.3,713.9z M539.4,728.9
	c0.4,0,0.8,0.2,1.1,0.6c0.3,0.6,0.1,1.4-0.5,1.7l-13,7.5c-0.6,0.3-1.4,0.1-1.7-0.5c-0.3-0.6-0.1-1.4,0.5-1.7l13-7.5
	C539,728.9,539.2,728.9,539.4,728.9z M513.5,743.8c0.4,0,0.8,0.2,1.1,0.6c0.3,0.6,0.1,1.4-0.5,1.7l-12.9,7.5
	c-0.6,0.3-1.4,0.1-1.7-0.5c-0.3-0.6-0.1-1.4,0.5-1.7l12.9-7.5C513.1,743.9,513.3,743.8,513.5,743.8z M487.6,758.8
	c0.4,0,0.8,0.2,1.1,0.6c0.3,0.6,0.1,1.4-0.5,1.7l-12.9,7.5c-0.6,0.3-1.4,0.1-1.7-0.5c-0.3-0.6-0.1-1.4,0.5-1.7l12.9-7.5
	C487.2,758.8,487.4,758.8,487.6,758.8z M461.7,773.7c0.4,0,0.8,0.2,1.1,0.6c0.3,0.6,0.1,1.4-0.5,1.7l-13,7.5
	c-0.6,0.3-1.4,0.1-1.7-0.5c-0.3-0.6-0.1-1.4,0.5-1.7l13-7.5C461.3,773.8,461.5,773.7,461.7,773.7z M435.8,788.7
	c0.4,0,0.8,0.2,1.1,0.6c0.3,0.6,0.1,1.4-0.5,1.7l-12.9,7.5c-0.6,0.3-1.4,0.1-1.7-0.5c-0.3-0.6-0.1-1.4,0.5-1.7l12.9-7.5
	C435.4,788.7,435.6,788.7,435.8,788.7z M409.9,803.6c0.4,0,0.8,0.2,1.1,0.6c0.3,0.6,0.1,1.4-0.5,1.7l-12.9,7.5
	c-0.6,0.3-1.4,0.1-1.7-0.5c-0.3-0.6-0.1-1.4,0.5-1.7l12.9-7.5C409.5,803.7,409.7,803.6,409.9,803.6z M384,818.6
	c0.4,0,0.8,0.2,1.1,0.6c0.3,0.6,0.1,1.4-0.5,1.7l-13,7.5c-0.6,0.3-1.4,0.1-1.7-0.5c-0.3-0.6-0.1-1.4,0.5-1.7l13-7.5
	C383.6,818.6,383.8,818.6,384,818.6z"/>
</svg>
