<?xml version="1.0" encoding="utf-8"?>
<!-- Generator: Adobe Illustrator 22.0.1, SVG Export Plug-In . SVG Version: 6.00 Build 0)  -->
<svg version="1.1" id="Camada_1" xmlns="http://www.w3.org/2000/svg" xmlns:xlink="http://www.w3.org/1999/xlink" x="0px" y="0px"
	 viewBox="0 0 1008 218.7" style="enable-background:new 0 0 1008 218.7;" xml:space="preserve">
<style type="text/css">
	.st0{display:none;}
	.st1{display:inline;}
	.st2{fill:#222442;}
	.st3{opacity:0.5;fill:#373A5E;enable-background:new    ;}
	.st4{fill:#FF9100;}
	.st5{opacity:0.3;fill:#FCD9B1;}
	.st6{opacity:0.3;fill:#222442;}
	.st7{fill:none;stroke:#222442;stroke-width:2;stroke-miterlimit:10;}
	.st8{fill:#FFFFFF;}
	.st9{font-family:'Open Sans';}
	.st10{font-size:8.3821px;}
	.st11{font-size:10.1849px;}
</style>
<g id="BACKGROUND" class="st0">
	<g class="st1">
		<rect x="109.9" class="st2" width="750" height="500"/>
		<g>
			<path class="st3" d="M559.2,325.8c-0.3,0.6-0.1,1.7-0.5,2.1c-1.1,1.1-3.3,3.8-4.9,4.7c-2,1.2-4.5,1-4.5,4.4c0,1.1,1,2.9,1,3.6
				c0,0.1-1.4,3.1-1.4,3.1c-0.1,0-1.4,1.1-1.4,1.4c0,1,0,2.2,0.8,2.8c0.1,0.5-0.1,0.8-0.1,1.7c0,1.8,1.5,3.8,3.3,3.8
				c4.2,0,4.9-4.7,6.1-7.8c1.5-4,3.2-7.5,3.2-12.5c0.1,0,0.2,0.2,1.3,0.3v-1C561.1,330.5,561.5,326,559.2,325.8z"/>
			<path class="st3" d="M619.9,287.3c0,1,0.8,1.9,1.7,1.9c1.3,0,2.2-1.6,2.2-2.9c0-2.2-2-3.1-3-4.7
				C620.9,283.7,619.9,285.3,619.9,287.3z"/>
			<path class="st3" d="M671.4,311.5c0-0.7-0.8-1.7,0.3-1.9c0-1.5,0-2.1,0-3c0-0.7-0.9-0.9-1.3-1.3c-0.8-0.8-1.6-1.2-1.6-2.6
				c-0.8,0-1.3-0.2-1.3-1.1l0.3-0.4c-0.1-0.3-0.3-0.4-0.6-0.4c-0.2,0-0.3,0-0.6,0c0,0,0.1-0.5,0.1-0.6c0-1-1.2-1.5-2.2-1.9
				c-1.9-0.6-2.7-1.6-4-2.9c-0.7-0.7-1.2-1.6-2.2-1.9c-0.3-0.1-0.6,0-0.8-0.4c-0.6-1.1-1-2.7-2.6-2.7h-2.3c-0.6,0-0.7-2.1-1.4-2.1
				c-0.1,0-0.3,0-0.3,0v2c0,0.7,1.2,2.6,1.8,2.8c0.6,0.1,1.3,0,1.6,0.6c0.4,0.8,0.6,1.3,1,2.1c0.5,1,2.1,0.7,2.6,2.3
				c0.1,0.6,0.6,2.2,1,2.4c0.2,0.1,1,0.2,1.1,0.4c0.1,0.2,0,0.6,0.2,0.6s1,1.4,1.2,1.7c0.8,1.6,1.3,2.9,2.7,4.2
				c1.2,1.3,2.5,1.8,3.8,3.1c0.1,0.1,1.3,1.9,1.6,1.9C670.1,312.5,671.4,312.3,671.4,311.5z"/>
			<path class="st3" d="M678,299.3c0,0.3,0.7,2.8,1,2.9c0.4,0.1,0.8,0.1,0.9,0.4c0,0.1-0.1,0.3-0.1,0.3c0.9,1.4-0.2,3.8,2.4,3.8
				c0.6,0,0.9-0.4,1.5-0.3c0.1,0.3,0,1,0.1,1c0.2,0,0.4,0.3,0.6,0.3c0.8,0,1.2-0.8,1.7-0.8c1.2,0,1.9,0.8,3.1,1.1c0,0.4,0.2,1,0.9,1
				c0.9,0,1-0.8,2.2-1.1c0-0.8,0.8-1.8,0.8-2.4c0-0.3-0.3-0.5-0.3-1c0-0.4,0.7-1.5,1.5-1.6c0-1.2,0.6-1.6,0.9-3.1l0.4-0.7
				c0.2-0.1,0.5-0.1,0.7-0.1c0.8,0,1.3,0.3,1.5-0.7c-1.2,0-3.1-3.5-3.1-4.5c0-0.2,0.3-0.4,0.5-0.5c-0.1-0.2-0.2-0.4-0.3-0.6
				c0,0,1.9-0.8,2-1c-0.1,0-0.3-0.2-0.3-0.3c0-0.6,1.5-0.2,1.5-0.8c0-1.4-2.9-0.6-2.9-2c0-1,0.1-1.7-1-1.7s-2.6,2.6-3.2,3.7
				c-0.3,0.6-1.9,0.2-2.5,0.8c-0.1,0.1-0.2,0.5-0.4,0.6c-0.3,0.1-0.3,0.3-0.7,0.5c0,0-0.8,0.6-0.5,0.8c-0.6,0.6-0.6,1.3-1.6,1.5
				c-0.8,0.1-1.5,0.1-1.9,0.6c-1,1-0.7,3.1-2.9,3.1C679.5,298.6,678,298.1,678,299.3z"/>
			<path class="st3" d="M702.5,300.1c1.2,0,1.7-0.3,2.6-0.3c0.9,0,1.5,0.5,2.4,0.5c1.4,0,1.9-1.2,2.1-2.2c0.2,0,0.3-0.5,0.3-0.5
				h-0.4c-0.8,1-1.8,1-2.2,1h-0.6l-4.8-0.6c-1.8,0-2.6,2.4-2.6,4.1c0,0.4-0.6,0.8-0.6,1.1c-0.5,1.6-1.4,2.3-1.4,3.8
				c0,0.8,1.3,0.9,1.3,0.9c0,1.1,0,2.6,0,3.3c0,0.4,0.7,0.9,1.2,0.9c0.8,0,1.1-2.4,1.1-2.8c0-0.9-0.6-1.4-0.6-2.3
				c0-0.5,0.6-0.8,1.1-0.8c0.2,0,0.4,0.1,0.6,0l-0.3,1.5c0,0.9,1.1,1.5,1.1,2.4c0,0.2,0,0.9,0,0.9h0.9c0-2.1,1.5-0.9,1.5-1.7
				c-0.3-0.1-1-1-1-1.4c0-0.1,0.2-0.3,0.3-0.5c-0.4-0.2-1.5-2.7-1.5-3c1.9,0,1.8-1.6,3.9-2v-0.6c0-0.1-4.3,1-4.4,1.2v-0.3
				c-0.3,0.3-0.4,0.7-0.8,0.7c-1,0-1.5-1.3-1.5-2.4C700.2,299.8,701.3,300.1,702.5,300.1z"/>
			<path class="st3" d="M689.1,317.7c0.8,0,0.8,0.5,1.5,0.5c0.1,0,0.6-0.5,0.8-0.8c-0.5-0.2-0.5-0.4-1.1-0.6s-1.2,0.4-1.7-0.1
				c-0.1-0.1-0.1-0.6-0.6-0.6c-1.2,0-2.2,0.1-2.9-0.6c0.1,0.1,2.5-0.2,2.6-0.2h-0.6H685c-1.3,0-1.7-1.4-3.1-1.4c-0.8,0-1,1-2.1,1
				c-2.3,0-3.2-2.3-5.3-2.3c-0.4,0-0.7,0.4-1.1,0.4c-0.2,0-0.3-0.3-0.6-0.3c-0.4,0-1.7,1.2-1.7,1.5c1,0,1.6,0.8,2.3,1.5
				s1.7,0,2.8,0.3c1.4,0.4,2.5,0.5,3.8,0.5c0.7,0,0.9,0.9,1.7,0.9c2.7,0,5.1,0.1,7.4,1C689.1,318.2,688.9,317.7,689.1,317.7z"/>
			<path class="st3" d="M703.7,318.2c0.9,0,1.5-0.3,2-1.2c-0.6,0.3-1,0.8-2,0.8s-1.5-0.4-2.8-0.4c-0.5,0-1.3-0.2-1.3,0.3
				c0,0.8,1,0.5,1.5,0.5C701.8,318.2,702.8,318.2,703.7,318.2z"/>
			<path class="st3" d="M696.2,317.2c0,0-0.1,0.5-0.1,0.7c-0.3-0.1-0.7-0.2-1.3-0.2s-1.2,0-1.2,0.7c0,0.3,0.8,0.5,1.4,0.5
				c0.7,0,1-0.5,1.7-0.8l0.6,0.1h1.3v-1L696.2,317.2L696.2,317.2z"/>
			<path class="st3" d="M700.2,319.3c-0.2,0-0.5,0-0.7,0c-0.5,0-1.3-0.1-1.3,0.5c0,0.7,1.1,0.7,1.8,0.7c0,0.2,0.1,0.9,0.4,0.9
				c0.1,0,0.2,0,0.3,0c0.2,0,0.6-0.3,0.6-0.5C701.2,320,700.2,319.3,700.2,319.3z"/>
			<path class="st3" d="M692.7,317.4c-0.2,0-0.4,0-0.6,0c0,0.2,0,0.5,0,0.7s0.4,0.5,0.6,0.5c0.3,0,0.6-0.3,0.7-0.7
				C693,317.8,693,317.4,692.7,317.4z"/>
			<path class="st3" d="M709.8,319.6c1.1,0,3.4-0.6,4.1-1.6c-0.6-0.4-3.7-0.1-4.4,0.6c-0.1,0.1-0.1,0.6-0.3,0.6
				c-1,0.3-2.4,0.3-2.4,1.9c0,0.3,0.2,0.6,0.5,0.6c0.8,0,2-0.8,2.3-1.2C709.8,320.3,709.5,319.6,709.8,319.6z"/>
			<path class="st3" d="M729,312.6c0-0.5-0.1-0.2-0.3-0.8c-0.5,0.1-0.4,0.7-0.4,1.2c0,0.4-0.7,0.5-0.7,1.2c0,0.2,0.2,0.6,0.4,0.6
				c0.6,0,0.4-0.8,0.4-1.5C728.8,313.3,729,313,729,312.6z"/>
			<path class="st3" d="M711.9,307.3c0,0.6,0.8,1.3,1.2,1.3c0.2,0,0.7-0.8,0.7-0.9C713.8,307,711.9,306.5,711.9,307.3z"/>
			<path class="st3" d="M715.5,307.5c0,0,1,0.3,1.2,0.3c0.6,0,0.9,0,1.6,0c1,0,1.5,0.5,2.4,0.5c0.1,0,0.4-0.1,0.4-0.2
				c0-0.6-0.8-0.7-0.8-1.3l-0.2,0.1c-0.4,0-0.9-0.2-1-0.2H716C715.8,306.9,715.5,307.2,715.5,307.5z"/>
			<path class="st3" d="M715.2,296.3c-0.6,0.3-1.2,0.8-1.2,1.4c0,0.9,0,1.2,0,1.9c0,0.7,0,0.5,0,0.9s0.7,1.3,1.4,1.3
				c-0.3-0.5-0.3-0.8-0.3-1.2v-0.5c0,0,1.4-0.1,1.7-0.1c-0.1-0.6-0.5-0.7-0.5-1c0-0.4,0.7-0.5,0.7-0.9
				C715.8,297.8,715.3,297.2,715.2,296.3z"/>
			<path class="st3" d="M756.6,312c0.2,1,1.1,0.6,1.7,1.1c0,0,0.1,0,0.1,0.1c0.1,0,0.1,0.1,0.1,0.1l-0.1-0.1c0.3,0.2,0.8,0.5,1,0.5
				c1.5,0,2.1-0.8,3.3-1c0-1.3,1.5-1,1.5-2.4c0-0.4-0.2-1-0.6-1c-1,0-0.6,1.5-1.5,2c-0.6,0.3-1.7,0.3-2.7,0.7c0,0-0.6,0.3-0.8,0.3
				h-2V312z"/>
			<path class="st3" d="M753.1,312.5c-1.7-0.8-1.6-2.7-3.8-3.4c-0.3-0.1-0.9-0.1-0.9-0.7c-0.8,0-1.5-1-2.4-1c-1.5,0-3-0.7-5-1.5
				v-0.1h0.2c-0.1-0.1,0-0.1-0.1-0.2l0.2,0.5c-0.3-0.1-0.8-0.3-1.1-0.3h-1.9c-0.4-2.1-1-1.3-1.8-1.6c-0.2-0.1-0.8-0.1-0.8-0.5
				c-0.8,0.1-1.7,1.3-2.3,1.5c-1,0.3-1.1,0.3-1.7,0.9c-0.1,0.1-0.8,1.2-1.3,1.2c-0.4,0-1.6-1.1-1.6-1.4c-0.6,0-1.3-0.3-1.3-0.6
				c0-0.6,0-1.5,0-2.5c-2.1-0.3-1.9-1.4-3.1-1.4c-1.3,0-1.6,1.2-2.5,1.2c-0.4,0-0.9,0.2-0.9,0.6c0,1,1.7,0.6,2.2,1.5
				c0.1,0.2,0.2,0.6,0.4,0.6c0.3,0.1,0.6,0.5,1,0.5c0.8,0,1.3,0,2,0h0.5c-0.5,0-2.6,0.4-3.5,0.9c0.1,0.6,0.9,0.1,1.3,0.7
				c0.3,0.6,0,0.8,0.3,1.5c0.1,0.2-0.3,0.2-0.1,0.2c0.6,0,0.3-0.7,0.3-1.3v0.6c2.1-0.3,2.3,1.5,3.3,1.5c1.1,0,3.4,0.3,4.1,0.7
				c0.7,0.3,2.8,1.1,3.1,1.9c0.4,1,0,2,1,3c-0.4,0.2-1.7,0.5-1.7,1.3c0,0.6,0.7,0.5,1.2,0.5h1.5c0,0,0.8-0.8,1-0.8
				c1.8,0,2.3,1.8,4.1,1.8c0.8,0,1,0,2.6,0c0,0,0.6-0.3,0.3-1.2c1-0.5,0.8-1.5,2.6-1.5c2.3,0,3.5,2.1,4.9,3.5
				c0.1,0.1,0.7,0.3,0.7,0.6c0,0.8,1.6,1.8,2.6,1.8h1.8c0.1,0,1.2,1,1.3,1s0.3,0,0.4,0c0,0,0.5-0.9,0.9-1.2c-0.2-0.1-1.3,0-1.4-0.3
				c-0.1-0.3-0.3-0.7-0.7-0.9c-0.3-0.1-0.7,0.2-0.8-0.1c-0.1-0.3-0.3-0.8-0.6-0.8c-0.5,0-1.3-0.3-1.5-0.7c-0.6-0.8-0.4-1.3-1.1-2
				c-0.1-0.1-1.3-1.3-1.3-1.7c0-0.6,1.3-0.3,1.3-1.1C755.3,312,753.8,312.8,753.1,312.5z"/>
			<path class="st3" d="M764.7,307.9c-0.8-0.8-1.4-1.6-2.7-2c0.2,0.6,0.7,0.5,1.3,0.8c0.9,0.6,0.8,1.3,1.7,1.7
				c-0.1,0.7-0.1,1.2,0.7,1.3c0.1,0.1,0.3,0,0.4,0c-0.1-0.1,0-0.3,0-0.5C766,308.4,765.3,308.5,764.7,307.9z"/>
			<path class="st3" d="M769.1,311.6c-0.1,0.7-0.2,1.4,0.8,1.5c0,0.2,0,0.3,0,0.6c0,0.2,0.4,0.5,0.6,0.5c0.2,0,0.5-0.3,0.5-0.6
				C771,313.4,769.5,311.9,769.1,311.6z"/>
			<path class="st3" d="M782.7,320.9c-0.1,0.4,0.4,1.5,1.1,1.5c-0.1-0.1,0-0.3,0-0.4C783.8,321.4,783.2,321.3,782.7,320.9z"/>
			<path class="st3" d="M779.6,319.8c0,0.8,1.1,1.1,1.9,1.1c0.1,0,0.3-0.1,0.3-0.1C781.4,320.1,780.7,319.8,779.6,319.8z"/>
			<path class="st3" d="M779.9,317.1c0.1,0.6,1.3,2.2,2,2.2C781.6,318.3,780.9,317.7,779.9,317.1z"/>
			<path class="st3" d="M776,315.2l-0.1-0.1h-0.1c0,1,1.6,1.6,2.2,1.6c0.2,0,0.4-0.1,0.6-0.1C778,316,776.6,315.5,776,315.2z"/>
			<path class="st3" d="M772.9,313.9c0,0.1-0.3,0.1-0.3,0.1l1,0.7h0.6C773.9,314.2,773.5,314.2,772.9,313.9z"/>
			<path class="st3" d="M772.6,313.7c0.1,0.1,0.2,0.2,0.3,0.2l0,0L772.6,313.7z"/>
			<path class="st3" d="M752.5,386.5c-0.1,0-3.8-1-3.8,0c0,2.1,2.3,6.9,4.4,6.9c1.4,0,3.3-3.5,3.3-5.1c0-0.8-0.6-1.5-0.8-2.3
				C754.6,386.3,753.4,386.5,752.5,386.5z"/>
			<path class="st3" d="M756,385.7c0.1-0.3,0.2-0.5,0.2-1.2c-0.2,0.1-0.6,0.1-0.9,0C755.3,385.1,755.3,385.5,756,385.7z"/>
			<path class="st3" d="M732.7,375.5c0.6,0.6,1.7,0.5,2.4,0C734.1,375,734,374.8,732.7,375.5z"/>
			<path class="st3" d="M721.7,324.4c0.2,0,0.6,0,1.6,0v-1c-1-0.1-2,0-3.3,0.3C720.4,324.1,720.9,324.4,721.7,324.4z"/>
			<path class="st3" d="M764.7,351.6c-1.3-1.3-4-2.5-4-5.3c-0.9,0-2,0-2.3-0.9c-0.3-1-0.4-2.3-1.3-3.1c-1.2-1.2-4.2-1.8-4.7-3.5
				c-0.6-1.7-1.1-2.6-1.7-4.5c-0.3-1.1-0.3-3.3-1.2-3.9c-0.3-0.1-1.6-0.6-2.3-0.8c-0.8-0.6-0.4-1.8-0.7-2.8
				c-0.4-1.3-1.3-2.6-1.6-4.5c-1.2,0.6-0.9,1.5-2,2.4v6.3c0,1.6-0.7,5.7-2.9,5.7c-1.3,0-1.7-1.5-2.6-1.9c-1.7-0.7-2.8-1-4.6-1.7
				c-0.3-0.1-0.3-1.1-0.7-1.4s-1.4-0.1-1.4-0.7l0.8-3.5c0.6-0.4,1.6-0.5,1.6-1.4c0-0.6-1-1.3-1.4-1.3c-0.8,0-1,0.6-1.9,0.6
				c-2.5,0-3.9-1-6.3-2c0.1,0.8,0.8,1,1.3,1.6c-0.2,0.1-0.8,0.5-1.3,0.5c-1.2,0-4,0.6-4,1.6s-1,1.5-1,2.4c0,0.6,0.2,1.1-0.2,1.7
				c-0.1-0.1-0.7-0.6-1-0.6c-0.6,0-1.2,0.3-1.5,0.8c-0.1-1.3-0.8-2.6-2.1-2.6c-1.5,0-1.8,1.4-3.7,1.4c-0.1,1.6-1.5,1.9-1.5,3.8
				c-0.6,0-0.9-0.3-1.5-0.6c-0.4,0.8,0,1.8-0.8,2.3c-0.3-0.5-1-0.8-1.3-1.4c-0.7,0.3-1.2,1-1.2,1.7c0,0.4,0,0.8,0,1.2
				c0,2.4-5.4,4.3-7.9,4.7c-1.3,0.2-3.7,0.3-4.5,1.2c-0.8,0.8-2.3,2.5-3.6,2.6c0-0.2,0.2-0.5,0.1-0.7c-0.3,0.1-0.6,0.3-0.6,0.8
				c0,1.8,0,1.9,0,4c0,1.7,0.7,2.6,0.7,3.6c0,0.3,0.1,0.6-0.1,0.9c-0.2-0.2-0.5-0.6-0.7-0.9c-0.2,0.3-0.3,0.6-0.4,0.9
				c-0.3,1,1,1.4,1.4,2.4c0.9,2.7,1.1,3.7,1.9,6.7c0.3,1.3,1.4,2.4,1.4,4.4c0,1.6-1.6,2.1-1.6,3.1s3.3,2.4,4.5,2.4
				c3.1,0,4.2-2.3,6.6-2.3c0.8,0,0.8-0.6,1.9,0c1.5,0,2.7-0.4,4.2-0.5c0.6-3.5,4.9-2.3,8.5-3.5c1.5-0.5,2-1.6,4.5-1.6
				c2.3,0,6.4,0.7,7.5,2.1c0.6,0.8,2.1,4.2,2.6,4.2c0,0-0.3,1.3,0.6,1.3c1.5,0,3.2-3.6,4.5-4.9c0.1,1-0.3,4.7-2,5
				c0,0.3,0.3,0.7,0.7,0.7c1,0,1.1-1.3,1.7-1.5c0-0.2,0.1-0.5,0.1-0.7c0.3,0.3,0.7,0.6,0.7,1.5c0,0.7-0.3,0.6-0.5,1.6h0.8
				c0.6,0,0.9-0.3,1.4-0.6c0,0.1,0.1,0.3,0.1,0.3c0.1,0.9,1,1.7,1,2.8c0,2.9,4.4,4.6,7.2,4.6c1.7,0,1.2-1.4,2.8-1.5
				c0.1,0.4,2.8,2,3.4,2.1c0.6-3.3,7-1.9,7-5.1v0.1c0-2.4,1.5-4.6,2.1-6.3c0.7-2.2,2.2-2.9,3.4-4.9c0.3-0.6,0.7-0.8,0.7-1.4v-2
				c1-0.6,0.9-2.8,0.9-4.3c0-2.1-0.8-5.8-1.9-7.3L764.7,351.6z"/>
			<path class="st3" d="M806.7,387.7c-0.2,0-0.4-0.1-0.5-0.3c-0.3,0.1-0.7,0.6-1.2,0.6c-0.4,0-0.3-0.5-0.3-1c-0.2,0-0.5-0.2-0.5-0.7
				c-0.6,0.3-1.7,1.3-1.7,2.3c0,0.1-0.1,0.3-0.1,0.4c-0.6,0.1-1,0.2-1.3,0.8c-0.1,0.2-0.1,0.7-0.1,0.7s-1,1.5-1.3,1.7
				c-1.2,0.6-2.2,2.3-3.9,2.3c-0.5,0-0.8,0.4-1.1,0.9c-0.7,1-2.8,2-2.8,3.8c0,0.1,0.2,0.3,0.3,0.3c0,0.3,2.7,1.4,3.1,1.4
				c0.4,0,1.3,0.3,1.5,0.3c0.8,0,2-1,2.6-1.7c0,0,1.9-4,2.2-4.9c0.6,0,2.2-0.4,2.6-0.4c0.1-0.8-0.2-1.1,0-2.2c1.1,0,2.5-2.6,2.7-3.5
				C806.8,388.6,806.7,388.3,806.7,387.7z"/>
			<path class="st3" d="M815.1,379.3c-1.1,0-1,1.2-2.4,1.2c-1.7,0-2.6-1.3-2.6-2.3c-0.1,0-0.3,0-0.4,0c-0.3,0-0.6,0-0.6,0h-0.4
				c-0.4,0-1.2-2.1-1.2-2.4c0-0.2,0.2-0.4,0.3-0.6c-0.4-0.2-0.4-0.7-0.8-1.2c-0.7-0.7-1.9-0.8-2.6-2c0.4,1.7,1.4,4,3,4.2
				c-0.1,0.2,0,0.5,0,0.7c0,0.6,0.9,0.8,0.9,1.3l0,0c0,0.4,0.1,0.9,0.1,1.4c0,1-0.2,2-0.9,2.7c-0.4,0.3-1,0.4-1,1.1
				c0,1.3,2.6,0.7,2.6,2.1c0,0.8-0.8,1.2-0.8,2c0,0.6,0.4,0.9,1,0.9c1.5,0,1.9-1.4,2.6-2.4c0.1-0.2,1-0.9,1-1.4
				c0-0.2-0.3-0.5-0.3-0.7c0-0.6,0.7-0.8,1.4-0.9c0.1,0,0.1-0.2,0.2-0.2l0.3,0.3c0.7-1,0.4-2.5,1.4-3.5
				C815.5,379.5,815.3,379.3,815.1,379.3z"/>
			<path class="st3" d="M814.4,337v-0.8c0-0.1-0.2-0.3-0.4-0.6c-0.6,0.2-1.4,0.4-1.4,1.3c0,0.3,0.6,0.4,1.1,0.4
				C814.3,337.3,814.4,337.4,814.4,337z"/>
			<path class="st3" d="M815.4,334.4c0,0.2,0.1,0.6,0.3,0.6c0.7,0,1.6-0.7,1.6-0.9c0-0.2,0-0.4,0-0.6
				C817.3,333.5,815.4,333.6,815.4,334.4z"/>
			<path class="st3" d="M710.7,281.3c-0.1,0.2,0,1-0.2,1.4s-1.3,0.1-1.3,0.9c-0.4,0.1-0.6,0.4-0.6,0.8c-0.1,0-0.2,0-0.4,0
				c-0.4,0-0.3-1-1.1-1c-1.1,0-0.8,1.3-2.2,1.3c-0.1,0.6-0.4,1-0.4,1.6c0,0.2,0.2,0.4,0.2,0.6s-0.5,1.4,0,1.4c0.7,0,0.6-2,1.3-2.6
				c0,0,0.4,0.5,0.6,0.6c0.1-0.1,0.2-0.3,0.2-0.3c0.1,0.1,0.2,0.3,0.6,0.3c-0.1-0.2,0-0.4,0-0.5h0.9c0.1,0.2,0.2,0.4,0.2,0.6
				c-0.2,0.1-0.3,0.3-0.3,0.7c0,1.1,0.7,2.1,1.6,2.1c0.2,0,0.4,0.1,0.6,0c0,0.2,0.1,0.5,0.3,0.5c0.4,0,0.7-0.4,0.7-0.8
				c0-0.7-0.7-0.9-0.7-1.3s0.3-0.5,0.6-0.8c0.1,0.2,0.3,0.3,0.4,0.5v-0.1c0.1,0.3,0.6,1.4,0.8,1.4c0-1,0.8-1.4,0.8-2
				c0-0.5-1-4.1-1.5-4.6C711.4,281.6,711.1,281.3,710.7,281.3z"/>
			<path class="st3" d="M695.9,283.7h0.4c0.8-0.5,2-1.2,2.3-2.6c0.5,0,1-0.1,1.1-0.6c0.3,0,0.4-0.2,0.6-0.4c-0.2-0.2-0.6-0.4-0.6-1
				c-0.2,0.2-0.2,0.5-0.3,0.8C698.7,281.2,696.5,281.9,695.9,283.7z"/>
			<path class="st3" d="M699.4,270.9c0,0.4,1.1,1.1,1.4,1.1c0.2,0,0.3-0.2,0.5-0.4h0.4v0.6c-0.1,0.1-0.4,0.3-0.4,0.7
				c0,0.3,0.5,0.9,0.9,0.9s0.6-0.4,1-0.4c0.9,0,0.9,1.3,1.8,1.4c-0.2-0.5-0.4-0.7,0-1.1c0.4,0.5,1.9,1.1,2.3,1.9
				c0.1,0.2,0.1,0.5,0.3,0.5c0.1,0,0.3-0.2,0.3-0.4c0-0.2,0-0.3,0-0.5c-0.4,0-0.8-0.3-0.8-0.7c-0.1,0.1-0.4,0.1-0.4,0
				c0-0.3,0.3-0.4,0.4-0.7c-0.1,0-0.2-0.1-0.4-0.1c-0.3,0-0.3,0.4-0.6,0.4c-0.4,0-0.6-1.4-1.3-1.4c-0.4,0-0.7,0.2-0.7,0.5
				c0,0.1,0,0.2,0,0.3c-0.7-0.3-1.6-1.8-1.5-2.7c0-1.3,1.2-1.4,1.2-2.7c0-1-0.8-1.9-0.8-2.7c0-0.1-0.1-0.3-0.1-0.4s-0.1-0.2-0.1-0.3
				c-0.3,0.1-0.5,0.6-0.8,0.6c-0.6,0-0.4-1.1-1.1-1.1c-0.5,0-0.6,0.6-0.7,1.2c0,0.7,0.3,1.2,0.3,1.9c0,0.5-0.1,1.4-0.4,1.8
				C699.2,268.7,699.4,269.9,699.4,270.9z"/>
			<path class="st3" d="M710,276.4c-0.5,0-0.9-0.3-1.4-0.3c-0.2,0-0.4,0.2-0.6,0.2c0.1,0.5,1.5,0.9,1.5,1.8c0,0.1-0.2,0.4-0.3,0.4
				s-0.5,0-0.8,0v0.4c0.1,0.2,0.5,0.8,0.9,0.8v0.4c-0.3,0.4-0.1,0.8,0.3,0.9c0.2,0,0.4,0,0.6,0v-0.4c-0.3-0.1-0.5-0.7-0.5-1.2h0.9
				c0.1-0.2,0.2-0.4,0.3-0.8c-0.1,0-0.5-0.6-0.5-0.6s0.1-0.6,0-1c-0.1,0-0.3,0-0.4,0C710.1,276.8,710,276.5,710,276.4z"/>
			<path class="st3" d="M704.6,277.5c-0.1-0.1-0.2-0.2-0.3-0.2s-0.4,0.2-0.4,0.3c0,0.5,0.2,1.7,0.2,2.7c0.6-0.4,2-0.9,2.1-1.9
				C706.2,278,705.1,277.8,704.6,277.5z"/>
			<path class="st3" d="M706.5,279.3c-0.3,0.1-0.7,1.6-0.7,1.7c-0.2,0-0.6,0.2-0.6,0.4c0,0.4,1.1,1.6,1.4,1.6c0.1,0,0.4-0.2,0.4-0.3
				c0-0.4-0.3-0.2-0.3-0.8c0-0.7,0.7-1.2,0.7-1.9C707.4,279.6,707.1,279.1,706.5,279.3z"/>
			<path class="st3" d="M707.1,282c0.1,0,0.3,0,0.3,0c0-1,0.8-1.4,0.9-2.5c-0.2,0-0.4,0.1-0.6,0.1C707.7,280.8,707.3,281,707.1,282z
				"/>
			<path class="st3" d="M709,280.9c-0.2,0.2-0.5,0.1-0.8,0c-0.2,0.4-0.6,0.5-0.6,0.9c0,0.1,0.2,0.3,0.4,0.3
				C708.6,282.1,709,281.6,709,280.9z"/>
			<path class="st3" d="M707.7,277.6c0-0.8-0.8-1-1-1.5h-0.6c0,0.2,0,0.5,0,0.9c0.3,0,0.6,0,0.9,0
				C707,277.3,707.7,277.9,707.7,277.6z"/>
			<path class="st3" d="M702.6,276.5c0.3,0,0.6-0.7,0.5-1.2c-0.2-0.7-0.9-0.6-1.6-1.1h-0.6C700.8,274.1,702.3,276.5,702.6,276.5z"/>
			<path class="st3" d="M703.3,274.5c0.1,0.1,0.5,0.1,0.6,0C703.8,274.4,703.4,274.5,703.3,274.5z"/>
			<path class="st3" d="M702.4,249.4c-1,0-2.4,2.7-2.4,4.2c0,1-0.2,1.9,1,1.9C702.6,255.5,704.1,249.4,702.4,249.4z"/>
			<path class="st3" d="M681.9,261.2c0-0.4-0.7-1-1-1c-0.9,0-3,1.7-4,1.7c0,0,0,0.6,0,1c0,0.9,0.7,1.4,1.7,1.4
				C679.6,264.3,681.9,262.2,681.9,261.2z"/>
			<path class="st3" d="M672,305.3c0.1,0.2,0.3,1.1,0.5,1.1c0.3,0,0.5,0.5,0.9,0.5c0.1,0,0.3,0,0.5,0c-0.1,0-0.1-0.6-0.1-0.8
				c-1,0-1.4-1.4-1.7-2.4c-0.5,0.1-1.5,0.5-1.5,0.9C670.6,305.1,671.7,304.7,672,305.3z"/>
			<path class="st3" d="M676.2,307.1c0.4,0,0.7-0.4,0.8-0.8c-0.2-0.1-0.4-0.3-0.6-0.3c-0.2,0-0.5,0-0.7,0c-0.1,0,0,0.3,0,0.3
				C675.6,306.6,675.8,307.1,676.2,307.1z"/>
			<path class="st3" d="M658.6,303.1h-1c0,0,0-0.1,0,0c0,0.5,1.1,1.6,1.5,1.7C659.2,304.1,658.6,303.7,658.6,303.1
				C658.6,303.2,658.6,303.1,658.6,303.1z"/>
			<path class="st3" d="M655.8,298.6l-0.3,0.1h0.1c0.1,0.4,1,1.5,1.3,1.5C657.3,300.3,656.2,298.9,655.8,298.6z"/>
			<path class="st3" d="M719,232.5c0,0.3,0.3,0.8,0.7,0.8c0.2,0,0.5-0.3,0.8-0.3c-0.1-0.2,0-0.4,0-0.6c0.1,0.3,0.1,0.8,0.6,0.9
				l-0.3,1c0,0-1.1,1-1.1,1.1c0,0.3,0.6,1.1,0.6,1.1V236c0,0.2,0.4,0.6,0.6,0.6c1,0,1.7-2.2,1.9-3.4c0.2,0.1,0.5,0,0.7,0
				c-0.1-0.2,0-0.5,0-0.7l-0.6-0.6c-0.2,0-0.1-0.5-0.1-0.7c-0.8,0-1.2-0.6-1.8-0.6C720.9,230.8,719,232.1,719,232.5z"/>
			<path class="st3" d="M725.4,233c0.9,0,0.8-1.1,1.4-1.7c0.2,0.1,0.8,0.5,0.8,0.5c1,0,2.1-2.4,0-2.4c0,0-0.9,1.2-2.1,0.8
				c0,0.1-1.2,1-1.2,1c0,0.3,0.2,0.5,0.6,0.8C724.8,232.4,725,233,725.4,233z"/>
			<path class="st3" d="M732.9,224.3c-0.6,0-1,1.9-2.2,1.9c-1.6,0-2.2,0-4.3,0c-1.8,0-2.4,2-3.9,3c-0.3,0.1-0.9,0.4-0.9,0.6
				c0,0.3,0.5,0.3,1,0.3c1.5,0,2.7-0.5,3.6-0.9c0.6-0.3,1,0.1,1.5-0.2c0.2-0.1,0.3-0.5,0.7-0.5c0.8,0,0.9,0.4,1.8,0.6
				c0,0.3-0.5,0.8-0.5,1.2c0,0.2,0,0.6,0,0.6c1,0,0.7,0.6,1.3,0.7c0.4-0.7,1.3-1.8,1.8-1.8c0.2,0,0.6,0,0.8-0.1
				c-0.1,0-0.7-0.8-0.7-1.1c0-0.2,0.2-0.6,0.4-0.6c0.6,0,0.6,1.2,2,1.2c0.6,0,1,0.2,1.4-0.9h0.7c0,1,0.2,0.4,0.3,0.4
				c0.3-1,0.9-1,1.9-1.7c-0.1,0.5-0.3,0.6-0.1,1.1c0.8-0.3,0.8-1,1.7-1.4c-0.1-0.4-0.3-0.7-0.3-1.3c0-0.9,0.8-1.3,0.8-1.9
				c0-0.8-0.1-2.9,0.6-3.1c0.2-0.1,0.8,0.1,0.8-0.1c0-0.1,0-0.3,0-0.4c0-0.9,0.8-1,0.8-2.2c0-1-1-1.5-1-2.4c0-0.5,0-0.9-0.2-1.4
				c-0.1-0.2-0.4-0.4-0.9-0.4c-0.2,0-0.1,0.6,0.1,0.6c0.1,0,0.1,0.1,0.2,0.1c-0.8,0.7-0.8-0.2-0.9-0.2c-0.9,0-1.6,1.7-1.6,2.6
				c0,0.4,0.3,0.4,0.3,0.8c0,2.2-2.4,5.1-3.8,5.6c-0.8,0.3-1,1-2,1c-0.1,0-0.3-0.2-0.3-0.3c0-0.3,0.1-0.7,0.3-0.9
				C733.8,222.8,732.9,224.3,732.9,224.3z"/>
			<path class="st3" d="M739.9,209.1c0,0.5-0.8,1-0.8,1.7c0,0.3,0.8,0.4,0.8,0.7c0,0.1,0,1.3,0,1.3h0.3c0.6,0,1.1-0.1,1.7-0.9
				c-0.3-0.3-1.3-0.2-1.3-0.9c0-1.2,1.2-0.4,2.1-0.4c0-0.2,0.3-0.5,0.5-0.5c1.2,0.8,1.9,0.9,3,1.6c0.6-0.8,1-2.4,2.5-2.4
				c1,0,1.5-0.2,2.2-0.6c-0.3-0.1-0.8-0.5-0.8-0.9c0-0.3,0.3-0.5,0.4-0.8c-0.4-0.3-0.9,0.1-1.5,0.1c-2.7,0-3.5-2.2-5.4-3.5
				c-0.1,0.2-0.4,0.4-0.4,0.9c0,0.3,0.3,0.4,0.3,0.7c0,0.9-0.5,3.6-1.7,3.6c-0.2,0-0.5,0.1-0.7,0l-0.3,0.1c-0.2-0.1-0.9-0.2-0.9-0.3
				L739.9,209.1z"/>
			<path class="st3" d="M750.7,207c-0.1,0.2-0.2,0.6,0,0.6c0.6,0,1.5-1,1.7-1.5l-0.2-0.2C751.7,206,751,206.6,750.7,207z"/>
			<path class="st3" d="M752.1,205.9l0.1,0.1h0.1L752.1,205.9z"/>
			<path class="st3" d="M756.1,203.5c-0.8,0-1.7,1.4-1.7,1.4c0,0.1,0,0.4,0,0.4c1,0,1-1.4,2.1-1.4v-0.4
				C756.5,203.5,756.6,203.5,756.1,203.5z"/>
			<path class="st3" d="M759.3,202.7c0.6,0,1.1-1,1.2-1.4c-0.1,0-1,0-1.1,0.4c-0.1,0.2,0.1,0.6-0.1,0.6
				C759.2,202.3,759.2,202.7,759.3,202.7z"/>
			<path class="st3" d="M746,183.6c-0.3-0.9-0.8-1.9-0.8-2.9c-0.1,0-0.2,0-0.2,0s0,0.2,0,0.9c0,0.3-0.4,0.5-0.4,0.9
				c-1,0.2-1.5,2.1-1.5,3.5c0,1,1,1.5,1,2.5c0,1.7,0,2.3,0,4.1c0,0.8-0.3,1.1-0.3,2.2c0,0.8,0.5,1,0.5,1.9c0,1-0.2,1.9-0.2,3.1
				c0,0.3,0,2,0,2c1,0,0.6-1.5,1.5-1.5c0.2,0,0.5,0,0.7,0c0.1,0,0.4,0.8,0.7,0.7c0.1,0,0.2-0.1,0.2-0.1c-0.6-1.2-2-2-2-3.5
				c0-1.8,0.2-4,2.1-4c0.6,0,1.1,0.4,1.5,0.9c-0.4-1.7-1.4-3.1-2-4.8c-0.1-0.4-0.6-1.2-0.6-1.9V186C745.1,185,746.3,184.6,746,183.6
				z"/>
			<path class="st3" d="M575.8,129.7C575.8,129.7,575.8,129.8,575.8,129.7c0.1,0.2,0.2,0.2,0.3,0.3L575.8,129.7z"/>
			<path class="st3" d="M565.3,127.2c0,0,1.9-0.1,2.1,0c1.2,0.3,0.6,1.5,1,2.4c0.1,0.3,1.3,0,1.7,0c0.2,0,0.3,0.5,0.5,0.5h5.4
				c-0.1,0-0.2-0.2-0.2-0.3c-1.5-1.4-3.8-2-3.8-4.5c0-4.4,4.8-9.1,8.3-10.1c1.2-0.3,1.6-1.9,3.3-1.9c0.8,0,1.1-1.4,1.5-1.6
				c2.3-1.1,4-0.6,6.5-1.7c1.7-0.8,7.1-1.3,7.1-3.6c0-0.8-1.9-1.7-2.8-1.7c-3.5,0-6.7,4-10.4,4c-0.8,0-1.3-0.8-2.1-0.8
				c-1.3,0-1.3,0.8-2.2,0.8c-2.6,0-4.5,3.3-6.3,3.3c-1,0-1.7,0.5-2.8,0.5c-0.5,0-0.7,0.4-0.7,0.7c0,0.4,0.5,0.7,0.5,1.3
				c0,1.9-3.6,3-3.6,4.2c0,0.6,1,0.7,1.1,1.5c-1.1,0.3-3.3,0.8-3.3,1.9c0,0.8,0,1,0,1c0,1.3-2.2,1.1-2.2,2.8
				C564.1,126.6,565.3,127.2,565.3,127.2z"/>
			<path class="st3" d="M575.3,129.3l0.4,0.4C575.6,129.5,575.5,129.4,575.3,129.3z"/>
			<path class="st3" d="M569.3,224.1c-1,0.2-2.2,0.4-3.4,0.4c-0.9,0-2.7,0.1-3.3-0.4c-0.4-0.4-0.6-1.1-1.2-1.3
				c-0.8-0.1-1.7,0.3-2-0.5c-0.4-0.8,0.2-1.4-0.4-2.2c-0.3-0.6-0.9-0.5-0.9-1.2l1,0.1c0.8-1.1,0.8-2.8,1.9-3.3
				c-1.9-1-4.7-5.2-4.7-7.6c0-0.7-1.5-1.7-1.5-2.8c0-0.3,1.3-2.9,1.7-3.3c0.3,0.2,2.4-1,2.6-1c1.8-0.7,2.9-1.2,5.2-1.2
				c3.8,0,4.4,1.8,5.8,3.9c-1,0.8-2.4,0.1-3.7,0.1c-1.9,0-4.7,1.8-4.9,1.7c0.1,1.4,1.2,1.3,1.6,2.1c1.3,2.3,3.2,3.2,3.2,5.9
				c0.6-0.3,1.9-1.1,2.4-1.2c0.1,1,1.2,1.4,1.2,2.5h-2.1c-0.6,0-1.3,0.9-1.4,1.9c1.5,0.2,2.4,1.7,2.4,3c0,0.8-0.4,1-0.4,1.6
				s0.8,1.4,0.8,1.5C569.3,223.4,569.3,223.5,569.3,224.1L569.3,224.1z M586.1,227.5c-0.7,0-1-0.6-1.7-0.6c-0.2,0-0.2,0.3-0.3,0.4
				c-0.2-0.4-0.2-0.8-0.2-1.4c0,0.4,0.1,0.8,0.2,1.2C584.8,226.3,585.4,227.5,586.1,227.5L586.1,227.5z M531.5,240.1L531.5,240.1
				L531.5,240.1L531.5,240.1L531.5,240.1z M502.6,180.2c0.1,0,0.2,0,0.2,0C502.7,180.2,502.7,180.2,502.6,180.2L502.6,180.2z
				 M824.1,138c-5.5-3.2-12.8-6.6-20.9-6.6c-2.2,0-3.8,0.5-3.5,1.4c2.1,6.8-3.2-0.1-4.5,0l-16-0.3c-0.9-3.6-3.3-4.9-8-4.9
				c-2.6,0-6.5,1-8-0.3c-1.4-1.2-1.5-2.9-3.5-3.5c-4.2-1.4-8.8-2.9-14.3-2.9c-5.4,0-6.2,3-6.6,5.1c-5.1,0-7.6,0-11.1,0
				c-2,0-2.2-1.1-4.5-1.3c-0.2,1-0.6,3.4-1.7,3.4c-2.9,0-4.2-3.5-4.2-5.4c0-0.5,5.6-3.7-8.7-4.9c-1.8-0.2-2.8,1-2.8,3.1h-7.6
				c-2.3-1-14.3-2.3-15.9-4.8c-9.1,7.4-7.1,2.8-7.1,2.8c2.2-2.7,23.2-9.4,5.9-12.5h-7.3c-0.7-2.1-2.2-4-5.2-4c-3.6,0-5.1,2.6-7,4.1
				c-1.4,1-10.4,4.6-9.6,1.4c-2.3,0.7-12.1,1.3-17.2,5.9c-1.1,1-1.4,3.8-3,3.8c-2.3,0-10.9-0.8-10.9,3.1c0,0.8,0.8,1.7,1,2.8
				c-1.5,1-2.1,0-6.9,0c-4.1,5.5-3.8-0.8-4.7-2.1c-0.3,2.2-1.8,3.2-3.6,4.2c0.6,2,3.5,4,1.4,6.3c-1.5,1.6,2.8,6.8,0.6,6.8
				c-2.9,0-3.7-10.5-3.7-12.7c0-2.4,3.9-3.3-2.1-4.5c-3-0.6-8.7,4.3-8.7,7c0,3.2,1.5,5.3,3.1,7c3.9,6.1-5.4-0.7-8.8-1.6
				c-9.5-2.5-6.5,0.8-6.5,1.2c-0.3,5.4-2.6,1-3.8,1c-2.2,0-6.6,2.9-9.7,1.4c-1.6-4.1-12,5.2-14.6,5.2c-0.8,0-2-0.6-1.7-1.4
				c1.1-2.8-0.5-8.9-3.5,0.3c-0.2,0.6,1,0.8,1,2.1c0,2.4-3.6,0.8-5.5,1.4c-1.9,0.6-0.7,7.3-9,3.8v2.8c-3.1-0.4-3.5-4.6-4.9-6.6
				c3,0,4.6-0.1,7.5,0.7c3.9,1,11.6-3.8-0.2-7.6c-3.4-1.1-10.9-4.9-13.2-4.9c-0.2,0-0.3-0.3-1.9-0.1c-0.2,0-1.7-0.2-2.3-0.3
				c0-0.4-0.5-0.5-1.2-1c1.6-0.6,2.2,0,2.8-1.7c-0.6-0.3-2.1-1.1-2.4-1.1c-0.6,0-0.8,0.5-1,1c-0.8-0.1-0.6-0.7-0.7-1.6
				c-1.1,0.7-1.7,1-2.6,1.9c-0.1-0.4-0.1-0.8-0.3-1.3c-1.2,0.6-1.6,2.2-3,2.1c0.3-1,1.5-1.3,1.5-2.2s-2.6,0.8-3.7,0.8
				c-0.6,0-1-0.6-1.5-1c-0.2,0.4-1.5,0.7-1.5,1c0,0.5,1,0.6,1.6,0.8c-1.3,0.7-2.8,0.3-2.8,1.9v-1.2c-3.1,0.1-3.1,1.7-3.1,1.9v-0.8
				c-1,0.2-2.5,0.1-3.2,0.8c0.3,0.3,0.1,0.2,0.4,0.6c-0.5,0.3-1,0.1-1.5,0.1c-0.7,0-1.3,0.6-1.6,1.1c0.6-0.1,0.6,0,1.1,0.1
				c-0.1,0.1-0.9,1.7-1.3,1.7c-0.9,0-1.2-0.7-2.3-0.7c0.2-0.5,0.1-0.8-0.2-1.3c-0.2,0.2-0.4,0.5-0.6,0.9c-0.2,0-0.3-0.2-0.6-0.2
				c-0.6,0-0.9,0.4-1,1.1c0,0,0.7,0.2,1,0.2c-0.3,0.1-1,0.5-1.4,1c1.7,0,2.4-0.9,4.1-1.3c-0.3,1.5-2.3,3.8-3.8,4.4
				c-1.5,0.6-2.4,1.5-3.3,2.9c0,0.1-0.7,1.6-0.7,1.6c-0.6,0-0.4,2.2-1.3,2.8c-2.1,1.7-3.3,4.1-6.3,4.9c0.6,0.1,0.9,0.3,1.7,0.5
				c-2.5-0.3-2.8,1.4-4,1.7c-1.5,0.4-2.3,1.3-3.1,2.4c-0.4,0.6-1.5,0.6-1.5,1.6c0,1.9,0.1,3.7,1.2,4.9c-0.4,0.5-0.8,1.3-0.8,1.8
				c0.8-0.3,1.1-0.3,2.1-0.3v1c-1,0.1-1.5,0.5-1.5,1c0,0.3,2.6,1.9,3,1.9c2.9,0,5.1-2.6,6.5-4.7c0.5,0.7,0.6,1.2,1.3,1.7
				c-0.1,0.3-0.4,0.7-0.4,1c0,1.3,1,1.5,1.4,2.6c0.5,1.5,0.3,2.5,1.5,3.7c0,0.2-0.1,0.5-0.1,0.7c0,0.3,1,3.6,1.5,3.6
				c1.7,0,2.2-1.9,3.3-1.9c0.6,0,0.9,0,1.9,0c0.2-2.1,1.9-1.8,2.1-3.7c-0.4-0.1-1-0.5-1-1.4c0-1.5,0.6-3.6,1.9-3.6
				c0.7,0,2.8-1.8,2.8-2.8c0-1.3-1.8-2.6-3.1-2.8c0-0.5-0.5-1-0.5-1.3v-1.4c0-0.5,0.3-1.8,0.9-2.8c0.7-1.3,1.9-1.5,3.1-2.2
				c1.5-0.8,4.6-2.2,4.6-3.8c0.2-0.4,0-0.8,0-1.6c0-1.9,1.9-2.8,4.2-2.8c1.7,0,4,0.3,4,2.1c0,1.2-1.7,1.5-2.6,2.1
				c-1.8,1-3.3,4.9-6.3,4.9c0.1,0.5,0,0.9,0,1.4c0,0.8,0.6,2.4,1.3,2.6c-0.2,0.3-1,0.8-1,1.5c0,1.5,1.5,2.4,3,2.4
				c0,0.8,0.6,0.9,1.5,0.9c1.2,0,2.8-0.6,4.2-1c1.3,0.2,4.5,0,5.2-1.4c0.6,0.8,1.3,1.1,1.7,2.4c-0.8,0.6-2.9,1.5-3.8,1.5
				c-1.2,0-1.9-0.5-3.5-0.5c-1.5,0-5,1.4-4,2.4c3.5,3.3,1.7,4.5,0.8,4.5c-1.4,0-1.6-1.7-2.8-1.7c-1.3,0-2.8,3.2-2.8,4.9
				c0,2.7-2.2,2.3-2.4,4.8c-0.8,0.1-1.7,0.2-2.5,0.2c0-0.1,0.1-0.5,0.3-0.8c-0.5-0.2-1.5-0.3-2.4-0.3c-0.8,0-1.9,1-2.6,1.3
				c-1,0.5-1.9,0.3-3.1,0.8c-0.4,0.1-0.4,0.6-1.2,0.6c0,0-1.2-0.8-1.2-1s0.3-0.4,0.4-0.8c-1.6-0.2-2.9,1.4-4.8,1.4
				c-0.2,0-0.4-0.5-0.5-0.8c-0.6,0-0.9-0.3-1.7-0.3c0.1-0.2,0-0.3,0-0.8c-0.4-0.1-0.8-0.6-0.8-1.3c0-1.2,0.7-1.9,1.3-2.6
				c0.2-0.2,0.7-0.4,0.7-0.7c0-0.2,0-0.4,0-0.6c0,0-0.9-0.1-0.9-0.8s-1.2-1.1,0.9-1.8v-0.8c-3.1,1.3-4.7,1.5-4.7,4.4
				c0,1.7,1,2.2,1.3,4.1c0,0.1,0.4,1.4,0.4,1.7c0,0.6-1.1,1.2-1.6,1.2c-0.6,0-1.3-0.4-1.8,0.1c-0.1,0.1-0.4,0.7-0.6,0.5
				c-0.5,0.2-0.1,0-1,0c-1.6,0-2.6,1.1-3.6,2.1c-0.1,0.1-0.7,0.5-0.7,0.8c0,0.8,0.2,1.7-0.3,2.2c-0.3,0.3-3.1,1.4-3.5,1.5
				c-0.3,0.1-0.6,0.1-1,0.1c-0.4,1.7-1,3.2-3.1,3.2c-0.1,0.6-0.6,0.8-1.2,0.8c-0.8,0-1.5-1.1-2.1-1.1h-0.5v1c0,0.2,0,1.3,0,1.4v0.5
				c0,0.1-1,0.3-1.5,0.3c-0.6,0-1.6-0.3-1.8-0.7c-0.7,0.2-2.6,0.6-2.6,1.3c0,0.1,0,0.3,0.1,0.3c0,1,3.1,1.6,4.2,2
				c0.3,0.1,0.4,0.4,0.8,0.5c0,1.1,0.4,2.4,1.8,2.4c0,0.6,0.4,0.4,0.4,1c0,0.3-0.1,0.8-0.3,1l0.1-0.1c0,0.4,0.1,1.6,0.1,1.9
				c0,1.3-0.9,1.7-0.9,3.1c-0.2,0-1.3,0.1-1.7,0.1c-0.7,0-1.1-0.5-1.9-0.5h-3.3c-0.3,0-0.9,0-1.2,0h-3.1c-0.4,0-0.8-0.3-1-0.3
				c-0.4,0-2.8,1.5-2.8,1.9c0,0.6,0.8,1.6,0.8,2.6c0,1.8-0.6,3.6-0.6,5.4c0,0.5-0.8,0.7-0.8,1.6c0,0.6,0,1,1,1c0,0.8,0,1.3,0,2.8
				c0,0.2,0.2,0.6,0.6,0.6c1,0,1.9-0.5,3-0.5c1.6,0,1.7,2.6,2.7,2.6c1.5,0,2.3-1.4,4-1.4c0.3,0,2-0.3,2-0.1V224
				c2.1,0.4,1.7-1.3,2.5-1.7c1.5-0.7,1.9-1.5,2.9-2.9c-0.3-0.1-0.7-0.3-0.7-0.9c0-1.5,2-4.4,3.3-4.7c1.5-0.3,3-0.8,3.4-2.2l-0.4-1.5
				c0-1,1.1-1.7,2.2-1.7c1.4,0,2.4,0.8,3.9,0.8s2.4-1.2,3.8-1.9c0.6-0.3,0.7-1.2,1.9-1.2c2.6,0,3.1,2.8,4.3,4.4
				c0.1,0.5,1.2,0.8,1.7,1.3c1.2,1.2,1.7,1.8,3.8,2.3c0,0.4,1,0.7,1.3,0.7c0.1,0.4,1.7,2.1,1.9,2.1c0.1,0.6,0.7,0.9,0.7,1.9
				c0,0.8-0.3,1.9-1.2,1.9c0,0.3,0.3,0.5,0.8,0.5c1,0,0.8-1.5,1.5-2.1c0,0,0.9,0,0.9-0.3c0-0.9-1.3-1.1-1.3-2c0-0.7,0.7-1.1,1.5-1.1
				c1.1,0,1.5,0.9,2.2,1c0.2-1.5-1.5-2-2.9-2.7c-0.4-0.2-2.1-0.6-1.8-1.4c0.1-0.1,0.1-0.3,0.1-0.6c-1,0-1.7,0.4-2.8-0.1
				c-0.6-0.3-1-1.4-1.3-2.4c-0.2-0.6-0.8-1.8-1.8-2.2c-0.8-0.3-1.5-0.7-1.5-1.7c0-0.4,0.1-0.8,0.3-1.3c-0.1,0-0.4-0.3-0.4-0.4
				c0-0.8,1.5-0.5,2.3-1c0.4,0.4,0,2.1,0.9,2.1c0.8,0,1.3,0,2.1,0c0,1,1.7,3.1,3.3,3.1c0.3,0,0.6,0,1,0c0,1,1.3,1.2,2.2,1.7
				c1,0.5,2.7,2.2,2.7,3.1c0,0.6,0,1,0,1.8c0,1.5,1,2.1,1.8,2.9c0.6,0.6,1.1,0.6,1.4,1.6c0,0.1,0.1,0.2,0.3,0.2c0.4,0,0.8,0,1.2,0
				c-0.2,2.1-0.9,1-0.9,1.4c0,1.2,1,2.7,2.1,2.7c0.1,0,0.6,0,1,0c-0.7,0-0.1-1-0.1-1.4c0-0.6-0.5-0.6-0.5-1v-0.6
				c0,0.4,1.3,0.9,2,0.9h0.1c0.1,0,0.8-0.1,1.2-0.3c-0.1-0.1-0.3-0.4-0.3-0.6c-0.6,0-2.4-1.7-2.4-1.9s0.2-0.4,0.3-0.8l-1.3-1.5
				c0-0.3,0.4-0.8,0.8-0.8c0.6,0,0.8,1,1.8,1c0.1-0.6,0.1-1,0-1.5c0.9-0.3,1.2-0.9,2.3-0.9c1.3,0,1.9,1.4,2.9,1.4
				c0.9,0,1.1-0.9,2-1.3c0.6-0.3,1.1,0,1.7-0.2c0.3-0.1,0.6,0,0.9-0.3c-0.4-0.6-1.9-1.6-1.9-3c0-1,2.3-2.4,2.3-3.1v-1.8
				c0-0.4-0.2,0.1,0.1-1c0-0.7,0.6-1,1.3-1.2c-0.1-0.3-0.1-0.7-0.2-1c1.5-0.4,1.6-2.2,3.2-2.2c1.3,0,4.4,5.2,5.4,5.2
				s4.3-1.5,4.9-2.2c-0.1,0-2-0.3-2-0.3c-0.3,0-1.2-0.2-1.2-1c0-0.6,5.1-2.4,7-3.1c0,0-0.9,1-1.3,1.2c0.1,0.4,2,2.3-2.1,3.3
				c1.7,4.1,9.7,3.4,9.7,8.9h0.3c0.2-0.1,0.4,0,0.7-0.1c-1.6,0.4-2.4,1.9-4.1,1.9c-0.7,0-1.9,0-4,0c-0.8,0-3.5-0.7-3.5-1.5
				c-1.6,0-1.5-1.1-3.4-1.1c-1.2,0-3.1-0.2-4,0.4c-0.8,0.5-2,1.2-2.9,1.2c0,0-1.3,0-2.2,0c-0.4,0-1.7-0.1-1.7,0.5
				c0,0.5,0.4,0.4,0.6,0.9c-1.3,0.6-6.3,0.3-6.3,2.4c0,0.4,0.7,0.4,1.2,0.4c-0.1,0.3,0,0.4,0,0.8c0,1.3-0.8,1.2-1.5,1.9
				c1,0.5,1.7,0.4,2.4,1.3c-0.7,0.7,1.3,1.5,1.7,1.9c-0.1,0.1-0.4,0.1-0.6,0.1h0.8c1.3,0,2,1.5,3.3,1.5s1-1.5,2.4-1.5
				c1.5,0,2,1.8,3.5,1.8c2,0,2.4-0.9,3.5-1.7c0.3,0.3,0.5,0.6,1.2,0.6c0.6,0,1.1-0.4,1.1-0.6v0.7c0,0.1-0.3,0.3-0.3,0.7
				c0,0.8,0.5,1.8,0.5,3c0,1.6-1.3,1.9-1.7,3.3c-0.4,1.4-0.6,2.2-1.1,3.7c-0.1,0.3-0.6,0.3-0.6,0.8l0.5,1.1
				c-0.1-0.2-0.2-0.4-0.3-0.7c-0.9,0.2-0.9,0.6-1.9,0.6c-1.5,0-2.3-0.9-3.6-0.9c-2.2,0-2.9,1-5.1,1c-2.4,0-5.6-1-7.8-1.9
				c-1.1-0.4-2.7,0.2-3.3-0.7c-0.3-0.4-1.1-0.5-1.1-1.6h-1.5v-0.2c-2.2,0.7-3.6,0.7-3.6,2.9c0,0.5,0,0.9,0,1.4
				c0,0.3-0.9,1.2-1.6,1.2c-5.1,0-6.9-5.4-11.5-5.4c-0.6,0-1.1,0-1.9,0c-1.3,0-3.1-1.7-3.1-3.5c0-1,0.9-1.7,0.9-2.7
				c0-0.6-0.9-1-0.9-1.6c0-0.9,1-0.8,1-1.8c-0.4,0.1-0.6,0.4-1,0.4c-1.1,0-0.8-1.3-2.1-1.3c-1.3,0-1.4,1-2.8,1
				c-0.8,0-1.2-0.5-2.1-0.5c-1,0-2.2,1-2.9,1c-0.6,0-1.5-0.7-2.4-0.7c-3.1,0-8.3,1.9-11,3.3c-0.8,0.4-1.1,1.3-2.6,1.3
				c-2.4,0-4.2-0.1-5.9-1.3c-0.7,0.6-0.8,1.2-1.4,2.3h0.1c-1.7,1-4.1,3.9-5.9,6.2c-1.4,1.7-0.3,2.7-1.2,5.2c-0.4,1.1-2.1,2.4-3.1,3
				c-1.2,0.7-3.1,0.5-4,1.8c-1.7,2.3-3.8,6-4.7,8.7c-0.3,1.1-1.9,1.9-1.9,3.3c0,2.8,1.4,4.7,1.4,7.8c0,1.7-1.4,5.5-2.9,6.3
				c0.5,1,1,1.2,1,2.1c0,0.6,0.4,1,0.4,2.1h-0.2c0.3,0,0.6,0.7,0.9,1.1c0,0.3,3.7,3.6,4.2,4c1.7,1.4,2.2,3.1,3.5,5.1
				c1.5,2.2,5.5,4.6,7.4,6.1c0.3,0.2,1.3,0.6,2.1,0.6c2.7,0,3.9-1.4,6.6-1.4c1.4,0,3.1,1,4.2,1c1,0,1.4-0.9,2.4-1.3
				c2.6-0.8,5.2-2.6,8.7-2.6c2.9,0,3.3,3.9,5.4,3.9c0.6,0,1.7,0,2.9,0c2.4,0,3.6,1.6,4.4,3.1c-0.7,0.6-0.7,2.7-0.7,3.6
				c0,0.3-0.3,0.5,0,1.1c-0.5,0.3-1.6,2-1.6,2.8c0,3.3,4,5.7,5.8,8c0.9,1.2,0.6,2.8,1.2,4.2c0.7,1.7,1.2,2.8,1.7,5.8
				c0.2,1.5,0.9,2.2,0.9,4c0,3.7-4.4,4.9-4.4,9.7c0,4.5,2,7.2,4,10.4c0.6,1,1.3,1.3,1.3,2.3c0,0.6,0,0.8,0,1.9
				c0,6.1,3.2,10.2,5.7,14.5c0.3,0.6,2.3,2.7,2.3,3.8c0,0.8-0.3,1.3-0.9,1.9c0.6,0.6,1.3,2.1,1.3,3.5c0.1-0.1,0.3-0.3,0.7-0.4
				c0.4,0.8,1,1.4,2.2,1.4c2.6,0,4.4-2.1,7.3-2.1c0.8,0,1.2,0.7,1.9,0.7c0.6,0,1.2-0.4,2.1-0.5c0.2-1.3,2-0.7,3.1-1.3
				c2.8-1.4,3.6-3.3,5.4-5.6c1.1-1.4,1.2-3,2.8-4.5c0.8-0.8,2.8-2.4,2.8-4.3c0-0.6-0.4-1.1-1-1.5c0.8-1.7,1.8-2.4,3.5-3.3
				c0.5-0.2,1.7,0.1,2.1-0.5c0.4-0.6,0.6-2.9,0.6-4c0-2.1-2-3.1-2-4.7c0-0.8,1.1-1.9,2.1-2.1c0.8-4.6,10-4,10-9.4
				c0-0.6-0.1-1-0.5-1.4c0-2,0.3-3.3,0.3-4.4v-1.7c0-0.1,0.4-0.6,0.4-1c0-1.3-2.6-2.5-2.6-4.9c0-2.1-0.6-3.1-0.6-5.2
				c0-2,1.8-2.4,2.3-4.2c1.7-6.2,6.7-7.3,11.3-10.9c2.6-2,3.5-4.5,5.6-7.3c1.7-2.4,4.9-7.5,4.9-11.5c0-0.4-0.3-0.6-0.5-1
				c-2.5,0.6-5,1.7-7.7,2.1c-1,0.1-1.7-0.4-2.8,0c-0.9,0.3-1,1.2-2.1,1.2c-1.2,0-2.1-2.2-3-2.9c0.7-0.8,0-1,0-2.2
				c-2.3,0-2.9-2.9-4-3.7c-1.3-0.9-2-1-3.1-2.1c-1.3-1.3-0.7-3.1-2-4.7c-1-1.4-2.3-1.4-3.4-3.3v-3.7c-2.1-0.8-3.1-3.9-2.7-5.4
				l-6.2-10.7v-1.2c1,1.2,2.6,4.3,4,4.5c0.2-0.7,1.1-2.5,1.4-3.5c-0.1,0.9-0.3,1.7-0.3,2.2c0,0.2,1,1.3,1.2,1.7
				c0.8,1.2,1.5,2.2,2.3,3.5c0.3,0.4,0.8,1,1,1.7c0.1,0.4,0,1.5,0.4,1.9c0.2,0.2,1.1,0.1,1.4,0.3c0.2,0.2,0.6,0.6,0.9,0.9
				c0.3,1.3,1.2,1.7,1.2,3.3c0,2.6,0.6,4.1,3,4.6c0,1.7,1.9,4.1,2.8,4.9c0.8,0.8,1.9,1.4,1.6,2.9c-0.1,0.6-0.7,1.9,0.1,2
				c0,1.3,0.5,2.5,1.2,3.5c0.5,0.7-0.1,0.7,0.1,0.8c0.2,0.1,2,1,2.2,1l0.4-0.1c1.5,0,1.6-1.2,2.8-1.2h2.2c0.9,0,3.7-2.6,4.5-2.8
				c1.7-0.4,3.8-1,5.4-1.8c-0.1-0.1-0.3-0.5-0.3-0.7c0-1.5,4.2-2.3,6.1-2.7c0-0.8,1.3-2,1.9-2c1,0,1-2,2-2c0.8,0,0.8-1.2,1-2
				c0.3-0.8,1-1.1,2-1.1c0-1.7,1.7-2.2,1.7-3.8c0-0.6-0.6-0.5-1.6-1.1v0.1c0-0.3,0.2-1.5-0.6-1.7c-2-0.6-3.6-1-3.6-3v-2.6
				c-4.1,1.9-3.3,4.7-8,4.7c-1,0-3.1-0.5-3.1-1.5c0-0.8,0.4-1.4,0.4-2.2c0-0.3-0.1-0.5-0.1-0.8c-0.7,0.1-0.6,1-1.4,1.3
				c-0.1-0.6-0.5-0.8-0.5-1.6c-1.6-0.3-3.6-3.3-4-5c-0.1-0.6-0.1-0.9-0.1-1.6c0-1,0.4-2.2,1.4-2.2c1.9,0,3.5,2.2,4.2,3.7
				c0.1,0.3-0.1,0.8,0.3,1.2c0.8,0.8,1.9,0.4,2.7,1.2c0.7,0.7,1.3,2,2.4,2h3.5c0.4,0,0.7-1.1,1.5-1.1c1.5,0,1.5,2.1,2.1,2.8
				c0.1,0.1,2.1,0.6,2.4,0.6c1.9,0,4.9,0.8,6.3,0.8c0.1,0,0.3,0,0.3,0l2.4-0.1c0.1-0.1,0.3-0.3,0.6-0.5l1.8,0.5
				c0.7,0,0.9-0.6,1.7-0.6s1.3-0.1,2.1,0.1c0.8,0.3,1.2,1.9,1.8,2.8c0.7,1,2.7,2.4,4.1,2.4c0.6,0,1,0,1.6,0.1
				c-0.3,0.3-0.4,0.9-0.9,1c-0.6,0.2-1.1-0.1-1.7,0.3c1,1,1.9,3.3,4,3.3c1.8,0,1.9-2.1,2.8-3.2h0.6c0,0-0.4,0.7-0.4,0.9
				c0,0.9,0.7,1.7,0.7,2.8c0,0.9-0.3,1-0.3,2l-0.1-0.1c0,0.2,0.1,0.8,0.1,1c0,1.3,0.8,2.6,1.2,4c0.5,1.5,1.7,3.8,2.1,4.9
				c0.3,0.9,0.3,1.3,0.8,2.2c0.6,0.8,0.2,1.7,0.8,2.9c0.3,0.6,1.3,1.3,1.5,2.2c0.5,1.5,1.3,2.9,1.8,4.5c0.1,0.2,0.3,0.7,0.6,0.7
				c0.1,0.5,0.5,0.8,1,0.7c0.6,0,0.6-0.8,0.9-1.4c0.3-0.7,0.5-0.4,1.3-0.8c0.6-0.3,0.4-2.1,1.3-2.4c0.2-0.1,0.7-0.1,0.7-0.3l0.3-0.1
				l-0.3-1.8c0-1.3,0.8-2.4,0.8-4.2c0-1.1-0.5-1.8-0.5-3.1c0-1.5,1.5-1.7,2.7-2.1c0.5-0.1,1.3-1,1.8-1.5c1.3-1.3,2.6-2.7,4-4.1
				c1.1-1.1,3.1-1.5,4.4-2.7c0.6-0.6,0.6-1.4,0.8-2.4c0.2-0.6,1.7-0.7,2.2-1.7c0.6,0.3,0.6,0.7,1.7,0.7c1.8,0,3.8-0.4,3.8-2.5
				c1,0.2,2.2,0.6,2.5,1.6c0.3,0.8,0.1,2,0.7,2.8c0.6,0.9,1.3,1.5,2.3,2.2c0.7,1.1,1.5,2.2,2,3.7c0.1,0.3,0.4,0.6,0.4,0.9
				c0,0.8-0.3,1.2-0.3,2.1s0.1,1.7,1.1,1.7c2,0,2.4-2,3.6-3.2c0.4,0.4,0.2,0.7,0.6,1.1c0.1,0.1,0.7,0,0.9,0.3c0.7,1-0.7,3.1,0.2,3.1
				c0,2.2,1.6,4.2,1.6,7.2c0,0.8,0,2.8,0,2.8h0.2h-0.1c-0.2,1-0.1,1.3-0.1,2.3c0,0.1,0,0.8,0,0.8s0.1,0,0.8,0c1.1,0,1.5,2.3,2,3.3
				c0.8,1.6,0.9,3,1.5,5c0.8,2.3,2.7,4.3,4.9,5c0.4,0.1,0.5,0.6,1.2,0.6c0.2,0,0.3-0.3,0.5-0.3c0.3,0,0.3,0,0.9-0.1
				c-0.3-0.8-0.3-1.1-0.6-2c-0.3-0.8-1.3-1.3-1.3-2.5c0-0.6,0.3-0.6,0.3-1.3c0-3.5-4.1-4.3-6-6.1c-0.5-0.5-0.6-0.5-0.8-2.6h0.1
				c0-1-2.4-0.8-2.4-3c0-1.9,2-2.2,2-4.3c0-0.6-0.3-0.6-0.3-1.2c0-0.3-0.1-0.7,0.4-0.7c0.8,0,1.6,0.2,1.8,0.9c0,0,0.2,0.9,0.3,0.9
				c1.1,0.3,2.1,0.4,3.1,1.4c0.8,0.8,0.1,1.9,1.6,1.9c0,1,1.4,1.4,2.4,1.4c0.1,0.4,0.2,0.9,0.5,1c-0.3,0.1-0.3,0.4-0.3,1
				c0,0.4,0.1,1.4,0.4,1.4s1.5-1,1.5-1.7c0-0.1,0-0.4,0-0.8c0,0.2,0.2,0.6,0.4,0.6c0.8,0,0.8-1.1,1.6-1.5c1.8-0.9,2.1-1.7,4.3-2.2
				c0-1.3,0.9-1.9,0.9-3.5c0-2.3-1.1-5.4-2.8-6.5s-2.4-2.9-4-4.5c-0.3-0.3-0.6-0.4-0.6-1c0-3,3.4-3.5,4.8-5.6c1.2,0.6,2,0.1,3.3,0.8
				c-0.1,0.4-0.3,1.7,0.3,1.7c0.8,0,0.4-0.9,0.9-1.5c0.5-0.5,1.9-0.7,2.4-1c1.3-0.6,2.6-0.3,3.5-1.2c0,0,0.7-1.3,0.8-1.3
				c0.7,0,1,0.6,1.7,0.6c3.2,0,4-1.9,5.9-3.1c0.6-0.3,0.9-0.6,1-1.3c1.7,0,2.2-2.6,2.8-3.9c0.4-0.8,2.3-3.6,3.3-3.8
				c0-1.5,1-2.2,1-4.2c0-3-0.7-4.1-1.9-6c-0.2-0.3-0.2-1.1-0.8-1.5h0.1h-0.1c0,0-0.1-1.2-0.1-1.4c-0.6-0.1-1.9-0.8-1.9-1.8
				c0-0.8,1.2-0.9,1.5-1.8c0.6-1.9,3.6-1.9,5-3.3c-0.6-0.8-1.6,0-2.6-0.6c-0.5-0.3-0.8-0.8-1.5-0.8c-0.6,0-0.6,1.5-1,1.5
				c-0.6,0-1.3,0.2-1.8-0.1c-0.8-0.6-0.6-1.3-1.4-1.9c-0.3-0.2-1.5-0.5-1.5-1.2c0-1.5,2-1,3-1.7c0.8-0.6,2.4-1.7,3-2.6
				c0.1-0.2,0.4-0.9,1.1-0.9c0.6,0,1.3,0.9,1.3,1.3c0,1.1-1.3,1.6-1.3,2.8c1.9,0,3.5-2.1,5.8-2.1c0.8,0,1.2,0.8,2.2,0.8
				c-0.4,0.7,0,0.7,0,1.5c0,0.7-0.8,0.6-0.8,1.5c0,0.3,0.2,1.2,0.7,1.2c0.2,0,0.5-0.3,1-0.3c0.8,0,1.8,0.6,1.8,1.4
				c0,0.5-1.1,0.9-1.1,0.9v0.7c0,0.1,0.3,0.4,0.7,0.5c0,0.4,0.4,0.8,0.4,1.2c0,0.2-0.6,1.1-0.6,1.6c0,0.3,0,0.6,0.3,0.6
				c-0.1,0.3-0.4,0.9-0.4,0.9h1c0.4,0,0.6-0.4,1.4-0.6c0-0.6,1.7-0.7,2.2-0.8c1-0.3,1.4-1,1.4-2.6c0-2.7-1-4.3-2.6-5.8
				c-0.6-0.6-1.3-1.2-1.2-2.4c0.8,0,1.5-0.5,2.1-1c0.5-0.5,1.7-1.2,2-1.7c0.9-1.9,1.5-3,3.1-4.3c0,0,2.7,0.7,4.9,0.7
				c4,0,7.7-8.4,10.5-11.2c1.1-1.1,2.7-3.4,3.1-5.2c0.5-2-0.3-3.3,0.8-5.2c0.4-0.7,1.2-2.3,1.2-3.8c0-1.9-3-5.5-4.4-4.5
				c-4.1,3.1-6.3-1.7-6.3-2.1c0-1.9,3.8-4.1,5.2-5.6c2.2-2.2,5-5.8,8-6.6c2.6-0.7,10.9-1.5,13.2-1.5c2.8,0,4.2,1.3,5.9,1.3
				c1,0,1.6,0,3.8,0c1.1-4.1,3.2-7.2,8-7.2c1.3,0,1.8-0.3,4.2,0.1c-1.2,0.9-1.7,7,5.9-2.4c0.8-0.1,4.4,1.4-1,4.9
				c-1.9,1.2-3.6,0.6-4.9,2.4c-1.5,2.1-2.8,4.7-4.9,5.9c-1.7,1-4.2,2.6-4.2,5.6c0,2.6,0.8,11,2.8,12.5c1.4-2.1,2.4-5.9,5.2-6.6
				c-0.3-1.9,2.8-2.4,2.8-3.8c0-2.3,2.4-2.9,2.4-4.2c0-0.8-0.7-1.7,0-3.1c5.6-12,10.8-5.6,12.9-5.6c6.2,0,10.6-7.9,16-8
				c10.3-0.2,2.1-4.1,2.1-5.2c0-3,4-2.5,4.9-4.2c0.3-0.7-0.3-2.4,1-2.4c4.4,0,8,5.9,11.1,5.9c1.4,0,1.7-2.6,2.4-3.5
				c1.2-1.4,2.3-1.3,4.2-1.9C836.2,142.2,828.1,140.3,824.1,138z"/>
			<path class="st3" d="M816.7,128.6c0.8,0,6.3-0.3,6.3-1.3s-2.6-1.7-3.7-1.7c-1.2,0-3.3,1.2-3.3,2.3
				C816,128.2,816.2,128.6,816.7,128.6z"/>
			<path class="st3" d="M797,132.8c0.3,0,0.7-0.4,0.7-0.8c0-0.4-0.4-0.9-0.5-0.9h-2.3C795.3,132.1,796,132.8,797,132.8z"/>
			<path class="st3" d="M730.8,110.9c0.5,0,0.6-0.5,0.7-0.9l0,0l0,0v-0.1h-0.1l-0.6-0.6c-0.3,0.4-0.6,0.6-0.6,1
				C730.2,110.7,730.4,110.9,730.8,110.9z"/>
			<path class="st3" d="M685,114.3c-0.7,0-1.5,0.3-1.5,1c0,0.6,0.8,0.8,1.5,0.8c0.6,0,1-0.2,1.4-0.4c0.1-0.1,0.2-0.3,0.2-0.4
				C686.6,114.5,686,114.3,685,114.3z"/>
			<path class="st3" d="M686.1,116.2l0.6-0.5c-0.1,0-0.1,0.1-0.2,0.1C686.3,116,686.2,116.1,686.1,116.2z"/>
			<path class="st3" d="M658.9,99.9c0,0.7,0.2,1,1,1l3.7-1c0,0,2.2-0.4,2.4-0.4c1.3,0.2,4.9-0.1,4.9-1.7c0-1-2.9-2.8-3.8-2.8
				c-0.5,0-0.8,0.9-1.3,1.1c0.6-0.6,0.2-0.1,0.2-1.2c-0.3,0-0.3,0-0.9,0c-2.8,0-3.4,2.2-5,3.8C659.8,99.1,658.9,98.8,658.9,99.9z"/>
			<path class="st3" d="M642.1,91.5c0,0.6,1,1.7,1.4,1.7c0.8,0,3.1-0.1,3.3-1.4c-0.5-0.1-2.4-1-2.8-1
				C643.6,90.8,642.1,90.8,642.1,91.5z"/>
			<path class="st3" d="M651.6,91.3c-2.2,0.7-2.9,1.5-5.2,2.2c1,0.6,2.9,2.5,3.7,2.5c2.5,0,4.7,1.3,7.8,1.3c0.6,0,1.4-0.4,1.4-1
				c0-0.5-0.6-0.7-1-0.8c0.4-0.1,1.4-0.2,1.4-0.9c0-0.7-0.1-0.3,0.6-0.8c-0.9-0.9-0.9-0.8-2.3-0.8c-0.5,0-0.9,0-1.4,0
				c-0.8,0-1.2-1.3-2.1-1.3c-0.6,0-0.8-0.5-1.5-0.3c0.6-0.3,1.3-1,1.3-1.4c0-0.3,0.1-0.6,0-1.5c0.3,0.1,0.1,0.2,0.8-0.1
				c-1.1-0.8-2.2-2.7-4.2-2.7c-3.3,0-4.4,3.3-7.3,4.1c1.8,0.9,3.1,1.5,5.1,1.5C649.1,91.2,650.9,91.3,651.6,91.3z"/>
			<path class="st3" d="M651.5,105.5c0.8,0,1.3-0.3,1.4-1.3h-1c-0.3,0-0.6,0.4-1,0.7C650.9,105.2,651.1,105.5,651.5,105.5z"/>
			<path class="st3" d="M643.2,86.2l-0.2-0.6h-2.6C640.8,87.7,642.1,86.3,643.2,86.2z"/>
			<path class="st3" d="M674.6,100.4c0.5,0,0.8-0.6,0.9-1c-0.6,0.3-0.8-0.1-2.3,0.2C673.4,99.9,673.8,100.4,674.6,100.4z"/>
			<path class="st3" d="M554.3,88.4c0.6,0,1,0.4,1.6,0.6c-0.3,0.3-0.7,0.4-1,0.6c0.3,0.1,0.6,0.1,1.2,0.1c-0.6,0.1-0.9,0.1-1.5,0.4
				c0.2,0.6,0.9,0.6,1.9,0.6h-0.1c0.2,0,0.4,0.8,0.8,0.9c0.6,0.1,0.8-1.1,1.4-1.4c1-0.5,1.4,0.2,2.4-0.2v-0.4c0,0.1,0.5,0.1,0.7,0
				c0.8-0.6,1.7,0,1.9-1.3c-0.4-0.1-1.3-0.7-2.1-0.7c-1,0-1.5,0.9-2.6,0.9c-1.3,0-2.3-0.9-4-0.9c-1.5,0-4.7,0.2-5.4,1.3
				c0.6,0.1,1,0.3,1.5,0.3C552.2,89.3,553.5,88.4,554.3,88.4z"/>
			<path class="st3" d="M561.6,89.8c-0.2,0.1-0.3,0.2-0.5,0.3v0.3L561.6,89.8z"/>
			<path class="st3" d="M587.3,88c0.5,0,3.2-0.6,3.7-0.9l-1-2.2c-1,0-3.9,1.1-3.9,2.1C586.1,87.7,586.5,88,587.3,88z"/>
			<path class="st3" d="M583.5,89.8l-0.3-0.8c0.6,0,1.3,0.3,1.7-0.4c0-0.3,0.1-0.4,0-1c-0.6,0.1-1.8,0.4-2.2,0.3
				c0.1,0,0.6-0.2,0.7-0.2h-2.3c0,0-0.1,0,0,0.6c-0.8,0.3-1.4,0.7-1.4,1.7C579.7,90.3,583.1,90,583.5,89.8z"/>
			<path class="st3" d="M576.2,89.6c-0.7,0-3.5,0.4-3.5,1.4c0,0.3,0.3,0.5,0.7,0.5c0.6,0,0.9,0,1-0.7c0.4,0,1,0.7,1.4,0.7
				c1,0,0.9-1,2.3-1C577.8,90,577.1,89.6,576.2,89.6z"/>
			<path class="st3" d="M575.8,88.3c0.8,0,1.5,0.1,2.1-0.3c-1.5-0.6-2-0.8-4-1c0.7-0.7,2.1-1.1,3.2-1.8c0-0.3,0.3-0.7,0.6-0.9
				c0-0.2-0.1-0.8-0.2-0.8c-0.6,0-1,0.6-1.1,1.2c-2,0-2,1.4-4.1,1.4V87c1-0.4,0.2-1.2,1,0.8h-2.9c-0.3,0-0.5,0.1-0.9,0.4
				c0.1,0.1,3,1.1,3.5,1.1C573.9,89.3,575,88.3,575.8,88.3z"/>
			<path class="st3" d="M485.1,95.9c0.2,0,0.3,0.2,0.6,0.3c-0.3,1.1,0.8,1.7,1.9,2.3c-0.2,0-0.3,0.1-0.6,0.1
				c0.3,0.7,1.1,1.2,2.2,1.2c1.5,0,1.5-1.8,2.1-1.8c0.2,0,0.3,0,0.6,0c0.3,0,0.9,0,1,0c0.3,0,0.8,0,1.8,0c-0.8,1-2.6,1.7-3.5,2
				c-0.4,0.1-2,0.2-2,0.8c0,1.7,1.8,1,2.6,1c0.5,0,2.7,0.1,3.1,0.4c-0.8,0.2-1.6,0-2.3,0.6c0,0-1.6-0.2-2.6-0.1
				c0,2.4,3.8,3.3,5.4,4.4c1-1,0.8-2.9,2-3.8c0.4-0.3,0.9-0.1,1-0.6c0.7-1.8,1.5-4.9,3.8-4.9c0,0,0.6,0.9,1.7,1
				c-0.3,0-0.6,0.1-1,0.1c0.3,0.6,0.9,1.8,1.4,1.9c-0.1,1-0.9,0.7-1,2c0.9,0.1,2.4,0,3.2,0.1c-0.2,0.4-0.2,0.7-0.1,1.3
				c1.7-0.6,2.5-1.9,4.4-2.5c-0.6-0.9-2.6-0.6-2.6-2.7c-0.8,0-1.2,0-2.2,0c0.2,0,0.1-0.5,0-0.9c-0.5,0.1-0.7,0.2-1.3,0.1
				c0.2,0,0.5,0,0.7,0c-0.7-0.8-4.4-2.9-5.6-2.9c-0.2,0-0.5-0.1-0.7-0.1c0.1-0.6,0.3-1.7-0.8-1.7c-0.6,0-0.7,0.6-1.2,0.9
				c0-0.5,0.2-0.9,0.2-1.4c0-0.7-1.9-1.4-2.8-1.4s-1.4,0-1.4,1c0,1.3,0.4,1.9,0.8,3.1c-1.7-0.6-1.3-3.1-3.1-3.1
				c-0.6,0-1.2,0.6-1.2,1.2c0,0.4,0.2,0.8,0.5,0.9c-0.5-0.5-1.2-0.5-1.9-1c0.2-0.4,0.5-0.6,0.8-1c-1.6-0.3-2.4-0.3-3.5-0.3
				c-0.7,0-2.2,1.3-2.4,1.7C483.8,94.7,484.6,95.9,485.1,95.9z"/>
			<path class="st3" d="M498.8,92.3c-0.1,1.6,1.3,0.7,2.4,0.7c0.1,0,3,0.2,3.3,0.2c-0.3,0.1-1.1,0.1-1.7,0.3c-0.1,0-0.9,0.1-1.4,0.2
				c0.1,0.6,0.3,1.2,0.9,1.2h4c0.5,1,1.2,1.1,2.4,1.1c2,0,5.5-2.3,7.2-3.5c-0.4-0.8-1.7-1.8-3.1-1.8c-1,0-0.6,0-2.3,0
				c-1,0-1.5,0.7-2.1,0.7c-0.1-0.5,0-1.7,0-1.7h-0.8c-0.3,0-0.9,1.5-1.7,1.5c-0.3,0-2.4-1.5-2.8-1.5h-1.9h0.3h-1.4v0.9
				c0,0.2-0.8,0.1-1.2,0.1h-1C497.9,90.8,498.3,91.9,498.8,92.3z"/>
			<path class="st3" d="M483.5,96.7c-0.1,0-0.1,0-0.1,0.1l0.1,0.1V96.7z"/>
			<path class="st3" d="M485.7,99.7c-0.5-1.5-1.4-1.8-2.3-2.9C482.3,97.5,484.4,99.4,485.7,99.7z"/>
			<path class="st3" d="M483.3,96.7C483.4,96.8,483.4,96.8,483.3,96.7C483.4,96.8,483.4,96.8,483.3,96.7L483.3,96.7z"/>
			<path class="st3" d="M442.9,187.1c0,0.8,0.9,1.6,1.7,1.6c0.4,0,1-0.1,1.3-0.3c0.6-0.3,1.4-1.5,2.5-1.5c0.7,0,1.4,0.1,1.8-0.3
				c0.6-0.6,0.1-1.4,0.1-1.9c0-0.1,0-1.9,0-2.4c0-0.6,1.2-0.9,1.2-1.4c0-1.2-0.8-3.2-2.4-3.2c-0.4,0-0.8,0-1.2,0
				c-0.7,0-2.1,1.2-2.1,1.7c0,0.3,0.1,0.7,0.4,1.1c-0.4,0.4-1.6,0.9-2,0.9c-0.2,0-0.8-0.1-0.8,0.8c0,0.7,0.6,1.1,1.3,1.5
				C444.7,185.2,442.9,185.4,442.9,187.1z"/>
			<path class="st3" d="M449.2,171.2c0.8,0,1.3-0.8,1.3-1.6c-0.6,0-1.7,0.3-1.7,0.8C448.8,170.6,449,171.2,449.2,171.2z"/>
			<path class="st3" d="M451.5,173.2v0.6c0,0.1-0.8,0.6-0.8,0.9c0,0.3,0.8,0.5,0.8,0.6v0.6c0,0.1,0,0.3,0,0.5c0,0.3,0,1.3,0,1.3h0.8
				c-0.1,0-0.3-0.6,0-1.2c0.2,0.1,0.6,0.3,1.2,0.3c-0.2,0.6,0,0.7,0,1.3s-0.7,0.9-0.7,1.5s0.5,0.5,1.1,0.5s0.9-0.3,1.6-0.3
				c0.2,0,0.4,0.1,0.6,0.1c-0.1,0.3-0.3,0.4-0.3,1c0,0.7-0.2,0.8,1.9,0.8v1c0,0.7-2.1,1.3-3.3,1.3c0,0.8,0.4,1.1,0.4,2
				c0,1-2,1.1-2,2.2c0,0.1,0.2,0.3,0.3,0.3c0.3,0,0.3-0.3,0.7-0.3c0.8,0,1,0.8,1.9,0.8c0.5,0,1-0.3,1.2-0.7c0,0.1,0.1,0.3,0.1,0.5
				c0,1-1.3,0.6-2.3,0.9c-0.2,0.1-2.3,2.3-2.3,2.6l0,0h0.3c0.3,0,0.5,0,1,0h1c0,0,0.4-1.2,1.1-1.2c0.5,0,0.8,0.1,1.3,0.1
				c1,0,2.9-0.9,3.6-0.9c0.4,0,1.9,0,2.8,0c0.8,0,0.4,0.2,1.4-0.5v-0.5c0,0-0.4-0.1-1.1-0.3c0.6-0.9,2.4-1.5,2.4-2.8
				c0-0.7-0.6-1.3-1.4-1.3c-0.6,0-0.4-0.1-0.9,0.3l0.6-0.3c-0.3,0.1-0.6,0.3-0.6,0.5v-0.5c0-0.1,0.1-0.3,0.1-0.5
				c0-0.6-0.9-0.9-0.9-1.5c0-1.7-1.9-2.2-3-3.3c-0.8-0.8-0.7-2.5-2-2.9c-0.6-0.1-0.9,0.1-1.6-0.1c0.1-0.3,0.3-0.6,0.5-0.7
				c0-1.5,2.1-2.3,1.9-4.4h-4.1c-0.1,0-0.2-0.2-0.2-0.4c0.2-1,1.7-1,1.7-1.9c0-0.1-0.4-0.8-0.7-0.8c-0.5,0-1.3,0-2,0
				c-0.4,0-1.1,0.8-1.1,1.1s-0.3,0.7-0.3,1.3c-0.5,0-1,0.3-1,0.9c0,0.1,0.2,0.4,0.3,0.4c0,0.1-0.1,0.7-0.3,0.7
				c-0.1,0-0.5-0.3-0.5-0.3h-1.1C449.8,172.5,450.4,173,451.5,173.2z"/>
			<path class="st3" d="M453.8,181c-0.4,0.2-0.5,0.5-0.5,0.8c0.4,0,0.6,0,0.8,0c0-0.3,0.1-0.6,0.1-0.8
				C454.1,181,453.8,181,453.8,181z"/>
			<path class="st3" d="M435.8,149.2l0.1-0.1c0-1.9-2.6-1.5-2.6-3.5c0-0.2,0.2-0.5,0.4-0.6c-0.6,0-1,0.4-1.7,0.4s-1.3-0.1-1.3-0.9
				c-0.3,0.2-0.3,0.1-0.8,0c-0.1,0.3-0.3,0.5-0.3,1c-0.6-0.6-1.5,0.2-2.4,0.2c-0.6,0-1.2-0.2-2.2-0.2c0,0.2-0.1,0.5,0,0.7
				c-0.3-0.1-0.4-0.3-1-0.5l-1.7,0.4c-0.4,0-0.6-0.3-0.9-0.6c-0.2,0.3-0.1,0.4,0,0.9c-0.3,0.1-0.8,0.4-1.3,0.4s-1.1-0.8-1-1.3
				c-0.1-0.4-0.3,0.1-0.4-0.9c-0.2,0-0.3,0-0.6,0c-0.6,0-1,0.5-1,0.5c0,0.2,0,0.3,0,0.6c0-0.2-0.9-0.3-1.5-0.1
				c0.1,0.8,2.7,1.5,3.5,1.5c0,0.2,0,0.4,0.3,0.6c-0.8,0.3-2.6,0.6-3.6,0.6c0.7,0.7,1.9,0,3,0.3c-0.1,0.8-0.4,1.2-0.4,2.1
				c-0.2,0-0.4,0.2-0.6,0.3c1.5,0,2.1,1,3.1,1.3c1.9,0.6,3.7,1.3,6.3,1.3c2.4,0,3.7-1.2,5.4-1.7
				C433.5,151.4,435.2,150.2,435.8,149.2z"/>
			<path class="st3" d="M315.8,261.2c-0.5-0.2-0.8-1.2-1.6-1.4l-1-0.1c-0.1-0.1,0-0.3,0-0.5c-1.6,0-3.3-0.8-4.3-1.7
				c-0.1-0.1-0.7-0.8-1.2-0.8c-2.3,0-3.8-1.1-6.8-1.1c-3.1,0-4.6,0.6-5.7,3.7h0.6c0.7-2.1,2.6-2.3,3.9-2.3c0.3,0,0.7-0.4,1-0.2
				c-0.2,0.2-0.3,0.4,0.1,0.4h2c1,0,1.5,1.1,2.4,1.1c0.6,0,0.9-0.2,1.5,0.1c0.3,0.1,0.2,0.6,0.8,0.6c0.2,1,1.2,1,2.2,1.5
				c-0.1,0.4,0.2,0.6-0.9,0.6c0,0.1,0,0.3,0,0.4c1,0,2.6,0.5,4.2,0.5C313.8,262,315.3,262,315.8,261.2z"/>
			<path class="st3" d="M298.6,257.6v0.5c-0.2,0-0.6,0.1-0.6,0.6c0,0.1,0.9,0,1,0c0.1-0.4,0.1-0.7,0-1l-0.2-0.1H298.6z"/>
			<path class="st3" d="M308.4,265c0,0.6,0.6,1,1.1,1c0.8,0,1.5-0.3,2.3-0.4c-0.1-0.3-0.2-0.5-0.6-0.6l0.1,0.1
				c-0.4-0.1-1.4-0.6-2.2-0.6C308.8,264.6,308.4,264.8,308.4,265z"/>
			<path class="st3" d="M330.3,264.9c0,0.7,0.9,0.8,1.7,0.8c0.4,0,0.9,0,1.1-0.4c-0.2-0.4-1.9-0.8-2.1-0.8S330.3,264.6,330.3,264.9z
				"/>
			<path class="st3" d="M315.9,264.6c0,0.4,0.4,1,0.8,1.1c0-0.2,0.1-0.3,0.1-0.6c0.3,0.2,0.3,0,0.8,0c0.8,0,2.5-0.2,3.1,0.2
				c0.3,0.2,0.2,0.9,0.8,0.9c0.8,0,0.7-1.3,1.6-1.3c0.3,0,0.3,0.2,0.7,0.2c0.5,0,0.8,0.3,1.3-0.7h2.6c-0.5,0-1.2-0.8-1.9-1.4
				l0.3,0.4c-1.2-0.6-1.7-1.8-3.9-1.8c-0.8,0-1.2,0.3-2.1,0.3c-0.6,0-1-0.5-1.7-0.5c-0.2,0-0.6,0.3-0.6,0.5c0,0.4,0.5,0.8,0.9,0.8
				c0,0.6,0.1,1,0.5,1.5c-0.8,0.4-1.5,0.1-3.1,0.1C316.2,264.4,316.1,264.6,315.9,264.6z"/>
			<path class="st3" d="M341,281.9c0,0.2,0.4,0,0.6,0c0.4,0,0.7-0.6,0.8-0.9v-0.5c-0.2,0-0.4,0-0.6,0
				C341.5,280.5,341,281.2,341,281.9z"/>
			<path class="st3" d="M364.1,301.7c-0.8,0-1.4,0.6-1.4,1.7c0,0.6,1.8,1.8,2.9,1.8c0.8,0,1.9-1.6,1.9-2.2c0-0.1-0.2-0.6-0.5-0.6
				s-1,0.8-1.1-0.1c-0.6,0-1-0.6-1.5-0.6C364.3,301.7,364.1,301.7,364.1,301.7z"/>
			<path class="st3" d="M317.1,395.8h1V393c0-0.2,0.1-0.3,0.1-0.8c0-0.6-1-1.1-1.6-1.1c-0.4,0-1.6,2.1-1.6,2.1s0,0.6,0,0.9
				C315,394.3,316.7,395.8,317.1,395.8z"/>
			<path class="st3" d="M287.5,197.4c0.7-0.3,0.4-1.5,1.1-1.5c0.8,0,1.4,1.1,1.7,1.4c0.1-0.3,0.1-0.1,0.1-1.1c0.2,0,0.3,0,0.6,0
				c0.4,0,3.3,2.5,3.5,2.8c0.4,0.8,0,1.5,0.6,2.1c1.6,1.6,3.8,2.4,5.5,2.4h1.8c0.8,1,1.9,1.3,1.9,2.4c0,0.5-0.3,0.9-0.7,0.9
				c-0.8,0-1.7-0.9-1.9-1.2c-0.3,1.1-0.9,4.5-1.9,4.5c-0.7-0.6-0.7-1-1-2.1c-0.7,0.2-0.6,0.5-1.4,0.5c0.2-1,0.8-1.6,0.8-2.6
				c0-0.8-2.6-2.1-3.1-2.1c-1.1,0,0.4,1.7-2.2,1.8c-0.8,0-0.4,2.2-0.4,3c0,0,0,1.4,0,2.2c0,0.9-0.7,3-1.7,3c-0.8,0-1.8-0.6-1.8-1.4
				c0-1.8,0.5-5.4,1.7-6.9c-0.7,0-1,0.7-1.7,1.1c0.1-1.4,2.6-3.2,4.2-3.2c0.6,0,3.5,0,3.5,0v-1.2c-2.1,0-2.4-0.9-4-0.9
				c-0.8,0-1.1,0.3-2,0.3c-0.5,0-1.1,0.8-1.2-1.3h-1.4c0.3,0,0.8-0.3,0.8-1.3c-1,0.2-2.3,1.7-3.1,1.7c-0.6,0-0.7,1-1.9,1
				c-0.6,0-0.8,0.3-1-0.3c-0.5,0.1-0.8,0.9-1.3,0.9h-1c1.6-3.1,3.5-3.1,5.4-4.3C286.6,197.9,286.7,197.8,287.5,197.4L287.5,197.4z
				 M304.4,212.3c-0.3,0.2-0.8-0.3-1.7-0.3c-1,0-2-0.1-2.6,0.6c-0.3,0.3-0.4,0.7-1,0.7c-0.4,0-0.8-0.5-1-0.8c0,0.7,0.3,1.7,1,1.7
				C300.5,214.1,302.8,213.1,304.4,212.3L304.4,212.3z M305.2,210.9c0-0.1-0.1-0.2-0.1-0.3C305.2,210.7,305.2,210.8,305.2,210.9
				L305.2,210.9z M305.6,209.3c1.5-0.5,4.8-1.3,6.5-1.3c0,2.6-4.5,1.9-6.5,1.9c-0.3,0-0.3,0.1-0.8,0.1c0.1,0.1,0.2,0.3,0.2,0.5
				c-0.1-0.2-0.4-0.4-0.4-0.6C304.7,209.5,305.4,209.4,305.6,209.3L305.6,209.3z M329.3,201.2c0-0.2-0.1-0.3-0.1-0.4
				C329.2,200.9,329.3,201,329.3,201.2L329.3,201.2z M329.4,202c0-0.1,0-0.3,0-0.4C329.4,201.8,329.4,201.9,329.4,202L329.4,202z
				 M329.5,203c0-0.1,0-0.3,0-0.4C329.5,202.8,329.5,202.9,329.5,203L329.5,203z M329.6,204c0-0.1,0-0.2,0-0.3
				C329.6,203.8,329.6,203.9,329.6,204L329.6,204z M329.7,204.8c0-0.1,0-0.2-0.1-0.3C329.7,204.6,329.7,204.7,329.7,204.8
				L329.7,204.8z M329.1,200.4c-0.1-0.3-0.2-0.5-0.3-0.7C328.9,199.9,329,200.2,329.1,200.4L329.1,200.4z M329.9,205.3
				c0,0.1,0.1,0.2,0.1,0.3C329.9,205.4,329.9,205.3,329.9,205.3L329.9,205.3z M304.8,212c0.3-0.1,0.5-0.3,0.7-0.3
				c-0.1-0.2-0.1-0.4-0.2-0.5c0.1,0.2,0.1,0.4,0.2,0.5C305.3,211.8,305.1,211.9,304.8,212L304.8,212z M392.8,311.9
				c-1-0.3-1.6,0.1-2.6-0.1c-1.1-0.3-3.3-2.3-3.9-3.3c-0.8-0.3-1.9-0.8-3.3-1.1l-2.6,0.4c-1.4,0-1.7-1.3-3.1-1.3
				c-0.6,0-0.9,0.5-1.5,0.5h-0.5c0,0,0.1-0.9-0.1-1.5c-0.1-0.6-0.8-0.3-1.3-0.6c-0.9-0.6-3.4-1.8-4.7-1.8c-1.1,0-1.9,1.5-2.6,2.6
				c-0.2,0.3-0.5,1-0.8,1c-0.2,0-0.3-0.6-0.3-0.6h-1.7c-0.1-2.1-0.5-1.4-1.2-1.7c-0.3-0.1-1-0.1-1-0.8c0-2.1,2-2.8,3.1-4.2
				c0-0.7-0.9-0.7-1.3-1.4c-0.3-0.8-1.3-2.9-1.3-3.8c-1.2-0.3-2.6-2.5-3.8-2.5c-0.1,0,0,0,0,0v-0.2c-2.1,0-2.2-0.8-2.7-0.8h-1.7
				c-1.9,0-4.8-0.1-5.3-2.1c-0.3,0-0.9-0.1-1-0.3c-0.8-1.7-1.5-0.7-2.8-2.8h-1.9c-0.3,0,0.4-2-0.5-2.3c-1-0.4-2.5-0.6-2.5-1.6V281
				c0,0.1,0.3,0.1,0.6-0.1c0,0-1.5-0.2-2.2-0.2c-0.2,0.1-1.8,0.1-1.9,0.4c-0.4,0.8-1.2,0.9-2.2,1c-0.6,0-1.4-0.7-1.4-0.7
				c-0.6,0-2.6,0-3.8,0c-0.4,0-0.8-0.6-0.8-1.3c-1-0.2-2.6-0.6-2.9-1.8l-1.2,0.3c0,0.8,1-0.4,1.3,1.7h-1.7c-0.6,0-1.7-0.1-1.7,0.9
				c0,0.8,0.8,1.1,0.8,2c0,0.3-0.4,1-0.7,1c-0.8,0-1.1-1.4-1.1-2.2c0-0.6,0.4-1.8,0.6-2.9c0.3,0,0.7-0.3,0.7-0.8
				c0-0.1-0.3-0.8-0.6-0.8c-0.9,0-1.1,1-2,1.3c-1.7,0.6-2.9,0.8-4.5,1.4c-0.9,0.3-1.5,0.5-1.9,1.6c-0.1,0.6-0.2,1.5-0.6,1.7
				c-0.4,0.3-0.7,0.5-0.7,1.2c-0.1,0,0,0.2,0,0.3c0,0.1,0,0.3,0,0.4s-0.7,0.1-1.2,0c-0.1,0.2-0.5,0.3-0.7,0.5
				c0.2-0.3,0.3-0.5,0.4-0.5c-1.1-0.8-2-2.2-4-2.2c-1.7,0-2.6,1.4-4.4,1.4c-1.2,0-1.2-1.3-1.9-1.7c-1.1-0.6-2.6-1.2-2.6-2.7
				c0-1.1,0-2.6,0-4.2c1-0.7,1-2.4,1-3.1c0-0.3,0-0.7,0-1c-1-0.3-2-1.5-3.6-1.5c-2.4,0-4.5,0.4-6.8,0.4c-0.4,0-1-0.3-1-0.8
				c0-0.1,0-0.2,0-0.4c0-0.4,1-0.7,1-1.4c0-1,0-2.4,0-3.6l0,0c0,0,0,0.6,0,0.8c1-0.7,1.4-1.2,1.4-2.3c0-1.3,1.7-2.6,1.7-3.5
				c0-0.2,0-0.4,0-0.6c0,0-1.5-0.1-1.8-0.1c-0.3-0.1-0.8-0.2-1.5-0.2c-1.9,0-4.2,0.7-4.2,2.7c0,1-1.2,1.9-1.5,2.8
				c-0.1,0.3-0.4,1.1-1,1.1c-0.3,0-0.6-0.4-1.3-0.4c-1.4,0-2.5,1-3.8,1c-0.6,0-0.6-0.6-1.2-0.8c-1.8-0.6-1.8-1.7-3.1-3
				c-0.5-0.5-1.4-1.5-1.7-2c-0.3-0.6,0.6-1,0.3-1.7c-0.1-0.3,0-0.8,0-1.4v-3.9c0-1,0.2-1.5,0.2-2.8c0-0.4-0.4-0.7-0.5-1.1L270,249
				c0.1,0,0.1,0,0.1,0c0-0.2-0.4-0.5-0.4-0.7c0-2.1,0.9-4,2.4-4.5c0.7-0.3,1.3,0.2,1.9-0.3c0.8-0.8,1.8-2.6,3.8-2.6
				c0.8,0,1.2,0.7,1.9,0.7c0.4,0,0.6-0.6,1-0.6c1.4,0,3.1,2.4,5,1.4c-0.8-0.6-0.2-1.2-0.1-2.2c-0.4,0.2-0.3,0.2-1,0
				c1.2-0.4,2.6-0.3,3.8-0.6c0,0.2,0.3,0.6,0.5,0.6c0.6,0,0.8-0.6,1.7-0.6c1.7,0,2.4,1.6,3.7,1.6c0.6,0,0.9-0.9,1.5-0.9
				c3.1,0,2.2,4.2,3.3,6.5c0.6,1.1,1.3,1.5,2.1,2.6c0.4,0.6,0.4,1.7,1.4,1.7c1.2,0,1.6-1.3,1.6-2.8c0-1.3-0.7-1.9-0.7-2.8v-0.3
				c0-2.2-2.1-2.9-2.1-5.2c0-5.1,4.1-6.4,7.4-8.2l-0.2-0.1c0.4-0.4,0.3-0.6,1.2-0.9c0.6-0.1,0.9-0.7,1.7-0.8c0.4-0.1,0.7-0.5,1-0.8
				l-0.7-0.5v-0.6c1,0,0.8,0.1,0.9-0.7c-0.3-0.1-0.6-0.1-0.9-0.6c0.3,0,1-0.3,1-0.8c0-0.2,0-0.4,0-0.4s-0.6,0-0.8,0
				c-0.4-1,0-0.5,0-1.2s-0.4-2-0.4-2.5c0,0,0.1-0.6,0.2-0.9c0.1,0.7,0.9,1.8,0.9,2.3c0,0.3,0,0.5,0,0.8c0,0.1,0,0.4,0.1,0.4
				c0.2,0,1.5-2.4,1.5-2.8c0-0.6-0.5-0.8-0.7-1.3l0.3-0.3c0.1,0.1,0.3,0.6,0.5,0.6c0.5,0,1.8-2.4,1.9-3c0,0-0.6-0.5-0.6-0.8
				c0-0.2,0.2-0.4,0.4-0.5c0.2,0,0.4,0.1,0.6,0.1c1,0,1.7,0.2,2.6-0.1c-0.5-0.3-1.1,0.2-1.7,0.2h-0.7c1.4-1,4-0.7,5.4-1.7
				c0.3,0.3,1.5-0.2,2.6-0.4V214c0,0-0.9,0.5-1.1,0.5c-0.4,0-0.8-0.9-0.8-1.2c-0.2-0.1-0.4-0.4-0.4-0.6c0-2.6,2.3-3.4,3.4-4.5
				c0.7-0.3,0.7,0,1.6,0c1,0,1.7-0.4,2.2-1.2c-0.1-0.2-0.5-0.3-0.6-0.5l-0.3-0.2v0.1c0,0,1,0,1.2,0c0.4,0,2.2,0.1,2.8-0.3
				c0.6-0.4,0.6-1.4,1.7-1.5c0,1-0.1,1,1,1c-1.6,0.1-4.1,1.2-4.1,2.8c0,0.6,1,1.7,1.4,1.7c0.6,0,1.8-1.9,3.2-2.3
				c0.4-0.1,5.1-1.9,5.1-2.4c0-0.8-1.8-0.8-2.2-0.8c-2,0-5.2-1.9-5.2-3.7c0-0.4,0.6-1,0.7-1.7c-0.3,0-1.1-0.2-1.7-0.2
				c0.4-0.6,2.9-0.9,2.9-2.3c0-1.3-2.2-1-3.6-1c-3.1,0-4.4,2.2-6.5,2.4c0.9-1.9,2.4-1.2,3.9-2.8c1-1,0.3-1.6,1.7-2.1
				c2.6-0.8,4.2-0.3,6.8-0.3c3.5,0,5.4,1.1,7.4-1.5c1-1.3,6.6-1.6,6.6-3.8c0-1.6-0.4-2.3-1-3.3c-0.6,0-0.4-0.7-0.4-1v-0.8
				c-2.1,0.9-5.1,2.1-6.8,2.1c-0.2,0-0.7-0.1-0.8-0.3c1.4-0.8,5.2-1.3,5.6-2.6c0.1-0.3-0.8-0.4-0.9-0.8c-1.7,0.2-5.5-0.6-5.5-2.9
				v-0.2c-2.1,0-2.2-1-3.1-1.7c0.3-0.2,1.2-0.4,1.2-1.3c0-0.7-0.6-1.3-0.4-1.9c-0.6-0.2-2.9-1.6-2.3-2.9c0.7-1.6-2.2-1.9-2.4-3.8
				c-0.2,0-0.9-0.6-1.2-0.9c-0.5,0.4-1.6,1-1.6,2s-2.2,3.6-4,3.6c-1.3,0-1.5-1.5-2.3-1.5c-1.2,0-1.7-3.4-1.9-4.9c-0.3-2-4-0.6-4-3.1
				c-1.9-0.3-2.4-2.6-4.3-2.6c-0.9,0-0.9,0.7-1.9,0.7c-2,0-3.3-1.2-5.2-1.2c-1,0-2.1,0.5-2.1,1.7c0,0.7,2.5,1.7,0.2,3.1
				c-0.9,0.6,1.3,2.1,1.4,3.1c0.2,2.1-1.7,2.6-2.6,2.9c1.6,2.7,4,3.6,4,8.2c0,1.3-4.2,4.4-5.6,4.7c2.4,1.2,1.5,5,2.4,6.2
				c-0.3,0.4-1.2,0.9-1.3,1.7c-0.8,0-1.4,1.4-2.1,0.8c-1.7-1.4-4.2-4.1-4.2-6.1c0-2.2,0.4-4.8-1.5-5.8h-4.5c-2.6,0-5.5-2.4-8.6-3.6
				c-0.6-0.2-2.2-1.1-3.1-1.1c-1,0-1.5,1.2-2.6,1.2c0-1.7-1.1-5.5-2.6-5.5c-0.7,0-1,0.6-1.7,0.7c0.3-0.8,0-1.1,0-3.1
				c0-2.8,0.8-4.4,2.4-6c0.6-0.6,1.7-3.3,2.3-3.5c1.2-0.4,3.3,0.3,3.3-1.4c0-1-2.7-1.1-3.6-1.7c0.6,0.2-1.5-1.7,4.2,0.1
				c1.5,0.4,0.6-2,1.4-2c0.1,0,0.7,0,1.5,0c1.7,0,1.6-0.8,2.6-1.6v-1c-2.1-0.6-3.7-0.4-4.7-2.5c0,0,0.8,0,1.3,0
				c0.9,1,1.8,1.7,3.1,1.7c1.1,0,3.1-1.4,3.1-2.2c0-0.3-1-1.5-0.5-1.5c1.5,0,2.1,1.4,3.1,1.4c0.6,0,1-0.6,2.3-0.6
				c-0.3-0.4,0-1.6,0.8-0.3c0.5,0.7,4-2.4,4-3.3c0-0.6-1.6-1.3-1.6-1.7c0-0.5-0.9-1.6,1.3-2.6c0.3-0.6,0-0.6,0-1.7
				c-2.2,0-1.7-1.7-4.5-1.7c-0.6-0.1-1.1-0.5-1.7-0.5c-0.8,0-1.7,0.6-1.7,1.4c0,0.9,1,1.2,1,1.9s-1.6,0.7-1.9,1.4
				c-0.6,1.2-0.4,2.1-1.4,3.4c-1.6,2-3.6-1.2-3.6-2c0-0.9,1.2-0.7,1.2-1.7c0-0.5-2-2.4-2.6-2.4c-2,0-0.6,3-2.8,3
				c0-1.2-0.1-2-1.6-2.7c0.2-0.4,0.3-0.6,0.7-0.8c-1.1-0.7-2.6,0-3.5-1c0.5-0.3,1.7-0.8,1.7-1.7c0-1.3-2-1.3-2.1-2.3
				c-0.1-2.2-1.6-3.6-4.3-3.6c-1.3,0-0.8,0.8-0.7,1.5c-0.8,0.2-1.9,0-1.9,1c0,0.7,0.6,1,0.6,1.7s-0.9,0.6-0.9,1.6
				c0,2.3,4.7,0.9,4.7,3.3c0,0.4-0.6,2.1-0.6,2.1c0.5-0.3,0.9-0.4,1.5-0.7c0.9,2.9-3.7,1.5-3.7,4.9c-2.3,0.6-0.5-1.7-1-2.4
				c-0.2-0.3-2.1-0.8-3.1-0.8c-1.3,0-1.7,0.8-1.7,2.2c-1.2-0.1-1.9,0-5.9,0c-3.8,0-8.1-1.3-9-4.2c-1.3,0.3-5.4,0.4-5.4,1.9
				c0,0.5,0.3,0.8,0.9,0.8c1.1,0,2.9-0.5,3.8-1.1c0.3,2.3-3.3,0.4-3.3,2.8c0,0.5,0.8,2.1,0.4,2.1c-1.4,0-1.7-1.6-2.9-2.1l-1-0.3
				c-1.7,0-2.8,0-4.4,0c-1.4,0-2.3,0.4-3.8,0.5c-2.8,0.1-2.8-1-2.8-1.2c0-0.6,2.1-0.4,2.5-0.8c-1.9-2.7-1.6-2.3-5.6-2
				c-4.2,0.3-6.3-3.1-10.6-3.1c-1.3,0-1.9,0.9-3,0.9c-0.8,0-1.5-1.3-1.7-1.9c-1.3,0.3-1.3,1.8-2.7,1.8c-1.3,0-3.2-3.1-3.6-3.1
				c-1.4,0-0.9,2-2.4,2c-0.6,0-1-0.4-1.3-1c-2.2,0.5-2.9,0.6-4.9,1.4c-0.8,0.1-2.6,1.5-3.2,0.9c-1.8-1.7-1.5,0.5-2.2,0.5
				c-4.5,0.2-1.4,1.8-2,1.8c-1.7,0-4.9-0.3-7.7-2.1c-0.1-0.1-1-0.7-1-0.9c-0.5,0.3,0.2,0.1-0.9,0v0.1c-1-0.6-2.3-1.4-4.3-1.4
				c-1.2,0-2,0.3-3.2,0.3c-2.2,0-6.4,1.2-7.8-1.9h-4.8c-1,0-1.3,0-2.1-1h-3.5c-0.6,0-0.8-0.4-1.6-0.7c-0.3,0.6-1,1.1-1.7,0.9
				c0.2-0.3,0.3-0.5,0.6-0.9c-0.9-0.3-1.3-1-2.2-1c-1.2,0-1.9,1.5-3,1.9c-1,0.3-1.6-0.5-2.6-0.3c-3.7,1.2-6.8,5.2-8.9,6.2h-3.8
				c-0.1,0-1,2.3-1,2.3c0,0.5,2.9,1.2,3.7,1.7c0.7,0.4,1.5,2.6,2.1,2.9c2,1,3.5,1.2,4.2,3.4c-0.8,0.2-1,0.3-1.9,0.3
				c-1.5,0-2.6,0.7-2.6-1.3h-1.2c-1.7,1-4.5,1.8-6.3,2.8c0.3,0.7,1,1,2.1,1c-0.1,0.2-0.2,0.4-0.2,0.6c0,0.6,0.8,0.8,0.9,1.8
				c0.6,0,2.2,0,3.7,0c1-1,1.5,0.5,2.9,0.5c1.5,0,2.3-1.2,3.5-1.2c0.4,0-0.6,0,1.5,0v1c-2.1-0.3-0.8-0.3-1.5,0.1
				c0.1,0.2,0.9,1.2,0.9,1.7c0,0.9-4.8,2.8-5.5,2.8c-1.5,0-5.3,1.7-5.3,3.8c0,1.1,2.2,1.5,2.8,3c-0.3,0-0.7,0.2-1.1,0.2
				c0.5,0.6,3.7,3.2,4.7,3.2c0.3,0,0.8-1.2,1.4-1.2c0.6,0,0.5,0.8,0.5,1c0,0.6,0,0.6,0,1.4c0,0.6,0.3,1.2,0.7,1.2
				c0.3,0,0.7-1.1,1.1-1.1c0.3,0,0.2,0,0.8,0c0,0-0.1-0.1,0.1-0.5c1.2,0.9,1.7,1.6,3.3,2.2c0.1-0.5,0.3-0.6,0.5-1.1
				c0.7,0.2,1,0.4,1.9,0.4c1,0,1.5-1,2.6-1h1c-1.7,2.1-1.7,3.3-3.3,4.4c-1.7,1.1-4.4,2.4-5.6,3.9c-0.8,1-2.2,0.4-3.3,1.1
				c-0.8,0.4-1.4,1.8-2.2,2.3c-1.2,0.7-2.5,0.2-3.3,1.5c2.9,0.8,4.3-2.1,6.8-2.5c2-0.3,4.5-1,5.6-2.1s3.5-1.8,4.5-3.1
				c0.6-0.7,1.1-1.4,2-1.7c1.6-0.6,3.4-1.2,3.4-2.8c0-0.3,0-0.7,0-1c0-2.3,4.1-6.1,5.8-6.1c0.3,0,0.2,0,0.8,0c0,0-0.1,0.5-0.1,0.7
				c-2,0.6-3.1,1.8-3.1,3.3c0,0.3-0.3,0.3,0.1,0.8c-0.1,0.1-0.6,0.1-0.6,0.6c0,0.3,0.4,0.5,0.7,0.5c1.6,0,6-2.5,7-3.9
				c-0.3-0.3-0.5-0.5-0.7-1c0.6-0.4,2-0.9,2.9-1.2c1.2,2.4,4.2,3.3,6.5,3.3h3.8c2.1,1,4.5,1.3,6.3,2.6c0.8,0.6,1.8,2.7,3.3,2.7
				c0.6,0,0.8-0.7,1-1.2c0.6,0.6,1,1.1,2.1,1.1c0.3-0.5,0.9,0.2,1.3,0.5c-0.2,0.3-0.7,0.6-0.7,1.5c0,0.4,0.8,1,1,1
				c0.9,0,0.8-0.8,1.9-0.9c0,0.1,0,0.4,0,0.9c0,0.6-1,0.6-1,1.2c0,0.4,0.2,1,1.1,1c1.3,0,2,0,2,1c0,0.6,0,0.4,0,1
				c0,0.8,1.9,2.1,3,2.1c0.3,0,0.4-0.1,0.8-0.1c0,0.3,0.4,0.6,0.4,1c0,0.9-0.3,2.8,0.7,3.1c0.6,0.1,1.1,0.1,1.5,0.6
				c0.6,0.6-0.1,1.5,0.7,2.1c0,0,1.8,1.1,1.9,1.3c0.5,1.6,0.6,3.5,3,3.5c0.3,1.4,2.8,0.5,3.3,2.3c0.2,0.7,1.9,0.8,2.6,1.5
				c0.1,0.1,0.5,0.3,0.8,0.4c0.3,0.7,0.9,0.9,0.9,1.6c0,0.6-0.6,1.5-1,1.9c-0.3-0.6-1-1.2-2-1.2c-0.3,0-1,0.1-1,0.5
				c0,1.5,1.7,2.2,1.7,3.7c0,2.2-1.8,6.1-1.2,7.8c0.7,1.7-0.1,4.3,0.7,5.8c-0.4,0.3-1,0.7-0.7,1.3c1.2,2.1,2.7,5.1,4.2,5.4
				c-0.4,2.9,1.6,3.7,2.6,6.1c0.2,0.6,0,1.3,0.6,1.6c2.5,1,6.1,3.5,7.1,4.5h-0.7v0.4c0,1.6,1.4,2,2,3.3c0.4,0.8,0.5,2.8,1.3,3.3
				c1.2,0.8,2.4,2.3,3.5,3.7c0.6,0.9-1,0.6-1.4,0.6c0.7,1,2.6,0.8,3.6,1.8c0.7,0.7,1.4,1.5,2.4,2.2v1.8c0,0.3-0.1,0.3,0.3,0.6
				c0.8,0.5,1.3,2.1,2.5,2.1c0.1,0.3,0.9,1.5,1,1.5c0.2,0,0.4-0.7,0.4-1.1c0-0.6-0.9-1.7-1.4-1.2c-1.2-0.8-1.7-2.6-2.2-4.3
				c-0.5-1.5-1.9-2.2-2.4-3.8c-0.4-1.2-0.5-1.9-1.5-2.8c-0.7-0.7-1.6-0.7-2.1-1.7c-0.6-1.2-1.2-2.1-1.2-3.5c0-0.2-0.1-0.6,0.1-0.9
				c0.9,0.9,2,0.8,3.2,1.4c0.6,0.3,0.4,1.8,1,2.4c0.6,0.6,0.4,1.8,1,2.4c0.8,0.8,1.5,1.5,2.4,2.4c0.2-0.2,0.1-0.1,0.8,0
				c0,1.7,2.2,1.8,2.8,3.1c0.3,0.8-0.1,1.5,0.4,2c0.7,0.7,1.8,1,2.5,1.7c1.5,1.5,3.9,3.5,4.7,6.1c0.1,0.5,0.7,0.7,0.7,1.6
				c0,0.8-0.7,1.2-0.7,1.9c0,0.6,0.4,1.4,1,1.4c0.2,0.9,2.4,1.4,3.2,2.2c0.2,0.2,0.3,0.3,0.8,0.5c0.9,0.4,1.4,0.3,2.3,0.7
				c1,0.5,1.2,1.3,2.2,1.6c0.8,0.2,1.2-0.2,2,0.1c0.7,0.3,3.1,2,3.9,2c0.6,0,1-0.1,1.6,0.1c0.3,0.1,0.8,0.6,1.4,0.6
				c1.2,0,1.4-1.1,2.6-1.1c0.6,0,1-0.2,1.5,0.9h0.4c1.9,1,2.2,2.2,4.3,3.2c1.4,0.7,2.4,0.2,3.7,0.8c0.9,0.4,1.6,0.8,2.9,0.8
				c0.5,0,0.8-0.7,1.3-0.7c0.1,0,0.3,0,0.4,0c0.4,2.1,1.6,2.6,2.7,3.7c0.3,0.3,0.7,0.3,0.9,1c0.3,1-0.3,2.5,0.7,2.5h0.7
				c-0.1,0-0.1-0.1,0-0.3c0.1,0,2.4,1.6,2.6,2c0.3,0.6,0.3,1.3,1.3,1.5c0,0.1,0.2,0.5,0.3,0.5c0.5,0,1.6-0.4,2.1,0.1
				c0.6,0.6,1.3,1.9,2.4,1.9c0.6,0,0.9-0.3,1-1c-0.1-0.1-0.6-0.3-0.6-0.6c0-0.4,1.9-1.8,2.4-1.8c0.8,0,1,0.9,1.7,1.3
				c-0.1,0.3-0.4,0.4-0.4,0.7c0,0.2,0.6,0.4,0.8,0.5c0,0,0.1,0,0.2-0.1c-0.1,0.1-0.1,0.3-0.1,0.4c0,1.2,1.3,1,1.3,2.5
				c0,0.7-0.3,1-0.3,1.8c0,0.6,0.4,1,0.4,1.5c0,0.1,0,0.2,0,0.4l-0.3,0.6c0,0.2,0.3,0.6,0.7,0.7c-0.4,1.9-2.2,1.4-3,2.9
				c-0.6,1.1-1,3-2.9,3c0.3,3.1-1.5,2.8-1.5,4.4c0,1,0.1,2.4,1.1,2.4c0.5,0,0.4-0.3,1,0.1c-0.3,1.1-1.5,1.4-2.2,2.4
				c-0.3,0.3-0.8,1.3-0.8,2.1c0,1.3,1,2.6,1.7,3.4c0.3,0.3,0.8,0.1,1,0.6s0.3,1.5,0.8,1.9c0.2,0.2,0.7,0.1,0.9,0.5
				c0.6,1.3,1,2.2,1.5,3.8c0.5,1.5,1.9,2.8,2.4,4.4c0.3,1,1.3,1.5,1.3,2.6c0,0.8-0.3,1.6,0.3,2.2c1.3,1.3,2.2,2.2,4.2,2.9
				c1,0.3,1.4,0.6,2.2,1.4c0.8,0.8,1.5,0.6,2.6,1.1c1.2,0.6,2.4,1.7,3,3.3c0.2,0.8,0.7,4.9,0.7,5.6c0,1.1-0.5,3-0.5,4
				c0,0.9,0,0.9,0,3.1c0,0.7,0,1.9,0,2.4c0,0.2,0,0.4,0,0.6c0,2.4-2,4.1-2,6.7c0,1.1-0.9,2.1-0.5,3.3v5.2c-0.4,1.7-0.5,2.8-1,4.4
				c-0.1,0.3-0.4,0.2-0.6,0.5c-0.3,0.5-0.5,1.5-0.8,2c-0.6,1-1.6,2.6-1.6,4.2c0,0.5,0.1,2.4,0.3,2.4c0,0,0.4,0.3,0.4,0.8
				c0,0.2-0.2,0.4-0.7,0.4c-0.2,1.2-0.7,1.8-0.7,3.1c0,0.8,0.4,2.4,1,2.4c0.5,0,0.2-0.6,0.7-0.8c0.2-0.1,0.3,0,0.3,0v1l-1.9,10.3
				c-1,0-0.4-1.4-1.6-1.4c-0.3,0-0.5,0.6-0.5,0.6h-1.1v1c0,0.8,1.5,1.9,1.5,2.4c0,1.1-1.6,1.6-1.6,2.9c0,1.2,1.1,3.6,1.1,5.1
				c0,0.3,0,0.5,0,1c0,1.5,2.1,1.2,2.1,2.9c0,0.4-0.2,0.8-0.4,1.2c0.2,0.1,0.4,0.3,0.6,0.3c-0.1,0.6-1.3,0.6-1.3,1.2
				c0,0.1,0.4,0.5,0.6,0.7c0.9,0.9,1.5,2,3.4,2c0.1,0.3,0.2,1.1,0.8,1.1c0.5,0,0.8,0,1.3,0c0,1,1.5,0.9,2.6,1.2
				c1.1,0.4,0.6,1.9,2.2,1.9c0.7,0,1.2,0,1.9,0c0.2,0,0.5,0,0.7,0c0.3,0,0.3,0,0.8,0c0.6,0,2.4-1.2,3.4-1.2c0.4,0,0.8,0.2,1.1-0.2
				c-1.9-0.9-3.8-1.5-5.3-3c-0.9-0.9-0.8-4.1-2.1-4.8c-0.4-0.1-1-0.9-1-1.6c0-1.3,0.4-2.3,1.2-3.1c0.6-0.6,1.7-0.2,2.2-1.2
				c0.4-0.9,0.2-1.8,0.8-2.4c1-1,2.7-1.2,2.7-3.1c0-2.2-3.1-1.2-3.1-3.9c0-1.2,1-2.2,2.1-2.4c0.5-0.1,1.7-0.1,1.9-0.9
				c0.4-1.7,0.4-3,1.7-4.2c-0.3-0.1-0.8-0.3-0.8-1c0.7,0,1,0.6,1.8,0.6c0.1,0,0.7-0.5,0.7-0.9s-0.3-0.4-0.6-0.7
				c-0.2,0.1-0.6,0.5-1,0.5c-0.6,0-1.5-1.8-1.5-2.8c0-0.3,0.2-0.8,0.7-0.8c1.4,0,1.6,1,3.1,1c0.5,0,1.5-0.5,1.5-0.8
				c0-0.2,0-0.5,0-0.7c1-1-0.2-3.1,0.7-4c0.6-0.6,3,0.1,4.1-0.2c1.7-0.6,3.1-0.2,4.3-1.4c0.7-0.7,1.2-1.1,1.8-2.1
				c0.3-0.6,0.3-1,0.3-1.9c0-0.8-1.1-0.8-1.3-1.5c-0.3-0.8-0.3-1.6-0.8-2.2c-0.2-0.2-1.3-0.6-1.3-1.2c0-0.2,0.4-0.3,0.6-0.3
				c1,0,1.9,0.8,2.9,0.8c0.5,0,2,0.8,3.2,0.8c3.2,0,3.7-3.5,5.1-5.6c1.2-1.8,2.8-2,4-3.9c0.6-0.9,1.2-1.4,1.2-2.3v0.1
				c1-1.5,1-2.6,2.1-3.3v-3.3c0-1.3,0-2.3,0.9-3.2c0.6-0.6,1.5-0.6,2.1-1.5c1.2-1.9,3-1,4.7-2.6c0.2-0.2,0.3-0.6,0.7-0.8
				c1-0.5,2.1-0.4,3.4-0.4c1.2,0,2.6-1,3.1-1.8c0.1-0.3,0.1-1.1,0.4-1.5c1-1.4,1.4-2.1,2.4-3.7c0.1-0.3,0.4-1.7,0.4-2.4
				c0-0.6,0.6-1.3,0.9-1.6c0.1-0.2,0.4-0.5,0.4-0.8c0-0.9,0.5-2.1,0.5-3.3c0-1.7-1-3.9,0-5c0.7-0.7,1.5-0.8,2.2-1.9
				c0.4-0.6,0.7-0.8,1.1-1.4c1.9-2.8,4.7-4.2,4.7-9.4C394.5,313.8,394.2,312.3,392.8,311.9z"/>
			<path class="st3" d="M307.7,251.1c0,0.6,0,1.3,0.7,1.3c0.1,0,0.3-0.2,0.3-0.3c0-0.5-0.2-0.9-0.8-1H307.7z"/>
			<path class="st3" d="M307.7,247.2c-0.3,0-0.8,0.3-1,0.6c0.4,0,1.1,0.1,1.8,0C308.4,247.5,308.2,247.2,307.7,247.2z"/>
			<path class="st3" d="M309.8,248c-0.1,0.2,0.1,0.6,0.3,0.6L309.8,248z"/>
			<path class="st3" d="M318.2,259.1v-0.6c-0.3,0.4-0.8,0.8-1.4,0.6c0,0.1,0,0.3,0,0.4s0.2,0,0.3,0
				C317.5,259.5,318,259.3,318.2,259.1z"/>
			<path class="st3" d="M200.6,180.5c0.3,0,0.6-0.2,0.6-0.7c0-1.5-1.9-1.7-1.7-3.6c-1.5-0.3-1.8-0.3-1.8,1.4c0.8-0.6,0.4-0.2,1.5,0
				c-0.2,0.3,0,0.9,0,1.4C199.2,179.1,200,180.5,200.6,180.5z"/>
			<path class="st3" d="M195.6,173.6c-0.1,0.1-0.7,0.2-0.7,0c-0.3-1.1,0-1.1,0-2.9c-1,0.6-0.3,0-1.6,0c-0.3,0-0.8,0.1-0.8,0.7
				c0,1,0.8,1.9,1.9,2.1c0,1.1,0.3,1.9,1.1,2.8C196.2,175.5,195.5,174.6,195.6,173.6z"/>
			<path class="st3" d="M260,133.6c1.3,0,1.5,0.3,2.8-0.6c-1.3-1-7.2-2.6-7.2-4.8c0-1.8-1.9-3.4-1.9-5.9c0-0.6,1.5-1.3,1.5-2.3
				s-1.2-1.5-2.4-1.5c-1.1,0-2.1,0.5-2.1,1.2c0,0.2,0,0.5,0.1,0.7c-1.1,0.6-0.7,0-1.9,0c-0.6,0-1.3,0.3-1.3,0.9s1,3.9,1.6,4.8
				c-0.3,0.3-0.3,0.6-0.9,0.6c-1.3,0-0.8-1.9-1.2-2.7c-0.3-0.8-1.3-1.1-2.3-2.1h-1.5c0.1,1,0.3,0.8,0.3,1.4
				c-0.8,0.2-1.3,0.4-2.1,0.6c-0.5-1.2-1.2-2-3.1-2c-1.1,0-1.6,0.9-2.2,1.3c-0.3-0.4-0.2-2.4-1.2-2.4c-2.5,0-8.8,2.5-8.8,5.9
				c0,0.3,1.3,1.4,2.1,1.4c0.9,0,1.3-0.2,2.4,0.1c-0.8,0.5-2.8,0.1-2.8,1.7c0,1.9,3.8,1.5,5.4,1.5c0.7,0,2.4,0,3.7,0
				c0.7,0,1.3,0.2,1.7,0.5c-0.8,0.1-1.3,0-2.3,0c-2.9,0-5.1,0.3-6.7,1.5c0.5,0.8,1.7,2.4,3.3,2.4c1,0,3.1-0.4,3.8,0.2
				c0.8,0.6,0.1,1.6,1.3,1.6c1.9,0,3.1,0,6.3,0c1.5-1,3.2-0.3,5-1.2c1-0.5,0.6-1.2,1.8-1.2c2,0,3,2.1,5.7,2.1c1.7,0,3.3,0.1,4-1.2
				c-0.3-0.2-0.6-0.4-0.7-1c-0.3,0-1,0-1-0.6C259.1,133.8,259.4,133.6,260,133.6z"/>
			<path class="st3" d="M216.1,126.9c0.2,0.3,0.7,1.4,1,1.4c0.4,0,0.6,0.7,1,0.7c0.6,0,5.4-1.7,5.4-2.3c0-1.6,3.1-4.5,5.2-5.2
				c0.7-0.2,4.4-0.8,4.4-1.5c0-1.6-3.4-3-4.9-3c-0.9,0-1.7,0.8-2.4,0.2c-1.5-0.1-2.2-1-3.8-1.4c-1.3-0.3-1.9,0.5-2.8,0.5
				c-1.7,0-2.4-0.7-4.2,0c0.1,0.8,1,1.9,1,2.4c0,2.5-3.5,4.4-3.5,6.8C212.8,126.3,215.6,126.1,216.1,126.9z"/>
			<path class="st3" d="M235.1,110.1c-0.2,0-0.7-0.1-1.1-0.2C234.3,110,234.7,110,235.1,110.1L235.1,110.1z M233.2,108.6
				c-0.1,0-0.1,0-0.2,0c-0.6,0-1.1,0.4-1.4,0.8c0.2,0.1,0.5,0.1,0.7,0.2c-0.2,0-0.3-0.2-0.3-0.2h-1.7v1.2c0,0.1,0.8,0.2,1,0.3
				c-0.2,0-0.4-0.1-0.6-0.1c-0.7,0-1,0.6-1.7,0.7c0.3,0.5,0,0.3,0,1c0,0.6,0.5,1,1.1,1c0.5,0,1.5,0.5,2.4,0.5c0.8,0,1.7-0.3,2.9-0.5
				c0-0.4,0.3-0.8,0.8-0.9c0.1,0.7,0.8,1,1.2,1.6c-0.9,0-1.9-0.2-1.9,0.8c0,0.4,1.1,1,1.9,1c1.7,0,3.1-0.5,4.5-1
				c0.2-0.1,4.7-1,4.7-1.2s4.1,0.3,4.5,0.1c0.6-0.2,2.3-2.3,2.3-3.3c0-0.8-0.8-1.7-1.6-1.7c-0.9,0-1.2,0.8-1.9,0.8
				c-1.3,0-2.6-1.5-2.6-2.6c0-0.1-0.1-0.3,0-0.9c-0.5,0-0.9-0.2-1.3-0.5c-0.7,0.6-2.7,1.1-2.7,2.2c0,0.6,1.5,1,1.5,1v0.9
				c0,0-0.4,0.1-0.5,0.3c0.3,0.1,0.7,0.2,1.5,0.2c-0.3,0.6-0.6,1.2-1.5,1.2c-3.1,0-4.5-2.4-6.6-2.4c-0.1,0-0.8,0-1.6,0
				c-0.1-1-0.9-1.3-1.2-1.3c-0.6,0-1-0.3-2.3-0.1C232.6,108.3,232.8,108.4,233.2,108.6z"/>
			<path class="st3" d="M225.5,111.2c0,0.5,0.6,0.8,1.2,0.8c0.9,0,1.9-1.5,2.1-2.4C228.1,109.5,225.5,110.1,225.5,111.2z"/>
			<path class="st3" d="M235.3,108.4h1.2v-2.1h-2.1C234.4,106.3,234.9,108.4,235.3,108.4z"/>
			<path class="st3" d="M220.5,109.6c0.7,0,1.1,0.4,1.9,0c0.1,0.3,0.6,1,1.2,1c0.8,0,1.3-0.8,1.5-1.5c1.2,0.1,2.2-1,2.4-2.2
				c0.6,0.3,0.6,1.9,1.7,1.9l3-2.2c0-0.6-0.5-0.7-0.6-1.4c0.5-0.1,0.9-0.6,0.9-1.1c0-1.2-4.2-0.1-4.2-0.1c-0.6-0.1-0.7-0.1-1.3-0.1
				c-1.9,0-2.3,1.8-3.6,2.6c-1.2,0.7-2.2,0.8-3.3,1.4c-0.3,0.1-1.5,1.1-1.5,1.3c0,0.2,0.6,0.6,0.7,1
				C219.8,110.1,220,109.6,220.5,109.6z"/>
			<path class="st3" d="M240.3,100.1c1.5,0,1.1,0,3,0c0.8,0,1.3-0.3,1.9-0.5c-0.3-0.9-1.5-1.7-2.9-1.7c-0.9,0-5.1,1.6-5.1,2.5
				c0.6-0.1,0.8-0.7,1.4-0.7C239.2,99.7,239.4,100.1,240.3,100.1z"/>
			<path class="st3" d="M243.1,100.8c-1.5,0-5.7,0.1-5.7,1.7c0,0.6,1.2,2.3,2.2,2.3c1.5,0,3.8-0.6,3.7-1.6h-1.9c1,0,2.2-0.7,3-1.3
				C244.1,101.6,243.8,100.8,243.1,100.8z"/>
			<path class="st3" d="M235.4,103c0.5,0,0.7-0.4,1-0.8c-0.4-0.2-2.4-1.9-2.4-0.2C234,102.3,234.8,103,235.4,103z"/>
			<path class="st3" d="M270,123c0-0.7,0.2-0.1,0.2-1c0-0.8-2-0.1-2.6-0.1c0.5-0.6,2.2-1.2,2.2-2.6c0-0.3-0.5-0.7-0.7-0.7
				c0,0-1.5,0-2.8,0c-1.5,0-3.1-0.3-4.2,0.8c-0.1,0.2-0.8,0.3-0.8,0.5c0,0.9,0.9,0.8,1.9,0.9v1.9c0,0,0.3,0-0.4,0
				c-1.2,0-2.7-0.9-2.7-0.9v1.2c1,2,3.9,1.7,5.9,3.7c0.4,0.4,0.4,1.2,1.4,1.2c0.6,0,0.7-0.8,1.3-1c2.2-0.8,2.4,0.2,2.8-3.6
				C271.2,123.2,270.3,123.1,270,123z"/>
			<path class="st3" d="M256.3,108.4c-0.3,0-0.6,0-0.8,0c0,0,0.4,0,0.5,0.2l0.2-0.7v1.3c0,0.4,0.8,0.9,1.5,0.7v0.7h1
				c0,0,0.3,0.9,0.8,0.9c1.4,0,3.8-0.7,5.1-0.7c0.3,0,0.6,0.1,0.8,0.2c-0.4,0.4-1.7,0.4-1.7,1c-0.1,0.2-0.1,0.5,0,0.7
				c-0.3,0.1-0.5,0.4-0.5,0.7c0,0.6,1.8,0.4,2.2,0.4c0.2,0,1.7,0,2.8-0.4c-0.3-1.9,0.6-2.8,0.6-4.4c0-1-0.1-1.7-1.4-1.7
				c-0.6,0-0.8,0.6-1.4,0.6c-1.3,0-2-0.7-3.1-0.7c-0.5,0-1.1-0.1-1.6,0.1c0.3,1,1.1,1,2.1,1v1.5c-1,0-2.1-1.5-3.1-1.5v0.8
				c0,0.3,0.8,1.4,1.3,1.8C259.4,111.3,258.3,108.4,256.3,108.4z"/>
			<path class="st3" d="M267.1,135.7c-0.3,0.1-1.5-0.2-1.5,0.3c0,0.2,5.1,2.1,6.1,2.1c0.8,0,1-0.7,1.7-1.1c-0.4-1-3.3-3.5-4.3-3.5
				C267.6,133.5,267.9,135.4,267.1,135.7z"/>
			<path class="st3" d="M276.5,117.1c-1.5,0-1.8,1.2-1.8,1.3c0,0.2-1,1.4,0,1.4c-1,0-2.1,0-2.1,0v0.3c0,1.4,0.2,1.9,1.3,3.1
				c-0.1,0.3,0.1,0.8,0.1,1.8h1.4c0.8,0,1.4-1,1.6-2.1h-0.9c0.4-1,0.4-0.3,1.9-0.3c2.1,0,3.1-1.4,4-2.7c0,0,1.3-0.9,1.3-1
				c0-0.3,0-0.5,0-0.9C280.8,117.9,278.9,117.1,276.5,117.1z"/>
			<path class="st3" d="M254.5,105.1c0.5,0,0.9-0.3,1-0.8c-1.5-0.5-1.6-1.9-3.4-1.9C252.1,103.2,253.8,105.1,254.5,105.1z"/>
			<path class="st3" d="M254.2,113.6c0.6-0.1,0.7,0.1,1.4,0.1c0.4,0,1-0.1,1-0.9c0-0.5-0.3-0.7-0.5-1
				C255.2,112,254.5,112.4,254.2,113.6z"/>
			<path class="st3" d="M254.2,96.9c-0.1,0.3-0.3,0.6-0.5,0.7c0.6,0.4,0.9,0,2.4,0c-0.1,0.2-0.1,0.6,0,0.8c-0.8,0.3-1.5,0.2-2.1,0.8
				c0.6,0.6,0.9,0.6,1.9,0.6s1.9-0.4,2.3,0.3c1.3-0.1,2,0.3,3.3,0.3c1.6,0,1.5,1.7,3.1,1.7c0.6,0,1.3-0.2,1.3-0.9
				c0-0.8-1.4-1.3-1.9-1.9c0.1-0.2,0.4-0.5,0.6-0.7c-0.3-0.3-1.1-1.6-2.1-1.6c-0.4,0-0.6,0.6-1,0.6c-0.8,0-0.7-1.6-2.1-1.6
				c-0.6,0-0.8,0.6-1.4,0.6c-0.8,0-1.2-1.2-2.6-1.2c-0.8,0-1.4,0.4-2.2,0.6C253,96.7,253.2,96.9,254.2,96.9z"/>
			<path class="st3" d="M261.6,101.8c-0.6-0.2-0.8-0.6-1.6-0.6c-0.3,0-1.9,1-0.6,1C260.4,102.3,261.2,102.3,261.6,101.8z"/>
			<path class="st3" d="M286,114.6h0.8c-0.1,1,2,1,3.5,1h5.6c0.6,0,0.8-0.7,1.7-0.8c0.1,0.5,0.5,1.1,1.4,1.1c2.4,0,5.6,0,5.8-2.4
				c0,0-0.4,0.1-0.9-0.1c0.1-0.3,0.2-0.5,0.3-0.6c0.2,0,0.5-0.1,0.6-0.1c-1-1.8-2.8-1.9-5.6-1.9c-3.6,0-4.9,1.7-8.7,1.7
				c-1.7,0-3.1-0.4-4.8-0.8c-0.3,0.2-1.1,0.6-1.1-0.4c0-0.2,0.4-0.1,0.5-0.3c-1-0.8-2.7-0.5-3.1-1.5h2.8c-0.6,0-3.8,0-3.3-1
				c0,0-0.8,0-1.3,0c-0.3,0-0.7,0-1.4,0c-2.4,0-2.9-2.7-6-2.7c-0.8,0-2.1-0.1-2.1,0.9c0,0.6,4.2,2.4,5,2.4c0.6,0,1-0.3,1.4-0.7
				c1.2,1.2,1.5,2.3,2.8,3.5c-0.3,0.1-0.8,0.6-0.8,1.1c0,1.4,3.5,3.1,5,3.1C284.7,115.8,285.8,114.6,286,114.6z"/>
			<path class="st3" d="M277.1,113.3c0-0.9-1.7-2.3-2.9-2.3c-1.6,0-1.3,1.6-2.1,1.6c-0.1,0-0.9,0.4-0.9,1c0,0,4,1.9,4.5,1.9
				C276.7,115.5,277.1,114.5,277.1,113.3z"/>
			<path class="st3" d="M276.8,103.2c0-0.1,0,0,0-1c0,0,0.2,0-0.6,0c-1.3,0-3.7,0.2-4.4,0.9c0,0,3.8,0.8,4.2,0.8
				C276.6,103.9,276.8,103.6,276.8,103.2z"/>
			<path class="st3" d="M270,100.8c-0.2,0.1-0.7,0.3-0.7,0.7c0,0.8,2.4,0.6,4.9,0c-0.2-0.8,0-1.3,0-1.7c0-1.5-2.4,0.1-2.4-1.6
				c-0.8,0-2.2-0.5-2.4-1c-0.7,0.1-1.6,0.3-1.6,1C267.7,99.5,269.2,99.9,270,100.8z"/>
			<path class="st3" d="M266.6,93.9h0.9v-1.5c0,0-1.4,0-2.3,0C265.2,93.3,266.1,93.9,266.6,93.9z"/>
			<path class="st3" d="M275.4,93c-0.6,0-1.7-0.1-2.1-0.1h-1c0.2,1,1.7,1.7,4,1.7c-0.4,0.6-0.9,0.3-1.6,0.6c0,0.4,0.1,0.6,0.6,0.6
				c0.6,0,0.8-0.3,1.5-0.6c0.2,0.4,0.3,0.9,1,0.9c0.8,0,1-0.6,2.1-0.6c1,0,1.8,0.3,2.9,0.5c-1,0.2-5.3,0.1-5.3,1.4
				c0,1,1.9,1.7,3.1,1.7c-0.2,0.2-0.4,0.4-0.9,0.5c0.1,1,1.7,1.3,2.8,1.3c1,0,1.4-0.3,1.4-1.6c0.6,0.4,2.3,1.3,2.3,1.3v-1.4h1.7
				c-0.2,0-0.5-0.5-0.9-1.2c0.3-0.3,0.5-0.6,0.8-0.9c0.2,0.8,0.2,1.4,1.1,1.4s1.9-2.1,3.3-2.2c0.6-0.1,1.3,0.1,1.6-0.3
				c0.2-0.3,0.1-0.1,0.1-0.6c-0.9-0.1-2.7-0.4-3.4-0.4c-0.1,0-1.2,0-1.2,0c0-1,0.5-1,0.5-1.5s-0.8-0.7-0.8-1.2
				c0-0.8,0.1-1.4-0.9-1.4c-0.2,0-0.5,0-0.7,0l-0.1,0.4V93h-0.4c-0.6-2.1-0.2-1.9-1.3-2.3c-1-0.4-1.7,0.1-2.8-0.3s-0.8-2.5-2.2-3.1
				c-1.3-0.5-2.6-0.7-4.4-0.8c0.1,1,1.3,1.4,2.1,1.4h-1.2c-1.3,0-1.8,0.1-2.6,0.6c0,0.1,0.6,1.1,0.9,1.1c0.4,0,1.3-0.4,1.9,0
				c-0.2,0.2-0.3,0.7-0.8,0.7c-0.6,0-0.9-0.5-1.9-0.5c-0.6,0-1.6-0.1-1.6,0.7c0,0.8,2.2,1.5,3.1,1.8C276,92.2,275.7,93,275.4,93z"/>
			<path class="st3" d="M300.8,152.2c-0.3-0.3-0.1-0.8-0.5-1.3c-1.3-1.7-3.5-1-4.9-2.8c-0.2,0.1-0.4,0.3-0.6,0.6
				c-0.3-0.7-0.8-0.9-1.1-2c-1.9,0.2-2.4,3-2.4,4.2c0,0.6,0,0.4,0,1c0,0.4-0.3,0.6-0.6,0.9c-0.1,0.3-0.9,0.2-1,1.4
				c0.6-0.1,1.9-0.3,3,0c-0.1,0.7-0.3,1.4,0.5,1.4c0.3,0,0.4-0.2,0.6-0.6c1,0.4,3.3-0.8,3.3-2.3c0.4,0.1,2.6,2,2.6,2
				c0.7,0,1,0,1.9,0s1.5-0.6,2.3-1C303.1,153,301.9,153.1,300.8,152.2z"/>
			<path class="st3" d="M314,140.4c0-3.1-4.3-3.1-4.3,0c0,1,0.7,1.5,1.7,1.5C312.3,141.9,314,141.4,314,140.4z"/>
			<path class="st3" d="M298.7,156.2c-0.1,0.4-1.2,1-1.2,1.7v0.9c1-0.1,2.7-1.5,3.3-2.4C299.9,156.1,300,156.1,298.7,156.2z"/>
			<path class="st3" d="M305.9,122.7c1.2,0,1.8-0.7,2.6-0.7c0.8,0,1.2,0.5,2.1,0.5c0.6,0,1-0.5,1.3-1.1c-1.3-0.6-2.9-2.2-4.7-2.2
				c-1.5,0-1.9-0.6-3.5-0.6c-0.6,0-1.2,0.3-1.2,1c0,0.8,0.8,1.1,1.4,1.5C303.3,122.3,304.5,122.7,305.9,122.7z"/>
			<path class="st3" d="M304.3,160.2c0.7,0,0.8-1,1.3-1.5c-0.7-0.8-2.3-0.8-2.3,0.5C303.2,159.2,304.1,160.2,304.3,160.2z"/>
			<path class="st3" d="M317,140.3c-0.2-0.3-0.8-1.1-1.4-1.1c-0.1,0-0.9,0.5-0.9,0.7c0,0.4,0.4,0.6,0.9,0.6
				C316.3,140.4,316.1,140.5,317,140.3z"/>
			<path class="st3" d="M307.2,135.1c-0.8,0-2.4,1.6-1.6,1.6C306.5,136.7,307,136,307.2,135.1z"/>
			<path class="st3" d="M322.4,128.5c0.2-1.2-1.7-1.6-2.5-1.6c-0.5,0-0.7,0-1.7,0c-2.3,0-2.8-2.2-4.3-3.3c-0.9-0.6-3.9-0.9-5.2-0.9
				c-1.3,0-1.6,1.8-2.8,1.8c-0.6,0-1-0.7-1.7-0.7s-1.5,0.7-1.5,0.7s0-1.1,0-1.4c0-1.5-0.8-4-2.6-4c-2.8,0-7.4,0.8-7.4,3.5
				c0,0.7,0.7,1.2,0.7,1.9c0,0.6-1,1.4-1.4,1.4c-0.8,0-0.7-0.6-0.7-1.2c0,0-0.1-0.8,0-1.3c-0.3,0-0.6-0.3-0.6-0.7c0-2,2.3-2.2,3-3.6
				c-0.1,0-2.3-0.7-2.3-0.7c-2.4,0-4.2,1.2-5.6,2.6c-0.3,0.3,0.1,1.5-0.5,1.9c-1,0.8-1.4,1.2-1.4,3.1c0,0.6,0.7,1.9,0.7,1.9
				s3.5,0.3,3.5,0.7v0.9c-1-0.1-1.9-0.8-2.8-0.4c0.1,1,1.5,1.9,1.9,1.9h3.3c0.4,1,1.5,1.6,2.1,1.6c3.1,0,8.4-0.1,10.6,0.1
				c-0.1,0.5-0.3,1.7,0.6,1.7c1.3,0,2.4-2.6,3.3-2.6c0.8,0,4.5,3.2,5.1,3.8c-0.4,0.1-1.7,0.2-1.7,0.9c0,0.1,0.3,0.8,0.6,0.8
				c0.9,0,1.3-0.8,2.2-0.8c1.5,0,5.9,3.4,5.9,5.2c0,1-1.5,2.5-2.1,3.1c-0.5,0.5-1.7-0.1-1.7,1c0,0.6,0.9,1.4,1.2,1.6
				c-0.8,0.6-2.5,1.1-3.1,1.1s-1.7,0-3,0c-1,0-2.8,1.1-2.8,1.7c0,1,2.2,1.9,3,1.9s1.3-1.1,2.1-1.1c0.6,0,0.5,0.5,1.2,0.5
				c0.6,0,1-0.6,1.4-1.1c2,1.2,3.1,2.5,5.4,3.5c-1.2,2.2,3,2.2,4.7,3.1c1.7,1,3.1,0.6,5.1,1.6c0.2,0.1,0.3,0.8,0.7,0.8
				c0.3,0,0.7-0.9,0.7-1.4c0-1.9-3.9-2.3-5.1-5.4h1c0.8,2.1,5.2,3.2,6.5,3.4c0.3-0.8,1-1.8,1-2.5c0-0.8-1.2-1.1-1.2-1.6
				c-0.1-0.3-0.1-0.3,0-1.4c-0.5,0-0.5,0-1.2,0c-0.1,0-0.6-0.2-1.9-0.6c-0.6-0.2-1.4-1.4-1.5-2.5h-1.1v-1.2c0,0.2,0,0.1,1,0v-0.8
				c-1,0.1-0.7,0.2-1.3-0.1c0.1,0,1-0.8,1.4-0.8c3.3,0,3.5,4.7,7,4.7c0.8,0,0.9-1.2,0.9-2c1.3,0,1.5-0.6,1.5-0.8
				c0-0.4,0.1-0.1,0-0.9c0.9,0,2.1-0.3,2.1-1.2c0-1.1-0.6-1.6-1.9-1.6c-0.3,0-0.9,0-1.3-0.3c-0.6-1.3-0.9-0.3-2.4-0.3
				c-1,0-1.4-1.2-1.5-2.4c-1.5-0.1-3.3-0.8-3.5-2.4c-0.9,0-1.3-0.2-1.9-0.6c0.6-1,1.2-1,2.3-1.6c-0.2-0.4-0.7-0.6-1-0.6
				c-0.6,0-0.9,0-2.1-0.1c0.6-0.8,1.5-0.6,2.4-0.8c-0.4-1-1-1.5-1.9-1.5h-0.8v-1.5C325.3,130.5,324.3,129.2,322.4,128.5z"/>
			<path class="st3" d="M307.4,154.9c0.7,0.6,0.9,0.6,1.6,0C308.2,154.5,308.1,154,307.4,154.9z"/>
			<path class="st3" d="M295.8,146.5c-0.1,0.5,0.5,1,1.4,1.1C296.7,147,296.7,146,295.8,146.5z"/>
			<path class="st3" d="M283,84.6h2.1c-0.8,0-1.2,0.6-1.9,1.3c0.1,0.1,0.9,0.6,1.3,0.6c1.3,0,1.4-1.2,2.8-1.2c0.6,0,0.8,0,1.4,0.2
				c-1.8,0.6-3.5,0.4-4.3,2.2c0.6-0.1,1.9,0,3.3,0c-0.9,0.1-1.4,0.4-1.9,0.8c0.5,0.6,2.4,1.3,3.8,1.3c0.6,0,1,0.2,1.5-0.9h0.9
				c-0.4,1,1.4,1.6,2.8,1.6c0.6,0,0.8-0.6,1.4-0.6c0.7,0,1.1,0.6,2.4,0.6c2.2,0,3.8-0.5,5.2-1.6h1c-0.8,1-2,1-3.3,2.1H298
				c-0.1,0-0.5,0.4-0.5,0.6c0,0.4,2.2,1.8,2.6,2.1c-2,0.2-2.6-1.8-4.3-2.4c-1.4-0.4-2.9-0.1-3.7-0.1c-0.3,0-0.7-0.1-1,0
				c0.1,0.6,0.3,0.8,1,0.8c-0.7,0-1.7-0.1-1.7,0.6c0,1.3,4.7,1.3,4.7,3.5c0,1.9-2.6,1.3-4.3,1.9c-1,0.3-1.6,1.1-2.6,2.3l0,0h2.1
				c0.3,0,0.3,0,0.7,0h1c0,1,2.2,3.1,3.1,4.1h-1.3c-1.3-1-2.1-2.1-4.3-2.1c-0.7,0-1.7-0.4-1.7,0.6c0,1.2,1.5,1.4,2.3,2
				c-1.5,1-5.1,0-5.1,2.8c0,0.2,0.2,0.5,0.7,0.5c0.3,0,0.6-0.4,0.8-0.7c2.4,0.8,4.3,1.5,6.6,1.5c1,0,1.5-0.6,2.1-0.6
				c1.7,0,3.2,0,5.2,0c1.4,0,0.7,0.9,2.3,0.9s5.6-1.2,5.6-2.4c0-0.6-0.8-0.5-1-0.5c-0.5,0-0.7,0-1.7,0c0-2.1,2.9-1.5,2.9-3.7
				c0-0.4-0.3,0.6-0.5-1.5c0.6,0,0.5,0,3.5,0c1.2-1,1.7-2.2,3.1-2.9c-0.4-1-1.2-0.9-2-1.4c1.3,0.1,2.2-0.9,2-0.9h-1.9
				c1.1-1,2.9-1.2,4.4-1.7c1.1-0.3,2.6,0.4,3.6-0.3c2.1-1.5,3.7-4.3,6.5-5.2c2.5-0.8,6.4-1.8,8-3.4c-1.7-0.1-4.5,0.5-5.2-0.2
				c3.7-1.8,7.1-0.6,9.9-2.6c0.5-0.3,1.7-0.1,1.7-1c0-1.3-3.7-0.9-4.5-1.7c-0.4-0.4-0.4-1-1.2-1.2c-0.5-0.1-0.8-0.3-1.3-0.6
				l-5.6,1.6c0.6-0.1,0.8,0.1,1.2-0.4c-1.4-1.4-7.4-0.8-9-0.8c-0.7,0-1.1,0-2,0c-0.6,0-1-0.9-2.1-0.9c-1,0-1.3,1-2.2,1
				c-1,0-1.4-0.7-2.6-0.7c-0.3,0-0.7,0.6-0.8,0.6c-3.6,0-4.4,0-8,0c-0.7,0-1.3,0-1.6,0.7c-0.9,0.8-0.2,0-1.4,0c-2,0-2.9,1.4-3.5,3.1
				c-0.6-0.2-3.3-1.6-4.7-1.6c-1.5,0-0.6,1.4-2.8,1.4c0,0.3-0.3,0.5-0.6,0.5c-0.1,0-0.7,0-1.5,0c-2,0-6.5,1-7,2.1c0.4,0,1.3,0,1.5,0
				C282.2,84.6,282.6,84.6,283,84.6z"/>
			<path class="st3" d="M418.9,131.9c-1.5-0.5-7.6-0.2-7.6-2.3c0.3-0.1,1.5-0.3,1.5-0.9c0-0.6-0.7-0.8-0.7-1.7c0.3,0.2,0.7,0,1,0
				c2.9,0,2.2,3.5,5.4,3.5c0.8,0,1.8-0.1,1.8-0.8c0-4-4-5.1-7.1-7.6v-1c0,0,0.5,0.1,1,0c0.4,1.3,2.6,3.1,3.9,3.1
				c0.8,0,1.1-0.7,1.1-1.6c0-1.9-3.1-1.7-3.8-2.8h1c0.6,0,1.3,0.7,2.1,1.2c0.6-1.5,3.3-0.7,3.8-2.8c-0.3-0.1-0.7-0.7-0.7-1.1
				c1.3-0.1,2.7-0.8,3.1-1.9c-0.8-0.3-2.8-0.2-2.8-1.4c0-0.9,1.1-0.9,2.2-0.9c-0.3-0.4,0-1,0-1.5c0-1-1-1.5-1-3c-1,0-2.2,0-2.2-1.2
				c0-0.5,0.6-1,1.4-1c1.3,0,4.9,0.6,4.9-1c0-1.7-2.7-1.3-3-2.4c0.4,0,0.9-0.2,1.3-0.4c-0.7-0.6-1.7-1.3-2.8-1.3
				c-0.8,0-1.3,0.3-2.1,0c0.4-0.7,0.3-2.4,1.2-3c1.3-1,2.8-1.5,2.8-2.9c0-0.3,0.1-0.3,0-1c1.3-0.4,3.1-0.6,3.1-1.7
				c0-0.7,0.5,0.1,0-0.9c1.3-0.3,3.1-0.3,3.1-2.2c-0.6,0.4-0.6,0.4-1.5,0c3.1,0,4.6-2,6.9-2.8c0.4-0.1,1.7-0.8,1.7-1.6
				c0-0.9-3.3-2.7-4.2-2.7c-0.7,0-1.2,0.6-1.4,0.6H429c-1.1,1-1.3,0.8-2.6,1.3c-0.3,0.1-1.6-0.3-1.6-0.3s-2.9,0-4.7,0
				c-1.1,1-4.6,5.8-6.4,6.2c0.2-0.7,4.7-5.3,4.7-5.9c0-1-0.5-2-1.7-2c-2.3,0-6.4,4-8.2,4c-0.6,0,2.5-2.9,2.6-3.5
				c-1.3-0.5-12.9,0.9-14.1,0l15.3-0.8c1.9-0.7,6.6-0.3,7-2.8c-1.7-0.4-4.2,0.1-6.1-0.6c-3.3-1.4-6.3-4-10.4-4c-3.5,0-6.2,0-10.1,0
				c-3.5,0-5.9,1.9-9.2,1.9c-1,0-2.4-0.2-2.4-0.1v1.3h-2.2c-1.5,0-2.6-0.7-4.3-0.7c-2.3,0-4,0.4-5.9,1.3c0.3,0.5,0.9,0.5,1.4,1
				c-0.6,0.1-2.8-0.2-2.8,0.8c0,1.3,2.9,1.7,4,2.8h-3.1c-1.7-1-3.4-2.4-6.3-2.4c-0.7,0-1.7,0.1-1.7,0.9c0,0.6,0.3,0.5,0.6,1.5
				c0,0-0.7,0-1,0c-1.4-1-2.6-0.4-3.3-1.8l-0.7,0.7c0,0.5,0.4,0.9,0.4,1.4c-1.3,0-1.7-2.1-2.9-2.1c-1.9,0-3.3,1.1-5.2,1.6
				c-2.6,0-3.7,0.7-6.5,1c-2.2,0.3-0.3,3.5-2.8,3.5c-0.7,0-1.3-0.1-1.8-0.6c-1.4,1.4-4.5,3.1-6.9,3.8c-0.3,0.1-1.4,0.4-1.4,1
				c0,1.3,4,1.3,5.2,1.4c0,1.7-0.8,3-1.9,3.7c-1.5,0.9-4-0.1-5.9,0.5c-1.3,0.4-2.1,1.2-3.3,1.6c-1.5,0.5-4-0.3-4,1.9
				c0,1.1,6.7,3,7,3c0.9,0,1.3,0,2.4,0c0.3,0,0.6,0,0.7,0h2.8c-0.2,0-0.2,1-0.9,1h-4c-0.3,0-0.6,1-1.3,1c-0.5,0-1,0-1.7,0
				c-0.6,0-1.9,0.1-2.1,1.1c1.3,0.5,0.9-0.2,2.4-0.2c0.8,0,1.7,0.7,2.8,1.1c-0.3,0.6-0.8,0.7-1.4,1.1c0.8,1,3.1,1.6,4.5,1.6
				c0.6,0,0.5,0.2,0.9-0.2c-0.2-0.1-0.5-0.4-0.7-0.6c0.3-0.1,0.6-0.3,1.4-0.3s1.5,1,2.1,1c0.9,0,1.3-0.5,2.2-0.5c0.6,0,0.9,0,2.1,0
				c7.8,0,13.2,5.2,14.2,11.2v1c2.1,0.1,1.9,0.1,1.9,1.2c0,1.6-1.4,1.5-1.4,3c0,1,0.7,1.2,1.9,1.2c0.9,0,1.1-1.2,1.8-1.2
				c2.3,0,2.9,3.3,5.1,4c-0.1,0.4,0,1-0.7,1c-1.7,0-2.7-1-4.2-1c-0.6,0-0.6-0.3-1.2,0c0.3,1.9,5.4,2.3,7.5,3
				c-0.6,1.9-1.9,2.6-2.3,4.7c-1-0.4-1.1-0.3-2.2,0.1v0.1c-2.1,1.1-2.1,2.5-3.1,3.8v1.6c0-0.4,1.3-0.3,1.8,0c-0.2,0.7-0.5,1-0.5,1.7
				c0,1.9,2,2.6,2.4,4c0.2,0.7,0.5,2,0.7,2.3c1.2,0.6,1.6-1.1,2.6,0.2c-0.5,0.5-1,0.4-1,1.3c0,2,2.6,5.1,4,6.3
				c0.2,0.1,0.1,1.1,0.5,1.4c1.1,0.8,1.8,0.3,2.3,1.9c0.8-0.1,2-0.9,2.9-0.9c1.7,0,1.6,3.1,3.3,3.1c0.4,0,0.6-0.4,1.4-0.5
				c0.1,0.4,0.3,0.7,0.8,0.7c1.9,0,1-3.6,2.6-4.4c-0.1-0.8,0-2.6,0-3.8c0-2,3.3-1.3,3.3-3.6c0-0.8-0.8-1.1-0.8-1.6
				c0-0.3,0.3-0.6,0.5-0.8c0-0.2-0.1-0.5-0.1-0.7c0-2.3,4.2-1.7,5.6-3.1c0.6-0.6-0.3-1.3,1.8-1.7v1.7h0.2c1.5-1,3.8-0.8,5.2-2.2
				c1-1,1.1-2.5,2.4-3.5l1.7-1.8c0-0.6,0.7-1.7,1.4-1.7h3.3c2.6-1,4.7-0.4,7.2-1.2c2-0.6,2.7-2.3,5-3.1
				C417.1,132.6,417.8,132.8,418.9,131.9z"/>
			<path class="st3" d="M355.6,135.2h1.5c1.2,0,2.6-0.3,2.8-1.5c-1.8-0.6-2.4-2.5-4.2-2.5c-0.6,0-1.5,0.4-1.5,1.5
				C354.2,133.5,355,135.2,355.6,135.2z"/>
			<path class="st3" d="M426,111.5c-0.2,0-0.7,0.6-0.7,1s0.4,0.5,0.9,0.5c0.7,0,1.9,0.5,2.2-1.6h-1.7L426,111.5L426,111.5z"/>
			<path class="st3" d="M352.9,189.4c0-0.3-0.3-0.7-0.6-0.7c-1.1,0-1.6,1.2-2.1,2.1c-1,1.6-2.3,4.7-4.2,5.7c0.1,0.2,0.1,0.4,0.1,0.4
				v0.4c0,0.1-0.8,1-0.8,1.3c0,0.2,0.6,0.7,0.9,0.7c0.8,0,1.2-0.4,2.3-0.4c0.8,0,1.2,0.5,2.1,0.5c0.5,0,0.9-0.1,1.4-0.3
				c0.3,0.7,1.3,0.3,2,0.3c-0.2,0.4-0.8,0.1-0.8,1.1c0,0,0.3,0,0.4,0c0.8,0,1.5-1.1,2-1.9c0.6,0.6,0.1,1.9,0.7,1.9
				c0.2,0,0.3,0.1,0.6,0.1c0,0.3,0.1,0.8,0.6,0.8c0.7,0,1.1-0.8,1.1-1.7c0-0.7-0.5-0.6-0.5-1.5c-0.4,0.3-0.2,0.4-0.9,0.4
				c0-0.5-0.5-0.8-0.5-1.1s0.6-0.4,0.7-1c-0.3,0-0.6,0.1-0.8,0.2c0-1,0.1-1.7,0.1-2.3c-0.3,0.2-1,0.2-1.8,0l-0.6,0.3v-0.5h-2.1v-0.5
				l0.5-0.3c-0.3-0.3-0.4-0.4-0.8-0.4c-0.5,0-0.7,0.4-0.7,0.6V193C351.2,191.7,352.9,190.9,352.9,189.4z"/>
			<path class="st3" d="M737.4,113.6c0.7,0,1-0.6,1.5-1c0.4,0.4,0.6,0.7,1.3,0.7s1.1-0.6,1.5-0.6c0.6,0,0.8-0.5,1.4-0.5
				c0.5,0,0.8,0.3,1.3,0.3c0.8,0,1.2-1.1,1.7-1.1h1.9c0,0,1-0.9,1.3-1.9c-1.5-0.4-5.6-1.7-6.8-1.7c-0.8,0-1.2,0.9-1.2,2
				c-1.9,0-2-2.2-4.2-2.2c-1.5,0-3.1,1.2-3.1,2.8C733.9,112.2,735.6,113.6,737.4,113.6z"/>
			<path class="st3" d="M302.5,185.9c0.1,0,0.3,1,0.3,0c0,0-1.2-1.2-2.4-1.2c0.1,0.1,0.1,0.3,0,0.5
				C300.9,185.6,301.9,185.9,302.5,185.9z"/>
			<path class="st3" d="M212.2,194.8c1.1,0.7,3.5,2.5,5.1,2.5c0.2,0,0.5,0,0.5,0v-0.5c-1-1.8-3.4-3.5-6.4-4.4
				c-0.5-0.1-1.1-0.8-1.8-0.8c-0.3,0-0.7,0.6-0.9,0.6h0.2c0,0,0.7,0,1,0.1c-0.1,0.2-0.3,0.4-0.7,0.5c0.3,0.8,2.2,1.5,3.6,1.5
				C212.7,194.3,212.3,194.3,212.2,194.8z"/>
			<path class="st3" d="M201.7,185.3c0-0.4-0.3-0.5-0.3-0.8c0-0.7,0.1-1.1,0-1.5c-0.1,0.3-0.4,0.9-0.9,0.9c-0.4,0,0.4-0.8,0.4-0.8
				c-0.6-0.1-0.6-0.5-1.6-0.5v0.6c1,0.4,0.6,1.2,0.9,1.2c0.4,0,0.6,0.8,1.1,0.9c0,0.1-0.3,0.4-0.3,0.8c0,0.6,0.4,1.3,1,1.3
				c0.7,0-0.6-1-0.6-1.3C201.4,185.8,201.7,185.6,201.7,185.3z"/>
			<path class="st3" d="M156.8,173.1v0.8c1,0.3,0.8,0.4,1.4,0.9c1-0.8,1.7-1.3,2.7-2v-0.4c0,0-0.3,0-0.8,0
				C158.9,172.5,157.9,172.8,156.8,173.1z"/>
			<path class="st3" d="M492.6,221.7c-1-0.2-1.7,0.5-2.6,0.5c-1,0-1.3-0.9-3.3-0.2v0.5c0,0.3,1,0.3,1.2,0.3c1.1,0.3,2.1,1.5,3.3,1.8
				c0,0.2,0.4,0.3,0.6,0.3s0.4-0.3,0.4-0.5c0-0.6-0.3-0.6-0.3-1.1c0-0.3,0.4-0.8,0.4-0.8L492.6,221.7z"/>
			<path class="st3" d="M480.8,213.9c0.2-0.4,0.4-1.9,0.6-2.8c-0.2-0.1-0.3-0.4-0.3-0.8c-0.3,0.1-0.6,0.7-1.1,0.7
				c-0.1,0-0.3,0.1-0.5,0.1C479.9,211.8,480.1,213.8,480.8,213.9z"/>
			<path class="st3" d="M479.8,216.8c0,0.5-0.3,0.8-0.4,1.4c0,0.6,0,1.5,0.7,1.5c0.6,0,1.8-1,1.8-1.9c0-1.1,0.2-1.7-0.4-2.8
				c-0.2,0-0.4-0.4-0.9-0.4c-0.6,0-0.7,0.7-1.5,0.9C479.2,215.9,479.8,216.2,479.8,216.8z"/>
			<path class="st3" d="M469.4,218.3c0-0.2-0.3-0.6-0.3-0.8c-0.4,0.1-0.7,0.3-1.1,0.5c0.1,0.1,0.6,0.6,0.9,0.6
				C469,218.7,469.4,218.5,469.4,218.3z"/>
			<path class="st3" d="M483.9,179c0-0.7-0.3-1.4-0.3-1.4h-1.1c0,0,0,0.4,0,0.6c0,0.7,0,0.9,1,0.9c0,0.2,0,0.3,0,0.6
				C483.5,179.4,483.9,179.5,483.9,179z"/>
			<path class="st3" d="M484.9,179.6l-0.1-0.3c-0.1,0.1-0.3,0.2-0.3,0.4c0.1,0.1,0.5,0.4,1,0.4c1.5,0,1-2.4,2.2-2.8
				c-0.3-1.2-0.4-1.8-1.8-1.8c-0.5,0-1.3,1.8-1.3,2.1c0,0.4,0.8,1,1.5,1.1C485.9,179.1,485.4,179.6,484.9,179.6z"/>
			<path class="st3" d="M499.9,170.5c-1.2,0.1-1.6,1.3-1.6,1.7c0,0.3-0.2,0.6,0,0.9c0.5-0.6,1-1,1-1.7
				C499.3,171,499.7,170.7,499.9,170.5z"/>
			<path class="st3" d="M505.6,170.1c0.3,0,0.6-0.5,0.6-0.7c0-0.3,0-0.6,0-0.8c0-0.1,1-0.6,1.1-0.9c-0.3-0.1-0.2-0.3-0.5-0.7
				c0,0-0.5,0.4-0.5,0.7c0,0.4,0.3,0.6,0.6,0.8c-0.6,0.1-1.2,0.5-1.8,0.6C505.2,169.5,505,170.1,505.6,170.1z"/>
			<path class="st3" d="M514.1,228.4c-1.2-0.3-2.8-0.7-4.4-0.4c0.8,0.4,2.1,0.6,2.6,0.6C512.9,228.5,513.2,228.9,514.1,228.4z"/>
			<path class="st3" d="M530.6,227.1c-1.2,0.2-3,0.9-4,1.4c0,0.1,0.2,0.3,0.4,0.3c0,0.2,0.3,0.4,0.5,0.4c0.6,0,1.9-0.4,2.2-0.8
				c0.1-0.2-0.1-0.6,0.1-0.7C530.1,227.6,530.4,227.8,530.6,227.1z"/>
			<path class="st3" d="M568.5,277c0.6,0,1.1-0.6,1.3-0.8c-0.9,0-1.4,0.1-2,0.3C567.8,276.9,568.3,277,568.5,277z"/>
			<path class="st3" d="M558,134.3c-0.1,0-0.9,1.3-0.9,1.6c0,0.7,0.3,0.8,1.2,0.8c1.2,0,1.8-0.7,2.8-1.2v-0.9c-1-0.1-1.4-1-2.4-1
				C558.4,133.6,558.3,134.3,558,134.3z"/>
			<path class="st3" d="M577.9,131.4c0,0.8,1.5,1.7,2.4,1.7c0,0,0.9,0.1,0.9-0.3C581.3,131.4,577.9,130,577.9,131.4z"/>
			<path class="st3" d="M603.3,120.2c-0.7-0.6-1-1.3-1.8-1.3c-0.6,0-1.1,0.8-1.1,1.4c0,0.2,0,0.7,0,0.7
				C601.4,120.9,603,120.5,603.3,120.2z"/>
			<path class="st3" d="M744.5,119.7h2.1c-0.1-1-1.5-2.9-3.3-2.9c-1.6,0-2.5,0.9-3.3,2l0.3-0.3C741.6,119.1,743.2,119.7,744.5,119.7
				z"/>
			<path class="st3" d="M758.2,113.4c1.1,0,3.1-0.3,3.1-1c0-0.3-0.3-0.7-0.7-0.7c-0.3,0-7.6-0.9-8.2-1.4l0.7,0.6
				C753.2,112.6,756.4,113.4,758.2,113.4z"/>
			<path class="st3" d="M741.7,115.9c0-1-1.9-1.1-1.9,0c0,0.6,0.1,0.9,0.8,0.9C741.1,116.8,741.7,116.4,741.7,115.9z"/>
			<path class="st3" d="M340.4,195c-1.5-0.8-2.8-2.2-4.9-1.7c0.8,0.6,2.8,2.1,4,2.1C340,195.4,340.2,195.4,340.4,195z"/>
			<path class="st3" d="M336.1,201.1c-0.1,0.1-0.3,0.2-0.3,0.4c0,0.5,2.6,1.7,3.1,1.7c0.1,0,0.9-0.4,0.9-0.8c0-0.1,0,0.1,0,0.1h-2.2
				C336.9,202.4,336.5,201.8,336.1,201.1z"/>
			<path class="st3" d="M344,203.1c0-0.1,0-0.3,0-0.5c-1,0-0.5-0.4-0.5-1c0-0.3-0.3-0.4-0.4-0.7c-0.6,0.2-1.6,1.9-1.6,2.4
				c0,0.4,0.4,0.8,1,0.8C343.3,204,344,203.6,344,203.1z"/>
			<path class="st3" d="M134.1,164.9c-0.6,0-0.8-0.7-1,0.3h-1c0.1,0,0.6,0,0.8,1h2.3C135,165.2,134.9,164.9,134.1,164.9z"/>
		</g>
	</g>
</g>
<ellipse transform="matrix(0.9893 -0.1462 0.1462 0.9893 -18.104 50.2633)" class="st2" cx="332.9" cy="148.3" rx="33.6" ry="33.6"/>
<ellipse class="st4" cx="332.9" cy="148.3" rx="26.9" ry="26.9"/>
<ellipse transform="matrix(0.9239 -0.3827 0.3827 0.9239 -22.6459 182.7379)" class="st2" cx="448" cy="148.3" rx="33.6" ry="33.6"/>
<ellipse class="st4" cx="448" cy="148.3" rx="26.9" ry="26.9"/>
<ellipse transform="matrix(0.9506 -0.3103 0.3103 0.9506 -18.2192 182.0503)" class="st5" cx="563.1" cy="148.3" rx="26.7" ry="26.7"/>
<path class="st6" d="M594.3,135.8c-6.9-17.2-26.4-25.6-43.7-18.7c-17.2,6.9-25.6,26.4-18.7,43.7c6.9,17.2,26.4,25.6,43.7,18.7
	C592.8,172.6,601.2,153.1,594.3,135.8z M571.4,173.7c-14,4.6-29.1-3.1-33.7-17.1c-4.6-14,3.1-29.1,17.1-33.7s29.1,3.1,33.7,17.1
	C593,154,585.4,169.1,571.4,173.7z"/>
<line class="st7" x1="-0.9" y1="147.5" x2="299.3" y2="147.5"/>
<rect x="596.7" y="146.4" class="st2" width="411" height="2"/>
<rect x="596.7" y="146.5" class="st2" width="41.9" height="2"/>
<path class="st2" d="M635.6,153.4v-11.8l8.5,5.9L635.6,153.4z"/>
<rect x="481.6" y="146.5" class="st2" width="41.9" height="2"/>
<path class="st2" d="M520.5,153.4v-11.8l8.5,5.9L520.5,153.4z"/>
<rect x="366.5" y="146.5" class="st2" width="41.9" height="2"/>
<path class="st2" d="M405.3,153.4v-11.8l8.5,5.9L405.3,153.4z"/>
<line class="st7" x1="617.7" y1="147.7" x2="617.7" y2="52.3"/>
<path class="st2" d="M617.7,61.8c6.9,0,12.5-5.6,12.5-12.5s-5.6-12.5-12.5-12.5s-12.5,5.6-12.5,12.5S610.8,61.8,617.7,61.8z"/>
<text transform="matrix(1 0 0 1 608.1187 51.7306)" class="st8 st9 st10">2007</text>
<line class="st7" x1="388.5" y1="147.7" x2="388.5" y2="52.3"/>
<path class="st2" d="M388.5,61.8c6.9,0,12.5-5.6,12.5-12.5s-5.6-12.5-12.5-12.5S376,42.4,376,49.3S381.7,61.8,388.5,61.8z"/>
<text transform="matrix(1 0 0 1 378.9913 51.7306)" class="st8 st9 st10">2005</text>
<line class="st7" x1="267.4" y1="147.7" x2="267.4" y2="52.3"/>
<path class="st2" d="M267.4,61.8c6.9,0,12.5-5.6,12.5-12.5s-5.6-12.5-12.5-12.5s-12.5,5.6-12.5,12.5S260.5,61.8,267.4,61.8z"/>
<text transform="matrix(1 0 0 1 257.8637 51.7306)" class="st8 st9 st10">2004</text>
<ellipse transform="matrix(0.331 -0.9436 0.9436 0.331 313.8244 739.2455)" class="st2" cx="678.3" cy="148.3" rx="33.6" ry="33.6"/>
<ellipse transform="matrix(0.9497 -0.313 0.313 0.9497 -12.3459 219.7314)" class="st4" cx="678.2" cy="148.3" rx="26.7" ry="26.7"/>
<text transform="matrix(1 0 0 1 307.0116 151.0014)" class="st2 st9 st11">Res</text>
<text transform="matrix(1 0 0 1 324.8116 151.0014)" class="st2 st9 st11"> </text>
<text transform="matrix(1 0 0 1 324.8116 151.0014)" class="st2 st9 st11">340/04</text>
<text transform="matrix(1 0 0 1 422.6209 151.0014)" class="st2 st9 st11">Res</text>
<text transform="matrix(1 0 0 1 440.4208 151.0014)" class="st2 st9 st11"> </text>
<text transform="matrix(1 0 0 1 440.4208 151.0014)" class="st2 st9 st11">346/05</text>
<text transform="matrix(1 0 0 1 537.2302 151.0014)" class="st2 st9 st11">Res</text>
<text transform="matrix(1 0 0 1 555.0301 151.0014)" class="st2 st9 st11"> </text>
<text transform="matrix(1 0 0 1 555.0301 151.0014)" class="st2 st9 st11">347/05</text>
<text transform="matrix(1 0 0 1 651.8394 151.0014)" class="st2 st9 st11">Res</text>
<text transform="matrix(1 0 0 1 669.6395 151.0014)" class="st2 st9 st11"> </text>
<text transform="matrix(1 0 0 1 669.6395 151.0014)" class="st2 st9 st11">370/07</text>
</svg>
