<?xml version="1.0" encoding="utf-8"?>
<!-- Generator: Adobe Illustrator 22.0.1, SVG Export Plug-In . SVG Version: 6.00 Build 0)  -->
<svg version="1.1" id="Camada_1" xmlns="http://www.w3.org/2000/svg" xmlns:xlink="http://www.w3.org/1999/xlink" x="0px" y="0px"
	 viewBox="0 0 776.7 218.7" style="enable-background:new 0 0 776.7 218.7;" xml:space="preserve">
<style type="text/css">
	.st0{fill:#222442;}
	.st1{fill:#FF9100;}
	.st2{fill:none;stroke:#222442;stroke-width:2;stroke-miterlimit:10;}
	.st3{font-family:'Open Sans';}
	.st4{font-size:10.1849px;}
	.st5{font-size:20.1588px;}
	.st6{enable-background:new    ;}
</style>
<g id="OBJECTS">
	<g>
		<g>
			<ellipse class="st0" cx="102.1" cy="63.8" rx="33.6" ry="33.6"/>
			<ellipse class="st1" cx="102.1" cy="63.8" rx="26.9" ry="26.9"/>
		</g>
		<g>
			<ellipse class="st0" cx="217.2" cy="63.8" rx="33.6" ry="33.6"/>
			<ellipse class="st1" cx="217.2" cy="63.8" rx="26.9" ry="26.9"/>
		</g>
		<g>
			
				<ellipse transform="matrix(0.9286 -0.371 0.371 0.9286 3.733788e-02 127.7971)" class="st0" cx="332.2" cy="63.8" rx="33.6" ry="33.6"/>
			
				<ellipse transform="matrix(0.9506 -0.3103 0.3103 0.9506 -3.3996 106.2294)" class="st1" cx="332.2" cy="63.8" rx="26.7" ry="26.7"/>
		</g>
		<g>
			<line class="st2" x1="8.9" y1="62.9" x2="68.5" y2="62.9"/>
			<path class="st0" d="M8.9,68.1c2.8,0,5.1-2.3,5.1-5.1s-2.3-5.1-5.1-5.1S3.8,60.2,3.8,63C3.8,65.8,6.1,68.1,8.9,68.1z"/>
			<g>
				<g>
					<rect x="365.9" y="61.9" class="st0" width="278.1" height="2"/>
				</g>
				<g>
					<path class="st0" d="M409,68.9V57l9.4,5.9L409,68.9z"/>
				</g>
				<g>
					<path class="st0" d="M522.2,68.9V57l9.4,5.9L522.2,68.9z"/>
				</g>
				<g>
					<path class="st0" d="M639.3,68.9V57l9.4,5.9L639.3,68.9z"/>
				</g>
			</g>
			<g>
				<g>
					<rect x="250.8" y="61.9" class="st0" width="41.9" height="2"/>
				</g>
				<g>
					<path class="st0" d="M289.7,68.9V57l8.5,5.9L289.7,68.9z"/>
				</g>
			</g>
			<g>
				<g>
					<rect x="135.7" y="61.9" class="st0" width="41.9" height="2"/>
				</g>
				<g>
					<path class="st0" d="M174.5,68.9V57l8.5,5.9L174.5,68.9z"/>
				</g>
			</g>
		</g>
		<g>
			<circle class="st0" cx="447.5" cy="63.8" r="33.6"/>
			
				<ellipse transform="matrix(0.9497 -0.313 0.313 0.9497 2.5112 143.2405)" class="st1" cx="447.4" cy="63.8" rx="26.7" ry="26.7"/>
		</g>
	</g>
	<text transform="matrix(1 0 0 1 97.0194 66.4854)" class="st0 st3 st4"> </text>
	<text transform="matrix(1 0 0 1 324.2379 66.4854)" class="st0 st3 st4"> </text>
	<text transform="matrix(1 0 0 1 438.8472 66.4854)" class="st0 st3 st4"> </text>
</g>
<g>
	<ellipse transform="matrix(0.9286 -0.371 0.371 0.9286 16.5603 213.685)" class="st0" cx="563.7" cy="63.8" rx="33.6" ry="33.6"/>
	
		<ellipse transform="matrix(0.9506 -0.3103 0.3103 0.9506 8.0284 178.0647)" class="st1" cx="563.7" cy="63.8" rx="26.7" ry="26.7"/>
</g>
<g>
	<ellipse transform="matrix(0.9286 -0.371 0.371 0.9286 24.8687 256.8709)" class="st0" cx="680.1" cy="63.8" rx="33.6" ry="33.6"/>
	
		<ellipse transform="matrix(0.9506 -0.3103 0.3103 0.9506 13.7748 214.1846)" class="st1" cx="680.1" cy="63.8" rx="26.7" ry="26.7"/>
</g>
<text transform="matrix(1 0 0 1 79.2202 71.0332)" class="st0 st3 st5">1931</text>
<text transform="matrix(1 0 0 1 195.0876 71.0332)" class="st0 st3 st5">1937</text>
<text transform="matrix(1 0 0 1 309.955 71.0332)" class="st0 st3 st5">1947</text>
<text transform="matrix(1 0 0 1 424.8224 71.0332)" class="st0 st3 st5">1948</text>
<text transform="matrix(1 0 0 1 540.6898 71.0332)" class="st0 st3 st5">1962</text>
<text transform="matrix(1 0 0 1 658.5571 71.0332)" class="st0 st3 st5">1964</text>
<g id="OBJECTS_1_">
	<g>
		<g>
			<ellipse class="st0" cx="678.4" cy="153.8" rx="33.6" ry="33.6"/>
			<ellipse class="st1" cx="678.4" cy="153.8" rx="26.9" ry="26.9"/>
		</g>
		<g>
			<ellipse class="st0" cx="563.3" cy="153.8" rx="33.6" ry="33.6"/>
			<ellipse class="st1" cx="563.3" cy="153.8" rx="26.9" ry="26.9"/>
		</g>
		<g>
			<line class="st2" x1="710" y1="152.9" x2="769.6" y2="152.9"/>
			<path class="st0" d="M774.7,153c0-2.8-2.3-5.1-5.1-5.1s-5.1,2.3-5.1,5.1s2.3,5.1,5.1,5.1S774.7,155.8,774.7,153z"/>
			<g>
				<g>
					<rect x="136.9" y="151.9" class="st0" width="391.7" height="2"/>
				</g>
				<g>
					<path class="st0" d="M529.5,153l-9.4,5.9V147L529.5,153z"/>
				</g>
				<g>
					<path class="st0" d="M414.3,153l-9.4,5.9V147L414.3,153z"/>
				</g>
				<g>
					<path class="st0" d="M298.2,153l-9.4,5.9V147L298.2,153z"/>
				</g>
				<g>
					<path class="st0" d="M182.2,153l-9.4,5.9V147L182.2,153z"/>
				</g>
			</g>
			<g>
				<g>
					<rect x="592.7" y="151.9" class="st0" width="52" height="2"/>
				</g>
				<g>
					<path class="st0" d="M644.8,153l-8.5,5.9V147L644.8,153z"/>
				</g>
			</g>
		</g>
		<g>
			
				<ellipse transform="matrix(7.088687e-02 -0.9975 0.9975 7.088687e-02 156.0443 475.0284)" class="st0" cx="333" cy="153.8" rx="33.6" ry="33.6"/>
			
				<ellipse transform="matrix(0.313 -0.9497 0.9497 0.313 82.6481 421.9118)" class="st1" cx="333" cy="153.8" rx="26.7" ry="26.7"/>
		</g>
		<g>
			<ellipse transform="matrix(0.4359 -0.9 0.9 0.4359 114.432 490.1423)" class="st0" cx="448.2" cy="153.8" rx="33.6" ry="33.6"/>
			
				<ellipse transform="matrix(0.3103 -0.9506 0.9506 0.3103 162.8815 532.1304)" class="st1" cx="448.2" cy="153.8" rx="26.7" ry="26.7"/>
		</g>
	</g>
	<text transform="matrix(-1 0 0 1 794.4199 156.4854)" class="st0 st3 st4"> </text>
	<text transform="matrix(-1 0 0 1 567.2012 156.4854)" class="st0 st3 st4"> </text>
	<text transform="matrix(-1 0 0 1 452.5918 156.4854)" class="st0 st3 st4"> </text>
</g>
<g>
	<ellipse transform="matrix(0.4359 -0.9 0.9 0.4359 -15.7399 282.4214)" class="st0" cx="217.4" cy="153.8" rx="33.6" ry="33.6"/>
	<ellipse class="st1" cx="217.4" cy="153.8" rx="26.7" ry="26.7"/>
</g>
<g>
	<ellipse class="st0" cx="102.4" cy="153.8" rx="33.6" ry="33.6"/>
	<ellipse class="st1" cx="102.4" cy="153.8" rx="26.7" ry="26.7"/>
</g>
<text transform="matrix(1 0 0 1 655.2183 161.0332)" class="st0 st3 st5">2017</text>
<text transform="matrix(1 0 0 1 540.364 161.0332)" class="st0 st3 st5">2016</text>
<text transform="matrix(1 0 0 1 425.5099 161.0332)" class="st0 st3 st5">2013</text>
<text transform="matrix(1 0 0 1 310.6557 161.0332)" class="st0 st3 st5">2005</text>
<text transform="matrix(1 0 0 1 193.9474 161.0332)" class="st0 st3 st5">1996</text>
<text transform="matrix(1 0 0 1 79.0932 161.0332)" class="st0 st3 st5">1979</text>
</svg>
