<?xml version="1.0" encoding="utf-8"?>
<!-- Generator: Adobe Illustrator 22.0.1, SVG Export Plug-In . SVG Version: 6.00 Build 0)  -->
<svg version="1.1" id="Camada_1" xmlns="http://www.w3.org/2000/svg" xmlns:xlink="http://www.w3.org/1999/xlink" x="0px" y="0px"
	 viewBox="0 0 500 490" style="enable-background:new 0 0 500 490;" xml:space="preserve">
<style type="text/css">
	.st0{fill:#0A8074;}
	.st1{fill:#24D2C1;}
</style>
<g>
	<path class="st0" d="M455.5,89l-1.6-1.6c0,0,0,0-0.1-0.1l-21.5-21.5l-16.7,16.7c-1.8-0.5-3.7-0.8-5.8-0.3c-4.5,1.1-7.8,3-10.5,5
		l-30.7-30.7l-16.8,16.8c0.4-1.5,0.2-2.9-0.1-4.2c-0.9-3.3-16.8,1.8-20.2,6.6c-2.3,3.2-4.9,11.1-3.4,12.7c0.8,1,5.9,0,10.8-2.1l-3,3
		l4.2,4.2c-4.5,5.8-8.2,11.6-9.4,15.8c-4,0.4,6.7-13.4,4.7-15.8s-7.8,2.5-10.6,0.6c-2.8-2.1,0.6-6.7-1-8.6c-1.1-1.3-8,4.3-12.5,7.4
		l2.3-5.9c9.5-10.1,26.7-27,28.3-30.7c3.5-8.1-3.7-8.2-4.4-14.6c-0.8-6.7,1.8-15.3,0.1-16.8L316.4,3.8l-30.2,47.3l1.8,3.8
		c-1.5,0.2-3,0.4-4.1,0.7c-7.8,2.1-15.1,11.3-20.3,11.1c-5.2-0.1-19.9,14-26.7,15c-21.3,3.3,6.4-31.5-2.4-40.4l0,0l-21.4-21.4
		l-25,24.5l-1.6-1.6l-27.6,14l25.3,25.3l0.5-0.5c1.3,1,2.1,1.8,1.6,2.8c-1.3,3.2-10.1,5.7-19.8,16.7c-6.4,7.3-13.5,12.2-17.1,11.3
		c-6.2-1.6-4.9-7-7.4-10.1l0,0l-21.8-21.8l-9.4,9.4l-1.7-1.7l-23.2,10l23.5,23.5l1.1-1.1c2.3,0.3,4.7,0.3,4,1.9
		c-1.3,3.6-10.7,0.2-13.3,8.9c-2.6,8.7,6.5,9.8,3.4,17c-3.1,7.2-13.1,26.2-15.3,34c-2.3,7.8-19.9,6-35.4,21.6
		c-5.8,6.1-6.4,10.3-8.3,14.8l-2.3-2.3l-20.9,20.9l21.3,21.3l0,0c0.8,1,2,1.6,3.5,1.3c2.2-0.4,4.5-1.4,6.8-2.7l7.8,7.8l0,0l0,0l0,0
		c0.1,0.1,0.4,0.3,0.7,0.3c13.6,2.1,31.7-13.4,46-23.8l14.4,14.4l0,0l0,0c2.8,3,19,3.3,31.5,4.5l-8.6,8.6l35.6,35.6l-28.8,28.8
		l21.4,21.4c2.3,2.9,13.9-5.4,18.4-4.1c5.2,1.6-3.5,15.5,0.1,17.7c3.6,2.2,9.6-4.8,12.2-3.3c2.4,1.6-8.2,14.3-7,20.7
		c1,5.8,8.4,4.7,3.6,12.7l-4.9-4l-20.9,20.9l3.5,3.5l-0.1,0.2c-3.1,2.4-6.2,4.9-9.1,7.4l-18-18l-18,18l21.6,21.6l0,0
		c1.1,1,3,1.9,5.4,2.8l-6.2,11l21.4,21.4c10.1-4,20.7-25.1,28.6-38.6l4.5,4.5l0,0l0.1,0.1l0,0c0.1,0.1,0.2,0.1,0.3,0
		c9.3-2.3,17.1-24.5,23-31.5c5.9-6.9,11.8-8.1,16.3-14.9s2.3-16.3,9.2-27.6c9.5-15.6,33.6-25.7,39.3-35.2c1.9-3.3,5.7,0.3,11.9-1.3
		c4.9-1.2,10.7-5.9,17-9.6c9.5-5.6,15.3-1.8,28.1-14.8c2.6-2.6,0.3-6.4,1.6-9.8c1.3-3.4,16.1-15.5,20.8-22.8
		c4.7-7.3,4.6-12.7,6.7-15.5c2.1-2.8,5.6-3.5,8.4-6.7c2.8-3.3-1.7-7.8,2.5-11c11.9-9.1,9.3-37.8,27.7-53.9
		c14.1-6.4,11-10.3,27.6-25.2c10.9-9.9,23-21.8,25.2-25.6c10.7-18.6,15-40.3,11.5-43.5l0.1-0.1L465,79L455.5,89z"/>
	<g>
		<g>
			<path class="st1" d="M154.7,461.9c19.3-33.6-24.2-28.8-21.5-38.2c4.4-15,36.6-32.8,44.9-43.8c8.3-11-0.6-9-1.8-15.4
				c-1.2-6.4,9.5-19.1,7-20.7c-2.4-1.6-8.6,5.4-12.2,3.3c-3.6-2.2,5.1-16.1-0.1-17.7c-5.2-1.6-20.3,10.3-18.7,1.5
				c0.6-3.1,5.7-6.8,4.4-11.9c-3.1-12.2,6.9-20.6,11.9-34.9c1.5-4.3-3.8-5.7-5-9.3c-0.9-2.8,3.4-8.3,1.6-9.5
				c-4-2.6-15.7,6.9-19.4,3.9c-4-3.3,5.8-20.1,1.8-26.2c-4-6-44.1-3.4-46.3-8.8c-4-11.8,9.7-21.3,4.6-22.8
				C94.4,208,62.1,247.3,41,244c-4.9-0.8,7.8-17,5.6-18.5c-1.2-0.8-11.9,11.5-20.9,13c-4.2,0.6-5.3-4.9-7.7-9.5
				c-2.8-5.7-8.1-5.4-5.7-14.2c0.8-3.3,6.2-7.7,10.1-14.1c3.7-5.9,2.8-10.5,10-18.2c15.4-15.6,33-13.8,35.3-21.7
				c2.3-7.8,12.2-26.8,15.3-34c3.1-7.2-6-8.3-3.4-17s12-5.3,13.3-8.9c1.3-3.6-11.4,0.5-6.6-6.4c2.8-3.9,11.3-5.1,18.5-8.5
				c5.4-2.5,9.7-8,12.5-7.3c6.6,1.8,2.5,10,10.3,12c3.7,0.8,10.7-4,17.1-11.3c9.7-11,18.5-13.6,19.9-16.6c1.7-3.8-13.8-5.4-5.9-17.1
				c3.3-4.9,7.2-0.1,22.3-5.2c15.1-5,30.1-22.6,31.3-21.4c11.1,8.3-18.4,44.8,3.4,41.4c6.8-1.1,21.5-15.1,26.7-15
				s12.6-9.1,20.3-11.1c7.8-2.1,25.6-0.7,32.2-4.6s14.5-25,20.6-26.2c3.4-0.7,0,9.3,0.8,16.9c0.7,6.4,7.9,6.4,4.4,14.6
				c-2.3,5.2-35.5,36.6-34.6,38.4c0.8,1.8,14.9-11.1,16.5-9.2c1.6,1.9-1.8,6.6,1,8.6c2.8,2.1,8.6-2.8,10.6-0.6
				c2,2.4-8.8,16.1-4.7,15.8c3.1-11.3,24.6-34.6,33.2-37.3c8.5-2.5,25,2.4,27.2,7.4c2.1,5.1-3.7,14.2-0.6,14.5
				c3.1,0.3,7.7-9,19.4-11.7c7.2-1.7,12.6,5.1,16.5,3.7c3.9-1.3,10.3-6.6,17.1-4.8c14.8,3.9,15.4,19.2,26.9,19.3
				c6,0.1,12-2.5,15.9-0.2c3.9,2.3-0.4,24.7-11.3,43.7c-2.2,3.7-14.3,15.8-25.2,25.6c-16.5,15-13.5,18.9-27.6,25.3
				c-18.5,16.1-15.8,44.8-27.7,53.9c-4.3,3.3,0.2,7.7-2.5,11c-2.8,3.3-6.3,3.9-8.4,6.7c-2.1,2.8-2,8.2-6.7,15.5
				c-4.7,7.3-19.5,19.4-20.8,22.8s1,7.2-1.6,9.8c-12.8,12.9-18.5,9.2-28.1,14.8c-6.4,3.7-12.2,8.4-17,9.6c-6.2,1.5-9.9-2.1-11.9,1.3
				c-5.7,9.7-29.8,19.7-39.3,35.2c-6.9,11.2-4.7,20.8-9.2,27.6c-4.6,6.7-10.5,7.9-16.3,14.9c-5.9,6.9-13.7,29.1-23,31.5
				c-3.2,0.8,10.4-18.9,3.5-15.6C184.8,415.3,169.2,456.2,154.7,461.9z"/>
		</g>
	</g>
	<g>
		<g>
			<path class="st1" d="M310.3,54.4c-2.3,3.2-4.9,11.1-3.4,12.7c1.5,1.6,14.2-2.2,19-7.1c4.7-5,5.5-8.8,4.6-12.1
				C329.5,44.6,313.7,49.7,310.3,54.4z"/>
		</g>
	</g>
</g>
</svg>
