<?xml version="1.0" encoding="utf-8"?>
<!-- Generator: Adobe Illustrator 22.0.1, SVG Export Plug-In . SVG Version: 6.00 Build 0)  -->
<svg version="1.1" id="Camada_1" xmlns="http://www.w3.org/2000/svg" xmlns:xlink="http://www.w3.org/1999/xlink" x="0px" y="0px"
	 viewBox="0 0 1096.3 218.7" style="enable-background:new 0 0 1096.3 218.7;" xml:space="preserve">
<style type="text/css">
	.st0{display:none;}
	.st1{display:inline;}
	.st2{fill:#222442;}
	.st3{opacity:0.5;fill:#373A5E;enable-background:new    ;}
	.st4{fill:#FF9100;}
	.st5{opacity:0.3;fill:#FCD9B1;}
	.st6{opacity:0.3;fill:#222442;}
	.st7{fill:none;stroke:#222442;stroke-width:2;stroke-miterlimit:10;}
	.st8{fill:#FFFFFF;}
	.st9{font-family:'Open Sans';}
	.st10{font-size:8.3821px;}
	.st11{font-size:10.1849px;}
</style>
<g id="BACKGROUND" class="st0">
	<g class="st1">
		<rect x="153.9" class="st2" width="750" height="500"/>
		<g>
			<path class="st3" d="M603.2,325.8c-0.3,0.6-0.1,1.7-0.5,2.1c-1.1,1.1-3.3,3.8-4.9,4.7c-2,1.2-4.5,1-4.5,4.4c0,1.1,1,2.9,1,3.6
				c0,0.1-1.4,3.1-1.4,3.1c-0.1,0-1.4,1.1-1.4,1.4c0,1,0,2.2,0.8,2.8c0.1,0.5-0.1,0.8-0.1,1.7c0,1.8,1.5,3.8,3.3,3.8
				c4.2,0,4.9-4.7,6.1-7.8c1.5-4,3.2-7.5,3.2-12.5c0.1,0,0.2,0.2,1.3,0.3v-1C605.1,330.5,605.5,326,603.2,325.8z"/>
			<path class="st3" d="M663.9,287.3c0,1,0.8,1.9,1.7,1.9c1.3,0,2.2-1.6,2.2-2.9c0-2.2-2-3.1-3-4.7
				C664.9,283.7,663.9,285.3,663.9,287.3z"/>
			<path class="st3" d="M715.4,311.5c0-0.7-0.8-1.7,0.3-1.9c0-1.5,0-2.1,0-3c0-0.7-0.9-0.9-1.3-1.3c-0.8-0.8-1.6-1.2-1.6-2.6
				c-0.8,0-1.3-0.2-1.3-1.1l0.3-0.4c-0.1-0.3-0.3-0.4-0.6-0.4c-0.2,0-0.3,0-0.6,0c0,0,0.1-0.5,0.1-0.6c0-1-1.2-1.5-2.2-1.9
				c-1.9-0.6-2.7-1.6-4-2.9c-0.7-0.7-1.2-1.6-2.2-1.9c-0.3-0.1-0.6,0-0.8-0.4c-0.6-1.1-1-2.7-2.6-2.7h-2.3c-0.6,0-0.7-2.1-1.4-2.1
				c-0.1,0-0.3,0-0.3,0v2c0,0.7,1.2,2.6,1.8,2.8c0.6,0.1,1.3,0,1.6,0.6c0.4,0.8,0.6,1.3,1,2.1c0.5,1,2.1,0.7,2.6,2.3
				c0.1,0.6,0.6,2.2,1,2.4c0.2,0.1,1,0.2,1.1,0.4c0.1,0.2,0,0.6,0.2,0.6s1,1.4,1.2,1.7c0.8,1.6,1.3,2.9,2.7,4.2
				c1.2,1.3,2.5,1.8,3.8,3.1c0.1,0.1,1.3,1.9,1.6,1.9C714.1,312.5,715.4,312.3,715.4,311.5z"/>
			<path class="st3" d="M722,299.3c0,0.3,0.7,2.8,1,2.9c0.4,0.1,0.8,0.1,0.9,0.4c0,0.1-0.1,0.3-0.1,0.3c0.9,1.4-0.2,3.8,2.4,3.8
				c0.6,0,0.9-0.4,1.5-0.3c0.1,0.3,0,1,0.1,1c0.2,0,0.4,0.3,0.6,0.3c0.8,0,1.2-0.8,1.7-0.8c1.2,0,1.9,0.8,3.1,1.1c0,0.4,0.2,1,0.9,1
				c0.9,0,1-0.8,2.2-1.1c0-0.8,0.8-1.8,0.8-2.4c0-0.3-0.3-0.5-0.3-1c0-0.4,0.7-1.5,1.5-1.6c0-1.2,0.6-1.6,0.9-3.1l0.4-0.7
				c0.2-0.1,0.5-0.1,0.7-0.1c0.8,0,1.3,0.3,1.5-0.7c-1.2,0-3.1-3.5-3.1-4.5c0-0.2,0.3-0.4,0.5-0.5c-0.1-0.2-0.2-0.4-0.3-0.6
				c0,0,1.9-0.8,2-1c-0.1,0-0.3-0.2-0.3-0.3c0-0.6,1.5-0.2,1.5-0.8c0-1.4-2.9-0.6-2.9-2c0-1,0.1-1.7-1-1.7s-2.6,2.6-3.2,3.7
				c-0.3,0.6-1.9,0.2-2.5,0.8c-0.1,0.1-0.2,0.5-0.4,0.6c-0.3,0.1-0.3,0.3-0.7,0.5c0,0-0.8,0.6-0.5,0.8c-0.6,0.6-0.6,1.3-1.6,1.5
				c-0.8,0.1-1.5,0.1-1.9,0.6c-1,1-0.7,3.1-2.9,3.1C723.5,298.6,722,298.1,722,299.3z"/>
			<path class="st3" d="M746.5,300.1c1.2,0,1.7-0.3,2.6-0.3c0.9,0,1.5,0.5,2.4,0.5c1.4,0,1.9-1.2,2.1-2.2c0.2,0,0.3-0.5,0.3-0.5
				h-0.4c-0.8,1-1.8,1-2.2,1h-0.6l-4.8-0.6c-1.8,0-2.6,2.4-2.6,4.1c0,0.4-0.6,0.8-0.6,1.1c-0.5,1.6-1.4,2.3-1.4,3.8
				c0,0.8,1.3,0.9,1.3,0.9c0,1.1,0,2.6,0,3.3c0,0.4,0.7,0.9,1.2,0.9c0.8,0,1.1-2.4,1.1-2.8c0-0.9-0.6-1.4-0.6-2.3
				c0-0.5,0.6-0.8,1.1-0.8c0.2,0,0.4,0.1,0.6,0l-0.3,1.5c0,0.9,1.1,1.5,1.1,2.4c0,0.2,0,0.9,0,0.9h0.9c0-2.1,1.5-0.9,1.5-1.7
				c-0.3-0.1-1-1-1-1.4c0-0.1,0.2-0.3,0.3-0.5c-0.4-0.2-1.5-2.7-1.5-3c1.9,0,1.8-1.6,3.9-2v-0.6c0-0.1-4.3,1-4.4,1.2v-0.3
				c-0.3,0.3-0.4,0.7-0.8,0.7c-1,0-1.5-1.3-1.5-2.4C744.2,299.8,745.3,300.1,746.5,300.1z"/>
			<path class="st3" d="M733.1,317.7c0.8,0,0.8,0.5,1.5,0.5c0.1,0,0.6-0.5,0.8-0.8c-0.5-0.2-0.5-0.4-1.1-0.6s-1.2,0.4-1.7-0.1
				c-0.1-0.1-0.1-0.6-0.6-0.6c-1.2,0-2.2,0.1-2.9-0.6c0.1,0.1,2.5-0.2,2.6-0.2h-0.6H729c-1.3,0-1.7-1.4-3.1-1.4c-0.8,0-1,1-2.1,1
				c-2.3,0-3.2-2.3-5.3-2.3c-0.4,0-0.7,0.4-1.1,0.4c-0.2,0-0.3-0.3-0.6-0.3c-0.4,0-1.7,1.2-1.7,1.5c1,0,1.6,0.8,2.3,1.5
				s1.7,0,2.8,0.3c1.4,0.4,2.5,0.5,3.8,0.5c0.7,0,0.9,0.9,1.7,0.9c2.7,0,5.1,0.1,7.4,1C733.1,318.2,732.9,317.7,733.1,317.7z"/>
			<path class="st3" d="M747.7,318.2c0.9,0,1.5-0.3,2-1.2c-0.6,0.3-1,0.8-2,0.8s-1.5-0.4-2.8-0.4c-0.5,0-1.3-0.2-1.3,0.3
				c0,0.8,1,0.5,1.5,0.5C745.8,318.2,746.8,318.2,747.7,318.2z"/>
			<path class="st3" d="M740.2,317.2c0,0-0.1,0.5-0.1,0.7c-0.3-0.1-0.7-0.2-1.3-0.2s-1.2,0-1.2,0.7c0,0.3,0.8,0.5,1.4,0.5
				c0.7,0,1-0.5,1.7-0.8l0.6,0.1h1.3v-1L740.2,317.2L740.2,317.2z"/>
			<path class="st3" d="M744.2,319.3c-0.2,0-0.5,0-0.7,0c-0.5,0-1.3-0.1-1.3,0.5c0,0.7,1.1,0.7,1.8,0.7c0,0.2,0.1,0.9,0.4,0.9
				c0.1,0,0.2,0,0.3,0c0.2,0,0.6-0.3,0.6-0.5C745.2,320,744.2,319.3,744.2,319.3z"/>
			<path class="st3" d="M736.7,317.4c-0.2,0-0.4,0-0.6,0c0,0.2,0,0.5,0,0.7s0.4,0.5,0.6,0.5c0.3,0,0.6-0.3,0.7-0.7
				C737,317.8,737,317.4,736.7,317.4z"/>
			<path class="st3" d="M753.8,319.6c1.1,0,3.4-0.6,4.1-1.6c-0.6-0.4-3.7-0.1-4.4,0.6c-0.1,0.1-0.1,0.6-0.3,0.6
				c-1,0.3-2.4,0.3-2.4,1.9c0,0.3,0.2,0.6,0.5,0.6c0.8,0,2-0.8,2.3-1.2C753.8,320.3,753.5,319.6,753.8,319.6z"/>
			<path class="st3" d="M773,312.6c0-0.5-0.1-0.2-0.3-0.8c-0.5,0.1-0.4,0.7-0.4,1.2c0,0.4-0.7,0.5-0.7,1.2c0,0.2,0.2,0.6,0.4,0.6
				c0.6,0,0.4-0.8,0.4-1.5C772.8,313.3,773,313,773,312.6z"/>
			<path class="st3" d="M755.9,307.3c0,0.6,0.8,1.3,1.2,1.3c0.2,0,0.7-0.8,0.7-0.9C757.8,307,755.9,306.5,755.9,307.3z"/>
			<path class="st3" d="M759.5,307.5c0,0,1,0.3,1.2,0.3c0.6,0,0.9,0,1.6,0c1,0,1.5,0.5,2.4,0.5c0.1,0,0.4-0.1,0.4-0.2
				c0-0.6-0.8-0.7-0.8-1.3l-0.2,0.1c-0.4,0-0.9-0.2-1-0.2H760C759.8,306.9,759.5,307.2,759.5,307.5z"/>
			<path class="st3" d="M759.2,296.3c-0.6,0.3-1.2,0.8-1.2,1.4c0,0.9,0,1.2,0,1.9c0,0.7,0,0.5,0,0.9s0.7,1.3,1.4,1.3
				c-0.3-0.5-0.3-0.8-0.3-1.2v-0.5c0,0,1.4-0.1,1.7-0.1c-0.1-0.6-0.5-0.7-0.5-1c0-0.4,0.7-0.5,0.7-0.9
				C759.8,297.8,759.3,297.2,759.2,296.3z"/>
			<path class="st3" d="M800.6,312c0.2,1,1.1,0.6,1.7,1.1c0,0,0.1,0,0.1,0.1c0.1,0,0.1,0.1,0.1,0.1l-0.1-0.1c0.3,0.2,0.8,0.5,1,0.5
				c1.5,0,2.1-0.8,3.3-1c0-1.3,1.5-1,1.5-2.4c0-0.4-0.2-1-0.6-1c-1,0-0.6,1.5-1.5,2c-0.6,0.3-1.7,0.3-2.7,0.7c0,0-0.6,0.3-0.8,0.3
				h-2V312z"/>
			<path class="st3" d="M797.1,312.5c-1.7-0.8-1.6-2.7-3.8-3.4c-0.3-0.1-0.9-0.1-0.9-0.7c-0.8,0-1.5-1-2.4-1c-1.5,0-3-0.7-5-1.5
				v-0.1h0.2c-0.1-0.1,0-0.1-0.1-0.2l0.2,0.5c-0.3-0.1-0.8-0.3-1.1-0.3h-1.9c-0.4-2.1-1-1.3-1.8-1.6c-0.2-0.1-0.8-0.1-0.8-0.5
				c-0.8,0.1-1.7,1.3-2.3,1.5c-1,0.3-1.1,0.3-1.7,0.9c-0.1,0.1-0.8,1.2-1.3,1.2c-0.4,0-1.6-1.1-1.6-1.4c-0.6,0-1.3-0.3-1.3-0.6
				c0-0.6,0-1.5,0-2.5c-2.1-0.3-1.9-1.4-3.1-1.4c-1.3,0-1.6,1.2-2.5,1.2c-0.4,0-0.9,0.2-0.9,0.6c0,1,1.7,0.6,2.2,1.5
				c0.1,0.2,0.2,0.6,0.4,0.6c0.3,0.1,0.6,0.5,1,0.5c0.8,0,1.3,0,2,0h0.5c-0.5,0-2.6,0.4-3.5,0.9c0.1,0.6,0.9,0.1,1.3,0.7
				c0.3,0.6,0,0.8,0.3,1.5c0.1,0.2-0.3,0.2-0.1,0.2c0.6,0,0.3-0.7,0.3-1.3v0.6c2.1-0.3,2.3,1.5,3.3,1.5c1.1,0,3.4,0.3,4.1,0.7
				c0.7,0.3,2.8,1.1,3.1,1.9c0.4,1,0,2,1,3c-0.4,0.2-1.7,0.5-1.7,1.3c0,0.6,0.7,0.5,1.2,0.5h1.5c0,0,0.8-0.8,1-0.8
				c1.8,0,2.3,1.8,4.1,1.8c0.8,0,1,0,2.6,0c0,0,0.6-0.3,0.3-1.2c1-0.5,0.8-1.5,2.6-1.5c2.3,0,3.5,2.1,4.9,3.5
				c0.1,0.1,0.7,0.3,0.7,0.6c0,0.8,1.6,1.8,2.6,1.8h1.8c0.1,0,1.2,1,1.3,1s0.3,0,0.4,0c0,0,0.5-0.9,0.9-1.2c-0.2-0.1-1.3,0-1.4-0.3
				c-0.1-0.3-0.3-0.7-0.7-0.9c-0.3-0.1-0.7,0.2-0.8-0.1c-0.1-0.3-0.3-0.8-0.6-0.8c-0.5,0-1.3-0.3-1.5-0.7c-0.6-0.8-0.4-1.3-1.1-2
				c-0.1-0.1-1.3-1.3-1.3-1.7c0-0.6,1.3-0.3,1.3-1.1C799.3,312,797.8,312.8,797.1,312.5z"/>
			<path class="st3" d="M808.7,307.9c-0.8-0.8-1.4-1.6-2.7-2c0.2,0.6,0.7,0.5,1.3,0.8c0.9,0.6,0.8,1.3,1.7,1.7
				c-0.1,0.7-0.1,1.2,0.7,1.3c0.1,0.1,0.3,0,0.4,0c-0.1-0.1,0-0.3,0-0.5C810,308.4,809.3,308.5,808.7,307.9z"/>
			<path class="st3" d="M813.1,311.6c-0.1,0.7-0.2,1.4,0.8,1.5c0,0.2,0,0.3,0,0.6c0,0.2,0.4,0.5,0.6,0.5c0.2,0,0.5-0.3,0.5-0.6
				C815,313.4,813.5,311.9,813.1,311.6z"/>
			<path class="st3" d="M826.7,320.9c-0.1,0.4,0.4,1.5,1.1,1.5c-0.1-0.1,0-0.3,0-0.4C827.8,321.4,827.2,321.3,826.7,320.9z"/>
			<path class="st3" d="M823.6,319.8c0,0.8,1.1,1.1,1.9,1.1c0.1,0,0.3-0.1,0.3-0.1C825.4,320.1,824.7,319.8,823.6,319.8z"/>
			<path class="st3" d="M823.9,317.1c0.1,0.6,1.3,2.2,2,2.2C825.6,318.3,824.9,317.7,823.9,317.1z"/>
			<path class="st3" d="M820,315.2l-0.1-0.1h-0.1c0,1,1.6,1.6,2.2,1.6c0.2,0,0.4-0.1,0.6-0.1C822,316,820.6,315.5,820,315.2z"/>
			<path class="st3" d="M816.9,313.9c0,0.1-0.3,0.1-0.3,0.1l1,0.7h0.6C817.9,314.2,817.5,314.2,816.9,313.9z"/>
			<path class="st3" d="M816.6,313.7c0.1,0.1,0.2,0.2,0.3,0.2l0,0L816.6,313.7z"/>
			<path class="st3" d="M796.5,386.5c-0.1,0-3.8-1-3.8,0c0,2.1,2.3,6.9,4.4,6.9c1.4,0,3.3-3.5,3.3-5.1c0-0.8-0.6-1.5-0.8-2.3
				C798.6,386.3,797.4,386.5,796.5,386.5z"/>
			<path class="st3" d="M800,385.7c0.1-0.3,0.2-0.5,0.2-1.2c-0.2,0.1-0.6,0.1-0.9,0C799.3,385.1,799.3,385.5,800,385.7z"/>
			<path class="st3" d="M776.7,375.5c0.6,0.6,1.7,0.5,2.4,0C778.1,375,778,374.8,776.7,375.5z"/>
			<path class="st3" d="M765.7,324.4c0.2,0,0.6,0,1.6,0v-1c-1-0.1-2,0-3.3,0.3C764.4,324.1,764.9,324.4,765.7,324.4z"/>
			<path class="st3" d="M808.7,351.6c-1.3-1.3-4-2.5-4-5.3c-0.9,0-2,0-2.3-0.9c-0.3-1-0.4-2.3-1.3-3.1c-1.2-1.2-4.2-1.8-4.7-3.5
				c-0.6-1.7-1.1-2.6-1.7-4.5c-0.3-1.1-0.3-3.3-1.2-3.9c-0.3-0.1-1.6-0.6-2.3-0.8c-0.8-0.6-0.4-1.8-0.7-2.8
				c-0.4-1.3-1.3-2.6-1.6-4.5c-1.2,0.6-0.9,1.5-2,2.4v6.3c0,1.6-0.7,5.7-2.9,5.7c-1.3,0-1.7-1.5-2.6-1.9c-1.7-0.7-2.8-1-4.6-1.7
				c-0.3-0.1-0.3-1.1-0.7-1.4s-1.4-0.1-1.4-0.7l0.8-3.5c0.6-0.4,1.6-0.5,1.6-1.4c0-0.6-1-1.3-1.4-1.3c-0.8,0-1,0.6-1.9,0.6
				c-2.5,0-3.9-1-6.3-2c0.1,0.8,0.8,1,1.3,1.6c-0.2,0.1-0.8,0.5-1.3,0.5c-1.2,0-4,0.6-4,1.6s-1,1.5-1,2.4c0,0.6,0.2,1.1-0.2,1.7
				c-0.1-0.1-0.7-0.6-1-0.6c-0.6,0-1.2,0.3-1.5,0.8c-0.1-1.3-0.8-2.6-2.1-2.6c-1.5,0-1.8,1.4-3.7,1.4c-0.1,1.6-1.5,1.9-1.5,3.8
				c-0.6,0-0.9-0.3-1.5-0.6c-0.4,0.8,0,1.8-0.8,2.3c-0.3-0.5-1-0.8-1.3-1.4c-0.7,0.3-1.2,1-1.2,1.7c0,0.4,0,0.8,0,1.2
				c0,2.4-5.4,4.3-7.9,4.7c-1.3,0.2-3.7,0.3-4.5,1.2c-0.8,0.8-2.3,2.5-3.6,2.6c0-0.2,0.2-0.5,0.1-0.7c-0.3,0.1-0.6,0.3-0.6,0.8
				c0,1.8,0,1.9,0,4c0,1.7,0.7,2.6,0.7,3.6c0,0.3,0.1,0.6-0.1,0.9c-0.2-0.2-0.5-0.6-0.7-0.9c-0.2,0.3-0.3,0.6-0.4,0.9
				c-0.3,1,1,1.4,1.4,2.4c0.9,2.7,1.1,3.7,1.9,6.7c0.3,1.3,1.4,2.4,1.4,4.4c0,1.6-1.6,2.1-1.6,3.1s3.3,2.4,4.5,2.4
				c3.1,0,4.2-2.3,6.6-2.3c0.8,0,0.8-0.6,1.9,0c1.5,0,2.7-0.4,4.2-0.5c0.6-3.5,4.9-2.3,8.5-3.5c1.5-0.5,2-1.6,4.5-1.6
				c2.3,0,6.4,0.7,7.5,2.1c0.6,0.8,2.1,4.2,2.6,4.2c0,0-0.3,1.3,0.6,1.3c1.5,0,3.2-3.6,4.5-4.9c0.1,1-0.3,4.7-2,5
				c0,0.3,0.3,0.7,0.7,0.7c1,0,1.1-1.3,1.7-1.5c0-0.2,0.1-0.5,0.1-0.7c0.3,0.3,0.7,0.6,0.7,1.5c0,0.7-0.3,0.6-0.5,1.6h0.8
				c0.6,0,0.9-0.3,1.4-0.6c0,0.1,0.1,0.3,0.1,0.3c0.1,0.9,1,1.7,1,2.8c0,2.9,4.4,4.6,7.2,4.6c1.7,0,1.2-1.4,2.8-1.5
				c0.1,0.4,2.8,2,3.4,2.1c0.6-3.3,7-1.9,7-5.1v0.1c0-2.4,1.5-4.6,2.1-6.3c0.7-2.2,2.2-2.9,3.4-4.9c0.3-0.6,0.7-0.8,0.7-1.4v-2
				c1-0.6,0.9-2.8,0.9-4.3c0-2.1-0.8-5.8-1.9-7.3L808.7,351.6z"/>
			<path class="st3" d="M850.7,387.7c-0.2,0-0.4-0.1-0.5-0.3c-0.3,0.1-0.7,0.6-1.2,0.6c-0.4,0-0.3-0.5-0.3-1c-0.2,0-0.5-0.2-0.5-0.7
				c-0.6,0.3-1.7,1.3-1.7,2.3c0,0.1-0.1,0.3-0.1,0.4c-0.6,0.1-1,0.2-1.3,0.8c-0.1,0.2-0.1,0.7-0.1,0.7s-1,1.5-1.3,1.7
				c-1.2,0.6-2.2,2.3-3.9,2.3c-0.5,0-0.8,0.4-1.1,0.9c-0.7,1-2.8,2-2.8,3.8c0,0.1,0.2,0.3,0.3,0.3c0,0.3,2.7,1.4,3.1,1.4
				c0.4,0,1.3,0.3,1.5,0.3c0.8,0,2-1,2.6-1.7c0,0,1.9-4,2.2-4.9c0.6,0,2.2-0.4,2.6-0.4c0.1-0.8-0.2-1.1,0-2.2c1.1,0,2.5-2.6,2.7-3.5
				C850.8,388.6,850.7,388.3,850.7,387.7z"/>
			<path class="st3" d="M859.1,379.3c-1.1,0-1,1.2-2.4,1.2c-1.7,0-2.6-1.3-2.6-2.3c-0.1,0-0.3,0-0.4,0c-0.3,0-0.6,0-0.6,0h-0.4
				c-0.4,0-1.2-2.1-1.2-2.4c0-0.2,0.2-0.4,0.3-0.6c-0.4-0.2-0.4-0.7-0.8-1.2c-0.7-0.7-1.9-0.8-2.6-2c0.4,1.7,1.4,4,3,4.2
				c-0.1,0.2,0,0.5,0,0.7c0,0.6,0.9,0.8,0.9,1.3l0,0c0,0.4,0.1,0.9,0.1,1.4c0,1-0.2,2-0.9,2.7c-0.4,0.3-1,0.4-1,1.1
				c0,1.3,2.6,0.7,2.6,2.1c0,0.8-0.8,1.2-0.8,2c0,0.6,0.4,0.9,1,0.9c1.5,0,1.9-1.4,2.6-2.4c0.1-0.2,1-0.9,1-1.4
				c0-0.2-0.3-0.5-0.3-0.7c0-0.6,0.7-0.8,1.4-0.9c0.1,0,0.1-0.2,0.2-0.2l0.3,0.3c0.7-1,0.4-2.5,1.4-3.5
				C859.5,379.5,859.3,379.3,859.1,379.3z"/>
			<path class="st3" d="M858.4,337v-0.8c0-0.1-0.2-0.3-0.4-0.6c-0.6,0.2-1.4,0.4-1.4,1.3c0,0.3,0.6,0.4,1.1,0.4
				C858.3,337.3,858.4,337.4,858.4,337z"/>
			<path class="st3" d="M859.4,334.4c0,0.2,0.1,0.6,0.3,0.6c0.7,0,1.6-0.7,1.6-0.9c0-0.2,0-0.4,0-0.6
				C861.3,333.5,859.4,333.6,859.4,334.4z"/>
			<path class="st3" d="M754.7,281.3c-0.1,0.2,0,1-0.2,1.4s-1.3,0.1-1.3,0.9c-0.4,0.1-0.6,0.4-0.6,0.8c-0.1,0-0.2,0-0.4,0
				c-0.4,0-0.3-1-1.1-1c-1.1,0-0.8,1.3-2.2,1.3c-0.1,0.6-0.4,1-0.4,1.6c0,0.2,0.2,0.4,0.2,0.6s-0.5,1.4,0,1.4c0.7,0,0.6-2,1.3-2.6
				c0,0,0.4,0.5,0.6,0.6c0.1-0.1,0.2-0.3,0.2-0.3c0.1,0.1,0.2,0.3,0.6,0.3c-0.1-0.2,0-0.4,0-0.5h0.9c0.1,0.2,0.2,0.4,0.2,0.6
				c-0.2,0.1-0.3,0.3-0.3,0.7c0,1.1,0.7,2.1,1.6,2.1c0.2,0,0.4,0.1,0.6,0c0,0.2,0.1,0.5,0.3,0.5c0.4,0,0.7-0.4,0.7-0.8
				c0-0.7-0.7-0.9-0.7-1.3s0.3-0.5,0.6-0.8c0.1,0.2,0.3,0.3,0.4,0.5v-0.1c0.1,0.3,0.6,1.4,0.8,1.4c0-1,0.8-1.4,0.8-2
				c0-0.5-1-4.1-1.5-4.6C755.4,281.6,755.1,281.3,754.7,281.3z"/>
			<path class="st3" d="M739.9,283.7h0.4c0.8-0.5,2-1.2,2.3-2.6c0.5,0,1-0.1,1.1-0.6c0.3,0,0.4-0.2,0.6-0.4c-0.2-0.2-0.6-0.4-0.6-1
				c-0.2,0.2-0.2,0.5-0.3,0.8C742.7,281.2,740.5,281.9,739.9,283.7z"/>
			<path class="st3" d="M743.4,270.9c0,0.4,1.1,1.1,1.4,1.1c0.2,0,0.3-0.2,0.5-0.4h0.4v0.6c-0.1,0.1-0.4,0.3-0.4,0.7
				c0,0.3,0.5,0.9,0.9,0.9s0.6-0.4,1-0.4c0.9,0,0.9,1.3,1.8,1.4c-0.2-0.5-0.4-0.7,0-1.1c0.4,0.5,1.9,1.1,2.3,1.9
				c0.1,0.2,0.1,0.5,0.3,0.5c0.1,0,0.3-0.2,0.3-0.4c0-0.2,0-0.3,0-0.5c-0.4,0-0.8-0.3-0.8-0.7c-0.1,0.1-0.4,0.1-0.4,0
				c0-0.3,0.3-0.4,0.4-0.7c-0.1,0-0.2-0.1-0.4-0.1c-0.3,0-0.3,0.4-0.6,0.4c-0.4,0-0.6-1.4-1.3-1.4c-0.4,0-0.7,0.2-0.7,0.5
				c0,0.1,0,0.2,0,0.3c-0.7-0.3-1.6-1.8-1.5-2.7c0-1.3,1.2-1.4,1.2-2.7c0-1-0.8-1.9-0.8-2.7c0-0.1-0.1-0.3-0.1-0.4s-0.1-0.2-0.1-0.3
				c-0.3,0.1-0.5,0.6-0.8,0.6c-0.6,0-0.4-1.1-1.1-1.1c-0.5,0-0.6,0.6-0.7,1.2c0,0.7,0.3,1.2,0.3,1.9c0,0.5-0.1,1.4-0.4,1.8
				C743.2,268.7,743.4,269.9,743.4,270.9z"/>
			<path class="st3" d="M754,276.4c-0.5,0-0.9-0.3-1.4-0.3c-0.2,0-0.4,0.2-0.6,0.2c0.1,0.5,1.5,0.9,1.5,1.8c0,0.1-0.2,0.4-0.3,0.4
				s-0.5,0-0.8,0v0.4c0.1,0.2,0.5,0.8,0.9,0.8v0.4c-0.3,0.4-0.1,0.8,0.3,0.9c0.2,0,0.4,0,0.6,0v-0.4c-0.3-0.1-0.5-0.7-0.5-1.2h0.9
				c0.1-0.2,0.2-0.4,0.3-0.8c-0.1,0-0.5-0.6-0.5-0.6s0.1-0.6,0-1c-0.1,0-0.3,0-0.4,0C754.1,276.8,754,276.5,754,276.4z"/>
			<path class="st3" d="M748.6,277.5c-0.1-0.1-0.2-0.2-0.3-0.2s-0.4,0.2-0.4,0.3c0,0.5,0.2,1.7,0.2,2.7c0.6-0.4,2-0.9,2.1-1.9
				C750.2,278,749.1,277.8,748.6,277.5z"/>
			<path class="st3" d="M750.5,279.3c-0.3,0.1-0.7,1.6-0.7,1.7c-0.2,0-0.6,0.2-0.6,0.4c0,0.4,1.1,1.6,1.4,1.6c0.1,0,0.4-0.2,0.4-0.3
				c0-0.4-0.3-0.2-0.3-0.8c0-0.7,0.7-1.2,0.7-1.9C751.4,279.6,751.1,279.1,750.5,279.3z"/>
			<path class="st3" d="M751.1,282c0.1,0,0.3,0,0.3,0c0-1,0.8-1.4,0.9-2.5c-0.2,0-0.4,0.1-0.6,0.1C751.7,280.8,751.3,281,751.1,282z
				"/>
			<path class="st3" d="M753,280.9c-0.2,0.2-0.5,0.1-0.8,0c-0.2,0.4-0.6,0.5-0.6,0.9c0,0.1,0.2,0.3,0.4,0.3
				C752.6,282.1,753,281.6,753,280.9z"/>
			<path class="st3" d="M751.7,277.6c0-0.8-0.8-1-1-1.5h-0.6c0,0.2,0,0.5,0,0.9c0.3,0,0.6,0,0.9,0
				C751,277.3,751.7,277.9,751.7,277.6z"/>
			<path class="st3" d="M746.6,276.5c0.3,0,0.6-0.7,0.5-1.2c-0.2-0.7-0.9-0.6-1.6-1.1h-0.6C744.8,274.1,746.3,276.5,746.6,276.5z"/>
			<path class="st3" d="M747.3,274.5c0.1,0.1,0.5,0.1,0.6,0C747.8,274.4,747.4,274.5,747.3,274.5z"/>
			<path class="st3" d="M746.4,249.4c-1,0-2.4,2.7-2.4,4.2c0,1-0.2,1.9,1,1.9C746.6,255.5,748.1,249.4,746.4,249.4z"/>
			<path class="st3" d="M725.9,261.2c0-0.4-0.7-1-1-1c-0.9,0-3,1.7-4,1.7c0,0,0,0.6,0,1c0,0.9,0.7,1.4,1.7,1.4
				C723.6,264.3,725.9,262.2,725.9,261.2z"/>
			<path class="st3" d="M716,305.3c0.1,0.2,0.3,1.1,0.5,1.1c0.3,0,0.5,0.5,0.9,0.5c0.1,0,0.3,0,0.5,0c-0.1,0-0.1-0.6-0.1-0.8
				c-1,0-1.4-1.4-1.7-2.4c-0.5,0.1-1.5,0.5-1.5,0.9C714.6,305.1,715.7,304.7,716,305.3z"/>
			<path class="st3" d="M720.2,307.1c0.4,0,0.7-0.4,0.8-0.8c-0.2-0.1-0.4-0.3-0.6-0.3s-0.5,0-0.7,0c-0.1,0,0,0.3,0,0.3
				C719.6,306.6,719.8,307.1,720.2,307.1z"/>
			<path class="st3" d="M702.6,303.1h-1c0,0,0-0.1,0,0c0,0.5,1.1,1.6,1.5,1.7C703.2,304.1,702.6,303.7,702.6,303.1
				C702.6,303.2,702.6,303.1,702.6,303.1z"/>
			<path class="st3" d="M699.8,298.6l-0.3,0.1h0.1c0.1,0.4,1,1.5,1.3,1.5C701.3,300.3,700.2,298.9,699.8,298.6z"/>
			<path class="st3" d="M763,232.5c0,0.3,0.3,0.8,0.7,0.8c0.2,0,0.5-0.3,0.8-0.3c-0.1-0.2,0-0.4,0-0.6c0.1,0.3,0.1,0.8,0.6,0.9
				l-0.3,1c0,0-1.1,1-1.1,1.1c0,0.3,0.6,1.1,0.6,1.1V236c0,0.2,0.4,0.6,0.6,0.6c1,0,1.7-2.2,1.9-3.4c0.2,0.1,0.5,0,0.7,0
				c-0.1-0.2,0-0.5,0-0.7l-0.6-0.6c-0.2,0-0.1-0.5-0.1-0.7c-0.8,0-1.2-0.6-1.8-0.6C764.9,230.8,763,232.1,763,232.5z"/>
			<path class="st3" d="M769.4,233c0.9,0,0.8-1.1,1.4-1.7c0.2,0.1,0.8,0.5,0.8,0.5c1,0,2.1-2.4,0-2.4c0,0-0.9,1.2-2.1,0.8
				c0,0.1-1.2,1-1.2,1c0,0.3,0.2,0.5,0.6,0.8C768.8,232.4,769,233,769.4,233z"/>
			<path class="st3" d="M776.9,224.3c-0.6,0-1,1.9-2.2,1.9c-1.6,0-2.2,0-4.3,0c-1.8,0-2.4,2-3.9,3c-0.3,0.1-0.9,0.4-0.9,0.6
				c0,0.3,0.5,0.3,1,0.3c1.5,0,2.7-0.5,3.6-0.9c0.6-0.3,1,0.1,1.5-0.2c0.2-0.1,0.3-0.5,0.7-0.5c0.8,0,0.9,0.4,1.8,0.6
				c0,0.3-0.5,0.8-0.5,1.2c0,0.2,0,0.6,0,0.6c1,0,0.7,0.6,1.3,0.7c0.4-0.7,1.3-1.8,1.8-1.8c0.2,0,0.6,0,0.8-0.1
				c-0.1,0-0.7-0.8-0.7-1.1c0-0.2,0.2-0.6,0.4-0.6c0.6,0,0.6,1.2,2,1.2c0.6,0,1,0.2,1.4-0.9h0.7c0,1,0.2,0.4,0.3,0.4
				c0.3-1,0.9-1,1.9-1.7c-0.1,0.5-0.3,0.6-0.1,1.1c0.8-0.3,0.8-1,1.7-1.4c-0.1-0.4-0.3-0.7-0.3-1.3c0-0.9,0.8-1.3,0.8-1.9
				c0-0.8-0.1-2.9,0.6-3.1c0.2-0.1,0.8,0.1,0.8-0.1c0-0.1,0-0.3,0-0.4c0-0.9,0.8-1,0.8-2.2c0-1-1-1.5-1-2.4c0-0.5,0-0.9-0.2-1.4
				c-0.1-0.2-0.4-0.4-0.9-0.4c-0.2,0-0.1,0.6,0.1,0.6c0.1,0,0.1,0.1,0.2,0.1c-0.8,0.7-0.8-0.2-0.9-0.2c-0.9,0-1.6,1.7-1.6,2.6
				c0,0.4,0.3,0.4,0.3,0.8c0,2.2-2.4,5.1-3.8,5.6c-0.8,0.3-1,1-2,1c-0.1,0-0.3-0.2-0.3-0.3c0-0.3,0.1-0.7,0.3-0.9
				C777.8,222.8,776.9,224.3,776.9,224.3z"/>
			<path class="st3" d="M783.9,209.1c0,0.5-0.8,1-0.8,1.7c0,0.3,0.8,0.4,0.8,0.7c0,0.1,0,1.3,0,1.3h0.3c0.6,0,1.1-0.1,1.7-0.9
				c-0.3-0.3-1.3-0.2-1.3-0.9c0-1.2,1.2-0.4,2.1-0.4c0-0.2,0.3-0.5,0.5-0.5c1.2,0.8,1.9,0.9,3,1.6c0.6-0.8,1-2.4,2.5-2.4
				c1,0,1.5-0.2,2.2-0.6c-0.3-0.1-0.8-0.5-0.8-0.9c0-0.3,0.3-0.5,0.4-0.8c-0.4-0.3-0.9,0.1-1.5,0.1c-2.7,0-3.5-2.2-5.4-3.5
				c-0.1,0.2-0.4,0.4-0.4,0.9c0,0.3,0.3,0.4,0.3,0.7c0,0.9-0.5,3.6-1.7,3.6c-0.2,0-0.5,0.1-0.7,0l-0.3,0.1c-0.2-0.1-0.9-0.2-0.9-0.3
				L783.9,209.1z"/>
			<path class="st3" d="M794.7,207c-0.1,0.2-0.2,0.6,0,0.6c0.6,0,1.5-1,1.7-1.5l-0.2-0.2C795.7,206,795,206.6,794.7,207z"/>
			<path class="st3" d="M796.1,205.9l0.1,0.1h0.1L796.1,205.9z"/>
			<path class="st3" d="M800.1,203.5c-0.8,0-1.7,1.4-1.7,1.4c0,0.1,0,0.4,0,0.4c1,0,1-1.4,2.1-1.4v-0.4
				C800.5,203.5,800.6,203.5,800.1,203.5z"/>
			<path class="st3" d="M803.3,202.7c0.6,0,1.1-1,1.2-1.4c-0.1,0-1,0-1.1,0.4c-0.1,0.2,0.1,0.6-0.1,0.6
				C803.2,202.3,803.2,202.7,803.3,202.7z"/>
			<path class="st3" d="M790,183.6c-0.3-0.9-0.8-1.9-0.8-2.9c-0.1,0-0.2,0-0.2,0s0,0.2,0,0.9c0,0.3-0.4,0.5-0.4,0.9
				c-1,0.2-1.5,2.1-1.5,3.5c0,1,1,1.5,1,2.5c0,1.7,0,2.3,0,4.1c0,0.8-0.3,1.1-0.3,2.2c0,0.8,0.5,1,0.5,1.9c0,1-0.2,1.9-0.2,3.1
				c0,0.3,0,2,0,2c1,0,0.6-1.5,1.5-1.5c0.2,0,0.5,0,0.7,0c0.1,0,0.4,0.8,0.7,0.7c0.1,0,0.2-0.1,0.2-0.1c-0.6-1.2-2-2-2-3.5
				c0-1.8,0.2-4,2.1-4c0.6,0,1.1,0.4,1.5,0.9c-0.4-1.7-1.4-3.1-2-4.8c-0.1-0.4-0.6-1.2-0.6-1.9V186C789.1,185,790.3,184.6,790,183.6
				z"/>
			<path class="st3" d="M619.8,129.7C619.8,129.7,619.8,129.8,619.8,129.7c0.1,0.2,0.2,0.2,0.3,0.3L619.8,129.7z"/>
			<path class="st3" d="M609.3,127.2c0,0,1.9-0.1,2.1,0c1.2,0.3,0.6,1.5,1,2.4c0.1,0.3,1.3,0,1.7,0c0.2,0,0.3,0.5,0.5,0.5h5.4
				c-0.1,0-0.2-0.2-0.2-0.3c-1.5-1.4-3.8-2-3.8-4.5c0-4.4,4.8-9.1,8.3-10.1c1.2-0.3,1.6-1.9,3.3-1.9c0.8,0,1.1-1.4,1.5-1.6
				c2.3-1.1,4-0.6,6.5-1.7c1.7-0.8,7.1-1.3,7.1-3.6c0-0.8-1.9-1.7-2.8-1.7c-3.5,0-6.7,4-10.4,4c-0.8,0-1.3-0.8-2.1-0.8
				c-1.3,0-1.3,0.8-2.2,0.8c-2.6,0-4.5,3.3-6.3,3.3c-1,0-1.7,0.5-2.8,0.5c-0.5,0-0.7,0.4-0.7,0.7c0,0.4,0.5,0.7,0.5,1.3
				c0,1.9-3.6,3-3.6,4.2c0,0.6,1,0.7,1.1,1.5c-1.1,0.3-3.3,0.8-3.3,1.9c0,0.8,0,1,0,1c0,1.3-2.2,1.1-2.2,2.8
				C608.1,126.6,609.3,127.2,609.3,127.2z"/>
			<path class="st3" d="M619.3,129.3l0.4,0.4C619.6,129.5,619.5,129.4,619.3,129.3z"/>
			<path class="st3" d="M613.3,224.1c-1,0.2-2.2,0.4-3.4,0.4c-0.9,0-2.7,0.1-3.3-0.4c-0.4-0.4-0.6-1.1-1.2-1.3
				c-0.8-0.1-1.7,0.3-2-0.5c-0.4-0.8,0.2-1.4-0.4-2.2c-0.3-0.6-0.9-0.5-0.9-1.2l1,0.1c0.8-1.1,0.8-2.8,1.9-3.3
				c-1.9-1-4.7-5.2-4.7-7.6c0-0.7-1.5-1.7-1.5-2.8c0-0.3,1.3-2.9,1.7-3.3c0.3,0.2,2.4-1,2.6-1c1.8-0.7,2.9-1.2,5.2-1.2
				c3.8,0,4.4,1.8,5.8,3.9c-1,0.8-2.4,0.1-3.7,0.1c-1.9,0-4.7,1.8-4.9,1.7c0.1,1.4,1.2,1.3,1.6,2.1c1.3,2.3,3.2,3.2,3.2,5.9
				c0.6-0.3,1.9-1.1,2.4-1.2c0.1,1,1.2,1.4,1.2,2.5h-2.1c-0.6,0-1.3,0.9-1.4,1.9c1.5,0.2,2.4,1.7,2.4,3c0,0.8-0.4,1-0.4,1.6
				s0.8,1.4,0.8,1.5C613.3,223.4,613.3,223.5,613.3,224.1L613.3,224.1z M630.1,227.5c-0.7,0-1-0.6-1.7-0.6c-0.2,0-0.2,0.3-0.3,0.4
				c-0.2-0.4-0.2-0.8-0.2-1.4c0,0.4,0.1,0.8,0.2,1.2C628.8,226.3,629.4,227.5,630.1,227.5L630.1,227.5z M575.5,240.1L575.5,240.1
				L575.5,240.1L575.5,240.1L575.5,240.1z M546.6,180.2c0.1,0,0.2,0,0.2,0C546.7,180.2,546.7,180.2,546.6,180.2L546.6,180.2z
				 M868.1,138c-5.5-3.2-12.8-6.6-20.9-6.6c-2.2,0-3.8,0.5-3.5,1.4c2.1,6.8-3.2-0.1-4.5,0l-16-0.3c-0.9-3.6-3.3-4.9-8-4.9
				c-2.6,0-6.5,1-8-0.3c-1.4-1.2-1.5-2.9-3.5-3.5c-4.2-1.4-8.8-2.9-14.3-2.9c-5.4,0-6.2,3-6.6,5.1c-5.1,0-7.6,0-11.1,0
				c-2,0-2.2-1.1-4.5-1.3c-0.2,1-0.6,3.4-1.7,3.4c-2.9,0-4.2-3.5-4.2-5.4c0-0.5,5.6-3.7-8.7-4.9c-1.8-0.2-2.8,1-2.8,3.1h-7.6
				c-2.3-1-14.3-2.3-15.9-4.8c-9.1,7.4-7.1,2.8-7.1,2.8c2.2-2.7,23.2-9.4,5.9-12.5h-7.3c-0.7-2.1-2.2-4-5.2-4c-3.6,0-5.1,2.6-7,4.1
				c-1.4,1-10.4,4.6-9.6,1.4c-2.3,0.7-12.1,1.3-17.2,5.9c-1.1,1-1.4,3.8-3,3.8c-2.3,0-10.9-0.8-10.9,3.1c0,0.8,0.8,1.7,1,2.8
				c-1.5,1-2.1,0-6.9,0c-4.1,5.5-3.8-0.8-4.7-2.1c-0.3,2.2-1.8,3.2-3.6,4.2c0.6,2,3.5,4,1.4,6.3c-1.5,1.6,2.8,6.8,0.6,6.8
				c-2.9,0-3.7-10.5-3.7-12.7c0-2.4,3.9-3.3-2.1-4.5c-3-0.6-8.7,4.3-8.7,7c0,3.2,1.5,5.3,3.1,7c3.9,6.1-5.4-0.7-8.8-1.6
				c-9.5-2.5-6.5,0.8-6.5,1.2c-0.3,5.4-2.6,1-3.8,1c-2.2,0-6.6,2.9-9.7,1.4c-1.6-4.1-12,5.2-14.6,5.2c-0.8,0-2-0.6-1.7-1.4
				c1.1-2.8-0.5-8.9-3.5,0.3c-0.2,0.6,1,0.8,1,2.1c0,2.4-3.6,0.8-5.5,1.4c-1.9,0.6-0.7,7.3-9,3.8v2.8c-3.1-0.4-3.5-4.6-4.9-6.6
				c3,0,4.6-0.1,7.5,0.7c3.9,1,11.6-3.8-0.2-7.6c-3.4-1.1-10.9-4.9-13.2-4.9c-0.2,0-0.3-0.3-1.9-0.1c-0.2,0-1.7-0.2-2.3-0.3
				c0-0.4-0.5-0.5-1.2-1c1.6-0.6,2.2,0,2.8-1.7c-0.6-0.3-2.1-1.1-2.4-1.1c-0.6,0-0.8,0.5-1,1c-0.8-0.1-0.6-0.7-0.7-1.6
				c-1.1,0.7-1.7,1-2.6,1.9c-0.1-0.4-0.1-0.8-0.3-1.3c-1.2,0.6-1.6,2.2-3,2.1c0.3-1,1.5-1.3,1.5-2.2s-2.6,0.8-3.7,0.8
				c-0.6,0-1-0.6-1.5-1c-0.2,0.4-1.5,0.7-1.5,1c0,0.5,1,0.6,1.6,0.8c-1.3,0.7-2.8,0.3-2.8,1.9v-1.2c-3.1,0.1-3.1,1.7-3.1,1.9v-0.8
				c-1,0.2-2.5,0.1-3.2,0.8c0.3,0.3,0.1,0.2,0.4,0.6c-0.5,0.3-1,0.1-1.5,0.1c-0.7,0-1.3,0.6-1.6,1.1c0.6-0.1,0.6,0,1.1,0.1
				c-0.1,0.1-0.9,1.7-1.3,1.7c-0.9,0-1.2-0.7-2.3-0.7c0.2-0.5,0.1-0.8-0.2-1.3c-0.2,0.2-0.4,0.5-0.6,0.9c-0.2,0-0.3-0.2-0.6-0.2
				c-0.6,0-0.9,0.4-1,1.1c0,0,0.7,0.2,1,0.2c-0.3,0.1-1,0.5-1.4,1c1.7,0,2.4-0.9,4.1-1.3c-0.3,1.5-2.3,3.8-3.8,4.4
				c-1.5,0.6-2.4,1.5-3.3,2.9c0,0.1-0.7,1.6-0.7,1.6c-0.6,0-0.4,2.2-1.3,2.8c-2.1,1.7-3.3,4.1-6.3,4.9c0.6,0.1,0.9,0.3,1.7,0.5
				c-2.5-0.3-2.8,1.4-4,1.7c-1.5,0.4-2.3,1.3-3.1,2.4c-0.4,0.6-1.5,0.6-1.5,1.6c0,1.9,0.1,3.7,1.2,4.9c-0.4,0.5-0.8,1.3-0.8,1.8
				c0.8-0.3,1.1-0.3,2.1-0.3v1c-1,0.1-1.5,0.5-1.5,1c0,0.3,2.6,1.9,3,1.9c2.9,0,5.1-2.6,6.5-4.7c0.5,0.7,0.6,1.2,1.3,1.7
				c-0.1,0.3-0.4,0.7-0.4,1c0,1.3,1,1.5,1.4,2.6c0.5,1.5,0.3,2.5,1.5,3.7c0,0.2-0.1,0.5-0.1,0.7c0,0.3,1,3.6,1.5,3.6
				c1.7,0,2.2-1.9,3.3-1.9c0.6,0,0.9,0,1.9,0c0.2-2.1,1.9-1.8,2.1-3.7c-0.4-0.1-1-0.5-1-1.4c0-1.5,0.6-3.6,1.9-3.6
				c0.7,0,2.8-1.8,2.8-2.8c0-1.3-1.8-2.6-3.1-2.8c0-0.5-0.5-1-0.5-1.3v-1.4c0-0.5,0.3-1.8,0.9-2.8c0.7-1.3,1.9-1.5,3.1-2.2
				c1.5-0.8,4.6-2.2,4.6-3.8c0.2-0.4,0-0.8,0-1.6c0-1.9,1.9-2.8,4.2-2.8c1.7,0,4,0.3,4,2.1c0,1.2-1.7,1.5-2.6,2.1
				c-1.8,1-3.3,4.9-6.3,4.9c0.1,0.5,0,0.9,0,1.4c0,0.8,0.6,2.4,1.3,2.6c-0.2,0.3-1,0.8-1,1.5c0,1.5,1.5,2.4,3,2.4
				c0,0.8,0.6,0.9,1.5,0.9c1.2,0,2.8-0.6,4.2-1c1.3,0.2,4.5,0,5.2-1.4c0.6,0.8,1.3,1.1,1.7,2.4c-0.8,0.6-2.9,1.5-3.8,1.5
				c-1.2,0-1.9-0.5-3.5-0.5c-1.5,0-5,1.4-4,2.4c3.5,3.3,1.7,4.5,0.8,4.5c-1.4,0-1.6-1.7-2.8-1.7c-1.3,0-2.8,3.2-2.8,4.9
				c0,2.7-2.2,2.3-2.4,4.8c-0.8,0.1-1.7,0.2-2.5,0.2c0-0.1,0.1-0.5,0.3-0.8c-0.5-0.2-1.5-0.3-2.4-0.3c-0.8,0-1.9,1-2.6,1.3
				c-1,0.5-1.9,0.3-3.1,0.8c-0.4,0.1-0.4,0.6-1.2,0.6c0,0-1.2-0.8-1.2-1s0.3-0.4,0.4-0.8c-1.6-0.2-2.9,1.4-4.8,1.4
				c-0.2,0-0.4-0.5-0.5-0.8c-0.6,0-0.9-0.3-1.7-0.3c0.1-0.2,0-0.3,0-0.8c-0.4-0.1-0.8-0.6-0.8-1.3c0-1.2,0.7-1.9,1.3-2.6
				c0.2-0.2,0.7-0.4,0.7-0.7c0-0.2,0-0.4,0-0.6c0,0-0.9-0.1-0.9-0.8s-1.2-1.1,0.9-1.8v-0.8c-3.1,1.3-4.7,1.5-4.7,4.4
				c0,1.7,1,2.2,1.3,4.1c0,0.1,0.4,1.4,0.4,1.7c0,0.6-1.1,1.2-1.6,1.2c-0.6,0-1.3-0.4-1.8,0.1c-0.1,0.1-0.4,0.7-0.6,0.5
				c-0.5,0.2-0.1,0-1,0c-1.6,0-2.6,1.1-3.6,2.1c-0.1,0.1-0.7,0.5-0.7,0.8c0,0.8,0.2,1.7-0.3,2.2c-0.3,0.3-3.1,1.4-3.5,1.5
				c-0.3,0.1-0.6,0.1-1,0.1c-0.4,1.7-1,3.2-3.1,3.2c-0.1,0.6-0.6,0.8-1.2,0.8c-0.8,0-1.5-1.1-2.1-1.1h-0.5v1c0,0.2,0,1.3,0,1.4v0.5
				c0,0.1-1,0.3-1.5,0.3c-0.6,0-1.6-0.3-1.8-0.7c-0.7,0.2-2.6,0.6-2.6,1.3c0,0.1,0,0.3,0.1,0.3c0,1,3.1,1.6,4.2,2
				c0.3,0.1,0.4,0.4,0.8,0.5c0,1.1,0.4,2.4,1.8,2.4c0,0.6,0.4,0.4,0.4,1c0,0.3-0.1,0.8-0.3,1l0.1-0.1c0,0.4,0.1,1.6,0.1,1.9
				c0,1.3-0.9,1.7-0.9,3.1c-0.2,0-1.3,0.1-1.7,0.1c-0.7,0-1.1-0.5-1.9-0.5h-3.3c-0.3,0-0.9,0-1.2,0h-3.1c-0.4,0-0.8-0.3-1-0.3
				c-0.4,0-2.8,1.5-2.8,1.9c0,0.6,0.8,1.6,0.8,2.6c0,1.8-0.6,3.6-0.6,5.4c0,0.5-0.8,0.7-0.8,1.6c0,0.6,0,1,1,1c0,0.8,0,1.3,0,2.8
				c0,0.2,0.2,0.6,0.6,0.6c1,0,1.9-0.5,3-0.5c1.6,0,1.7,2.6,2.7,2.6c1.5,0,2.3-1.4,4-1.4c0.3,0,2-0.3,2-0.1V224
				c2.1,0.4,1.7-1.3,2.5-1.7c1.5-0.7,1.9-1.5,2.9-2.9c-0.3-0.1-0.7-0.3-0.7-0.9c0-1.5,2-4.4,3.3-4.7c1.5-0.3,3-0.8,3.4-2.2l-0.4-1.5
				c0-1,1.1-1.7,2.2-1.7c1.4,0,2.4,0.8,3.9,0.8s2.4-1.2,3.8-1.9c0.6-0.3,0.7-1.2,1.9-1.2c2.6,0,3.1,2.8,4.3,4.4
				c0.1,0.5,1.2,0.8,1.7,1.3c1.2,1.2,1.7,1.8,3.8,2.3c0,0.4,1,0.7,1.3,0.7c0.1,0.4,1.7,2.1,1.9,2.1c0.1,0.6,0.7,0.9,0.7,1.9
				c0,0.8-0.3,1.9-1.2,1.9c0,0.3,0.3,0.5,0.8,0.5c1,0,0.8-1.5,1.5-2.1c0,0,0.9,0,0.9-0.3c0-0.9-1.3-1.1-1.3-2c0-0.7,0.7-1.1,1.5-1.1
				c1.1,0,1.5,0.9,2.2,1c0.2-1.5-1.5-2-2.9-2.7c-0.4-0.2-2.1-0.6-1.8-1.4c0.1-0.1,0.1-0.3,0.1-0.6c-1,0-1.7,0.4-2.8-0.1
				c-0.6-0.3-1-1.4-1.3-2.4c-0.2-0.6-0.8-1.8-1.8-2.2c-0.8-0.3-1.5-0.7-1.5-1.7c0-0.4,0.1-0.8,0.3-1.3c-0.1,0-0.4-0.3-0.4-0.4
				c0-0.8,1.5-0.5,2.3-1c0.4,0.4,0,2.1,0.9,2.1c0.8,0,1.3,0,2.1,0c0,1,1.7,3.1,3.3,3.1c0.3,0,0.6,0,1,0c0,1,1.3,1.2,2.2,1.7
				c1,0.5,2.7,2.2,2.7,3.1c0,0.6,0,1,0,1.8c0,1.5,1,2.1,1.8,2.9c0.6,0.6,1.1,0.6,1.4,1.6c0,0.1,0.1,0.2,0.3,0.2c0.4,0,0.8,0,1.2,0
				c-0.2,2.1-0.9,1-0.9,1.4c0,1.2,1,2.7,2.1,2.7c0.1,0,0.6,0,1,0c-0.7,0-0.1-1-0.1-1.4c0-0.6-0.5-0.6-0.5-1v-0.6
				c0,0.4,1.3,0.9,2,0.9h0.1c0.1,0,0.8-0.1,1.2-0.3c-0.1-0.1-0.3-0.4-0.3-0.6c-0.6,0-2.4-1.7-2.4-1.9s0.2-0.4,0.3-0.8l-1.3-1.5
				c0-0.3,0.4-0.8,0.8-0.8c0.6,0,0.8,1,1.8,1c0.1-0.6,0.1-1,0-1.5c0.9-0.3,1.2-0.9,2.3-0.9c1.3,0,1.9,1.4,2.9,1.4
				c0.9,0,1.1-0.9,2-1.3c0.6-0.3,1.1,0,1.7-0.2c0.3-0.1,0.6,0,0.9-0.3c-0.4-0.6-1.9-1.6-1.9-3c0-1,2.3-2.4,2.3-3.1v-1.8
				c0-0.4-0.2,0.1,0.1-1c0-0.7,0.6-1,1.3-1.2c-0.1-0.3-0.1-0.7-0.2-1c1.5-0.4,1.6-2.2,3.2-2.2c1.3,0,4.4,5.2,5.4,5.2
				s4.3-1.5,4.9-2.2c-0.1,0-2-0.3-2-0.3c-0.3,0-1.2-0.2-1.2-1c0-0.6,5.1-2.4,7-3.1c0,0-0.9,1-1.3,1.2c0.1,0.4,2,2.3-2.1,3.3
				c1.7,4.1,9.7,3.4,9.7,8.9h0.3c0.2-0.1,0.4,0,0.7-0.1c-1.6,0.4-2.4,1.9-4.1,1.9c-0.7,0-1.9,0-4,0c-0.8,0-3.5-0.7-3.5-1.5
				c-1.6,0-1.5-1.1-3.4-1.1c-1.2,0-3.1-0.2-4,0.4c-0.8,0.5-2,1.2-2.9,1.2c0,0-1.3,0-2.2,0c-0.4,0-1.7-0.1-1.7,0.5
				c0,0.5,0.4,0.4,0.6,0.9c-1.3,0.6-6.3,0.3-6.3,2.4c0,0.4,0.7,0.4,1.2,0.4c-0.1,0.3,0,0.4,0,0.8c0,1.3-0.8,1.2-1.5,1.9
				c1,0.5,1.7,0.4,2.4,1.3c-0.7,0.7,1.3,1.5,1.7,1.9c-0.1,0.1-0.4,0.1-0.6,0.1h0.8c1.3,0,2,1.5,3.3,1.5s1-1.5,2.4-1.5
				c1.5,0,2,1.8,3.5,1.8c2,0,2.4-0.9,3.5-1.7c0.3,0.3,0.5,0.6,1.2,0.6c0.6,0,1.1-0.4,1.1-0.6v0.7c0,0.1-0.3,0.3-0.3,0.7
				c0,0.8,0.5,1.8,0.5,3c0,1.6-1.3,1.9-1.7,3.3c-0.4,1.4-0.6,2.2-1.1,3.7c-0.1,0.3-0.6,0.3-0.6,0.8l0.5,1.1
				c-0.1-0.2-0.2-0.4-0.3-0.7c-0.9,0.2-0.9,0.6-1.9,0.6c-1.5,0-2.3-0.9-3.6-0.9c-2.2,0-2.9,1-5.1,1c-2.4,0-5.6-1-7.8-1.9
				c-1.1-0.4-2.7,0.2-3.3-0.7c-0.3-0.4-1.1-0.5-1.1-1.6h-1.5v-0.2c-2.2,0.7-3.6,0.7-3.6,2.9c0,0.5,0,0.9,0,1.4
				c0,0.3-0.9,1.2-1.6,1.2c-5.1,0-6.9-5.4-11.5-5.4c-0.6,0-1.1,0-1.9,0c-1.3,0-3.1-1.7-3.1-3.5c0-1,0.9-1.7,0.9-2.7
				c0-0.6-0.9-1-0.9-1.6c0-0.9,1-0.8,1-1.8c-0.4,0.1-0.6,0.4-1,0.4c-1.1,0-0.8-1.3-2.1-1.3s-1.4,1-2.8,1c-0.8,0-1.2-0.5-2.1-0.5
				c-1,0-2.2,1-2.9,1c-0.6,0-1.5-0.7-2.4-0.7c-3.1,0-8.3,1.9-11,3.3c-0.8,0.4-1.1,1.3-2.6,1.3c-2.4,0-4.2-0.1-5.9-1.3
				c-0.7,0.6-0.8,1.2-1.4,2.3h0.1c-1.7,1-4.1,3.9-5.9,6.2c-1.4,1.7-0.3,2.7-1.2,5.2c-0.4,1.1-2.1,2.4-3.1,3c-1.2,0.7-3.1,0.5-4,1.8
				c-1.7,2.3-3.8,6-4.7,8.7c-0.3,1.1-1.9,1.9-1.9,3.3c0,2.8,1.4,4.7,1.4,7.8c0,1.7-1.4,5.5-2.9,6.3c0.5,1,1,1.2,1,2.1
				c0,0.6,0.4,1,0.4,2.1h-0.2c0.3,0,0.6,0.7,0.9,1.1c0,0.3,3.7,3.6,4.2,4c1.7,1.4,2.2,3.1,3.5,5.1c1.5,2.2,5.5,4.6,7.4,6.1
				c0.3,0.2,1.3,0.6,2.1,0.6c2.7,0,3.9-1.4,6.6-1.4c1.4,0,3.1,1,4.2,1c1,0,1.4-0.9,2.4-1.3c2.6-0.8,5.2-2.6,8.7-2.6
				c2.9,0,3.3,3.9,5.4,3.9c0.6,0,1.7,0,2.9,0c2.4,0,3.6,1.6,4.4,3.1c-0.7,0.6-0.7,2.7-0.7,3.6c0,0.3-0.3,0.5,0,1.1
				c-0.5,0.3-1.6,2-1.6,2.8c0,3.3,4,5.7,5.8,8c0.9,1.2,0.6,2.8,1.2,4.2c0.7,1.7,1.2,2.8,1.7,5.8c0.2,1.5,0.9,2.2,0.9,4
				c0,3.7-4.4,4.9-4.4,9.7c0,4.5,2,7.2,4,10.4c0.6,1,1.3,1.3,1.3,2.3c0,0.6,0,0.8,0,1.9c0,6.1,3.2,10.2,5.7,14.5
				c0.3,0.6,2.3,2.7,2.3,3.8c0,0.8-0.3,1.3-0.9,1.9c0.6,0.6,1.3,2.1,1.3,3.5c0.1-0.1,0.3-0.3,0.7-0.4c0.4,0.8,1,1.4,2.2,1.4
				c2.6,0,4.4-2.1,7.3-2.1c0.8,0,1.2,0.7,1.9,0.7c0.6,0,1.2-0.4,2.1-0.5c0.2-1.3,2-0.7,3.1-1.3c2.8-1.4,3.6-3.3,5.4-5.6
				c1.1-1.4,1.2-3,2.8-4.5c0.8-0.8,2.8-2.4,2.8-4.3c0-0.6-0.4-1.1-1-1.5c0.8-1.7,1.8-2.4,3.5-3.3c0.5-0.2,1.7,0.1,2.1-0.5
				c0.4-0.6,0.6-2.9,0.6-4c0-2.1-2-3.1-2-4.7c0-0.8,1.1-1.9,2.1-2.1c0.8-4.6,10-4,10-9.4c0-0.6-0.1-1-0.5-1.4c0-2,0.3-3.3,0.3-4.4
				v-1.7c0-0.1,0.4-0.6,0.4-1c0-1.3-2.6-2.5-2.6-4.9c0-2.1-0.6-3.1-0.6-5.2c0-2,1.8-2.4,2.3-4.2c1.7-6.2,6.7-7.3,11.3-10.9
				c2.6-2,3.5-4.5,5.6-7.3c1.7-2.4,4.9-7.5,4.9-11.5c0-0.4-0.3-0.6-0.5-1c-2.5,0.6-5,1.7-7.7,2.1c-1,0.1-1.7-0.4-2.8,0
				c-0.9,0.3-1,1.2-2.1,1.2c-1.2,0-2.1-2.2-3-2.9c0.7-0.8,0-1,0-2.2c-2.3,0-2.9-2.9-4-3.7c-1.3-0.9-2-1-3.1-2.1
				c-1.3-1.3-0.7-3.1-2-4.7c-1-1.4-2.3-1.4-3.4-3.3v-3.7c-2.1-0.8-3.1-3.9-2.7-5.4l-6.2-10.7v-1.2c1,1.2,2.6,4.3,4,4.5
				c0.2-0.7,1.1-2.5,1.4-3.5c-0.1,0.9-0.3,1.7-0.3,2.2c0,0.2,1,1.3,1.2,1.7c0.8,1.2,1.5,2.2,2.3,3.5c0.3,0.4,0.8,1,1,1.7
				c0.1,0.4,0,1.5,0.4,1.9c0.2,0.2,1.1,0.1,1.4,0.3c0.2,0.2,0.6,0.6,0.9,0.9c0.3,1.3,1.2,1.7,1.2,3.3c0,2.6,0.6,4.1,3,4.6
				c0,1.7,1.9,4.1,2.8,4.9c0.8,0.8,1.9,1.4,1.6,2.9c-0.1,0.6-0.7,1.9,0.1,2c0,1.3,0.5,2.5,1.2,3.5c0.5,0.7-0.1,0.7,0.1,0.8
				c0.2,0.1,2,1,2.2,1l0.4-0.1c1.5,0,1.6-1.2,2.8-1.2h2.2c0.9,0,3.7-2.6,4.5-2.8c1.7-0.4,3.8-1,5.4-1.8c-0.1-0.1-0.3-0.5-0.3-0.7
				c0-1.5,4.2-2.3,6.1-2.7c0-0.8,1.3-2,1.9-2c1,0,1-2,2-2c0.8,0,0.8-1.2,1-2c0.3-0.8,1-1.1,2-1.1c0-1.7,1.7-2.2,1.7-3.8
				c0-0.6-0.6-0.5-1.6-1.1v0.1c0-0.3,0.2-1.5-0.6-1.7c-2-0.6-3.6-1-3.6-3v-2.6c-4.1,1.9-3.3,4.7-8,4.7c-1,0-3.1-0.5-3.1-1.5
				c0-0.8,0.4-1.4,0.4-2.2c0-0.3-0.1-0.5-0.1-0.8c-0.7,0.1-0.6,1-1.4,1.3c-0.1-0.6-0.5-0.8-0.5-1.6c-1.6-0.3-3.6-3.3-4-5
				c-0.1-0.6-0.1-0.9-0.1-1.6c0-1,0.4-2.2,1.4-2.2c1.9,0,3.5,2.2,4.2,3.7c0.1,0.3-0.1,0.8,0.3,1.2c0.8,0.8,1.9,0.4,2.7,1.2
				c0.7,0.7,1.3,2,2.4,2h3.5c0.4,0,0.7-1.1,1.5-1.1c1.5,0,1.5,2.1,2.1,2.8c0.1,0.1,2.1,0.6,2.4,0.6c1.9,0,4.9,0.8,6.3,0.8
				c0.1,0,0.3,0,0.3,0l2.4-0.1c0.1-0.1,0.3-0.3,0.6-0.5l1.8,0.5c0.7,0,0.9-0.6,1.7-0.6s1.3-0.1,2.1,0.1c0.8,0.3,1.2,1.9,1.8,2.8
				c0.7,1,2.7,2.4,4.1,2.4c0.6,0,1,0,1.6,0.1c-0.3,0.3-0.4,0.9-0.9,1c-0.6,0.2-1.1-0.1-1.7,0.3c1,1,1.9,3.3,4,3.3
				c1.8,0,1.9-2.1,2.8-3.2h0.6c0,0-0.4,0.7-0.4,0.9c0,0.9,0.7,1.7,0.7,2.8c0,0.9-0.3,1-0.3,2l-0.1-0.1c0,0.2,0.1,0.8,0.1,1
				c0,1.3,0.8,2.6,1.2,4c0.5,1.5,1.7,3.8,2.1,4.9c0.3,0.9,0.3,1.3,0.8,2.2c0.6,0.8,0.2,1.7,0.8,2.9c0.3,0.6,1.3,1.3,1.5,2.2
				c0.5,1.5,1.3,2.9,1.8,4.5c0.1,0.2,0.3,0.7,0.6,0.7c0.1,0.5,0.5,0.8,1,0.7c0.6,0,0.6-0.8,0.9-1.4c0.3-0.7,0.5-0.4,1.3-0.8
				c0.6-0.3,0.4-2.1,1.3-2.4c0.2-0.1,0.7-0.1,0.7-0.3l0.3-0.1l-0.3-1.8c0-1.3,0.8-2.4,0.8-4.2c0-1.1-0.5-1.8-0.5-3.1
				c0-1.5,1.5-1.7,2.7-2.1c0.5-0.1,1.3-1,1.8-1.5c1.3-1.3,2.6-2.7,4-4.1c1.1-1.1,3.1-1.5,4.4-2.7c0.6-0.6,0.6-1.4,0.8-2.4
				c0.2-0.6,1.7-0.7,2.2-1.7c0.6,0.3,0.6,0.7,1.7,0.7c1.8,0,3.8-0.4,3.8-2.5c1,0.2,2.2,0.6,2.5,1.6c0.3,0.8,0.1,2,0.7,2.8
				c0.6,0.9,1.3,1.5,2.3,2.2c0.7,1.1,1.5,2.2,2,3.7c0.1,0.3,0.4,0.6,0.4,0.9c0,0.8-0.3,1.2-0.3,2.1s0.1,1.7,1.1,1.7
				c2,0,2.4-2,3.6-3.2c0.4,0.4,0.2,0.7,0.6,1.1c0.1,0.1,0.7,0,0.9,0.3c0.7,1-0.7,3.1,0.2,3.1c0,2.2,1.6,4.2,1.6,7.2
				c0,0.8,0,2.8,0,2.8h0.2h-0.1c-0.2,1-0.1,1.3-0.1,2.3c0,0.1,0,0.8,0,0.8s0.1,0,0.8,0c1.1,0,1.5,2.3,2,3.3c0.8,1.6,0.9,3,1.5,5
				c0.8,2.3,2.7,4.3,4.9,5c0.4,0.1,0.5,0.6,1.2,0.6c0.2,0,0.3-0.3,0.5-0.3c0.3,0,0.3,0,0.9-0.1c-0.3-0.8-0.3-1.1-0.6-2
				c-0.3-0.8-1.3-1.3-1.3-2.5c0-0.6,0.3-0.6,0.3-1.3c0-3.5-4.1-4.3-6-6.1c-0.5-0.5-0.6-0.5-0.8-2.6h0.1c0-1-2.4-0.8-2.4-3
				c0-1.9,2-2.2,2-4.3c0-0.6-0.3-0.6-0.3-1.2c0-0.3-0.1-0.7,0.4-0.7c0.8,0,1.6,0.2,1.8,0.9c0,0,0.2,0.9,0.3,0.9
				c1.1,0.3,2.1,0.4,3.1,1.4c0.8,0.8,0.1,1.9,1.6,1.9c0,1,1.4,1.4,2.4,1.4c0.1,0.4,0.2,0.9,0.5,1c-0.3,0.1-0.3,0.4-0.3,1
				c0,0.4,0.1,1.4,0.4,1.4s1.5-1,1.5-1.7c0-0.1,0-0.4,0-0.8c0,0.2,0.2,0.6,0.4,0.6c0.8,0,0.8-1.1,1.6-1.5c1.8-0.9,2.1-1.7,4.3-2.2
				c0-1.3,0.9-1.9,0.9-3.5c0-2.3-1.1-5.4-2.8-6.5s-2.4-2.9-4-4.5c-0.3-0.3-0.6-0.4-0.6-1c0-3,3.4-3.5,4.8-5.6c1.2,0.6,2,0.1,3.3,0.8
				c-0.1,0.4-0.3,1.7,0.3,1.7c0.8,0,0.4-0.9,0.9-1.5c0.5-0.5,1.9-0.7,2.4-1c1.3-0.6,2.6-0.3,3.5-1.2c0,0,0.7-1.3,0.8-1.3
				c0.7,0,1,0.6,1.7,0.6c3.2,0,4-1.9,5.9-3.1c0.6-0.3,0.9-0.6,1-1.3c1.7,0,2.2-2.6,2.8-3.9c0.4-0.8,2.3-3.6,3.3-3.8
				c0-1.5,1-2.2,1-4.2c0-3-0.7-4.1-1.9-6c-0.2-0.3-0.2-1.1-0.8-1.5h0.1h-0.1c0,0-0.1-1.2-0.1-1.4c-0.6-0.1-1.9-0.8-1.9-1.8
				c0-0.8,1.2-0.9,1.5-1.8c0.6-1.9,3.6-1.9,5-3.3c-0.6-0.8-1.6,0-2.6-0.6c-0.5-0.3-0.8-0.8-1.5-0.8c-0.6,0-0.6,1.5-1,1.5
				c-0.6,0-1.3,0.2-1.8-0.1c-0.8-0.6-0.6-1.3-1.4-1.9c-0.3-0.2-1.5-0.5-1.5-1.2c0-1.5,2-1,3-1.7c0.8-0.6,2.4-1.7,3-2.6
				c0.1-0.2,0.4-0.9,1.1-0.9c0.6,0,1.3,0.9,1.3,1.3c0,1.1-1.3,1.6-1.3,2.8c1.9,0,3.5-2.1,5.8-2.1c0.8,0,1.2,0.8,2.2,0.8
				c-0.4,0.7,0,0.7,0,1.5c0,0.7-0.8,0.6-0.8,1.5c0,0.3,0.2,1.2,0.7,1.2c0.2,0,0.5-0.3,1-0.3c0.8,0,1.8,0.6,1.8,1.4
				c0,0.5-1.1,0.9-1.1,0.9v0.7c0,0.1,0.3,0.4,0.7,0.5c0,0.4,0.4,0.8,0.4,1.2c0,0.2-0.6,1.1-0.6,1.6c0,0.3,0,0.6,0.3,0.6
				c-0.1,0.3-0.4,0.9-0.4,0.9h1c0.4,0,0.6-0.4,1.4-0.6c0-0.6,1.7-0.7,2.2-0.8c1-0.3,1.4-1,1.4-2.6c0-2.7-1-4.3-2.6-5.8
				c-0.6-0.6-1.3-1.2-1.2-2.4c0.8,0,1.5-0.5,2.1-1c0.5-0.5,1.7-1.2,2-1.7c0.9-1.9,1.5-3,3.1-4.3c0,0,2.7,0.7,4.9,0.7
				c4,0,7.7-8.4,10.5-11.2c1.1-1.1,2.7-3.4,3.1-5.2c0.5-2-0.3-3.3,0.8-5.2c0.4-0.7,1.2-2.3,1.2-3.8c0-1.9-3-5.5-4.4-4.5
				c-4.1,3.1-6.3-1.7-6.3-2.1c0-1.9,3.8-4.1,5.2-5.6c2.2-2.2,5-5.8,8-6.6c2.6-0.7,10.9-1.5,13.2-1.5c2.8,0,4.2,1.3,5.9,1.3
				c1,0,1.6,0,3.8,0c1.1-4.1,3.2-7.2,8-7.2c1.3,0,1.8-0.3,4.2,0.1c-1.2,0.9-1.7,7,5.9-2.4c0.8-0.1,4.4,1.4-1,4.9
				c-1.9,1.2-3.6,0.6-4.9,2.4c-1.5,2.1-2.8,4.7-4.9,5.9c-1.7,1-4.2,2.6-4.2,5.6c0,2.6,0.8,11,2.8,12.5c1.4-2.1,2.4-5.9,5.2-6.6
				c-0.3-1.9,2.8-2.4,2.8-3.8c0-2.3,2.4-2.9,2.4-4.2c0-0.8-0.7-1.7,0-3.1c5.6-12,10.8-5.6,12.9-5.6c6.2,0,10.6-7.9,16-8
				c10.3-0.2,2.1-4.1,2.1-5.2c0-3,4-2.5,4.9-4.2c0.3-0.7-0.3-2.4,1-2.4c4.4,0,8,5.9,11.1,5.9c1.4,0,1.7-2.6,2.4-3.5
				c1.2-1.4,2.3-1.3,4.2-1.9C880.2,142.2,872.1,140.3,868.1,138z"/>
			<path class="st3" d="M860.7,128.6c0.8,0,6.3-0.3,6.3-1.3s-2.6-1.7-3.7-1.7c-1.2,0-3.3,1.2-3.3,2.3
				C860,128.2,860.2,128.6,860.7,128.6z"/>
			<path class="st3" d="M841,132.8c0.3,0,0.7-0.4,0.7-0.8c0-0.4-0.4-0.9-0.5-0.9h-2.3C839.3,132.1,840,132.8,841,132.8z"/>
			<path class="st3" d="M774.8,110.9c0.5,0,0.6-0.5,0.7-0.9l0,0l0,0v-0.1h-0.1l-0.6-0.6c-0.3,0.4-0.6,0.6-0.6,1
				C774.2,110.7,774.4,110.9,774.8,110.9z"/>
			<path class="st3" d="M729,114.3c-0.7,0-1.5,0.3-1.5,1c0,0.6,0.8,0.8,1.5,0.8c0.6,0,1-0.2,1.4-0.4c0.1-0.1,0.2-0.3,0.2-0.4
				C730.6,114.5,730,114.3,729,114.3z"/>
			<path class="st3" d="M730.1,116.2l0.6-0.5c-0.1,0-0.1,0.1-0.2,0.1C730.3,116,730.2,116.1,730.1,116.2z"/>
			<path class="st3" d="M702.9,99.9c0,0.7,0.2,1,1,1l3.7-1c0,0,2.2-0.4,2.4-0.4c1.3,0.2,4.9-0.1,4.9-1.7c0-1-2.9-2.8-3.8-2.8
				c-0.5,0-0.8,0.9-1.3,1.1c0.6-0.6,0.2-0.1,0.2-1.2c-0.3,0-0.3,0-0.9,0c-2.8,0-3.4,2.2-5,3.8C703.8,99.1,702.9,98.8,702.9,99.9z"/>
			<path class="st3" d="M686.1,91.5c0,0.6,1,1.7,1.4,1.7c0.8,0,3.1-0.1,3.3-1.4c-0.5-0.1-2.4-1-2.8-1
				C687.6,90.8,686.1,90.8,686.1,91.5z"/>
			<path class="st3" d="M695.6,91.3c-2.2,0.7-2.9,1.5-5.2,2.2c1,0.6,2.9,2.5,3.7,2.5c2.5,0,4.7,1.3,7.8,1.3c0.6,0,1.4-0.4,1.4-1
				c0-0.5-0.6-0.7-1-0.8c0.4-0.1,1.4-0.2,1.4-0.9c0-0.7-0.1-0.3,0.6-0.8c-0.9-0.9-0.9-0.8-2.3-0.8c-0.5,0-0.9,0-1.4,0
				c-0.8,0-1.2-1.3-2.1-1.3c-0.6,0-0.8-0.5-1.5-0.3c0.6-0.3,1.3-1,1.3-1.4c0-0.3,0.1-0.6,0-1.5c0.3,0.1,0.1,0.2,0.8-0.1
				c-1.1-0.8-2.2-2.7-4.2-2.7c-3.3,0-4.4,3.3-7.3,4.1c1.8,0.9,3.1,1.5,5.1,1.5C693.1,91.2,694.9,91.3,695.6,91.3z"/>
			<path class="st3" d="M695.5,105.5c0.8,0,1.3-0.3,1.4-1.3h-1c-0.3,0-0.6,0.4-1,0.7C694.9,105.2,695.1,105.5,695.5,105.5z"/>
			<path class="st3" d="M687.2,86.2l-0.2-0.6h-2.6C684.8,87.7,686.1,86.3,687.2,86.2z"/>
			<path class="st3" d="M718.6,100.4c0.5,0,0.8-0.6,0.9-1c-0.6,0.3-0.8-0.1-2.3,0.2C717.4,99.9,717.8,100.4,718.6,100.4z"/>
			<path class="st3" d="M598.3,88.4c0.6,0,1,0.4,1.6,0.6c-0.3,0.3-0.7,0.4-1,0.6c0.3,0.1,0.6,0.1,1.2,0.1c-0.6,0.1-0.9,0.1-1.5,0.4
				c0.2,0.6,0.9,0.6,1.9,0.6h-0.1c0.2,0,0.4,0.8,0.8,0.9c0.6,0.1,0.8-1.1,1.4-1.4c1-0.5,1.4,0.2,2.4-0.2v-0.4c0,0.1,0.5,0.1,0.7,0
				c0.8-0.6,1.7,0,1.9-1.3c-0.4-0.1-1.3-0.7-2.1-0.7c-1,0-1.5,0.9-2.6,0.9c-1.3,0-2.3-0.9-4-0.9c-1.5,0-4.7,0.2-5.4,1.3
				c0.6,0.1,1,0.3,1.5,0.3C596.2,89.3,597.5,88.4,598.3,88.4z"/>
			<path class="st3" d="M605.6,89.8c-0.2,0.1-0.3,0.2-0.5,0.3v0.3L605.6,89.8z"/>
			<path class="st3" d="M631.3,88c0.5,0,3.2-0.6,3.7-0.9l-1-2.2c-1,0-3.9,1.1-3.9,2.1C630.1,87.7,630.5,88,631.3,88z"/>
			<path class="st3" d="M627.5,89.8l-0.3-0.8c0.6,0,1.3,0.3,1.7-0.4c0-0.3,0.1-0.4,0-1c-0.6,0.1-1.8,0.4-2.2,0.3
				c0.1,0,0.6-0.2,0.7-0.2h-2.3c0,0-0.1,0,0,0.6c-0.8,0.3-1.4,0.7-1.4,1.7C623.7,90.3,627.1,90,627.5,89.8z"/>
			<path class="st3" d="M620.2,89.6c-0.7,0-3.5,0.4-3.5,1.4c0,0.3,0.3,0.5,0.7,0.5c0.6,0,0.9,0,1-0.7c0.4,0,1,0.7,1.4,0.7
				c1,0,0.9-1,2.3-1C621.8,90,621.1,89.6,620.2,89.6z"/>
			<path class="st3" d="M619.8,88.3c0.8,0,1.5,0.1,2.1-0.3c-1.5-0.6-2-0.8-4-1c0.7-0.7,2.1-1.1,3.2-1.8c0-0.3,0.3-0.7,0.6-0.9
				c0-0.2-0.1-0.8-0.2-0.8c-0.6,0-1,0.6-1.1,1.2c-2,0-2,1.4-4.1,1.4V87c1-0.4,0.2-1.2,1,0.8h-2.9c-0.3,0-0.5,0.1-0.9,0.4
				c0.1,0.1,3,1.1,3.5,1.1C617.9,89.3,619,88.3,619.8,88.3z"/>
			<path class="st3" d="M529.1,95.9c0.2,0,0.3,0.2,0.6,0.3c-0.3,1.1,0.8,1.7,1.9,2.3c-0.2,0-0.3,0.1-0.6,0.1
				c0.3,0.7,1.1,1.2,2.2,1.2c1.5,0,1.5-1.8,2.1-1.8c0.2,0,0.3,0,0.6,0s0.9,0,1,0c0.3,0,0.8,0,1.8,0c-0.8,1-2.6,1.7-3.5,2
				c-0.4,0.1-2,0.2-2,0.8c0,1.7,1.8,1,2.6,1c0.5,0,2.7,0.1,3.1,0.4c-0.8,0.2-1.6,0-2.3,0.6c0,0-1.6-0.2-2.6-0.1
				c0,2.4,3.8,3.3,5.4,4.4c1-1,0.8-2.9,2-3.8c0.4-0.3,0.9-0.1,1-0.6c0.7-1.8,1.5-4.9,3.8-4.9c0,0,0.6,0.9,1.7,1
				c-0.3,0-0.6,0.1-1,0.1c0.3,0.6,0.9,1.8,1.4,1.9c-0.1,1-0.9,0.7-1,2c0.9,0.1,2.4,0,3.2,0.1c-0.2,0.4-0.2,0.7-0.1,1.3
				c1.7-0.6,2.5-1.9,4.4-2.5c-0.6-0.9-2.6-0.6-2.6-2.7c-0.8,0-1.2,0-2.2,0c0.2,0,0.1-0.5,0-0.9c-0.5,0.1-0.7,0.2-1.3,0.1
				c0.2,0,0.5,0,0.7,0c-0.7-0.8-4.4-2.9-5.6-2.9c-0.2,0-0.5-0.1-0.7-0.1c0.1-0.6,0.3-1.7-0.8-1.7c-0.6,0-0.7,0.6-1.2,0.9
				c0-0.5,0.2-0.9,0.2-1.4c0-0.7-1.9-1.4-2.8-1.4c-0.9,0-1.4,0-1.4,1c0,1.3,0.4,1.9,0.8,3.1c-1.7-0.6-1.3-3.1-3.1-3.1
				c-0.6,0-1.2,0.6-1.2,1.2c0,0.4,0.2,0.8,0.5,0.9c-0.5-0.5-1.2-0.5-1.9-1c0.2-0.4,0.5-0.6,0.8-1c-1.6-0.3-2.4-0.3-3.5-0.3
				c-0.7,0-2.2,1.3-2.4,1.7C527.8,94.7,528.6,95.9,529.1,95.9z"/>
			<path class="st3" d="M542.8,92.3c-0.1,1.6,1.3,0.7,2.4,0.7c0.1,0,3,0.2,3.3,0.2c-0.3,0.1-1.1,0.1-1.7,0.3c-0.1,0-0.9,0.1-1.4,0.2
				c0.1,0.6,0.3,1.2,0.9,1.2h4c0.5,1,1.2,1.1,2.4,1.1c2,0,5.5-2.3,7.2-3.5c-0.4-0.8-1.7-1.8-3.1-1.8c-1,0-0.6,0-2.3,0
				c-1,0-1.5,0.7-2.1,0.7c-0.1-0.5,0-1.7,0-1.7h-0.8c-0.3,0-0.9,1.5-1.7,1.5c-0.3,0-2.4-1.5-2.8-1.5h-1.9h0.3h-1.4v0.9
				c0,0.2-0.8,0.1-1.2,0.1h-1C541.9,90.8,542.3,91.9,542.8,92.3z"/>
			<path class="st3" d="M527.5,96.7C527.4,96.7,527.4,96.7,527.5,96.7v0.2V96.7z"/>
			<path class="st3" d="M529.7,99.7c-0.5-1.5-1.4-1.8-2.3-2.9C526.3,97.5,528.4,99.4,529.7,99.7z"/>
			<path class="st3" d="M527.3,96.7C527.4,96.8,527.4,96.8,527.3,96.7C527.4,96.8,527.4,96.8,527.3,96.7L527.3,96.7z"/>
			<path class="st3" d="M486.9,187.1c0,0.8,0.9,1.6,1.7,1.6c0.4,0,1-0.1,1.3-0.3c0.6-0.3,1.4-1.5,2.5-1.5c0.7,0,1.4,0.1,1.8-0.3
				c0.6-0.6,0.1-1.4,0.1-1.9c0-0.1,0-1.9,0-2.4c0-0.6,1.2-0.9,1.2-1.4c0-1.2-0.8-3.2-2.4-3.2c-0.4,0-0.8,0-1.2,0
				c-0.7,0-2.1,1.2-2.1,1.7c0,0.3,0.1,0.7,0.4,1.1c-0.4,0.4-1.6,0.9-2,0.9c-0.2,0-0.8-0.1-0.8,0.8c0,0.7,0.6,1.1,1.3,1.5
				C488.7,185.2,486.9,185.4,486.9,187.1z"/>
			<path class="st3" d="M493.2,171.2c0.8,0,1.3-0.8,1.3-1.6c-0.6,0-1.7,0.3-1.7,0.8C492.8,170.6,493,171.2,493.2,171.2z"/>
			<path class="st3" d="M495.5,173.2v0.6c0,0.1-0.8,0.6-0.8,0.9c0,0.3,0.8,0.5,0.8,0.6v0.6c0,0.1,0,0.3,0,0.5c0,0.3,0,1.3,0,1.3h0.8
				c-0.1,0-0.3-0.6,0-1.2c0.2,0.1,0.6,0.3,1.2,0.3c-0.2,0.6,0,0.7,0,1.3s-0.7,0.9-0.7,1.5s0.5,0.5,1.1,0.5s0.9-0.3,1.6-0.3
				c0.2,0,0.4,0.1,0.6,0.1c-0.1,0.3-0.3,0.4-0.3,1c0,0.7-0.2,0.8,1.9,0.8v1c0,0.7-2.1,1.3-3.3,1.3c0,0.8,0.4,1.1,0.4,2
				c0,1-2,1.1-2,2.2c0,0.1,0.2,0.3,0.3,0.3c0.3,0,0.3-0.3,0.7-0.3c0.8,0,1,0.8,1.9,0.8c0.5,0,1-0.3,1.2-0.7c0,0.1,0.1,0.3,0.1,0.5
				c0,1-1.3,0.6-2.3,0.9c-0.2,0.1-2.3,2.3-2.3,2.6l0,0h0.3c0.3,0,0.5,0,1,0h1c0,0,0.4-1.2,1.1-1.2c0.5,0,0.8,0.1,1.3,0.1
				c1,0,2.9-0.9,3.6-0.9c0.4,0,1.9,0,2.8,0c0.8,0,0.4,0.2,1.4-0.5v-0.5c0,0-0.4-0.1-1.1-0.3c0.6-0.9,2.4-1.5,2.4-2.8
				c0-0.7-0.6-1.3-1.4-1.3c-0.6,0-0.4-0.1-0.9,0.3l0.6-0.3c-0.3,0.1-0.6,0.3-0.6,0.5v-0.5c0-0.1,0.1-0.3,0.1-0.5
				c0-0.6-0.9-0.9-0.9-1.5c0-1.7-1.9-2.2-3-3.3c-0.8-0.8-0.7-2.5-2-2.9c-0.6-0.1-0.9,0.1-1.6-0.1c0.1-0.3,0.3-0.6,0.5-0.7
				c0-1.5,2.1-2.3,1.9-4.4h-4.1c-0.1,0-0.2-0.2-0.2-0.4c0.2-1,1.7-1,1.7-1.9c0-0.1-0.4-0.8-0.7-0.8c-0.5,0-1.3,0-2,0
				c-0.4,0-1.1,0.8-1.1,1.1s-0.3,0.7-0.3,1.3c-0.5,0-1,0.3-1,0.9c0,0.1,0.2,0.4,0.3,0.4c0,0.1-0.1,0.7-0.3,0.7
				c-0.1,0-0.5-0.3-0.5-0.3h-1.1C493.8,172.5,494.4,173,495.5,173.2z"/>
			<path class="st3" d="M497.8,181c-0.4,0.2-0.5,0.5-0.5,0.8c0.4,0,0.6,0,0.8,0c0-0.3,0.1-0.6,0.1-0.8
				C498.1,181,497.8,181,497.8,181z"/>
			<path class="st3" d="M479.8,149.2l0.1-0.1c0-1.9-2.6-1.5-2.6-3.5c0-0.2,0.2-0.5,0.4-0.6c-0.6,0-1,0.4-1.7,0.4s-1.3-0.1-1.3-0.9
				c-0.3,0.2-0.3,0.1-0.8,0c-0.1,0.3-0.3,0.5-0.3,1c-0.6-0.6-1.5,0.2-2.4,0.2c-0.6,0-1.2-0.2-2.2-0.2c0,0.2-0.1,0.5,0,0.7
				c-0.3-0.1-0.4-0.3-1-0.5l-1.7,0.4c-0.4,0-0.6-0.3-0.9-0.6c-0.2,0.3-0.1,0.4,0,0.9c-0.3,0.1-0.8,0.4-1.3,0.4s-1.1-0.8-1-1.3
				c-0.1-0.4-0.3,0.1-0.4-0.9c-0.2,0-0.3,0-0.6,0c-0.6,0-1,0.5-1,0.5c0,0.2,0,0.3,0,0.6c0-0.2-0.9-0.3-1.5-0.1
				c0.1,0.8,2.7,1.5,3.5,1.5c0,0.2,0,0.4,0.3,0.6c-0.8,0.3-2.6,0.6-3.6,0.6c0.7,0.7,1.9,0,3,0.3c-0.1,0.8-0.4,1.2-0.4,2.1
				c-0.2,0-0.4,0.2-0.6,0.3c1.5,0,2.1,1,3.1,1.3c1.9,0.6,3.7,1.3,6.3,1.3c2.4,0,3.7-1.2,5.4-1.7
				C477.5,151.4,479.2,150.2,479.8,149.2z"/>
			<path class="st3" d="M359.8,261.2c-0.5-0.2-0.8-1.2-1.6-1.4l-1-0.1c-0.1-0.1,0-0.3,0-0.5c-1.6,0-3.3-0.8-4.3-1.7
				c-0.1-0.1-0.7-0.8-1.2-0.8c-2.3,0-3.8-1.1-6.8-1.1c-3.1,0-4.6,0.6-5.7,3.7h0.6c0.7-2.1,2.6-2.3,3.9-2.3c0.3,0,0.7-0.4,1-0.2
				c-0.2,0.2-0.3,0.4,0.1,0.4h2c1,0,1.5,1.1,2.4,1.1c0.6,0,0.9-0.2,1.5,0.1c0.3,0.1,0.2,0.6,0.8,0.6c0.2,1,1.2,1,2.2,1.5
				c-0.1,0.4,0.2,0.6-0.9,0.6c0,0.1,0,0.3,0,0.4c1,0,2.6,0.5,4.2,0.5C357.8,262,359.3,262,359.8,261.2z"/>
			<path class="st3" d="M342.6,257.6v0.5c-0.2,0-0.6,0.1-0.6,0.6c0,0.1,0.9,0,1,0c0.1-0.4,0.1-0.7,0-1l-0.2-0.1H342.6z"/>
			<path class="st3" d="M352.4,265c0,0.6,0.6,1,1.1,1c0.8,0,1.5-0.3,2.3-0.4c-0.1-0.3-0.2-0.5-0.6-0.6l0.1,0.1
				c-0.4-0.1-1.4-0.6-2.2-0.6C352.8,264.6,352.4,264.8,352.4,265z"/>
			<path class="st3" d="M374.3,264.9c0,0.7,0.9,0.8,1.7,0.8c0.4,0,0.9,0,1.1-0.4c-0.2-0.4-1.9-0.8-2.1-0.8S374.3,264.6,374.3,264.9z
				"/>
			<path class="st3" d="M359.9,264.6c0,0.4,0.4,1,0.8,1.1c0-0.2,0.1-0.3,0.1-0.6c0.3,0.2,0.3,0,0.8,0c0.8,0,2.5-0.2,3.1,0.2
				c0.3,0.2,0.2,0.9,0.8,0.9c0.8,0,0.7-1.3,1.6-1.3c0.3,0,0.3,0.2,0.7,0.2c0.5,0,0.8,0.3,1.3-0.7h2.6c-0.5,0-1.2-0.8-1.9-1.4
				l0.3,0.4c-1.2-0.6-1.7-1.8-3.9-1.8c-0.8,0-1.2,0.3-2.1,0.3c-0.6,0-1-0.5-1.7-0.5c-0.2,0-0.6,0.3-0.6,0.5c0,0.4,0.5,0.8,0.9,0.8
				c0,0.6,0.1,1,0.5,1.5c-0.8,0.4-1.5,0.1-3.1,0.1C360.2,264.4,360.1,264.6,359.9,264.6z"/>
			<path class="st3" d="M385,281.9c0,0.2,0.4,0,0.6,0c0.4,0,0.7-0.6,0.8-0.9v-0.5c-0.2,0-0.4,0-0.6,0
				C385.5,280.5,385,281.2,385,281.9z"/>
			<path class="st3" d="M408.1,301.7c-0.8,0-1.4,0.6-1.4,1.7c0,0.6,1.8,1.8,2.9,1.8c0.8,0,1.9-1.6,1.9-2.2c0-0.1-0.2-0.6-0.5-0.6
				s-1,0.8-1.1-0.1c-0.6,0-1-0.6-1.5-0.6C408.3,301.7,408.1,301.7,408.1,301.7z"/>
			<path class="st3" d="M361.1,395.8h1V393c0-0.2,0.1-0.3,0.1-0.8c0-0.6-1-1.1-1.6-1.1c-0.4,0-1.6,2.1-1.6,2.1s0,0.6,0,0.9
				C359,394.3,360.7,395.8,361.1,395.8z"/>
			<path class="st3" d="M331.5,197.4c0.7-0.3,0.4-1.5,1.1-1.5c0.8,0,1.4,1.1,1.7,1.4c0.1-0.3,0.1-0.1,0.1-1.1c0.2,0,0.3,0,0.6,0
				c0.4,0,3.3,2.5,3.5,2.8c0.4,0.8,0,1.5,0.6,2.1c1.6,1.6,3.8,2.4,5.5,2.4h1.8c0.8,1,1.9,1.3,1.9,2.4c0,0.5-0.3,0.9-0.7,0.9
				c-0.8,0-1.7-0.9-1.9-1.2c-0.3,1.1-0.9,4.5-1.9,4.5c-0.7-0.6-0.7-1-1-2.1c-0.7,0.2-0.6,0.5-1.4,0.5c0.2-1,0.8-1.6,0.8-2.6
				c0-0.8-2.6-2.1-3.1-2.1c-1.1,0,0.4,1.7-2.2,1.8c-0.8,0-0.4,2.2-0.4,3c0,0,0,1.4,0,2.2c0,0.9-0.7,3-1.7,3c-0.8,0-1.8-0.6-1.8-1.4
				c0-1.8,0.5-5.4,1.7-6.9c-0.7,0-1,0.7-1.7,1.1c0.1-1.4,2.6-3.2,4.2-3.2c0.6,0,3.5,0,3.5,0v-1.2c-2.1,0-2.4-0.9-4-0.9
				c-0.8,0-1.1,0.3-2,0.3c-0.5,0-1.1,0.8-1.2-1.3h-1.4c0.3,0,0.8-0.3,0.8-1.3c-1,0.2-2.3,1.7-3.1,1.7c-0.6,0-0.7,1-1.9,1
				c-0.6,0-0.8,0.3-1-0.3c-0.5,0.1-0.8,0.9-1.3,0.9h-1c1.6-3.1,3.5-3.1,5.4-4.3C330.6,197.9,330.7,197.8,331.5,197.4L331.5,197.4z
				 M348.4,212.3c-0.3,0.2-0.8-0.3-1.7-0.3c-1,0-2-0.1-2.6,0.6c-0.3,0.3-0.4,0.7-1,0.7c-0.4,0-0.8-0.5-1-0.8c0,0.7,0.3,1.7,1,1.7
				C344.5,214.1,346.8,213.1,348.4,212.3L348.4,212.3z M349.2,210.9c0-0.1-0.1-0.2-0.1-0.3C349.2,210.7,349.2,210.8,349.2,210.9
				L349.2,210.9z M349.6,209.3c1.5-0.5,4.8-1.3,6.5-1.3c0,2.6-4.5,1.9-6.5,1.9c-0.3,0-0.3,0.1-0.8,0.1c0.1,0.1,0.2,0.3,0.2,0.5
				c-0.1-0.2-0.4-0.4-0.4-0.6C348.7,209.5,349.4,209.4,349.6,209.3L349.6,209.3z M373.3,201.2c0-0.2-0.1-0.3-0.1-0.4
				C373.2,200.9,373.3,201,373.3,201.2L373.3,201.2z M373.4,202c0-0.1,0-0.3,0-0.4C373.4,201.8,373.4,201.9,373.4,202L373.4,202z
				 M373.5,203c0-0.1,0-0.3,0-0.4C373.5,202.8,373.5,202.9,373.5,203L373.5,203z M373.6,204c0-0.1,0-0.2,0-0.3
				C373.6,203.8,373.6,203.9,373.6,204L373.6,204z M373.7,204.8c0-0.1,0-0.2-0.1-0.3C373.7,204.6,373.7,204.7,373.7,204.8
				L373.7,204.8z M373.1,200.4c-0.1-0.3-0.2-0.5-0.3-0.7C372.9,199.9,373,200.2,373.1,200.4L373.1,200.4z M373.9,205.3
				c0,0.1,0.1,0.2,0.1,0.3C373.9,205.4,373.9,205.3,373.9,205.3L373.9,205.3z M348.8,212c0.3-0.1,0.5-0.3,0.7-0.3
				c-0.1-0.2-0.1-0.4-0.2-0.5c0.1,0.2,0.1,0.4,0.2,0.5C349.3,211.8,349.1,211.9,348.8,212L348.8,212z M436.8,311.9
				c-1-0.3-1.6,0.1-2.6-0.1c-1.1-0.3-3.3-2.3-3.9-3.3c-0.8-0.3-1.9-0.8-3.3-1.1l-2.6,0.4c-1.4,0-1.7-1.3-3.1-1.3
				c-0.6,0-0.9,0.5-1.5,0.5h-0.5c0,0,0.1-0.9-0.1-1.5c-0.1-0.6-0.8-0.3-1.3-0.6c-0.9-0.6-3.4-1.8-4.7-1.8c-1.1,0-1.9,1.5-2.6,2.6
				c-0.2,0.3-0.5,1-0.8,1c-0.2,0-0.3-0.6-0.3-0.6h-1.7c-0.1-2.1-0.5-1.4-1.2-1.7c-0.3-0.1-1-0.1-1-0.8c0-2.1,2-2.8,3.1-4.2
				c0-0.7-0.9-0.7-1.3-1.4c-0.3-0.8-1.3-2.9-1.3-3.8c-1.2-0.3-2.6-2.5-3.8-2.5c-0.1,0,0,0,0,0v-0.2c-2.1,0-2.2-0.8-2.7-0.8h-1.7
				c-1.9,0-4.8-0.1-5.3-2.1c-0.3,0-0.9-0.1-1-0.3c-0.8-1.7-1.5-0.7-2.8-2.8h-1.9c-0.3,0,0.4-2-0.5-2.3c-1-0.4-2.5-0.6-2.5-1.6V281
				c0,0.1,0.3,0.1,0.6-0.1c0,0-1.5-0.2-2.2-0.2c-0.2,0.1-1.8,0.1-1.9,0.4c-0.4,0.8-1.2,0.9-2.2,1c-0.6,0-1.4-0.7-1.4-0.7
				c-0.6,0-2.6,0-3.8,0c-0.4,0-0.8-0.6-0.8-1.3c-1-0.2-2.6-0.6-2.9-1.8l-1.2,0.3c0,0.8,1-0.4,1.3,1.7h-1.7c-0.6,0-1.7-0.1-1.7,0.9
				c0,0.8,0.8,1.1,0.8,2c0,0.3-0.4,1-0.7,1c-0.8,0-1.1-1.4-1.1-2.2c0-0.6,0.4-1.8,0.6-2.9c0.3,0,0.7-0.3,0.7-0.8
				c0-0.1-0.3-0.8-0.6-0.8c-0.9,0-1.1,1-2,1.3c-1.7,0.6-2.9,0.8-4.5,1.4c-0.9,0.3-1.5,0.5-1.9,1.6c-0.1,0.6-0.2,1.5-0.6,1.7
				c-0.4,0.3-0.7,0.5-0.7,1.2c-0.1,0,0,0.2,0,0.3c0,0.1,0,0.3,0,0.4s-0.7,0.1-1.2,0c-0.1,0.2-0.5,0.3-0.7,0.5
				c0.2-0.3,0.3-0.5,0.4-0.5c-1.1-0.8-2-2.2-4-2.2c-1.7,0-2.6,1.4-4.4,1.4c-1.2,0-1.2-1.3-1.9-1.7c-1.1-0.6-2.6-1.2-2.6-2.7
				c0-1.1,0-2.6,0-4.2c1-0.7,1-2.4,1-3.1c0-0.3,0-0.7,0-1c-1-0.3-2-1.5-3.6-1.5c-2.4,0-4.5,0.4-6.8,0.4c-0.4,0-1-0.3-1-0.8
				c0-0.1,0-0.2,0-0.4c0-0.4,1-0.7,1-1.4c0-1,0-2.4,0-3.6l0,0c0,0,0,0.6,0,0.8c1-0.7,1.4-1.2,1.4-2.3c0-1.3,1.7-2.6,1.7-3.5
				c0-0.2,0-0.4,0-0.6c0,0-1.5-0.1-1.8-0.1c-0.3-0.1-0.8-0.2-1.5-0.2c-1.9,0-4.2,0.7-4.2,2.7c0,1-1.2,1.9-1.5,2.8
				c-0.1,0.3-0.4,1.1-1,1.1c-0.3,0-0.6-0.4-1.3-0.4c-1.4,0-2.5,1-3.8,1c-0.6,0-0.6-0.6-1.2-0.8c-1.8-0.6-1.8-1.7-3.1-3
				c-0.5-0.5-1.4-1.5-1.7-2c-0.3-0.6,0.6-1,0.3-1.7c-0.1-0.3,0-0.8,0-1.4v-3.9c0-1,0.2-1.5,0.2-2.8c0-0.4-0.4-0.7-0.5-1.1L314,249
				c0.1,0,0.1,0,0.1,0c0-0.2-0.4-0.5-0.4-0.7c0-2.1,0.9-4,2.4-4.5c0.7-0.3,1.3,0.2,1.9-0.3c0.8-0.8,1.8-2.6,3.8-2.6
				c0.8,0,1.2,0.7,1.9,0.7c0.4,0,0.6-0.6,1-0.6c1.4,0,3.1,2.4,5,1.4c-0.8-0.6-0.2-1.2-0.1-2.2c-0.4,0.2-0.3,0.2-1,0
				c1.2-0.4,2.6-0.3,3.8-0.6c0,0.2,0.3,0.6,0.5,0.6c0.6,0,0.8-0.6,1.7-0.6c1.7,0,2.4,1.6,3.7,1.6c0.6,0,0.9-0.9,1.5-0.9
				c3.1,0,2.2,4.2,3.3,6.5c0.6,1.1,1.3,1.5,2.1,2.6c0.4,0.6,0.4,1.7,1.4,1.7c1.2,0,1.6-1.3,1.6-2.8c0-1.3-0.7-1.9-0.7-2.8v-0.3
				c0-2.2-2.1-2.9-2.1-5.2c0-5.1,4.1-6.4,7.4-8.2l-0.2-0.1c0.4-0.4,0.3-0.6,1.2-0.9c0.6-0.1,0.9-0.7,1.7-0.8c0.4-0.1,0.7-0.5,1-0.8
				l-0.7-0.5v-0.6c1,0,0.8,0.1,0.9-0.7c-0.3-0.1-0.6-0.1-0.9-0.6c0.3,0,1-0.3,1-0.8c0-0.2,0-0.4,0-0.4s-0.6,0-0.8,0
				c-0.4-1,0-0.5,0-1.2s-0.4-2-0.4-2.5c0,0,0.1-0.6,0.2-0.9c0.1,0.7,0.9,1.8,0.9,2.3c0,0.3,0,0.5,0,0.8c0,0.1,0,0.4,0.1,0.4
				c0.2,0,1.5-2.4,1.5-2.8c0-0.6-0.5-0.8-0.7-1.3l0.3-0.3c0.1,0.1,0.3,0.6,0.5,0.6c0.5,0,1.8-2.4,1.9-3c0,0-0.6-0.5-0.6-0.8
				c0-0.2,0.2-0.4,0.4-0.5c0.2,0,0.4,0.1,0.6,0.1c1,0,1.7,0.2,2.6-0.1c-0.5-0.3-1.1,0.2-1.7,0.2h-0.7c1.4-1,4-0.7,5.4-1.7
				c0.3,0.3,1.5-0.2,2.6-0.4V214c0,0-0.9,0.5-1.1,0.5c-0.4,0-0.8-0.9-0.8-1.2c-0.2-0.1-0.4-0.4-0.4-0.6c0-2.6,2.3-3.4,3.4-4.5
				c0.7-0.3,0.7,0,1.6,0c1,0,1.7-0.4,2.2-1.2c-0.1-0.2-0.5-0.3-0.6-0.5l-0.3-0.2v0.1c0,0,1,0,1.2,0c0.4,0,2.2,0.1,2.8-0.3
				c0.6-0.4,0.6-1.4,1.7-1.5c0,1-0.1,1,1,1c-1.6,0.1-4.1,1.2-4.1,2.8c0,0.6,1,1.7,1.4,1.7c0.6,0,1.8-1.9,3.2-2.3
				c0.4-0.1,5.1-1.9,5.1-2.4c0-0.8-1.8-0.8-2.2-0.8c-2,0-5.2-1.9-5.2-3.7c0-0.4,0.6-1,0.7-1.7c-0.3,0-1.1-0.2-1.7-0.2
				c0.4-0.6,2.9-0.9,2.9-2.3c0-1.3-2.2-1-3.6-1c-3.1,0-4.4,2.2-6.5,2.4c0.9-1.9,2.4-1.2,3.9-2.8c1-1,0.3-1.6,1.7-2.1
				c2.6-0.8,4.2-0.3,6.8-0.3c3.5,0,5.4,1.1,7.4-1.5c1-1.3,6.6-1.6,6.6-3.8c0-1.6-0.4-2.3-1-3.3c-0.6,0-0.4-0.7-0.4-1v-0.8
				c-2.1,0.9-5.1,2.1-6.8,2.1c-0.2,0-0.7-0.1-0.8-0.3c1.4-0.8,5.2-1.3,5.6-2.6c0.1-0.3-0.8-0.4-0.9-0.8c-1.7,0.2-5.5-0.6-5.5-2.9
				v-0.2c-2.1,0-2.2-1-3.1-1.7c0.3-0.2,1.2-0.4,1.2-1.3c0-0.7-0.6-1.3-0.4-1.9c-0.6-0.2-2.9-1.6-2.3-2.9c0.7-1.6-2.2-1.9-2.4-3.8
				c-0.2,0-0.9-0.6-1.2-0.9c-0.5,0.4-1.6,1-1.6,2s-2.2,3.6-4,3.6c-1.3,0-1.5-1.5-2.3-1.5c-1.2,0-1.7-3.4-1.9-4.9c-0.3-2-4-0.6-4-3.1
				c-1.9-0.3-2.4-2.6-4.3-2.6c-0.9,0-0.9,0.7-1.9,0.7c-2,0-3.3-1.2-5.2-1.2c-1,0-2.1,0.5-2.1,1.7c0,0.7,2.5,1.7,0.2,3.1
				c-0.9,0.6,1.3,2.1,1.4,3.1c0.2,2.1-1.7,2.6-2.6,2.9c1.6,2.7,4,3.6,4,8.2c0,1.3-4.2,4.4-5.6,4.7c2.4,1.2,1.5,5,2.4,6.2
				c-0.3,0.4-1.2,0.9-1.3,1.7c-0.8,0-1.4,1.4-2.1,0.8c-1.7-1.4-4.2-4.1-4.2-6.1c0-2.2,0.4-4.8-1.5-5.8h-4.5c-2.6,0-5.5-2.4-8.6-3.6
				c-0.6-0.2-2.2-1.1-3.1-1.1c-1,0-1.5,1.2-2.6,1.2c0-1.7-1.1-5.5-2.6-5.5c-0.7,0-1,0.6-1.7,0.7c0.3-0.8,0-1.1,0-3.1
				c0-2.8,0.8-4.4,2.4-6c0.6-0.6,1.7-3.3,2.3-3.5c1.2-0.4,3.3,0.3,3.3-1.4c0-1-2.7-1.1-3.6-1.7c0.6,0.2-1.5-1.7,4.2,0.1
				c1.5,0.4,0.6-2,1.4-2c0.1,0,0.7,0,1.5,0c1.7,0,1.6-0.8,2.6-1.6v-1c-2.1-0.6-3.7-0.4-4.7-2.5c0,0,0.8,0,1.3,0
				c0.9,1,1.8,1.7,3.1,1.7c1.1,0,3.1-1.4,3.1-2.2c0-0.3-1-1.5-0.5-1.5c1.5,0,2.1,1.4,3.1,1.4c0.6,0,1-0.6,2.3-0.6
				c-0.3-0.4,0-1.6,0.8-0.3c0.5,0.7,4-2.4,4-3.3c0-0.6-1.6-1.3-1.6-1.7c0-0.5-0.9-1.6,1.3-2.6c0.3-0.6,0-0.6,0-1.7
				c-2.2,0-1.7-1.7-4.5-1.7c-0.6-0.1-1.1-0.5-1.7-0.5c-0.8,0-1.7,0.6-1.7,1.4c0,0.9,1,1.2,1,1.9s-1.6,0.7-1.9,1.4
				c-0.6,1.2-0.4,2.1-1.4,3.4c-1.6,2-3.6-1.2-3.6-2c0-0.9,1.2-0.7,1.2-1.7c0-0.5-2-2.4-2.6-2.4c-2,0-0.6,3-2.8,3
				c0-1.2-0.1-2-1.6-2.7c0.2-0.4,0.3-0.6,0.7-0.8c-1.1-0.7-2.6,0-3.5-1c0.5-0.3,1.7-0.8,1.7-1.7c0-1.3-2-1.3-2.1-2.3
				c-0.1-2.2-1.6-3.6-4.3-3.6c-1.3,0-0.8,0.8-0.7,1.5c-0.8,0.2-1.9,0-1.9,1c0,0.7,0.6,1,0.6,1.7s-0.9,0.6-0.9,1.6
				c0,2.3,4.7,0.9,4.7,3.3c0,0.4-0.6,2.1-0.6,2.1c0.5-0.3,0.9-0.4,1.5-0.7c0.9,2.9-3.7,1.5-3.7,4.9c-2.3,0.6-0.5-1.7-1-2.4
				c-0.2-0.3-2.1-0.8-3.1-0.8c-1.3,0-1.7,0.8-1.7,2.2c-1.2-0.1-1.9,0-5.9,0c-3.8,0-8.1-1.3-9-4.2c-1.3,0.3-5.4,0.4-5.4,1.9
				c0,0.5,0.3,0.8,0.9,0.8c1.1,0,2.9-0.5,3.8-1.1c0.3,2.3-3.3,0.4-3.3,2.8c0,0.5,0.8,2.1,0.4,2.1c-1.4,0-1.7-1.6-2.9-2.1l-1-0.3
				c-1.7,0-2.8,0-4.4,0c-1.4,0-2.3,0.4-3.8,0.5c-2.8,0.1-2.8-1-2.8-1.2c0-0.6,2.1-0.4,2.5-0.8c-1.9-2.7-1.6-2.3-5.6-2
				c-4.2,0.3-6.3-3.1-10.6-3.1c-1.3,0-1.9,0.9-3,0.9c-0.8,0-1.5-1.3-1.7-1.9c-1.3,0.3-1.3,1.8-2.7,1.8c-1.3,0-3.2-3.1-3.6-3.1
				c-1.4,0-0.9,2-2.4,2c-0.6,0-1-0.4-1.3-1c-2.2,0.5-2.9,0.6-4.9,1.4c-0.8,0.1-2.6,1.5-3.2,0.9c-1.8-1.7-1.5,0.5-2.2,0.5
				c-4.5,0.2-1.4,1.8-2,1.8c-1.7,0-4.9-0.3-7.7-2.1c-0.1-0.1-1-0.7-1-0.9c-0.5,0.3,0.2,0.1-0.9,0v0.1c-1-0.6-2.3-1.4-4.3-1.4
				c-1.2,0-2,0.3-3.2,0.3c-2.2,0-6.4,1.2-7.8-1.9h-4.8c-1,0-1.3,0-2.1-1h-3.5c-0.6,0-0.8-0.4-1.6-0.7c-0.3,0.6-1,1.1-1.7,0.9
				c0.2-0.3,0.3-0.5,0.6-0.9c-0.9-0.3-1.3-1-2.2-1c-1.2,0-1.9,1.5-3,1.9c-1,0.3-1.6-0.5-2.6-0.3c-3.7,1.2-6.8,5.2-8.9,6.2h-3.8
				c-0.1,0-1,2.3-1,2.3c0,0.5,2.9,1.2,3.7,1.7c0.7,0.4,1.5,2.6,2.1,2.9c2,1,3.5,1.2,4.2,3.4c-0.8,0.2-1,0.3-1.9,0.3
				c-1.5,0-2.6,0.7-2.6-1.3h-1.2c-1.7,1-4.5,1.8-6.3,2.8c0.3,0.7,1,1,2.1,1c-0.1,0.2-0.2,0.4-0.2,0.6c0,0.6,0.8,0.8,0.9,1.8
				c0.6,0,2.2,0,3.7,0c1-1,1.5,0.5,2.9,0.5c1.5,0,2.3-1.2,3.5-1.2c0.4,0-0.6,0,1.5,0v1c-2.1-0.3-0.8-0.3-1.5,0.1
				c0.1,0.2,0.9,1.2,0.9,1.7c0,0.9-4.8,2.8-5.5,2.8c-1.5,0-5.3,1.7-5.3,3.8c0,1.1,2.2,1.5,2.8,3c-0.3,0-0.7,0.2-1.1,0.2
				c0.5,0.6,3.7,3.2,4.7,3.2c0.3,0,0.8-1.2,1.4-1.2c0.6,0,0.5,0.8,0.5,1c0,0.6,0,0.6,0,1.4c0,0.6,0.3,1.2,0.7,1.2
				c0.3,0,0.7-1.1,1.1-1.1c0.3,0,0.2,0,0.8,0c0,0-0.1-0.1,0.1-0.5c1.2,0.9,1.7,1.6,3.3,2.2c0.1-0.5,0.3-0.6,0.5-1.1
				c0.7,0.2,1,0.4,1.9,0.4c1,0,1.5-1,2.6-1h1c-1.7,2.1-1.7,3.3-3.3,4.4c-1.7,1.1-4.4,2.4-5.6,3.9c-0.8,1-2.2,0.4-3.3,1.1
				c-0.8,0.4-1.4,1.8-2.2,2.3c-1.2,0.7-2.5,0.2-3.3,1.5c2.9,0.8,4.3-2.1,6.8-2.5c2-0.3,4.5-1,5.6-2.1s3.5-1.8,4.5-3.1
				c0.6-0.7,1.1-1.4,2-1.7c1.6-0.6,3.4-1.2,3.4-2.8c0-0.3,0-0.7,0-1c0-2.3,4.1-6.1,5.8-6.1c0.3,0,0.2,0,0.8,0c0,0-0.1,0.5-0.1,0.7
				c-2,0.6-3.1,1.8-3.1,3.3c0,0.3-0.3,0.3,0.1,0.8c-0.1,0.1-0.6,0.1-0.6,0.6c0,0.3,0.4,0.5,0.7,0.5c1.6,0,6-2.5,7-3.9
				c-0.3-0.3-0.5-0.5-0.7-1c0.6-0.4,2-0.9,2.9-1.2c1.2,2.4,4.2,3.3,6.5,3.3h3.8c2.1,1,4.5,1.3,6.3,2.6c0.8,0.6,1.8,2.7,3.3,2.7
				c0.6,0,0.8-0.7,1-1.2c0.6,0.6,1,1.1,2.1,1.1c0.3-0.5,0.9,0.2,1.3,0.5c-0.2,0.3-0.7,0.6-0.7,1.5c0,0.4,0.8,1,1,1
				c0.9,0,0.8-0.8,1.9-0.9c0,0.1,0,0.4,0,0.9c0,0.6-1,0.6-1,1.2c0,0.4,0.2,1,1.1,1c1.3,0,2,0,2,1c0,0.6,0,0.4,0,1
				c0,0.8,1.9,2.1,3,2.1c0.3,0,0.4-0.1,0.8-0.1c0,0.3,0.4,0.6,0.4,1c0,0.9-0.3,2.8,0.7,3.1c0.6,0.1,1.1,0.1,1.5,0.6
				c0.6,0.6-0.1,1.5,0.7,2.1c0,0,1.8,1.1,1.9,1.3c0.5,1.6,0.6,3.5,3,3.5c0.3,1.4,2.8,0.5,3.3,2.3c0.2,0.7,1.9,0.8,2.6,1.5
				c0.1,0.1,0.5,0.3,0.8,0.4c0.3,0.7,0.9,0.9,0.9,1.6c0,0.6-0.6,1.5-1,1.9c-0.3-0.6-1-1.2-2-1.2c-0.3,0-1,0.1-1,0.5
				c0,1.5,1.7,2.2,1.7,3.7c0,2.2-1.8,6.1-1.2,7.8c0.7,1.7-0.1,4.3,0.7,5.8c-0.4,0.3-1,0.7-0.7,1.3c1.2,2.1,2.7,5.1,4.2,5.4
				c-0.4,2.9,1.6,3.7,2.6,6.1c0.2,0.6,0,1.3,0.6,1.6c2.5,1,6.1,3.5,7.1,4.5h-0.7v0.4c0,1.6,1.4,2,2,3.3c0.4,0.8,0.5,2.8,1.3,3.3
				c1.2,0.8,2.4,2.3,3.5,3.7c0.6,0.9-1,0.6-1.4,0.6c0.7,1,2.6,0.8,3.6,1.8c0.7,0.7,1.4,1.5,2.4,2.2v1.8c0,0.3-0.1,0.3,0.3,0.6
				c0.8,0.5,1.3,2.1,2.5,2.1c0.1,0.3,0.9,1.5,1,1.5c0.2,0,0.4-0.7,0.4-1.1c0-0.6-0.9-1.7-1.4-1.2c-1.2-0.8-1.7-2.6-2.2-4.3
				c-0.5-1.5-1.9-2.2-2.4-3.8c-0.4-1.2-0.5-1.9-1.5-2.8c-0.7-0.7-1.6-0.7-2.1-1.7c-0.6-1.2-1.2-2.1-1.2-3.5c0-0.2-0.1-0.6,0.1-0.9
				c0.9,0.9,2,0.8,3.2,1.4c0.6,0.3,0.4,1.8,1,2.4c0.6,0.6,0.4,1.8,1,2.4c0.8,0.8,1.5,1.5,2.4,2.4c0.2-0.2,0.1-0.1,0.8,0
				c0,1.7,2.2,1.8,2.8,3.1c0.3,0.8-0.1,1.5,0.4,2c0.7,0.7,1.8,1,2.5,1.7c1.5,1.5,3.9,3.5,4.7,6.1c0.1,0.5,0.7,0.7,0.7,1.6
				c0,0.8-0.7,1.2-0.7,1.9c0,0.6,0.4,1.4,1,1.4c0.2,0.9,2.4,1.4,3.2,2.2c0.2,0.2,0.3,0.3,0.8,0.5c0.9,0.4,1.4,0.3,2.3,0.7
				c1,0.5,1.2,1.3,2.2,1.6c0.8,0.2,1.2-0.2,2,0.1c0.7,0.3,3.1,2,3.9,2c0.6,0,1-0.1,1.6,0.1c0.3,0.1,0.8,0.6,1.4,0.6
				c1.2,0,1.4-1.1,2.6-1.1c0.6,0,1-0.2,1.5,0.9h0.4c1.9,1,2.2,2.2,4.3,3.2c1.4,0.7,2.4,0.2,3.7,0.8c0.9,0.4,1.6,0.8,2.9,0.8
				c0.5,0,0.8-0.7,1.3-0.7c0.1,0,0.3,0,0.4,0c0.4,2.1,1.6,2.6,2.7,3.7c0.3,0.3,0.7,0.3,0.9,1c0.3,1-0.3,2.5,0.7,2.5h0.7
				c-0.1,0-0.1-0.1,0-0.3c0.1,0,2.4,1.6,2.6,2c0.3,0.6,0.3,1.3,1.3,1.5c0,0.1,0.2,0.5,0.3,0.5c0.5,0,1.6-0.4,2.1,0.1
				c0.6,0.6,1.3,1.9,2.4,1.9c0.6,0,0.9-0.3,1-1c-0.1-0.1-0.6-0.3-0.6-0.6c0-0.4,1.9-1.8,2.4-1.8c0.8,0,1,0.9,1.7,1.3
				c-0.1,0.3-0.4,0.4-0.4,0.7c0,0.2,0.6,0.4,0.8,0.5c0,0,0.1,0,0.2-0.1c-0.1,0.1-0.1,0.3-0.1,0.4c0,1.2,1.3,1,1.3,2.5
				c0,0.7-0.3,1-0.3,1.8c0,0.6,0.4,1,0.4,1.5c0,0.1,0,0.2,0,0.4l-0.3,0.6c0,0.2,0.3,0.6,0.7,0.7c-0.4,1.9-2.2,1.4-3,2.9
				c-0.6,1.1-1,3-2.9,3c0.3,3.1-1.5,2.8-1.5,4.4c0,1,0.1,2.4,1.1,2.4c0.5,0,0.4-0.3,1,0.1c-0.3,1.1-1.5,1.4-2.2,2.4
				c-0.3,0.3-0.8,1.3-0.8,2.1c0,1.3,1,2.6,1.7,3.4c0.3,0.3,0.8,0.1,1,0.6s0.3,1.5,0.8,1.9c0.2,0.2,0.7,0.1,0.9,0.5
				c0.6,1.3,1,2.2,1.5,3.8c0.5,1.5,1.9,2.8,2.4,4.4c0.3,1,1.3,1.5,1.3,2.6c0,0.8-0.3,1.6,0.3,2.2c1.3,1.3,2.2,2.2,4.2,2.9
				c1,0.3,1.4,0.6,2.2,1.4c0.8,0.8,1.5,0.6,2.6,1.1c1.2,0.6,2.4,1.7,3,3.3c0.2,0.8,0.7,4.9,0.7,5.6c0,1.1-0.5,3-0.5,4
				c0,0.9,0,0.9,0,3.1c0,0.7,0,1.9,0,2.4c0,0.2,0,0.4,0,0.6c0,2.4-2,4.1-2,6.7c0,1.1-0.9,2.1-0.5,3.3v5.2c-0.4,1.7-0.5,2.8-1,4.4
				c-0.1,0.3-0.4,0.2-0.6,0.5c-0.3,0.5-0.5,1.5-0.8,2c-0.6,1-1.6,2.6-1.6,4.2c0,0.5,0.1,2.4,0.3,2.4c0,0,0.4,0.3,0.4,0.8
				c0,0.2-0.2,0.4-0.7,0.4c-0.2,1.2-0.7,1.8-0.7,3.1c0,0.8,0.4,2.4,1,2.4c0.5,0,0.2-0.6,0.7-0.8c0.2-0.1,0.3,0,0.3,0v1l-1.9,10.3
				c-1,0-0.4-1.4-1.6-1.4c-0.3,0-0.5,0.6-0.5,0.6h-1.1v1c0,0.8,1.5,1.9,1.5,2.4c0,1.1-1.6,1.6-1.6,2.9c0,1.2,1.1,3.6,1.1,5.1
				c0,0.3,0,0.5,0,1c0,1.5,2.1,1.2,2.1,2.9c0,0.4-0.2,0.8-0.4,1.2c0.2,0.1,0.4,0.3,0.6,0.3c-0.1,0.6-1.3,0.6-1.3,1.2
				c0,0.1,0.4,0.5,0.6,0.7c0.9,0.9,1.5,2,3.4,2c0.1,0.3,0.2,1.1,0.8,1.1c0.5,0,0.8,0,1.3,0c0,1,1.5,0.9,2.6,1.2
				c1.1,0.4,0.6,1.9,2.2,1.9c0.7,0,1.2,0,1.9,0c0.2,0,0.5,0,0.7,0c0.3,0,0.3,0,0.8,0c0.6,0,2.4-1.2,3.4-1.2c0.4,0,0.8,0.2,1.1-0.2
				c-1.9-0.9-3.8-1.5-5.3-3c-0.9-0.9-0.8-4.1-2.1-4.8c-0.4-0.1-1-0.9-1-1.6c0-1.3,0.4-2.3,1.2-3.1c0.6-0.6,1.7-0.2,2.2-1.2
				c0.4-0.9,0.2-1.8,0.8-2.4c1-1,2.7-1.2,2.7-3.1c0-2.2-3.1-1.2-3.1-3.9c0-1.2,1-2.2,2.1-2.4c0.5-0.1,1.7-0.1,1.9-0.9
				c0.4-1.7,0.4-3,1.7-4.2c-0.3-0.1-0.8-0.3-0.8-1c0.7,0,1,0.6,1.8,0.6c0.1,0,0.7-0.5,0.7-0.9s-0.3-0.4-0.6-0.7
				c-0.2,0.1-0.6,0.5-1,0.5c-0.6,0-1.5-1.8-1.5-2.8c0-0.3,0.2-0.8,0.7-0.8c1.4,0,1.6,1,3.1,1c0.5,0,1.5-0.5,1.5-0.8
				c0-0.2,0-0.5,0-0.7c1-1-0.2-3.1,0.7-4c0.6-0.6,3,0.1,4.1-0.2c1.7-0.6,3.1-0.2,4.3-1.4c0.7-0.7,1.2-1.1,1.8-2.1
				c0.3-0.6,0.3-1,0.3-1.9c0-0.8-1.1-0.8-1.3-1.5c-0.3-0.8-0.3-1.6-0.8-2.2c-0.2-0.2-1.3-0.6-1.3-1.2c0-0.2,0.4-0.3,0.6-0.3
				c1,0,1.9,0.8,2.9,0.8c0.5,0,2,0.8,3.2,0.8c3.2,0,3.7-3.5,5.1-5.6c1.2-1.8,2.8-2,4-3.9c0.6-0.9,1.2-1.4,1.2-2.3v0.1
				c1-1.5,1-2.6,2.1-3.3v-3.3c0-1.3,0-2.3,0.9-3.2c0.6-0.6,1.5-0.6,2.1-1.5c1.2-1.9,3-1,4.7-2.6c0.2-0.2,0.3-0.6,0.7-0.8
				c1-0.5,2.1-0.4,3.4-0.4c1.2,0,2.6-1,3.1-1.8c0.1-0.3,0.1-1.1,0.4-1.5c1-1.4,1.4-2.1,2.4-3.7c0.1-0.3,0.4-1.7,0.4-2.4
				c0-0.6,0.6-1.3,0.9-1.6c0.1-0.2,0.4-0.5,0.4-0.8c0-0.9,0.5-2.1,0.5-3.3c0-1.7-1-3.9,0-5c0.7-0.7,1.5-0.8,2.2-1.9
				c0.4-0.6,0.7-0.8,1.1-1.4c1.9-2.8,4.7-4.2,4.7-9.4C438.5,313.8,438.2,312.3,436.8,311.9z"/>
			<path class="st3" d="M351.7,251.1c0,0.6,0,1.3,0.7,1.3c0.1,0,0.3-0.2,0.3-0.3c0-0.5-0.2-0.9-0.8-1H351.7z"/>
			<path class="st3" d="M351.7,247.2c-0.3,0-0.8,0.3-1,0.6c0.4,0,1.1,0.1,1.8,0C352.4,247.5,352.2,247.2,351.7,247.2z"/>
			<path class="st3" d="M353.8,248c-0.1,0.2,0.1,0.6,0.3,0.6L353.8,248z"/>
			<path class="st3" d="M362.2,259.1v-0.6c-0.3,0.4-0.8,0.8-1.4,0.6c0,0.1,0,0.3,0,0.4s0.2,0,0.3,0
				C361.5,259.5,362,259.3,362.2,259.1z"/>
			<path class="st3" d="M244.6,180.5c0.3,0,0.6-0.2,0.6-0.7c0-1.5-1.9-1.7-1.7-3.6c-1.5-0.3-1.8-0.3-1.8,1.4c0.8-0.6,0.4-0.2,1.5,0
				c-0.2,0.3,0,0.9,0,1.4C243.2,179.1,244,180.5,244.6,180.5z"/>
			<path class="st3" d="M239.6,173.6c-0.1,0.1-0.7,0.2-0.7,0c-0.3-1.1,0-1.1,0-2.9c-1,0.6-0.3,0-1.6,0c-0.3,0-0.8,0.1-0.8,0.7
				c0,1,0.8,1.9,1.9,2.1c0,1.1,0.3,1.9,1.1,2.8C240.2,175.5,239.5,174.6,239.6,173.6z"/>
			<path class="st3" d="M304,133.6c1.3,0,1.5,0.3,2.8-0.6c-1.3-1-7.2-2.6-7.2-4.8c0-1.8-1.9-3.4-1.9-5.9c0-0.6,1.5-1.3,1.5-2.3
				s-1.2-1.5-2.4-1.5c-1.1,0-2.1,0.5-2.1,1.2c0,0.2,0,0.5,0.1,0.7c-1.1,0.6-0.7,0-1.9,0c-0.6,0-1.3,0.3-1.3,0.9s1,3.9,1.6,4.8
				c-0.3,0.3-0.3,0.6-0.9,0.6c-1.3,0-0.8-1.9-1.2-2.7c-0.3-0.8-1.3-1.1-2.3-2.1h-1.5c0.1,1,0.3,0.8,0.3,1.4
				c-0.8,0.2-1.3,0.4-2.1,0.6c-0.5-1.2-1.2-2-3.1-2c-1.1,0-1.6,0.9-2.2,1.3c-0.3-0.4-0.2-2.4-1.2-2.4c-2.5,0-8.8,2.5-8.8,5.9
				c0,0.3,1.3,1.4,2.1,1.4c0.9,0,1.3-0.2,2.4,0.1c-0.8,0.5-2.8,0.1-2.8,1.7c0,1.9,3.8,1.5,5.4,1.5c0.7,0,2.4,0,3.7,0
				c0.7,0,1.3,0.2,1.7,0.5c-0.8,0.1-1.3,0-2.3,0c-2.9,0-5.1,0.3-6.7,1.5c0.5,0.8,1.7,2.4,3.3,2.4c1,0,3.1-0.4,3.8,0.2
				c0.8,0.6,0.1,1.6,1.3,1.6c1.9,0,3.1,0,6.3,0c1.5-1,3.2-0.3,5-1.2c1-0.5,0.6-1.2,1.8-1.2c2,0,3,2.1,5.7,2.1c1.7,0,3.3,0.1,4-1.2
				c-0.3-0.2-0.6-0.4-0.7-1c-0.3,0-1,0-1-0.6C303.1,133.8,303.4,133.6,304,133.6z"/>
			<path class="st3" d="M260.1,126.9c0.2,0.3,0.7,1.4,1,1.4c0.4,0,0.6,0.7,1,0.7c0.6,0,5.4-1.7,5.4-2.3c0-1.6,3.1-4.5,5.2-5.2
				c0.7-0.2,4.4-0.8,4.4-1.5c0-1.6-3.4-3-4.9-3c-0.9,0-1.7,0.8-2.4,0.2c-1.5-0.1-2.2-1-3.8-1.4c-1.3-0.3-1.9,0.5-2.8,0.5
				c-1.7,0-2.4-0.7-4.2,0c0.1,0.8,1,1.9,1,2.4c0,2.5-3.5,4.4-3.5,6.8C256.8,126.3,259.6,126.1,260.1,126.9z"/>
			<path class="st3" d="M279.1,110.1c-0.2,0-0.7-0.1-1.1-0.2C278.3,110,278.7,110,279.1,110.1L279.1,110.1z M277.2,108.6
				c-0.1,0-0.1,0-0.2,0c-0.6,0-1.1,0.4-1.4,0.8c0.2,0.1,0.5,0.1,0.7,0.2c-0.2,0-0.3-0.2-0.3-0.2h-1.7v1.2c0,0.1,0.8,0.2,1,0.3
				c-0.2,0-0.4-0.1-0.6-0.1c-0.7,0-1,0.6-1.7,0.7c0.3,0.5,0,0.3,0,1c0,0.6,0.5,1,1.1,1c0.5,0,1.5,0.5,2.4,0.5c0.8,0,1.7-0.3,2.9-0.5
				c0-0.4,0.3-0.8,0.8-0.9c0.1,0.7,0.8,1,1.2,1.6c-0.9,0-1.9-0.2-1.9,0.8c0,0.4,1.1,1,1.9,1c1.7,0,3.1-0.5,4.5-1
				c0.2-0.1,4.7-1,4.7-1.2s4.1,0.3,4.5,0.1c0.6-0.2,2.3-2.3,2.3-3.3c0-0.8-0.8-1.7-1.6-1.7c-0.9,0-1.2,0.8-1.9,0.8
				c-1.3,0-2.6-1.5-2.6-2.6c0-0.1-0.1-0.3,0-0.9c-0.5,0-0.9-0.2-1.3-0.5c-0.7,0.6-2.7,1.1-2.7,2.2c0,0.6,1.5,1,1.5,1v0.9
				c0,0-0.4,0.1-0.5,0.3c0.3,0.1,0.7,0.2,1.5,0.2c-0.3,0.6-0.6,1.2-1.5,1.2c-3.1,0-4.5-2.4-6.6-2.4c-0.1,0-0.8,0-1.6,0
				c-0.1-1-0.9-1.3-1.2-1.3c-0.6,0-1-0.3-2.3-0.1C276.6,108.3,276.8,108.4,277.2,108.6z"/>
			<path class="st3" d="M269.5,111.2c0,0.5,0.6,0.8,1.2,0.8c0.9,0,1.9-1.5,2.1-2.4C272.1,109.5,269.5,110.1,269.5,111.2z"/>
			<path class="st3" d="M279.3,108.4h1.2v-2.1h-2.1C278.4,106.3,278.9,108.4,279.3,108.4z"/>
			<path class="st3" d="M264.5,109.6c0.7,0,1.1,0.4,1.9,0c0.1,0.3,0.6,1,1.2,1c0.8,0,1.3-0.8,1.5-1.5c1.2,0.1,2.2-1,2.4-2.2
				c0.6,0.3,0.6,1.9,1.7,1.9l3-2.2c0-0.6-0.5-0.7-0.6-1.4c0.5-0.1,0.9-0.6,0.9-1.1c0-1.2-4.2-0.1-4.2-0.1c-0.6-0.1-0.7-0.1-1.3-0.1
				c-1.9,0-2.3,1.8-3.6,2.6c-1.2,0.7-2.2,0.8-3.3,1.4c-0.3,0.1-1.5,1.1-1.5,1.3c0,0.2,0.6,0.6,0.7,1
				C263.8,110.1,264,109.6,264.5,109.6z"/>
			<path class="st3" d="M284.3,100.1c1.5,0,1.1,0,3,0c0.8,0,1.3-0.3,1.9-0.5c-0.3-0.9-1.5-1.7-2.9-1.7c-0.9,0-5.1,1.6-5.1,2.5
				c0.6-0.1,0.8-0.7,1.4-0.7C283.2,99.7,283.4,100.1,284.3,100.1z"/>
			<path class="st3" d="M287.1,100.8c-1.5,0-5.7,0.1-5.7,1.7c0,0.6,1.2,2.3,2.2,2.3c1.5,0,3.8-0.6,3.7-1.6h-1.9c1,0,2.2-0.7,3-1.3
				C288.1,101.6,287.8,100.8,287.1,100.8z"/>
			<path class="st3" d="M279.4,103c0.5,0,0.7-0.4,1-0.8c-0.4-0.2-2.4-1.9-2.4-0.2C278,102.3,278.8,103,279.4,103z"/>
			<path class="st3" d="M314,123c0-0.7,0.2-0.1,0.2-1c0-0.8-2-0.1-2.6-0.1c0.5-0.6,2.2-1.2,2.2-2.6c0-0.3-0.5-0.7-0.7-0.7
				c0,0-1.5,0-2.8,0c-1.5,0-3.1-0.3-4.2,0.8c-0.1,0.2-0.8,0.3-0.8,0.5c0,0.9,0.9,0.8,1.9,0.9v1.9c0,0,0.3,0-0.4,0
				c-1.2,0-2.7-0.9-2.7-0.9v1.2c1,2,3.9,1.7,5.9,3.7c0.4,0.4,0.4,1.2,1.4,1.2c0.6,0,0.7-0.8,1.3-1c2.2-0.8,2.4,0.2,2.8-3.6
				C315.2,123.2,314.3,123.1,314,123z"/>
			<path class="st3" d="M300.3,108.4c-0.3,0-0.6,0-0.8,0c0,0,0.4,0,0.5,0.2l0.2-0.7v1.3c0,0.4,0.8,0.9,1.5,0.7v0.7h1
				c0,0,0.3,0.9,0.8,0.9c1.4,0,3.8-0.7,5.1-0.7c0.3,0,0.6,0.1,0.8,0.2c-0.4,0.4-1.7,0.4-1.7,1c-0.1,0.2-0.1,0.5,0,0.7
				c-0.3,0.1-0.5,0.4-0.5,0.7c0,0.6,1.8,0.4,2.2,0.4c0.2,0,1.7,0,2.8-0.4c-0.3-1.9,0.6-2.8,0.6-4.4c0-1-0.1-1.7-1.4-1.7
				c-0.6,0-0.8,0.6-1.4,0.6c-1.3,0-2-0.7-3.1-0.7c-0.5,0-1.1-0.1-1.6,0.1c0.3,1,1.1,1,2.1,1v1.5c-1,0-2.1-1.5-3.1-1.5v0.8
				c0,0.3,0.8,1.4,1.3,1.8C303.4,111.3,302.3,108.4,300.3,108.4z"/>
			<path class="st3" d="M311.1,135.7c-0.3,0.1-1.5-0.2-1.5,0.3c0,0.2,5.1,2.1,6.1,2.1c0.8,0,1-0.7,1.7-1.1c-0.4-1-3.3-3.5-4.3-3.5
				C311.6,133.5,311.9,135.4,311.1,135.7z"/>
			<path class="st3" d="M320.5,117.1c-1.5,0-1.8,1.2-1.8,1.3c0,0.2-1,1.4,0,1.4c-1,0-2.1,0-2.1,0v0.3c0,1.4,0.2,1.9,1.3,3.1
				c-0.1,0.3,0.1,0.8,0.1,1.8h1.4c0.8,0,1.4-1,1.6-2.1h-0.9c0.4-1,0.4-0.3,1.9-0.3c2.1,0,3.1-1.4,4-2.7c0,0,1.3-0.9,1.3-1
				c0-0.3,0-0.5,0-0.9C324.8,117.9,322.9,117.1,320.5,117.1z"/>
			<path class="st3" d="M298.5,105.1c0.5,0,0.9-0.3,1-0.8c-1.5-0.5-1.6-1.9-3.4-1.9C296.1,103.2,297.8,105.1,298.5,105.1z"/>
			<path class="st3" d="M298.2,113.6c0.6-0.1,0.7,0.1,1.4,0.1c0.4,0,1-0.1,1-0.9c0-0.5-0.3-0.7-0.5-1
				C299.2,112,298.5,112.4,298.2,113.6z"/>
			<path class="st3" d="M298.2,96.9c-0.1,0.3-0.3,0.6-0.5,0.7c0.6,0.4,0.9,0,2.4,0c-0.1,0.2-0.1,0.6,0,0.8c-0.8,0.3-1.5,0.2-2.1,0.8
				c0.6,0.6,0.9,0.6,1.9,0.6s1.9-0.4,2.3,0.3c1.3-0.1,2,0.3,3.3,0.3c1.6,0,1.5,1.7,3.1,1.7c0.6,0,1.3-0.2,1.3-0.9
				c0-0.8-1.4-1.3-1.9-1.9c0.1-0.2,0.4-0.5,0.6-0.7c-0.3-0.3-1.1-1.6-2.1-1.6c-0.4,0-0.6,0.6-1,0.6c-0.8,0-0.7-1.6-2.1-1.6
				c-0.6,0-0.8,0.6-1.4,0.6c-0.8,0-1.2-1.2-2.6-1.2c-0.8,0-1.4,0.4-2.2,0.6C297,96.7,297.2,96.9,298.2,96.9z"/>
			<path class="st3" d="M305.6,101.8c-0.6-0.2-0.8-0.6-1.6-0.6c-0.3,0-1.9,1-0.6,1C304.4,102.3,305.2,102.3,305.6,101.8z"/>
			<path class="st3" d="M330,114.6h0.8c-0.1,1,2,1,3.5,1h5.6c0.6,0,0.8-0.7,1.7-0.8c0.1,0.5,0.5,1.1,1.4,1.1c2.4,0,5.6,0,5.8-2.4
				c0,0-0.4,0.1-0.9-0.1c0.1-0.3,0.2-0.5,0.3-0.6c0.2,0,0.5-0.1,0.6-0.1c-1-1.8-2.8-1.9-5.6-1.9c-3.6,0-4.9,1.7-8.7,1.7
				c-1.7,0-3.1-0.4-4.8-0.8c-0.3,0.2-1.1,0.6-1.1-0.4c0-0.2,0.4-0.1,0.5-0.3c-1-0.8-2.7-0.5-3.1-1.5h2.8c-0.6,0-3.8,0-3.3-1
				c0,0-0.8,0-1.3,0c-0.3,0-0.7,0-1.4,0c-2.4,0-2.9-2.7-6-2.7c-0.8,0-2.1-0.1-2.1,0.9c0,0.6,4.2,2.4,5,2.4c0.6,0,1-0.3,1.4-0.7
				c1.2,1.2,1.5,2.3,2.8,3.5c-0.3,0.1-0.8,0.6-0.8,1.1c0,1.4,3.5,3.1,5,3.1C328.7,115.8,329.8,114.6,330,114.6z"/>
			<path class="st3" d="M321.1,113.3c0-0.9-1.7-2.3-2.9-2.3c-1.6,0-1.3,1.6-2.1,1.6c-0.1,0-0.9,0.4-0.9,1c0,0,4,1.9,4.5,1.9
				C320.7,115.5,321.1,114.5,321.1,113.3z"/>
			<path class="st3" d="M320.8,103.2c0-0.1,0,0,0-1c0,0,0.2,0-0.6,0c-1.3,0-3.7,0.2-4.4,0.9c0,0,3.8,0.8,4.2,0.8
				C320.6,103.9,320.8,103.6,320.8,103.2z"/>
			<path class="st3" d="M314,100.8c-0.2,0.1-0.7,0.3-0.7,0.7c0,0.8,2.4,0.6,4.9,0c-0.2-0.8,0-1.3,0-1.7c0-1.5-2.4,0.1-2.4-1.6
				c-0.8,0-2.2-0.5-2.4-1c-0.7,0.1-1.6,0.3-1.6,1C311.7,99.5,313.2,99.9,314,100.8z"/>
			<path class="st3" d="M310.6,93.9h0.9v-1.5c0,0-1.4,0-2.3,0C309.2,93.3,310.1,93.9,310.6,93.9z"/>
			<path class="st3" d="M319.4,93c-0.6,0-1.7-0.1-2.1-0.1h-1c0.2,1,1.7,1.7,4,1.7c-0.4,0.6-0.9,0.3-1.6,0.6c0,0.4,0.1,0.6,0.6,0.6
				c0.6,0,0.8-0.3,1.5-0.6c0.2,0.4,0.3,0.9,1,0.9c0.8,0,1-0.6,2.1-0.6c1,0,1.8,0.3,2.9,0.5c-1,0.2-5.3,0.1-5.3,1.4
				c0,1,1.9,1.7,3.1,1.7c-0.2,0.2-0.4,0.4-0.9,0.5c0.1,1,1.7,1.3,2.8,1.3c1,0,1.4-0.3,1.4-1.6c0.6,0.4,2.3,1.3,2.3,1.3v-1.4h1.7
				c-0.2,0-0.5-0.5-0.9-1.2c0.3-0.3,0.5-0.6,0.8-0.9c0.2,0.8,0.2,1.4,1.1,1.4s1.9-2.1,3.3-2.2c0.6-0.1,1.3,0.1,1.6-0.3
				c0.2-0.3,0.1-0.1,0.1-0.6c-0.9-0.1-2.7-0.4-3.4-0.4c-0.1,0-1.2,0-1.2,0c0-1,0.5-1,0.5-1.5s-0.8-0.7-0.8-1.2
				c0-0.8,0.1-1.4-0.9-1.4c-0.2,0-0.5,0-0.7,0l-0.1,0.4V93h-0.4c-0.6-2.1-0.2-1.9-1.3-2.3c-1-0.4-1.7,0.1-2.8-0.3s-0.8-2.5-2.2-3.1
				c-1.3-0.5-2.6-0.7-4.4-0.8c0.1,1,1.3,1.4,2.1,1.4h-1.2c-1.3,0-1.8,0.1-2.6,0.6c0,0.1,0.6,1.1,0.9,1.1c0.4,0,1.3-0.4,1.9,0
				c-0.2,0.2-0.3,0.7-0.8,0.7c-0.6,0-0.9-0.5-1.9-0.5c-0.6,0-1.6-0.1-1.6,0.7c0,0.8,2.2,1.5,3.1,1.8C320,92.2,319.7,93,319.4,93z"/>
			<path class="st3" d="M344.8,152.2c-0.3-0.3-0.1-0.8-0.5-1.3c-1.3-1.7-3.5-1-4.9-2.8c-0.2,0.1-0.4,0.3-0.6,0.6
				c-0.3-0.7-0.8-0.9-1.1-2c-1.9,0.2-2.4,3-2.4,4.2c0,0.6,0,0.4,0,1c0,0.4-0.3,0.6-0.6,0.9c-0.1,0.3-0.9,0.2-1,1.4
				c0.6-0.1,1.9-0.3,3,0c-0.1,0.7-0.3,1.4,0.5,1.4c0.3,0,0.4-0.2,0.6-0.6c1,0.4,3.3-0.8,3.3-2.3c0.4,0.1,2.6,2,2.6,2
				c0.7,0,1,0,1.9,0s1.5-0.6,2.3-1C347.1,153,345.9,153.1,344.8,152.2z"/>
			<path class="st3" d="M358,140.4c0-3.1-4.3-3.1-4.3,0c0,1,0.7,1.5,1.7,1.5C356.3,141.9,358,141.4,358,140.4z"/>
			<path class="st3" d="M342.7,156.2c-0.1,0.4-1.2,1-1.2,1.7v0.9c1-0.1,2.7-1.5,3.3-2.4C343.9,156.1,344,156.1,342.7,156.2z"/>
			<path class="st3" d="M349.9,122.7c1.2,0,1.8-0.7,2.6-0.7c0.8,0,1.2,0.5,2.1,0.5c0.6,0,1-0.5,1.3-1.1c-1.3-0.6-2.9-2.2-4.7-2.2
				c-1.5,0-1.9-0.6-3.5-0.6c-0.6,0-1.2,0.3-1.2,1c0,0.8,0.8,1.1,1.4,1.5C347.3,122.3,348.5,122.7,349.9,122.7z"/>
			<path class="st3" d="M348.3,160.2c0.7,0,0.8-1,1.3-1.5c-0.7-0.8-2.3-0.8-2.3,0.5C347.2,159.2,348.1,160.2,348.3,160.2z"/>
			<path class="st3" d="M361,140.3c-0.2-0.3-0.8-1.1-1.4-1.1c-0.1,0-0.9,0.5-0.9,0.7c0,0.4,0.4,0.6,0.9,0.6
				C360.3,140.4,360.1,140.5,361,140.3z"/>
			<path class="st3" d="M351.2,135.1c-0.8,0-2.4,1.6-1.6,1.6C350.5,136.7,351,136,351.2,135.1z"/>
			<path class="st3" d="M366.4,128.5c0.2-1.2-1.7-1.6-2.5-1.6c-0.5,0-0.7,0-1.7,0c-2.3,0-2.8-2.2-4.3-3.3c-0.9-0.6-3.9-0.9-5.2-0.9
				c-1.3,0-1.6,1.8-2.8,1.8c-0.6,0-1-0.7-1.7-0.7s-1.5,0.7-1.5,0.7s0-1.1,0-1.4c0-1.5-0.8-4-2.6-4c-2.8,0-7.4,0.8-7.4,3.5
				c0,0.7,0.7,1.2,0.7,1.9c0,0.6-1,1.4-1.4,1.4c-0.8,0-0.7-0.6-0.7-1.2c0,0-0.1-0.8,0-1.3c-0.3,0-0.6-0.3-0.6-0.7c0-2,2.3-2.2,3-3.6
				c-0.1,0-2.3-0.7-2.3-0.7c-2.4,0-4.2,1.2-5.6,2.6c-0.3,0.3,0.1,1.5-0.5,1.9c-1,0.8-1.4,1.2-1.4,3.1c0,0.6,0.7,1.9,0.7,1.9
				s3.5,0.3,3.5,0.7v0.9c-1-0.1-1.9-0.8-2.8-0.4c0.1,1,1.5,1.9,1.9,1.9h3.3c0.4,1,1.5,1.6,2.1,1.6c3.1,0,8.4-0.1,10.6,0.1
				c-0.1,0.5-0.3,1.7,0.6,1.7c1.3,0,2.4-2.6,3.3-2.6c0.8,0,4.5,3.2,5.1,3.8c-0.4,0.1-1.7,0.2-1.7,0.9c0,0.1,0.3,0.8,0.6,0.8
				c0.9,0,1.3-0.8,2.2-0.8c1.5,0,5.9,3.4,5.9,5.2c0,1-1.5,2.5-2.1,3.1c-0.5,0.5-1.7-0.1-1.7,1c0,0.6,0.9,1.4,1.2,1.6
				c-0.8,0.6-2.5,1.1-3.1,1.1s-1.7,0-3,0c-1,0-2.8,1.1-2.8,1.7c0,1,2.2,1.9,3,1.9s1.3-1.1,2.1-1.1c0.6,0,0.5,0.5,1.2,0.5
				c0.6,0,1-0.6,1.4-1.1c2,1.2,3.1,2.5,5.4,3.5c-1.2,2.2,3,2.2,4.7,3.1c1.7,1,3.1,0.6,5.1,1.6c0.2,0.1,0.3,0.8,0.7,0.8
				c0.3,0,0.7-0.9,0.7-1.4c0-1.9-3.9-2.3-5.1-5.4h1c0.8,2.1,5.2,3.2,6.5,3.4c0.3-0.8,1-1.8,1-2.5c0-0.8-1.2-1.1-1.2-1.6
				c-0.1-0.3-0.1-0.3,0-1.4c-0.5,0-0.5,0-1.2,0c-0.1,0-0.6-0.2-1.9-0.6c-0.6-0.2-1.4-1.4-1.5-2.5h-1.1v-1.2c0,0.2,0,0.1,1,0v-0.8
				c-1,0.1-0.7,0.2-1.3-0.1c0.1,0,1-0.8,1.4-0.8c3.3,0,3.5,4.7,7,4.7c0.8,0,0.9-1.2,0.9-2c1.3,0,1.5-0.6,1.5-0.8
				c0-0.4,0.1-0.1,0-0.9c0.9,0,2.1-0.3,2.1-1.2c0-1.1-0.6-1.6-1.9-1.6c-0.3,0-0.9,0-1.3-0.3c-0.6-1.3-0.9-0.3-2.4-0.3
				c-1,0-1.4-1.2-1.5-2.4c-1.5-0.1-3.3-0.8-3.5-2.4c-0.9,0-1.3-0.2-1.9-0.6c0.6-1,1.2-1,2.3-1.6c-0.2-0.4-0.7-0.6-1-0.6
				c-0.6,0-0.9,0-2.1-0.1c0.6-0.8,1.5-0.6,2.4-0.8c-0.4-1-1-1.5-1.9-1.5h-0.8v-1.5C369.3,130.5,368.3,129.2,366.4,128.5z"/>
			<path class="st3" d="M351.4,154.9c0.7,0.6,0.9,0.6,1.6,0C352.2,154.5,352.1,154,351.4,154.9z"/>
			<path class="st3" d="M339.8,146.5c-0.1,0.5,0.5,1,1.4,1.1C340.7,147,340.7,146,339.8,146.5z"/>
			<path class="st3" d="M327,84.6h2.1c-0.8,0-1.2,0.6-1.9,1.3c0.1,0.1,0.9,0.6,1.3,0.6c1.3,0,1.4-1.2,2.8-1.2c0.6,0,0.8,0,1.4,0.2
				c-1.8,0.6-3.5,0.4-4.3,2.2c0.6-0.1,1.9,0,3.3,0c-0.9,0.1-1.4,0.4-1.9,0.8c0.5,0.6,2.4,1.3,3.8,1.3c0.6,0,1,0.2,1.5-0.9h0.9
				c-0.4,1,1.4,1.6,2.8,1.6c0.6,0,0.8-0.6,1.4-0.6c0.7,0,1.1,0.6,2.4,0.6c2.2,0,3.8-0.5,5.2-1.6h1c-0.8,1-2,1-3.3,2.1H342
				c-0.1,0-0.5,0.4-0.5,0.6c0,0.4,2.2,1.8,2.6,2.1c-2,0.2-2.6-1.8-4.3-2.4c-1.4-0.4-2.9-0.1-3.7-0.1c-0.3,0-0.7-0.1-1,0
				c0.1,0.6,0.3,0.8,1,0.8c-0.7,0-1.7-0.1-1.7,0.6c0,1.3,4.7,1.3,4.7,3.5c0,1.9-2.6,1.3-4.3,1.9c-1,0.3-1.6,1.1-2.6,2.3l0,0h2.1
				c0.3,0,0.3,0,0.7,0h1c0,1,2.2,3.1,3.1,4.1h-1.3c-1.3-1-2.1-2.1-4.3-2.1c-0.7,0-1.7-0.4-1.7,0.6c0,1.2,1.5,1.4,2.3,2
				c-1.5,1-5.1,0-5.1,2.8c0,0.2,0.2,0.5,0.7,0.5c0.3,0,0.6-0.4,0.8-0.7c2.4,0.8,4.3,1.5,6.6,1.5c1,0,1.5-0.6,2.1-0.6
				c1.7,0,3.2,0,5.2,0c1.4,0,0.7,0.9,2.3,0.9s5.6-1.2,5.6-2.4c0-0.6-0.8-0.5-1-0.5c-0.5,0-0.7,0-1.7,0c0-2.1,2.9-1.5,2.9-3.7
				c0-0.4-0.3,0.6-0.5-1.5c0.6,0,0.5,0,3.5,0c1.2-1,1.7-2.2,3.1-2.9c-0.4-1-1.2-0.9-2-1.4c1.3,0.1,2.2-0.9,2-0.9h-1.9
				c1.1-1,2.9-1.2,4.4-1.7c1.1-0.3,2.6,0.4,3.6-0.3c2.1-1.5,3.7-4.3,6.5-5.2c2.5-0.8,6.4-1.8,8-3.4c-1.7-0.1-4.5,0.5-5.2-0.2
				c3.7-1.8,7.1-0.6,9.9-2.6c0.5-0.3,1.7-0.1,1.7-1c0-1.3-3.7-0.9-4.5-1.7c-0.4-0.4-0.4-1-1.2-1.2c-0.5-0.1-0.8-0.3-1.3-0.6
				l-5.6,1.6c0.6-0.1,0.8,0.1,1.2-0.4c-1.4-1.4-7.4-0.8-9-0.8c-0.7,0-1.1,0-2,0c-0.6,0-1-0.9-2.1-0.9c-1,0-1.3,1-2.2,1
				c-1,0-1.4-0.7-2.6-0.7c-0.3,0-0.7,0.6-0.8,0.6c-3.6,0-4.4,0-8,0c-0.7,0-1.3,0-1.6,0.7c-0.9,0.8-0.2,0-1.4,0c-2,0-2.9,1.4-3.5,3.1
				c-0.6-0.2-3.3-1.6-4.7-1.6c-1.5,0-0.6,1.4-2.8,1.4c0,0.3-0.3,0.5-0.6,0.5c-0.1,0-0.7,0-1.5,0c-2,0-6.5,1-7,2.1c0.4,0,1.3,0,1.5,0
				C326.2,84.6,326.6,84.6,327,84.6z"/>
			<path class="st3" d="M462.9,131.9c-1.5-0.5-7.6-0.2-7.6-2.3c0.3-0.1,1.5-0.3,1.5-0.9c0-0.6-0.7-0.8-0.7-1.7c0.3,0.2,0.7,0,1,0
				c2.9,0,2.2,3.5,5.4,3.5c0.8,0,1.8-0.1,1.8-0.8c0-4-4-5.1-7.1-7.6v-1c0,0,0.5,0.1,1,0c0.4,1.3,2.6,3.1,3.9,3.1
				c0.8,0,1.1-0.7,1.1-1.6c0-1.9-3.1-1.7-3.8-2.8h1c0.6,0,1.3,0.7,2.1,1.2c0.6-1.5,3.3-0.7,3.8-2.8c-0.3-0.1-0.7-0.7-0.7-1.1
				c1.3-0.1,2.7-0.8,3.1-1.9c-0.8-0.3-2.8-0.2-2.8-1.4c0-0.9,1.1-0.9,2.2-0.9c-0.3-0.4,0-1,0-1.5c0-1-1-1.5-1-3c-1,0-2.2,0-2.2-1.2
				c0-0.5,0.6-1,1.4-1c1.3,0,4.9,0.6,4.9-1c0-1.7-2.7-1.3-3-2.4c0.4,0,0.9-0.2,1.3-0.4c-0.7-0.6-1.7-1.3-2.8-1.3
				c-0.8,0-1.3,0.3-2.1,0c0.4-0.7,0.3-2.4,1.2-3c1.3-1,2.8-1.5,2.8-2.9c0-0.3,0.1-0.3,0-1c1.3-0.4,3.1-0.6,3.1-1.7
				c0-0.7,0.5,0.1,0-0.9c1.3-0.3,3.1-0.3,3.1-2.2c-0.6,0.4-0.6,0.4-1.5,0c3.1,0,4.6-2,6.9-2.8c0.4-0.1,1.7-0.8,1.7-1.6
				c0-0.9-3.3-2.7-4.2-2.7c-0.7,0-1.2,0.6-1.4,0.6H473c-1.1,1-1.3,0.8-2.6,1.3c-0.3,0.1-1.6-0.3-1.6-0.3s-2.9,0-4.7,0
				c-1.1,1-4.6,5.8-6.4,6.2c0.2-0.7,4.7-5.3,4.7-5.9c0-1-0.5-2-1.7-2c-2.3,0-6.4,4-8.2,4c-0.6,0,2.5-2.9,2.6-3.5
				c-1.3-0.5-12.9,0.9-14.1,0l15.3-0.8c1.9-0.7,6.6-0.3,7-2.8c-1.7-0.4-4.2,0.1-6.1-0.6c-3.3-1.4-6.3-4-10.4-4c-3.5,0-6.2,0-10.1,0
				c-3.5,0-5.9,1.9-9.2,1.9c-1,0-2.4-0.2-2.4-0.1v1.3h-2.2c-1.5,0-2.6-0.7-4.3-0.7c-2.3,0-4,0.4-5.9,1.3c0.3,0.5,0.9,0.5,1.4,1
				c-0.6,0.1-2.8-0.2-2.8,0.8c0,1.3,2.9,1.7,4,2.8h-3.1c-1.7-1-3.4-2.4-6.3-2.4c-0.7,0-1.7,0.1-1.7,0.9c0,0.6,0.3,0.5,0.6,1.5
				c0,0-0.7,0-1,0c-1.4-1-2.6-0.4-3.3-1.8l-0.7,0.7c0,0.5,0.4,0.9,0.4,1.4c-1.3,0-1.7-2.1-2.9-2.1c-1.9,0-3.3,1.1-5.2,1.6
				c-2.6,0-3.7,0.7-6.5,1c-2.2,0.3-0.3,3.5-2.8,3.5c-0.7,0-1.3-0.1-1.8-0.6c-1.4,1.4-4.5,3.1-6.9,3.8c-0.3,0.1-1.4,0.4-1.4,1
				c0,1.3,4,1.3,5.2,1.4c0,1.7-0.8,3-1.9,3.7c-1.5,0.9-4-0.1-5.9,0.5c-1.3,0.4-2.1,1.2-3.3,1.6c-1.5,0.5-4-0.3-4,1.9
				c0,1.1,6.7,3,7,3c0.9,0,1.3,0,2.4,0c0.3,0,0.6,0,0.7,0h2.8c-0.2,0-0.2,1-0.9,1h-4c-0.3,0-0.6,1-1.3,1c-0.5,0-1,0-1.7,0
				c-0.6,0-1.9,0.1-2.1,1.1c1.3,0.5,0.9-0.2,2.4-0.2c0.8,0,1.7,0.7,2.8,1.1c-0.3,0.6-0.8,0.7-1.4,1.1c0.8,1,3.1,1.6,4.5,1.6
				c0.6,0,0.5,0.2,0.9-0.2c-0.2-0.1-0.5-0.4-0.7-0.6c0.3-0.1,0.6-0.3,1.4-0.3s1.5,1,2.1,1c0.9,0,1.3-0.5,2.2-0.5c0.6,0,0.9,0,2.1,0
				c7.8,0,13.2,5.2,14.2,11.2v1c2.1,0.1,1.9,0.1,1.9,1.2c0,1.6-1.4,1.5-1.4,3c0,1,0.7,1.2,1.9,1.2c0.9,0,1.1-1.2,1.8-1.2
				c2.3,0,2.9,3.3,5.1,4c-0.1,0.4,0,1-0.7,1c-1.7,0-2.7-1-4.2-1c-0.6,0-0.6-0.3-1.2,0c0.3,1.9,5.4,2.3,7.5,3
				c-0.6,1.9-1.9,2.6-2.3,4.7c-1-0.4-1.1-0.3-2.2,0.1v0.1c-2.1,1.1-2.1,2.5-3.1,3.8v1.6c0-0.4,1.3-0.3,1.8,0c-0.2,0.7-0.5,1-0.5,1.7
				c0,1.9,2,2.6,2.4,4c0.2,0.7,0.5,2,0.7,2.3c1.2,0.6,1.6-1.1,2.6,0.2c-0.5,0.5-1,0.4-1,1.3c0,2,2.6,5.1,4,6.3
				c0.2,0.1,0.1,1.1,0.5,1.4c1.1,0.8,1.8,0.3,2.3,1.9c0.8-0.1,2-0.9,2.9-0.9c1.7,0,1.6,3.1,3.3,3.1c0.4,0,0.6-0.4,1.4-0.5
				c0.1,0.4,0.3,0.7,0.8,0.7c1.9,0,1-3.6,2.6-4.4c-0.1-0.8,0-2.6,0-3.8c0-2,3.3-1.3,3.3-3.6c0-0.8-0.8-1.1-0.8-1.6
				c0-0.3,0.3-0.6,0.5-0.8c0-0.2-0.1-0.5-0.1-0.7c0-2.3,4.2-1.7,5.6-3.1c0.6-0.6-0.3-1.3,1.8-1.7v1.7h0.2c1.5-1,3.8-0.8,5.2-2.2
				c1-1,1.1-2.5,2.4-3.5l1.7-1.8c0-0.6,0.7-1.7,1.4-1.7h3.3c2.6-1,4.7-0.4,7.2-1.2c2-0.6,2.7-2.3,5-3.1
				C461.1,132.6,461.8,132.8,462.9,131.9z"/>
			<path class="st3" d="M399.6,135.2h1.5c1.2,0,2.6-0.3,2.8-1.5c-1.8-0.6-2.4-2.5-4.2-2.5c-0.6,0-1.5,0.4-1.5,1.5
				C398.2,133.5,399,135.2,399.6,135.2z"/>
			<path class="st3" d="M470,111.5c-0.2,0-0.7,0.6-0.7,1s0.4,0.5,0.9,0.5c0.7,0,1.9,0.5,2.2-1.6h-1.7L470,111.5L470,111.5z"/>
			<path class="st3" d="M396.9,189.4c0-0.3-0.3-0.7-0.6-0.7c-1.1,0-1.6,1.2-2.1,2.1c-1,1.6-2.3,4.7-4.2,5.7c0.1,0.2,0.1,0.4,0.1,0.4
				v0.4c0,0.1-0.8,1-0.8,1.3c0,0.2,0.6,0.7,0.9,0.7c0.8,0,1.2-0.4,2.3-0.4c0.8,0,1.2,0.5,2.1,0.5c0.5,0,0.9-0.1,1.4-0.3
				c0.3,0.7,1.3,0.3,2,0.3c-0.2,0.4-0.8,0.1-0.8,1.1c0,0,0.3,0,0.4,0c0.8,0,1.5-1.1,2-1.9c0.6,0.6,0.1,1.9,0.7,1.9
				c0.2,0,0.3,0.1,0.6,0.1c0,0.3,0.1,0.8,0.6,0.8c0.7,0,1.1-0.8,1.1-1.7c0-0.7-0.5-0.6-0.5-1.5c-0.4,0.3-0.2,0.4-0.9,0.4
				c0-0.5-0.5-0.8-0.5-1.1s0.6-0.4,0.7-1c-0.3,0-0.6,0.1-0.8,0.2c0-1,0.1-1.7,0.1-2.3c-0.3,0.2-1,0.2-1.8,0l-0.6,0.3v-0.5h-2.1v-0.5
				l0.5-0.3c-0.3-0.3-0.4-0.4-0.8-0.4c-0.5,0-0.7,0.4-0.7,0.6V193C395.2,191.7,396.9,190.9,396.9,189.4z"/>
			<path class="st3" d="M781.4,113.6c0.7,0,1-0.6,1.5-1c0.4,0.4,0.6,0.7,1.3,0.7s1.1-0.6,1.5-0.6c0.6,0,0.8-0.5,1.4-0.5
				c0.5,0,0.8,0.3,1.3,0.3c0.8,0,1.2-1.1,1.7-1.1h1.9c0,0,1-0.9,1.3-1.9c-1.5-0.4-5.6-1.7-6.8-1.7c-0.8,0-1.2,0.9-1.2,2
				c-1.9,0-2-2.2-4.2-2.2c-1.5,0-3.1,1.2-3.1,2.8C777.9,112.2,779.6,113.6,781.4,113.6z"/>
			<path class="st3" d="M346.5,185.9c0.1,0,0.3,1,0.3,0c0,0-1.2-1.2-2.4-1.2c0.1,0.1,0.1,0.3,0,0.5
				C344.9,185.6,345.9,185.9,346.5,185.9z"/>
			<path class="st3" d="M256.2,194.8c1.1,0.7,3.5,2.5,5.1,2.5c0.2,0,0.5,0,0.5,0v-0.5c-1-1.8-3.4-3.5-6.4-4.4
				c-0.5-0.1-1.1-0.8-1.8-0.8c-0.3,0-0.7,0.6-0.9,0.6h0.2c0,0,0.7,0,1,0.1c-0.1,0.2-0.3,0.4-0.7,0.5c0.3,0.8,2.2,1.5,3.6,1.5
				C256.7,194.3,256.3,194.3,256.2,194.8z"/>
			<path class="st3" d="M245.7,185.3c0-0.4-0.3-0.5-0.3-0.8c0-0.7,0.1-1.1,0-1.5c-0.1,0.3-0.4,0.9-0.9,0.9c-0.4,0,0.4-0.8,0.4-0.8
				c-0.6-0.1-0.6-0.5-1.6-0.5v0.6c1,0.4,0.6,1.2,0.9,1.2c0.4,0,0.6,0.8,1.1,0.9c0,0.1-0.3,0.4-0.3,0.8c0,0.6,0.4,1.3,1,1.3
				c0.7,0-0.6-1-0.6-1.3C245.4,185.8,245.7,185.6,245.7,185.3z"/>
			<path class="st3" d="M200.8,173.1v0.8c1,0.3,0.8,0.4,1.4,0.9c1-0.8,1.7-1.3,2.7-2v-0.4c0,0-0.3,0-0.8,0
				C202.9,172.5,201.9,172.8,200.8,173.1z"/>
			<path class="st3" d="M536.6,221.7c-1-0.2-1.7,0.5-2.6,0.5c-1,0-1.3-0.9-3.3-0.2v0.5c0,0.3,1,0.3,1.2,0.3c1.1,0.3,2.1,1.5,3.3,1.8
				c0,0.2,0.4,0.3,0.6,0.3s0.4-0.3,0.4-0.5c0-0.6-0.3-0.6-0.3-1.1c0-0.3,0.4-0.8,0.4-0.8L536.6,221.7z"/>
			<path class="st3" d="M524.8,213.9c0.2-0.4,0.4-1.9,0.6-2.8c-0.2-0.1-0.3-0.4-0.3-0.8c-0.3,0.1-0.6,0.7-1.1,0.7
				c-0.1,0-0.3,0.1-0.5,0.1C523.9,211.8,524.1,213.8,524.8,213.9z"/>
			<path class="st3" d="M523.8,216.8c0,0.5-0.3,0.8-0.4,1.4c0,0.6,0,1.5,0.7,1.5c0.6,0,1.8-1,1.8-1.9c0-1.1,0.2-1.7-0.4-2.8
				c-0.2,0-0.4-0.4-0.9-0.4c-0.6,0-0.7,0.7-1.5,0.9C523.2,215.9,523.8,216.2,523.8,216.8z"/>
			<path class="st3" d="M513.4,218.3c0-0.2-0.3-0.6-0.3-0.8c-0.4,0.1-0.7,0.3-1.1,0.5c0.1,0.1,0.6,0.6,0.9,0.6
				C513,218.7,513.4,218.5,513.4,218.3z"/>
			<path class="st3" d="M527.9,179c0-0.7-0.3-1.4-0.3-1.4h-1.1c0,0,0,0.4,0,0.6c0,0.7,0,0.9,1,0.9c0,0.2,0,0.3,0,0.6
				C527.5,179.4,527.9,179.5,527.9,179z"/>
			<path class="st3" d="M528.9,179.6l-0.1-0.3c-0.1,0.1-0.3,0.2-0.3,0.4c0.1,0.1,0.5,0.4,1,0.4c1.5,0,1-2.4,2.2-2.8
				c-0.3-1.2-0.4-1.8-1.8-1.8c-0.5,0-1.3,1.8-1.3,2.1c0,0.4,0.8,1,1.5,1.1C529.9,179.1,529.4,179.6,528.9,179.6z"/>
			<path class="st3" d="M543.9,170.5c-1.2,0.1-1.6,1.3-1.6,1.7c0,0.3-0.2,0.6,0,0.9c0.5-0.6,1-1,1-1.7
				C543.3,171,543.7,170.7,543.9,170.5z"/>
			<path class="st3" d="M549.6,170.1c0.3,0,0.6-0.5,0.6-0.7c0-0.3,0-0.6,0-0.8c0-0.1,1-0.6,1.1-0.9c-0.3-0.1-0.2-0.3-0.5-0.7
				c0,0-0.5,0.4-0.5,0.7c0,0.4,0.3,0.6,0.6,0.8c-0.6,0.1-1.2,0.5-1.8,0.6C549.2,169.5,549,170.1,549.6,170.1z"/>
			<path class="st3" d="M558.1,228.4c-1.2-0.3-2.8-0.7-4.4-0.4c0.8,0.4,2.1,0.6,2.6,0.6C556.9,228.5,557.2,228.9,558.1,228.4z"/>
			<path class="st3" d="M574.6,227.1c-1.2,0.2-3,0.9-4,1.4c0,0.1,0.2,0.3,0.4,0.3c0,0.2,0.3,0.4,0.5,0.4c0.6,0,1.9-0.4,2.2-0.8
				c0.1-0.2-0.1-0.6,0.1-0.7C574.1,227.6,574.4,227.8,574.6,227.1z"/>
			<path class="st3" d="M612.5,277c0.6,0,1.1-0.6,1.3-0.8c-0.9,0-1.4,0.1-2,0.3C611.8,276.9,612.3,277,612.5,277z"/>
			<path class="st3" d="M602,134.3c-0.1,0-0.9,1.3-0.9,1.6c0,0.7,0.3,0.8,1.2,0.8c1.2,0,1.8-0.7,2.8-1.2v-0.9c-1-0.1-1.4-1-2.4-1
				C602.4,133.6,602.3,134.3,602,134.3z"/>
			<path class="st3" d="M621.9,131.4c0,0.8,1.5,1.7,2.4,1.7c0,0,0.9,0.1,0.9-0.3C625.3,131.4,621.9,130,621.9,131.4z"/>
			<path class="st3" d="M647.3,120.2c-0.7-0.6-1-1.3-1.8-1.3c-0.6,0-1.1,0.8-1.1,1.4c0,0.2,0,0.7,0,0.7
				C645.4,120.9,647,120.5,647.3,120.2z"/>
			<path class="st3" d="M788.5,119.7h2.1c-0.1-1-1.5-2.9-3.3-2.9c-1.6,0-2.5,0.9-3.3,2l0.3-0.3C785.6,119.1,787.2,119.7,788.5,119.7
				z"/>
			<path class="st3" d="M802.2,113.4c1.1,0,3.1-0.3,3.1-1c0-0.3-0.3-0.7-0.7-0.7c-0.3,0-7.6-0.9-8.2-1.4l0.7,0.6
				C797.2,112.6,800.4,113.4,802.2,113.4z"/>
			<path class="st3" d="M785.7,115.9c0-1-1.9-1.1-1.9,0c0,0.6,0.1,0.9,0.8,0.9C785.1,116.8,785.7,116.4,785.7,115.9z"/>
			<path class="st3" d="M384.4,195c-1.5-0.8-2.8-2.2-4.9-1.7c0.8,0.6,2.8,2.1,4,2.1C384,195.4,384.2,195.4,384.4,195z"/>
			<path class="st3" d="M380.1,201.1c-0.1,0.1-0.3,0.2-0.3,0.4c0,0.5,2.6,1.7,3.1,1.7c0.1,0,0.9-0.4,0.9-0.8c0-0.1,0,0.1,0,0.1h-2.2
				C380.9,202.4,380.5,201.8,380.1,201.1z"/>
			<path class="st3" d="M388,203.1c0-0.1,0-0.3,0-0.5c-1,0-0.5-0.4-0.5-1c0-0.3-0.3-0.4-0.4-0.7c-0.6,0.2-1.6,1.9-1.6,2.4
				c0,0.4,0.4,0.8,1,0.8C387.3,204,388,203.6,388,203.1z"/>
			<path class="st3" d="M178.1,164.9c-0.6,0-0.8-0.7-1,0.3h-1c0.1,0,0.6,0,0.8,1h2.3C179,165.2,178.9,164.9,178.1,164.9z"/>
		</g>
	</g>
</g>
<ellipse transform="matrix(0.9893 -0.1462 0.1462 0.9893 -17.6296 56.7108)" class="st2" cx="377" cy="148.3" rx="33.6" ry="33.6"/>
<ellipse class="st4" cx="377" cy="148.3" rx="26.9" ry="26.9"/>
<ellipse transform="matrix(0.9985 -5.530787e-02 5.530787e-02 0.9985 -7.4483 27.4386)" class="st2" cx="492" cy="148.3" rx="33.6" ry="33.6"/>
<ellipse transform="matrix(0.1735 -0.9848 0.9848 0.1735 260.5858 607.1075)" class="st4" cx="492" cy="148.3" rx="26.9" ry="26.9"/>
<ellipse transform="matrix(0.9506 -0.3103 0.3103 0.9506 -16.0601 195.6735)" class="st5" cx="607" cy="148.3" rx="26.7" ry="26.7"/>
<path class="st6" d="M638.2,135.9c-6.9-17.2-26.4-25.6-43.7-18.7c-17.2,6.9-25.6,26.4-18.7,43.7c6.9,17.2,26.4,25.6,43.7,18.7
	C636.7,172.6,645.1,153.1,638.2,135.9z M615.3,173.7c-14,4.6-29.1-3.1-33.7-17.1s3.1-29.1,17.1-33.7s29.1,3.1,33.7,17.1
	C636.9,154,629.3,169.1,615.3,173.7z"/>
<line class="st7" x1="0.1" y1="147.5" x2="343.3" y2="147.5"/>
<rect x="640.7" y="146.4" class="st2" width="458" height="2"/>
<rect x="640.7" y="146.5" class="st2" width="41.9" height="2"/>
<path class="st2" d="M679.6,153.4v-11.8l8.5,5.9L679.6,153.4z"/>
<rect x="525.6" y="146.5" class="st2" width="41.9" height="2"/>
<path class="st2" d="M564.5,153.4v-11.8l8.5,5.9L564.5,153.4z"/>
<rect x="410.5" y="146.5" class="st2" width="41.9" height="2"/>
<path class="st2" d="M449.3,153.4v-11.8l8.5,5.9L449.3,153.4z"/>
<line class="st7" x1="431.7" y1="147.7" x2="431.7" y2="52.3"/>
<path class="st2" d="M431.7,61.8c6.9,0,12.5-5.6,12.5-12.5s-5.6-12.5-12.5-12.5s-12.5,5.6-12.5,12.5S424.8,61.8,431.7,61.8z"/>
<text transform="matrix(1 0 0 1 422.1436 51.7306)" class="st8 st9 st10">2000</text>
<line class="st7" x1="321.4" y1="147.7" x2="321.4" y2="52.3"/>
<path class="st2" d="M321.4,61.8c6.9,0,12.5-5.6,12.5-12.5s-5.6-12.5-12.5-12.5s-12.5,5.6-12.5,12.5S314.5,61.8,321.4,61.8z"/>
<text transform="matrix(1 0 0 1 311.8888 51.7306)" class="st8 st9 st10">1999</text>
<ellipse transform="matrix(0.331 -0.9436 0.9436 0.331 343.2692 780.7353)" class="st2" cx="722.3" cy="148.3" rx="33.6" ry="33.6"/>
<ellipse transform="matrix(0.9497 -0.313 0.313 0.9497 -10.1336 233.5013)" class="st4" cx="722.2" cy="148.3" rx="26.7" ry="26.7"/>
<text transform="matrix(1 0 0 1 351.0367 151.0014)" class="st2 st9 st11">Res</text>
<text transform="matrix(1 0 0 1 368.8367 151.0014)" class="st2 st9 st11"> </text>
<text transform="matrix(1 0 0 1 368.8367 151.0014)" class="st2 st9 st11">292/99</text>
<text transform="matrix(1 0 0 1 466.646 151.0014)" class="st2 st9 st11">Res</text>
<text transform="matrix(1 0 0 1 484.446 151.0014)" class="st2 st9 st11"> </text>
<text transform="matrix(1 0 0 1 484.446 151.0014)" class="st2 st9 st11">301/00</text>
<text transform="matrix(1 0 0 1 581.2553 151.0014)" class="st2 st9 st11">Res</text>
<text transform="matrix(1 0 0 1 599.0552 151.0014)" class="st2 st9 st11"> </text>
<text transform="matrix(1 0 0 1 599.0552 151.0014)" class="st2 st9 st11">303/00</text>
<text transform="matrix(1 0 0 1 695.8646 151.0014)" class="st2 st9 st11">Res</text>
<text transform="matrix(1 0 0 1 713.6646 151.0014)" class="st2 st9 st11"> </text>
<text transform="matrix(1 0 0 1 713.6646 151.0014)" class="st2 st9 st11">304/00</text>
</svg>
