<?xml version="1.0" encoding="utf-8"?>
<!-- Generator: Adobe Illustrator 22.0.1, SVG Export Plug-In . SVG Version: 6.00 Build 0)  -->
<svg version="1.1" id="Camada_1" xmlns="http://www.w3.org/2000/svg" xmlns:xlink="http://www.w3.org/1999/xlink" x="0px" y="0px"
	 viewBox="0 0 500 148.2" style="enable-background:new 0 0 500 148.2;" xml:space="preserve">
<style type="text/css">
	.st0{fill:url(#SVGID_1_);}
	.st1{fill:#FFFFFF;stroke:url(#SVGID_2_);stroke-width:5;stroke-miterlimit:10;}
	.st2{fill:#FFFFFF;}
	.st3{fill:#BDBDFA;}
	.st4{fill:url(#SVGID_3_);}
	.st5{font-family:'Open Sans';}
	.st6{font-size:31.654px;}
</style>
<g>
	
		<linearGradient id="SVGID_1_" gradientUnits="userSpaceOnUse" x1="495.1" y1="72.25" x2="74.9" y2="72.25" gradientTransform="matrix(1 0 0 -1 0 150)">
		<stop  offset="0" style="stop-color:#9895EF"/>
		<stop  offset="1" style="stop-color:#7F79C2"/>
	</linearGradient>
	<rect x="74.9" y="37" class="st0" width="420.2" height="81.5"/>
	
		<linearGradient id="SVGID_2_" gradientUnits="userSpaceOnUse" x1="117.8" y1="75.2" x2="2.4" y2="75.2" gradientTransform="matrix(1 0 0 -1 0 150)">
		<stop  offset="0" style="stop-color:#9895EF"/>
		<stop  offset="1" style="stop-color:#7F79C2"/>
	</linearGradient>
	<circle class="st1" cx="60.1" cy="74.8" r="55.2"/>
	<polygon class="st2" points="482.9,77.3 468.3,66.4 468.3,88.1 	"/>
</g>
<g>
	<path class="st3" d="M63.3,98.4C71.7,82.8,90,62.1,90,38.2c0-8-2-13.4-6.1-15.8l0,0l0,0c-0.2-0.1-0.5-0.3-0.8-0.4l-12.2-6.5
		c-0.2-0.1-0.5-0.3-0.8-0.4l0,0l0,0C66.5,13.3,61,13.8,54,17c-15.2,6.9-23.1,19.5-23.1,35.3v9.6l12.9,6.9L54,64.2
		c-9,16.4-23.1,31.3-23.1,50.9v12.1l12.9,6.9l44.8-20.3v-14l-12.9-6.9L63.3,98.4z"/>
	<g>
		<g>
			<path class="st2" d="M66.6,38.2c-4.9,2.2-8,6.3-8,13.4v10.6l-14.7,6.6v-9.6c0-15.8,7.9-28.4,23.1-35.3s23.1-1.4,23.1,14.3
				c0,13.1-4.8,25.8-19.2,47.7c-9.2,14-11.7,19.8-11.7,25c0,0.7,0,1.4,0.1,2l29.3-13.3v14.1L43.8,134v-12c0-11,3.9-21.1,15.5-38.4
				c11.8-17.9,15.2-27.2,15.2-37.7C74.6,36.9,71.5,35.9,66.6,38.2z"/>
		</g>
		<g>
			
				<linearGradient id="SVGID_3_" gradientUnits="userSpaceOnUse" x1="-213.6543" y1="-80.442" x2="-167.4444" y2="-80.442" gradientTransform="matrix(1 0 0 -1 257.5265 -2.9564)">
				<stop  offset="0" style="stop-color:#9895EF"/>
				<stop  offset="1" style="stop-color:#7F79C2"/>
			</linearGradient>
			<path class="st4" d="M66.6,38.2c-4.9,2.2-8,6.3-8,13.4v10.6l-14.7,6.6v-9.6c0-15.8,7.9-28.4,23.1-35.3s23.1-1.4,23.1,14.3
				c0,13.1-4.8,25.8-19.2,47.7c-9.2,14-11.7,19.8-11.7,25c0,0.7,0,1.4,0.1,2l29.3-13.3v14.1L43.8,134v-12c0-11,3.9-21.1,15.5-38.4
				c11.8-17.9,15.2-27.2,15.2-37.7C74.6,36.9,71.5,35.9,66.6,38.2z"/>
		</g>
	</g>
</g>
<text transform="matrix(1 0 0 1 190.001 88.7)" class="st2 st5 st6">Segundo estágio</text>
</svg>
