<?xml version="1.0" encoding="utf-8"?>
<!-- Generator: Adobe Illustrator 22.0.1, SVG Export Plug-In . SVG Version: 6.00 Build 0)  -->
<svg version="1.1" id="Camada_1" xmlns="http://www.w3.org/2000/svg" xmlns:xlink="http://www.w3.org/1999/xlink" x="0px" y="0px"
	 viewBox="0 0 475.8 170" style="enable-background:new 0 0 475.8 170;" xml:space="preserve">
<style type="text/css">
	.st0{fill:none;stroke:#FDCE22;stroke-miterlimit:10;}
	.st1{fill:none;stroke:#00ADB6;stroke-miterlimit:10;}
	.st2{fill:#FDCE22;}
	.st3{fill:#00ADB6;}
	.st4{font-family:'Open Sans';}
	.st5{font-size:9px;}
	.st6{enable-background:new    ;}
	.st7{fill:#FFFFFF;}
	.st8{fill:none;stroke:#606060;stroke-width:1.5;stroke-miterlimit:10;}
	.st9{fill:#606060;}
</style>
<path class="st0" d="M281.5,69.6h-81.2c-3.3,0-6-2.7-6-6V35c0-3.3,2.7-6,6-6h81.2c3.3,0,6,2.7,6,6v28.7
	C287.5,66.9,284.8,69.6,281.5,69.6z"/>
<path class="st1" d="M220.5,142.2h-81.2c-3.3,0-6-2.7-6-6v-28.7c0-3.3,2.7-6,6-6h81.2c3.3,0,6,2.7,6,6v28.7
	C226.5,139.5,223.8,142.2,220.5,142.2z"/>
<path class="st1" d="M102.9,142.2H21.7c-3.3,0-6-2.7-6-6v-28.7c0-3.3,2.7-6,6-6h81.2c3.3,0,6,2.7,6,6v28.7
	C108.9,139.5,106.2,142.2,102.9,142.2z"/>
<path class="st2" d="M278.5,66.6h-81.2c-3.3,0-6-2.7-6-6V32c0-3.3,2.7-6,6-6h81.2c3.3,0,6,2.7,6,6v28.7
	C284.5,63.9,281.8,66.6,278.5,66.6z"/>
<path class="st3" d="M99.9,139.2H18.7c-3.3,0-6-2.7-6-6v-28.7c0-3.3,2.7-6,6-6h81.2c3.3,0,6,2.7,6,6v28.7
	C105.9,136.5,103.2,139.2,99.9,139.2z"/>
<path class="st3" d="M217.5,139.2h-81.2c-3.3,0-6-2.7-6-6v-28.7c0-3.3,2.7-6,6-6h81.2c3.3,0,6,2.7,6,6v28.7
	C223.5,136.5,220.8,139.2,217.5,139.2z"/>
<text transform="matrix(1 0 0 1 225.0834 50.7088)" class="st4 st5">DDCM</text>
<text transform="matrix(1 0 0 1 41.7369 110.9088)" class="st6"><tspan x="0" y="0" class="st7 st4 st5">Plano de</tspan><tspan x="-18.2" y="10.8" class="st7 st4 st5">Desenvolvimento</tspan><tspan x="-17.4" y="21.6" class="st7 st4 st5">do medicamento</tspan></text>
<text transform="matrix(1 0 0 1 151.9291 116.9088)" class="st6"><tspan x="0" y="0" class="st7 st4 st5">Brochura do</tspan><tspan x="0.2" y="10.8" class="st7 st4 st5">Investigador</tspan></text>
<path class="st1" d="M458.7,142.2h-81.2c-3.3,0-6-2.7-6-6v-28.7c0-3.3,2.7-6,6-6h81.2c3.3,0,6,2.7,6,6v28.7
	C464.7,139.5,462,142.2,458.7,142.2z"/>
<path class="st1" d="M341.1,142.2h-81.2c-3.3,0-6-2.7-6-6v-28.7c0-3.3,2.7-6,6-6h81.2c3.3,0,6,2.7,6,6v28.7
	C347.1,139.5,344.4,142.2,341.1,142.2z"/>
<path class="st3" d="M338.1,139.2h-81.2c-3.3,0-6-2.7-6-6v-28.7c0-3.3,2.7-6,6-6h81.2c3.3,0,6,2.7,6,6v28.7
	C344.1,136.5,341.4,139.2,338.1,139.2z"/>
<path class="st3" d="M455.7,139.2h-81.2c-3.3,0-6-2.7-6-6v-28.7c0-3.3,2.7-6,6-6h81.2c3.3,0,6,2.7,6,6v28.7
	C461.7,136.5,459,139.2,455.7,139.2z"/>
<text transform="matrix(1 0 0 1 278.6186 111.9088)" class="st6"><tspan x="0" y="0" class="st7 st4 st5">Dossiê do</tspan><tspan x="-8.3" y="10.8" class="st7 st4 st5">Medicamento</tspan><tspan x="-7.2" y="21.6" class="st7 st4 st5">Experimental</tspan></text>
<text transform="matrix(1 0 0 1 379.3908 116.9088)" class="st6"><tspan x="0" y="0" class="st7 st4 st5">Dossiê Específico</tspan><tspan x="0.4" y="10.8" class="st7 st4 st5">do Ensaio Clínico</tspan></text>
<line class="st8" x1="414.3" y1="80.3" x2="59.3" y2="80.3"/>
<line class="st8" x1="59.8" y1="79.8" x2="59.8" y2="95.8"/>
<polygon class="st9" points="59.8,98.6 62.8,93.4 56.8,93.4 "/>
<line class="st8" x1="178.8" y1="79.8" x2="178.8" y2="95.8"/>
<polygon class="st9" points="178.8,98.6 181.8,93.4 175.8,93.4 "/>
<line class="st8" x1="299.8" y1="79.8" x2="299.8" y2="95.8"/>
<line class="st8" x1="238.8" y1="70.8" x2="238.8" y2="79.8"/>
<polygon class="st9" points="299.8,98.6 302.8,93.4 296.8,93.4 "/>
<line class="st8" x1="413.8" y1="79.8" x2="413.8" y2="95.8"/>
<polygon class="st9" points="413.8,98.6 416.8,93.4 410.8,93.4 "/>
</svg>
