<?xml version="1.0" encoding="utf-8"?>
<!-- Generator: Adobe Illustrator 22.0.1, SVG Export Plug-In . SVG Version: 6.00 Build 0)  -->
<svg version="1.0" id="Camada_1" xmlns="http://www.w3.org/2000/svg" xmlns:xlink="http://www.w3.org/1999/xlink" x="0px" y="0px"
	 viewBox="0 0 778.3 587" style="enable-background:new 0 0 778.3 587;" xml:space="preserve">
<style type="text/css">
	.st0{fill:#2C4E7E;}
	.st1{clip-path:url(#SVGID_2_);}
	.st2{fill:#EFCB4B;}
	.st3{fill:#C85044;}
	.st4{fill:#D8D8D8;}
	.st5{fill:#FFFFFD;}
	.st6{opacity:0.5;}
	.st7{clip-path:url(#SVGID_4_);}
	.st8{fill:none;stroke:#FFFFFF;stroke-width:4;stroke-miterlimit:10;}
	.st9{fill:#D6DFE6;}
</style>
<g>
	
		<ellipse transform="matrix(0.7071 -0.7071 0.7071 0.7071 -428.4002 665.4631)" class="st0" cx="589.1" cy="849.9" rx="192.9" ry="192.9"/>
	<g>
		<defs>
			<circle id="SVGID_1_" cx="350.6" cy="849.5" r="192.6"/>
		</defs>
		<clipPath id="SVGID_2_">
			<use xlink:href="#SVGID_1_"  style="overflow:visible;"/>
		</clipPath>
		<g class="st1">
			<g>
				<g>
					
						<rect x="-326.4" y="618.1" transform="matrix(0.7606 -0.6493 0.6493 0.7606 -328.1628 356.2155)" class="st2" width="1290.6" height="9.8"/>
				</g>
				<g>
					
						<rect x="-306.3" y="640.3" transform="matrix(0.7606 -0.6493 0.6493 0.7606 -337.748 374.5917)" class="st2" width="1290.6" height="9.8"/>
				</g>
				<g>
					
						<rect x="-286.2" y="662.5" transform="matrix(0.7606 -0.6493 0.6493 0.7606 -347.3312 392.9698)" class="st2" width="1290.6" height="9.8"/>
				</g>
				<g>
					
						<rect x="-266" y="684.7" transform="matrix(0.7606 -0.6493 0.6493 0.7606 -356.9149 411.3439)" class="st2" width="1290.6" height="9.8"/>
				</g>
				<g>
					
						<rect x="-245.9" y="706.9" transform="matrix(0.7606 -0.6493 0.6493 0.7606 -366.4987 429.7202)" class="st2" width="1290.6" height="9.8"/>
				</g>
				<g>
					
						<rect x="-225.8" y="729" transform="matrix(0.7606 -0.6493 0.6493 0.7606 -376.0809 448.0958)" class="st2" width="1290.6" height="9.8"/>
				</g>
				<g>
					
						<rect x="-205.7" y="751.2" transform="matrix(0.7606 -0.6493 0.6493 0.7606 -385.6653 466.4706)" class="st2" width="1290.6" height="9.8"/>
				</g>
				<g>
					
						<rect x="-185.5" y="773.4" transform="matrix(0.7606 -0.6493 0.6493 0.7606 -395.2468 484.8454)" class="st2" width="1290.6" height="9.8"/>
				</g>
				<g>
					
						<rect x="-165.4" y="795.6" transform="matrix(0.7606 -0.6493 0.6493 0.7606 -404.8321 503.2227)" class="st2" width="1290.6" height="9.8"/>
				</g>
				<g>
					
						<rect x="-145.3" y="817.8" transform="matrix(0.7606 -0.6493 0.6493 0.7606 -414.4166 521.5972)" class="st2" width="1290.6" height="9.8"/>
				</g>
				<g>
					
						<rect x="-125.2" y="839.9" transform="matrix(0.7606 -0.6493 0.6493 0.7606 -423.9998 539.9749)" class="st2" width="1290.6" height="9.8"/>
				</g>
				<g>
					
						<rect x="-105.1" y="862.1" transform="matrix(0.7606 -0.6493 0.6493 0.7606 -433.5834 558.3494)" class="st2" width="1290.6" height="9.8"/>
				</g>
				<g>
					
						<rect x="-84.9" y="884.3" transform="matrix(0.7606 -0.6493 0.6493 0.7606 -443.1667 576.7271)" class="st2" width="1290.6" height="9.8"/>
				</g>
				<g>
					
						<rect x="-64.8" y="906.5" transform="matrix(0.7606 -0.6493 0.6493 0.7606 -452.7494 595.1012)" class="st2" width="1290.6" height="9.8"/>
				</g>
			</g>
		</g>
	</g>
</g>
<g>
	<g>
		<path class="st3" d="M2.4-131.7c-5.2,0-9.5-4.2-9.5-9.4c0-5.3,4.2-9.5,9.4-9.6c3,0,6.1-0.1,9.1-0.3c4.9-0.4,9.7,3.8,9.9,9
			c0.3,5.2-3.8,9.7-9,9.9C9-131.8,5.8-131.7,2.4-131.7C2.4-131.7,2.4-131.7,2.4-131.7z M-35.3-134.2c-0.4,0-0.9,0-1.3-0.1
			c-3.2-0.5-6.5-1-9.7-1.6c-5.2-0.9-8.6-5.9-7.7-11c0.9-5.2,5.9-8.6,11-7.7c3,0.5,6,1,9,1.4c5.2,0.7,8.8,5.6,8.1,10.7
			C-26.6-137.6-30.6-134.2-35.3-134.2z M49.3-136.6c-4.4,0-8.4-3.1-9.3-7.6c-1-5.1,2.3-10.2,7.4-11.2c3-0.6,5.9-1.3,8.9-2
			c5.1-1.3,10.2,1.9,11.5,7c1.2,5.1-1.9,10.2-7,11.5c-3.2,0.8-6.4,1.5-9.6,2.1C50.6-136.7,50-136.6,49.3-136.6z M-81.2-145.2
			c-1,0-2.1-0.2-3.1-0.5c-3.1-1.1-6.2-2.2-9.3-3.4c-4.9-1.9-7.3-7.4-5.4-12.3c1.9-4.9,7.4-7.3,12.3-5.4c2.8,1.1,5.7,2.1,8.5,3.1
			c5,1.7,7.6,7.1,5.9,12.1C-73.5-147.7-77.2-145.2-81.2-145.2z M94.5-150.4c-3.7,0-7.3-2.2-8.8-5.9c-2-4.9,0.3-10.4,5.1-12.4
			c2.8-1.2,5.6-2.4,8.3-3.6c4.8-2.2,10.4-0.1,12.6,4.7c2.2,4.8,0.1,10.4-4.7,12.6c-3,1.4-5.9,2.7-9,3.9
			C96.9-150.6,95.7-150.4,94.5-150.4z M-124.2-164.8c-1.6,0-3.2-0.4-4.7-1.3c-2.8-1.6-5.6-3.3-8.4-5.1c-4.4-2.8-5.8-8.6-3-13.1
			c2.8-4.5,8.6-5.8,13.1-3c2.6,1.6,5.2,3.2,7.8,4.7c4.5,2.6,6.1,8.4,3.5,13C-117.7-166.5-120.9-164.8-124.2-164.8z M136.1-172.4
			c-3.1,0-6.1-1.5-7.9-4.3c-2.9-4.4-1.7-10.3,2.7-13.2c2.5-1.7,5-3.4,7.5-5.1c4.3-3.1,10.2-2.1,13.2,2.2c3.1,4.3,2.1,10.2-2.2,13.2
			c-2.7,1.9-5.4,3.7-8.1,5.5C139.7-172.9,137.9-172.4,136.1-172.4z M-162.6-192.2c-2.2,0-4.4-0.8-6.2-2.3c-2.5-2.1-4.9-4.3-7.3-6.6
			c-3.8-3.6-4-9.6-0.4-13.4c3.6-3.8,9.6-4,13.4-0.4c2.2,2.1,4.5,4.1,6.7,6.1c4,3.4,4.4,9.4,1,13.4
			C-157.3-193.3-160-192.2-162.6-192.2z M172.9-202c-2.5,0-5-1-6.8-2.9c-3.7-3.8-3.6-9.8,0.2-13.4c2.2-2.1,4.3-4.3,6.4-6.4
			c3.6-3.8,9.6-3.9,13.4-0.3c3.8,3.6,4,9.6,0.3,13.4c-2.3,2.4-4.6,4.7-6.9,7C177.7-202.9,175.3-202,172.9-202z M-195.2-226.3
			c-2.8,0-5.6-1.2-7.5-3.6c-2-2.6-4-5.2-5.9-7.8c-3.1-4.2-2.2-10.2,2.1-13.3s10.2-2.2,13.3,2.1c1.8,2.4,3.6,4.9,5.5,7.2
			c3.2,4.1,2.5,10.1-1.6,13.4C-191.1-226.9-193.2-226.3-195.2-226.3z M203.5-237.9c-1.9,0-3.8-0.6-5.4-1.7c-4.3-3-5.3-8.9-2.3-13.2
			c1.7-2.5,3.4-5,5.1-7.6c2.8-4.4,8.7-5.7,13.1-2.8c4.4,2.8,5.7,8.7,2.8,13.1c-1.8,2.8-3.6,5.5-5.5,8.2
			C209.4-239.4,206.5-237.9,203.5-237.9z M-220.8-265.9c-3.4,0-6.7-1.9-8.4-5.1c-1.5-2.9-3-5.8-4.3-8.8c-2.2-4.7-0.2-10.4,4.6-12.6
			c4.8-2.2,10.4-0.2,12.6,4.6c1.3,2.7,2.6,5.4,4,8.1c2.4,4.6,0.6,10.4-4.1,12.8C-217.8-266.2-219.3-265.9-220.8-265.9z M226.7-279
			c-1.3,0-2.6-0.3-3.9-0.8c-4.8-2.1-6.9-7.7-4.8-12.5c1.2-2.8,2.4-5.6,3.5-8.4c2-4.9,7.5-7.2,12.4-5.3c4.9,2,7.2,7.5,5.3,12.4
			c-1.2,3.1-2.5,6.1-3.8,9.1C233.8-281.1,230.4-279,226.7-279z M-238.5-309.6c-4.1,0-7.9-2.7-9.1-6.8c-0.9-3.1-1.8-6.3-2.6-9.5
			c-1.3-5.1,1.8-10.3,6.9-11.6c5.1-1.3,10.3,1.8,11.6,6.9c0.8,3,1.6,5.9,2.4,8.8c1.5,5-1.4,10.3-6.4,11.8
			C-236.7-309.8-237.6-309.6-238.5-309.6z M241.8-323.8c-0.7,0-1.4-0.1-2.2-0.3c-5.1-1.2-8.3-6.3-7.1-11.4c0.7-2.9,1.3-5.9,1.9-8.9
			c1-5.2,6-8.5,11.1-7.6c5.2,1,8.5,6,7.6,11.1c-0.6,3.2-1.3,6.4-2,9.6C250-326.8,246.1-323.8,241.8-323.8z M-247.4-356
			c-4.8,0-9-3.7-9.4-8.6c-0.3-3.2-0.6-6.5-0.8-9.8c-0.3-5.2,3.7-9.7,8.9-10c5.2-0.2,9.7,3.7,10,8.9c0.2,3,0.4,6.1,0.7,9.1
			c0.5,5.2-3.3,9.9-8.6,10.4C-246.8-356-247.1-356-247.4-356z M248-370.6c-0.1,0-0.3,0-0.4,0c-5.2-0.2-9.3-4.6-9.1-9.9
			c0.1-3,0.2-6,0.2-9.1l0-1c0-5.3,4.2-9.5,9.5-9.5c5.3,0,9.5,4.2,9.5,9.5l0,0.7c0,3.6-0.1,6.8-0.2,10.1
			C257.3-374.6,253.1-370.6,248-370.6z M-247.5-403.2c-0.3,0-0.6,0-0.9,0c-5.2-0.5-9.1-5.1-8.6-10.3c0.3-3.3,0.7-6.5,1.1-9.8
			c0.7-5.2,5.4-8.9,10.7-8.2c5.2,0.7,8.9,5.5,8.2,10.7c-0.4,3-0.7,6-1,9C-238.5-406.9-242.6-403.2-247.5-403.2z M245.2-418.7
			c-4.6,0-8.6-3.3-9.4-8c-0.5-3-1-6-1.6-9c-1-5.1,2.3-10.1,7.5-11.2c5.2-1,10.1,2.4,11.2,7.5c0.6,3.2,1.2,6.4,1.7,9.7
			c0.8,5.2-2.7,10-7.9,10.9C246.1-418.7,245.6-418.7,245.2-418.7z M-238.7-449.5c-0.9,0-1.8-0.1-2.7-0.4c-5-1.5-7.9-6.7-6.5-11.8
			c0.9-3.1,1.9-6.3,2.9-9.4c1.7-5,7-7.6,12-6c5,1.7,7.7,7,6,12c-1,2.9-1.9,5.8-2.7,8.7C-230.8-452.2-234.6-449.5-238.7-449.5z
			 M233.5-464.4c-3.9,0-7.5-2.4-8.9-6.2c-1-2.9-2.1-5.7-3.3-8.5c-2-4.9,0.4-10.4,5.2-12.4c4.9-2,10.4,0.4,12.4,5.2
			c1.2,3,2.4,6.1,3.5,9.1c1.8,4.9-0.7,10.4-5.7,12.2C235.6-464.6,234.5-464.4,233.5-464.4z M-221.3-493.4c-1.5,0-3-0.3-4.3-1.1
			c-4.7-2.4-6.5-8.1-4.1-12.8c1.5-2.9,3.1-5.8,4.7-8.7c2.6-4.6,8.3-6.2,12.9-3.6c4.6,2.6,6.2,8.4,3.6,12.9c-1.5,2.6-2.9,5.3-4.3,8
			C-214.5-495.3-217.8-493.4-221.3-493.4z M213.3-507c-3.2,0-6.4-1.7-8.2-4.6c-1.5-2.6-3.1-5.2-4.8-7.7c-2.9-4.4-1.6-10.3,2.8-13.1
			c4.4-2.9,10.3-1.6,13.1,2.8c1.8,2.7,3.5,5.5,5.2,8.3c2.7,4.5,1.2,10.3-3.3,13C216.6-507.5,214.9-507,213.3-507z M-195.8-533.1
			c-2,0-4.1-0.7-5.9-2c-4.1-3.2-4.9-9.2-1.6-13.3c2-2.6,4.1-5.1,6.2-7.6c3.4-4,9.4-4.5,13.4-1.1c4,3.4,4.5,9.4,1.1,13.4
			c-2,2.3-3.9,4.7-5.8,7.1C-190.2-534.4-193-533.1-195.8-533.1z M185.4-545.1c-2.6,0-5.2-1.1-7.1-3.2c-2-2.3-4.1-4.5-6.2-6.7
			c-3.6-3.8-3.5-9.8,0.3-13.4c3.8-3.6,9.8-3.5,13.4,0.3c2.3,2.4,4.5,4.8,6.7,7.2c3.5,3.9,3.1,9.9-0.8,13.4
			C189.9-545.9,187.6-545.1,185.4-545.1z M-163.3-567.4c-2.6,0-5.3-1.1-7.2-3.3c-3.5-4-3-10,0.9-13.4c2.5-2.1,5-4.2,7.5-6.3
			c4.1-3.3,10.1-2.7,13.4,1.4c3.3,4.1,2.7,10.1-1.4,13.4c-2.4,1.9-4.7,3.9-7,5.8C-158.9-568.1-161.1-567.4-163.3-567.4z
			 M150.8-577.2c-2,0-4-0.6-5.8-2c-2.4-1.8-4.9-3.7-7.3-5.4c-4.3-3-5.3-9-2.2-13.2c3-4.3,9-5.3,13.2-2.2c2.7,1.9,5.3,3.8,7.9,5.8
			c4.2,3.2,5,9.2,1.8,13.3C156.5-578.5,153.7-577.2,150.8-577.2z M-125-594.9c-3.3,0-6.5-1.7-8.2-4.7c-2.6-4.5-1.1-10.4,3.5-13
			c2.8-1.6,5.7-3.2,8.5-4.8c4.7-2.5,10.4-0.7,12.9,3.9c2.5,4.6,0.7,10.4-3.9,12.9c-2.7,1.4-5.3,2.9-8,4.4
			C-121.7-595.3-123.3-594.9-125-594.9z M110.8-602.3c-1.4,0-2.8-0.3-4.2-1c-2.7-1.4-5.5-2.7-8.3-3.9c-4.8-2.2-6.9-7.8-4.7-12.6
			c2.2-4.8,7.8-6.9,12.6-4.7c3,1.3,5.9,2.8,8.8,4.2c4.7,2.3,6.6,8,4.3,12.7C117.7-604.2,114.3-602.3,110.8-602.3z M-82.1-614.6
			c-3.9,0-7.6-2.5-9-6.4c-1.7-5,0.9-10.4,5.8-12.1c3.1-1.1,6.2-2.1,9.3-3.1c5-1.6,10.3,1.3,11.9,6.3c1.5,5-1.3,10.3-6.3,11.9
			c-2.9,0.9-5.8,1.8-8.6,2.8C-80-614.8-81.1-614.6-82.1-614.6z M66.8-619.3c-0.9,0-1.7-0.1-2.6-0.4c-2.9-0.8-5.9-1.6-8.8-2.3
			c-5.1-1.2-8.2-6.3-7-11.4c1.2-5.1,6.4-8.2,11.4-7c3.2,0.8,6.4,1.6,9.5,2.5c5.1,1.4,8,6.7,6.6,11.7C74.7-622,70.9-619.3,66.8-619.3
			z M-36.3-625.8c-4.6,0-8.7-3.4-9.4-8.1c-0.8-5.2,2.8-10,8-10.8c3.2-0.5,6.5-0.9,9.7-1.2c5.4-0.5,9.9,3.2,10.5,8.4
			c0.6,5.2-3.2,9.9-8.4,10.5c-3,0.3-6,0.7-9,1.1C-35.4-625.8-35.8-625.8-36.3-625.8z M20.3-627.6c-0.3,0-0.5,0-0.8,0
			c-3-0.2-6-0.4-9.1-0.6c-5.2-0.2-9.3-4.7-9.1-9.9c0.2-5.2,4.8-9.1,9.9-9.1c3.3,0.1,6.6,0.4,9.8,0.6c5.2,0.4,9.1,5,8.7,10.2
			C29.4-631.3,25.2-627.6,20.3-627.6z"/>
	</g>
	<g>
		<path class="st3" d="M14.1-185.1c-4.9,0-9.1-3.8-9.5-8.8c-0.4-5.2,3.6-9.8,8.8-10.1c3-0.2,6-0.5,8.9-0.9c5.2-0.7,9.9,3.1,10.6,8.3
			c0.6,5.2-3.1,9.9-8.3,10.6c-3.3,0.4-6.6,0.7-9.9,1C14.6-185.1,14.4-185.1,14.1-185.1z M-23.6-186c-0.4,0-0.7,0-1.1-0.1
			c-3.3-0.4-6.6-0.9-9.8-1.4c-5.2-0.9-8.7-5.8-7.8-11c0.9-5.2,5.8-8.7,11-7.8c2.9,0.5,5.9,0.9,8.9,1.3c5.2,0.6,8.9,5.3,8.3,10.5
			C-14.7-189.5-18.8-186-23.6-186z M60.3-194.2c-4,0-7.7-2.5-9-6.6c-1.6-5,1.1-10.3,6.1-12c2.9-0.9,5.7-1.9,8.5-3
			c4.9-1.9,10.4,0.6,12.3,5.5c1.9,4.9-0.6,10.4-5.5,12.3c-3.1,1.2-6.2,2.3-9.3,3.3C62.3-194.3,61.3-194.2,60.3-194.2z M-69.3-197.2
			c-1.1,0-2.2-0.2-3.3-0.6c-3.1-1.2-6.2-2.4-9.2-3.7c-4.8-2.1-7-7.7-4.9-12.5c2.1-4.8,7.7-7,12.5-4.9c2.7,1.2,5.5,2.3,8.3,3.4
			c4.9,1.8,7.4,7.3,5.5,12.2C-61.8-199.5-65.5-197.2-69.3-197.2z M103-214.1c-3.2,0-6.3-1.6-8.1-4.5c-2.8-4.5-1.4-10.3,3.1-13.1
			c2.5-1.6,5-3.2,7.5-4.9c4.3-3,10.2-1.9,13.2,2.4c3,4.3,1.9,10.2-2.4,13.2c-2.7,1.9-5.5,3.7-8.3,5.5
			C106.5-214.5,104.7-214.1,103-214.1z M-111.1-219c-1.9,0-3.7-0.5-5.4-1.7c-2.7-1.9-5.4-3.8-8-5.8c-4.2-3.2-4.9-9.2-1.7-13.3
			c3.2-4.2,9.2-4.9,13.3-1.7c2.4,1.8,4.8,3.6,7.2,5.3c4.3,3,5.4,8.9,2.4,13.2C-105.1-220.5-108-219-111.1-219z M139.7-243.6
			c-2.4,0-4.8-0.9-6.6-2.7c-3.8-3.7-3.8-9.7-0.2-13.4c2.1-2.1,4.1-4.3,6.1-6.6c3.5-3.9,9.5-4.3,13.4-0.8c3.9,3.5,4.3,9.5,0.8,13.4
			c-2.2,2.5-4.4,4.9-6.7,7.3C144.6-244.5,142.2-243.6,139.7-243.6z M-146.3-250.2c-2.6,0-5.2-1.1-7.1-3.2c-2.2-2.4-4.3-5-6.4-7.5
			c-3.3-4.1-2.7-10.1,1.4-13.4c4.1-3.3,10.1-2.7,13.4,1.4c1.9,2.3,3.8,4.6,5.8,6.9c3.5,3.9,3.1,9.9-0.8,13.4
			C-141.8-251-144.1-250.2-146.3-250.2z M168.3-281c-1.6,0-3.3-0.4-4.8-1.3c-4.5-2.7-6-8.5-3.3-13c1.5-2.6,3-5.2,4.4-7.8
			c2.4-4.6,8.2-6.4,12.8-4c4.6,2.4,6.4,8.2,4,12.8c-1.5,2.9-3.2,5.8-4.8,8.7C174.7-282.7,171.5-281,168.3-281z M-173.2-288.9
			c-3.4,0-6.7-1.8-8.4-5.1c-1.5-2.9-3-5.9-4.4-8.9c-2.2-4.8-0.2-10.4,4.6-12.6c4.8-2.2,10.4-0.2,12.6,4.6c1.3,2.7,2.6,5.4,4,8
			c2.5,4.6,0.7,10.4-4,12.8C-170.2-289.3-171.7-288.9-173.2-288.9z M187.1-324.2c-0.9,0-1.8-0.1-2.7-0.4c-5-1.5-7.9-6.8-6.4-11.8
			c0.8-2.9,1.6-5.8,2.4-8.7c1.3-5.1,6.4-8.2,11.5-7c5.1,1.2,8.2,6.4,7,11.5c-0.8,3.2-1.6,6.4-2.6,9.5
			C195-326.9,191.2-324.2,187.1-324.2z M-189.9-332.9c-4.3,0-8.1-2.9-9.2-7.2c-0.8-3.2-1.5-6.4-2.2-9.6c-1-5.1,2.3-10.1,7.5-11.2
			c5.1-1,10.1,2.3,11.2,7.5c0.6,3,1.2,5.9,1.9,8.8c1.3,5.1-1.8,10.3-6.9,11.5C-188.4-333-189.2-332.9-189.9-332.9z M195-370.6
			c-0.2,0-0.3,0-0.5,0c-5.2-0.3-9.3-4.7-9-9.9c0.1-3,0.2-6,0.2-9c0-5.3,4.2-9.9,9.5-9.9c5.3,0,9.5,3.9,9.5,9.1v0.8
			c0,3.3-0.1,6.6-0.2,9.9C204.3-374.6,200.1-370.6,195-370.6z M-195.7-379.9c-5.3,0-9.5-4.1-9.5-9.3v-0.4c0-3.2,0.1-6.3,0.2-9.5
			c0.3-5.2,4.4-9.4,9.9-9.1c5.2,0.2,9.3,4.7,9,9.9c-0.1,2.9-0.2,5.7-0.2,8.6C-186.2-384.3-190.4-379.9-195.7-379.9z M191.5-418.4
			c-4.4,0-8.4-3.1-9.3-7.6c-0.6-3-1.2-5.9-2-8.8c-1.3-5.1,1.8-10.2,6.9-11.5c5.1-1.3,10.2,1.8,11.5,6.9c0.8,3.2,1.5,6.4,2.2,9.6
			c1,5.1-2.3,10.1-7.4,11.2C192.7-418.4,192.1-418.4,191.5-418.4z M-190.1-426.4c-0.7,0-1.5-0.1-2.2-0.3c-5.1-1.2-8.2-6.4-7-11.5
			c0.8-3.2,1.6-6.4,2.6-9.6c1.5-5,6.8-7.9,11.8-6.4c5,1.5,7.9,6.8,6.4,11.8c-0.8,2.8-1.6,5.7-2.3,8.7
			C-181.9-429.3-185.8-426.4-190.1-426.4z M176.8-463.1c-3.6,0-7-2-8.6-5.4c-1.3-2.7-2.6-5.4-4-8.1c-2.5-4.6-0.7-10.4,4-12.8
			c4.6-2.5,10.4-0.7,12.8,4c1.5,2.9,3,5.8,4.4,8.8c2.2,4.7,0.2,10.4-4.5,12.6C179.5-463.4,178.1-463.1,176.8-463.1z M-173.5-470.5
			c-1.5,0-3-0.4-4.4-1.1c-4.6-2.4-6.4-8.2-4-12.8c1.5-2.9,3.1-5.8,4.8-8.6c2.6-4.5,8.5-6.1,13-3.4c4.5,2.6,6.1,8.5,3.4,13
			c-1.5,2.6-3,5.2-4.4,7.9C-166.8-472.3-170.1-470.5-173.5-470.5z M151.8-503c-2.8,0-5.5-1.2-7.4-3.5c-1.9-2.3-3.8-4.6-5.8-6.8
			c-3.5-3.9-3.2-9.9,0.8-13.4c3.9-3.5,9.9-3.2,13.4,0.8c2.2,2.5,4.3,5,6.4,7.6c3.3,4.1,2.7,10.1-1.4,13.4
			C156-503.7,153.8-503,151.8-503z M-146.8-509.3c-2.2,0-4.5-0.8-6.3-2.4c-3.9-3.5-4.3-9.5-0.8-13.4c2.2-2.5,4.4-4.9,6.7-7.2
			c3.7-3.8,9.7-3.9,13.4-0.2c3.8,3.6,3.9,9.7,0.2,13.4c-2.1,2.2-4.1,4.4-6.1,6.6C-141.6-510.4-144.2-509.3-146.8-509.3z
			 M117.9-535.8c-2,0-4-0.6-5.8-1.9c-2.4-1.8-4.8-3.6-7.3-5.3c-4.3-3-5.4-8.9-2.5-13.2c3-4.3,8.9-5.4,13.2-2.5
			c2.7,1.9,5.4,3.8,8,5.8c4.2,3.2,5,9.1,1.8,13.3C123.6-537,120.8-535.8,117.9-535.8z M-111.7-540.6c-3,0-6-1.4-7.8-4.1
			c-3-4.3-1.9-10.2,2.4-13.2c2.7-1.9,5.5-3.7,8.3-5.4c4.5-2.8,10.3-1.4,13.1,3c2.8,4.5,1.4,10.3-3,13.1c-2.5,1.6-5,3.2-7.5,4.9
			C-107.9-541.2-109.8-540.6-111.7-540.6z M77.3-559.5c-1.3,0-2.5-0.3-3.8-0.8c-2.7-1.2-5.5-2.3-8.3-3.4c-4.9-1.8-7.4-7.3-5.5-12.2
			c1.8-4.9,7.3-7.4,12.2-5.5c3.1,1.2,6.2,2.4,9.2,3.7c4.8,2.1,7,7.7,4.9,12.5C84.5-561.7,81-559.5,77.3-559.5z M-70-562.7
			c-3.8,0-7.4-2.3-8.9-6.1c-1.9-4.9,0.6-10.4,5.5-12.3c3.1-1.2,6.2-2.3,9.3-3.3c5-1.6,10.3,1.1,12,6.1c1.6,5-1.1,10.4-6.1,12
			c-2.8,0.9-5.7,1.9-8.5,3C-67.8-562.9-68.9-562.7-70-562.7z M32.1-572.8c-0.5,0-1,0-1.5-0.1c-3-0.5-5.9-0.9-8.9-1.3
			c-5.2-0.6-8.9-5.3-8.3-10.5c0.6-5.2,5.3-8.9,10.5-8.3c3.3,0.4,6.5,0.9,9.8,1.4c5.2,0.8,8.7,5.7,7.8,10.9
			C40.7-576.1,36.7-572.8,32.1-572.8z M-24.4-574c-4.7,0-8.8-3.5-9.4-8.3c-0.6-5.2,3.1-9.9,8.3-10.6c3.2-0.4,6.5-0.7,9.8-1
			c5.2-0.4,9.8,3.5,10.2,8.7c0.4,5.2-3.5,9.8-8.7,10.2c-3,0.2-6,0.5-9,0.9C-23.6-574.1-24-574-24.4-574z"/>
	</g>
</g>
<g>
	<g>
		<path class="st4" d="M-581,220.1c-5.2,0-9.4-4.2-9.5-9.4c0-5.2,4.2-9.5,9.4-9.6c3,0,6.1-0.1,9.1-0.3c4.8-0.4,9.7,3.8,9.9,9
			c0.3,5.2-3.8,9.7-9,9.9C-574.4,220-577.7,220.1-581,220.1C-581,220.1-581,220.1-581,220.1z M-618.6,217.7c-0.4,0-0.9,0-1.3-0.1
			c-3.2-0.5-6.5-1-9.7-1.6c-5.2-0.9-8.6-5.9-7.7-11c0.9-5.1,5.9-8.6,11-7.7c3,0.5,6,1,9,1.4c5.2,0.7,8.8,5.5,8.1,10.7
			C-609.9,214.2-614,217.7-618.6,217.7z M-534.2,215.2c-4.4,0-8.4-3.1-9.3-7.6c-1-5.1,2.3-10.1,7.4-11.2c3-0.6,5.9-1.3,8.9-2
			c5.1-1.3,10.2,1.9,11.5,7c1.2,5.1-1.9,10.2-7,11.5c-3.2,0.8-6.4,1.5-9.5,2.1C-532.9,215.1-533.5,215.2-534.2,215.2z M-664.4,206.6
			c-1,0-2.1-0.2-3.1-0.5c-3.1-1.1-6.2-2.2-9.3-3.4c-4.9-1.9-7.3-7.4-5.4-12.3c1.9-4.9,7.4-7.3,12.3-5.4c2.8,1.1,5.6,2.1,8.5,3.1
			c5,1.7,7.6,7.1,5.9,12C-656.8,204.2-660.5,206.6-664.4,206.6z M-489.1,201.5c-3.7,0-7.2-2.2-8.8-5.8c-2-4.8,0.3-10.4,5.1-12.4
			c2.8-1.2,5.6-2.4,8.3-3.6c4.8-2.2,10.4-0.1,12.6,4.7c2.2,4.8,0.1,10.4-4.7,12.6c-2.9,1.4-5.9,2.6-8.9,3.9
			C-486.7,201.2-487.9,201.5-489.1,201.5z M-707.4,187.1c-1.6,0-3.2-0.4-4.7-1.3c-2.8-1.6-5.6-3.3-8.4-5c-4.4-2.8-5.8-8.6-3-13.1
			c2.8-4.4,8.6-5.8,13.1-3c2.6,1.6,5.2,3.2,7.8,4.7c4.5,2.6,6.1,8.4,3.5,12.9C-700.9,185.4-704.1,187.1-707.4,187.1z M-447.5,179.4
			c-3.1,0-6.1-1.5-7.9-4.3c-2.9-4.4-1.7-10.3,2.7-13.1c2.5-1.7,5-3.4,7.5-5.1c4.3-3.1,10.2-2.1,13.2,2.2c3,4.3,2.1,10.2-2.2,13.2
			c-2.7,1.9-5.3,3.7-8.1,5.5C-443.9,178.9-445.7,179.4-447.5,179.4z M-745.8,159.7c-2.2,0-4.4-0.8-6.2-2.3c-2.5-2.1-4.9-4.3-7.3-6.6
			c-3.8-3.6-4-9.6-0.4-13.4c3.6-3.8,9.6-4,13.4-0.4c2.2,2.1,4.5,4.1,6.7,6.1c4,3.4,4.4,9.4,1,13.4
			C-740.5,158.6-743.1,159.7-745.8,159.7z M-410.8,149.9c-2.5,0-4.9-1-6.8-2.9c-3.6-3.8-3.6-9.8,0.2-13.4c2.2-2.1,4.3-4.3,6.4-6.4
			c3.6-3.8,9.6-3.9,13.4-0.3c3.8,3.6,3.9,9.6,0.3,13.4c-2.3,2.4-4.6,4.7-6.9,7C-406,149-408.4,149.9-410.8,149.9z M-778.3,125.7
			c-2.8,0-5.6-1.2-7.5-3.6c-2-2.6-4-5.1-5.9-7.8c-3.1-4.2-2.2-10.2,2.1-13.3s10.2-2.2,13.3,2.1c1.8,2.4,3.6,4.9,5.5,7.2
			c3.2,4.1,2.5,10.1-1.6,13.3C-774.2,125-776.2,125.7-778.3,125.7z M-380.3,114c-1.9,0-3.8-0.6-5.4-1.7c-4.3-3-5.3-8.9-2.3-13.2
			c1.7-2.5,3.4-5,5.1-7.5c2.8-4.4,8.7-5.7,13.1-2.8c4.4,2.8,5.7,8.7,2.8,13.1c-1.8,2.8-3.6,5.5-5.5,8.1
			C-374.3,112.6-377.3,114-380.3,114z M-803.9,86.1c-3.4,0-6.7-1.9-8.4-5.1c-1.5-2.9-2.9-5.8-4.3-8.8c-2.2-4.7-0.2-10.4,4.6-12.6
			c4.8-2.2,10.4-0.2,12.6,4.6c1.3,2.7,2.6,5.4,4,8.1c2.4,4.6,0.6,10.4-4,12.8C-800.9,85.8-802.4,86.1-803.9,86.1z M-357.1,73
			c-1.3,0-2.6-0.3-3.8-0.8c-4.8-2.1-6.9-7.7-4.8-12.5c1.2-2.8,2.4-5.6,3.5-8.4c2-4.9,7.5-7.2,12.3-5.3c4.9,2,7.2,7.5,5.3,12.3
			c-1.2,3-2.5,6.1-3.8,9C-350,70.9-353.4,73-357.1,73z M-821.4,42.5c-4.1,0-7.9-2.7-9.1-6.8c-0.9-3.1-1.8-6.3-2.6-9.4
			c-1.3-5.1,1.8-10.2,6.8-11.5c5.1-1.3,10.2,1.8,11.5,6.8c0.8,2.9,1.6,5.9,2.4,8.8c1.5,5-1.4,10.3-6.4,11.8
			C-819.7,42.4-820.6,42.5-821.4,42.5z M-342.1,28.3c-0.7,0-1.4-0.1-2.2-0.3c-5.1-1.2-8.3-6.3-7.1-11.4c0.7-2.9,1.3-5.9,1.9-8.9
			c1-5.2,6-8.5,11.1-7.5c5.1,1,8.5,6,7.5,11.1c-0.6,3.2-1.3,6.4-2,9.6C-333.9,25.4-337.8,28.3-342.1,28.3z M-830.4-3.8
			c-4.8,0-9-3.7-9.4-8.6c-0.3-3.2-0.6-6.5-0.8-9.7c-0.3-5.2,3.7-9.7,8.9-10c5.2-0.2,9.7,3.7,10,8.9c0.2,3,0.4,6,0.7,9.1
			c0.5,5.2-3.3,9.8-8.5,10.3C-829.8-3.8-830.1-3.8-830.4-3.8z M-335.9-18.4c-0.1,0-0.3,0-0.4,0c-5.2-0.2-9.3-4.6-9.1-9.8
			c0.1-3,0.2-6,0.2-9.1l0-1c0-5.2,4.2-9.5,9.5-9.5c5.2,0,9.5,4.2,9.5,9.5l0,0.7c0,3.5-0.1,6.8-0.2,10.1
			C-326.6-22.4-330.8-18.4-335.9-18.4z M-830.5-50.9c-0.3,0-0.6,0-0.9,0c-5.2-0.5-9.1-5.1-8.6-10.3c0.3-3.3,0.7-6.5,1.1-9.7
			c0.7-5.2,5.4-8.8,10.6-8.2c5.2,0.7,8.9,5.4,8.2,10.6c-0.4,3-0.7,6-1,9C-821.5-54.6-825.6-50.9-830.5-50.9z M-338.7-66.4
			c-4.6,0-8.6-3.3-9.4-8c-0.5-3-1-6-1.6-8.9c-1-5.1,2.3-10.1,7.5-11.1c5.2-1,10.1,2.4,11.1,7.5c0.6,3.2,1.2,6.4,1.7,9.7
			c0.8,5.2-2.7,10-7.9,10.8C-337.7-66.4-338.2-66.4-338.7-66.4z M-821.7-97.2c-0.9,0-1.8-0.1-2.6-0.4c-5-1.5-7.9-6.7-6.5-11.8
			c0.9-3.1,1.9-6.3,2.9-9.4c1.7-5,7-7.6,12-6c5,1.7,7.7,7,6,12c-1,2.9-1.9,5.8-2.7,8.7C-813.8-99.9-817.6-97.2-821.7-97.2z
			 M-350.4-112c-3.9,0-7.5-2.4-8.9-6.2c-1-2.9-2.1-5.7-3.3-8.5c-2-4.9,0.4-10.4,5.2-12.3c4.9-2,10.4,0.4,12.3,5.2
			c1.2,3,2.4,6,3.5,9.1c1.8,4.9-0.7,10.4-5.7,12.2C-348.2-112.2-349.3-112-350.4-112z M-804.3-141c-1.5,0-2.9-0.3-4.3-1.1
			c-4.7-2.4-6.5-8.1-4.1-12.8c1.5-2.9,3-5.8,4.6-8.6c2.6-4.6,8.3-6.2,12.9-3.6c4.6,2.6,6.2,8.4,3.6,12.9c-1.5,2.6-2.9,5.3-4.3,8
			C-797.5-142.8-800.9-141-804.3-141z M-370.5-154.6c-3.2,0-6.4-1.6-8.2-4.6c-1.5-2.6-3.1-5.2-4.8-7.7c-2.9-4.4-1.6-10.3,2.8-13.1
			c4.4-2.9,10.3-1.6,13.1,2.8c1.8,2.7,3.5,5.5,5.2,8.3c2.7,4.5,1.2,10.3-3.3,13C-367.2-155-368.9-154.6-370.5-154.6z M-778.9-180.6
			c-2,0-4.1-0.7-5.8-2c-4.1-3.2-4.8-9.2-1.6-13.3c2-2.6,4.1-5.1,6.2-7.6c3.4-4,9.3-4.5,13.4-1.1c4,3.4,4.5,9.4,1.1,13.4
			c-2,2.3-3.9,4.7-5.8,7.1C-773.3-181.9-776.1-180.6-778.9-180.6z M-398.4-192.6c-2.6,0-5.2-1.1-7.1-3.2c-2-2.3-4-4.5-6.1-6.6
			c-3.6-3.8-3.5-9.8,0.3-13.4c3.8-3.6,9.8-3.5,13.4,0.3c2.3,2.4,4.5,4.8,6.7,7.2c3.5,3.9,3.1,9.9-0.8,13.4
			C-393.9-193.4-396.1-192.6-398.4-192.6z M-746.4-214.8c-2.6,0-5.3-1.1-7.1-3.3c-3.4-4-3-9.9,0.9-13.4c2.5-2.1,5-4.2,7.5-6.3
			c4.1-3.3,10-2.6,13.3,1.4c3.3,4.1,2.6,10-1.4,13.3c-2.4,1.9-4.7,3.8-7,5.8C-742-215.6-744.2-214.8-746.4-214.8z M-432.9-224.6
			c-2,0-4-0.6-5.8-2c-2.4-1.8-4.8-3.6-7.3-5.4c-4.3-3-5.3-9-2.2-13.2c3-4.3,8.9-5.3,13.2-2.2c2.7,1.9,5.3,3.8,7.9,5.8
			c4.2,3.2,4.9,9.1,1.8,13.3C-427.2-225.9-430-224.6-432.9-224.6z M-708.1-242.2c-3.3,0-6.5-1.7-8.2-4.7c-2.6-4.5-1.1-10.3,3.4-13
			c2.8-1.6,5.6-3.2,8.5-4.7c4.6-2.5,10.4-0.7,12.8,3.9c2.5,4.6,0.7,10.4-3.9,12.8c-2.7,1.4-5.3,2.9-7.9,4.4
			C-704.9-242.7-706.5-242.2-708.1-242.2z M-472.8-249.7c-1.4,0-2.8-0.3-4.2-1c-2.7-1.4-5.5-2.7-8.3-3.9c-4.8-2.2-6.9-7.8-4.7-12.6
			c2.2-4.8,7.8-6.9,12.6-4.7c3,1.3,5.9,2.8,8.8,4.2c4.7,2.3,6.6,8,4.3,12.7C-466-251.6-469.3-249.7-472.8-249.7z M-665.4-261.9
			c-3.9,0-7.6-2.5-9-6.4c-1.7-4.9,0.9-10.4,5.8-12.1c3.1-1.1,6.2-2.1,9.3-3c5-1.6,10.3,1.3,11.9,6.3c1.5,5-1.3,10.3-6.3,11.8
			c-2.9,0.9-5.8,1.8-8.6,2.8C-663.3-262.1-664.3-261.9-665.4-261.9z M-516.8-266.6c-0.9,0-1.7-0.1-2.6-0.4c-2.9-0.8-5.8-1.6-8.8-2.3
			c-5.1-1.2-8.2-6.3-7-11.4c1.2-5.1,6.4-8.2,11.4-7c3.2,0.8,6.3,1.6,9.5,2.5c5,1.4,8,6.6,6.6,11.7
			C-508.8-269.4-512.6-266.6-516.8-266.6z M-619.6-273.1c-4.6,0-8.7-3.4-9.4-8.1c-0.8-5.2,2.8-10,8-10.7c3.2-0.5,6.5-0.9,9.7-1.2
			c5.4-0.5,9.9,3.2,10.4,8.4c0.6,5.2-3.2,9.9-8.4,10.4c-3,0.3-6,0.7-9,1.1C-618.7-273.2-619.2-273.1-619.6-273.1z M-563.2-274.9
			c-0.3,0-0.5,0-0.8,0c-3-0.2-6-0.4-9.1-0.6c-5.2-0.2-9.3-4.7-9.1-9.9c0.2-5.2,4.8-9.1,9.9-9.1c3.3,0.1,6.5,0.4,9.8,0.6
			c5.2,0.4,9.1,5,8.7,10.2C-554.1-278.7-558.3-274.9-563.2-274.9z"/>
	</g>
	<g>
		<path class="st4" d="M-569.3,166.8c-4.9,0-9.1-3.8-9.4-8.8c-0.4-5.2,3.6-9.8,8.8-10.1c3-0.2,6-0.5,8.9-0.9
			c5.2-0.7,9.9,3.1,10.6,8.3c0.6,5.2-3.1,9.9-8.3,10.6c-3.3,0.4-6.5,0.7-9.9,1C-568.9,166.8-569.1,166.8-569.3,166.8z M-606.9,165.9
			c-0.4,0-0.7,0-1.1-0.1c-3.3-0.4-6.6-0.9-9.8-1.4c-5.2-0.9-8.6-5.8-7.8-10.9c0.9-5.2,5.8-8.6,10.9-7.8c2.9,0.5,5.9,0.9,8.9,1.3
			c5.2,0.6,8.9,5.3,8.3,10.5C-598.1,162.4-602.2,165.9-606.9,165.9z M-523.2,157.7c-4,0-7.7-2.5-9-6.5c-1.6-5,1.1-10.3,6.1-12
			c2.9-0.9,5.7-1.9,8.5-3c4.9-1.9,10.4,0.6,12.2,5.5c1.9,4.9-0.6,10.4-5.5,12.2c-3.1,1.2-6.2,2.3-9.3,3.3
			C-521.2,157.6-522.2,157.7-523.2,157.7z M-652.6,154.7c-1.1,0-2.2-0.2-3.3-0.6c-3.1-1.2-6.2-2.4-9.2-3.7c-4.8-2.1-7-7.7-4.9-12.5
			c2.1-4.8,7.7-7,12.5-4.9c2.7,1.2,5.5,2.3,8.3,3.4c4.9,1.8,7.4,7.3,5.5,12.2C-645.2,152.4-648.8,154.7-652.6,154.7z M-480.6,137.9
			c-3.2,0-6.3-1.6-8.1-4.5c-2.8-4.5-1.4-10.3,3.1-13.1c2.5-1.6,5-3.2,7.5-4.9c4.3-3,10.2-1.9,13.2,2.4c3,4.3,1.9,10.2-2.4,13.2
			c-2.7,1.9-5.5,3.7-8.3,5.4C-477.1,137.4-478.9,137.9-480.6,137.9z M-694.3,132.9c-1.9,0-3.7-0.5-5.4-1.7c-2.7-1.9-5.4-3.8-8-5.8
			c-4.2-3.2-4.9-9.1-1.7-13.3c3.2-4.2,9.1-4.9,13.3-1.7c2.4,1.8,4.8,3.6,7.2,5.3c4.3,3,5.4,8.9,2.4,13.2
			C-688.3,131.5-691.3,132.9-694.3,132.9z M-443.9,108.4c-2.4,0-4.8-0.9-6.6-2.7c-3.8-3.7-3.8-9.7-0.2-13.4c2.1-2.1,4.1-4.3,6.1-6.6
			c3.5-3.9,9.5-4.3,13.4-0.8c3.9,3.5,4.3,9.5,0.8,13.4c-2.2,2.5-4.4,4.9-6.7,7.2C-439,107.5-441.5,108.4-443.9,108.4z M-729.5,101.8
			c-2.6,0-5.2-1.1-7.1-3.2c-2.2-2.4-4.3-5-6.4-7.5c-3.3-4.1-2.7-10,1.4-13.3c4.1-3.3,10-2.7,13.3,1.4c1.9,2.3,3.8,4.6,5.8,6.9
			c3.5,3.9,3.1,9.9-0.8,13.4C-725,101-727.3,101.8-729.5,101.8z M-415.4,71.1c-1.6,0-3.3-0.4-4.8-1.3c-4.5-2.7-6-8.5-3.3-13
			c1.5-2.6,3-5.2,4.4-7.8c2.4-4.6,8.1-6.4,12.8-4c4.6,2.4,6.4,8.2,4,12.8c-1.5,2.9-3.1,5.8-4.8,8.7C-409,69.4-412.2,71.1-415.4,71.1
			z M-756.3,63.1c-3.4,0-6.7-1.8-8.4-5.1c-1.5-2.9-3-5.8-4.4-8.8c-2.2-4.8-0.2-10.4,4.6-12.6c4.8-2.2,10.4-0.2,12.6,4.6
			c1.3,2.7,2.6,5.4,4,8c2.5,4.6,0.7,10.4-4,12.8C-753.3,62.8-754.8,63.1-756.3,63.1z M-396.6,27.9c-0.9,0-1.8-0.1-2.7-0.4
			c-5-1.5-7.9-6.8-6.4-11.8c0.8-2.9,1.6-5.8,2.4-8.7c1.3-5.1,6.4-8.2,11.5-6.9c5.1,1.2,8.2,6.4,6.9,11.5c-0.8,3.2-1.6,6.4-2.6,9.5
			C-388.7,25.3-392.5,27.9-396.6,27.9z M-773,19.2c-4.3,0-8.1-2.9-9.2-7.2c-0.8-3.2-1.5-6.4-2.1-9.6c-1-5.1,2.3-10.1,7.5-11.2
			c5.1-1,10.1,2.3,11.2,7.5c0.6,3,1.2,5.9,1.9,8.8c1.3,5.1-1.8,10.2-6.9,11.5C-771.5,19.1-772.3,19.2-773,19.2z M-388.7-18.4
			c-0.2,0-0.3,0-0.5,0c-5.2-0.3-9.3-4.7-9-9.9c0.1-3,0.2-6,0.2-9c0-5.2,4.2-9.9,9.5-9.9c5.2,0,9.5,3.9,9.5,9.1v0.8
			c0,3.3-0.1,6.6-0.2,9.9C-379.5-22.4-383.7-18.4-388.7-18.4z M-778.7-27.6c-5.2,0-9.5-4-9.5-9.3v-0.4c0-3.2,0.1-6.3,0.2-9.5
			c0.3-5.2,4.4-9.4,9.9-9c5.2,0.2,9.3,4.7,9,9.9c-0.1,2.9-0.2,5.7-0.2,8.6C-769.3-32.1-773.5-27.6-778.7-27.6z M-392.3-66
			c-4.4,0-8.4-3.1-9.3-7.6c-0.6-2.9-1.2-5.9-2-8.8c-1.3-5.1,1.8-10.2,6.9-11.5c5.1-1.3,10.2,1.8,11.5,6.9c0.8,3.2,1.5,6.4,2.2,9.6
			c1,5.1-2.3,10.1-7.4,11.2C-391-66.1-391.7-66-392.3-66z M-773.2-74.1c-0.7,0-1.5-0.1-2.2-0.3c-5.1-1.2-8.2-6.4-7-11.4
			c0.8-3.2,1.6-6.4,2.6-9.6c1.5-5,6.8-7.9,11.8-6.4c5,1.5,7.9,6.8,6.4,11.8c-0.8,2.8-1.6,5.7-2.3,8.6C-765-77-768.9-74.1-773.2-74.1
			z M-407-110.7c-3.6,0-7-2-8.6-5.4c-1.3-2.7-2.6-5.4-4-8c-2.5-4.6-0.7-10.4,4-12.8c4.6-2.5,10.4-0.7,12.8,4c1.5,2.9,3,5.8,4.4,8.8
			c2.2,4.7,0.2,10.4-4.5,12.6C-404.2-111-405.6-110.7-407-110.7z M-756.6-118.1c-1.5,0-3-0.4-4.4-1.1c-4.6-2.4-6.4-8.2-4-12.8
			c1.5-2.9,3.1-5.8,4.8-8.6c2.6-4.5,8.5-6.1,13-3.4c4.5,2.6,6,8.4,3.4,13c-1.5,2.6-3,5.2-4.4,7.9
			C-749.9-119.9-753.2-118.1-756.6-118.1z M-431.9-150.5c-2.8,0-5.5-1.2-7.4-3.5c-1.9-2.3-3.8-4.6-5.8-6.8
			c-3.5-3.9-3.1-9.9,0.8-13.4c3.9-3.5,9.9-3.2,13.4,0.8c2.2,2.5,4.3,5,6.4,7.5c3.3,4.1,2.6,10-1.4,13.3
			C-427.7-151.2-429.8-150.5-431.9-150.5z M-730-156.8c-2.2,0-4.5-0.8-6.3-2.4c-3.9-3.5-4.3-9.5-0.8-13.4c2.2-2.5,4.4-4.9,6.7-7.2
			c3.6-3.8,9.7-3.9,13.4-0.2c3.8,3.6,3.9,9.6,0.2,13.4c-2.1,2.2-4.1,4.4-6.1,6.6C-724.8-157.9-727.4-156.8-730-156.8z M-465.7-183.2
			c-2,0-4-0.6-5.7-1.9c-2.4-1.8-4.8-3.6-7.3-5.2c-4.3-3-5.4-8.9-2.5-13.2c3-4.3,8.9-5.4,13.2-2.5c2.7,1.9,5.4,3.8,8,5.8
			c4.2,3.2,5,9.1,1.8,13.3C-460-184.5-462.8-183.2-465.7-183.2z M-694.9-188.1c-3,0-6-1.4-7.8-4.1c-3-4.3-1.9-10.2,2.4-13.2
			c2.7-1.9,5.4-3.7,8.2-5.4c4.5-2.8,10.3-1.4,13.1,3c2.8,4.4,1.4,10.3-3,13.1c-2.5,1.6-5,3.2-7.5,4.9
			C-691.1-188.7-693-188.1-694.9-188.1z M-506.3-207c-1.3,0-2.5-0.3-3.8-0.8c-2.7-1.2-5.5-2.3-8.3-3.4c-4.9-1.8-7.4-7.3-5.5-12.2
			c1.8-4.9,7.3-7.4,12.2-5.5c3.1,1.2,6.1,2.4,9.2,3.7c4.8,2.1,7,7.7,4.9,12.5C-499.1-209.1-502.6-207-506.3-207z M-653.3-210.1
			c-3.8,0-7.4-2.3-8.9-6.1c-1.9-4.9,0.6-10.4,5.5-12.2c3.1-1.2,6.2-2.3,9.3-3.3c5-1.6,10.3,1.1,12,6.1c1.6,5-1.1,10.3-6.1,12
			c-2.8,0.9-5.7,1.9-8.4,3C-651.1-210.3-652.2-210.1-653.3-210.1z M-551.4-220.3c-0.5,0-1,0-1.5-0.1c-3-0.5-5.9-0.9-8.9-1.3
			c-5.2-0.6-8.9-5.3-8.3-10.5c0.6-5.2,5.3-8.9,10.5-8.3c3.3,0.4,6.5,0.9,9.8,1.4c5.2,0.8,8.7,5.7,7.8,10.9
			C-542.8-223.6-546.8-220.3-551.4-220.3z M-607.7-221.5c-4.7,0-8.8-3.5-9.4-8.3c-0.6-5.2,3.1-9.9,8.3-10.6c3.2-0.4,6.5-0.7,9.8-1
			c5.2-0.4,9.8,3.5,10.2,8.7c0.4,5.2-3.5,9.8-8.7,10.2c-3,0.2-6,0.5-8.9,0.9C-607-221.5-607.3-221.5-607.7-221.5z"/>
	</g>
</g>
<g>
	
		<ellipse transform="matrix(0.7071 -0.7071 0.7071 0.7071 -342.872 1108.6559)" class="st3" cx="1166.8" cy="968.2" rx="183" ry="183"/>
	<g>
		<path class="st5" d="M1225.6,1263.3c-102.3,0-185.5-83.2-185.5-185.5c0-102.3,83.2-185.5,185.5-185.5
			c102.3,0,185.5,83.2,185.5,185.5C1411.1,1180.1,1327.9,1263.3,1225.6,1263.3z M1225.6,897.3c-99.5,0-180.5,81-180.5,180.5
			c0,99.5,81,180.5,180.5,180.5s180.5-81,180.5-180.5C1406.1,978.3,1325.2,897.3,1225.6,897.3z"/>
	</g>
	<g>
		<rect x="1156.3" y="1016.4" class="st5" width="205" height="5"/>
	</g>
	<g>
		<rect x="1156.3" y="1002.4" class="st5" width="205" height="5"/>
	</g>
</g>
<g class="st6">
	<defs>
		<path id="SVGID_3_" class="st6" d="M2271.2,439.4c-56.7-36-128.8-46.7-193.5-28.6c-64.7,18.1-120.8,64.7-150.5,124.9
			c-10.3,20.8-19.5,45.2-40.7,54.6c-15.8,7-34.5,3.4-50.2-4c-15.6-7.4-29.3-18.4-44.4-26.9c-53.7-30.4-124.9-26.6-175,9.4
			c-50.1,36-76.4,102.3-64.6,162.9h718.9V439.4z"/>
	</defs>
	<clipPath id="SVGID_4_">
		<use xlink:href="#SVGID_3_"  style="overflow:visible;"/>
	</clipPath>
	<g class="st7">
		<line class="st8" x1="1286.2" y1="891.5" x2="2515.8" y2="-158.4"/>
		<line class="st8" x1="1311.4" y1="919.3" x2="2541" y2="-130.6"/>
		<line class="st8" x1="1336.6" y1="947.1" x2="2566.2" y2="-102.8"/>
		<line class="st8" x1="1361.8" y1="974.9" x2="2591.4" y2="-75"/>
		<line class="st8" x1="1387" y1="1002.7" x2="2616.6" y2="-47.2"/>
		<line class="st8" x1="1412.2" y1="1030.5" x2="2641.8" y2="-19.5"/>
		<line class="st8" x1="1437.4" y1="1058.3" x2="2667" y2="8.3"/>
		<line class="st8" x1="1462.6" y1="1086" x2="2692.2" y2="36.1"/>
		<line class="st8" x1="1487.9" y1="1113.8" x2="2717.4" y2="63.9"/>
		<line class="st8" x1="1513.1" y1="1141.6" x2="2742.7" y2="91.7"/>
		<line class="st8" x1="1538.3" y1="1169.4" x2="2767.9" y2="119.5"/>
		<line class="st8" x1="1563.5" y1="1197.2" x2="2793.1" y2="147.3"/>
		<line class="st8" x1="1588.7" y1="1225" x2="2818.3" y2="175.1"/>
		<line class="st8" x1="1613.9" y1="1252.8" x2="2843.5" y2="202.9"/>
	</g>
</g>
<g>
	<g>
		<g>
			<polygon class="st2" points="899.2,-97.5 883.6,-111.7 932.5,-165.8 883.6,-219.8 899.2,-234 961,-165.8 			"/>
		</g>
		<g>
			<polygon class="st2" points="959.9,-97.5 944.3,-111.7 993.2,-165.8 944.3,-219.8 959.9,-234 1021.7,-165.8 			"/>
		</g>
		<g>
			<polygon class="st2" points="1020.6,-97.5 1004.9,-111.7 1053.9,-165.8 1004.9,-219.8 1020.6,-234 1082.3,-165.8 			"/>
		</g>
		<g>
			<polygon class="st2" points="1081.2,-97.5 1065.6,-111.7 1114.6,-165.8 1065.6,-219.8 1081.2,-234 1143,-165.8 			"/>
		</g>
		<g>
			<polygon class="st2" points="1141.9,-97.5 1126.3,-111.7 1175.2,-165.8 1126.3,-219.8 1141.9,-234 1203.7,-165.8 			"/>
		</g>
		<g>
			<polygon class="st2" points="1202.6,-97.5 1186.9,-111.7 1235.9,-165.8 1186.9,-219.8 1202.6,-234 1264.3,-165.8 			"/>
		</g>
		<g>
			<polygon class="st2" points="1263.2,-97.5 1247.6,-111.7 1296.6,-165.8 1247.6,-219.8 1263.2,-234 1325,-165.8 			"/>
		</g>
		<g>
			<polygon class="st2" points="1323.9,-97.5 1308.3,-111.7 1357.2,-165.8 1308.3,-219.8 1323.9,-234 1385.7,-165.8 			"/>
		</g>
		<g>
			<polygon class="st2" points="1323.9,-97.5 1308.3,-111.7 1357.2,-165.8 1308.3,-219.8 1323.9,-234 1385.7,-165.8 			"/>
		</g>
		<g>
			<polygon class="st2" points="1384.6,-97.5 1369,-111.7 1417.9,-165.8 1369,-219.8 1384.6,-234 1446.3,-165.8 			"/>
		</g>
		<g>
			<polygon class="st2" points="1445.2,-97.5 1429.6,-111.7 1478.6,-165.8 1429.6,-219.8 1445.2,-234 1507,-165.8 			"/>
		</g>
		<g>
			<polygon class="st2" points="1505.9,-97.5 1490.3,-111.7 1539.2,-165.8 1490.3,-219.8 1505.9,-234 1567.7,-165.8 			"/>
		</g>
	</g>
</g>
<g>
	<g>
		<polygon class="st3" points="1372.6,117.1 1356.8,102.8 1406.2,48.3 1356.8,-6.3 1372.6,-20.5 1434.9,48.3 		"/>
	</g>
	<g>
		<polygon class="st3" points="1433.8,117.1 1418,102.8 1467.4,48.3 1418,-6.3 1433.8,-20.5 1496,48.3 		"/>
	</g>
	<g>
		<polygon class="st3" points="1494.9,117.1 1479.2,102.8 1528.5,48.3 1479.2,-6.3 1494.9,-20.5 1557.2,48.3 		"/>
	</g>
	<g>
		<polygon class="st3" points="1556.1,117.1 1540.4,102.8 1589.7,48.3 1540.4,-6.3 1556.1,-20.5 1618.4,48.3 		"/>
	</g>
	<g>
		<polygon class="st3" points="1617.3,117.1 1601.5,102.8 1650.9,48.3 1601.5,-6.3 1617.3,-20.5 1679.6,48.3 		"/>
	</g>
	<g>
		<polygon class="st3" points="1678.5,117.1 1662.7,102.8 1712.1,48.3 1662.7,-6.3 1678.5,-20.5 1740.8,48.3 		"/>
	</g>
	<g>
		<polygon class="st3" points="1739.7,117.1 1723.9,102.8 1773.3,48.3 1723.9,-6.3 1739.7,-20.5 1801.9,48.3 		"/>
	</g>
	<g>
		<polygon class="st3" points="1800.8,117.1 1785.1,102.8 1834.4,48.3 1785.1,-6.3 1800.8,-20.5 1863.1,48.3 		"/>
	</g>
	<g>
		<polygon class="st3" points="1800.8,117.1 1785.1,102.8 1834.4,48.3 1785.1,-6.3 1800.8,-20.5 1863.1,48.3 		"/>
	</g>
	<g>
		<polygon class="st3" points="1862,117.1 1846.3,102.8 1895.6,48.3 1846.3,-6.3 1862,-20.5 1924.3,48.3 		"/>
	</g>
	<g>
		<polygon class="st3" points="1923.2,117.1 1907.4,102.8 1956.8,48.3 1907.4,-6.3 1923.2,-20.5 1985.5,48.3 		"/>
	</g>
	<g>
		<polygon class="st3" points="1984.4,117.1 1968.6,102.8 2018,48.3 1968.6,-6.3 1984.4,-20.5 2046.6,48.3 		"/>
	</g>
</g>
<g>
	<circle class="st2" cx="329.9" cy="1410.3" r="171.9"/>
	<g>
		<path class="st5" d="M555.6,1593.3c-100.9,0-183-82.1-183-183s82.1-183,183-183s183,82.1,183,183S656.5,1593.3,555.6,1593.3z
			 M555.6,1249.6c-88.6,0-160.7,72.1-160.7,160.7c0,88.6,72.1,160.7,160.7,160.7s160.7-72.1,160.7-160.7
			C716.3,1321.7,644.2,1249.6,555.6,1249.6z"/>
	</g>
</g>
<ellipse transform="matrix(0.7071 -0.7071 0.7071 0.7071 -17.0801 974.2894)" class="st2" cx="1167.5" cy="507.8" rx="183" ry="183"/>
<g>
	<g>
		<path class="st9" d="M1429.6,1915.8c-151.9,0-275.5-123.6-275.5-275.5s123.6-275.5,275.5-275.5s275.5,123.6,275.5,275.5
			S1581.5,1915.8,1429.6,1915.8z M1429.6,1423.4c-119.6,0-217,97.3-217,217c0,119.6,97.3,217,217,217c119.6,0,217-97.3,217-217
			C1646.6,1520.7,1549.3,1423.4,1429.6,1423.4z"/>
	</g>
</g>
<g>
	<path class="st3" d="M1802.1,1330.4c-139.3,0-252.6-113.3-252.6-252.6c0-139.3,113.3-252.6,252.6-252.6
		c139.3,0,252.6,113.3,252.6,252.6C2054.7,1217.1,1941.4,1330.4,1802.1,1330.4z M1802.1,901.5c-97.2,0-176.3,79.1-176.3,176.3
		c0,97.2,79.1,176.3,176.3,176.3c97.2,0,176.3-79.1,176.3-176.3C1978.4,980.6,1899.3,901.5,1802.1,901.5z"/>
</g>
<g>
	<g>
		<g>
			<g>
				<g>
					<path class="st9" d="M-472.3,1069.4L-472.3,1069.4c0-6.5,5.3-11.7,11.7-11.7l0,0c6.5,0,11.7,5.3,11.7,11.7l0,0
						c0,6.5-5.3,11.7-11.7,11.7l0,0C-467.1,1081.1-472.3,1075.9-472.3,1069.4z"/>
					<path class="st9" d="M-504.4,1069.4L-504.4,1069.4c0-6.5,5.3-11.7,11.7-11.7l0,0c6.5,0,11.7,5.3,11.7,11.7l0,0
						c0,6.5-5.3,11.7-11.7,11.7l0,0C-499.1,1081.1-504.4,1075.9-504.4,1069.4z"/>
					<path class="st9" d="M-472.3,1101.1L-472.3,1101.1c0-6.5,5.3-11.7,11.7-11.7l0,0c6.5,0,11.7,5.3,11.7,11.7l0,0
						c0,6.5-5.3,11.7-11.7,11.7l0,0C-467.1,1112.8-472.3,1107.6-472.3,1101.1z"/>
					<path class="st9" d="M-504.4,1101.1L-504.4,1101.1c0-6.5,5.3-11.7,11.7-11.7l0,0c6.5,0,11.7,5.3,11.7,11.7l0,0
						c0,6.5-5.3,11.7-11.7,11.7l0,0C-499.1,1112.8-504.4,1107.6-504.4,1101.1z"/>
					<path class="st9" d="M-472.3,1132.1L-472.3,1132.1c0-6.5,5.3-11.7,11.7-11.7l0,0c6.5,0,11.7,5.3,11.7,11.7l0,0
						c0,6.5-5.3,11.7-11.7,11.7l0,0C-467.1,1143.8-472.3,1138.6-472.3,1132.1z"/>
					<path class="st9" d="M-504.4,1132.1L-504.4,1132.1c0-6.5,5.3-11.7,11.7-11.7l0,0c6.5,0,11.7,5.3,11.7,11.7l0,0
						c0,6.5-5.3,11.7-11.7,11.7l0,0C-499.1,1143.8-504.4,1138.6-504.4,1132.1z"/>
					<path class="st9" d="M-472.3,1163.8L-472.3,1163.8c0-6.5,5.3-11.7,11.7-11.7l0,0c6.5,0,11.7,5.3,11.7,11.7l0,0
						c0,6.5-5.3,11.7-11.7,11.7l0,0C-467.1,1175.5-472.3,1170.3-472.3,1163.8z"/>
					<path class="st9" d="M-504.4,1163.8L-504.4,1163.8c0-6.5,5.3-11.7,11.7-11.7l0,0c6.5,0,11.7,5.3,11.7,11.7l0,0
						c0,6.5-5.3,11.7-11.7,11.7l0,0C-499.1,1175.5-504.4,1170.3-504.4,1163.8z"/>
					<path class="st9" d="M-472.3,1195.5L-472.3,1195.5c0-6.5,5.3-11.7,11.7-11.7l0,0c6.5,0,11.7,5.3,11.7,11.7l0,0
						c0,6.5-5.3,11.7-11.7,11.7l0,0C-467.1,1207.3-472.3,1202-472.3,1195.5z"/>
					<path class="st9" d="M-504.4,1195.5L-504.4,1195.5c0-6.5,5.3-11.7,11.7-11.7l0,0c6.5,0,11.7,5.3,11.7,11.7l0,0
						c0,6.5-5.3,11.7-11.7,11.7l0,0C-499.1,1207.3-504.4,1202-504.4,1195.5z"/>
					<path class="st9" d="M-472.3,1227.2L-472.3,1227.2c0-6.5,5.3-11.7,11.7-11.7l0,0c6.5,0,11.7,5.3,11.7,11.7l0,0
						c0,6.5-5.3,11.7-11.7,11.7l0,0C-467.1,1239-472.3,1233.7-472.3,1227.2z"/>
					<path class="st9" d="M-504.4,1227.2L-504.4,1227.2c0-6.5,5.3-11.7,11.7-11.7l0,0c6.5,0,11.7,5.3,11.7,11.7l0,0
						c0,6.5-5.3,11.7-11.7,11.7l0,0C-499.1,1239-504.4,1233.7-504.4,1227.2z"/>
					<path class="st9" d="M-472.3,1258.2L-472.3,1258.2c0-6.5,5.3-11.7,11.7-11.7l0,0c6.5,0,11.7,5.3,11.7,11.7l0,0
						c0,6.5-5.3,11.7-11.7,11.7l0,0C-467.1,1270-472.3,1264.7-472.3,1258.2z"/>
					<path class="st9" d="M-504.4,1258.2L-504.4,1258.2c0-6.5,5.3-11.7,11.7-11.7l0,0c6.5,0,11.7,5.3,11.7,11.7l0,0
						c0,6.5-5.3,11.7-11.7,11.7l0,0C-499.1,1270-504.4,1264.7-504.4,1258.2z"/>
					<path class="st9" d="M-472.3,1289.9L-472.3,1289.9c0-6.5,5.3-11.7,11.7-11.7l0,0c6.5,0,11.7,5.3,11.7,11.7l0,0
						c0,6.5-5.3,11.7-11.7,11.7l0,0C-467.1,1301.7-472.3,1296.4-472.3,1289.9z"/>
					<path class="st9" d="M-504.4,1289.9L-504.4,1289.9c0-6.5,5.3-11.7,11.7-11.7l0,0c6.5,0,11.7,5.3,11.7,11.7l0,0
						c0,6.5-5.3,11.7-11.7,11.7l0,0C-499.1,1301.7-504.4,1296.4-504.4,1289.9z"/>
					<path class="st9" d="M-472.3,1290.4L-472.3,1290.4c0-6.5,5.3-11.7,11.7-11.7l0,0c6.5,0,11.7,5.3,11.7,11.7l0,0
						c0,6.5-5.3,11.7-11.7,11.7l0,0C-467.1,1302.1-472.3,1296.9-472.3,1290.4z"/>
					<path class="st9" d="M-504.4,1290.4L-504.4,1290.4c0-6.5,5.3-11.7,11.7-11.7l0,0c6.5,0,11.7,5.3,11.7,11.7l0,0
						c0,6.5-5.3,11.7-11.7,11.7l0,0C-499.1,1302.1-504.4,1296.9-504.4,1290.4z"/>
					<path class="st9" d="M-472.3,1322.1L-472.3,1322.1c0-6.5,5.3-11.7,11.7-11.7l0,0c6.5,0,11.7,5.3,11.7,11.7l0,0
						c0,6.5-5.3,11.7-11.7,11.7l0,0C-467.1,1333.9-472.3,1328.6-472.3,1322.1z"/>
					<path class="st9" d="M-504.4,1322.1L-504.4,1322.1c0-6.5,5.3-11.7,11.7-11.7l0,0c6.5,0,11.7,5.3,11.7,11.7l0,0
						c0,6.5-5.3,11.7-11.7,11.7l0,0C-499.1,1333.9-504.4,1328.6-504.4,1322.1z"/>
					<path class="st9" d="M-472.3,1353.1L-472.3,1353.1c0-6.5,5.3-11.7,11.7-11.7l0,0c6.5,0,11.7,5.3,11.7,11.7l0,0
						c0,6.5-5.3,11.7-11.7,11.7l0,0C-467.1,1364.8-472.3,1359.6-472.3,1353.1z"/>
					<path class="st9" d="M-504.4,1353.1L-504.4,1353.1c0-6.5,5.3-11.7,11.7-11.7l0,0c6.5,0,11.7,5.3,11.7,11.7l0,0
						c0,6.5-5.3,11.7-11.7,11.7l0,0C-499.1,1364.8-504.4,1359.6-504.4,1353.1z"/>
				</g>
			</g>
			<g>
				<g>
					<path class="st9" d="M-536.4,1069.4L-536.4,1069.4c0-6.5,5.3-11.7,11.7-11.7l0,0c6.5,0,11.7,5.3,11.7,11.7l0,0
						c0,6.5-5.3,11.7-11.7,11.7l0,0C-531.1,1081.1-536.4,1075.9-536.4,1069.4z"/>
					<path class="st9" d="M-568.4,1069.4L-568.4,1069.4c0-6.5,5.3-11.7,11.7-11.7l0,0c6.5,0,11.7,5.3,11.7,11.7l0,0
						c0,6.5-5.3,11.7-11.7,11.7l0,0C-563.2,1081.1-568.4,1075.9-568.4,1069.4z"/>
					<path class="st9" d="M-536.4,1101.1L-536.4,1101.1c0-6.5,5.3-11.7,11.7-11.7l0,0c6.5,0,11.7,5.3,11.7,11.7l0,0
						c0,6.5-5.3,11.7-11.7,11.7l0,0C-531.1,1112.8-536.4,1107.6-536.4,1101.1z"/>
					<path class="st9" d="M-568.4,1101.1L-568.4,1101.1c0-6.5,5.3-11.7,11.7-11.7l0,0c6.5,0,11.7,5.3,11.7,11.7l0,0
						c0,6.5-5.3,11.7-11.7,11.7l0,0C-563.2,1112.8-568.4,1107.6-568.4,1101.1z"/>
					<path class="st9" d="M-536.4,1132.1L-536.4,1132.1c0-6.5,5.3-11.7,11.7-11.7l0,0c6.5,0,11.7,5.3,11.7,11.7l0,0
						c0,6.5-5.3,11.7-11.7,11.7l0,0C-531.1,1143.8-536.4,1138.6-536.4,1132.1z"/>
					<path class="st9" d="M-568.4,1132.1L-568.4,1132.1c0-6.5,5.3-11.7,11.7-11.7l0,0c6.5,0,11.7,5.3,11.7,11.7l0,0
						c0,6.5-5.3,11.7-11.7,11.7l0,0C-563.2,1143.8-568.4,1138.6-568.4,1132.1z"/>
					<path class="st9" d="M-536.4,1163.8L-536.4,1163.8c0-6.5,5.3-11.7,11.7-11.7l0,0c6.5,0,11.7,5.3,11.7,11.7l0,0
						c0,6.5-5.3,11.7-11.7,11.7l0,0C-531.1,1175.5-536.4,1170.3-536.4,1163.8z"/>
					<path class="st9" d="M-568.4,1163.8L-568.4,1163.8c0-6.5,5.3-11.7,11.7-11.7l0,0c6.5,0,11.7,5.3,11.7,11.7l0,0
						c0,6.5-5.3,11.7-11.7,11.7l0,0C-563.2,1175.5-568.4,1170.3-568.4,1163.8z"/>
					<path class="st9" d="M-536.4,1195.5L-536.4,1195.5c0-6.5,5.3-11.7,11.7-11.7l0,0c6.5,0,11.7,5.3,11.7,11.7l0,0
						c0,6.5-5.3,11.7-11.7,11.7l0,0C-531.1,1207.3-536.4,1202-536.4,1195.5z"/>
					<path class="st9" d="M-568.4,1195.5L-568.4,1195.5c0-6.5,5.3-11.7,11.7-11.7l0,0c6.5,0,11.7,5.3,11.7,11.7l0,0
						c0,6.5-5.3,11.7-11.7,11.7l0,0C-563.2,1207.3-568.4,1202-568.4,1195.5z"/>
					<path class="st9" d="M-536.4,1227.2L-536.4,1227.2c0-6.5,5.3-11.7,11.7-11.7l0,0c6.5,0,11.7,5.3,11.7,11.7l0,0
						c0,6.5-5.3,11.7-11.7,11.7l0,0C-531.1,1239-536.4,1233.7-536.4,1227.2z"/>
					<path class="st9" d="M-568.4,1227.2L-568.4,1227.2c0-6.5,5.3-11.7,11.7-11.7l0,0c6.5,0,11.7,5.3,11.7,11.7l0,0
						c0,6.5-5.3,11.7-11.7,11.7l0,0C-563.2,1239-568.4,1233.7-568.4,1227.2z"/>
					<path class="st9" d="M-536.4,1258.2L-536.4,1258.2c0-6.5,5.3-11.7,11.7-11.7l0,0c6.5,0,11.7,5.3,11.7,11.7l0,0
						c0,6.5-5.3,11.7-11.7,11.7l0,0C-531.1,1270-536.4,1264.7-536.4,1258.2z"/>
					<path class="st9" d="M-568.4,1258.2L-568.4,1258.2c0-6.5,5.3-11.7,11.7-11.7l0,0c6.5,0,11.7,5.3,11.7,11.7l0,0
						c0,6.5-5.3,11.7-11.7,11.7l0,0C-563.2,1270-568.4,1264.7-568.4,1258.2z"/>
					<path class="st9" d="M-536.4,1289.9L-536.4,1289.9c0-6.5,5.3-11.7,11.7-11.7l0,0c6.5,0,11.7,5.3,11.7,11.7l0,0
						c0,6.5-5.3,11.7-11.7,11.7l0,0C-531.1,1301.7-536.4,1296.4-536.4,1289.9z"/>
					<path class="st9" d="M-568.4,1289.9L-568.4,1289.9c0-6.5,5.3-11.7,11.7-11.7l0,0c6.5,0,11.7,5.3,11.7,11.7l0,0
						c0,6.5-5.3,11.7-11.7,11.7l0,0C-563.2,1301.7-568.4,1296.4-568.4,1289.9z"/>
					<path class="st9" d="M-536.4,1290.4L-536.4,1290.4c0-6.5,5.3-11.7,11.7-11.7l0,0c6.5,0,11.7,5.3,11.7,11.7l0,0
						c0,6.5-5.3,11.7-11.7,11.7l0,0C-531.1,1302.1-536.4,1296.9-536.4,1290.4z"/>
					<path class="st9" d="M-568.4,1290.4L-568.4,1290.4c0-6.5,5.3-11.7,11.7-11.7l0,0c6.5,0,11.7,5.3,11.7,11.7l0,0
						c0,6.5-5.3,11.7-11.7,11.7l0,0C-563.2,1302.1-568.4,1296.9-568.4,1290.4z"/>
					<path class="st9" d="M-536.4,1322.1L-536.4,1322.1c0-6.5,5.3-11.7,11.7-11.7l0,0c6.5,0,11.7,5.3,11.7,11.7l0,0
						c0,6.5-5.3,11.7-11.7,11.7l0,0C-531.1,1333.9-536.4,1328.6-536.4,1322.1z"/>
					<path class="st9" d="M-568.4,1322.1L-568.4,1322.1c0-6.5,5.3-11.7,11.7-11.7l0,0c6.5,0,11.7,5.3,11.7,11.7l0,0
						c0,6.5-5.3,11.7-11.7,11.7l0,0C-563.2,1333.9-568.4,1328.6-568.4,1322.1z"/>
					<path class="st9" d="M-536.4,1353.1L-536.4,1353.1c0-6.5,5.3-11.7,11.7-11.7l0,0c6.5,0,11.7,5.3,11.7,11.7l0,0
						c0,6.5-5.3,11.7-11.7,11.7l0,0C-531.1,1364.8-536.4,1359.6-536.4,1353.1z"/>
					<path class="st9" d="M-568.4,1353.1L-568.4,1353.1c0-6.5,5.3-11.7,11.7-11.7l0,0c6.5,0,11.7,5.3,11.7,11.7l0,0
						c0,6.5-5.3,11.7-11.7,11.7l0,0C-563.2,1364.8-568.4,1359.6-568.4,1353.1z"/>
				</g>
			</g>
		</g>
	</g>
	<g>
		<g>
			<g>
				<g>
					<path class="st9" d="M-344.5,1069.4L-344.5,1069.4c0-6.5,5.3-11.7,11.7-11.7l0,0c6.5,0,11.7,5.3,11.7,11.7l0,0
						c0,6.5-5.3,11.7-11.7,11.7l0,0C-339.3,1081.1-344.5,1075.9-344.5,1069.4z"/>
					<path class="st9" d="M-376.6,1069.4L-376.6,1069.4c0-6.5,5.3-11.7,11.7-11.7l0,0c6.5,0,11.7,5.3,11.7,11.7l0,0
						c0,6.5-5.3,11.7-11.7,11.7l0,0C-371.3,1081.1-376.6,1075.9-376.6,1069.4z"/>
					<path class="st9" d="M-344.5,1101.1L-344.5,1101.1c0-6.5,5.3-11.7,11.7-11.7l0,0c6.5,0,11.7,5.3,11.7,11.7l0,0
						c0,6.5-5.3,11.7-11.7,11.7l0,0C-339.3,1112.8-344.5,1107.6-344.5,1101.1z"/>
					<path class="st9" d="M-376.6,1101.1L-376.6,1101.1c0-6.5,5.3-11.7,11.7-11.7l0,0c6.5,0,11.7,5.3,11.7,11.7l0,0
						c0,6.5-5.3,11.7-11.7,11.7l0,0C-371.3,1112.8-376.6,1107.6-376.6,1101.1z"/>
					<path class="st9" d="M-344.5,1132.1L-344.5,1132.1c0-6.5,5.3-11.7,11.7-11.7l0,0c6.5,0,11.7,5.3,11.7,11.7l0,0
						c0,6.5-5.3,11.7-11.7,11.7l0,0C-339.3,1143.8-344.5,1138.6-344.5,1132.1z"/>
					<path class="st9" d="M-376.6,1132.1L-376.6,1132.1c0-6.5,5.3-11.7,11.7-11.7l0,0c6.5,0,11.7,5.3,11.7,11.7l0,0
						c0,6.5-5.3,11.7-11.7,11.7l0,0C-371.3,1143.8-376.6,1138.6-376.6,1132.1z"/>
					<path class="st9" d="M-344.5,1163.8L-344.5,1163.8c0-6.5,5.3-11.7,11.7-11.7l0,0c6.5,0,11.7,5.3,11.7,11.7l0,0
						c0,6.5-5.3,11.7-11.7,11.7l0,0C-339.3,1175.5-344.5,1170.3-344.5,1163.8z"/>
					<path class="st9" d="M-376.6,1163.8L-376.6,1163.8c0-6.5,5.3-11.7,11.7-11.7l0,0c6.5,0,11.7,5.3,11.7,11.7l0,0
						c0,6.5-5.3,11.7-11.7,11.7l0,0C-371.3,1175.5-376.6,1170.3-376.6,1163.8z"/>
					<path class="st9" d="M-344.5,1195.5L-344.5,1195.5c0-6.5,5.3-11.7,11.7-11.7l0,0c6.5,0,11.7,5.3,11.7,11.7l0,0
						c0,6.5-5.3,11.7-11.7,11.7l0,0C-339.3,1207.3-344.5,1202-344.5,1195.5z"/>
					<path class="st9" d="M-376.6,1195.5L-376.6,1195.5c0-6.5,5.3-11.7,11.7-11.7l0,0c6.5,0,11.7,5.3,11.7,11.7l0,0
						c0,6.5-5.3,11.7-11.7,11.7l0,0C-371.3,1207.3-376.6,1202-376.6,1195.5z"/>
					<path class="st9" d="M-344.5,1227.2L-344.5,1227.2c0-6.5,5.3-11.7,11.7-11.7l0,0c6.5,0,11.7,5.3,11.7,11.7l0,0
						c0,6.5-5.3,11.7-11.7,11.7l0,0C-339.3,1239-344.5,1233.7-344.5,1227.2z"/>
					<path class="st9" d="M-376.6,1227.2L-376.6,1227.2c0-6.5,5.3-11.7,11.7-11.7l0,0c6.5,0,11.7,5.3,11.7,11.7l0,0
						c0,6.5-5.3,11.7-11.7,11.7l0,0C-371.3,1239-376.6,1233.7-376.6,1227.2z"/>
					<path class="st9" d="M-344.5,1258.2L-344.5,1258.2c0-6.5,5.3-11.7,11.7-11.7l0,0c6.5,0,11.7,5.3,11.7,11.7l0,0
						c0,6.5-5.3,11.7-11.7,11.7l0,0C-339.3,1270-344.5,1264.7-344.5,1258.2z"/>
					<path class="st9" d="M-376.6,1258.2L-376.6,1258.2c0-6.5,5.3-11.7,11.7-11.7l0,0c6.5,0,11.7,5.3,11.7,11.7l0,0
						c0,6.5-5.3,11.7-11.7,11.7l0,0C-371.3,1270-376.6,1264.7-376.6,1258.2z"/>
					<path class="st9" d="M-344.5,1289.9L-344.5,1289.9c0-6.5,5.3-11.7,11.7-11.7l0,0c6.5,0,11.7,5.3,11.7,11.7l0,0
						c0,6.5-5.3,11.7-11.7,11.7l0,0C-339.3,1301.7-344.5,1296.4-344.5,1289.9z"/>
					<path class="st9" d="M-376.6,1289.9L-376.6,1289.9c0-6.5,5.3-11.7,11.7-11.7l0,0c6.5,0,11.7,5.3,11.7,11.7l0,0
						c0,6.5-5.3,11.7-11.7,11.7l0,0C-371.3,1301.7-376.6,1296.4-376.6,1289.9z"/>
					<path class="st9" d="M-344.5,1290.4L-344.5,1290.4c0-6.5,5.3-11.7,11.7-11.7l0,0c6.5,0,11.7,5.3,11.7,11.7l0,0
						c0,6.5-5.3,11.7-11.7,11.7l0,0C-339.3,1302.1-344.5,1296.9-344.5,1290.4z"/>
					<path class="st9" d="M-376.6,1290.4L-376.6,1290.4c0-6.5,5.3-11.7,11.7-11.7l0,0c6.5,0,11.7,5.3,11.7,11.7l0,0
						c0,6.5-5.3,11.7-11.7,11.7l0,0C-371.3,1302.1-376.6,1296.9-376.6,1290.4z"/>
					<path class="st9" d="M-344.5,1322.1L-344.5,1322.1c0-6.5,5.3-11.7,11.7-11.7l0,0c6.5,0,11.7,5.3,11.7,11.7l0,0
						c0,6.5-5.3,11.7-11.7,11.7l0,0C-339.3,1333.9-344.5,1328.6-344.5,1322.1z"/>
					<path class="st9" d="M-376.6,1322.1L-376.6,1322.1c0-6.5,5.3-11.7,11.7-11.7l0,0c6.5,0,11.7,5.3,11.7,11.7l0,0
						c0,6.5-5.3,11.7-11.7,11.7l0,0C-371.3,1333.9-376.6,1328.6-376.6,1322.1z"/>
					<path class="st9" d="M-344.5,1353.1L-344.5,1353.1c0-6.5,5.3-11.7,11.7-11.7l0,0c6.5,0,11.7,5.3,11.7,11.7l0,0
						c0,6.5-5.3,11.7-11.7,11.7l0,0C-339.3,1364.8-344.5,1359.6-344.5,1353.1z"/>
					<path class="st9" d="M-376.6,1353.1L-376.6,1353.1c0-6.5,5.3-11.7,11.7-11.7l0,0c6.5,0,11.7,5.3,11.7,11.7l0,0
						c0,6.5-5.3,11.7-11.7,11.7l0,0C-371.3,1364.8-376.6,1359.6-376.6,1353.1z"/>
				</g>
			</g>
			<g>
				<g>
					<path class="st9" d="M-408.6,1069.4L-408.6,1069.4c0-6.5,5.3-11.7,11.7-11.7h0c6.5,0,11.7,5.3,11.7,11.7l0,0
						c0,6.5-5.3,11.7-11.7,11.7h0C-403.3,1081.1-408.6,1075.9-408.6,1069.4z"/>
					<path class="st9" d="M-440.6,1069.4L-440.6,1069.4c0-6.5,5.3-11.7,11.7-11.7l0,0c6.5,0,11.7,5.3,11.7,11.7l0,0
						c0,6.5-5.3,11.7-11.7,11.7l0,0C-435.4,1081.1-440.6,1075.9-440.6,1069.4z"/>
					<path class="st9" d="M-408.6,1101.1L-408.6,1101.1c0-6.5,5.3-11.7,11.7-11.7h0c6.5,0,11.7,5.3,11.7,11.7l0,0
						c0,6.5-5.3,11.7-11.7,11.7h0C-403.3,1112.8-408.6,1107.6-408.6,1101.1z"/>
					<path class="st9" d="M-440.6,1101.1L-440.6,1101.1c0-6.5,5.3-11.7,11.7-11.7l0,0c6.5,0,11.7,5.3,11.7,11.7l0,0
						c0,6.5-5.3,11.7-11.7,11.7l0,0C-435.4,1112.8-440.6,1107.6-440.6,1101.1z"/>
					<path class="st9" d="M-408.6,1132.1L-408.6,1132.1c0-6.5,5.3-11.7,11.7-11.7h0c6.5,0,11.7,5.3,11.7,11.7l0,0
						c0,6.5-5.3,11.7-11.7,11.7h0C-403.3,1143.8-408.6,1138.6-408.6,1132.1z"/>
					<path class="st9" d="M-440.6,1132.1L-440.6,1132.1c0-6.5,5.3-11.7,11.7-11.7l0,0c6.5,0,11.7,5.3,11.7,11.7l0,0
						c0,6.5-5.3,11.7-11.7,11.7l0,0C-435.4,1143.8-440.6,1138.6-440.6,1132.1z"/>
					<path class="st9" d="M-408.6,1163.8L-408.6,1163.8c0-6.5,5.3-11.7,11.7-11.7h0c6.5,0,11.7,5.3,11.7,11.7l0,0
						c0,6.5-5.3,11.7-11.7,11.7h0C-403.3,1175.5-408.6,1170.3-408.6,1163.8z"/>
					<path class="st9" d="M-440.6,1163.8L-440.6,1163.8c0-6.5,5.3-11.7,11.7-11.7l0,0c6.5,0,11.7,5.3,11.7,11.7l0,0
						c0,6.5-5.3,11.7-11.7,11.7l0,0C-435.4,1175.5-440.6,1170.3-440.6,1163.8z"/>
					<path class="st9" d="M-408.6,1195.5L-408.6,1195.5c0-6.5,5.3-11.7,11.7-11.7h0c6.5,0,11.7,5.3,11.7,11.7l0,0
						c0,6.5-5.3,11.7-11.7,11.7h0C-403.3,1207.3-408.6,1202-408.6,1195.5z"/>
					<path class="st9" d="M-440.6,1195.5L-440.6,1195.5c0-6.5,5.3-11.7,11.7-11.7l0,0c6.5,0,11.7,5.3,11.7,11.7l0,0
						c0,6.5-5.3,11.7-11.7,11.7l0,0C-435.4,1207.3-440.6,1202-440.6,1195.5z"/>
					<path class="st9" d="M-408.6,1227.2L-408.6,1227.2c0-6.5,5.3-11.7,11.7-11.7h0c6.5,0,11.7,5.3,11.7,11.7l0,0
						c0,6.5-5.3,11.7-11.7,11.7h0C-403.3,1239-408.6,1233.7-408.6,1227.2z"/>
					<path class="st9" d="M-440.6,1227.2L-440.6,1227.2c0-6.5,5.3-11.7,11.7-11.7l0,0c6.5,0,11.7,5.3,11.7,11.7l0,0
						c0,6.5-5.3,11.7-11.7,11.7l0,0C-435.4,1239-440.6,1233.7-440.6,1227.2z"/>
					<path class="st9" d="M-408.6,1258.2L-408.6,1258.2c0-6.5,5.3-11.7,11.7-11.7h0c6.5,0,11.7,5.3,11.7,11.7l0,0
						c0,6.5-5.3,11.7-11.7,11.7h0C-403.3,1270-408.6,1264.7-408.6,1258.2z"/>
					<path class="st9" d="M-440.6,1258.2L-440.6,1258.2c0-6.5,5.3-11.7,11.7-11.7l0,0c6.5,0,11.7,5.3,11.7,11.7l0,0
						c0,6.5-5.3,11.7-11.7,11.7l0,0C-435.4,1270-440.6,1264.7-440.6,1258.2z"/>
					<path class="st9" d="M-408.6,1289.9L-408.6,1289.9c0-6.5,5.3-11.7,11.7-11.7h0c6.5,0,11.7,5.3,11.7,11.7l0,0
						c0,6.5-5.3,11.7-11.7,11.7h0C-403.3,1301.7-408.6,1296.4-408.6,1289.9z"/>
					<path class="st9" d="M-440.6,1289.9L-440.6,1289.9c0-6.5,5.3-11.7,11.7-11.7l0,0c6.5,0,11.7,5.3,11.7,11.7l0,0
						c0,6.5-5.3,11.7-11.7,11.7l0,0C-435.4,1301.7-440.6,1296.4-440.6,1289.9z"/>
					<path class="st9" d="M-408.6,1290.4L-408.6,1290.4c0-6.5,5.3-11.7,11.7-11.7h0c6.5,0,11.7,5.3,11.7,11.7l0,0
						c0,6.5-5.3,11.7-11.7,11.7h0C-403.3,1302.1-408.6,1296.9-408.6,1290.4z"/>
					<path class="st9" d="M-440.6,1290.4L-440.6,1290.4c0-6.5,5.3-11.7,11.7-11.7l0,0c6.5,0,11.7,5.3,11.7,11.7l0,0
						c0,6.5-5.3,11.7-11.7,11.7l0,0C-435.4,1302.1-440.6,1296.9-440.6,1290.4z"/>
					<path class="st9" d="M-408.6,1322.1L-408.6,1322.1c0-6.5,5.3-11.7,11.7-11.7h0c6.5,0,11.7,5.3,11.7,11.7l0,0
						c0,6.5-5.3,11.7-11.7,11.7h0C-403.3,1333.9-408.6,1328.6-408.6,1322.1z"/>
					<path class="st9" d="M-440.6,1322.1L-440.6,1322.1c0-6.5,5.3-11.7,11.7-11.7l0,0c6.5,0,11.7,5.3,11.7,11.7l0,0
						c0,6.5-5.3,11.7-11.7,11.7l0,0C-435.4,1333.9-440.6,1328.6-440.6,1322.1z"/>
					<path class="st9" d="M-408.6,1353.1L-408.6,1353.1c0-6.5,5.3-11.7,11.7-11.7h0c6.5,0,11.7,5.3,11.7,11.7l0,0
						c0,6.5-5.3,11.7-11.7,11.7h0C-403.3,1364.8-408.6,1359.6-408.6,1353.1z"/>
					<path class="st9" d="M-440.6,1353.1L-440.6,1353.1c0-6.5,5.3-11.7,11.7-11.7l0,0c6.5,0,11.7,5.3,11.7,11.7l0,0
						c0,6.5-5.3,11.7-11.7,11.7l0,0C-435.4,1364.8-440.6,1359.6-440.6,1353.1z"/>
				</g>
			</g>
		</g>
	</g>
</g>
<g>
	<g>
		<rect x="82.4" y="310.3" class="st3" width="636.2" height="17"/>
	</g>
	<g>
		<rect x="82.4" y="266.6" class="st3" width="636.2" height="17"/>
	</g>
</g>
<g>
	<g>
		<polygon class="st3" points="-113.8,1091 -161.2,1091 -161.2,1082.2 -122.6,1082.2 -122.6,1043.7 -113.8,1043.7 		"/>
	</g>
	<g>
		<polygon class="st3" points="-133.2,1071.6 -180.5,1071.6 -180.5,1062.8 -142,1062.8 -142,1024.3 -133.2,1024.3 		"/>
	</g>
</g>
</svg>
