<?xml version="1.0" encoding="utf-8"?>
<!-- Generator: Adobe Illustrator 27.8.1, SVG Export Plug-In . SVG Version: 6.00 Build 0)  -->
<svg version="1.1" id="Layer_1" xmlns="http://www.w3.org/2000/svg" xmlns:xlink="http://www.w3.org/1999/xlink" x="0px" y="0px"
	 viewBox="0 0 72 72" style="enable-background:new 0 0 72 72;" xml:space="preserve">
<style type="text/css">
	.st0{fill:#F2590D;}
</style>
<g>
	<g>
		<path class="st0" d="M50.2,7.3L14.3,4.9c-1.2-0.1-2.2,0.8-2.3,2l-0.3,4.2H7c-1.2,0-2.1,1-2.1,2.1V65c0,1.2,1,2.1,2.1,2.1h27.5
			c0.2,0,0.5-0.1,0.6-0.3l4.2-4.1c0,0,0.1,0,0.1,0l7.1,0.5c1.1,0.1,2.2-0.8,2.3-2l3.5-51.6C52.3,8.4,51.4,7.4,50.2,7.3L50.2,7.3z
			 M35.4,64v-6.3c0-0.2,0.1-0.3,0.3-0.3H42L35.4,64z M47,61.1c0,0.2-0.1,0.3-0.3,0.3L41,61l3.9-3.8c0.2-0.2,0.3-0.4,0.3-0.6V13.2
			c0-1.2-1-2.1-2.1-2.1h-9.5c-1.2,0-1.2,1.8,0,1.8H43c0.2,0,0.3,0.1,0.3,0.3v42.3h-7.6c-1.2,0-2.1,1-2.1,2.1v7.6H7
			c-0.2,0-0.3-0.1-0.3-0.3V13.2c0-0.2,0.1-0.3,0.3-0.3h28.6c1.2,0,1.2-1.8,0-1.8h-22L13.9,7c0-0.2,0.1-0.3,0.3-0.3l35.9,2.4
			c0.2,0,0.3,0.1,0.3,0.3L47,61.1z"/>
		<path class="st0" d="M34.5,67.6H7c-1.4,0-2.6-1.2-2.6-2.6V13.2c0-1.4,1.2-2.6,2.6-2.6h4.3l0.3-3.8c0.1-1.4,1.3-2.5,2.8-2.4
			l35.9,2.4c1.4,0.1,2.5,1.3,2.4,2.8l-3.5,51.6c-0.1,1.4-1.4,2.5-2.8,2.4l-7-0.5l-4,4C35.2,67.4,34.9,67.6,34.5,67.6z M7,11.6
			c-0.9,0-1.7,0.7-1.7,1.7V65c0,0.9,0.7,1.7,1.7,1.7h27.5c0.1,0,0.2,0,0.3-0.1l4.3-4.3l0.2,0.1l7.1,0.5c0.9,0.1,1.7-0.7,1.8-1.6
			l3.5-51.6c0.1-0.9-0.7-1.7-1.6-1.8L14.3,5.4c-0.9-0.1-1.7,0.6-1.8,1.6l-0.3,4.6H7z M34,65.7H7c-0.4,0-0.8-0.3-0.8-0.8V13.2
			c0-0.4,0.3-0.8,0.8-0.8h25.3c0-0.1-0.1-0.3-0.1-0.5c0-0.2,0-0.3,0.1-0.5H13.1L13.4,7c0.1-0.4,0.4-0.7,0.8-0.7l36,2.4
			c0.4,0.1,0.7,0.4,0.7,0.8l-3.5,51.7c-0.1,0.4-0.4,0.7-0.8,0.7L40,61.4l4.6-4.6c0.1-0.1,0.1-0.2,0.1-0.3V13.2
			c0-0.9-0.7-1.7-1.7-1.7h-6.2c0,0.1,0.1,0.3,0.1,0.5c0,0.2,0,0.3-0.1,0.5H43c0.4,0,0.8,0.3,0.8,0.8V56h-8.1c-0.9,0-1.7,0.7-1.7,1.7
			V65.7z M7.1,64.8h26v-7.2c0-1.4,1.2-2.6,2.6-2.6h7.1V13.4H7.1V64.8z M42,60.6l4.5,0.3l3.4-51.3L14.3,7.2l-0.2,3.4H43
			c1.4,0,2.6,1.2,2.6,2.6v43.3c0,0.4-0.1,0.7-0.4,1L42,60.6z M33.5,11.6c-0.4,0-0.4,0.4-0.4,0.5c0,0.1,0,0.5,0.4,0.5h2
			c0.4,0,0.4-0.4,0.4-0.5c0-0.1,0-0.5-0.4-0.5H33.5z M35,65.1v-7.4c0-0.4,0.3-0.8,0.8-0.8h7.4L35,65.1z M35.9,57.8v5.1l5.1-5.1H35.9
			z"/>
	</g>
	<g>
		<path class="st0" d="M37.4,33.7H12.6c-0.5,0-0.9,0.4-0.9,0.9c0,0.5,0.4,0.9,0.9,0.9h24.9c0.5,0,0.9-0.4,0.9-0.9
			C38.4,34.1,37.9,33.7,37.4,33.7z"/>
		<path class="st0" d="M37.4,36H12.6c-0.8,0-1.4-0.6-1.4-1.4s0.6-1.4,1.4-1.4h24.9c0.8,0,1.4,0.6,1.4,1.4S38.2,36,37.4,36z
			 M12.6,34.2c-0.3,0-0.5,0.2-0.5,0.5s0.2,0.5,0.5,0.5h24.9c0.3,0,0.5-0.2,0.5-0.5s-0.2-0.5-0.5-0.5H12.6z"/>
	</g>
	<g>
		<path class="st0" d="M37.4,40.1H12.6c-0.5,0-0.9,0.4-0.9,0.9c0,0.5,0.4,0.9,0.9,0.9h24.9c0.5,0,0.9-0.4,0.9-0.9
			C38.4,40.5,37.9,40.1,37.4,40.1z"/>
		<path class="st0" d="M37.4,42.3H12.6c-0.8,0-1.4-0.6-1.4-1.4c0-0.8,0.6-1.4,1.4-1.4h24.9c0.8,0,1.4,0.6,1.4,1.4
			C38.8,41.7,38.2,42.3,37.4,42.3z M12.6,40.5c-0.3,0-0.5,0.2-0.5,0.5c0,0.3,0.2,0.5,0.5,0.5h24.9c0.3,0,0.5-0.2,0.5-0.5
			c0-0.3-0.2-0.5-0.5-0.5H12.6z"/>
	</g>
	<g>
		<path class="st0" d="M11.6,28.2c0,0.5,0.4,0.9,0.9,0.9h24.9c0.5,0,0.9-0.4,0.9-0.9s-0.4-0.9-0.9-0.9H12.6
			C12.1,27.3,11.6,27.7,11.6,28.2z"/>
		<path class="st0" d="M37.4,29.6H12.6c-0.8,0-1.4-0.6-1.4-1.4c0-0.8,0.6-1.4,1.4-1.4h24.9c0.8,0,1.4,0.6,1.4,1.4
			C38.8,29,38.2,29.6,37.4,29.6z M12.6,27.8c-0.3,0-0.5,0.2-0.5,0.5c0,0.3,0.2,0.5,0.5,0.5h24.9c0.3,0,0.5-0.2,0.5-0.5
			c0-0.3-0.2-0.5-0.5-0.5H12.6z"/>
	</g>
	<g>
		<path class="st0" d="M16,21.9c0,0.5,0.4,0.9,0.9,0.9h16.1c0.5,0,0.9-0.4,0.9-0.9S33.6,21,33.1,21H16.9C16.4,21,16,21.4,16,21.9z"
			/>
		<path class="st0" d="M33.1,23.3H16.9c-0.8,0-1.4-0.6-1.4-1.4c0-0.8,0.6-1.4,1.4-1.4h16.1c0.8,0,1.4,0.6,1.4,1.4
			C34.4,22.6,33.8,23.3,33.1,23.3z M16.9,21.4c-0.3,0-0.5,0.2-0.5,0.5c0,0.3,0.2,0.5,0.5,0.5h16.1c0.3,0,0.5-0.2,0.5-0.5
			c0-0.3-0.2-0.5-0.5-0.5H16.9z"/>
	</g>
	<g>
		<path class="st0" d="M28.6,58.2c-1.6,0-3.3,0-4.9,0c-0.6,0-1.1,0-1.7,0c-1,0-1.7-0.2-1.9-1.3c-0.2-0.9-1.5-0.8-1.8,0
			c-0.6,2-1.7,1.2-2.3-0.1c-0.6-1.3-0.7-2.8-1-4.2c-0.2-1-1.8-0.8-1.8,0.2c0,1.3-0.2,2.6-0.5,3.9c-0.3,1.3-0.9,2.6-1.4,3.8
			c-0.4,1.1,1.3,1.6,1.8,0.5c0.5-1.1,0.9-2.2,1.2-3.4c0.6,1.5,1.9,3.2,3.8,2.2c0.3-0.2,0.7-0.5,0.9-0.8c1,1.1,2.4,1,3.7,1
			c1.9,0,3.8,0,5.7,0C29.7,60.1,29.7,58.2,28.6,58.2L28.6,58.2z"/>
		<path class="st0" d="M12.3,62c-0.4,0-0.9-0.2-1.1-0.5c-0.3-0.3-0.3-0.8-0.1-1.2c0.5-1.2,1-2.5,1.3-3.8c0.3-1.1,0.4-2.3,0.5-3.8
			c0-0.8,0.7-1.3,1.3-1.3c0.7,0,1.2,0.4,1.4,1c0.1,0.3,0.1,0.6,0.1,0.9c0.2,1.1,0.4,2.3,0.8,3.3c0.3,0.7,0.7,1.1,0.9,1.1
			c0.1,0,0.3-0.2,0.5-0.9c0.2-0.6,0.8-1,1.5-1c0.6,0,1.1,0.4,1.2,1c0.1,0.7,0.5,0.9,1.4,0.9c0,0,0,0,0,0l6.6,0c0,0,0,0,0,0
			c0.9,0,1.3,0.7,1.3,1.4c0,0.7-0.5,1.4-1.3,1.4l-6,0c-1.2,0-2.5,0-3.5-0.8c-0.2,0.2-0.5,0.4-0.7,0.5c-0.7,0.4-1.4,0.5-2.1,0.2
			c-0.8-0.3-1.4-1-1.8-1.6c-0.3,0.8-0.6,1.6-0.9,2.4C13.4,61.6,13,62,12.5,62C12.4,62,12.3,62,12.3,62z M14.3,52.4
			C14.3,52.4,14.3,52.4,14.3,52.4c-0.2,0-0.5,0.2-0.5,0.5c0,1.6-0.2,2.8-0.5,4c-0.3,1.3-0.9,2.6-1.4,3.9c-0.1,0.2,0,0.3,0,0.3
			c0.1,0.1,0.3,0.2,0.5,0.2c0.1,0,0.3-0.1,0.4-0.3c0.4-1,0.9-2.2,1.2-3.3l0.4-1.2l0.5,1.2c0.5,1.1,1.1,1.9,1.8,2.1
			c0.4,0.1,0.9,0.1,1.3-0.2c0.3-0.2,0.6-0.4,0.8-0.7l0.3-0.4l0.3,0.4c0.8,0.9,1.9,0.9,3.1,0.9l6,0c0.4,0,0.4-0.4,0.4-0.5
			c0-0.1,0-0.5-0.4-0.5c0,0,0,0,0,0l-6.6,0c0,0,0,0,0,0c-1,0-2-0.2-2.3-1.7c0-0.2-0.1-0.3-0.3-0.3c-0.2,0-0.5,0.1-0.5,0.3
			c-0.3,1-0.8,1.5-1.4,1.5c-0.7,0-1.3-0.6-1.7-1.6c-0.5-1.1-0.7-2.3-0.9-3.5c0-0.3-0.1-0.6-0.1-0.9C14.6,52.5,14.5,52.4,14.3,52.4z"
			/>
	</g>
	<g>
		<path class="st0" d="M66.4,34.8c-0.5-0.5-1.1-0.7-1.8-0.7l-0.7,0v-1.3c0-0.8-0.5-1.6-1.1-2.1v-1.8c0-3.8-5.9-3.8-5.9,0v1.8
			c-0.7,0.4-1.1,1.2-1.1,2v1.3c-3,0.2-3,4.8,0,5c0,4.1,0,15.3,0,19.5c0,1.1,1.8,1.2,1.8,0c0-4.2,0-15.4,0-19.5l4.5,0
			c0,0,0,13.5,0,19.6c0,3-4.5,3-4.5,0l0-1.7c0.1-1.2-1.7-1.3-1.8-0.1v1.6c0,1.3,0.4,2.5,1.2,3.3c0.1,1.9,0.9,3.8,2.2,5.1
			c0.4,0.4,0.9,0.3,1.3,0c1.4-1.4,2.2-3.2,2.2-5.2c0.6-0.6,1.2-1.2,1.2-3.3l0-8.3c1.6,0.4,3.2-0.8,3.2-2.4v-11
			C67.1,35.9,66.9,35.3,66.4,34.8L66.4,34.8z M57.6,34.1v-1.3c0-0.3,0.2-0.5,0.4-0.6l3.7,0c0.1,0,0.2,0.1,0.3,0.1
			c0.1,0.1,0.2,0.3,0.2,0.4v1.3L57.6,34.1z M59.8,27.8c0.6,0,1.1,0.5,1.1,1.1v1.5l-2.2,0v-1.5C58.7,28.3,59.2,27.8,59.8,27.8
			L59.8,27.8z M59.8,64.8c-0.4-0.6-0.7-1.3-0.9-2c0.3,0.1,0.6,0.1,0.9,0.1c0.3,0,0.6,0,1-0.1C60.6,63.5,60.3,64.2,59.8,64.8z
			 M65.3,47.6c0,0.9-1.4,0.9-1.4,0c0,0,0-8.6,0-9.4c0-0.5-0.4-0.9-0.9-0.9l-7.1,0c-0.9,0-0.9-1.4,0-1.4l8.7,0c0.4,0,0.7,0.3,0.7,0.7
			L65.3,47.6L65.3,47.6z"/>
	</g>
</g>
</svg>
