<?xml version="1.0" encoding="utf-8"?>
<!-- Generator: Adobe Illustrator 27.8.1, SVG Export Plug-In . SVG Version: 6.00 Build 0)  -->
<svg version="1.1" id="Layer_1" xmlns="http://www.w3.org/2000/svg" xmlns:xlink="http://www.w3.org/1999/xlink" x="0px" y="0px"
	 viewBox="0 0 72 72" style="enable-background:new 0 0 72 72;" xml:space="preserve">
<style type="text/css">
	.st0{fill:#F2590D;}
</style>
<g>
	<path class="st0" d="M68.7,40.5l-4.1-24.7c-0.1-0.4-0.3-0.8-0.7-0.9c-0.4-0.2-0.8-0.2-1.2,0l-10.1,5.4c-0.6,0.3-0.8,1-0.6,1.6
		l0.7,1.6c-1.9,0.8-4,0.9-5.9,0.2c-3.5-1.3-7.3-1.1-10.7,0.5c-3.3-1.6-7.2-1.8-10.7-0.5c-1.9,0.7-4,0.6-5.9-0.2l0.7-1.6
		c0.2-0.6,0-1.3-0.6-1.6L9.7,14.8c-0.4-0.2-0.8-0.2-1.2,0c-0.4,0.2-0.6,0.5-0.7,0.9L3.8,40.5c-0.1,0.6,0.2,1.2,0.8,1.4l5.5,2
		c0.1,0.1,0.3,0.1,0.4,0.1c0.5,0,1-0.3,1.2-0.8l0.6-1.6l2.9,2.3c0.1,1,0.5,1.9,1.2,2.7c0.8,0.8,1.9,1.2,3,1.2c0,1.1,0.4,2.1,1.2,3
		c0.8,0.8,1.9,1.2,3,1.2c0,1.1,0.4,2.1,1.2,3c0.8,0.8,1.9,1.2,3,1.2c0.2,0,0.5,0,0.7-0.1c0.1,0.8,0.5,1.7,1.2,2.3
		c0.8,0.8,1.9,1.2,3,1.2c0.8,0,1.6-0.2,2.3-0.7l0.3,0.3c0.8,0.8,1.9,1.2,3,1.2c1.1,0,2.2-0.4,3-1.2c0.5-0.5,0.9-1.1,1.1-1.8
		c0.5,0.2,1.1,0.3,1.6,0.3c1.1,0,2.2-0.4,3-1.2c0.7-0.7,1.1-1.5,1.2-2.4c0.2,0,0.4,0.1,0.7,0.1c1.1,0,2.2-0.4,3-1.2
		c0.8-0.8,1.2-1.8,1.2-3c1.1,0,2.1-0.4,3-1.2c1.3-1.3,1.6-3.1,0.9-4.6l3.4-1.8l0.3,0.7c0.2,0.5,0.7,0.8,1.2,0.8c0.1,0,0.3,0,0.4-0.1
		l5.5-2C68.5,41.7,68.8,41.1,68.7,40.5L68.7,40.5z M9.9,41.1l-3.4-1.2l3.6-22l7.5,4L9.9,41.1z M20.8,44.8c-0.7,0.7-1.7,0.7-2.4,0
		c-0.7-0.7-0.7-1.7,0-2.4l1.4-1.4c0.3-0.3,0.7-0.5,1.2-0.5c0.5,0,0.9,0.2,1.2,0.5c0.7,0.7,0.7,1.7,0,2.4L20.8,44.8
		C20.8,44.8,20.8,44.8,20.8,44.8L20.8,44.8z M25,48.9c-0.7,0.7-1.7,0.7-2.4,0c-0.7-0.7-0.7-1.7,0-2.4c0,0,0,0,0,0l3.1-3.1
		c0.3-0.3,0.7-0.5,1.2-0.5c0.5,0,0.9,0.2,1.2,0.5c0.7,0.7,0.7,1.7,0,2.4L25,48.9z M29.2,53.1c-0.7,0.7-1.7,0.7-2.4,0
		c-0.7-0.7-0.7-1.7,0-2.4l3.1-3.1c0.3-0.3,0.8-0.5,1.2-0.5s0.9,0.2,1.2,0.5c0.3,0.3,0.5,0.7,0.5,1.2c0,0.5-0.2,0.9-0.5,1.2
		L29.2,53.1z M35.2,55.5l-1.1,1.1c-0.7,0.7-1.7,0.7-2.4,0c-0.7-0.7-0.7-1.7,0-2.4l1.1-1.1c0.3-0.3,0.8-0.5,1.2-0.5s0.9,0.2,1.2,0.5
		C35.8,53.8,35.8,54.9,35.2,55.5L35.2,55.5z M39.7,57.5c-0.7,0.7-1.7,0.7-2.4,0l-0.2-0.2c0.7-0.8,1.2-1.8,1.2-2.9
		c0-0.3,0-0.6-0.1-0.8l1.6,1.6C40.4,55.7,40.4,56.8,39.7,57.5L39.7,57.5z M54.4,47c-0.7,0.7-1.7,0.7-2.4,0l-8.2-8.2
		c-0.5-0.5-1.3-0.5-1.8,0c-0.5,0.5-0.5,1.3,0,1.8l8.2,8.2c0.3,0.3,0.5,0.7,0.5,1.2c0,0.5-0.2,0.9-0.5,1.2c-0.7,0.7-1.7,0.7-2.4,0
		l-5.9-5.9c-0.5-0.5-1.3-0.5-1.8,0c-0.5,0.5-0.5,1.3,0,1.8l5.3,5.3c0.3,0.3,0.5,0.7,0.5,1.2c0,0.5-0.2,0.9-0.5,1.2
		c-0.3,0.3-0.7,0.5-1.2,0.5s-0.9-0.2-1.2-0.5L39.2,51c-0.5-0.5-1.3-0.5-1.8,0c-0.1,0.1-0.2,0.3-0.3,0.5c0,0-0.1-0.1-0.1-0.1
		c-0.5-0.5-1.2-0.9-1.9-1.1c0.2-0.5,0.2-0.9,0.2-1.4c0-1.1-0.4-2.2-1.2-3c-0.8-0.8-1.9-1.2-3-1.2c0-1.1-0.4-2.1-1.2-3
		c-0.8-0.8-1.9-1.2-3-1.2c-0.7,0-1.3,0.2-1.9,0.4c-0.2-0.6-0.5-1.2-1-1.7c-0.8-0.8-1.9-1.2-3-1.2s-2.2,0.4-3,1.2l-1.4,1.4
		c-0.2,0.2-0.4,0.4-0.5,0.6l-2.7-2.1l5.4-13.3c2.4,1,5.2,1.1,7.7,0.2c2.2-0.8,4.6-0.9,6.9-0.2l-3.2,1.8c-1.2,0.6-2,1.8-2.3,3.1
		c-0.3,1.3,0,2.7,0.7,3.8c1.2,1.8,3.5,2.5,5.6,1.8l7-2.5c1-0.4,2.2-0.1,3,0.7l10.4,10.4C55.1,45.3,55.1,46.4,54.4,47L54.4,47z
		 M55.5,42.2l-9.7-9.7c-1.5-1.5-3.7-2-5.7-1.2l-7,2.5c-1,0.3-2,0-2.6-0.8c-0.4-0.5-0.5-1.2-0.3-1.8c0.1-0.6,0.5-1.1,1.1-1.4l5.5-3.1
		c2.8-1.6,6.2-1.8,9.2-0.7c2.5,0.9,5.3,0.8,7.7-0.2L59.5,40L55.5,42.2z M62.7,41.1L55,21.9l7.5-4l3.6,22L62.7,41.1z"/>
</g>
</svg>
