<?xml version="1.0" encoding="utf-8"?>
<!-- Generator: Adobe Illustrator 27.8.1, SVG Export Plug-In . SVG Version: 6.00 Build 0)  -->
<svg version="1.1" id="Layer_1" xmlns="http://www.w3.org/2000/svg" xmlns:xlink="http://www.w3.org/1999/xlink" x="0px" y="0px"
	 viewBox="0 0 72 72" style="enable-background:new 0 0 72 72;" xml:space="preserve">
<style type="text/css">
	.st0{fill:#F2590D;}
</style>
<g id="Layer_2_00000012447018373274644790000001059404834950587811_">
	<g id="Layer_1-2">
		<g id="medical_benefits_package">
			<g>
				<path class="st0" d="M68.9,37.4c0-0.2-0.1-0.4-0.2-0.5l-9-12.2c-0.2-0.2-0.5-0.4-0.8-0.4h-3.6c2.2-28.7-40.8-28.7-38.6,0h-3.6
					c-0.7-0.6-9.5,12.5-9.9,12.7C2.9,37.4,3.3,67,3.1,67.4c0,0.6,0.4,1,1,1h63.8c0.6,0,1-0.5,1-1C68.9,67.3,68.9,37.5,68.9,37.4
					L68.9,37.4z M59.9,28.4l6,8.1h-6L59.9,28.4z M57.9,26.3v10.1h-9c3-2.7,5.1-6.2,6-10.1L57.9,26.3L57.9,26.3z M36,4.6
					c16.9-0.3,23.9,22.8,9.7,31.9c0,0-19.4,0-19.4,0C12.1,27.3,19.1,4.3,36,4.6z M23.1,36.5h-9V26.3h3C18,30.3,20.1,33.8,23.1,36.5z
					 M12.1,28.4v8.1h-6L12.1,28.4z M66.9,66.4H5.1V38.5h61.8V66.4z"/>
				<path class="st0" d="M67.9,68.9H4.1c-0.4,0-0.8-0.2-1.1-0.4c-0.3-0.3-0.4-0.7-0.4-1.1l0-0.1c0-0.3,0-5.3,0-10.6
					C2.5,37.1,2.6,37,2.8,36.8l0.1-0.1c0.2-0.3,1.2-1.7,2.3-3.1c5.4-7.5,7-9.6,7.8-9.7l0.2,0l0.1,0h2.9C15.7,15.7,18.8,9.1,25,5.4
					c6.6-4,15.4-4,22,0c6.2,3.8,9.3,10.3,8.8,18.5H59c0.5,0,0.9,0.2,1.2,0.6l9,12.2c0.1,0.2,0.3,0.5,0.3,0.9l0,0
					c0.1,0.9,0.1,4.4,0,20.4c0,5,0,9.3,0,9.5C69.4,68.2,68.7,68.9,67.9,68.9z M3.6,67.4L3.6,67.4c0,0.1,0,0.3,0.1,0.4
					c0.1,0.1,0.2,0.1,0.4,0.1h63.8c0.3,0,0.5-0.2,0.5-0.5h0c0-0.3,0-1.8,0-9.5c0-8,0-18.9,0-20.3l0,0l0-0.2c0-0.1-0.1-0.2-0.1-0.2
					L59.3,25c-0.1-0.1-0.2-0.2-0.4-0.2h-4.2l0-0.5c0.6-8-2.3-14.4-8.3-18.1c-6.3-3.8-14.7-3.8-20.9,0c-6,3.7-8.9,10.1-8.3,18.1
					l0,0.5h-4.2c-1,0.7-5.1,6.5-7.1,9.3c-1.5,2.1-2.1,2.9-2.3,3.2c-0.1,1.3-0.1,11.7,0,19.3C3.7,65,3.7,66.9,3.6,67.4z M67.4,66.9
					H4.6V38h62.8V66.9z M5.6,65.9h60.8V39H5.6V65.9z M45.9,37l-0.1,0c-0.1,0-19.4,0-19.4,0h-0.1L26,36.9c-6.7-4.3-9.4-12.2-7-20
					C21.4,9,28.1,3.9,36,4.1c8-0.2,14.6,4.8,17,12.7c2.4,7.9-0.4,15.8-7,20.1L45.9,37z M26.5,36h16.2c1.5,0,2.4,0,2.8,0
					c6.2-4,8.8-11.5,6.5-18.9c-2.3-7.5-8.6-12.2-16-12h0c-7.5-0.2-13.8,4.6-16,12.1C17.7,24.5,20.3,31.9,26.5,36z M66.9,37h-7.5
					l0-10.1L66.9,37z M60.4,36h4.5l-4.5-6.1L60.4,36z M58.4,37H47.6l1-0.9c2.9-2.6,5-6,5.9-9.9l0.1-0.4h3.9V37z M50.2,36h7.2v-9.1
					h-2.1C54.5,30.3,52.7,33.4,50.2,36z M24.4,37H13.6V25.8h3.9l0.1,0.4c0.9,3.8,2.9,7.3,5.9,9.9L24.4,37z M14.6,36h7.2
					c-2.5-2.5-4.3-5.7-5.2-9.1h-2.1V36z M12.6,37H5.1l7.5-10.1V37z M7.1,36h4.5v-6.1L7.1,36z"/>
			</g>
			<g>
				<path class="st0" d="M43,48.8h-3.4c-0.1-2.1,0.8-5.8-2.5-5.9h-2.2c-3.2,0.1-2.4,3.8-2.5,5.9c-2.2,0.1-5.8-0.8-5.9,2.5
					c0,0,0,2.2,0,2.2c0.1,3.2,3.7,2.4,5.9,2.5c0.1,2.1-0.8,5.8,2.5,5.9h2.2c3.2-0.1,2.4-3.7,2.5-5.9c2.2-0.1,5.7,0.7,5.9-2.5
					C45.5,51.5,45.8,49,43,48.8z M43.5,53.5c0,0.3-0.2,0.5-0.5,0.5h-4.4c-0.6,0-1,0.5-1,1v4.4c0,0.3-0.2,0.5-0.5,0.5h-2.2
					c-0.3,0-0.5-0.2-0.5-0.5V55c0-0.5-0.4-1-1-1H29c-0.3,0-0.5-0.2-0.5-0.5v-2.2c0-0.3,0.2-0.5,0.5-0.5c0,0,4.4,0,4.4,0
					c0.5,0,1-0.5,1-1v-4.4c0-0.3,0.2-0.5,0.5-0.5h2.2c0.3,0,0.5,0.2,0.5,0.5v4.4c0,0.6,0.5,1,1,1H43c0.3,0,0.5,0.2,0.5,0.5
					C43.5,51.3,43.5,53.5,43.5,53.5z"/>
				<path class="st0" d="M34.9,62.4c-3.1-0.1-3-3.1-3-5.1c0-0.3,0-0.6,0-0.8c-0.3,0-0.5,0-0.8,0c-2,0.1-5,0.2-5.1-3l0-2.2
					c0.1-3.1,3.1-3.1,5.1-3c0.3,0,0.6,0,0.8,0c0-0.3,0-0.5,0-0.8c-0.1-2-0.2-4.9,2.9-5.1h2.2c3.1,0.1,3,3.1,3,5.1c0,0.3,0,0.6,0,0.8
					l3,0c3.1,0.2,3,2.9,2.9,4.8l0,0.4c-0.1,3.1-3.1,3-5.1,3c-0.3,0-0.5,0-0.8,0c0,0.3,0,0.5,0,0.8c0.1,2,0.2,4.9-3,5.1H34.9z
					 M32,55.5c0.2,0,0.3,0,0.4,0l0.5,0l0,0.5c0,0.4,0,0.9,0,1.4c-0.1,2.4,0,3.9,2,4h2.2c2-0.1,2.1-1.7,2-4c0-0.5,0-0.9,0-1.4l0-0.5
					l0.5,0c0.4,0,0.9,0,1.3,0c2.4,0.1,4,0,4.1-2l0-0.4c0.1-2.2,0-3.6-2-3.8h-3.9l0-0.5c0-0.4,0-0.9,0-1.4c0.1-2.4,0-4-2-4h-2.2
					c-1.9,0.1-2,1.7-2,4c0,0.5,0,1,0,1.4l0,0.5l-0.5,0c-0.4,0-0.9,0-1.4,0c-2.4-0.1-4,0-4.1,2l0,2.2c0.1,2,1.7,2.1,4.1,2
					C31.4,55.5,31.7,55.5,32,55.5z M34.9,60.4c-0.5,0-1-0.5-1-1V55c0-0.3-0.2-0.5-0.5-0.5H29c-0.2,0-0.5-0.1-0.7-0.3
					C28.1,54,28,53.8,28,53.5l0-2.2c0-0.3,0.1-0.5,0.3-0.7s0.4-0.3,0.7-0.3l0,0c0.3,0,0.9,0,2.2,0c1,0,2.1,0,2.2,0h0
					c0.3,0,0.5-0.2,0.5-0.5v-4.4c0-0.5,0.4-1,1-1h2.2c0.5,0,1,0.4,1,1v4.4c0,0.3,0.2,0.5,0.5,0.5H43c0.2,0,0.5,0.1,0.7,0.3
					c0.2,0.2,0.3,0.4,0.3,0.7h0c0,0.2,0,0.5,0,1.3c0,0.4,0,0.9,0,0.9l0,0l0,0c0,0.3-0.1,0.5-0.3,0.7c-0.2,0.2-0.5,0.3-0.7,0.3h-4.4
					c-0.3,0-0.5,0.2-0.5,0.5v4.4c0,0.5-0.4,1-1,1H34.9z M33.4,53.5c0.8,0,1.5,0.7,1.5,1.5v4.5l2.2,0l0-4.4c0-0.8,0.7-1.5,1.5-1.5H43
					c0-0.1,0-0.4,0-0.9c0-0.5,0-1,0-1.2l0-0.1l-4.4,0c-0.8,0-1.5-0.7-1.5-1.5v-4.4l-2.2,0l0,4.4c0,0.8-0.7,1.5-1.5,1.5l0,0
					c-0.2,0-0.8,0-2.2,0c-1,0-2,0-2.2,0h0l0,2.2L33.4,53.5z"/>
			</g>
			<g>
				<path class="st0" d="M35.5,34.3C36.7,35,47.7,27.3,48,19.8c0-3.8-3.1-6.9-6.9-6.9c-1.9,0-3.8,0.8-5.1,2.2
					c-2.6-2.8-6.9-3-9.7-0.5C18.2,22.1,33.9,33.7,35.5,34.3z M30.9,14.9c4,0,3.9,3.7,5.6,2.7c5.6-7.8,18.1,2.5-0.6,14.6
					c-2.1-1.4-10-7-10-12.5C26.1,17.1,28.2,14.9,30.9,14.9z"/>
				<path class="st0" d="M35.7,34.8c-0.2,0-0.3,0-0.4-0.1c-1.3-0.5-10.3-7-11.6-13.6c-0.5-2.6,0.3-4.9,2.3-6.8
					c2.9-2.6,7.3-2.5,10,0.1c1.4-1.3,3.2-2,5.1-2c0,0,0,0,0,0c4.1,0,7.4,3.3,7.4,7.4c-0.2,6.1-7.2,12.4-10.9,14.4
					C36.6,34.7,36.1,34.8,35.7,34.8z M35.7,33.8c0.4,0.1,2.1-0.8,4.6-2.7c1.6-1.4,7-6.2,7.2-11.3c0-3.5-2.9-6.4-6.4-6.4c0,0,0,0,0,0
					c-1.8,0-3.5,0.8-4.7,2.1L36,15.9l-0.4-0.4c-2.4-2.6-6.4-2.8-9-0.4c-1.8,1.6-2.5,3.6-2,5.9C25.9,27.1,34.7,33.4,35.7,33.8
					L35.7,33.8z M36,32.8l-0.3-0.2c-2.4-1.6-10.2-7.2-10.2-12.9c0-3,2.4-5.4,5.4-5.4l0,0c0,0,0,0,0,0c2.4,0,3.5,1.3,4.2,2.1
					c0.6,0.7,0.8,0.8,1,0.7c1.6-2.2,4-3.2,6.2-2.7c2,0.5,3.5,2,3.9,4.1c0.4,2,0.1,7.4-10,14L36,32.8z M31,15.4
					C31,15.4,31,15.4,31,15.4L31,15.4c-2.4,0-4.4,2-4.4,4.4c0,5.1,7.4,10.4,9.5,11.9c6.5-4.3,10-9,9.3-12.8c-0.3-1.7-1.5-3-3.1-3.3
					c-1.9-0.4-3.9,0.5-5.2,2.4L36.8,18c-1.1,0.6-1.8-0.2-2.4-0.8C33.8,16.4,32.9,15.4,31,15.4z"/>
			</g>
		</g>
	</g>
</g>
</svg>
