<?xml version="1.0" encoding="utf-8"?>
<!-- Generator: Adobe Illustrator 27.8.1, SVG Export Plug-In . SVG Version: 6.00 Build 0)  -->
<svg version="1.1" id="Layer_1" xmlns="http://www.w3.org/2000/svg" xmlns:xlink="http://www.w3.org/1999/xlink" x="0px" y="0px"
	 viewBox="0 0 72 72" style="enable-background:new 0 0 72 72;" xml:space="preserve">
<style type="text/css">
	.st0{fill:#F2590D;stroke:#F2590D;}
</style>
<g>
	<g>
		<path class="st0" d="M67.2,38.2C67.2,38.2,67.2,38.2,67.2,38.2L67.2,38.2l-9-21.3c0.4-0.7,0.7-1.4,0.7-2.3c0-2.3-1.9-4.2-4.2-4.2
			c-1.8,0-3.4,1.2-3.9,2.8h-6.5l0.2-0.8c0.3-1.5-0.7-2.7-2.2-2.7H29.8c-1.5,0-2.5,1.2-2.2,2.7l0.2,0.8h-6.5
			c-0.6-1.6-2.1-2.8-3.9-2.8c-2.3,0-4.2,1.9-4.2,4.2c0,0.8,0.3,1.6,0.7,2.3l-9,21.3c0,6.5,5.6,11.7,12.5,11.7
			c6.9,0,12.4-5.2,12.5-11.7l-9-21.4c0.3-0.5,0.5-1,0.6-1.6h6.8l0.3,1.4c0.3,1.5,1.8,2.7,3.4,2.7h0.7v34h-6.9
			c-1.5,0-3.1,1.2-3.6,2.7l-1.1,3.7c-0.4,1.5,0.4,2.7,2,2.7h26.4c1.5,0,2.4-1.2,2-2.7L50,56.1c-0.4-1.5-2.1-2.7-3.6-2.7h-6.9v-34
			h0.7c1.5,0,3-1.2,3.4-2.7l0.3-1.4h6.8c0.1,0.6,0.3,1.1,0.6,1.6l-9,21.3l0,0c0,6.5,5.6,11.7,12.5,11.7C61.6,50,67.2,44.7,67.2,38.2
			L67.2,38.2L67.2,38.2z M17.3,12.5c1.1,0,2.1,0.9,2.1,2.1s-0.9,2.1-2.1,2.1s-2.1-0.9-2.1-2.1S16.1,12.5,17.3,12.5z M17.3,47.9
			c-5,0-9.1-3.3-10.2-7.6h20.3C26.4,44.6,22.2,47.9,17.3,47.9z M27.5,38.2H7v0l8.4-19.8c0.6,0.3,1.2,0.4,1.8,0.4
			c0.7,0,1.3-0.2,1.8-0.4L27.5,38.2z M46.4,55.5L46.4,55.5c0.6,0,1.4,0.6,1.6,1.2l1.1,3.7H22.9l1.1-3.7c0.2-0.6,1-1.2,1.6-1.2h6.9
			h6.9H46.4z M34.6,53.4v-34h2.8v34H34.6z M42.4,12l-0.9,4.3c-0.1,0.5-0.8,1.1-1.3,1.1h-8.3c-0.5,0-1.2-0.5-1.3-1.1L29.6,12
			c0-0.1,0-0.2,0-0.2c0,0,0.1,0,0.2,0h12.5c0.1,0,0.2,0,0.2,0h0C42.4,11.9,42.4,11.9,42.4,12z M54.7,12.5c1.1,0,2.1,0.9,2.1,2.1
			s-0.9,2.1-2.1,2.1c-1.1,0-2.1-0.9-2.1-2.1S53.6,12.5,54.7,12.5z M54.7,47.9c-5,0-9.1-3.3-10.2-7.6h20.3
			C63.9,44.6,59.7,47.9,54.7,47.9z M44.5,38.2l8.4-19.8c0.6,0.3,1.2,0.4,1.8,0.4c0.7,0,1.3-0.2,1.8-0.4l8.4,19.8H44.5z"/>
	</g>
</g>
<g>
</g>
<g>
</g>
<g>
</g>
<g>
</g>
<g>
</g>
<g>
</g>
<g>
</g>
<g>
</g>
<g>
</g>
<g>
</g>
<g>
</g>
<g>
</g>
<g>
</g>
<g>
</g>
<g>
</g>
</svg>
