<?xml version="1.0" encoding="UTF-8"?>
<svg id="Layer_1" xmlns="http://www.w3.org/2000/svg" version="1.1" viewBox="0 0 1280 827.7">
  <!-- Generator: Adobe Illustrator 29.7.1, SVG Export Plug-In . SVG Version: 2.1.1 Build 8)  -->
  <defs>
    <style>
      .st0, .st1 {
        fill: none;
      }

      .st1 {
        stroke: #a7b6be;
        stroke-miterlimit: 10;
        stroke-width: 7px;
      }

      .st2, .st3 {
        fill: #005fcc;
      }

      .st4, .st5 {
        fill: #950471;
      }

      .st6, .st7 {
        fill: #1f7a36;
      }

      .st6, .st5, .st8, .st3 {
        opacity: .3;
      }

      .st9 {
        fill: #fff;
      }

      .st8, .st10 {
        fill: #fd3;
      }

      .st11 {
        fill: #a7b6be;
      }
    </style>
  </defs>
  <polyline class="st1" points="386.1 239.4 633.5 239.4 633.5 380.4"/>
  <polyline class="st1" points="215 563 215 687.9 434.1 687.9"/>
  <g>
    <g>
      <rect class="st8" x="478.2" y="29.3" width="336.5" height="145.4" rx="12" ry="12"/>
      <rect class="st10" x="465.3" y="19.8" width="336.5" height="145.4" rx="12" ry="12"/>
    </g>
    <g>
      <rect class="st0" x="482.4" y="63.6" width="296.6" height="77"/>
      <path d="M510.8,83.7c-1.4,0-2.6-.2-3.7-.5s-2.2-.8-3.3-1.6v-4.5h2.9l.4,2.6c.4.3.9.6,1.6.8s1.4.3,2.2.3,1.2,0,1.7-.3.8-.5,1.1-.8.4-.7.4-1.2-.1-.8-.3-1.2-.6-.7-1.1-.9-1.2-.6-2-.8c-1.5-.4-2.7-.9-3.6-1.4s-1.7-1.1-2.2-1.8-.7-1.6-.7-2.6.3-1.9.8-2.6,1.3-1.4,2.3-1.8,2.1-.7,3.4-.7c1.4,0,2.7.2,3.8.5s2,.9,2.8,1.5v4.2h-2.8l-.5-2.5c-.3-.2-.8-.4-1.3-.5s-1.2-.2-1.9-.2-1.1,0-1.6.3-.8.4-1.1.8-.4.7-.4,1.2.1.8.3,1.1.6.6,1.1.9,1.3.6,2.2.9c2,.6,3.6,1.3,4.6,2.2s1.6,2.2,1.6,3.7-.3,2-.9,2.7-1.4,1.4-2.4,1.8-2.2.6-3.6.6Z"/>
      <path d="M525,83.7c-1.4,0-2.6-.5-3.4-1.4s-1.2-2.3-1.2-4.3v-5.7l-1.5-.4v-2.2h5.2v8.4c0,1,.2,1.7.5,2.1s.9.6,1.6.6,1-.1,1.5-.3.8-.5,1-.9v-7.3l-1.6-.4v-2.2h5.3v11.1l1.7.4v2.2h-4.9l-.3-1.7c-.4.6-1,1.1-1.6,1.5s-1.4.5-2.2.5Z"/>
      <path d="M543.4,83.7c-.8,0-1.6-.2-2.2-.5s-1.1-.8-1.5-1.5l-.3,1.7h-3.2v-17.2l-2-.4v-2.2h5.7v7.5c.4-.6.9-1,1.5-1.3s1.3-.4,2-.4c1.1,0,2.1.3,2.8.9s1.4,1.4,1.8,2.5.6,2.4.6,3.8v.3c0,1.4-.2,2.5-.6,3.6s-1,1.8-1.8,2.4-1.7.8-2.9.8ZM542.3,80.8c.9,0,1.6-.3,2-1s.6-1.6.6-2.9v-.3c0-.9,0-1.7-.3-2.3s-.5-1.1-.9-1.5-.9-.5-1.5-.5-1,.1-1.4.4-.7.6-.9,1.1v5.7c.3.4.6.7,1,1s.8.3,1.4.3Z"/>
      <path d="M550,83.4v-2.2l1.8-.4v-8.5l-2-.4v-2.2h5.4l.2,1.8c.4-.7,1-1.2,1.7-1.5s1.4-.5,2.3-.5,1.6.2,2.3.6,1.1,1,1.4,1.8c.4-.7,1-1.3,1.7-1.7s1.5-.6,2.4-.6c1.4,0,2.4.5,3.2,1.4s1.2,2.3,1.2,4.2v5.8l1.8.4v2.2h-7.1v-2.2l1.6-.4v-5.8c0-1-.2-1.7-.5-2.1s-.8-.6-1.5-.6-1.1.2-1.5.5-.7.8-.9,1.3v6.7l1.5.4v2.2h-6.7v-2.2l1.5-.4v-5.8c0-1-.2-1.7-.5-2.1s-.8-.6-1.5-.6-1,.1-1.4.3-.7.5-.9.9v7.3l1.6.4v2.2h-7.1Z"/>
      <path d="M574.3,83.4v-2.2l1.8-.4v-8.5l-2-.4v-2.2h5.7v11.1l1.8.4v2.2h-7.3ZM576,66.8v-3.2h3.8v3.2h-3.8Z"/>
      <path d="M588.7,83.7c-1,0-2,0-2.9-.3s-1.7-.5-2.5-.8v-3.9s2.5,0,2.5,0l.5,2c.3.1.6.3.9.3s.7.1,1.2.1c.8,0,1.4-.1,1.8-.4s.5-.6.5-1-.2-.7-.5-1-1.1-.5-2.2-.8c-1.6-.3-2.8-.9-3.6-1.6s-1.2-1.6-1.2-2.7.2-1.5.6-2.1,1-1.1,1.8-1.5,1.8-.6,3-.6,2,0,2.8.3,1.6.5,2.2.8v3.8s-2.5,0-2.5,0l-.4-1.8c-.2-.2-.5-.3-.8-.4s-.7-.1-1-.1c-.7,0-1.2.1-1.5.4s-.5.6-.5,1,0,.5.2.7.4.4.7.6.9.3,1.6.5c1.7.4,2.9.9,3.7,1.6s1.2,1.6,1.2,2.7-.5,2.3-1.4,3.1-2.3,1.2-4.2,1.2Z"/>
      <path d="M601.9,83.7c-1,0-2,0-2.9-.3s-1.7-.5-2.5-.8v-3.9s2.5,0,2.5,0l.5,2c.3.1.6.3.9.3s.7.1,1.2.1c.8,0,1.4-.1,1.8-.4s.5-.6.5-1-.2-.7-.5-1-1.1-.5-2.2-.8c-1.6-.3-2.8-.9-3.6-1.6s-1.2-1.6-1.2-2.7.2-1.5.6-2.1,1-1.1,1.8-1.5,1.8-.6,3-.6,2,0,2.8.3,1.6.5,2.2.8v3.8s-2.5,0-2.5,0l-.4-1.8c-.2-.2-.5-.3-.8-.4s-.7-.1-1-.1c-.7,0-1.2.1-1.5.4s-.5.6-.5,1,0,.5.2.7.4.4.7.6.9.3,1.6.5c1.7.4,2.9.9,3.7,1.6s1.2,1.6,1.2,2.7-.5,2.3-1.4,3.1-2.3,1.2-4.2,1.2Z"/>
      <path d="M613.7,83.7c-1.4,0-2.4-.4-3.2-1.1s-1.2-1.7-1.2-3,.5-2.3,1.6-3.2,2.6-1.2,4.6-1.2h1.8v-1c0-.7-.2-1.2-.6-1.6s-1-.6-1.7-.6-.8,0-1.1.1-.6.2-.9.4l-.3,1.8h-2.7v-3.6c.7-.4,1.4-.7,2.3-1s1.8-.4,2.8-.4c1.8,0,3.2.4,4.3,1.3s1.6,2,1.6,3.6v5.7c0,.2,0,.4,0,.6s0,.4,0,.5l1.4.2v2.2h-4.6c0-.2-.2-.5-.3-.8s-.2-.5-.2-.8c-.4.6-1,1-1.6,1.3s-1.3.5-2.1.5ZM612.4,67.1l-1.9-.5c0-.6.1-1.1.4-1.6s.6-.9,1.1-1.2.9-.4,1.4-.4.8.1,1.3.3.9.4,1.3.6.7.3,1,.3c.3,0,.6-.1.8-.4s.3-.6.3-1l1.9.5c0,.6-.1,1.1-.4,1.6s-.6.9-1.1,1.1-.9.4-1.4.4-.9-.1-1.3-.3-.9-.4-1.2-.6-.7-.3-1-.3-.6.1-.8.4-.3.6-.3,1ZM614.7,81c.5,0,1-.1,1.5-.3s.8-.5,1.1-.9v-2.2h-1.8c-.8,0-1.4.2-1.8.6s-.6.8-.6,1.3.2.9.5,1.1.7.4,1.3.4Z"/>
      <path d="M630.3,83.7c-1.4,0-2.5-.3-3.5-.9s-1.7-1.4-2.2-2.5-.8-2.3-.8-3.6v-.3c0-1.4.3-2.6.8-3.6s1.3-1.9,2.2-2.5,2.1-.9,3.5-.9,2.5.3,3.5.9,1.7,1.4,2.2,2.5.8,2.3.8,3.6v.3c0,1.4-.3,2.6-.8,3.6s-1.3,1.9-2.2,2.5-2.1.9-3.5.9ZM630.3,80.9c.6,0,1.2-.2,1.6-.5s.7-.8.9-1.5.3-1.3.3-2.2v-.3c0-.8,0-1.5-.3-2.2s-.5-1.1-.9-1.5-.9-.5-1.6-.5-1.2.2-1.6.5-.7.8-.9,1.5-.3,1.3-.3,2.2v.3c0,.8,0,1.6.3,2.2s.5,1.1.9,1.5.9.5,1.6.5Z"/>
      <path d="M650.1,83.7c-1.1,0-2-.3-2.8-.8-.8-.6-1.4-1.4-1.8-2.4-.4-1-.6-2.2-.6-3.5v-.3c0-1.4.2-2.7.6-3.8s1-1.9,1.8-2.5c.8-.6,1.7-.9,2.8-.9s1.4.2,2,.5c.6.3,1.1.7,1.5,1.3v-4.9l-2-.4v-2.2h5.7v17.2l1.8.4v2.2h-5l-.3-1.7c-.4.6-.9,1.1-1.5,1.4s-1.3.5-2.1.5ZM651.2,80.8c.5,0,1-.1,1.4-.3.4-.2.7-.5,1-1v-5.8c-.3-.4-.6-.8-1-1-.4-.2-.8-.4-1.3-.4s-1.1.2-1.5.6-.7.9-.9,1.5c-.2.7-.3,1.4-.3,2.3v.3c0,1.2.2,2.1.6,2.8s1.1,1,2,1Z"/>
      <path d="M666.7,83.7c-1.4,0-2.5-.3-3.5-.9-1-.6-1.7-1.4-2.2-2.5-.5-1.1-.8-2.3-.8-3.6v-.3c0-1.4.3-2.6.8-3.6.5-1.1,1.3-1.9,2.2-2.5,1-.6,2.1-.9,3.5-.9s2.5.3,3.5.9,1.7,1.4,2.2,2.5c.5,1,.8,2.3.8,3.6v.3c0,1.4-.3,2.6-.8,3.6-.5,1.1-1.3,1.9-2.2,2.5s-2.1.9-3.5.9ZM666.7,80.9c.6,0,1.2-.2,1.6-.5s.7-.8.9-1.5c.2-.6.3-1.3.3-2.2v-.3c0-.8,0-1.5-.3-2.2-.2-.6-.5-1.1-.9-1.5-.4-.4-.9-.5-1.6-.5s-1.2.2-1.6.5c-.4.4-.7.8-.9,1.5s-.3,1.3-.3,2.2v.3c0,.8,0,1.6.3,2.2s.5,1.1.9,1.5c.4.3.9.5,1.6.5Z"/>
      <path d="M686.5,83.7c-1.1,0-2-.3-2.8-.8-.8-.6-1.4-1.4-1.8-2.4-.4-1-.6-2.2-.6-3.5v-.3c0-1.4.2-2.7.6-3.8s1-1.9,1.8-2.5c.8-.6,1.7-.9,2.8-.9s1.4.2,2,.5c.6.3,1.1.7,1.5,1.3v-4.9l-2-.4v-2.2h5.7v17.2l1.8.4v2.2h-5l-.3-1.7c-.4.6-.9,1.1-1.5,1.4s-1.3.5-2.1.5ZM687.6,80.8c.5,0,1-.1,1.4-.3.4-.2.7-.5,1-1v-5.8c-.3-.4-.6-.8-1-1-.4-.2-.8-.4-1.3-.4s-1.1.2-1.5.6-.7.9-.9,1.5c-.2.7-.3,1.4-.3,2.3v.3c0,1.2.2,2.1.6,2.8s1.1,1,2,1Z"/>
      <path d="M703.2,83.7c-1.4,0-2.5-.3-3.5-.9-1-.6-1.7-1.4-2.2-2.5-.5-1.1-.8-2.3-.8-3.6v-.3c0-1.4.3-2.6.8-3.6.5-1.1,1.3-1.9,2.2-2.5,1-.6,2.1-.9,3.5-.9s2.5.3,3.5.9,1.7,1.4,2.2,2.5c.5,1,.8,2.3.8,3.6v.3c0,1.4-.3,2.6-.8,3.6-.5,1.1-1.3,1.9-2.2,2.5s-2.1.9-3.5.9ZM703.2,80.9c.6,0,1.2-.2,1.6-.5s.7-.8.9-1.5c.2-.6.3-1.3.3-2.2v-.3c0-.8,0-1.5-.3-2.2-.2-.6-.5-1.1-.9-1.5-.4-.4-.9-.5-1.6-.5s-1.2.2-1.6.5c-.4.4-.7.8-.9,1.5s-.3,1.3-.3,2.2v.3c0,.8,0,1.6.3,2.2s.5,1.1.9,1.5c.4.3.9.5,1.6.5Z"/>
      <path d="M717.2,83.7c-1,0-2,0-2.9-.3-.9-.2-1.7-.5-2.5-.8v-3.9s2.5,0,2.5,0l.5,2c.3.1.6.3.9.3s.7.1,1.2.1c.8,0,1.4-.1,1.8-.4.3-.3.5-.6.5-1s-.2-.7-.5-1c-.4-.3-1.1-.5-2.2-.8-1.6-.3-2.8-.9-3.6-1.6-.8-.7-1.2-1.6-1.2-2.7s.2-1.5.6-2.1c.4-.6,1-1.1,1.8-1.5.8-.4,1.8-.6,3-.6s2,0,2.8.3c.9.2,1.6.5,2.2.8v3.8s-2.5,0-2.5,0l-.4-1.8c-.2-.2-.5-.3-.8-.4-.3,0-.7-.1-1-.1-.7,0-1.2.1-1.5.4-.3.3-.5.6-.5,1s0,.5.2.7c.1.2.4.4.7.6.4.2.9.3,1.6.5,1.7.4,2.9.9,3.7,1.6.8.6,1.2,1.6,1.2,2.7s-.5,2.3-1.4,3.1-2.3,1.2-4.2,1.2Z"/>
      <path d="M730.3,83.7c-1,0-2,0-2.9-.3-.9-.2-1.7-.5-2.5-.8v-3.9s2.5,0,2.5,0l.5,2c.3.1.6.3.9.3s.7.1,1.2.1c.8,0,1.4-.1,1.8-.4.3-.3.5-.6.5-1s-.2-.7-.5-1c-.4-.3-1.1-.5-2.2-.8-1.6-.3-2.8-.9-3.6-1.6-.8-.7-1.2-1.6-1.2-2.7s.2-1.5.6-2.1c.4-.6,1-1.1,1.8-1.5.8-.4,1.8-.6,3-.6s2,0,2.8.3c.9.2,1.6.5,2.2.8v3.8s-2.5,0-2.5,0l-.4-1.8c-.2-.2-.5-.3-.8-.4-.3,0-.7-.1-1-.1-.7,0-1.2.1-1.5.4-.3.3-.5.6-.5,1s0,.5.2.7c.1.2.4.4.7.6.4.2.9.3,1.6.5,1.7.4,2.9.9,3.7,1.6.8.6,1.2,1.6,1.2,2.7s-.5,2.3-1.4,3.1-2.3,1.2-4.2,1.2Z"/>
      <path d="M737.4,83.4v-2.2l1.8-.4v-8.5l-2-.4v-2.2h5.7v11.1l1.8.4v2.2h-7.3ZM739.1,66.8v-3.2h3.8v3.2h-3.8Z"/>
      <path d="M752.5,83.7c-1.3,0-2.5-.3-3.4-.9s-1.7-1.4-2.3-2.4c-.5-1-.8-2.2-.8-3.5v-.5c0-1.4.3-2.6.8-3.6s1.2-1.9,2.2-2.5c.9-.6,2-.9,3.3-.9s2.3.2,3.1.7,1.5,1.2,1.9,2.1.7,2,.7,3.4v2h-8.1c0,.7.2,1.2.5,1.7.2.5.6.8,1.1,1.1s1,.4,1.7.4,1.3,0,1.9-.3c.6-.2,1.2-.4,1.7-.8l1,2.3c-.6.5-1.3.8-2.1,1.1-.9.3-1.8.5-3,.5ZM747.5,67v-.3l3.2-3.1h2.7l3.2,3.1v.3h-2.9l-1.7-1.8-1.7,1.8h-2.9ZM749.8,75.2h4.6v-.3c0-.6,0-1-.2-1.4-.1-.4-.4-.7-.7-.9-.3-.2-.7-.3-1.3-.3s-.9.1-1.2.4-.6.6-.8,1.1c-.2.4-.3,1-.4,1.5h0Z"/>
      <path d="M536.4,114.9c-1.3,0-2.5-.3-3.4-.9s-1.7-1.4-2.3-2.4-.8-2.2-.8-3.5v-.5c0-1.4.3-2.6.8-3.6s1.2-1.9,2.2-2.5,2-.9,3.3-.9,2.3.2,3.1.7,1.5,1.2,1.9,2.1.7,2,.7,3.4v2h-8.1c0,.7.2,1.2.5,1.7s.6.8,1.1,1.1,1,.4,1.7.4,1.3,0,1.9-.3,1.2-.4,1.7-.8l1,2.3c-.6.5-1.3.8-2.1,1.1s-1.8.5-3,.5ZM533.8,106.4h4.6v-.3c0-.6,0-1-.2-1.4s-.4-.7-.7-.9-.7-.3-1.3-.3-.9.1-1.2.4-.6.6-.8,1.1-.3,1-.4,1.5h0ZM533.8,98.3l2.5-3.5h3.9c0,0-3.5,3.5-3.5,3.5h-3Z"/>
      <path d="M548.9,114.9c-1.3,0-2.3-.4-3-1.1s-1-1.8-1-3.3v-7h-1.9v-2.6h1.9v-3.4h3.7v3.4h2.5v2.6h-2.5v7c0,.5.1.9.3,1.1s.5.3.9.3.4,0,.7,0,.4,0,.6,0l.3,2.7c-.4.1-.8.2-1.2.3s-.9.1-1.3.1Z"/>
      <path d="M553.1,114.6v-2.2l1.8-.4v-8.5l-2-.4v-2.2h5.7v11.1l1.8.4v2.2h-7.3ZM554.7,98v-3.2h3.8v3.2h-3.8Z"/>
      <path d="M568.1,114.9c-1.3,0-2.5-.3-3.4-.9s-1.7-1.4-2.2-2.5-.8-2.2-.8-3.6v-.4c0-1.4.3-2.6.8-3.6s1.3-1.9,2.2-2.5,2.1-.9,3.4-.9,2.3.2,3.2.6,1.6.8,2.2,1.3v3.9h-2.8l-.5-2.5c-.2-.2-.5-.4-.8-.5s-.6-.2-1-.2c-.7,0-1.2.2-1.7.5s-.8.8-1,1.4-.3,1.4-.3,2.3v.4c0,.9.1,1.7.4,2.3s.6,1.1,1,1.3.9.4,1.4.4,1.2-.2,1.6-.5.7-.8.8-1.5h3.2c-.1,1-.4,1.9-.9,2.6s-1,1.3-1.8,1.6-1.8.6-3,.6Z"/>
      <path d="M581.9,114.9c-1.4,0-2.5-.3-3.5-.9s-1.7-1.4-2.2-2.5-.8-2.3-.8-3.6v-.3c0-1.4.3-2.6.8-3.6s1.3-1.9,2.2-2.5,2.1-.9,3.5-.9,2.5.3,3.5.9,1.7,1.4,2.2,2.5.8,2.3.8,3.6v.3c0,1.4-.3,2.6-.8,3.6s-1.3,1.9-2.2,2.5-2.1.9-3.5.9ZM581.9,112.1c.6,0,1.2-.2,1.6-.5s.7-.8.9-1.5.3-1.3.3-2.2v-.3c0-.8,0-1.5-.3-2.2s-.5-1.1-.9-1.5-.9-.5-1.6-.5-1.2.2-1.6.5-.7.8-.9,1.5-.3,1.3-.3,2.2v.3c0,.8,0,1.6.3,2.2s.5,1.1.9,1.5.9.5,1.6.5Z"/>
      <path d="M596.6,114.6v-2.2l1.8-.4v-8.5l-2-.4v-2.2h5.4v1.7c.1,0,.2.3.2.3.3-.7.8-1.3,1.3-1.7s1.1-.6,1.8-.6.5,0,.7,0,.5,0,.7.1l-.4,3.4h-1.8c-.5-.1-1,0-1.3.2s-.6.5-.9.9v6.7l1.8.4v2.2h-7.3Z"/>
      <path d="M613.9,114.9c-1.3,0-2.5-.3-3.4-.9s-1.7-1.4-2.3-2.4-.8-2.2-.8-3.5v-.5c0-1.4.3-2.6.8-3.6s1.2-1.9,2.2-2.5,2-.9,3.3-.9,2.3.2,3.1.7,1.5,1.2,1.9,2.1.7,2,.7,3.4v2h-8.1c0,.7.2,1.2.5,1.7s.6.8,1.1,1.1,1,.4,1.7.4,1.3,0,1.9-.3,1.2-.4,1.7-.8l1,2.3c-.6.5-1.3.8-2.1,1.1s-1.8.5-3,.5ZM611.3,106.4h4.6v-.3c0-.6,0-1-.2-1.4s-.4-.7-.7-.9-.7-.3-1.3-.3-.9.1-1.2.4-.6.6-.8,1.1-.3,1-.4,1.5h0Z"/>
      <path d="M627.1,120.2c-.7,0-1.5,0-2.3-.3s-1.6-.4-2.3-.8l.7-2.6c.6.3,1.2.5,1.9.6s1.3.2,1.9.2c1,0,1.7-.3,2.2-.8s.7-1.3.7-2.3v-.9c-.4.5-.9.9-1.4,1.2s-1.2.4-1.9.4c-1.1,0-2.1-.3-2.9-.8s-1.4-1.4-1.8-2.4-.6-2.2-.6-3.5v-.3c0-1.4.2-2.7.6-3.8s1-1.9,1.8-2.5,1.7-.9,2.8-.9,1.5.2,2.1.5,1.1.8,1.5,1.5l.3-1.7h3.2v13.3c0,1.2-.3,2.3-.8,3.1s-1.2,1.6-2.2,2.1-2.1.7-3.4.7ZM627.5,112c.5,0,1-.1,1.4-.3s.7-.5.9-.9v-6c-.2-.4-.5-.7-.9-1s-.8-.3-1.3-.3-1.2.2-1.5.6-.7.9-.9,1.5-.3,1.4-.3,2.3v.3c0,1.2.2,2.1.6,2.8s1.1,1,2.1,1ZM633,103.6l-1.6-2.7h3.7v2.2l-2.1.4Z"/>
      <path d="M642.1,114.9c-1.4,0-2.6-.5-3.4-1.4s-1.2-2.3-1.2-4.3v-5.7l-1.5-.4v-2.2h5.2v8.4c0,1,.2,1.7.5,2.1s.9.6,1.6.6,1-.1,1.5-.3c.4-.2.8-.5,1-.9v-7.3l-1.6-.4v-2.2h5.3v11.1l1.7.4v2.2h-4.9l-.3-1.7c-.4.6-1,1.1-1.6,1.5-.7.3-1.4.5-2.2.5Z"/>
      <path d="M652.2,114.6v-2.2l1.8-.4v-14.6l-2-.4v-2.2h5.7v17.2l1.8.4v2.2h-7.3Z"/>
      <path d="M665.3,114.9c-1.4,0-2.4-.4-3.2-1.1-.8-.7-1.2-1.7-1.2-3s.5-2.3,1.6-3.2c1-.8,2.6-1.2,4.6-1.2h1.8v-1c0-.7-.2-1.2-.6-1.6-.4-.4-1-.6-1.7-.6s-.8,0-1.1.1-.6.2-.9.4l-.3,1.8h-2.7v-3.6c.7-.4,1.4-.7,2.3-1s1.8-.4,2.8-.4c1.8,0,3.2.4,4.3,1.3s1.6,2,1.6,3.6v5.7c0,.2,0,.4,0,.6,0,.2,0,.4,0,.5l1.4.2v2.2h-4.6c0-.2-.2-.5-.3-.8,0-.3-.2-.5-.2-.8-.4.6-1,1-1.6,1.3s-1.3.5-2.1.5ZM666.3,112.2c.5,0,1-.1,1.5-.3.5-.2.8-.5,1.1-.9v-2.2h-1.8c-.8,0-1.4.2-1.8.6s-.6.8-.6,1.3.2.9.5,1.1c.3.3.7.4,1.3.4Z"/>
      <path d="M680.3,114.9c-1.3,0-2.3-.4-3-1.1-.7-.7-1-1.8-1-3.3v-7h-1.9v-2.6h1.9v-3.4h3.7v3.4h2.5v2.6h-2.5v7c0,.5.1.9.3,1.1.2.2.5.3.9.3s.4,0,.7,0c.2,0,.4,0,.6,0l.3,2.7c-.4.1-.8.2-1.2.3s-.9.1-1.3.1Z"/>
      <path d="M690.5,114.9c-1.4,0-2.5-.3-3.5-.9-1-.6-1.7-1.4-2.2-2.5-.5-1.1-.8-2.3-.8-3.6v-.3c0-1.4.3-2.6.8-3.6.5-1.1,1.3-1.9,2.2-2.5,1-.6,2.1-.9,3.5-.9s2.5.3,3.5.9,1.7,1.4,2.2,2.5c.5,1,.8,2.3.8,3.6v.3c0,1.4-.3,2.6-.8,3.6-.5,1.1-1.3,1.9-2.2,2.5s-2.1.9-3.5.9ZM690.5,112.1c.6,0,1.2-.2,1.6-.5s.7-.8.9-1.5c.2-.6.3-1.3.3-2.2v-.3c0-.8,0-1.5-.3-2.2-.2-.6-.5-1.1-.9-1.5-.4-.4-.9-.5-1.6-.5s-1.2.2-1.6.5c-.4.4-.7.8-.9,1.5s-.3,1.3-.3,2.2v.3c0,.8,0,1.6.3,2.2s.5,1.1.9,1.5c.4.3.9.5,1.6.5ZM688.3,98.3l2.5-3.5h3.9c0,0-3.5,3.5-3.5,3.5h-3Z"/>
      <path d="M698.9,114.6v-2.2l1.8-.4v-8.5l-2-.4v-2.2h5.4v1.7c.1,0,.2.3.2.3.3-.7.8-1.3,1.3-1.7.5-.4,1.1-.6,1.8-.6s.5,0,.7,0c.3,0,.5,0,.7.1l-.4,3.4h-1.8c-.5-.1-1,0-1.3.2-.3.2-.6.5-.9.9v6.7l1.8.4v2.2h-7.3Z"/>
      <path d="M709.9,114.6v-2.2l1.8-.4v-8.5l-2-.4v-2.2h5.7v11.1l1.8.4v2.2h-7.3ZM711.6,98v-3.2h3.8v3.2h-3.8Z"/>
      <path d="M725,114.9c-1.4,0-2.5-.3-3.5-.9-1-.6-1.7-1.4-2.2-2.5-.5-1.1-.8-2.3-.8-3.6v-.3c0-1.4.3-2.6.8-3.6.5-1.1,1.3-1.9,2.2-2.5,1-.6,2.1-.9,3.5-.9s2.5.3,3.5.9,1.7,1.4,2.2,2.5c.5,1,.8,2.3.8,3.6v.3c0,1.4-.3,2.6-.8,3.6-.5,1.1-1.3,1.9-2.2,2.5s-2.1.9-3.5.9ZM725,112.1c.6,0,1.2-.2,1.6-.5s.7-.8.9-1.5c.2-.6.3-1.3.3-2.2v-.3c0-.8,0-1.5-.3-2.2-.2-.6-.5-1.1-.9-1.5-.4-.4-.9-.5-1.6-.5s-1.2.2-1.6.5c-.4.4-.7.8-.9,1.5s-.3,1.3-.3,2.2v.3c0,.8,0,1.6.3,2.2s.5,1.1.9,1.5c.4.3.9.5,1.6.5Z"/>
    </g>
  </g>
  <g>
    <g>
      <rect class="st8" x="478.2" y="417.6" width="336.5" height="145.4" rx="12" ry="12"/>
      <rect class="st10" x="465.3" y="408.1" width="336.5" height="145.4" rx="12" ry="12"/>
    </g>
    <g>
      <rect class="st0" x="482.4" y="452" width="296.6" height="77"/>
      <path d="M504,471.8v-2.2l2-.4v-13.3l-2-.4v-2.2h7.6v2.2l-2,.4v13.3l2,.4v2.2h-7.6Z"/>
      <path d="M513.1,471.8v-2.2l1.8-.4v-8.5l-2-.4v-2.2h5.4l.2,2c.5-.7,1-1.2,1.7-1.6.7-.4,1.4-.6,2.3-.6,1.4,0,2.4.4,3.2,1.3.8.9,1.2,2.2,1.2,4.1v6l1.8.4v2.2h-7.1v-2.2l1.6-.4v-6c0-.9-.2-1.6-.5-2-.4-.4-.9-.6-1.6-.6s-1,.1-1.4.3c-.4.2-.7.5-1,1v7.2l1.5.4v2.2h-7Z"/>
      <path d="M529.7,471.8v-2.2l1.8-.4v-8.5l-2-.4v-2.2h5.7v11.1l1.8.4v2.2h-7.3ZM531,455.5l2.5-3.5h3.9c0,0-3.5,3.5-3.5,3.5h-3Z"/>
      <path d="M544.6,472.1c-1.3,0-2.5-.3-3.4-.9-1-.6-1.7-1.4-2.2-2.5-.5-1-.8-2.2-.8-3.6v-.4c0-1.4.3-2.6.8-3.6s1.3-1.9,2.2-2.5,2.1-.9,3.4-.9,2.3.2,3.2.6c.9.4,1.6.8,2.2,1.3v3.9h-2.8l-.5-2.5c-.2-.2-.5-.4-.8-.5s-.6-.2-1-.2c-.7,0-1.2.2-1.7.5-.4.3-.8.8-1,1.4-.2.6-.3,1.4-.3,2.3v.4c0,.9.1,1.7.4,2.3.2.6.6,1.1,1,1.3.4.3.9.4,1.4.4s1.2-.2,1.6-.5.7-.8.8-1.5h3.2c-.1,1-.4,1.9-.9,2.6s-1,1.3-1.8,1.6-1.8.6-3,.6Z"/>
      <path d="M551.8,471.8v-2.2l1.8-.4v-8.5l-2-.4v-2.2h5.7v11.1l1.8.4v2.2h-7.3ZM553.5,455.2v-3.2h3.8v3.2h-3.8Z"/>
      <path d="M566.9,472.1c-1.4,0-2.5-.3-3.5-.9-1-.6-1.7-1.4-2.2-2.5s-.8-2.3-.8-3.6v-.3c0-1.4.3-2.6.8-3.6s1.3-1.9,2.2-2.5,2.1-.9,3.5-.9,2.5.3,3.5.9,1.7,1.4,2.2,2.5c.5,1,.8,2.3.8,3.6v.3c0,1.4-.3,2.6-.8,3.6s-1.3,1.9-2.2,2.5c-1,.6-2.1.9-3.5.9ZM566.9,469.2c.6,0,1.2-.2,1.6-.5.4-.3.7-.8.9-1.5s.3-1.3.3-2.2v-.3c0-.8,0-1.5-.3-2.2s-.5-1.1-.9-1.5c-.4-.4-.9-.5-1.6-.5s-1.2.2-1.6.5c-.4.4-.7.8-.9,1.5s-.3,1.3-.3,2.2v.3c0,.8,0,1.6.3,2.2.2.6.5,1.1.9,1.5s.9.5,1.6.5Z"/>
      <path d="M586.6,472.1c-1.1,0-2-.3-2.8-.8-.8-.6-1.4-1.3-1.8-2.4-.4-1-.6-2.2-.6-3.5v-.3c0-1.4.2-2.7.6-3.8.4-1.1,1-1.9,1.8-2.5.8-.6,1.7-.9,2.8-.9s1.4.2,2,.5c.6.3,1.1.7,1.5,1.3v-4.9l-2-.4v-2.2h5.7v17.2l1.8.4v2.2h-5l-.3-1.7c-.4.6-.9,1.1-1.5,1.4s-1.3.5-2.1.5ZM587.7,469.2c.5,0,1-.1,1.4-.3.4-.2.7-.5,1-1v-5.8c-.3-.4-.6-.8-1-1s-.8-.4-1.3-.4-1.1.2-1.5.6-.7.9-.9,1.5c-.2.7-.3,1.4-.3,2.3v.3c0,1.2.2,2.1.6,2.8.4.7,1.1,1,2,1Z"/>
      <path d="M603.3,472.1c-1.4,0-2.5-.3-3.5-.9-1-.6-1.7-1.4-2.2-2.5s-.8-2.3-.8-3.6v-.3c0-1.4.3-2.6.8-3.6s1.3-1.9,2.2-2.5,2.1-.9,3.5-.9,2.5.3,3.5.9,1.7,1.4,2.2,2.5c.5,1,.8,2.3.8,3.6v.3c0,1.4-.3,2.6-.8,3.6s-1.3,1.9-2.2,2.5c-1,.6-2.1.9-3.5.9ZM603.3,469.2c.6,0,1.2-.2,1.6-.5.4-.3.7-.8.9-1.5s.3-1.3.3-2.2v-.3c0-.8,0-1.5-.3-2.2s-.5-1.1-.9-1.5c-.4-.4-.9-.5-1.6-.5s-1.2.2-1.6.5c-.4.4-.7.8-.9,1.5s-.3,1.3-.3,2.2v.3c0,.8,0,1.6.3,2.2.2.6.5,1.1.9,1.5s.9.5,1.6.5Z"/>
      <path d="M624.3,472.1c-1.3,0-2.5-.3-3.4-.9-1-.6-1.7-1.4-2.3-2.4s-.8-2.2-.8-3.5v-.5c0-1.4.3-2.6.8-3.6s1.2-1.9,2.2-2.5c.9-.6,2-.9,3.3-.9s2.3.2,3.1.7c.8.5,1.5,1.2,1.9,2.1.4.9.7,2,.7,3.4v2h-8.1c0,.7.2,1.2.5,1.7s.6.8,1.1,1.1,1,.4,1.7.4,1.3,0,1.9-.3c.6-.2,1.2-.4,1.7-.8l1,2.3c-.6.5-1.3.8-2.1,1.1-.9.3-1.8.5-3,.5ZM621.7,463.6h4.6v-.3c0-.6,0-1-.2-1.4-.1-.4-.4-.7-.7-.9-.3-.2-.7-.3-1.3-.3s-.9.1-1.2.4c-.3.3-.6.6-.8,1.1-.2.4-.3,1-.4,1.5h0Z"/>
      <path d="M637.3,472.1c-1,0-2,0-2.9-.3-.9-.2-1.7-.5-2.5-.8v-3.9s2.5,0,2.5,0l.5,2c.3.1.6.3.9.3.3,0,.7.1,1.2.1.8,0,1.4-.1,1.8-.4.3-.3.5-.6.5-1s-.2-.7-.5-1-1.1-.5-2.2-.8c-1.6-.3-2.8-.9-3.6-1.6s-1.2-1.6-1.2-2.7.2-1.5.6-2.1c.4-.6,1-1.1,1.8-1.5s1.8-.6,3-.6,2,0,2.8.3c.9.2,1.6.5,2.2.8v3.8s-2.5,0-2.5,0l-.4-1.8c-.2-.2-.5-.3-.8-.4-.3,0-.7-.1-1-.1-.7,0-1.2.1-1.5.4-.3.3-.5.6-.5,1s0,.5.2.7.4.4.7.6.9.3,1.6.5c1.7.4,2.9.9,3.7,1.6.8.6,1.2,1.6,1.2,2.7s-.5,2.3-1.4,3.1c-.9.8-2.3,1.2-4.2,1.2Z"/>
      <path d="M650,472.1c-1.3,0-2.3-.4-3-1.1-.7-.7-1-1.8-1-3.3v-7h-1.9v-2.6h1.9v-3.4h3.7v3.4h2.5v2.6h-2.5v7c0,.5.1.9.3,1.1.2.2.5.3.9.3s.4,0,.7,0c.2,0,.4,0,.6,0l.3,2.7c-.4.1-.8.2-1.2.3-.4,0-.9.1-1.3.1Z"/>
      <path d="M659.7,472.1c-1.4,0-2.6-.5-3.4-1.4-.8-.9-1.2-2.3-1.2-4.3v-5.7l-1.5-.4v-2.2h5.2v8.4c0,1,.2,1.7.5,2.1.3.4.9.6,1.6.6s1-.1,1.5-.3c.4-.2.8-.5,1-.9v-7.3l-1.6-.4v-2.2h5.3v11.1l1.7.4v2.2h-4.9l-.3-1.7c-.4.6-1,1.1-1.6,1.5-.7.3-1.4.5-2.2.5Z"/>
      <path d="M675.4,472.1c-1.1,0-2-.3-2.8-.8-.8-.6-1.4-1.3-1.8-2.4-.4-1-.6-2.2-.6-3.5v-.3c0-1.4.2-2.7.6-3.8.4-1.1,1-1.9,1.8-2.5.8-.6,1.7-.9,2.8-.9s1.4.2,2,.5c.6.3,1.1.7,1.5,1.3v-4.9l-2-.4v-2.2h5.7v17.2l1.8.4v2.2h-5l-.3-1.7c-.4.6-.9,1.1-1.5,1.4s-1.3.5-2.1.5ZM676.5,469.2c.5,0,1-.1,1.4-.3.4-.2.7-.5,1-1v-5.8c-.3-.4-.6-.8-1-1-.4-.2-.8-.4-1.3-.4s-1.1.2-1.5.6-.7.9-.9,1.5c-.2.7-.3,1.4-.3,2.3v.3c0,1.2.2,2.1.6,2.8.4.7,1.1,1,2,1Z"/>
      <path d="M692,472.1c-1.4,0-2.5-.3-3.5-.9-1-.6-1.7-1.4-2.2-2.5-.5-1.1-.8-2.3-.8-3.6v-.3c0-1.4.3-2.6.8-3.6.5-1.1,1.3-1.9,2.2-2.5,1-.6,2.1-.9,3.5-.9s2.5.3,3.5.9,1.7,1.4,2.2,2.5c.5,1,.8,2.3.8,3.6v.3c0,1.4-.3,2.6-.8,3.6-.5,1.1-1.3,1.9-2.2,2.5-1,.6-2.1.9-3.5.9ZM692,469.2c.6,0,1.2-.2,1.6-.5.4-.3.7-.8.9-1.5.2-.6.3-1.3.3-2.2v-.3c0-.8,0-1.5-.3-2.2-.2-.6-.5-1.1-.9-1.5-.4-.4-.9-.5-1.6-.5s-1.2.2-1.6.5c-.4.4-.7.8-.9,1.5s-.3,1.3-.3,2.2v.3c0,.8,0,1.6.3,2.2.2.6.5,1.1.9,1.5.4.3.9.5,1.6.5Z"/>
      <path d="M706.4,477.1v-2.2l1.8-.4v-13.8l-2-.4v-2.2h5.4l.2,1.6c.4-.6.9-1,1.5-1.4.6-.3,1.3-.5,2.1-.5s2.1.3,2.8.9c.8.6,1.4,1.4,1.8,2.5.4,1.1.6,2.3.6,3.8v.3c0,1.4-.2,2.5-.6,3.5-.4,1-1,1.8-1.8,2.4-.8.6-1.7.8-2.9.8s-1.4-.1-1.9-.4c-.6-.3-1-.7-1.4-1.2v4l1.8.4v2.2h-7.3ZM714.2,469.2c.9,0,1.6-.4,2.1-1.1.4-.7.6-1.7.6-2.9v-.3c0-.9,0-1.6-.3-2.3-.2-.6-.5-1.2-.9-1.5-.4-.4-.9-.6-1.5-.6s-1,.1-1.3.3c-.4.2-.7.6-.9,1v6c.2.4.5.7.9.9.4.2.8.3,1.4.3Z"/>
      <path d="M729,472.1c-1.3,0-2.5-.3-3.4-.9-1-.6-1.7-1.4-2.3-2.4-.5-1-.8-2.2-.8-3.5v-.5c0-1.4.3-2.6.8-3.6s1.2-1.9,2.2-2.5c.9-.6,2-.9,3.3-.9s2.3.2,3.1.7c.8.5,1.5,1.2,1.9,2.1.4.9.7,2,.7,3.4v2h-8.1c0,.7.2,1.2.5,1.7.2.5.6.8,1.1,1.1s1,.4,1.7.4,1.3,0,1.9-.3c.6-.2,1.2-.4,1.7-.8l1,2.3c-.6.5-1.3.8-2.1,1.1-.9.3-1.8.5-3,.5ZM726.4,463.6h4.6v-.3c0-.6,0-1-.2-1.4-.1-.4-.4-.7-.7-.9-.3-.2-.7-.3-1.3-.3s-.9.1-1.2.4c-.3.3-.6.6-.8,1.1-.2.4-.3,1-.4,1.5h0Z"/>
      <path d="M735.9,471.8v-2.2l1.8-.4v-14.6l-2-.4v-2.2h5.7v17.2l1.8.4v2.2h-7.3Z"/>
      <path d="M750.7,472.1c-1.4,0-2.5-.3-3.5-.9-1-.6-1.7-1.4-2.2-2.5s-.8-2.3-.8-3.6v-.3c0-1.4.3-2.6.8-3.6s1.3-1.9,2.2-2.5c1-.6,2.1-.9,3.5-.9s2.5.3,3.5.9,1.7,1.4,2.2,2.5c.5,1,.8,2.3.8,3.6v.3c0,1.4-.3,2.6-.8,3.6s-1.3,1.9-2.2,2.5c-1,.6-2.1.9-3.5.9ZM750.7,469.2c.6,0,1.2-.2,1.6-.5.4-.3.7-.8.9-1.5s.3-1.3.3-2.2v-.3c0-.8,0-1.5-.3-2.2s-.5-1.1-.9-1.5c-.4-.4-.9-.5-1.6-.5s-1.2.2-1.6.5c-.4.4-.7.8-.9,1.5-.2.6-.3,1.3-.3,2.2v.3c0,.8,0,1.6.3,2.2.2.6.5,1.1.9,1.5s.9.5,1.6.5Z"/>
      <path d="M517.6,503.3c-1.3,0-2.5-.3-3.4-.9-1-.6-1.7-1.4-2.2-2.5-.5-1-.8-2.2-.8-3.6v-.4c0-1.4.3-2.6.8-3.6s1.3-1.9,2.2-2.5,2.1-.9,3.4-.9,2.3.2,3.2.6c.9.4,1.6.8,2.2,1.3v3.9h-2.8l-.5-2.5c-.2-.2-.5-.4-.8-.5s-.6-.2-1-.2c-.7,0-1.2.2-1.7.5-.4.3-.8.8-1,1.4-.2.6-.3,1.4-.3,2.3v.4c0,.9.1,1.7.4,2.3.2.6.6,1.1,1,1.3.4.3.9.4,1.4.4s1.2-.2,1.6-.5.7-.8.8-1.5h3.2c-.1,1-.4,1.9-.9,2.6s-1,1.3-1.8,1.6-1.8.6-3,.6Z"/>
      <path d="M531.4,503.3c-1.3,0-2.5-.3-3.4-.9-1-.6-1.7-1.4-2.3-2.4s-.8-2.2-.8-3.5v-.5c0-1.4.3-2.6.8-3.6s1.2-1.9,2.2-2.5c.9-.6,2-.9,3.3-.9s2.3.2,3.1.7c.8.5,1.5,1.2,1.9,2.1.4.9.7,2,.7,3.4v2h-8.1c0,.7.2,1.2.5,1.7s.6.8,1.1,1.1,1,.4,1.7.4,1.3,0,1.9-.3c.6-.2,1.2-.4,1.7-.8l1,2.3c-.6.5-1.3.8-2.1,1.1-.9.3-1.8.5-3,.5ZM528.7,494.8h4.6v-.3c0-.6,0-1-.2-1.4-.1-.4-.4-.7-.7-.9-.3-.2-.7-.3-1.3-.3s-.9.1-1.2.4c-.3.3-.6.6-.8,1.1-.2.4-.3,1-.4,1.5h0Z"/>
      <path d="M538.4,503v-2.2l1.8-.4v-8.5l-2-.4v-2.2h5.4l.2,2c.5-.7,1-1.2,1.7-1.6.7-.4,1.4-.6,2.3-.6,1.4,0,2.4.4,3.2,1.3.8.9,1.2,2.2,1.2,4.1v6l1.8.4v2.2h-7.1v-2.2l1.6-.4v-6c0-.9-.2-1.6-.5-2-.4-.4-.9-.6-1.6-.6s-1,.1-1.4.3c-.4.2-.7.5-1,1v7.2l1.5.4v2.2h-7Z"/>
      <path d="M560.1,503.3c-1.3,0-2.3-.4-3-1.1-.7-.7-1-1.8-1-3.3v-7h-1.9v-2.6h1.9v-3.4h3.7v3.4h2.5v2.6h-2.5v7c0,.5.1.9.3,1.1s.5.3.9.3.4,0,.7,0c.2,0,.4,0,.6,0l.3,2.7c-.4.1-.8.2-1.2.3-.4,0-.9.1-1.3.1Z"/>
      <path d="M564.3,503v-2.2l1.8-.4v-8.5l-2-.4v-2.2h5.4v1.7c.1,0,.2.3.2.3.3-.7.8-1.3,1.3-1.7s1.1-.6,1.8-.6.5,0,.7,0,.5,0,.7.1l-.4,3.4h-1.8c-.5-.1-1,0-1.3.2s-.6.5-.9.9v6.7l1.8.4v2.2h-7.3Z"/>
      <path d="M581.5,503.3c-1.4,0-2.5-.3-3.5-.9-1-.6-1.7-1.4-2.2-2.5s-.8-2.3-.8-3.6v-.3c0-1.4.3-2.6.8-3.6s1.3-1.9,2.2-2.5,2.1-.9,3.5-.9,2.5.3,3.5.9,1.7,1.4,2.2,2.5c.5,1,.8,2.3.8,3.6v.3c0,1.4-.3,2.6-.8,3.6s-1.3,1.9-2.2,2.5c-1,.6-2.1.9-3.5.9ZM581.5,500.4c.6,0,1.2-.2,1.6-.5.4-.3.7-.8.9-1.5s.3-1.3.3-2.2v-.3c0-.8,0-1.5-.3-2.2s-.5-1.1-.9-1.5c-.4-.4-.9-.5-1.6-.5s-1.2.2-1.6.5c-.4.4-.7.8-.9,1.5s-.3,1.3-.3,2.2v.3c0,.8,0,1.6.3,2.2.2.6.5,1.1.9,1.5s.9.5,1.6.5Z"/>
      <path d="M602.5,503.3c-1.3,0-2.5-.3-3.4-.9-1-.6-1.7-1.4-2.2-2.5-.5-1-.8-2.2-.8-3.6v-.4c0-1.4.3-2.6.8-3.6s1.3-1.9,2.2-2.5,2.1-.9,3.4-.9,2.3.2,3.2.6c.9.4,1.6.8,2.2,1.3v3.9h-2.8l-.5-2.5c-.2-.2-.5-.4-.8-.5s-.6-.2-1-.2c-.7,0-1.2.2-1.7.5-.4.3-.8.8-1,1.4-.2.6-.3,1.4-.3,2.3v.4c0,.9.1,1.7.4,2.3.2.6.6,1.1,1,1.3.4.3.9.4,1.4.4s1.2-.2,1.6-.5.7-.8.8-1.5h3.2c-.1,1-.4,1.9-.9,2.6s-1,1.3-1.8,1.6-1.8.6-3,.6Z"/>
      <path d="M616.3,503.3c-1.4,0-2.5-.3-3.5-.9-1-.6-1.7-1.4-2.2-2.5s-.8-2.3-.8-3.6v-.3c0-1.4.3-2.6.8-3.6s1.3-1.9,2.2-2.5,2.1-.9,3.5-.9,2.5.3,3.5.9,1.7,1.4,2.2,2.5c.5,1,.8,2.3.8,3.6v.3c0,1.4-.3,2.6-.8,3.6s-1.3,1.9-2.2,2.5c-1,.6-2.1.9-3.5.9ZM616.3,500.4c.6,0,1.2-.2,1.6-.5.4-.3.7-.8.9-1.5s.3-1.3.3-2.2v-.3c0-.8,0-1.5-.3-2.2s-.5-1.1-.9-1.5c-.4-.4-.9-.5-1.6-.5s-1.2.2-1.6.5c-.4.4-.7.8-.9,1.5s-.3,1.3-.3,2.2v.3c0,.8,0,1.6.3,2.2.2.6.5,1.1.9,1.5s.9.5,1.6.5Z"/>
      <path d="M631.1,503.3c-1.4,0-2.5-.3-3.5-.9-1-.6-1.7-1.4-2.2-2.5s-.8-2.3-.8-3.6v-.3c0-1.4.3-2.6.8-3.6s1.3-1.9,2.2-2.5,2.1-.9,3.5-.9,2.5.3,3.5.9,1.7,1.4,2.2,2.5c.5,1,.8,2.3.8,3.6v.3c0,1.4-.3,2.6-.8,3.6s-1.3,1.9-2.2,2.5c-1,.6-2.1.9-3.5.9ZM631.1,500.4c.6,0,1.2-.2,1.6-.5.4-.3.7-.8.9-1.5s.3-1.3.3-2.2v-.3c0-.8,0-1.5-.3-2.2s-.5-1.1-.9-1.5c-.4-.4-.9-.5-1.6-.5s-1.2.2-1.6.5c-.4.4-.7.8-.9,1.5s-.3,1.3-.3,2.2v.3c0,.8,0,1.6.3,2.2.2.6.5,1.1.9,1.5s.9.5,1.6.5Z"/>
      <path d="M639.5,503v-2.2l1.8-.4v-8.5l-2-.4v-2.2h5.4v1.7c.1,0,.2.3.2.3.3-.7.8-1.3,1.3-1.7.5-.4,1.1-.6,1.8-.6s.5,0,.7,0c.3,0,.5,0,.7.1l-.4,3.4h-1.8c-.5-.1-1,0-1.3.2-.3.2-.6.5-.9.9v6.7l1.8.4v2.2h-7.3Z"/>
      <path d="M655.5,503.3c-1.1,0-2-.3-2.8-.8-.8-.6-1.4-1.3-1.8-2.4-.4-1-.6-2.2-.6-3.5v-.3c0-1.4.2-2.7.6-3.8.4-1.1,1-1.9,1.8-2.5.8-.6,1.7-.9,2.8-.9s1.4.2,2,.5c.6.3,1.1.7,1.5,1.3v-4.9l-2-.4v-2.2h5.7v17.2l1.8.4v2.2h-5l-.3-1.7c-.4.6-.9,1.1-1.5,1.4s-1.3.5-2.1.5ZM656.6,500.4c.5,0,1-.1,1.4-.3.4-.2.7-.5,1-1v-5.8c-.3-.4-.6-.8-1-1-.4-.2-.8-.4-1.3-.4s-1.1.2-1.5.6-.7.9-.9,1.5c-.2.7-.3,1.4-.3,2.3v.3c0,1.2.2,2.1.6,2.8.4.7,1.1,1,2,1Z"/>
      <path d="M672.2,503.3c-1.3,0-2.5-.3-3.4-.9-1-.6-1.7-1.4-2.3-2.4-.5-1-.8-2.2-.8-3.5v-.5c0-1.4.3-2.6.8-3.6s1.2-1.9,2.2-2.5c.9-.6,2-.9,3.3-.9s2.3.2,3.1.7c.8.5,1.5,1.2,1.9,2.1.4.9.7,2,.7,3.4v2h-8.1c0,.7.2,1.2.5,1.7.2.5.6.8,1.1,1.1s1,.4,1.7.4,1.3,0,1.9-.3c.6-.2,1.2-.4,1.7-.8l1,2.3c-.6.5-1.3.8-2.1,1.1-.9.3-1.8.5-3,.5ZM669.6,494.8h4.6v-.3c0-.6,0-1-.2-1.4-.1-.4-.4-.7-.7-.9-.3-.2-.7-.3-1.3-.3s-.9.1-1.2.4c-.3.3-.6.6-.8,1.1-.2.4-.3,1-.4,1.5h0Z"/>
      <path d="M679.2,503v-2.2l1.8-.4v-8.5l-2-.4v-2.2h5.4l.2,2c.5-.7,1-1.2,1.7-1.6.7-.4,1.4-.6,2.3-.6,1.4,0,2.4.4,3.2,1.3.8.9,1.2,2.2,1.2,4.1v6l1.8.4v2.2h-7.1v-2.2l1.6-.4v-6c0-.9-.2-1.6-.5-2-.4-.4-.9-.6-1.6-.6s-1,.1-1.4.3c-.4.2-.7.5-1,1v7.2l1.5.4v2.2h-7Z"/>
      <path d="M700.5,503.3c-1.4,0-2.4-.4-3.2-1.1-.8-.7-1.2-1.7-1.2-3s.5-2.3,1.6-3.2c1-.8,2.6-1.2,4.6-1.2h1.8v-1c0-.7-.2-1.2-.6-1.6-.4-.4-1-.6-1.7-.6s-.8,0-1.1.1c-.3,0-.6.2-.9.4l-.3,1.8h-2.7v-3.6c.7-.4,1.4-.7,2.3-1s1.8-.4,2.8-.4c1.8,0,3.2.4,4.3,1.2,1,.8,1.6,2,1.6,3.6v5.7c0,.2,0,.4,0,.6,0,.2,0,.4,0,.5l1.4.2v2.2h-4.6c0-.2-.2-.5-.3-.8,0-.3-.2-.5-.2-.8-.4.6-1,1-1.6,1.3-.6.3-1.3.5-2.1.5ZM701.5,500.5c.5,0,1-.1,1.5-.3.5-.2.8-.5,1.1-.9v-2.2h-1.8c-.8,0-1.4.2-1.8.6-.4.4-.6.8-.6,1.3s.2.9.5,1.1c.3.3.7.4,1.3.4Z"/>
      <path d="M715.8,503.3c-1.1,0-2-.3-2.8-.8-.8-.6-1.4-1.3-1.8-2.4-.4-1-.6-2.2-.6-3.5v-.3c0-1.4.2-2.7.6-3.8.4-1.1,1-1.9,1.8-2.5.8-.6,1.7-.9,2.8-.9s1.4.2,2,.5c.6.3,1.1.7,1.5,1.3v-4.9l-2-.4v-2.2h5.7v17.2l1.8.4v2.2h-5l-.3-1.7c-.4.6-.9,1.1-1.5,1.4s-1.3.5-2.1.5ZM716.9,500.4c.5,0,1-.1,1.4-.3.4-.2.7-.5,1-1v-5.8c-.3-.4-.6-.8-1-1-.4-.2-.8-.4-1.3-.4s-1.1.2-1.5.6-.7.9-.9,1.5c-.2.7-.3,1.4-.3,2.3v.3c0,1.2.2,2.1.6,2.8.4.7,1.1,1,2,1Z"/>
      <path d="M732.5,503.3c-1.4,0-2.5-.3-3.5-.9-1-.6-1.7-1.4-2.2-2.5-.5-1.1-.8-2.3-.8-3.6v-.3c0-1.4.3-2.6.8-3.6.5-1.1,1.3-1.9,2.2-2.5,1-.6,2.1-.9,3.5-.9s2.5.3,3.5.9,1.7,1.4,2.2,2.5c.5,1,.8,2.3.8,3.6v.3c0,1.4-.3,2.6-.8,3.6-.5,1.1-1.3,1.9-2.2,2.5-1,.6-2.1.9-3.5.9ZM732.5,500.4c.6,0,1.2-.2,1.6-.5.4-.3.7-.8.9-1.5.2-.6.3-1.3.3-2.2v-.3c0-.8,0-1.5-.3-2.2-.2-.6-.5-1.1-.9-1.5-.4-.4-.9-.5-1.6-.5s-1.2.2-1.6.5c-.4.4-.7.8-.9,1.5s-.3,1.3-.3,2.2v.3c0,.8,0,1.6.3,2.2.2.6.5,1.1.9,1.5.4.3.9.5,1.6.5Z"/>
      <path d="M740.9,503v-2.2l1.8-.4v-8.5l-2-.4v-2.2h5.4v1.7c.1,0,.2.3.2.3.3-.7.8-1.3,1.3-1.7s1.1-.6,1.8-.6.5,0,.7,0,.5,0,.7.1l-.4,3.4h-1.8c-.5-.1-1,0-1.3.2-.3.2-.6.5-.9.9v6.7l1.8.4v2.2h-7.3Z"/>
    </g>
  </g>
  <g>
    <g>
      <rect class="st3" x="62.6" y="176.2" width="336.5" height="145.4" rx="12" ry="12"/>
      <rect class="st2" x="49.6" y="166.7" width="336.5" height="145.4" rx="12" ry="12"/>
    </g>
    <g>
      <rect class="st0" x="66.7" y="193.8" width="296.6" height="104.1"/>
      <path class="st9" d="M74.9,213.7v-2.2l1.3-.2,5.9-16.1h3.8l5.8,16.1,1.3.2v2.2h-6.3v-2.2l1.3-.2-.8-2.5h-6.5l-.8,2.5,1.3.2v2.2h-6.3ZM81.6,205.9h4.7l-2.2-6.3-.2-.6h0l-.2.6-2.1,6.3Z"/>
      <path class="st9" d="M97.1,213.7l-4.2-11.3-1.5-.2v-2.2h6.7v2.2l-1.4.3,2.1,6.2.3,1.1h0l.4-1.1,2.3-6.2-1.7-.3v-2.2h6.7v2.2l-1.5.3-4.3,11.2h-3.8Z"/>
      <path class="st9" d="M112.2,213.9c-1.4,0-2.4-.4-3.2-1.1s-1.2-1.7-1.2-3,.5-2.3,1.6-3.2,2.6-1.2,4.6-1.2h1.8v-1c0-.7-.2-1.2-.6-1.6s-1-.6-1.7-.6-.8,0-1.1.1-.6.2-.9.4l-.3,1.8h-2.7v-3.6c.7-.4,1.4-.7,2.3-1s1.8-.4,2.8-.4c1.8,0,3.2.4,4.3,1.3s1.6,2,1.6,3.6v5.7c0,.2,0,.4,0,.6s0,.4,0,.5l1.4.2v2.2h-4.6c0-.2-.2-.5-.3-.8s-.2-.5-.2-.8c-.4.6-1,1-1.6,1.3s-1.3.5-2.1.5ZM113.2,211.2c.5,0,1-.1,1.5-.3s.8-.5,1.1-.9v-2.2h-1.8c-.8,0-1.4.2-1.8.6s-.6.8-.6,1.3.2.9.5,1.1.7.4,1.3.4Z"/>
      <path class="st9" d="M122.1,213.7v-2.2l1.8-.4v-14.6l-2-.4v-2.2h5.7v17.2l1.8.4v2.2h-7.3Z"/>
      <path class="st9" d="M130.5,213.7v-2.2l1.8-.4v-8.5l-2-.4v-2.2h5.7v11.1l1.8.4v2.2h-7.3ZM132.1,197v-3.2h3.8v3.2h-3.8Z"/>
      <path class="st9" d="M143.6,213.9c-1.4,0-2.4-.4-3.2-1.1s-1.2-1.7-1.2-3,.5-2.3,1.6-3.2,2.6-1.2,4.6-1.2h1.8v-1c0-.7-.2-1.2-.6-1.6s-1-.6-1.7-.6-.8,0-1.1.1-.6.2-.9.4l-.3,1.8h-2.7v-3.6c.7-.4,1.4-.7,2.3-1s1.8-.4,2.8-.4c1.8,0,3.2.4,4.3,1.3s1.6,2,1.6,3.6v5.7c0,.2,0,.4,0,.6s0,.4,0,.5l1.4.2v2.2h-4.6c0-.2-.2-.5-.3-.8s-.2-.5-.2-.8c-.4.6-1,1-1.6,1.3s-1.3.5-2.1.5ZM144.6,211.2c.5,0,1-.1,1.5-.3s.8-.5,1.1-.9v-2.2h-1.8c-.8,0-1.4.2-1.8.6s-.6.8-.6,1.3.2.9.5,1.1.7.4,1.3.4Z"/>
      <path class="st9" d="M160.1,213.9c-1.3,0-2.5-.3-3.4-.9s-1.7-1.4-2.2-2.5-.8-2.2-.8-3.6v-.4c0-1.4.3-2.6.8-3.6s1.3-1.9,2.2-2.5,2.1-.9,3.4-.9,2.3.2,3.2.6,1.6.8,2.2,1.3v3.9h-2.8l-.5-2.5c-.2-.2-.5-.4-.8-.5s-.6-.2-1-.2c-.7,0-1.2.2-1.7.5s-.8.8-1,1.4-.3,1.4-.3,2.3v.4c0,.9.1,1.7.4,2.3s.6,1.1,1,1.3.9.4,1.4.4,1.2-.2,1.6-.5.7-.8.8-1.5h3.2c-.1,1-.4,1.9-.9,2.6s-1,1.3-1.8,1.6-1.8.6-3,.6ZM158.4,219.5v-2c.4,0,.8,0,1.1-.2s.5-.4.5-.8-.1-.6-.4-.8-.8-.2-1.4-.3l.4-2h2.7l-.2.9c.6,0,1,.3,1.4.6s.6.8.6,1.5-.4,1.6-1.2,2.2-2,.8-3.5.8Z"/>
      <path class="st9" d="M172,213.9c-1.4,0-2.4-.4-3.2-1.1s-1.2-1.7-1.2-3,.5-2.3,1.6-3.2,2.6-1.2,4.6-1.2h1.8v-1c0-.7-.2-1.2-.6-1.6s-1-.6-1.7-.6-.8,0-1.1.1-.6.2-.9.4l-.3,1.8h-2.7v-3.6c.7-.4,1.4-.7,2.3-1s1.8-.4,2.8-.4c1.8,0,3.2.4,4.3,1.3s1.6,2,1.6,3.6v5.7c0,.2,0,.4,0,.6s0,.4,0,.5l1.4.2v2.2h-4.6c0-.2-.2-.5-.3-.8s-.2-.5-.2-.8c-.4.6-1,1-1.6,1.3s-1.3.5-2.1.5ZM170.7,197.4l-1.9-.5c0-.6.1-1.1.4-1.6s.6-.9,1.1-1.2.9-.4,1.4-.4.8.1,1.3.3.9.4,1.3.6.7.3,1,.3c.3,0,.6-.1.8-.4s.3-.6.3-1l1.9.5c0,.6-.1,1.1-.4,1.6s-.6.9-1.1,1.1-.9.4-1.4.4-.9-.1-1.3-.3-.9-.4-1.2-.6-.7-.3-1-.3-.6.1-.8.4-.3.6-.3,1ZM173,211.2c.5,0,1-.1,1.5-.3s.8-.5,1.1-.9v-2.2h-1.8c-.8,0-1.4.2-1.8.6s-.6.8-.6,1.3.2.9.5,1.1.7.4,1.3.4Z"/>
      <path class="st9" d="M188.6,213.9c-1.4,0-2.5-.3-3.5-.9s-1.7-1.4-2.2-2.5-.8-2.3-.8-3.6v-.3c0-1.4.3-2.6.8-3.6s1.3-1.9,2.2-2.5,2.1-.9,3.5-.9,2.5.3,3.5.9,1.7,1.4,2.2,2.5.8,2.3.8,3.6v.3c0,1.4-.3,2.6-.8,3.6s-1.3,1.9-2.2,2.5-2.1.9-3.5.9ZM188.6,211.1c.6,0,1.2-.2,1.6-.5s.7-.8.9-1.5.3-1.3.3-2.2v-.3c0-.8,0-1.5-.3-2.2s-.5-1.1-.9-1.5-.9-.5-1.6-.5-1.2.2-1.6.5-.7.8-.9,1.5-.3,1.3-.3,2.2v.3c0,.8,0,1.6.3,2.2s.5,1.1.9,1.5.9.5,1.6.5Z"/>
      <path class="st9" d="M209.6,213.9c-1.3,0-2.5-.3-3.4-.9s-1.7-1.4-2.3-2.4-.8-2.2-.8-3.5v-.5c0-1.4.3-2.6.8-3.6s1.2-1.9,2.2-2.5,2-.9,3.3-.9,2.3.2,3.1.7,1.5,1.2,1.9,2.1.7,2,.7,3.4v2h-8.1c0,.7.2,1.2.5,1.7s.6.8,1.1,1.1,1,.4,1.7.4,1.3,0,1.9-.3,1.2-.4,1.7-.8l1,2.3c-.6.5-1.3.8-2.1,1.1s-1.8.5-3,.5ZM207,205.4h4.6v-.3c0-.6,0-1-.2-1.4s-.4-.7-.7-.9-.7-.3-1.3-.3-.9.1-1.2.4-.6.6-.8,1.1-.3,1-.4,1.5h0Z"/>
      <path class="st9" d="M222.8,213.7v-2.2l1.3-.2,5.9-16.1h3.8l5.8,16.1,1.3.2v2.2h-6.3v-2.2l1.3-.2-.8-2.5h-6.5l-.8,2.5,1.3.2v2.2h-6.3ZM229.5,205.9h4.7l-2.2-6.3-.2-.6h0l-.2.6-2.1,6.3Z"/>
      <path class="st9" d="M242,218.9v-2.2l1.8-.4v-13.8l-2-.4v-2.2h5.4l.2,1.6c.4-.6.9-1,1.5-1.4s1.3-.5,2.1-.5,2.1.3,2.8.9,1.4,1.4,1.8,2.5.6,2.3.6,3.8v.3c0,1.4-.2,2.5-.6,3.5s-1,1.8-1.8,2.4-1.7.8-2.9.8-1.4-.1-1.9-.4-1-.7-1.4-1.2v4l1.8.4v2.2h-7.3ZM249.7,211.1c.9,0,1.6-.4,2.1-1.1s.6-1.7.6-2.9v-.3c0-.9,0-1.6-.3-2.3s-.5-1.2-.9-1.5-.9-.6-1.5-.6-1,.1-1.3.3-.7.6-.9,1v6c.2.4.5.7.9.9s.8.3,1.4.3Z"/>
      <path class="st9" d="M258.1,213.7v-2.2l1.8-.4v-8.5l-2-.4v-2.2h5.4v1.7c.1,0,.2.3.2.3.3-.7.8-1.3,1.3-1.7s1.1-.6,1.8-.6.5,0,.7,0,.5,0,.7.1l-.4,3.4h-1.8c-.5-.1-1,0-1.3.2s-.6.5-.9.9v6.7l1.8.4v2.2h-7.3Z"/>
      <path class="st9" d="M275.3,213.9c-1.4,0-2.5-.3-3.5-.9s-1.7-1.4-2.2-2.5-.8-2.3-.8-3.6v-.3c0-1.4.3-2.6.8-3.6s1.3-1.9,2.2-2.5,2.1-.9,3.5-.9,2.5.3,3.5.9,1.7,1.4,2.2,2.5.8,2.3.8,3.6v.3c0,1.4-.3,2.6-.8,3.6s-1.3,1.9-2.2,2.5-2.1.9-3.5.9ZM275.3,211.1c.6,0,1.2-.2,1.6-.5s.7-.8.9-1.5.3-1.3.3-2.2v-.3c0-.8,0-1.5-.3-2.2s-.5-1.1-.9-1.5-.9-.5-1.6-.5-1.2.2-1.6.5-.7.8-.9,1.5-.3,1.3-.3,2.2v.3c0,.8,0,1.6.3,2.2s.5,1.1.9,1.5.9.5,1.6.5Z"/>
      <path class="st9" d="M288.2,213.7l-4.2-11.3-1.5-.2v-2.2h6.7v2.2l-1.4.3,2.1,6.2.3,1.1h0l.4-1.1,2.3-6.2-1.7-.3v-2.2h6.7v2.2l-1.5.3-4.3,11.2h-3.8Z"/>
      <path class="st9" d="M303.3,213.9c-1.4,0-2.4-.4-3.2-1.1s-1.2-1.7-1.2-3,.5-2.3,1.6-3.2,2.6-1.2,4.6-1.2h1.8v-1c0-.7-.2-1.2-.6-1.6s-1-.6-1.7-.6-.8,0-1.1.1-.6.2-.9.4l-.3,1.8h-2.7v-3.6c.7-.4,1.4-.7,2.3-1s1.8-.4,2.8-.4c1.8,0,3.2.4,4.3,1.3s1.6,2,1.6,3.6v5.7c0,.2,0,.4,0,.6s0,.4,0,.5l1.4.2v2.2h-4.6c0-.2-.2-.5-.3-.8s-.2-.5-.2-.8c-.4.6-1,1-1.6,1.3s-1.3.5-2.1.5ZM304.3,211.2c.5,0,1-.1,1.5-.3s.8-.5,1.1-.9v-2.2h-1.8c-.8,0-1.4.2-1.8.6s-.6.8-.6,1.3.2.9.5,1.1.7.4,1.3.4Z"/>
      <path class="st9" d="M319.8,213.9c-1.3,0-2.5-.3-3.4-.9s-1.7-1.4-2.2-2.5-.8-2.2-.8-3.6v-.4c0-1.4.3-2.6.8-3.6s1.3-1.9,2.2-2.5,2.1-.9,3.4-.9,2.3.2,3.2.6,1.6.8,2.2,1.3v3.9h-2.8l-.5-2.5c-.2-.2-.5-.4-.8-.5s-.6-.2-1-.2c-.7,0-1.2.2-1.7.5s-.8.8-1,1.4-.3,1.4-.3,2.3v.4c0,.9.1,1.7.4,2.3s.6,1.1,1,1.3.9.4,1.4.4,1.2-.2,1.6-.5.7-.8.8-1.5h3.2c-.1,1-.4,1.9-.9,2.6s-1,1.3-1.8,1.6-1.8.6-3,.6ZM318.1,219.5v-2c.4,0,.8,0,1.1-.2s.5-.4.5-.8-.1-.6-.4-.8-.8-.2-1.4-.3l.4-2h2.7l-.2.9c.6,0,1,.3,1.4.6s.6.8.6,1.5-.4,1.6-1.2,2.2-2,.8-3.5.8Z"/>
      <path class="st9" d="M331.7,213.9c-1.4,0-2.4-.4-3.2-1.1-.8-.7-1.2-1.7-1.2-3s.5-2.3,1.6-3.2c1-.8,2.6-1.2,4.6-1.2h1.8v-1c0-.7-.2-1.2-.6-1.6-.4-.4-1-.6-1.7-.6s-.8,0-1.1.1c-.3,0-.6.2-.9.4l-.3,1.8h-2.7v-3.6c.7-.4,1.4-.7,2.3-1s1.8-.4,2.8-.4c1.8,0,3.2.4,4.3,1.3s1.6,2,1.6,3.6v5.7c0,.2,0,.4,0,.6,0,.2,0,.4,0,.5l1.4.2v2.2h-4.6c0-.2-.2-.5-.3-.8s-.2-.5-.2-.8c-.4.6-1,1-1.6,1.3-.6.3-1.3.5-2.1.5ZM330.4,197.4l-1.9-.5c0-.6.1-1.1.4-1.6.3-.5.6-.9,1.1-1.2s.9-.4,1.4-.4.8.1,1.3.3.9.4,1.3.6c.4.2.7.3,1,.3.3,0,.6-.1.8-.4.2-.3.3-.6.3-1l1.9.5c0,.6-.1,1.1-.4,1.6-.3.5-.6.9-1.1,1.1s-.9.4-1.4.4-.9-.1-1.3-.3-.9-.4-1.2-.6-.7-.3-1-.3-.6.1-.8.4-.3.6-.3,1ZM332.7,211.2c.5,0,1-.1,1.5-.3s.8-.5,1.1-.9v-2.2h-1.8c-.8,0-1.4.2-1.8.6-.4.4-.6.8-.6,1.3s.2.9.5,1.1c.3.3.7.4,1.3.4Z"/>
      <path class="st9" d="M348.3,213.9c-1.4,0-2.5-.3-3.5-.9s-1.7-1.4-2.2-2.5-.8-2.3-.8-3.6v-.3c0-1.4.3-2.6.8-3.6s1.3-1.9,2.2-2.5c1-.6,2.1-.9,3.5-.9s2.5.3,3.5.9,1.7,1.4,2.2,2.5.8,2.3.8,3.6v.3c0,1.4-.3,2.6-.8,3.6s-1.3,1.9-2.2,2.5-2.1.9-3.5.9ZM348.3,211.1c.6,0,1.2-.2,1.6-.5s.7-.8.9-1.5.3-1.3.3-2.2v-.3c0-.8,0-1.5-.3-2.2s-.5-1.1-.9-1.5c-.4-.4-.9-.5-1.6-.5s-1.2.2-1.6.5-.7.8-.9,1.5c-.2.6-.3,1.3-.3,2.2v.3c0,.8,0,1.6.3,2.2.2.6.5,1.1.9,1.5s.9.5,1.6.5Z"/>
      <path class="st9" d="M73,252.9v-2.2l1.8-.4v-13.8l-2-.4v-2.2h5.4l.2,1.6c.4-.6.9-1,1.5-1.4s1.3-.5,2.1-.5,2.1.3,2.8.9,1.4,1.4,1.8,2.5.6,2.3.6,3.8v.3c0,1.4-.2,2.5-.6,3.5s-1,1.8-1.8,2.4-1.7.8-2.9.8-1.4-.1-1.9-.4-1-.7-1.4-1.2v4l1.8.4v2.2h-7.3ZM80.7,245.1c.9,0,1.6-.4,2.1-1.1s.6-1.7.6-2.9v-.3c0-.9,0-1.6-.3-2.3s-.5-1.2-.9-1.5-.9-.6-1.5-.6-1,.1-1.3.3-.7.6-.9,1v6c.2.4.5.7.9.9s.8.3,1.4.3Z"/>
      <path class="st9" d="M95.5,247.9c-1.3,0-2.5-.3-3.4-.9s-1.7-1.4-2.3-2.4-.8-2.2-.8-3.5v-.5c0-1.4.3-2.6.8-3.6s1.2-1.9,2.2-2.5,2-.9,3.3-.9,2.3.2,3.1.7,1.5,1.2,1.9,2.1.7,2,.7,3.4v2h-8.1c0,.7.2,1.2.5,1.7s.6.8,1.1,1.1,1,.4,1.7.4,1.3,0,1.9-.3,1.2-.4,1.7-.8l1,2.3c-.6.5-1.3.8-2.1,1.1s-1.8.5-3,.5ZM92.9,239.4h4.6v-.3c0-.6,0-1-.2-1.4s-.4-.7-.7-.9-.7-.3-1.3-.3-.9.1-1.2.4-.6.6-.8,1.1-.3,1-.4,1.5h0Z"/>
      <path class="st9" d="M102.4,247.7v-2.2l1.8-.4v-14.6l-2-.4v-2.2h5.7v17.2l1.8.4v2.2h-7.3Z"/>
      <path class="st9" d="M117.2,247.9c-1.4,0-2.5-.3-3.5-.9s-1.7-1.4-2.2-2.5-.8-2.3-.8-3.6v-.3c0-1.4.3-2.6.8-3.6s1.3-1.9,2.2-2.5,2.1-.9,3.5-.9,2.5.3,3.5.9,1.7,1.4,2.2,2.5.8,2.3.8,3.6v.3c0,1.4-.3,2.6-.8,3.6s-1.3,1.9-2.2,2.5-2.1.9-3.5.9ZM117.2,245.1c.6,0,1.2-.2,1.6-.5s.7-.8.9-1.5.3-1.3.3-2.2v-.3c0-.8,0-1.5-.3-2.2s-.5-1.1-.9-1.5-.9-.5-1.6-.5-1.2.2-1.6.5-.7.8-.9,1.5-.3,1.3-.3,2.2v.3c0,.8,0,1.6.3,2.2s.5,1.1.9,1.5.9.5,1.6.5Z"/>
      <path class="st9" d="M140.4,247.9c-1.8,0-3.4-.4-4.7-1.1s-2.4-1.8-3.1-3.2-1.1-3-1.1-4.9v-.6c0-1.8.3-3.4,1-4.8s1.7-2.5,3-3.3,2.8-1.2,4.6-1.2,2.4.2,3.5.5,2.1.9,2.9,1.6v4.5h-2.8l-.4-2.8c-.3-.2-.6-.4-.9-.5s-.7-.3-1.1-.3-.8-.1-1.3-.1c-1,0-2,.3-2.7.8s-1.3,1.2-1.7,2.2-.6,2.1-.6,3.4v.6c0,1.3.2,2.4.6,3.4s1,1.7,1.8,2.2,1.7.8,2.8.8,1.1,0,1.6-.2,1-.3,1.5-.5l.4-2.6h2.8v4.4c-.7.5-1.6.9-2.7,1.2s-2.3.5-3.6.5Z"/>
      <path class="st9" d="M148.4,247.7v-2.2l2-.4v-13.3l-2-.4v-2.2h14.3v5h-2.8l-.2-2.1h-5.7v4.6h6.3v2.9h-6.3v5.3h6l.2-2.2h2.8v5.1h-14.6Z"/>
      <path class="st9" d="M165,247.7v-2.2l2-.4v-13.3l-2-.4v-2.2h8.8c1.4,0,2.6.2,3.7.7s1.8,1.2,2.4,2.1.8,1.9.8,3.1-.3,2.2-.8,3.1-1.3,1.6-2.4,2.1-2.2.7-3.7.7h-3.1v4.1l2,.4v2.2h-7.7ZM170.7,238.1h3.1c1,0,1.8-.3,2.3-.8s.8-1.3.8-2.2-.3-1.6-.8-2.2-1.3-.9-2.3-.9h-3.1v6.1Z"/>
      <path class="st9" d="M197,247.9c-1.8,0-3.4-.4-4.7-1.1s-2.4-1.8-3.1-3.2-1.1-3-1.1-4.9v-.6c0-1.8.3-3.4,1-4.8s1.7-2.5,3-3.3,2.8-1.2,4.6-1.2,2.4.2,3.5.5,2.1.9,2.9,1.6v4.5h-2.8l-.4-2.8c-.3-.2-.6-.4-.9-.5s-.7-.3-1.1-.3-.8-.1-1.3-.1c-1,0-2,.3-2.7.8s-1.3,1.2-1.7,2.2-.6,2.1-.6,3.4v.6c0,1.3.2,2.4.6,3.4s1,1.7,1.8,2.2,1.7.8,2.8.8,1.1,0,1.6-.2,1-.3,1.5-.5l.4-2.6h2.8v4.4c-.7.5-1.6.9-2.7,1.2s-2.3.5-3.6.5Z"/>
      <path class="st9" d="M205.3,247.7v-2.2l1.8-.4v-8.5l-2-.4v-2.2h5.4v1.7c.1,0,.2.3.2.3.3-.7.8-1.3,1.3-1.7s1.1-.6,1.8-.6.5,0,.7,0,.5,0,.7.1l-.4,3.4h-1.8c-.5-.1-1,0-1.3.2s-.6.5-.9.9v6.7l1.8.4v2.2h-7.3Z"/>
      <path class="st9" d="M222.6,247.9c-1.3,0-2.5-.3-3.4-.9s-1.7-1.4-2.3-2.4-.8-2.2-.8-3.5v-.5c0-1.4.3-2.6.8-3.6s1.2-1.9,2.2-2.5,2-.9,3.3-.9,2.3.2,3.1.7,1.5,1.2,1.9,2.1.7,2,.7,3.4v2h-8.1c0,.7.2,1.2.5,1.7s.6.8,1.1,1.1,1,.4,1.7.4,1.3,0,1.9-.3,1.2-.4,1.7-.8l1,2.3c-.6.5-1.3.8-2.1,1.1s-1.8.5-3,.5ZM220,239.4h4.6v-.3c0-.6,0-1-.2-1.4s-.4-.7-.7-.9-.7-.3-1.3-.3-.9.1-1.2.4-.6.6-.8,1.1-.3,1-.4,1.5h0Z"/>
      <path class="st9" d="M235,247.9c-1.1,0-2-.3-2.8-.8s-1.4-1.4-1.8-2.4-.6-2.2-.6-3.5v-.3c0-1.4.2-2.7.6-3.8s1-1.9,1.8-2.5,1.7-.9,2.8-.9,1.4.2,2,.5,1.1.7,1.5,1.3v-4.9l-2-.4v-2.2h5.7v17.2l1.8.4v2.2h-5l-.3-1.7c-.4.6-.9,1.1-1.5,1.4s-1.3.5-2.1.5ZM236.1,245c.5,0,1-.1,1.4-.3s.7-.5,1-1v-5.8c-.3-.4-.6-.8-1-1s-.8-.4-1.3-.4-1.1.2-1.5.6-.7.9-.9,1.5-.3,1.4-.3,2.3v.3c0,1.2.2,2.1.6,2.8s1.1,1,2,1Z"/>
      <path class="st9" d="M251.7,247.9c-1.3,0-2.5-.3-3.4-.9s-1.7-1.4-2.3-2.4-.8-2.2-.8-3.5v-.5c0-1.4.3-2.6.8-3.6s1.2-1.9,2.2-2.5,2-.9,3.3-.9,2.3.2,3.1.7,1.5,1.2,1.9,2.1.7,2,.7,3.4v2h-8.1c0,.7.2,1.2.5,1.7s.6.8,1.1,1.1,1,.4,1.7.4,1.3,0,1.9-.3,1.2-.4,1.7-.8l1,2.3c-.6.5-1.3.8-2.1,1.1s-1.8.5-3,.5ZM249,239.4h4.6v-.3c0-.6,0-1-.2-1.4s-.4-.7-.7-.9-.7-.3-1.3-.3-.9.1-1.2.4-.6.6-.8,1.1-.3,1-.4,1.5h0Z"/>
      <path class="st9" d="M258.7,247.7v-2.2l1.8-.4v-8.5l-2-.4v-2.2h5.4l.2,2c.5-.7,1-1.2,1.7-1.6s1.4-.6,2.3-.6c1.4,0,2.4.4,3.2,1.3s1.2,2.2,1.2,4.1v6l1.8.4v2.2h-7.1v-2.2l1.6-.4v-6c0-.9-.2-1.6-.5-2s-.9-.6-1.6-.6-1,.1-1.4.3-.7.5-1,1v7.2l1.5.4v2.2h-7Z"/>
      <path class="st9" d="M281.7,247.9c-1.3,0-2.5-.3-3.4-.9s-1.7-1.4-2.2-2.5-.8-2.2-.8-3.6v-.4c0-1.4.3-2.6.8-3.6s1.3-1.9,2.2-2.5,2.1-.9,3.4-.9,2.3.2,3.2.6,1.6.8,2.2,1.3v3.9h-2.8l-.5-2.5c-.2-.2-.5-.4-.8-.5s-.6-.2-1-.2c-.7,0-1.2.2-1.7.5s-.8.8-1,1.4-.3,1.4-.3,2.3v.4c0,.9.1,1.7.4,2.3s.6,1.1,1,1.3.9.4,1.4.4,1.2-.2,1.6-.5.7-.8.8-1.5h3.2c-.1,1-.4,1.9-.9,2.6s-1,1.3-1.8,1.6-1.8.6-3,.6Z"/>
      <path class="st9" d="M288.9,247.7v-2.2l1.8-.4v-8.5l-2-.4v-2.2h5.7v11.1l1.8.4v2.2h-7.3ZM290.5,231v-3.2h3.8v3.2h-3.8Z"/>
      <path class="st9" d="M302,247.9c-1.4,0-2.4-.4-3.2-1.1s-1.2-1.7-1.2-3,.5-2.3,1.6-3.2,2.6-1.2,4.6-1.2h1.8v-1c0-.7-.2-1.2-.6-1.6s-1-.6-1.7-.6-.8,0-1.1.1-.6.2-.9.4l-.3,1.8h-2.7v-3.6c.7-.4,1.4-.7,2.3-1s1.8-.4,2.8-.4c1.8,0,3.2.4,4.3,1.3s1.6,2,1.6,3.6v5.7c0,.2,0,.4,0,.6s0,.4,0,.5l1.4.2v2.2h-4.6c0-.2-.2-.5-.3-.8s-.2-.5-.2-.8c-.4.6-1,1-1.6,1.3s-1.3.5-2.1.5ZM303,245.2c.5,0,1-.1,1.5-.3s.8-.5,1.1-.9v-2.2h-1.8c-.8,0-1.4.2-1.8.6s-.6.8-.6,1.3.2.9.5,1.1.7.4,1.3.4Z"/>
      <path class="st9" d="M317.3,247.9c-1.1,0-2-.3-2.8-.8s-1.4-1.4-1.8-2.4-.6-2.2-.6-3.5v-.3c0-1.4.2-2.7.6-3.8s1-1.9,1.8-2.5,1.7-.9,2.8-.9,1.4.2,2,.5,1.1.7,1.5,1.3v-4.9l-2-.4v-2.2h5.7v17.2l1.8.4v2.2h-5l-.3-1.7c-.4.6-.9,1.1-1.5,1.4s-1.3.5-2.1.5ZM318.4,245c.5,0,1-.1,1.4-.3s.7-.5,1-1v-5.8c-.3-.4-.6-.8-1-1s-.8-.4-1.3-.4-1.1.2-1.5.6-.7.9-.9,1.5-.3,1.4-.3,2.3v.3c0,1.2.2,2.1.6,2.8s1.1,1,2,1Z"/>
      <path class="st9" d="M334,247.9c-1.4,0-2.5-.3-3.5-.9s-1.7-1.4-2.2-2.5c-.5-1.1-.8-2.3-.8-3.6v-.3c0-1.4.3-2.6.8-3.6.5-1.1,1.3-1.9,2.2-2.5,1-.6,2.1-.9,3.5-.9s2.5.3,3.5.9,1.7,1.4,2.2,2.5.8,2.3.8,3.6v.3c0,1.4-.3,2.6-.8,3.6s-1.3,1.9-2.2,2.5-2.1.9-3.5.9ZM334,245.1c.6,0,1.2-.2,1.6-.5s.7-.8.9-1.5.3-1.3.3-2.2v-.3c0-.8,0-1.5-.3-2.2s-.5-1.1-.9-1.5c-.4-.4-.9-.5-1.6-.5s-1.2.2-1.6.5-.7.8-.9,1.5c-.2.6-.3,1.3-.3,2.2v.3c0,.8,0,1.6.3,2.2.2.6.5,1.1.9,1.5s.9.5,1.6.5Z"/>
      <path class="st9" d="M347.4,249.2l7.6-20.1h3.4l-7.6,20.1h-3.4Z"/>
      <path class="st9" d="M147.9,281.7v-2.2l1.3-.2,5.9-16.1h3.8l5.8,16.1,1.3.2v2.2h-6.3v-2.2l1.3-.2-.8-2.5h-6.5l-.8,2.5,1.3.2v2.2h-6.3ZM154.6,273.9h4.7l-2.2-6.3-.2-.6h0l-.2.6-2.1,6.3Z"/>
      <path class="st9" d="M173.7,281.9c-1.3,0-2.5-.3-3.4-.9s-1.7-1.4-2.2-2.5-.8-2.2-.8-3.6v-.4c0-1.4.3-2.6.8-3.6s1.3-1.9,2.2-2.5,2.1-.9,3.4-.9,2.3.2,3.2.6,1.6.8,2.2,1.3v3.9h-2.8l-.5-2.5c-.2-.2-.5-.4-.8-.5s-.6-.2-1-.2c-.7,0-1.2.2-1.7.5s-.8.8-1,1.4-.3,1.4-.3,2.3v.4c0,.9.1,1.7.4,2.3s.6,1.1,1,1.3.9.4,1.4.4,1.2-.2,1.6-.5.7-.8.8-1.5h3.2c-.1,1-.4,1.9-.9,2.6s-1,1.3-1.8,1.6-1.8.6-3,.6Z"/>
      <path class="st9" d="M181.2,281.7v-2.2l1.8-.4v-8.5l-2-.4v-2.2h5.4v1.7c.1,0,.2.3.2.3.3-.7.8-1.3,1.3-1.7s1.1-.6,1.8-.6.5,0,.7,0,.5,0,.7.1l-.4,3.4h-1.8c-.5-.1-1,0-1.3.2s-.6.5-.9.9v6.7l1.8.4v2.2h-7.3Z"/>
      <path class="st9" d="M198.5,281.9c-1.3,0-2.5-.3-3.4-.9s-1.7-1.4-2.3-2.4-.8-2.2-.8-3.5v-.5c0-1.4.3-2.6.8-3.6s1.2-1.9,2.2-2.5,2-.9,3.3-.9,2.3.2,3.1.7,1.5,1.2,1.9,2.1.7,2,.7,3.4v2h-8.1c0,.7.2,1.2.5,1.7s.6.8,1.1,1.1,1,.4,1.7.4,1.3,0,1.9-.3,1.2-.4,1.7-.8l1,2.3c-.6.5-1.3.8-2.1,1.1s-1.8.5-3,.5ZM195.9,273.4h4.6v-.3c0-.6,0-1-.2-1.4s-.4-.7-.7-.9-.7-.3-1.3-.3-.9.1-1.2.4-.6.6-.8,1.1-.3,1-.4,1.5h0Z"/>
      <path class="st9" d="M210.9,281.9c-1.1,0-2-.3-2.8-.8s-1.4-1.4-1.8-2.4-.6-2.2-.6-3.5v-.3c0-1.4.2-2.7.6-3.8s1-1.9,1.8-2.5,1.7-.9,2.8-.9,1.4.2,2,.5,1.1.7,1.5,1.3v-4.9l-2-.4v-2.2h5.7v17.2l1.8.4v2.2h-5l-.3-1.7c-.4.6-.9,1.1-1.5,1.4s-1.3.5-2.1.5ZM212,279c.5,0,1-.1,1.4-.3s.7-.5,1-1v-5.8c-.3-.4-.6-.8-1-1s-.8-.4-1.3-.4-1.1.2-1.5.6-.7.9-.9,1.5-.3,1.4-.3,2.3v.3c0,1.2.2,2.1.6,2.8s1.1,1,2,1Z"/>
      <path class="st9" d="M220.9,281.7v-2.2l1.8-.4v-8.5l-2-.4v-2.2h5.7v11.1l1.8.4v2.2h-7.3ZM222.6,265v-3.2h3.8v3.2h-3.8Z"/>
      <path class="st9" d="M234.8,281.9c-1.3,0-2.3-.4-3-1.1s-1-1.8-1-3.3v-7h-1.9v-2.6h1.9v-3.4h3.7v3.4h2.5v2.6h-2.5v7c0,.5.1.9.3,1.1s.5.3.9.3.4,0,.7,0,.4,0,.6,0l.3,2.7c-.4.1-.8.2-1.2.3s-.9.1-1.3.1Z"/>
      <path class="st9" d="M243.3,281.9c-1.4,0-2.4-.4-3.2-1.1s-1.2-1.7-1.2-3,.5-2.3,1.6-3.2,2.6-1.2,4.6-1.2h1.8v-1c0-.7-.2-1.2-.6-1.6s-1-.6-1.7-.6-.8,0-1.1.1-.6.2-.9.4l-.3,1.8h-2.7v-3.6c.7-.4,1.4-.7,2.3-1s1.8-.4,2.8-.4c1.8,0,3.2.4,4.3,1.3s1.6,2,1.6,3.6v5.7c0,.2,0,.4,0,.6s0,.4,0,.5l1.4.2v2.2h-4.6c0-.2-.2-.5-.3-.8s-.2-.5-.2-.8c-.4.6-1,1-1.6,1.3s-1.3.5-2.1.5ZM244.3,279.2c.5,0,1-.1,1.5-.3s.8-.5,1.1-.9v-2.2h-1.8c-.8,0-1.4.2-1.8.6s-.6.8-.6,1.3.2.9.5,1.1.7.4,1.3.4Z"/>
      <path class="st9" d="M258.7,281.9c-1.1,0-2-.3-2.8-.8s-1.4-1.4-1.8-2.4-.6-2.2-.6-3.5v-.3c0-1.4.2-2.7.6-3.8s1-1.9,1.8-2.5,1.7-.9,2.8-.9,1.4.2,2,.5,1.1.7,1.5,1.3v-4.9l-2-.4v-2.2h5.7v17.2l1.8.4v2.2h-5l-.3-1.7c-.4.6-.9,1.1-1.5,1.4s-1.3.5-2.1.5ZM259.8,279c.5,0,1-.1,1.4-.3s.7-.5,1-1v-5.8c-.3-.4-.6-.8-1-1s-.8-.4-1.3-.4-1.1.2-1.5.6-.7.9-.9,1.5-.3,1.4-.3,2.3v.3c0,1.2.2,2.1.6,2.8s1.1,1,2,1Z"/>
      <path class="st9" d="M275.3,281.9c-1.4,0-2.5-.3-3.5-.9s-1.7-1.4-2.2-2.5-.8-2.3-.8-3.6v-.3c0-1.4.3-2.6.8-3.6s1.3-1.9,2.2-2.5,2.1-.9,3.5-.9,2.5.3,3.5.9,1.7,1.4,2.2,2.5.8,2.3.8,3.6v.3c0,1.4-.3,2.6-.8,3.6s-1.3,1.9-2.2,2.5-2.1.9-3.5.9ZM275.3,279.1c.6,0,1.2-.2,1.6-.5s.7-.8.9-1.5.3-1.3.3-2.2v-.3c0-.8,0-1.5-.3-2.2s-.5-1.1-.9-1.5-.9-.5-1.6-.5-1.2.2-1.6.5-.7.8-.9,1.5-.3,1.3-.3,2.2v.3c0,.8,0,1.6.3,2.2s.5,1.1.9,1.5.9.5,1.6.5Z"/>
    </g>
  </g>
  <g>
    <g>
      <rect class="st3" x="908" y="166.7" width="336.5" height="145.4" rx="12" ry="12"/>
      <rect class="st2" x="895.1" y="157.2" width="336.5" height="145.4" rx="12" ry="12"/>
    </g>
    <g>
      <rect class="st0" x="912.2" y="196.6" width="296.6" height="66.5"/>
      <path class="st9" d="M1000.3,216.4v-2.2l1.3-.2,5.9-16.1h3.8l5.8,16.1,1.3.2v2.2h-6.3v-2.2l1.3-.2-.8-2.5h-6.5l-.8,2.5,1.3.2v2.2h-6.3ZM1007,208.7h4.7l-2.2-6.3-.2-.6h0l-.2.6-2.1,6.3Z"/>
      <path class="st9" d="M1022.4,216.4l-4.2-11.3-1.5-.2v-2.2h6.7v2.2l-1.4.3,2.1,6.2.3,1.1h0l.4-1.1,2.3-6.2-1.7-.3v-2.2h6.7v2.2l-1.5.3-4.3,11.2h-3.8Z"/>
      <path class="st9" d="M1037.6,216.7c-1.4,0-2.4-.4-3.2-1.1-.8-.7-1.2-1.7-1.2-3s.5-2.3,1.6-3.2c1-.8,2.6-1.2,4.6-1.2h1.8v-1c0-.7-.2-1.2-.6-1.6-.4-.4-1-.6-1.7-.6s-.8,0-1.1.1c-.3,0-.6.2-.9.4l-.3,1.8h-2.7v-3.6c.7-.4,1.4-.7,2.3-1s1.8-.4,2.8-.4c1.8,0,3.2.4,4.3,1.3,1,.8,1.6,2,1.6,3.6v5.7c0,.2,0,.4,0,.6,0,.2,0,.4,0,.5l1.4.2v2.2h-4.6c0-.2-.2-.5-.3-.8,0-.3-.2-.5-.2-.8-.4.6-1,1-1.6,1.3-.6.3-1.3.5-2.1.5ZM1038.5,214c.5,0,1-.1,1.5-.3.5-.2.8-.5,1.1-.9v-2.2h-1.8c-.8,0-1.4.2-1.8.6-.4.4-.6.8-.6,1.3s.2.9.5,1.1c.3.3.7.4,1.3.4Z"/>
      <path class="st9" d="M1047.4,216.4v-2.2l1.8-.4v-14.6l-2-.4v-2.2h5.7v17.2l1.8.4v2.2h-7.3Z"/>
      <path class="st9" d="M1055.8,216.4v-2.2l1.8-.4v-8.5l-2-.4v-2.2h5.7v11.1l1.8.4v2.2h-7.3ZM1057.5,199.8v-3.2h3.8v3.2h-3.8Z"/>
      <path class="st9" d="M1068.9,216.7c-1.4,0-2.4-.4-3.2-1.1-.8-.7-1.2-1.7-1.2-3s.5-2.3,1.6-3.2c1-.8,2.6-1.2,4.6-1.2h1.8v-1c0-.7-.2-1.2-.6-1.6-.4-.4-1-.6-1.7-.6s-.8,0-1.1.1c-.3,0-.6.2-.9.4l-.3,1.8h-2.7v-3.6c.7-.4,1.4-.7,2.3-1s1.8-.4,2.8-.4c1.8,0,3.2.4,4.3,1.3,1,.8,1.6,2,1.6,3.6v5.7c0,.2,0,.4,0,.6,0,.2,0,.4,0,.5l1.4.2v2.2h-4.6c0-.2-.2-.5-.3-.8,0-.3-.2-.5-.2-.8-.4.6-1,1-1.6,1.3-.6.3-1.3.5-2.1.5ZM1069.9,214c.5,0,1-.1,1.5-.3.5-.2.8-.5,1.1-.9v-2.2h-1.8c-.8,0-1.4.2-1.8.6-.4.4-.6.8-.6,1.3s.2.9.5,1.1c.3.3.7.4,1.3.4Z"/>
      <path class="st9" d="M1085.4,216.7c-1.3,0-2.5-.3-3.4-.9-1-.6-1.7-1.4-2.2-2.5-.5-1-.8-2.2-.8-3.6v-.4c0-1.4.3-2.6.8-3.6.5-1,1.3-1.9,2.2-2.5,1-.6,2.1-.9,3.4-.9s2.3.2,3.2.6c.9.4,1.6.8,2.2,1.3v3.9h-2.8l-.5-2.5c-.2-.2-.5-.4-.8-.5-.3-.1-.6-.2-1-.2-.7,0-1.2.2-1.7.5-.4.3-.8.8-1,1.4-.2.6-.3,1.4-.3,2.3v.4c0,.9.1,1.7.4,2.3.2.6.6,1.1,1,1.3.4.3.9.4,1.4.4s1.2-.2,1.6-.5.7-.8.8-1.5h3.2c-.1,1-.4,1.9-.9,2.6-.4.7-1,1.3-1.8,1.6s-1.8.6-3,.6ZM1083.7,222.3v-2c.4,0,.8,0,1.1-.2.3-.2.5-.4.5-.8s-.1-.6-.4-.8c-.3-.1-.8-.2-1.4-.3l.4-2h2.7l-.2.9c.6,0,1,.3,1.4.6.4.3.6.8.6,1.5s-.4,1.6-1.2,2.2c-.8.5-2,.8-3.5.8Z"/>
      <path class="st9" d="M1097.3,216.7c-1.4,0-2.4-.4-3.2-1.1-.8-.7-1.2-1.7-1.2-3s.5-2.3,1.6-3.2c1-.8,2.6-1.2,4.6-1.2h1.8v-1c0-.7-.2-1.2-.6-1.6-.4-.4-1-.6-1.7-.6s-.8,0-1.1.1c-.3,0-.6.2-.9.4l-.3,1.8h-2.7v-3.6c.7-.4,1.4-.7,2.3-1s1.8-.4,2.8-.4c1.8,0,3.2.4,4.3,1.3,1,.8,1.6,2,1.6,3.6v5.7c0,.2,0,.4,0,.6,0,.2,0,.4,0,.5l1.4.2v2.2h-4.6c0-.2-.2-.5-.3-.8,0-.3-.2-.5-.2-.8-.4.6-1,1-1.6,1.3-.6.3-1.3.5-2.1.5ZM1096,200.2l-1.9-.5c0-.6.1-1.1.4-1.6s.6-.9,1.1-1.2c.4-.3.9-.4,1.4-.4s.8.1,1.3.3c.4.2.9.4,1.3.6.4.2.7.3,1,.3.3,0,.6-.1.8-.4.2-.3.3-.6.3-1l1.9.5c0,.6-.1,1.1-.4,1.6-.3.5-.6.9-1.1,1.1-.4.3-.9.4-1.4.4s-.9-.1-1.3-.3c-.4-.2-.9-.4-1.2-.6-.4-.2-.7-.3-1-.3s-.6.1-.8.4c-.2.3-.3.6-.3,1ZM1098.3,214c.5,0,1-.1,1.5-.3.5-.2.8-.5,1.1-.9v-2.2h-1.8c-.8,0-1.4.2-1.8.6-.4.4-.6.8-.6,1.3s.2.9.5,1.1c.3.3.7.4,1.3.4Z"/>
      <path class="st9" d="M1113.9,216.7c-1.4,0-2.5-.3-3.5-.9-1-.6-1.7-1.4-2.2-2.5-.5-1.1-.8-2.3-.8-3.6v-.3c0-1.4.3-2.6.8-3.6.5-1.1,1.3-1.9,2.2-2.5,1-.6,2.1-.9,3.5-.9s2.5.3,3.5.9,1.7,1.4,2.2,2.5c.5,1,.8,2.3.8,3.6v.3c0,1.4-.3,2.6-.8,3.6-.5,1.1-1.3,1.9-2.2,2.5-1,.6-2.1.9-3.5.9ZM1113.9,213.9c.6,0,1.2-.2,1.6-.5.4-.3.7-.8.9-1.5.2-.6.3-1.3.3-2.2v-.3c0-.8,0-1.5-.3-2.2-.2-.6-.5-1.1-.9-1.5-.4-.4-.9-.5-1.6-.5s-1.2.2-1.6.5c-.4.4-.7.8-.9,1.5s-.3,1.3-.3,2.2v.3c0,.8,0,1.6.3,2.2.2.6.5,1.1.9,1.5.4.3.9.5,1.6.5Z"/>
      <path class="st9" d="M980.2,255.7v-2.2l1.8-.4v-13.8l-2-.4v-2.2h5.4l.2,1.6c.4-.6.9-1,1.5-1.4.6-.3,1.3-.5,2.1-.5s2.1.3,2.8.9c.8.6,1.4,1.4,1.8,2.5.4,1.1.6,2.3.6,3.8v.3c0,1.4-.2,2.5-.6,3.5-.4,1-1,1.8-1.8,2.4-.8.6-1.7.8-2.9.8s-1.4-.1-1.9-.4c-.6-.3-1-.7-1.4-1.2v4l1.8.4v2.2h-7.3ZM987.9,247.9c.9,0,1.6-.4,2.1-1.1.4-.7.6-1.7.6-2.9v-.3c0-.9,0-1.6-.3-2.3-.2-.6-.5-1.2-.9-1.5-.4-.4-.9-.6-1.5-.6s-1,.1-1.3.3c-.4.2-.7.6-.9,1v6c.2.4.5.7.9.9.4.2.8.3,1.4.3Z"/>
      <path class="st9" d="M1002.7,250.7c-1.3,0-2.5-.3-3.4-.9-1-.6-1.7-1.4-2.3-2.4-.5-1-.8-2.2-.8-3.5v-.5c0-1.4.3-2.6.8-3.6s1.2-1.9,2.2-2.5c.9-.6,2-.9,3.3-.9s2.3.2,3.1.7c.8.5,1.5,1.2,1.9,2.1.4.9.7,2,.7,3.4v2h-8.1c0,.7.2,1.2.5,1.7.2.5.6.8,1.1,1.1s1,.4,1.7.4,1.3,0,1.9-.3c.6-.2,1.2-.4,1.7-.8l1,2.3c-.6.5-1.3.8-2.1,1.1-.9.3-1.8.5-3,.5ZM1000.1,242.2h4.6v-.3c0-.6,0-1-.2-1.4-.1-.4-.4-.7-.7-.9-.3-.2-.7-.3-1.3-.3s-.9.1-1.2.4c-.3.3-.6.6-.8,1.1-.2.4-.3,1-.4,1.5h0Z"/>
      <path class="st9" d="M1009.6,250.4v-2.2l1.8-.4v-14.6l-2-.4v-2.2h5.7v17.2l1.8.4v2.2h-7.3Z"/>
      <path class="st9" d="M1022.7,250.7c-1.4,0-2.4-.4-3.2-1.1-.8-.7-1.2-1.7-1.2-3s.5-2.3,1.6-3.2c1-.8,2.6-1.2,4.6-1.2h1.8v-1c0-.7-.2-1.2-.6-1.6-.4-.4-1-.6-1.7-.6s-.8,0-1.1.1c-.3,0-.6.2-.9.4l-.3,1.8h-2.7v-3.6c.7-.4,1.4-.7,2.3-1s1.8-.4,2.8-.4c1.8,0,3.2.4,4.3,1.3,1,.8,1.6,2,1.6,3.6v5.7c0,.2,0,.4,0,.6,0,.2,0,.4,0,.5l1.4.2v2.2h-4.6c0-.2-.2-.5-.3-.8,0-.3-.2-.5-.2-.8-.4.6-1,1-1.6,1.3-.6.3-1.3.5-2.1.5ZM1023.7,248c.5,0,1-.1,1.5-.3.5-.2.8-.5,1.1-.9v-2.2h-1.8c-.8,0-1.4.2-1.8.6-.4.4-.6.8-.6,1.3s.2.9.5,1.1c.3.3.7.4,1.3.4Z"/>
      <path class="st9" d="M1038.9,250.4v-2.2l1.3-.2,5.9-16.1h3.8l5.8,16.1,1.3.2v2.2h-6.3v-2.2l1.3-.2-.8-2.5h-6.5l-.8,2.5,1.3.2v2.2h-6.3ZM1045.6,242.7h4.7l-2.2-6.3-.2-.6h0l-.2.6-2.1,6.3Z"/>
      <path class="st9" d="M1058.3,250.4v-2.2l2-.4v-13.3l-2-.4v-2.2h5.7l8,12.8h0v-10.2l-2.4-.4v-2.2h7.7v2.2l-2,.4v15.9h-3.6l-8.2-12.7h0v10.1l2.4.4v2.2h-7.7Z"/>
      <path class="st9" d="M1085.9,250.4l-5.9-16-1.7-.2v-2.2h7.4v2.2l-1.7.3,3.6,10.9.3,1h0l.3-1,3.6-10.9-1.9-.3v-2.2h7v2.2l-1.7.2-5.6,16h-3.8Z"/>
      <path class="st9" d="M1098.1,250.4v-2.2l2-.4v-13.3l-2-.4v-2.2h7.6v2.2l-2,.4v13.3l2,.4v2.2h-7.6Z"/>
      <path class="st9" d="M1114.7,250.7c-1.4,0-2.6-.2-3.7-.5s-2.2-.8-3.3-1.6v-4.5h2.9l.4,2.6c.4.3.9.6,1.6.8.7.2,1.4.3,2.2.3s1.2,0,1.7-.3c.5-.2.8-.5,1.1-.8s.4-.7.4-1.2-.1-.8-.3-1.2-.6-.7-1.1-.9c-.5-.3-1.2-.6-2-.8-1.5-.4-2.7-.9-3.6-1.4-1-.5-1.7-1.1-2.2-1.8-.5-.7-.7-1.6-.7-2.6s.3-1.9.8-2.6c.6-.8,1.3-1.4,2.3-1.8,1-.4,2.1-.7,3.4-.7,1.4,0,2.7.2,3.8.5,1.1.4,2,.9,2.8,1.5v4.2h-2.8l-.5-2.5c-.3-.2-.8-.4-1.3-.5s-1.2-.2-1.9-.2-1.1,0-1.6.3c-.5.2-.8.4-1.1.8-.3.3-.4.7-.4,1.2s.1.8.3,1.1c.2.3.6.6,1.1.9.5.3,1.3.6,2.2.9,2,.6,3.6,1.3,4.6,2.2,1.1.9,1.6,2.2,1.6,3.7s-.3,2-.9,2.7c-.6.8-1.4,1.4-2.4,1.8-1,.4-2.2.6-3.6.6Z"/>
      <path class="st9" d="M1122.8,250.4v-2.2l1.3-.2,5.9-16.1h3.8l5.8,16.1,1.3.2v2.2h-6.3v-2.2l1.3-.2-.8-2.5h-6.5l-.8,2.5,1.3.2v2.2h-6.3ZM1129.5,242.7h4.7l-2.2-6.3-.2-.6h0l-.2.6-2.1,6.3Z"/>
    </g>
  </g>
  <g>
    <g>
      <rect class="st5" x="65.3" y="417.4" width="336.5" height="145.4" rx="12" ry="12"/>
      <rect class="st4" x="52.4" y="407.9" width="336.5" height="145.4" rx="12" ry="12"/>
    </g>
    <g>
      <rect class="st0" x="69.5" y="435" width="296.6" height="104.1"/>
      <path class="st9" d="M70.3,454.8v-2.2l2-.4v-13.3l-2-.4v-2.2h5.7l8,12.8h0v-10.2l-2.4-.4v-2.2h7.7v2.2l-2,.4v15.9h-3.6l-8.2-12.7h0v10.1l2.4.4v2.2h-7.7Z"/>
      <path class="st9" d="M97.3,455.1c-1.4,0-2.5-.3-3.5-.9-1-.6-1.7-1.4-2.2-2.5-.5-1.1-.8-2.3-.8-3.6v-.3c0-1.4.3-2.6.8-3.6s1.3-1.9,2.2-2.5,2.1-.9,3.5-.9,2.5.3,3.5.9,1.7,1.4,2.2,2.5.8,2.3.8,3.6v.3c0,1.4-.3,2.6-.8,3.6-.5,1.1-1.3,1.9-2.2,2.5-1,.6-2.1.9-3.5.9ZM97.3,452.3c.6,0,1.2-.2,1.6-.5.4-.3.7-.8.9-1.5s.3-1.3.3-2.2v-.3c0-.8,0-1.5-.3-2.2s-.5-1.1-.9-1.5-.9-.5-1.6-.5-1.2.2-1.6.5-.7.8-.9,1.5-.3,1.3-.3,2.2v.3c0,.8,0,1.6.3,2.2s.5,1.1.9,1.5.9.5,1.6.5Z"/>
      <path class="st9" d="M110.7,455.1c-1.3,0-2.3-.4-3-1.1-.7-.7-1-1.8-1-3.3v-7h-1.9v-2.6h1.9v-3.4h3.7v3.4h2.5v2.6h-2.5v7c0,.5.1.9.3,1.1s.5.3.9.3.4,0,.7,0c.2,0,.4,0,.6,0l.3,2.7c-.4.1-.8.2-1.2.3-.4,0-.9.1-1.3.1Z"/>
      <path class="st9" d="M114.8,454.8v-2.2l1.8-.4v-8.5l-2-.4v-2.2h5.7v11.1l1.8.4v2.2h-7.3ZM116.5,438.2v-3.2h3.8v3.2h-3.8Z"/>
      <path class="st9" d="M123,454.8v-2.2l2-.4v-8.5h-2v-2.6h2v-.9c0-1.7.5-3.1,1.6-4s2.5-1.4,4.4-1.4,1.3,0,2,.2,1.4.3,2.2.6l-.5,2.9c-.6-.2-1.1-.3-1.7-.4s-1.1-.2-1.6-.2c-.9,0-1.6.2-2,.6s-.7,1-.7,1.7v.9h8.3v11.1l2,.4v2.2h-7.5v-2.2l1.8-.4v-8.5h-4.6v8.5l1.8.4v2.2h-7.5Z"/>
      <path class="st9" d="M146.8,455.1c-1.3,0-2.5-.3-3.4-.9-1-.6-1.7-1.4-2.2-2.5-.5-1-.8-2.2-.8-3.6v-.4c0-1.4.3-2.6.8-3.6s1.3-1.9,2.2-2.5,2.1-.9,3.4-.9,2.3.2,3.2.6,1.6.8,2.2,1.3v3.9h-2.8l-.5-2.5c-.2-.2-.5-.4-.8-.5s-.6-.2-1-.2c-.7,0-1.2.2-1.7.5s-.8.8-1,1.4-.3,1.4-.3,2.3v.4c0,.9.1,1.7.4,2.3s.6,1.1,1,1.3c.4.3.9.4,1.4.4s1.2-.2,1.6-.5.7-.8.8-1.5h3.2c-.1,1-.4,1.9-.9,2.6s-1,1.3-1.8,1.6-1.8.6-3,.6Z"/>
      <path class="st9" d="M158.7,455.1c-1.4,0-2.4-.4-3.2-1.1-.8-.7-1.2-1.7-1.2-3s.5-2.3,1.6-3.2,2.6-1.2,4.6-1.2h1.8v-1c0-.7-.2-1.2-.6-1.6s-1-.6-1.7-.6-.8,0-1.1.1-.6.2-.9.4l-.3,1.8h-2.7v-3.6c.7-.4,1.4-.7,2.3-1s1.8-.4,2.8-.4c1.8,0,3.2.4,4.3,1.3s1.6,2,1.6,3.6v5.7c0,.2,0,.4,0,.6,0,.2,0,.4,0,.5l1.4.2v2.2h-4.6c0-.2-.2-.5-.3-.8,0-.3-.2-.5-.2-.8-.4.6-1,1-1.6,1.3-.6.3-1.3.5-2.1.5ZM159.6,452.4c.5,0,1-.1,1.5-.3.5-.2.8-.5,1.1-.9v-2.2h-1.8c-.8,0-1.4.2-1.8.6s-.6.8-.6,1.3.2.9.5,1.1.7.4,1.3.4Z"/>
      <path class="st9" d="M175.2,455.1c-1.3,0-2.5-.3-3.4-.9-1-.6-1.7-1.4-2.2-2.5-.5-1-.8-2.2-.8-3.6v-.4c0-1.4.3-2.6.8-3.6s1.3-1.9,2.2-2.5,2.1-.9,3.4-.9,2.3.2,3.2.6,1.6.8,2.2,1.3v3.9h-2.8l-.5-2.5c-.2-.2-.5-.4-.8-.5s-.6-.2-1-.2c-.7,0-1.2.2-1.7.5s-.8.8-1,1.4-.3,1.4-.3,2.3v.4c0,.9.1,1.7.4,2.3s.6,1.1,1,1.3c.4.3.9.4,1.4.4s1.2-.2,1.6-.5.7-.8.8-1.5h3.2c-.1,1-.4,1.9-.9,2.6s-1,1.3-1.8,1.6-1.8.6-3,.6ZM173.4,460.7v-2c.4,0,.8,0,1.1-.2s.5-.4.5-.8-.1-.6-.4-.8-.8-.2-1.4-.3l.4-2h2.7l-.2.9c.6,0,1,.3,1.4.6.4.3.6.8.6,1.5s-.4,1.6-1.2,2.2c-.8.5-2,.8-3.5.8Z"/>
      <path class="st9" d="M187,455.1c-1.4,0-2.4-.4-3.2-1.1-.8-.7-1.2-1.7-1.2-3s.5-2.3,1.6-3.2,2.6-1.2,4.6-1.2h1.8v-1c0-.7-.2-1.2-.6-1.6s-1-.6-1.7-.6-.8,0-1.1.1-.6.2-.9.4l-.3,1.8h-2.7v-3.6c.7-.4,1.4-.7,2.3-1s1.8-.4,2.8-.4c1.8,0,3.2.4,4.3,1.3s1.6,2,1.6,3.6v5.7c0,.2,0,.4,0,.6,0,.2,0,.4,0,.5l1.4.2v2.2h-4.6c0-.2-.2-.5-.3-.8,0-.3-.2-.5-.2-.8-.4.6-1,1-1.6,1.3-.6.3-1.3.5-2.1.5ZM185.8,438.5l-1.9-.5c0-.6.1-1.1.4-1.6s.6-.9,1.1-1.2.9-.4,1.4-.4.8.1,1.3.3.9.4,1.3.6.7.3,1,.3c.3,0,.6-.1.8-.4s.3-.6.3-1l1.9.5c0,.6-.1,1.1-.4,1.6s-.6.9-1.1,1.1-.9.4-1.4.4-.9-.1-1.3-.3-.9-.4-1.2-.6-.7-.3-1-.3-.6.1-.8.4-.3.6-.3,1ZM188,452.4c.5,0,1-.1,1.5-.3.5-.2.8-.5,1.1-.9v-2.2h-1.8c-.8,0-1.4.2-1.8.6s-.6.8-.6,1.3.2.9.5,1.1.7.4,1.3.4Z"/>
      <path class="st9" d="M203.7,455.1c-1.4,0-2.5-.3-3.5-.9-1-.6-1.7-1.4-2.2-2.5-.5-1.1-.8-2.3-.8-3.6v-.3c0-1.4.3-2.6.8-3.6s1.3-1.9,2.2-2.5,2.1-.9,3.5-.9,2.5.3,3.5.9,1.7,1.4,2.2,2.5.8,2.3.8,3.6v.3c0,1.4-.3,2.6-.8,3.6-.5,1.1-1.3,1.9-2.2,2.5-1,.6-2.1.9-3.5.9ZM203.7,452.3c.6,0,1.2-.2,1.6-.5.4-.3.7-.8.9-1.5s.3-1.3.3-2.2v-.3c0-.8,0-1.5-.3-2.2s-.5-1.1-.9-1.5-.9-.5-1.6-.5-1.2.2-1.6.5-.7.8-.9,1.5-.3,1.3-.3,2.2v.3c0,.8,0,1.6.3,2.2s.5,1.1.9,1.5.9.5,1.6.5Z"/>
      <path class="st9" d="M222.7,455.1c-1.4,0-2.4-.4-3.2-1.1-.8-.7-1.2-1.7-1.2-3s.5-2.3,1.6-3.2,2.6-1.2,4.6-1.2h1.8v-1c0-.7-.2-1.2-.6-1.6s-1-.6-1.7-.6-.8,0-1.1.1-.6.2-.9.4l-.3,1.8h-2.7v-3.6c.7-.4,1.4-.7,2.3-1s1.8-.4,2.8-.4c1.8,0,3.2.4,4.3,1.3s1.6,2,1.6,3.6v5.7c0,.2,0,.4,0,.6,0,.2,0,.4,0,.5l1.4.2v2.2h-4.6c0-.2-.2-.5-.3-.8,0-.3-.2-.5-.2-.8-.4.6-1,1-1.6,1.3-.6.3-1.3.5-2.1.5ZM223.7,452.4c.5,0,1-.1,1.5-.3.5-.2.8-.5,1.1-.9v-2.2h-1.8c-.8,0-1.4.2-1.8.6s-.6.8-.6,1.3.2.9.5,1.1.7.4,1.3.4Z"/>
      <path class="st9" d="M239.3,455.1c-1.4,0-2.5-.3-3.5-.9-1-.6-1.7-1.4-2.2-2.5-.5-1.1-.8-2.3-.8-3.6v-.3c0-1.4.3-2.6.8-3.6s1.3-1.9,2.2-2.5,2.1-.9,3.5-.9,2.5.3,3.5.9,1.7,1.4,2.2,2.5.8,2.3.8,3.6v.3c0,1.4-.3,2.6-.8,3.6-.5,1.1-1.3,1.9-2.2,2.5-1,.6-2.1.9-3.5.9ZM239.3,452.3c.6,0,1.2-.2,1.6-.5.4-.3.7-.8.9-1.5s.3-1.3.3-2.2v-.3c0-.8,0-1.5-.3-2.2s-.5-1.1-.9-1.5-.9-.5-1.6-.5-1.2.2-1.6.5-.7.8-.9,1.5-.3,1.3-.3,2.2v.3c0,.8,0,1.6.3,2.2s.5,1.1.9,1.5.9.5,1.6.5Z"/>
      <path class="st9" d="M253.3,455.1c-1,0-2,0-2.9-.3-.9-.2-1.7-.5-2.5-.8v-3.9s2.5,0,2.5,0l.5,2c.3.1.6.3.9.3.3,0,.7.1,1.2.1.8,0,1.4-.1,1.8-.4.3-.3.5-.6.5-1s-.2-.7-.5-1-1.1-.5-2.2-.8c-1.6-.3-2.8-.9-3.6-1.6s-1.2-1.6-1.2-2.7.2-1.5.6-2.1,1-1.1,1.8-1.5,1.8-.6,3-.6,2,0,2.8.3,1.6.5,2.2.8v3.8s-2.5,0-2.5,0l-.4-1.8c-.2-.2-.5-.3-.8-.4s-.7-.1-1-.1c-.7,0-1.2.1-1.5.4s-.5.6-.5,1,0,.5.2.7.4.4.7.6.9.3,1.6.5c1.7.4,2.9.9,3.7,1.6s1.2,1.6,1.2,2.7-.5,2.3-1.4,3.1-2.3,1.2-4.2,1.2Z"/>
      <path class="st9" d="M275.7,455.1c-1.8,0-3.4-.4-4.7-1.1s-2.4-1.8-3.1-3.2-1.1-3-1.1-4.9v-.6c0-1.8.3-3.4,1-4.8s1.7-2.5,3-3.3,2.8-1.2,4.6-1.2,2.4.2,3.5.5,2.1.9,2.9,1.6v4.5h-2.8l-.4-2.8c-.3-.2-.6-.4-.9-.5s-.7-.3-1.1-.3-.8-.1-1.3-.1c-1,0-2,.3-2.7.8s-1.3,1.2-1.7,2.2-.6,2.1-.6,3.4v.6c0,1.3.2,2.4.6,3.4s1,1.7,1.8,2.2c.8.5,1.7.8,2.8.8s1.1,0,1.6-.2c.5-.1,1-.3,1.5-.5l.4-2.6h2.8v4.4c-.7.5-1.6.9-2.7,1.2-1.1.3-2.3.5-3.6.5Z"/>
      <path class="st9" d="M283.6,454.8v-2.2l2-.4v-13.3l-2-.4v-2.2h14.3v5h-2.8l-.2-2.1h-5.7v4.6h6.3v2.9h-6.3v5.3h6l.2-2.2h2.8v5.1h-14.6Z"/>
      <path class="st9" d="M300.2,454.8v-2.2l2-.4v-13.3l-2-.4v-2.2h8.8c1.4,0,2.6.2,3.7.7s1.8,1.2,2.4,2.1.8,1.9.8,3.1-.3,2.2-.8,3.1-1.3,1.6-2.4,2.1-2.2.7-3.7.7h-3.1v4.1l2,.4v2.2h-7.7ZM305.9,445.3h3.1c1,0,1.8-.3,2.3-.8s.8-1.3.8-2.2-.3-1.6-.8-2.2-1.3-.9-2.3-.9h-3.1v6.1Z"/>
      <path class="st9" d="M328.8,455.1c-1.1,0-2-.3-2.8-.8-.8-.6-1.4-1.4-1.8-2.4-.4-1-.6-2.2-.6-3.5v-.3c0-1.4.2-2.7.6-3.8s1-1.9,1.8-2.5,1.7-.9,2.8-.9,1.4.2,2,.5c.6.3,1.1.7,1.5,1.3v-4.9l-2-.4v-2.2h5.7v17.2l1.8.4v2.2h-5l-.3-1.7c-.4.6-.9,1.1-1.5,1.4-.6.3-1.3.5-2.1.5ZM329.9,452.2c.5,0,1-.1,1.4-.3.4-.2.7-.5,1-1v-5.8c-.3-.4-.6-.8-1-1-.4-.2-.8-.4-1.3-.4s-1.1.2-1.5.6-.7.9-.9,1.5-.3,1.4-.3,2.3v.3c0,1.2.2,2.1.6,2.8.4.7,1.1,1,2,1Z"/>
      <path class="st9" d="M345.5,455.1c-1.4,0-2.5-.3-3.5-.9-1-.6-1.7-1.4-2.2-2.5-.5-1.1-.8-2.3-.8-3.6v-.3c0-1.4.3-2.6.8-3.6s1.3-1.9,2.2-2.5c1-.6,2.1-.9,3.5-.9s2.5.3,3.5.9,1.7,1.4,2.2,2.5.8,2.3.8,3.6v.3c0,1.4-.3,2.6-.8,3.6-.5,1.1-1.3,1.9-2.2,2.5-1,.6-2.1.9-3.5.9ZM345.5,452.3c.6,0,1.2-.2,1.6-.5.4-.3.7-.8.9-1.5s.3-1.3.3-2.2v-.3c0-.8,0-1.5-.3-2.2s-.5-1.1-.9-1.5c-.4-.4-.9-.5-1.6-.5s-1.2.2-1.6.5-.7.8-.9,1.5c-.2.6-.3,1.3-.3,2.2v.3c0,.8,0,1.6.3,2.2.2.6.5,1.1.9,1.5s.9.5,1.6.5Z"/>
      <path class="st9" d="M359.5,455.1c-1,0-2,0-2.9-.3-.9-.2-1.7-.5-2.5-.8v-3.9s2.5,0,2.5,0l.5,2c.3.1.6.3.9.3.3,0,.7.1,1.2.1.8,0,1.4-.1,1.8-.4.3-.3.5-.6.5-1s-.2-.7-.5-1c-.4-.3-1.1-.5-2.2-.8-1.6-.3-2.8-.9-3.6-1.6s-1.2-1.6-1.2-2.7.2-1.5.6-2.1c.4-.6,1-1.1,1.8-1.5.8-.4,1.8-.6,3-.6s2,0,2.8.3c.9.2,1.6.5,2.2.8v3.8s-2.5,0-2.5,0l-.4-1.8c-.2-.2-.5-.3-.8-.4-.3,0-.7-.1-1-.1-.7,0-1.2.1-1.5.4s-.5.6-.5,1,0,.5.2.7c.1.2.4.4.7.6s.9.3,1.6.5c1.7.4,2.9.9,3.7,1.6s1.2,1.6,1.2,2.7-.5,2.3-1.4,3.1c-.9.8-2.3,1.2-4.2,1.2Z"/>
      <path class="st9" d="M130,489.1c-1.1,0-2-.3-2.8-.8-.8-.6-1.4-1.4-1.8-2.4-.4-1-.6-2.2-.6-3.5v-.3c0-1.4.2-2.7.6-3.8.4-1.1,1-1.9,1.8-2.5.8-.6,1.7-.9,2.8-.9s1.4.2,2,.5c.6.3,1.1.7,1.5,1.3v-4.9l-2-.4v-2.2h5.7v17.2l1.8.4v2.2h-5l-.3-1.7c-.4.6-.9,1.1-1.5,1.4s-1.3.5-2.1.5ZM131.1,486.2c.5,0,1-.1,1.4-.3.4-.2.7-.5,1-1v-5.8c-.3-.4-.6-.8-1-1s-.8-.4-1.3-.4-1.1.2-1.5.6-.7.9-.9,1.5c-.2.7-.3,1.4-.3,2.3v.3c0,1.2.2,2.1.6,2.8.4.7,1.1,1,2,1Z"/>
      <path class="st9" d="M146.7,489.1c-1.3,0-2.5-.3-3.4-.9-1-.6-1.7-1.4-2.3-2.4s-.8-2.2-.8-3.5v-.5c0-1.4.3-2.6.8-3.6s1.2-1.9,2.2-2.5c.9-.6,2-.9,3.3-.9s2.3.2,3.1.7c.8.5,1.5,1.2,1.9,2.1.4.9.7,2,.7,3.4v2h-8.1c0,.7.2,1.2.5,1.7s.6.8,1.1,1.1,1,.4,1.7.4,1.3,0,1.9-.3c.6-.2,1.2-.4,1.7-.8l1,2.3c-.6.5-1.3.8-2.1,1.1-.9.3-1.8.5-3,.5ZM144,480.6h4.6v-.3c0-.6,0-1-.2-1.4-.1-.4-.4-.7-.7-.9-.3-.2-.7-.3-1.3-.3s-.9.1-1.2.4c-.3.3-.6.6-.8,1.1-.2.4-.3,1-.4,1.5h0Z"/>
      <path class="st9" d="M153.7,488.8v-2.2l1.8-.4v-8.5l-2-.4v-2.2h5.4l.2,1.8c.4-.7,1-1.2,1.7-1.5.7-.4,1.4-.5,2.3-.5s1.6.2,2.3.6c.6.4,1.1,1,1.4,1.8.4-.7,1-1.3,1.7-1.7.7-.4,1.5-.6,2.4-.6,1.4,0,2.4.5,3.2,1.4.8.9,1.2,2.3,1.2,4.2v5.8l1.8.4v2.2h-7.1v-2.2l1.6-.4v-5.8c0-1-.2-1.7-.5-2.1s-.8-.6-1.5-.6-1.1.2-1.5.5c-.4.3-.7.8-.9,1.3v6.7l1.5.4v2.2h-6.7v-2.2l1.5-.4v-5.8c0-1-.2-1.7-.5-2.1s-.8-.6-1.5-.6-1,.1-1.4.3c-.4.2-.7.5-.9.9v7.3l1.6.4v2.2h-7.1Z"/>
      <path class="st9" d="M182.7,489.1c-1.4,0-2.4-.4-3.2-1.1-.8-.7-1.2-1.7-1.2-3s.5-2.3,1.6-3.2c1-.8,2.6-1.2,4.6-1.2h1.8v-1c0-.7-.2-1.2-.6-1.6-.4-.4-1-.6-1.7-.6s-.8,0-1.1.1c-.3,0-.6.2-.9.4l-.3,1.8h-2.7v-3.6c.7-.4,1.4-.7,2.3-1s1.8-.4,2.8-.4c1.8,0,3.2.4,4.3,1.3,1,.8,1.6,2,1.6,3.6v5.7c0,.2,0,.4,0,.6,0,.2,0,.4,0,.5l1.4.2v2.2h-4.6c0-.2-.2-.5-.3-.8,0-.3-.2-.5-.2-.8-.4.6-1,1-1.6,1.3-.6.3-1.3.5-2.1.5ZM183.7,486.4c.5,0,1-.1,1.5-.3.5-.2.8-.5,1.1-.9v-2.2h-1.8c-.8,0-1.4.2-1.8.6-.4.4-.6.8-.6,1.3s.2.9.5,1.1.7.4,1.3.4Z"/>
      <path class="st9" d="M192.7,488.8v-2.2l1.8-.4v-8.5l-2-.4v-2.2h5.7v11.1l1.8.4v2.2h-7.3ZM194.3,472.2v-3.2h3.8v3.2h-3.8Z"/>
      <path class="st9" d="M207.1,489.1c-1,0-2,0-2.9-.3-.9-.2-1.7-.5-2.5-.8v-3.9s2.5,0,2.5,0l.5,2c.3.1.6.3.9.3.3,0,.7.1,1.2.1.8,0,1.4-.1,1.8-.4.3-.3.5-.6.5-1s-.2-.7-.5-1-1.1-.5-2.2-.8c-1.6-.3-2.8-.9-3.6-1.6s-1.2-1.6-1.2-2.7.2-1.5.6-2.1c.4-.6,1-1.1,1.8-1.5s1.8-.6,3-.6,2,0,2.8.3c.9.2,1.6.5,2.2.8v3.8s-2.5,0-2.5,0l-.4-1.8c-.2-.2-.5-.3-.8-.4-.3,0-.7-.1-1-.1-.7,0-1.2.1-1.5.4-.3.3-.5.6-.5,1s0,.5.2.7.4.4.7.6.9.3,1.6.5c1.7.4,2.9.9,3.7,1.6s1.2,1.6,1.2,2.7-.5,2.3-1.4,3.1-2.3,1.2-4.2,1.2Z"/>
      <path class="st9" d="M227.1,489.1c-1.3,0-2.5-.3-3.4-.9-1-.6-1.7-1.4-2.2-2.5-.5-1-.8-2.2-.8-3.6v-.4c0-1.4.3-2.6.8-3.6s1.3-1.9,2.2-2.5,2.1-.9,3.4-.9,2.3.2,3.2.6c.9.4,1.6.8,2.2,1.3v3.9h-2.8l-.5-2.5c-.2-.2-.5-.4-.8-.5s-.6-.2-1-.2c-.7,0-1.2.2-1.7.5-.4.3-.8.8-1,1.4-.2.6-.3,1.4-.3,2.3v.4c0,.9.1,1.7.4,2.3.2.6.6,1.1,1,1.3.4.3.9.4,1.4.4s1.2-.2,1.6-.5.7-.8.8-1.5h3.2c-.1,1-.4,1.9-.9,2.6s-1,1.3-1.8,1.6-1.8.6-3,.6Z"/>
      <path class="st9" d="M241,489.1c-1.3,0-2.5-.3-3.4-.9-1-.6-1.7-1.4-2.3-2.4s-.8-2.2-.8-3.5v-.5c0-1.4.3-2.6.8-3.6s1.2-1.9,2.2-2.5c.9-.6,2-.9,3.3-.9s2.3.2,3.1.7c.8.5,1.5,1.2,1.9,2.1.4.9.7,2,.7,3.4v2h-8.1c0,.7.2,1.2.5,1.7s.6.8,1.1,1.1,1,.4,1.7.4,1.3,0,1.9-.3c.6-.2,1.2-.4,1.7-.8l1,2.3c-.6.5-1.3.8-2.1,1.1-.9.3-1.8.5-3,.5ZM238.3,480.6h4.6v-.3c0-.6,0-1-.2-1.4-.1-.4-.4-.7-.7-.9-.3-.2-.7-.3-1.3-.3s-.9.1-1.2.4c-.3.3-.6.6-.8,1.1-.2.4-.3,1-.4,1.5h0Z"/>
      <path class="st9" d="M248,488.8v-2.2l1.8-.4v-8.5l-2-.4v-2.2h5.4l.2,2c.5-.7,1-1.2,1.7-1.6.7-.4,1.4-.6,2.3-.6,1.4,0,2.4.4,3.2,1.3.8.9,1.2,2.2,1.2,4.1v6l1.8.4v2.2h-7.1v-2.2l1.6-.4v-6c0-.9-.2-1.6-.5-2-.4-.4-.9-.6-1.6-.6s-1,.1-1.4.3c-.4.2-.7.5-1,1v7.2l1.5.4v2.2h-7Z"/>
      <path class="st9" d="M269.6,489.1c-1.3,0-2.3-.4-3-1.1-.7-.7-1-1.8-1-3.3v-7h-1.9v-2.6h1.9v-3.4h3.7v3.4h2.5v2.6h-2.5v7c0,.5.1.9.3,1.1s.5.3.9.3.4,0,.7,0c.2,0,.4,0,.6,0l.3,2.7c-.4.1-.8.2-1.2.3-.4,0-.9.1-1.3.1Z"/>
      <path class="st9" d="M273.9,488.8v-2.2l1.8-.4v-8.5l-2-.4v-2.2h5.4v1.7c.1,0,.2.3.2.3.3-.7.8-1.3,1.3-1.7s1.1-.6,1.8-.6.5,0,.7,0,.5,0,.7.1l-.4,3.4h-1.8c-.5-.1-1,0-1.3.2s-.6.5-.9.9v6.7l1.8.4v2.2h-7.3Z"/>
      <path class="st9" d="M291.1,489.1c-1.4,0-2.5-.3-3.5-.9-1-.6-1.7-1.4-2.2-2.5s-.8-2.3-.8-3.6v-.3c0-1.4.3-2.6.8-3.6s1.3-1.9,2.2-2.5,2.1-.9,3.5-.9,2.5.3,3.5.9,1.7,1.4,2.2,2.5c.5,1,.8,2.3.8,3.6v.3c0,1.4-.3,2.6-.8,3.6s-1.3,1.9-2.2,2.5c-1,.6-2.1.9-3.5.9ZM291.1,486.3c.6,0,1.2-.2,1.6-.5.4-.3.7-.8.9-1.5s.3-1.3.3-2.2v-.3c0-.8,0-1.5-.3-2.2s-.5-1.1-.9-1.5c-.4-.4-.9-.5-1.6-.5s-1.2.2-1.6.5c-.4.4-.7.8-.9,1.5s-.3,1.3-.3,2.2v.3c0,.8,0,1.6.3,2.2.2.6.5,1.1.9,1.5s.9.5,1.6.5Z"/>
      <path class="st9" d="M305.1,489.1c-1,0-2,0-2.9-.3-.9-.2-1.7-.5-2.5-.8v-3.9s2.5,0,2.5,0l.5,2c.3.1.6.3.9.3.3,0,.7.1,1.2.1.8,0,1.4-.1,1.8-.4.3-.3.5-.6.5-1s-.2-.7-.5-1-1.1-.5-2.2-.8c-1.6-.3-2.8-.9-3.6-1.6s-1.2-1.6-1.2-2.7.2-1.5.6-2.1c.4-.6,1-1.1,1.8-1.5s1.8-.6,3-.6,2,0,2.8.3c.9.2,1.6.5,2.2.8v3.8s-2.5,0-2.5,0l-.4-1.8c-.2-.2-.5-.3-.8-.4-.3,0-.7-.1-1-.1-.7,0-1.2.1-1.5.4-.3.3-.5.6-.5,1s0,.5.2.7.4.4.7.6.9.3,1.6.5c1.7.4,2.9.9,3.7,1.6s1.2,1.6,1.2,2.7-.5,2.3-1.4,3.1-2.3,1.2-4.2,1.2Z"/>
      <path class="st9" d="M136.2,528.1v-2.2l1.8-.4v-13.8l-2-.4v-2.2h5.4l.2,1.6c.4-.6.9-1,1.5-1.4.6-.3,1.3-.5,2.1-.5s2.1.3,2.8.9c.8.6,1.4,1.4,1.8,2.5.4,1.1.6,2.3.6,3.8v.3c0,1.4-.2,2.5-.6,3.5-.4,1-1,1.8-1.8,2.4-.8.6-1.7.8-2.9.8s-1.4-.1-1.9-.4-1-.7-1.4-1.2v4l1.8.4v2.2h-7.3ZM144,520.3c.9,0,1.6-.4,2.1-1.1.4-.7.6-1.7.6-2.9v-.3c0-.9,0-1.6-.3-2.3s-.5-1.2-.9-1.5-.9-.6-1.5-.6-1,.1-1.3.3-.7.6-.9,1v6c.2.4.5.7.9.9s.8.3,1.4.3Z"/>
      <path class="st9" d="M156.6,523.1c-1.4,0-2.4-.4-3.2-1.1-.8-.7-1.2-1.7-1.2-3s.5-2.3,1.6-3.2c1-.8,2.6-1.2,4.6-1.2h1.8v-1c0-.7-.2-1.2-.6-1.6-.4-.4-1-.6-1.7-.6s-.8,0-1.1.1c-.3,0-.6.2-.9.4l-.3,1.8h-2.7v-3.6c.7-.4,1.4-.7,2.3-1s1.8-.4,2.8-.4c1.8,0,3.2.4,4.3,1.3,1,.8,1.6,2,1.6,3.6v5.7c0,.2,0,.4,0,.6,0,.2,0,.4,0,.5l1.4.2v2.2h-4.6c0-.2-.2-.5-.3-.8,0-.3-.2-.5-.2-.8-.4.6-1,1-1.6,1.3-.6.3-1.3.5-2.1.5ZM157.6,520.4c.5,0,1-.1,1.5-.3.5-.2.8-.5,1.1-.9v-2.2h-1.8c-.8,0-1.4.2-1.8.6-.4.4-.6.8-.6,1.3s.2.9.5,1.1.7.4,1.3.4Z"/>
      <path class="st9" d="M167,522.8v-2.2l1.8-.4v-8.5l-2-.4v-2.2h5.4v1.7c.1,0,.2.3.2.3.3-.7.8-1.3,1.3-1.7s1.1-.6,1.8-.6.5,0,.7,0,.5,0,.7.1l-.4,3.4h-1.8c-.5-.1-1,0-1.3.2s-.6.5-.9.9v6.7l1.8.4v2.2h-7.3Z"/>
      <path class="st9" d="M183.6,523.1c-1.3,0-2.3-.4-3-1.1-.7-.7-1-1.8-1-3.3v-7h-1.9v-2.6h1.9v-3.4h3.7v3.4h2.5v2.6h-2.5v7c0,.5.1.9.3,1.1s.5.3.9.3.4,0,.7,0c.2,0,.4,0,.6,0l.3,2.7c-.4.1-.8.2-1.2.3-.4,0-.9.1-1.3.1Z"/>
      <path class="st9" d="M187.8,522.8v-2.2l1.8-.4v-8.5l-2-.4v-2.2h5.7v11.1l1.8.4v2.2h-7.3ZM189.4,506.2v-3.2h3.8v3.2h-3.8Z"/>
      <path class="st9" d="M202.7,523.1c-1.3,0-2.5-.3-3.4-.9-1-.6-1.7-1.4-2.2-2.5-.5-1-.8-2.2-.8-3.6v-.4c0-1.4.3-2.6.8-3.6s1.3-1.9,2.2-2.5,2.1-.9,3.4-.9,2.3.2,3.2.6c.9.4,1.6.8,2.2,1.3v3.9h-2.8l-.5-2.5c-.2-.2-.5-.4-.8-.5s-.6-.2-1-.2c-.7,0-1.2.2-1.7.5-.4.3-.8.8-1,1.4-.2.6-.3,1.4-.3,2.3v.4c0,.9.1,1.7.4,2.3.2.6.6,1.1,1,1.3.4.3.9.4,1.4.4s1.2-.2,1.6-.5.7-.8.8-1.5h3.2c-.1,1-.4,1.9-.9,2.6s-1,1.3-1.8,1.6-1.8.6-3,.6Z"/>
      <path class="st9" d="M209.9,522.8v-2.2l1.8-.4v-8.5l-2-.4v-2.2h5.7v11.1l1.8.4v2.2h-7.3ZM211.6,506.2v-3.2h3.8v3.2h-3.8Z"/>
      <path class="st9" d="M218.3,528.1v-2.2l1.8-.4v-13.8l-2-.4v-2.2h5.4l.2,1.6c.4-.6.9-1,1.5-1.4.6-.3,1.3-.5,2.1-.5s2.1.3,2.8.9c.8.6,1.4,1.4,1.8,2.5.4,1.1.6,2.3.6,3.8v.3c0,1.4-.2,2.5-.6,3.5-.4,1-1,1.8-1.8,2.4-.8.6-1.7.8-2.9.8s-1.4-.1-1.9-.4-1-.7-1.4-1.2v4l1.8.4v2.2h-7.3ZM226.1,520.3c.9,0,1.6-.4,2.1-1.1.4-.7.6-1.7.6-2.9v-.3c0-.9,0-1.6-.3-2.3s-.5-1.2-.9-1.5-.9-.6-1.5-.6-1,.1-1.3.3-.7.6-.9,1v6c.2.4.5.7.9.9s.8.3,1.4.3Z"/>
      <path class="st9" d="M238.8,523.1c-1.4,0-2.4-.4-3.2-1.1-.8-.7-1.2-1.7-1.2-3s.5-2.3,1.6-3.2c1-.8,2.6-1.2,4.6-1.2h1.8v-1c0-.7-.2-1.2-.6-1.6-.4-.4-1-.6-1.7-.6s-.8,0-1.1.1c-.3,0-.6.2-.9.4l-.3,1.8h-2.7v-3.6c.7-.4,1.4-.7,2.3-1s1.8-.4,2.8-.4c1.8,0,3.2.4,4.3,1.3,1,.8,1.6,2,1.6,3.6v5.7c0,.2,0,.4,0,.6,0,.2,0,.4,0,.5l1.4.2v2.2h-4.6c0-.2-.2-.5-.3-.8,0-.3-.2-.5-.2-.8-.4.6-1,1-1.6,1.3-.6.3-1.3.5-2.1.5ZM239.7,520.4c.5,0,1-.1,1.5-.3.5-.2.8-.5,1.1-.9v-2.2h-1.8c-.8,0-1.4.2-1.8.6-.4.4-.6.8-.6,1.3s.2.9.5,1.1.7.4,1.3.4Z"/>
      <path class="st9" d="M248.7,522.8v-2.2l1.8-.4v-8.5l-2-.4v-2.2h5.4l.2,2c.5-.7,1-1.2,1.7-1.6.7-.4,1.4-.6,2.3-.6,1.4,0,2.4.4,3.2,1.3.8.9,1.2,2.2,1.2,4.1v6l1.8.4v2.2h-7.1v-2.2l1.6-.4v-6c0-.9-.2-1.6-.5-2-.4-.4-.9-.6-1.6-.6s-1,.1-1.4.3c-.4.2-.7.5-1,1v7.2l1.5.4v2.2h-7Z"/>
      <path class="st9" d="M270.4,523.1c-1.3,0-2.3-.4-3-1.1-.7-.7-1-1.8-1-3.3v-7h-1.9v-2.6h1.9v-3.4h3.7v3.4h2.5v2.6h-2.5v7c0,.5.1.9.3,1.1s.5.3.9.3.4,0,.7,0c.2,0,.4,0,.6,0l.3,2.7c-.4.1-.8.2-1.2.3-.4,0-.9.1-1.3.1Z"/>
      <path class="st9" d="M280.5,523.1c-1.3,0-2.5-.3-3.4-.9-1-.6-1.7-1.4-2.3-2.4s-.8-2.2-.8-3.5v-.5c0-1.4.3-2.6.8-3.6s1.2-1.9,2.2-2.5c.9-.6,2-.9,3.3-.9s2.3.2,3.1.7c.8.5,1.5,1.2,1.9,2.1.4.9.7,2,.7,3.4v2h-8.1c0,.7.2,1.2.5,1.7s.6.8,1.1,1.1,1,.4,1.7.4,1.3,0,1.9-.3c.6-.2,1.2-.4,1.7-.8l1,2.3c-.6.5-1.3.8-2.1,1.1-.9.3-1.8.5-3,.5ZM277.9,514.6h4.6v-.3c0-.6,0-1-.2-1.4-.1-.4-.4-.7-.7-.9-.3-.2-.7-.3-1.3-.3s-.9.1-1.2.4c-.3.3-.6.6-.8,1.1-.2.4-.3,1-.4,1.5h0Z"/>
      <path class="st9" d="M293.5,523.1c-1,0-2,0-2.9-.3-.9-.2-1.7-.5-2.5-.8v-3.9s2.5,0,2.5,0l.5,2c.3.1.6.3.9.3.3,0,.7.1,1.2.1.8,0,1.4-.1,1.8-.4.3-.3.5-.6.5-1s-.2-.7-.5-1-1.1-.5-2.2-.8c-1.6-.3-2.8-.9-3.6-1.6s-1.2-1.6-1.2-2.7.2-1.5.6-2.1c.4-.6,1-1.1,1.8-1.5s1.8-.6,3-.6,2,0,2.8.3c.9.2,1.6.5,2.2.8v3.8s-2.5,0-2.5,0l-.4-1.8c-.2-.2-.5-.3-.8-.4-.3,0-.7-.1-1-.1-.7,0-1.2.1-1.5.4-.3.3-.5.6-.5,1s0,.5.2.7.4.4.7.6.9.3,1.6.5c1.7.4,2.9.9,3.7,1.6s1.2,1.6,1.2,2.7-.5,2.3-1.4,3.1-2.3,1.2-4.2,1.2Z"/>
    </g>
  </g>
  <g>
    <g>
      <rect class="st5" x="914.5" y="417.6" width="336.5" height="145.4" rx="12" ry="12"/>
      <rect class="st4" x="901.6" y="408.1" width="336.5" height="145.4" rx="12" ry="12"/>
    </g>
    <g>
      <rect class="st0" x="918.7" y="435.3" width="296.6" height="104.1"/>
      <path class="st9" d="M956.1,455.1v-2.2l1.3-.2,5.9-16.1h3.8l5.8,16.1,1.3.2v2.2h-6.3v-2.2l1.3-.2-.8-2.5h-6.5l-.8,2.5,1.3.2v2.2h-6.3ZM962.8,447.4h4.7l-2.2-6.3-.2-.6h0l-.2.6-2.1,6.3Z"/>
      <path class="st9" d="M975.2,460.4v-2.2l1.8-.4v-13.8l-2-.4v-2.2h5.4l.2,1.6c.4-.6.9-1,1.5-1.4.6-.3,1.3-.5,2.1-.5s2.1.3,2.8.9,1.4,1.4,1.8,2.5.6,2.3.6,3.8v.3c0,1.4-.2,2.5-.6,3.5s-1,1.8-1.8,2.4c-.8.6-1.7.8-2.9.8s-1.4-.1-1.9-.4c-.6-.3-1-.7-1.4-1.2v4l1.8.4v2.2h-7.3ZM983,452.5c.9,0,1.6-.4,2.1-1.1.4-.7.6-1.7.6-2.9v-.3c0-.9,0-1.6-.3-2.3-.2-.6-.5-1.2-.9-1.5-.4-.4-.9-.6-1.5-.6s-1,.1-1.3.3c-.4.2-.7.6-.9,1v6c.2.4.5.7.9.9.4.2.8.3,1.4.3Z"/>
      <path class="st9" d="M991.3,455.1v-2.2l1.8-.4v-8.5l-2-.4v-2.2h5.4v1.7c.1,0,.2.3.2.3.3-.7.8-1.3,1.3-1.7.5-.4,1.1-.6,1.8-.6s.5,0,.7,0c.3,0,.5,0,.7.1l-.4,3.4h-1.8c-.5-.1-1,0-1.3.2-.3.2-.6.5-.9.9v6.7l1.8.4v2.2h-7.3Z"/>
      <path class="st9" d="M1008.6,455.3c-1.4,0-2.5-.3-3.5-.9-1-.6-1.7-1.4-2.2-2.5-.5-1.1-.8-2.3-.8-3.6v-.3c0-1.4.3-2.6.8-3.6.5-1.1,1.3-1.9,2.2-2.5,1-.6,2.1-.9,3.5-.9s2.5.3,3.5.9,1.7,1.4,2.2,2.5c.5,1,.8,2.3.8,3.6v.3c0,1.4-.3,2.6-.8,3.6-.5,1.1-1.3,1.9-2.2,2.5-1,.6-2.1.9-3.5.9ZM1008.6,452.5c.6,0,1.2-.2,1.6-.5.4-.3.7-.8.9-1.5.2-.6.3-1.3.3-2.2v-.3c0-.8,0-1.5-.3-2.2-.2-.6-.5-1.1-.9-1.5-.4-.4-.9-.5-1.6-.5s-1.2.2-1.6.5c-.4.4-.7.8-.9,1.5s-.3,1.3-.3,2.2v.3c0,.8,0,1.6.3,2.2s.5,1.1.9,1.5c.4.3.9.5,1.6.5Z"/>
      <path class="st9" d="M1021.4,455.1l-4.2-11.3-1.5-.2v-2.2h6.7v2.2l-1.4.3,2.1,6.2.3,1.1h0l.4-1.1,2.3-6.2-1.7-.3v-2.2h6.7v2.2l-1.5.3-4.3,11.2h-3.8Z"/>
      <path class="st9" d="M1036.5,455.3c-1.4,0-2.4-.4-3.2-1.1-.8-.7-1.2-1.7-1.2-3s.5-2.3,1.6-3.2c1-.8,2.6-1.2,4.6-1.2h1.8v-1c0-.7-.2-1.2-.6-1.6-.4-.4-1-.6-1.7-.6s-.8,0-1.1.1-.6.2-.9.4l-.3,1.8h-2.7v-3.6c.7-.4,1.4-.7,2.3-1s1.8-.4,2.8-.4c1.8,0,3.2.4,4.3,1.3s1.6,2,1.6,3.6v5.7c0,.2,0,.4,0,.6,0,.2,0,.4,0,.5l1.4.2v2.2h-4.6c0-.2-.2-.5-.3-.8,0-.3-.2-.5-.2-.8-.4.6-1,1-1.6,1.3s-1.3.5-2.1.5ZM1037.5,452.6c.5,0,1-.1,1.5-.3.5-.2.8-.5,1.1-.9v-2.2h-1.8c-.8,0-1.4.2-1.8.6s-.6.8-.6,1.3.2.9.5,1.1c.3.3.7.4,1.3.4Z"/>
      <path class="st9" d="M1053,455.3c-1.3,0-2.5-.3-3.4-.9-1-.6-1.7-1.4-2.2-2.5-.5-1-.8-2.2-.8-3.6v-.4c0-1.4.3-2.6.8-3.6.5-1,1.3-1.9,2.2-2.5,1-.6,2.1-.9,3.4-.9s2.3.2,3.2.6c.9.4,1.6.8,2.2,1.3v3.9h-2.8l-.5-2.5c-.2-.2-.5-.4-.8-.5-.3-.1-.6-.2-1-.2-.7,0-1.2.2-1.7.5s-.8.8-1,1.4c-.2.6-.3,1.4-.3,2.3v.4c0,.9.1,1.7.4,2.3.2.6.6,1.1,1,1.3.4.3.9.4,1.4.4s1.2-.2,1.6-.5.7-.8.8-1.5h3.2c-.1,1-.4,1.9-.9,2.6-.4.7-1,1.3-1.8,1.6s-1.8.6-3,.6ZM1051.3,460.9v-2c.4,0,.8,0,1.1-.2.3-.2.5-.4.5-.8s-.1-.6-.4-.8c-.3-.1-.8-.2-1.4-.3l.4-2h2.7l-.2.9c.6,0,1,.3,1.4.6s.6.8.6,1.5-.4,1.6-1.2,2.2c-.8.5-2,.8-3.5.8Z"/>
      <path class="st9" d="M1064.9,455.3c-1.4,0-2.4-.4-3.2-1.1-.8-.7-1.2-1.7-1.2-3s.5-2.3,1.6-3.2c1-.8,2.6-1.2,4.6-1.2h1.8v-1c0-.7-.2-1.2-.6-1.6-.4-.4-1-.6-1.7-.6s-.8,0-1.1.1-.6.2-.9.4l-.3,1.8h-2.7v-3.6c.7-.4,1.4-.7,2.3-1s1.8-.4,2.8-.4c1.8,0,3.2.4,4.3,1.3s1.6,2,1.6,3.6v5.7c0,.2,0,.4,0,.6,0,.2,0,.4,0,.5l1.4.2v2.2h-4.6c0-.2-.2-.5-.3-.8,0-.3-.2-.5-.2-.8-.4.6-1,1-1.6,1.3s-1.3.5-2.1.5ZM1063.6,438.8l-1.9-.5c0-.6.1-1.1.4-1.6s.6-.9,1.1-1.2c.4-.3.9-.4,1.4-.4s.8.1,1.3.3c.4.2.9.4,1.3.6.4.2.7.3,1,.3.3,0,.6-.1.8-.4.2-.3.3-.6.3-1l1.9.5c0,.6-.1,1.1-.4,1.6s-.6.9-1.1,1.1c-.4.3-.9.4-1.4.4s-.9-.1-1.3-.3c-.4-.2-.9-.4-1.2-.6s-.7-.3-1-.3-.6.1-.8.4-.3.6-.3,1ZM1065.9,452.6c.5,0,1-.1,1.5-.3.5-.2.8-.5,1.1-.9v-2.2h-1.8c-.8,0-1.4.2-1.8.6s-.6.8-.6,1.3.2.9.5,1.1c.3.3.7.4,1.3.4Z"/>
      <path class="st9" d="M1081.5,455.3c-1.4,0-2.5-.3-3.5-.9-1-.6-1.7-1.4-2.2-2.5-.5-1.1-.8-2.3-.8-3.6v-.3c0-1.4.3-2.6.8-3.6.5-1.1,1.3-1.9,2.2-2.5,1-.6,2.1-.9,3.5-.9s2.5.3,3.5.9,1.7,1.4,2.2,2.5c.5,1,.8,2.3.8,3.6v.3c0,1.4-.3,2.6-.8,3.6-.5,1.1-1.3,1.9-2.2,2.5-1,.6-2.1.9-3.5.9ZM1081.5,452.5c.6,0,1.2-.2,1.6-.5.4-.3.7-.8.9-1.5.2-.6.3-1.3.3-2.2v-.3c0-.8,0-1.5-.3-2.2-.2-.6-.5-1.1-.9-1.5-.4-.4-.9-.5-1.6-.5s-1.2.2-1.6.5c-.4.4-.7.8-.9,1.5s-.3,1.3-.3,2.2v.3c0,.8,0,1.6.3,2.2s.5,1.1.9,1.5c.4.3.9.5,1.6.5Z"/>
      <path class="st9" d="M1102.6,455.3c-1.4,0-2.5-.3-3.5-.9-1-.6-1.7-1.4-2.2-2.5-.5-1.1-.8-2.3-.8-3.6v-.3c0-1.4.3-2.6.8-3.6.5-1.1,1.3-1.9,2.2-2.5,1-.6,2.1-.9,3.5-.9s2.5.3,3.5.9,1.7,1.4,2.2,2.5c.5,1,.8,2.3.8,3.6v.3c0,1.4-.3,2.6-.8,3.6-.5,1.1-1.3,1.9-2.2,2.5-1,.6-2.1.9-3.5.9ZM1102.6,452.5c.6,0,1.2-.2,1.6-.5.4-.3.7-.8.9-1.5.2-.6.3-1.3.3-2.2v-.3c0-.8,0-1.5-.3-2.2-.2-.6-.5-1.1-.9-1.5-.4-.4-.9-.5-1.6-.5s-1.2.2-1.6.5c-.4.4-.7.8-.9,1.5s-.3,1.3-.3,2.2v.3c0,.8,0,1.6.3,2.2s.5,1.1.9,1.5c.4.3.9.5,1.6.5Z"/>
      <path class="st9" d="M1116.5,455.3c-1.4,0-2.6-.5-3.4-1.4s-1.2-2.3-1.2-4.3v-5.7l-1.5-.4v-2.2h5.2v8.4c0,1,.2,1.7.5,2.1s.9.6,1.6.6,1-.1,1.5-.3c.4-.2.8-.5,1-.9v-7.3l-1.6-.4v-2.2h5.3v11.1l1.7.4v2.2h-4.9l-.3-1.7c-.4.6-1,1.1-1.6,1.5-.7.3-1.4.5-2.2.5Z"/>
      <path class="st9" d="M1133.1,455.1v-2.2l1.8-.4v-8.5l-2-.4v-2.2h5.4l.2,2c.5-.7,1-1.2,1.7-1.6s1.4-.6,2.3-.6c1.4,0,2.4.4,3.2,1.3.8.9,1.2,2.2,1.2,4.1v6l1.8.4v2.2h-7.1v-2.2l1.6-.4v-6c0-.9-.2-1.6-.5-2-.4-.4-.9-.6-1.6-.6s-1,.1-1.4.3-.7.5-1,1v7.2l1.5.4v2.2h-7Z"/>
      <path class="st9" d="M1154.4,455.3c-1.4,0-2.4-.4-3.2-1.1-.8-.7-1.2-1.7-1.2-3s.5-2.3,1.6-3.2c1-.8,2.6-1.2,4.6-1.2h1.8v-1c0-.7-.2-1.2-.6-1.6-.4-.4-1-.6-1.7-.6s-.8,0-1.1.1-.6.2-.9.4l-.3,1.8h-2.7v-3.6c.7-.4,1.4-.7,2.3-1s1.8-.4,2.8-.4c1.8,0,3.2.4,4.3,1.3s1.6,2,1.6,3.6v5.7c0,.2,0,.4,0,.6,0,.2,0,.4,0,.5l1.4.2v2.2h-4.6c0-.2-.2-.5-.3-.8,0-.3-.2-.5-.2-.8-.4.6-1,1-1.6,1.3s-1.3.5-2.1.5ZM1153.1,438.8l-1.9-.5c0-.6.1-1.1.4-1.6s.6-.9,1.1-1.2c.4-.3.9-.4,1.4-.4s.8.1,1.3.3c.4.2.9.4,1.3.6.4.2.7.3,1,.3.3,0,.6-.1.8-.4.2-.3.3-.6.3-1l1.9.5c0,.6-.1,1.1-.4,1.6s-.6.9-1.1,1.1c-.4.3-.9.4-1.4.4s-.9-.1-1.3-.3c-.4-.2-.9-.4-1.2-.6s-.7-.3-1-.3-.6.1-.8.4-.3.6-.3,1ZM1155.4,452.6c.5,0,1-.1,1.5-.3.5-.2.8-.5,1.1-.9v-2.2h-1.8c-.8,0-1.4.2-1.8.6s-.6.8-.6,1.3.2.9.5,1.1c.3.3.7.4,1.3.4Z"/>
      <path class="st9" d="M1171,455.3c-1.4,0-2.5-.3-3.5-.9-1-.6-1.7-1.4-2.2-2.5-.5-1.1-.8-2.3-.8-3.6v-.3c0-1.4.3-2.6.8-3.6.5-1.1,1.3-1.9,2.2-2.5,1-.6,2.1-.9,3.5-.9s2.5.3,3.5.9,1.7,1.4,2.2,2.5c.5,1,.8,2.3.8,3.6v.3c0,1.4-.3,2.6-.8,3.6-.5,1.1-1.3,1.9-2.2,2.5-1,.6-2.1.9-3.5.9ZM1171,452.5c.6,0,1.2-.2,1.6-.5.4-.3.7-.8.9-1.5.2-.6.3-1.3.3-2.2v-.3c0-.8,0-1.5-.3-2.2-.2-.6-.5-1.1-.9-1.5-.4-.4-.9-.5-1.6-.5s-1.2.2-1.6.5c-.4.4-.7.8-.9,1.5s-.3,1.3-.3,2.2v.3c0,.8,0,1.6.3,2.2s.5,1.1.9,1.5c.4.3.9.5,1.6.5Z"/>
      <path class="st9" d="M954.2,489.1v-2.2l1.8-.4v-8.5l-2-.4v-2.2h5.4l.2,1.8c.4-.7,1-1.2,1.7-1.5.7-.4,1.4-.5,2.3-.5s1.6.2,2.3.6c.6.4,1.1,1,1.4,1.8.4-.7,1-1.3,1.7-1.7.7-.4,1.5-.6,2.4-.6,1.4,0,2.4.5,3.2,1.4.8.9,1.2,2.3,1.2,4.2v5.8l1.8.4v2.2h-7.1v-2.2l1.6-.4v-5.8c0-1-.2-1.7-.5-2.1-.3-.4-.8-.6-1.5-.6s-1.1.2-1.5.5c-.4.3-.7.8-.9,1.3v6.7l1.5.4v2.2h-6.7v-2.2l1.5-.4v-5.8c0-1-.2-1.7-.5-2.1-.3-.4-.8-.6-1.5-.6s-1,.1-1.4.3c-.4.2-.7.5-.9.9v7.3l1.6.4v2.2h-7.1Z"/>
      <path class="st9" d="M983.2,489.3c-1.4,0-2.4-.4-3.2-1.1-.8-.7-1.2-1.7-1.2-3s.5-2.3,1.6-3.2c1-.8,2.6-1.2,4.6-1.2h1.8v-1c0-.7-.2-1.2-.6-1.6-.4-.4-1-.6-1.7-.6s-.8,0-1.1.1-.6.2-.9.4l-.3,1.8h-2.7v-3.6c.7-.4,1.4-.7,2.3-1s1.8-.4,2.8-.4c1.8,0,3.2.4,4.3,1.2s1.6,2,1.6,3.6v5.7c0,.2,0,.4,0,.6,0,.2,0,.4,0,.5l1.4.2v2.2h-4.6c0-.2-.2-.5-.3-.8,0-.3-.2-.5-.2-.8-.4.6-1,1-1.6,1.3s-1.3.5-2.1.5ZM984.2,486.6c.5,0,1-.1,1.5-.3.5-.2.8-.5,1.1-.9v-2.2h-1.8c-.8,0-1.4.2-1.8.6-.4.4-.6.8-.6,1.3s.2.9.5,1.1c.3.3.7.4,1.3.4Z"/>
      <path class="st9" d="M993.2,489.1v-2.2l1.8-.4v-8.5l-2-.4v-2.2h5.4l.2,2c.5-.7,1-1.2,1.7-1.6.7-.4,1.4-.6,2.3-.6,1.4,0,2.4.4,3.2,1.3.8.9,1.2,2.2,1.2,4.1v6l1.8.4v2.2h-7.1v-2.2l1.6-.4v-6c0-.9-.2-1.6-.5-2-.4-.4-.9-.6-1.6-.6s-1,.1-1.4.3-.7.5-1,1v7.2l1.5.4v2.2h-7Z"/>
      <path class="st9" d="M1009.8,489.1v-2.2l1.8-.4v-8.5l-2-.4v-2.2h5.7v11.1l1.8.4v2.2h-7.3ZM1011.4,472.4v-3.2h3.8v3.2h-3.8Z"/>
      <path class="st9" d="M1018.5,489.1v-2.2l1.8-.4v-8.5h-2v-2.6h2v-1.5c0-1.5.4-2.7,1.3-3.6.9-.8,2.1-1.3,3.7-1.3s.8,0,1.3,0c.4,0,.8.1,1.1.2l-.3,2.8c-.2,0-.4-.1-.7-.1-.3,0-.5,0-.8,0-.6,0-1.1.2-1.4.5-.3.3-.5.8-.5,1.4v1.5h3.1v2.6h-3.1v8.5l2.4.4v2.2h-7.9Z"/>
      <path class="st9" d="M1035,489.3c-1.3,0-2.5-.3-3.4-.9-1-.6-1.7-1.4-2.3-2.4-.5-1-.8-2.2-.8-3.5v-.5c0-1.4.3-2.6.8-3.6s1.2-1.9,2.2-2.5c.9-.6,2-.9,3.3-.9s2.3.2,3.1.7c.8.5,1.5,1.2,1.9,2.1.4.9.7,2,.7,3.4v2h-8.1c0,.7.2,1.2.5,1.7.2.5.6.8,1.1,1.1s1,.4,1.7.4,1.3,0,1.9-.3c.6-.2,1.2-.4,1.7-.8l1,2.3c-.6.5-1.3.8-2.1,1.1-.9.3-1.8.5-3,.5ZM1032.3,480.9h4.6v-.3c0-.6,0-1-.2-1.4-.1-.4-.4-.7-.7-.9-.3-.2-.7-.3-1.3-.3s-.9.1-1.2.4c-.3.3-.6.6-.8,1.1-.2.4-.3,1-.4,1.5h0Z"/>
      <path class="st9" d="M1048,489.3c-1,0-2,0-2.9-.3-.9-.2-1.7-.5-2.5-.8v-3.9s2.5,0,2.5,0l.5,2c.3.1.6.3.9.3.3,0,.7.1,1.2.1.8,0,1.4-.1,1.8-.4.3-.3.5-.6.5-1s-.2-.7-.5-1c-.4-.3-1.1-.5-2.2-.8-1.6-.3-2.8-.9-3.6-1.6-.8-.7-1.2-1.6-1.2-2.7s.2-1.5.6-2.1c.4-.6,1-1.1,1.8-1.5.8-.4,1.8-.6,3-.6s2,0,2.8.3c.9.2,1.6.5,2.2.8v3.8s-2.5,0-2.5,0l-.4-1.8c-.2-.2-.5-.3-.8-.4-.3,0-.7-.1-1-.1-.7,0-1.2.1-1.5.4-.3.3-.5.6-.5,1s0,.5.2.7c.1.2.4.4.7.6.4.2.9.3,1.6.5,1.7.4,2.9.9,3.7,1.6.8.6,1.2,1.6,1.2,2.7s-.5,2.3-1.4,3.1-2.3,1.2-4.2,1.2Z"/>
      <path class="st9" d="M1060.6,489.3c-1.3,0-2.3-.4-3-1.1-.7-.7-1-1.8-1-3.3v-7h-1.9v-2.6h1.9v-3.4h3.7v3.4h2.5v2.6h-2.5v7c0,.5.1.9.3,1.1.2.2.5.3.9.3s.4,0,.7,0c.2,0,.4,0,.6,0l.3,2.7c-.4.1-.8.2-1.2.3s-.9.1-1.3.1Z"/>
      <path class="st9" d="M1069.2,489.3c-1.4,0-2.4-.4-3.2-1.1-.8-.7-1.2-1.7-1.2-3s.5-2.3,1.6-3.2c1-.8,2.6-1.2,4.6-1.2h1.8v-1c0-.7-.2-1.2-.6-1.6-.4-.4-1-.6-1.7-.6s-.8,0-1.1.1-.6.2-.9.4l-.3,1.8h-2.7v-3.6c.7-.4,1.4-.7,2.3-1s1.8-.4,2.8-.4c1.8,0,3.2.4,4.3,1.2s1.6,2,1.6,3.6v5.7c0,.2,0,.4,0,.6,0,.2,0,.4,0,.5l1.4.2v2.2h-4.6c0-.2-.2-.5-.3-.8,0-.3-.2-.5-.2-.8-.4.6-1,1-1.6,1.3s-1.3.5-2.1.5ZM1070.2,486.6c.5,0,1-.1,1.5-.3.5-.2.8-.5,1.1-.9v-2.2h-1.8c-.8,0-1.4.2-1.8.6-.4.4-.6.8-.6,1.3s.2.9.5,1.1c.3.3.7.4,1.3.4Z"/>
      <path class="st9" d="M1085.7,489.3c-1.3,0-2.5-.3-3.4-.9-1-.6-1.7-1.4-2.2-2.5-.5-1-.8-2.2-.8-3.6v-.4c0-1.4.3-2.6.8-3.6.5-1,1.3-1.9,2.2-2.5,1-.6,2.1-.9,3.4-.9s2.3.2,3.2.6c.9.4,1.6.8,2.2,1.3v3.9h-2.8l-.5-2.4c-.2-.2-.5-.4-.8-.5-.3-.1-.6-.2-1-.2-.7,0-1.2.2-1.7.5-.4.3-.8.8-1,1.4-.2.6-.3,1.4-.3,2.3v.4c0,.9.1,1.7.4,2.3.2.6.6,1.1,1,1.3.4.3.9.4,1.4.4s1.2-.2,1.6-.5.7-.8.8-1.5h3.2c-.1,1-.4,1.9-.9,2.6-.4.7-1,1.3-1.8,1.6s-1.8.6-3,.6ZM1084,494.9v-2c.4,0,.8,0,1.1-.2.3-.2.5-.4.5-.8s-.1-.6-.4-.8c-.3-.1-.8-.2-1.4-.3l.4-2h2.7l-.2.9c.6,0,1,.3,1.4.6s.6.8.6,1.5-.4,1.6-1.2,2.2c-.8.5-2,.8-3.5.8Z"/>
      <path class="st9" d="M1097.6,489.3c-1.4,0-2.4-.4-3.2-1.1-.8-.7-1.2-1.7-1.2-3s.5-2.3,1.6-3.2c1-.8,2.6-1.2,4.6-1.2h1.8v-1c0-.7-.2-1.2-.6-1.6-.4-.4-1-.6-1.7-.6s-.8,0-1.1.1-.6.2-.9.4l-.3,1.8h-2.7v-3.6c.7-.4,1.4-.7,2.3-1s1.8-.4,2.8-.4c1.8,0,3.2.4,4.3,1.2s1.6,2,1.6,3.6v5.7c0,.2,0,.4,0,.6,0,.2,0,.4,0,.5l1.4.2v2.2h-4.6c0-.2-.2-.5-.3-.8,0-.3-.2-.5-.2-.8-.4.6-1,1-1.6,1.3s-1.3.5-2.1.5ZM1096.3,472.8l-1.9-.5c0-.6.1-1.1.4-1.6s.6-.9,1.1-1.2c.4-.3.9-.4,1.4-.4s.8.1,1.3.3c.4.2.9.4,1.3.6.4.2.7.3,1,.3.3,0,.6-.1.8-.4.2-.3.3-.6.3-1l1.9.5c0,.6-.1,1.1-.4,1.6s-.6.9-1.1,1.1c-.4.3-.9.4-1.4.4s-.9-.1-1.3-.3c-.4-.2-.9-.4-1.2-.6s-.7-.3-1-.3-.6.1-.8.4c-.2.3-.3.6-.3,1ZM1098.5,486.6c.5,0,1-.1,1.5-.3.5-.2.8-.5,1.1-.9v-2.2h-1.8c-.8,0-1.4.2-1.8.6-.4.4-.6.8-.6,1.3s.2.9.5,1.1c.3.3.7.4,1.3.4Z"/>
      <path class="st9" d="M1114.2,489.3c-1.4,0-2.5-.3-3.5-.9-1-.6-1.7-1.4-2.2-2.5-.5-1.1-.8-2.3-.8-3.6v-.3c0-1.4.3-2.6.8-3.6.5-1.1,1.3-1.9,2.2-2.5,1-.6,2.1-.9,3.5-.9s2.5.3,3.5.9,1.7,1.4,2.2,2.5c.5,1,.8,2.3.8,3.6v.3c0,1.4-.3,2.6-.8,3.6-.5,1.1-1.3,1.9-2.2,2.5-1,.6-2.1.9-3.5.9ZM1114.2,486.5c.6,0,1.2-.2,1.6-.5.4-.3.7-.8.9-1.5.2-.6.3-1.3.3-2.2v-.3c0-.8,0-1.5-.3-2.2-.2-.6-.5-1.1-.9-1.5-.4-.4-.9-.5-1.6-.5s-1.2.2-1.6.5c-.4.4-.7.8-.9,1.5s-.3,1.3-.3,2.2v.3c0,.8,0,1.6.3,2.2.2.6.5,1.1.9,1.5.4.3.9.5,1.6.5Z"/>
      <path class="st9" d="M1128.6,494.4v-2.2l1.8-.4v-13.8l-2-.4v-2.2h5.4l.2,1.6c.4-.6.9-1,1.5-1.4.6-.3,1.3-.5,2.1-.5s2.1.3,2.8.9,1.4,1.4,1.8,2.5c.4,1.1.6,2.3.6,3.8v.3c0,1.4-.2,2.5-.6,3.5s-1,1.8-1.8,2.4c-.8.6-1.7.8-2.9.8s-1.4-.1-1.9-.4c-.6-.3-1-.7-1.4-1.2v4l1.8.4v2.2h-7.3ZM1136.3,486.5c.9,0,1.6-.4,2.1-1.1.4-.7.6-1.7.6-2.9v-.3c0-.9,0-1.6-.3-2.3-.2-.6-.5-1.2-.9-1.5-.4-.4-.9-.6-1.5-.6s-1,.1-1.3.3c-.4.2-.7.6-.9,1v6c.2.4.5.7.9.9.4.2.8.3,1.4.3Z"/>
      <path class="st9" d="M1151.1,489.3c-1.3,0-2.5-.3-3.4-.9-1-.6-1.7-1.4-2.3-2.4-.5-1-.8-2.2-.8-3.5v-.5c0-1.4.3-2.6.8-3.6s1.2-1.9,2.2-2.5c.9-.6,2-.9,3.3-.9s2.3.2,3.1.7c.8.5,1.5,1.2,1.9,2.1.4.9.7,2,.7,3.4v2h-8.1c0,.7.2,1.2.5,1.7.2.5.6.8,1.1,1.1s1,.4,1.7.4,1.3,0,1.9-.3c.6-.2,1.2-.4,1.7-.8l1,2.3c-.6.5-1.3.8-2.1,1.1-.9.3-1.8.5-3,.5ZM1148.5,480.9h4.6v-.3c0-.6,0-1-.2-1.4-.1-.4-.4-.7-.7-.9-.3-.2-.7-.3-1.3-.3s-.9.1-1.2.4c-.3.3-.6.6-.8,1.1-.2.4-.3,1-.4,1.5h0Z"/>
      <path class="st9" d="M1158,489.1v-2.2l1.8-.4v-14.6l-2-.4v-2.2h5.7v17.2l1.8.4v2.2h-7.3Z"/>
      <path class="st9" d="M1171.1,489.3c-1.4,0-2.4-.4-3.2-1.1-.8-.7-1.2-1.7-1.2-3s.5-2.3,1.6-3.2c1-.8,2.6-1.2,4.6-1.2h1.8v-1c0-.7-.2-1.2-.6-1.6-.4-.4-1-.6-1.7-.6s-.8,0-1.1.1-.6.2-.9.4l-.3,1.8h-2.7v-3.6c.7-.4,1.4-.7,2.3-1s1.8-.4,2.8-.4c1.8,0,3.2.4,4.3,1.2s1.6,2,1.6,3.6v5.7c0,.2,0,.4,0,.6,0,.2,0,.4,0,.5l1.4.2v2.2h-4.6c0-.2-.2-.5-.3-.8,0-.3-.2-.5-.2-.8-.4.6-1,1-1.6,1.3s-1.3.5-2.1.5ZM1172.1,486.6c.5,0,1-.1,1.5-.3.5-.2.8-.5,1.1-.9v-2.2h-1.8c-.8,0-1.4.2-1.8.6-.4.4-.6.8-.6,1.3s.2.9.5,1.1c.3.3.7.4,1.3.4Z"/>
      <path class="st9" d="M1015.9,523.1v-2.2l1.3-.2,5.9-16.1h3.8l5.8,16.1,1.3.2v2.2h-6.3v-2.2l1.3-.2-.8-2.5h-6.5l-.8,2.5,1.3.2v2.2h-6.3ZM1022.6,515.4h4.7l-2.2-6.3-.2-.6h0l-.2.6-2.1,6.3Z"/>
      <path class="st9" d="M1035.3,523.1v-2.2l2-.4v-13.3l-2-.4v-2.2h5.7l8,12.8h0v-10.2l-2.4-.4v-2.2h7.7v2.2l-2,.4v15.9h-3.6l-8.2-12.7h0v10.1l2.4.4v2.2h-7.7Z"/>
      <path class="st9" d="M1063,523.1l-5.9-16-1.7-.2v-2.2h7.4v2.2l-1.7.3,3.6,10.9.3,1h0l.3-1,3.6-10.9-1.9-.3v-2.2h7v2.2l-1.7.2-5.6,16h-3.8Z"/>
      <path class="st9" d="M1075.1,523.1v-2.2l2-.4v-13.3l-2-.4v-2.2h7.6v2.2l-2,.4v13.3l2,.4v2.2h-7.6Z"/>
      <path class="st9" d="M1091.7,523.3c-1.4,0-2.6-.2-3.7-.5s-2.2-.8-3.3-1.6v-4.5h2.9l.4,2.6c.4.3.9.6,1.6.8.7.2,1.4.3,2.2.3s1.2,0,1.7-.3c.5-.2.8-.5,1.1-.8s.4-.7.4-1.2-.1-.8-.3-1.2-.6-.7-1.1-.9-1.2-.6-2-.8c-1.5-.4-2.7-.9-3.6-1.4-1-.5-1.7-1.1-2.2-1.8-.5-.7-.7-1.6-.7-2.6s.3-1.9.8-2.6c.6-.8,1.3-1.4,2.3-1.8,1-.4,2.1-.7,3.4-.7,1.4,0,2.7.2,3.8.5,1.1.4,2,.8,2.8,1.5v4.2h-2.8l-.5-2.5c-.3-.2-.8-.4-1.3-.5s-1.2-.2-1.9-.2-1.1,0-1.6.3c-.5.2-.8.4-1.1.8-.3.3-.4.8-.4,1.2s.1.8.3,1.1.6.6,1.1.9c.5.3,1.3.6,2.2.9,2,.6,3.6,1.3,4.6,2.2,1.1.9,1.6,2.2,1.6,3.7s-.3,2-.9,2.7c-.6.8-1.4,1.4-2.4,1.8-1,.4-2.2.6-3.6.6Z"/>
      <path class="st9" d="M1099.8,523.1v-2.2l1.3-.2,5.9-16.1h3.8l5.8,16.1,1.3.2v2.2h-6.3v-2.2l1.3-.2-.8-2.5h-6.5l-.8,2.5,1.3.2v2.2h-6.3ZM1106.5,515.4h4.7l-2.2-6.3-.2-.6h0l-.2.6-2.1,6.3Z"/>
    </g>
  </g>
  <g>
    <g>
      <rect class="st6" x="478.2" y="659.5" width="336.5" height="145.4" rx="12" ry="12"/>
      <rect class="st7" x="465.3" y="650" width="336.5" height="145.4" rx="12" ry="12"/>
    </g>
    <g>
      <rect class="st0" x="482.4" y="695" width="296.6" height="74.4"/>
      <path class="st9" d="M522.7,714.8v-2.2l2-.4v-13.3l-2-.4v-2.2h7.6v2.2l-2,.4v13.3l2,.4v2.2h-7.6Z"/>
      <path class="st9" d="M531.7,714.8v-2.2l1.8-.4v-8.5l-2-.4v-2.2h5.4l.2,2c.5-.7,1-1.2,1.7-1.6.7-.4,1.4-.6,2.3-.6,1.4,0,2.4.4,3.2,1.3.8.9,1.2,2.2,1.2,4.1v6l1.8.4v2.2h-7.1v-2.2l1.6-.4v-6c0-.9-.2-1.6-.5-2-.4-.4-.9-.6-1.6-.6s-1,.1-1.4.3c-.4.2-.7.5-1,1v7.2l1.5.4v2.2h-7Z"/>
      <path class="st9" d="M548.3,714.8v-2.2l1.8-.4v-8.5l-2-.4v-2.2h5.7v11.1l1.8.4v2.2h-7.3ZM549.7,698.5l2.5-3.5h3.9c0,0-3.5,3.5-3.5,3.5h-3Z"/>
      <path class="st9" d="M563.3,715.1c-1.3,0-2.5-.3-3.4-.9-1-.6-1.7-1.4-2.2-2.5-.5-1-.8-2.2-.8-3.6v-.4c0-1.4.3-2.6.8-3.6s1.3-1.9,2.2-2.5,2.1-.9,3.4-.9,2.3.2,3.2.6c.9.4,1.6.8,2.2,1.3v3.9h-2.8l-.5-2.5c-.2-.2-.5-.4-.8-.5s-.6-.2-1-.2c-.7,0-1.2.2-1.7.5-.4.3-.8.8-1,1.4-.2.6-.3,1.4-.3,2.3v.4c0,.9.1,1.7.4,2.3.2.6.6,1.1,1,1.3.4.3.9.4,1.4.4s1.2-.2,1.6-.5.7-.8.8-1.5h3.2c-.1,1-.4,1.9-.9,2.6s-1,1.3-1.8,1.6-1.8.6-3,.6Z"/>
      <path class="st9" d="M570.4,714.8v-2.2l1.8-.4v-8.5l-2-.4v-2.2h5.7v11.1l1.8.4v2.2h-7.3ZM572.1,698.2v-3.2h3.8v3.2h-3.8Z"/>
      <path class="st9" d="M585.5,715.1c-1.4,0-2.5-.3-3.5-.9-1-.6-1.7-1.4-2.2-2.5s-.8-2.3-.8-3.6v-.3c0-1.4.3-2.6.8-3.6s1.3-1.9,2.2-2.5,2.1-.9,3.5-.9,2.5.3,3.5.9,1.7,1.4,2.2,2.5c.5,1,.8,2.3.8,3.6v.3c0,1.4-.3,2.6-.8,3.6s-1.3,1.9-2.2,2.5c-1,.6-2.1.9-3.5.9ZM585.5,712.2c.6,0,1.2-.2,1.6-.5.4-.3.7-.8.9-1.5s.3-1.3.3-2.2v-.3c0-.8,0-1.5-.3-2.2s-.5-1.1-.9-1.5c-.4-.4-.9-.5-1.6-.5s-1.2.2-1.6.5c-.4.4-.7.8-.9,1.5s-.3,1.3-.3,2.2v.3c0,.8,0,1.6.3,2.2.2.6.5,1.1.9,1.5s.9.5,1.6.5Z"/>
      <path class="st9" d="M599.8,714.8v-2.2l1.8-.4v-8.5l-2-.4v-2.2h5.4l.2,2c.5-.7,1-1.2,1.7-1.6.7-.4,1.4-.6,2.3-.6,1.4,0,2.4.4,3.2,1.3.8.9,1.2,2.2,1.2,4.1v6l1.8.4v2.2h-7.1v-2.2l1.6-.4v-6c0-.9-.2-1.6-.5-2-.4-.4-.9-.6-1.6-.6s-1,.1-1.4.3c-.4.2-.7.5-1,1v7.2l1.5.4v2.2h-7Z"/>
      <path class="st9" d="M623,715.1c-1.4,0-2.5-.3-3.5-.9-1-.6-1.7-1.4-2.2-2.5s-.8-2.3-.8-3.6v-.3c0-1.4.3-2.6.8-3.6s1.3-1.9,2.2-2.5,2.1-.9,3.5-.9,2.5.3,3.5.9,1.7,1.4,2.2,2.5c.5,1,.8,2.3.8,3.6v.3c0,1.4-.3,2.6-.8,3.6s-1.3,1.9-2.2,2.5c-1,.6-2.1.9-3.5.9ZM623,712.2c.6,0,1.2-.2,1.6-.5.4-.3.7-.8.9-1.5s.3-1.3.3-2.2v-.3c0-.8,0-1.5-.3-2.2s-.5-1.1-.9-1.5c-.4-.4-.9-.5-1.6-.5s-1.2.2-1.6.5c-.4.4-.7.8-.9,1.5s-.3,1.3-.3,2.2v.3c0,.8,0,1.6.3,2.2.2.6.5,1.1.9,1.5s.9.5,1.6.5Z"/>
      <path class="st9" d="M637,715.1c-1,0-2,0-2.9-.3-.9-.2-1.7-.5-2.5-.8v-3.9s2.5,0,2.5,0l.5,2c.3.1.6.3.9.3.3,0,.7.1,1.2.1.8,0,1.4-.1,1.8-.4.3-.3.5-.6.5-1s-.2-.7-.5-1-1.1-.5-2.2-.8c-1.6-.3-2.8-.9-3.6-1.6s-1.2-1.6-1.2-2.7.2-1.5.6-2.1c.4-.6,1-1.1,1.8-1.5s1.8-.6,3-.6,2,0,2.8.3c.9.2,1.6.5,2.2.8v3.8s-2.5,0-2.5,0l-.4-1.8c-.2-.2-.5-.3-.8-.4-.3,0-.7-.1-1-.1-.7,0-1.2.1-1.5.4-.3.3-.5.6-.5,1s0,.5.2.7.4.4.7.6.9.3,1.6.5c1.7.4,2.9.9,3.7,1.6.8.6,1.2,1.6,1.2,2.7s-.5,2.3-1.4,3.1-2.3,1.2-4.2,1.2Z"/>
      <path class="st9" d="M655.9,715.1c-1.1,0-2-.3-2.8-.8-.8-.6-1.4-1.4-1.8-2.4-.4-1-.6-2.2-.6-3.5v-.3c0-1.4.2-2.7.6-3.8.4-1.1,1-1.9,1.8-2.5.8-.6,1.7-.9,2.8-.9s1.4.2,2,.5c.6.3,1.1.7,1.5,1.3v-4.9l-2-.4v-2.2h5.7v17.2l1.8.4v2.2h-5l-.3-1.7c-.4.6-.9,1.1-1.5,1.4s-1.3.5-2.1.5ZM657,712.2c.5,0,1-.1,1.4-.3.4-.2.7-.5,1-1v-5.8c-.3-.4-.6-.8-1-1-.4-.2-.8-.4-1.3-.4s-1.1.2-1.5.6-.7.9-.9,1.5c-.2.7-.3,1.4-.3,2.3v.3c0,1.2.2,2.1.6,2.8.4.7,1.1,1,2,1Z"/>
      <path class="st9" d="M672.6,715.1c-1.3,0-2.5-.3-3.4-.9-1-.6-1.7-1.4-2.3-2.4-.5-1-.8-2.2-.8-3.5v-.5c0-1.4.3-2.6.8-3.6s1.2-1.9,2.2-2.5c.9-.6,2-.9,3.3-.9s2.3.2,3.1.7c.8.5,1.5,1.2,1.9,2.1.4.9.7,2,.7,3.4v2h-8.1c0,.7.2,1.2.5,1.7.2.5.6.8,1.1,1.1s1,.4,1.7.4,1.3,0,1.9-.3c.6-.2,1.2-.4,1.7-.8l1,2.3c-.6.5-1.3.8-2.1,1.1-.9.3-1.8.5-3,.5ZM669.9,706.6h4.6v-.3c0-.6,0-1-.2-1.4-.1-.4-.4-.7-.7-.9-.3-.2-.7-.3-1.3-.3s-.9.1-1.2.4c-.3.3-.6.6-.8,1.1-.2.4-.3,1-.4,1.5h0Z"/>
      <path class="st9" d="M679.5,714.8v-2.2l1.8-.4v-8.5l-2-.4v-2.2h5.4l.2,1.8c.4-.7,1-1.2,1.7-1.5.7-.4,1.4-.5,2.3-.5s1.6.2,2.3.6c.6.4,1.1,1,1.4,1.8.4-.7,1-1.3,1.7-1.7.7-.4,1.5-.6,2.4-.6,1.4,0,2.4.5,3.2,1.4.8.9,1.2,2.3,1.2,4.2v5.8l1.8.4v2.2h-7.1v-2.2l1.6-.4v-5.8c0-1-.2-1.7-.5-2.1-.3-.4-.8-.6-1.5-.6s-1.1.2-1.5.5c-.4.3-.7.8-.9,1.3v6.7l1.5.4v2.2h-6.7v-2.2l1.5-.4v-5.8c0-1-.2-1.7-.5-2.1-.3-.4-.8-.6-1.5-.6s-1,.1-1.4.3c-.4.2-.7.5-.9.9v7.3l1.6.4v2.2h-7.1Z"/>
      <path class="st9" d="M708.6,715.1c-1.4,0-2.4-.4-3.2-1.1-.8-.7-1.2-1.7-1.2-3s.5-2.3,1.6-3.2c1-.8,2.6-1.2,4.6-1.2h1.8v-1c0-.7-.2-1.2-.6-1.6-.4-.4-1-.6-1.7-.6s-.8,0-1.1.1c-.3,0-.6.2-.9.4l-.3,1.8h-2.7v-3.6c.7-.4,1.4-.7,2.3-1s1.8-.4,2.8-.4c1.8,0,3.2.4,4.3,1.3,1,.8,1.6,2,1.6,3.6v5.7c0,.2,0,.4,0,.6,0,.2,0,.4,0,.5l1.4.2v2.2h-4.6c0-.2-.2-.5-.3-.8,0-.3-.2-.5-.2-.8-.4.6-1,1-1.6,1.3-.6.3-1.3.5-2.1.5ZM709.6,712.3c.5,0,1-.1,1.5-.3.5-.2.8-.5,1.1-.9v-2.2h-1.8c-.8,0-1.4.2-1.8.6-.4.4-.6.8-.6,1.3s.2.9.5,1.1c.3.3.7.4,1.3.4Z"/>
      <path class="st9" d="M718.6,714.8v-2.2l1.8-.4v-8.5l-2-.4v-2.2h5.7v11.1l1.8.4v2.2h-7.3ZM720.2,698.2v-3.2h3.8v3.2h-3.8Z"/>
      <path class="st9" d="M732.9,715.1c-1,0-2,0-2.9-.3-.9-.2-1.7-.5-2.5-.8v-3.9s2.5,0,2.5,0l.5,2c.3.1.6.3.9.3.3,0,.7.1,1.2.1.8,0,1.4-.1,1.8-.4.3-.3.5-.6.5-1s-.2-.7-.5-1c-.4-.3-1.1-.5-2.2-.8-1.6-.3-2.8-.9-3.6-1.6-.8-.7-1.2-1.6-1.2-2.7s.2-1.5.6-2.1c.4-.6,1-1.1,1.8-1.5.8-.4,1.8-.6,3-.6s2,0,2.8.3c.9.2,1.6.5,2.2.8v3.8s-2.5,0-2.5,0l-.4-1.8c-.2-.2-.5-.3-.8-.4-.3,0-.7-.1-1-.1-.7,0-1.2.1-1.5.4-.3.3-.5.6-.5,1s0,.5.2.7c.1.2.4.4.7.6.4.2.9.3,1.6.5,1.7.4,2.9.9,3.7,1.6.8.6,1.2,1.6,1.2,2.7s-.5,2.3-1.4,3.1-2.3,1.2-4.2,1.2Z"/>
      <path class="st9" d="M506.7,749.1c-1.3,0-2.5-.3-3.4-.9-1-.6-1.7-1.4-2.2-2.5-.5-1-.8-2.2-.8-3.6v-.4c0-1.4.3-2.6.8-3.6s1.3-1.9,2.2-2.5,2.1-.9,3.4-.9,2.3.2,3.2.6c.9.4,1.6.8,2.2,1.3v3.9h-2.8l-.5-2.5c-.2-.2-.5-.4-.8-.5s-.6-.2-1-.2c-.7,0-1.2.2-1.7.5-.4.3-.8.8-1,1.4-.2.6-.3,1.4-.3,2.3v.4c0,.9.1,1.7.4,2.3.2.6.6,1.1,1,1.3.4.3.9.4,1.4.4s1.2-.2,1.6-.5.7-.8.8-1.5h3.2c-.1,1-.4,1.9-.9,2.6s-1,1.3-1.8,1.6-1.8.6-3,.6Z"/>
      <path class="st9" d="M520.5,749.1c-1.3,0-2.5-.3-3.4-.9-1-.6-1.7-1.4-2.3-2.4s-.8-2.2-.8-3.5v-.5c0-1.4.3-2.6.8-3.6s1.2-1.9,2.2-2.5c.9-.6,2-.9,3.3-.9s2.3.2,3.1.7c.8.5,1.5,1.2,1.9,2.1.4.9.7,2,.7,3.4v2h-8.1c0,.7.2,1.2.5,1.7s.6.8,1.1,1.1,1,.4,1.7.4,1.3,0,1.9-.3c.6-.2,1.2-.4,1.7-.8l1,2.3c-.6.5-1.3.8-2.1,1.1-.9.3-1.8.5-3,.5ZM517.9,740.6h4.6v-.3c0-.6,0-1-.2-1.4-.1-.4-.4-.7-.7-.9-.3-.2-.7-.3-1.3-.3s-.9.1-1.2.4c-.3.3-.6.6-.8,1.1-.2.4-.3,1-.4,1.5h0Z"/>
      <path class="st9" d="M527.5,748.8v-2.2l1.8-.4v-8.5l-2-.4v-2.2h5.4l.2,2c.5-.7,1-1.2,1.7-1.6.7-.4,1.4-.6,2.3-.6,1.4,0,2.4.4,3.2,1.3.8.9,1.2,2.2,1.2,4.1v6l1.8.4v2.2h-7.1v-2.2l1.6-.4v-6c0-.9-.2-1.6-.5-2-.4-.4-.9-.6-1.6-.6s-1,.1-1.4.3c-.4.2-.7.5-1,1v7.2l1.5.4v2.2h-7Z"/>
      <path class="st9" d="M549.2,749.1c-1.3,0-2.3-.4-3-1.1-.7-.7-1-1.8-1-3.3v-7h-1.9v-2.6h1.9v-3.4h3.7v3.4h2.5v2.6h-2.5v7c0,.5.1.9.3,1.1s.5.3.9.3.4,0,.7,0c.2,0,.4,0,.6,0l.3,2.7c-.4.1-.8.2-1.2.3-.4,0-.9.1-1.3.1Z"/>
      <path class="st9" d="M553.4,748.8v-2.2l1.8-.4v-8.5l-2-.4v-2.2h5.4v1.7c.1,0,.2.3.2.3.3-.7.8-1.3,1.3-1.7s1.1-.6,1.8-.6.5,0,.7,0,.5,0,.7.1l-.4,3.4h-1.8c-.5-.1-1,0-1.3.2s-.6.5-.9.9v6.7l1.8.4v2.2h-7.3Z"/>
      <path class="st9" d="M570.6,749.1c-1.4,0-2.5-.3-3.5-.9-1-.6-1.7-1.4-2.2-2.5s-.8-2.3-.8-3.6v-.3c0-1.4.3-2.6.8-3.6s1.3-1.9,2.2-2.5,2.1-.9,3.5-.9,2.5.3,3.5.9,1.7,1.4,2.2,2.5c.5,1,.8,2.3.8,3.6v.3c0,1.4-.3,2.6-.8,3.6s-1.3,1.9-2.2,2.5c-1,.6-2.1.9-3.5.9ZM570.6,746.2c.6,0,1.2-.2,1.6-.5.4-.3.7-.8.9-1.5s.3-1.3.3-2.2v-.3c0-.8,0-1.5-.3-2.2s-.5-1.1-.9-1.5c-.4-.4-.9-.5-1.6-.5s-1.2.2-1.6.5c-.4.4-.7.8-.9,1.5s-.3,1.3-.3,2.2v.3c0,.8,0,1.6.3,2.2.2.6.5,1.1.9,1.5s.9.5,1.6.5Z"/>
      <path class="st9" d="M584.7,749.1c-1,0-2,0-2.9-.3-.9-.2-1.7-.5-2.5-.8v-3.9s2.5,0,2.5,0l.5,2c.3.1.6.3.9.3.3,0,.7.1,1.2.1.8,0,1.4-.1,1.8-.4.3-.3.5-.6.5-1s-.2-.7-.5-1-1.1-.5-2.2-.8c-1.6-.3-2.8-.9-3.6-1.6s-1.2-1.6-1.2-2.7.2-1.5.6-2.1c.4-.6,1-1.1,1.8-1.5s1.8-.6,3-.6,2,0,2.8.3c.9.2,1.6.5,2.2.8v3.8s-2.5,0-2.5,0l-.4-1.8c-.2-.2-.5-.3-.8-.4-.3,0-.7-.1-1-.1-.7,0-1.2.1-1.5.4-.3.3-.5.6-.5,1s0,.5.2.7.4.4.7.6.9.3,1.6.5c1.7.4,2.9.9,3.7,1.6s1.2,1.6,1.2,2.7-.5,2.3-1.4,3.1-2.3,1.2-4.2,1.2Z"/>
      <path class="st9" d="M598.2,754.1v-2.2l1.8-.4v-13.8l-2-.4v-2.2h5.4l.2,1.6c.4-.6.9-1,1.5-1.4.6-.3,1.3-.5,2.1-.5s2.1.3,2.8.9c.8.6,1.4,1.4,1.8,2.5.4,1.1.6,2.3.6,3.8v.3c0,1.4-.2,2.5-.6,3.5-.4,1-1,1.8-1.8,2.4-.8.6-1.7.8-2.9.8s-1.4-.1-1.9-.4-1-.7-1.4-1.2v4l1.8.4v2.2h-7.3ZM605.9,746.2c.9,0,1.6-.4,2.1-1.1.4-.7.6-1.7.6-2.9v-.3c0-.9,0-1.6-.3-2.3s-.5-1.2-.9-1.5-.9-.6-1.5-.6-1,.1-1.3.3-.7.6-.9,1v6c.2.4.5.7.9.9s.8.3,1.4.3Z"/>
      <path class="st9" d="M618.6,749.1c-1.4,0-2.4-.4-3.2-1.1-.8-.7-1.2-1.7-1.2-3s.5-2.3,1.6-3.2c1-.8,2.6-1.2,4.6-1.2h1.8v-1c0-.7-.2-1.2-.6-1.6-.4-.4-1-.6-1.7-.6s-.8,0-1.1.1c-.3,0-.6.2-.9.4l-.3,1.8h-2.7v-3.6c.7-.4,1.4-.7,2.3-1s1.8-.4,2.8-.4c1.8,0,3.2.4,4.3,1.3,1,.8,1.6,2,1.6,3.6v5.7c0,.2,0,.4,0,.6,0,.2,0,.4,0,.5l1.4.2v2.2h-4.6c0-.2-.2-.5-.3-.8,0-.3-.2-.5-.2-.8-.4.6-1,1-1.6,1.3-.6.3-1.3.5-2.1.5ZM619.6,746.3c.5,0,1-.1,1.5-.3.5-.2.8-.5,1.1-.9v-2.2h-1.8c-.8,0-1.4.2-1.8.6-.4.4-.6.8-.6,1.3s.2.9.5,1.1.7.4,1.3.4Z"/>
      <path class="st9" d="M628.9,748.8v-2.2l1.8-.4v-8.5l-2-.4v-2.2h5.4v1.7c.1,0,.2.3.2.3.3-.7.8-1.3,1.3-1.7s1.1-.6,1.8-.6.5,0,.7,0,.5,0,.7.1l-.4,3.4h-1.8c-.5-.1-1,0-1.3.2s-.6.5-.9.9v6.7l1.8.4v2.2h-7.3Z"/>
      <path class="st9" d="M645.6,749.1c-1.3,0-2.3-.4-3-1.1-.7-.7-1-1.8-1-3.3v-7h-1.9v-2.6h1.9v-3.4h3.7v3.4h2.5v2.6h-2.5v7c0,.5.1.9.3,1.1.2.2.5.3.9.3s.4,0,.7,0c.2,0,.4,0,.6,0l.3,2.7c-.4.1-.8.2-1.2.3-.4,0-.9.1-1.3.1Z"/>
      <path class="st9" d="M649.7,748.8v-2.2l1.8-.4v-8.5l-2-.4v-2.2h5.7v11.1l1.8.4v2.2h-7.3ZM651.4,732.2v-3.2h3.8v3.2h-3.8Z"/>
      <path class="st9" d="M664.7,749.1c-1.3,0-2.5-.3-3.4-.9-1-.6-1.7-1.4-2.2-2.5-.5-1-.8-2.2-.8-3.6v-.4c0-1.4.3-2.6.8-3.6.5-1,1.3-1.9,2.2-2.5,1-.6,2.1-.9,3.4-.9s2.3.2,3.2.6c.9.4,1.6.8,2.2,1.3v3.9h-2.8l-.5-2.5c-.2-.2-.5-.4-.8-.5-.3-.1-.6-.2-1-.2-.7,0-1.2.2-1.7.5-.4.3-.8.8-1,1.4-.2.6-.3,1.4-.3,2.3v.4c0,.9.1,1.7.4,2.3.2.6.6,1.1,1,1.3.4.3.9.4,1.4.4s1.2-.2,1.6-.5.7-.8.8-1.5h3.2c-.1,1-.4,1.9-.9,2.6-.4.7-1,1.3-1.8,1.6s-1.8.6-3,.6Z"/>
      <path class="st9" d="M671.9,748.8v-2.2l1.8-.4v-8.5l-2-.4v-2.2h5.7v11.1l1.8.4v2.2h-7.3ZM673.5,732.2v-3.2h3.8v3.2h-3.8Z"/>
      <path class="st9" d="M680.3,754.1v-2.2l1.8-.4v-13.8l-2-.4v-2.2h5.4l.2,1.6c.4-.6.9-1,1.5-1.4.6-.3,1.3-.5,2.1-.5s2.1.3,2.8.9c.8.6,1.4,1.4,1.8,2.5.4,1.1.6,2.3.6,3.8v.3c0,1.4-.2,2.5-.6,3.5-.4,1-1,1.8-1.8,2.4-.8.6-1.7.8-2.9.8s-1.4-.1-1.9-.4c-.6-.3-1-.7-1.4-1.2v4l1.8.4v2.2h-7.3ZM688.1,746.2c.9,0,1.6-.4,2.1-1.1.4-.7.6-1.7.6-2.9v-.3c0-.9,0-1.6-.3-2.3-.2-.6-.5-1.2-.9-1.5-.4-.4-.9-.6-1.5-.6s-1,.1-1.3.3c-.4.2-.7.6-.9,1v6c.2.4.5.7.9.9.4.2.8.3,1.4.3Z"/>
      <path class="st9" d="M700.7,749.1c-1.4,0-2.4-.4-3.2-1.1-.8-.7-1.2-1.7-1.2-3s.5-2.3,1.6-3.2c1-.8,2.6-1.2,4.6-1.2h1.8v-1c0-.7-.2-1.2-.6-1.6-.4-.4-1-.6-1.7-.6s-.8,0-1.1.1c-.3,0-.6.2-.9.4l-.3,1.8h-2.7v-3.6c.7-.4,1.4-.7,2.3-1s1.8-.4,2.8-.4c1.8,0,3.2.4,4.3,1.3,1,.8,1.6,2,1.6,3.6v5.7c0,.2,0,.4,0,.6,0,.2,0,.4,0,.5l1.4.2v2.2h-4.6c0-.2-.2-.5-.3-.8,0-.3-.2-.5-.2-.8-.4.6-1,1-1.6,1.3-.6.3-1.3.5-2.1.5ZM701.7,746.3c.5,0,1-.1,1.5-.3.5-.2.8-.5,1.1-.9v-2.2h-1.8c-.8,0-1.4.2-1.8.6-.4.4-.6.8-.6,1.3s.2.9.5,1.1c.3.3.7.4,1.3.4Z"/>
      <path class="st9" d="M710.6,748.8v-2.2l1.8-.4v-8.5l-2-.4v-2.2h5.4l.2,2c.5-.7,1-1.2,1.7-1.6.7-.4,1.4-.6,2.3-.6,1.4,0,2.4.4,3.2,1.3.8.9,1.2,2.2,1.2,4.1v6l1.8.4v2.2h-7.1v-2.2l1.6-.4v-6c0-.9-.2-1.6-.5-2-.4-.4-.9-.6-1.6-.6s-1,.1-1.4.3c-.4.2-.7.5-1,1v7.2l1.5.4v2.2h-7Z"/>
      <path class="st9" d="M732.3,749.1c-1.3,0-2.3-.4-3-1.1-.7-.7-1-1.8-1-3.3v-7h-1.9v-2.6h1.9v-3.4h3.7v3.4h2.5v2.6h-2.5v7c0,.5.1.9.3,1.1.2.2.5.3.9.3s.4,0,.7,0c.2,0,.4,0,.6,0l.3,2.7c-.4.1-.8.2-1.2.3-.4,0-.9.1-1.3.1Z"/>
      <path class="st9" d="M742.5,749.1c-1.3,0-2.5-.3-3.4-.9-1-.6-1.7-1.4-2.3-2.4-.5-1-.8-2.2-.8-3.5v-.5c0-1.4.3-2.6.8-3.6s1.2-1.9,2.2-2.5c.9-.6,2-.9,3.3-.9s2.3.2,3.1.7c.8.5,1.5,1.2,1.9,2.1.4.9.7,2,.7,3.4v2h-8.1c0,.7.2,1.2.5,1.7.2.5.6.8,1.1,1.1s1,.4,1.7.4,1.3,0,1.9-.3c.6-.2,1.2-.4,1.7-.8l1,2.3c-.6.5-1.3.8-2.1,1.1-.9.3-1.8.5-3,.5ZM739.9,740.6h4.6v-.3c0-.6,0-1-.2-1.4-.1-.4-.4-.7-.7-.9-.3-.2-.7-.3-1.3-.3s-.9.1-1.2.4c-.3.3-.6.6-.8,1.1-.2.4-.3,1-.4,1.5h0Z"/>
      <path class="st9" d="M755.5,749.1c-1,0-2,0-2.9-.3-.9-.2-1.7-.5-2.5-.8v-3.9s2.5,0,2.5,0l.5,2c.3.1.6.3.9.3.3,0,.7.1,1.2.1.8,0,1.4-.1,1.8-.4.3-.3.5-.6.5-1s-.2-.7-.5-1c-.4-.3-1.1-.5-2.2-.8-1.6-.3-2.8-.9-3.6-1.6s-1.2-1.6-1.2-2.7.2-1.5.6-2.1c.4-.6,1-1.1,1.8-1.5.8-.4,1.8-.6,3-.6s2,0,2.8.3c.9.2,1.6.5,2.2.8v3.8s-2.5,0-2.5,0l-.4-1.8c-.2-.2-.5-.3-.8-.4-.3,0-.7-.1-1-.1-.7,0-1.2.1-1.5.4-.3.3-.5.6-.5,1s0,.5.2.7c.1.2.4.4.7.6s.9.3,1.6.5c1.7.4,2.9.9,3.7,1.6s1.2,1.6,1.2,2.7-.5,2.3-1.4,3.1c-.9.8-2.3,1.2-4.2,1.2Z"/>
    </g>
  </g>
  <polyline class="st1" points="465.3 72 217.9 72 217.9 127.6"/>
  <polyline class="st1" points="814.7 72 1062.1 72 1062.1 127.6"/>
  <polygon class="st11" points="217.9 140.6 229.9 122.5 205.8 122.5 217.9 140.6"/>
  <polygon class="st11" points="1063.3 140.6 1075.4 122.5 1051.3 122.5 1063.3 140.6"/>
  <polygon class="st11" points="1063.3 389.4 1075.4 371.3 1051.3 371.3 1063.3 389.4"/>
  <line class="st1" x1="1063.3" y1="312.1" x2="1063.3" y2="376.1"/>
  <polygon class="st11" points="824.2 480.8 842.3 492.9 842.3 468.7 824.2 480.8"/>
  <line class="st1" x1="901.6" y1="480.8" x2="837.5" y2="480.8"/>
  <polygon class="st11" points="215 389.4 227.1 371.3 202.9 371.3 215 389.4"/>
  <polygon class="st11" points="633.5 389.4 645.6 371.3 621.5 371.3 633.5 389.4"/>
  <line class="st1" x1="215" y1="312.1" x2="215" y2="376.1"/>
  <polygon class="st11" points="445.2 686.6 427 674.5 427 698.7 445.2 686.6"/>
</svg>