<?xml version="1.0" encoding="UTF-8"?>
<svg id="topico3" xmlns="http://www.w3.org/2000/svg" xmlns:xlink="http://www.w3.org/1999/xlink" viewBox="0 0 1280 720">
  <defs>
    <style>
      .cls-1 {
        fill: #a7b6be;
      }

      .cls-1, .cls-2, .cls-3, .cls-4, .cls-5, .cls-6, .cls-7, .cls-8 {
        stroke-width: 0px;
      }

      .cls-3 {
        filter: url(#drop-shadow-3);
      }

      .cls-3, .cls-4, .cls-7, .cls-8 {
        fill: #005fcc;
      }

      .cls-4 {
        filter: url(#drop-shadow-6);
      }

      .cls-5 {
        fill: #fff;
      }

      .cls-6 {
        fill: #fd3;
        filter: url(#drop-shadow-4);
      }

      .cls-7 {
        filter: url(#drop-shadow-2);
      }

      .cls-8 {
        filter: url(#drop-shadow-5);
      }

      .cls-9 {
        fill: #c70596;
        stroke: #fff;
        stroke-miterlimit: 10;
        stroke-width: 2px;
      }
      .button {
        cursor: pointer;
        animation: buttonIdle 1s infinite;
        transform-box: fill-box;
        transform-origin: center;

      }

      .button:hover .background {
        fill: #950471;
      }

      @keyframes buttonIdle {
        0% {
          transform: rotate(-3deg);
        }

        50% {
          transform: rotate(3deg);
        }

        100% {
          transform: rotate(-3deg);
        }
      }
    </style>
    <filter id="drop-shadow-2" filterUnits="userSpaceOnUse">
      <feOffset dx="10" dy="10"/>
      <feGaussianBlur result="blur" stdDeviation="0"/>
      <feFlood flood-color="#07f" flood-opacity=".3"/>
      <feComposite in2="blur" operator="in"/>
      <feComposite in="SourceGraphic"/>
    </filter>
    <filter id="drop-shadow-3" filterUnits="userSpaceOnUse">
      <feOffset dx="10" dy="10"/>
      <feGaussianBlur result="blur-2" stdDeviation="0"/>
      <feFlood flood-color="#07f" flood-opacity=".3"/>
      <feComposite in2="blur-2" operator="in"/>
      <feComposite in="SourceGraphic"/>
    </filter>
    <filter id="drop-shadow-4" filterUnits="userSpaceOnUse">
      <feOffset dx="10" dy="10"/>
      <feGaussianBlur result="blur-3" stdDeviation="0"/>
      <feFlood flood-color="#fd3" flood-opacity=".3"/>
      <feComposite in2="blur-3" operator="in"/>
      <feComposite in="SourceGraphic"/>
    </filter>
    <filter id="drop-shadow-5" filterUnits="userSpaceOnUse">
      <feOffset dx="10" dy="10"/>
      <feGaussianBlur result="blur-4" stdDeviation="0"/>
      <feFlood flood-color="#07f" flood-opacity=".3"/>
      <feComposite in2="blur-4" operator="in"/>
      <feComposite in="SourceGraphic"/>
    </filter>
    <filter id="drop-shadow-6" filterUnits="userSpaceOnUse">
      <feOffset dx="10" dy="10"/>
      <feGaussianBlur result="blur-5" stdDeviation="0"/>
      <feFlood flood-color="#07f" flood-opacity=".3"/>
      <feComposite in2="blur-5" operator="in"/>
      <feComposite in="SourceGraphic"/>
    </filter>
  </defs>
  <g id="Img02">
    <g id="image">
      <g>
        <rect class="cls-7" x="20" y="397" width="280" height="200" rx="8" ry="8"/>
        <g>
          <path class="cls-5" d="m112.23,438.47v-1.48l1.91-.33v-13.44l-1.91-.33v-1.49h7.84c1.22,0,2.26.21,3.12.64s1.52,1.02,1.97,1.79.68,1.66.68,2.68-.23,1.93-.68,2.7-1.11,1.36-1.97,1.78-1.9.63-3.12.63h-3.62v5.04l1.91.33v1.48h-6.13Zm4.22-8.65h3.62c1.16,0,2.02-.31,2.6-.93s.86-1.4.86-2.35-.29-1.73-.86-2.37-1.44-.95-2.6-.95h-3.62v6.6Z"/>
          <path class="cls-5" d="m127.23,438.47v-1.48l1.91-.33v-14.66l-1.91-.33v-1.49h4.22v16.48l1.91.33v1.48h-6.13Z"/>
          <path class="cls-5" d="m139.1,438.71c-1.32,0-2.32-.32-3.01-.97s-1.03-1.55-1.03-2.72c0-.8.22-1.51.66-2.1s1.08-1.06,1.92-1.39,1.84-.5,3-.5h2.26v-1.24c0-.77-.23-1.36-.7-1.78s-1.12-.63-1.96-.63c-.53,0-.99.06-1.38.19s-.75.31-1.07.53l-.25,1.77h-1.78v-2.91c.57-.46,1.23-.81,1.99-1.05s1.6-.36,2.52-.36c1.54,0,2.75.37,3.62,1.1s1.31,1.79,1.31,3.15v6.11c0,.16,0,.32,0,.48s.01.31.03.47l1.23.13v1.48h-3.32c-.07-.34-.12-.65-.16-.93s-.07-.55-.08-.82c-.45.57-1,1.04-1.67,1.42s-1.38.57-2.14.57Zm.34-1.93c.77,0,1.46-.18,2.1-.55s1.09-.81,1.36-1.32v-2.3h-2.34c-1.06,0-1.86.25-2.39.76s-.8,1.07-.8,1.7c0,.55.17.98.52,1.27s.86.44,1.56.44Z"/>
          <path class="cls-5" d="m148.26,438.47v-1.48l1.91-.33v-9.06l-1.91-.33v-1.49h3.97l.16,1.89c.42-.67.95-1.19,1.59-1.56s1.36-.56,2.17-.56c1.37,0,2.43.4,3.18,1.2s1.12,2.04,1.12,3.71v6.2l1.91.33v1.48h-6.13v-1.48l1.91-.33v-6.15c0-1.12-.22-1.91-.66-2.38s-1.12-.7-2.02-.7c-.66,0-1.25.16-1.76.48s-.92.76-1.22,1.31v7.44l1.91.33v1.48h-6.13Z"/>
          <path class="cls-5" d="m169.56,438.71c-1.17,0-2.18-.28-3.03-.83s-1.5-1.31-1.96-2.29-.69-2.08-.69-3.33v-.26c0-1.25.23-2.36.69-3.33s1.12-1.74,1.96-2.29,1.85-.83,3.01-.83,2.18.28,3.03.83,1.5,1.32,1.96,2.29.69,2.08.69,3.34v.26c0,1.26-.23,2.37-.69,3.35s-1.11,1.73-1.96,2.28-1.85.82-3.01.82Zm0-1.8c.73,0,1.35-.2,1.85-.6s.87-.95,1.12-1.65.38-1.49.38-2.38v-.26c0-.89-.13-1.69-.38-2.38s-.63-1.25-1.13-1.65-1.12-.6-1.86-.6-1.35.2-1.85.6-.88.95-1.12,1.65-.38,1.49-.38,2.38v.26c0,.89.12,1.69.38,2.38s.63,1.25,1.13,1.65,1.13.6,1.87.6Z"/>
          <path class="cls-5" d="m187.94,438.71c-1.03,0-1.92-.26-2.65-.77s-1.3-1.22-1.69-2.14-.59-1.98-.59-3.2v-.25c0-1.36.2-2.55.59-3.57s.96-1.82,1.7-2.38,1.63-.85,2.67-.85c.75,0,1.41.14,1.99.42s1.06.68,1.47,1.2v-5.17l-1.91-.33v-1.49h4.22v16.48l1.91.33v1.48h-3.91l-.19-1.51c-.41.58-.92,1.02-1.52,1.31s-1.29.45-2.08.45Zm.59-1.88c.69,0,1.27-.16,1.73-.47s.86-.75,1.16-1.32v-5.88c-.3-.53-.68-.95-1.16-1.27s-1.05-.47-1.71-.47c-.73,0-1.34.21-1.82.63s-.83,1-1.07,1.73-.35,1.6-.35,2.57v.25c0,1.27.26,2.3.79,3.07s1.33,1.16,2.43,1.16Z"/>
          <path class="cls-5" d="m202.96,438.71c-1.17,0-2.19-.27-3.06-.8s-1.54-1.28-2.01-2.23-.71-2.05-.71-3.3v-.52c0-1.2.25-2.28.74-3.23s1.16-1.7,1.98-2.25,1.72-.83,2.7-.83c1.14,0,2.1.23,2.87.7s1.35,1.13,1.74,1.97.59,1.85.59,2.99v1.44h-8.23l-.04.06c.02.81.16,1.53.43,2.16s.66,1.12,1.17,1.48,1.12.54,1.83.54c.78,0,1.47-.11,2.06-.33s1.1-.53,1.53-.92l.9,1.5c-.45.44-1.05.81-1.8,1.11s-1.64.45-2.69.45Zm-3.32-7.85h5.85v-.3c0-.61-.11-1.15-.32-1.63s-.54-.86-.96-1.14-.96-.42-1.6-.42c-.52,0-.98.15-1.41.45s-.77.71-1.04,1.22-.45,1.1-.54,1.76l.02.06Z"/>
          <path class="cls-5" d="m52.11,467.51c-1.03,0-1.92-.26-2.65-.77s-1.3-1.22-1.69-2.14-.59-1.98-.59-3.2v-.25c0-1.36.2-2.55.59-3.57s.96-1.82,1.7-2.38,1.63-.85,2.67-.85c.75,0,1.41.14,1.99.42s1.06.68,1.47,1.2v-5.17l-1.91-.33v-1.49h4.22v16.48l1.91.33v1.48h-3.91l-.19-1.51c-.41.58-.92,1.02-1.52,1.31s-1.29.45-2.08.45Zm.59-1.88c.69,0,1.27-.16,1.73-.47s.86-.75,1.16-1.32v-5.88c-.3-.53-.68-.95-1.16-1.27s-1.05-.47-1.71-.47c-.73,0-1.34.21-1.82.63s-.83,1-1.07,1.73-.35,1.6-.35,2.57v.25c0,1.27.26,2.3.79,3.07s1.33,1.16,2.43,1.16Z"/>
          <path class="cls-5" d="m67.12,467.51c-1.17,0-2.19-.27-3.06-.8s-1.54-1.28-2.01-2.23-.71-2.05-.71-3.3v-.52c0-1.2.25-2.28.74-3.23s1.16-1.7,1.98-2.25,1.72-.83,2.7-.83c1.14,0,2.1.23,2.87.7s1.35,1.13,1.74,1.97.59,1.85.59,2.99v1.44h-8.23l-.04.06c.02.81.16,1.53.43,2.16s.66,1.12,1.17,1.48,1.12.54,1.83.54c.78,0,1.47-.11,2.06-.33s1.1-.53,1.53-.92l.9,1.5c-.45.44-1.05.81-1.8,1.11s-1.64.45-2.69.45Zm-3.32-7.85h5.85v-.3c0-.61-.11-1.15-.32-1.63s-.54-.86-.96-1.14-.96-.42-1.6-.42c-.52,0-.98.15-1.41.45s-.77.71-1.04,1.22-.45,1.1-.54,1.76l.02.06Z"/>
          <path class="cls-5" d="m78.95,467.51c-.85,0-1.65-.09-2.39-.26s-1.53-.44-2.37-.8l-.02-3.01h1.75l.43,1.82c.44.18.86.31,1.27.39s.85.12,1.33.12c.94,0,1.61-.18,2.02-.54s.61-.8.61-1.34c0-.5-.21-.92-.62-1.27s-1.15-.64-2.23-.88c-1.53-.35-2.66-.82-3.38-1.41s-1.08-1.38-1.08-2.36c0-.69.2-1.3.6-1.85s.95-.97,1.66-1.29,1.54-.48,2.48-.48,1.78.11,2.47.33,1.28.51,1.79.88l.12,2.89h-1.73l-.38-1.69c-.27-.2-.6-.36-.97-.47s-.8-.16-1.29-.16c-.72,0-1.3.17-1.75.5s-.67.76-.67,1.27c0,.3.06.55.19.77s.38.42.74.59.91.35,1.62.52c1.77.41,3,.94,3.7,1.58s1.05,1.43,1.05,2.37c0,1.07-.4,1.97-1.19,2.69s-2.04,1.08-3.74,1.08Z"/>
          <path class="cls-5" d="m91.57,467.51c-1.17,0-2.19-.27-3.06-.8s-1.54-1.28-2.01-2.23-.71-2.05-.71-3.3v-.52c0-1.2.25-2.28.74-3.23s1.16-1.7,1.98-2.25,1.72-.83,2.7-.83c1.14,0,2.1.23,2.87.7s1.35,1.13,1.74,1.97.59,1.85.59,2.99v1.44h-8.23l-.04.06c.02.81.16,1.53.43,2.16s.66,1.12,1.17,1.48,1.12.54,1.83.54c.78,0,1.47-.11,2.06-.33s1.1-.53,1.53-.92l.9,1.5c-.45.44-1.05.81-1.8,1.11s-1.64.45-2.69.45Zm-3.32-7.85h5.85v-.3c0-.61-.11-1.15-.32-1.63s-.54-.86-.96-1.14-.96-.42-1.6-.42c-.52,0-.98.15-1.41.45s-.77.71-1.04,1.22-.45,1.1-.54,1.76l.02.06Z"/>
          <path class="cls-5" d="m98.2,467.27v-1.48l1.91-.33v-9.06l-1.91-.33v-1.49h3.97l.16,1.89c.42-.67.95-1.19,1.59-1.56s1.36-.56,2.17-.56c1.37,0,2.43.4,3.18,1.2s1.12,2.04,1.12,3.71v6.2l1.91.33v1.48h-6.13v-1.48l1.91-.33v-6.15c0-1.12-.22-1.91-.66-2.38s-1.12-.7-2.02-.7c-.66,0-1.25.16-1.76.48s-.92.76-1.22,1.31v7.44l1.91.33v1.48h-6.13Z"/>
          <path class="cls-5" d="m118.15,467.27l-4.51-11.02-1.31-.18v-1.49h5.32v1.49l-1.65.23,2.81,7.22.33,1.02h.07l.38-1.02,2.61-7.22-1.7-.23v-1.49h5.31v1.49l-1.34.18-4.29,11.02h-2.03Z"/>
          <path class="cls-5" d="m132.46,467.51c-1.17,0-2.18-.28-3.03-.83s-1.5-1.31-1.96-2.29-.69-2.08-.69-3.33v-.26c0-1.25.23-2.36.69-3.33s1.12-1.74,1.96-2.29,1.85-.83,3.01-.83,2.18.28,3.03.83,1.5,1.32,1.96,2.29.69,2.08.69,3.34v.26c0,1.26-.23,2.37-.69,3.35s-1.11,1.73-1.96,2.28-1.85.82-3.01.82Zm0-1.8c.73,0,1.35-.2,1.85-.6s.87-.95,1.12-1.65.38-1.49.38-2.38v-.26c0-.89-.13-1.69-.38-2.38s-.63-1.25-1.13-1.65-1.12-.6-1.86-.6-1.35.2-1.85.6-.88.95-1.12,1.65-.38,1.49-.38,2.38v.26c0,.89.12,1.69.38,2.38s.63,1.25,1.13,1.65,1.13.6,1.87.6Z"/>
          <path class="cls-5" d="m139.54,467.27v-1.48l1.91-.33v-14.66l-1.91-.33v-1.49h4.22v16.48l1.91.33v1.48h-6.13Z"/>
          <path class="cls-5" d="m152.58,467.27l-4.51-11.02-1.31-.18v-1.49h5.32v1.49l-1.65.23,2.81,7.22.33,1.02h.07l.38-1.02,2.61-7.22-1.7-.23v-1.49h5.31v1.49l-1.34.18-4.29,11.02h-2.03Z"/>
          <path class="cls-5" d="m161.37,467.27v-1.48l1.91-.33v-9.06l-1.91-.33v-1.49h4.22v10.88l1.91.33v1.48h-6.13Zm1.79-15.81v-2.47h2.43v2.47h-2.43Z"/>
          <path class="cls-5" d="m169.09,467.27v-1.48l1.91-.33v-9.06l-1.91-.33v-1.49h3.98l.15,1.65c.41-.6.93-1.07,1.57-1.39s1.38-.49,2.23-.49,1.57.2,2.17.59,1.06.98,1.37,1.76c.4-.72.93-1.29,1.58-1.71s1.42-.63,2.3-.63c1.3,0,2.32.44,3.07,1.33s1.12,2.22,1.12,4v5.78l1.91.33v1.48h-6.14v-1.48l1.91-.33v-5.8c0-1.25-.21-2.13-.64-2.65s-1.07-.78-1.91-.78-1.45.28-1.94.85-.77,1.28-.85,2.14v6.25l1.91.33v1.48h-6.13v-1.48l1.91-.33v-5.8c0-1.19-.22-2.06-.66-2.61s-1.08-.83-1.92-.83c-.7,0-1.28.14-1.73.43s-.8.7-1.04,1.22v7.58l1.91.33v1.48h-6.13Z"/>
          <path class="cls-5" d="m197.86,467.51c-1.17,0-2.19-.27-3.06-.8s-1.54-1.28-2.01-2.23-.71-2.05-.71-3.3v-.52c0-1.2.25-2.28.74-3.23s1.16-1.7,1.98-2.25,1.72-.83,2.7-.83c1.14,0,2.1.23,2.87.7s1.35,1.13,1.74,1.97.59,1.85.59,2.99v1.44h-8.23l-.04.06c.02.81.16,1.53.43,2.16s.66,1.12,1.17,1.48,1.12.54,1.83.54c.78,0,1.47-.11,2.06-.33s1.1-.53,1.53-.92l.9,1.5c-.45.44-1.05.81-1.8,1.11s-1.64.45-2.69.45Zm-3.32-7.85h5.85v-.3c0-.61-.11-1.15-.32-1.63s-.54-.86-.96-1.14-.96-.42-1.6-.42c-.52,0-.98.15-1.41.45s-.77.71-1.04,1.22-.45,1.1-.54,1.76l.02.06Z"/>
          <path class="cls-5" d="m204.49,467.27v-1.48l1.91-.33v-9.06l-1.91-.33v-1.49h3.97l.16,1.89c.42-.67.95-1.19,1.59-1.56s1.36-.56,2.17-.56c1.37,0,2.43.4,3.18,1.2s1.12,2.04,1.12,3.71v6.2l1.91.33v1.48h-6.13v-1.48l1.91-.33v-6.15c0-1.12-.22-1.91-.66-2.38s-1.12-.7-2.02-.7c-.66,0-1.25.16-1.76.48s-.92.76-1.22,1.31v7.44l1.91.33v1.48h-6.13Z"/>
          <path class="cls-5" d="m224.24,467.46c-.94,0-1.68-.28-2.23-.83s-.83-1.43-.83-2.64v-7.7h-2v-1.71h2v-3.06h2.31v3.06h2.75v1.71h-2.75v7.7c0,.61.12,1.06.36,1.35s.57.43.97.43c.27,0,.58-.03.91-.08s.6-.1.79-.13l.32,1.51c-.34.1-.75.19-1.24.27s-.94.12-1.37.12Z"/>
          <path class="cls-5" d="m233.81,467.51c-1.17,0-2.18-.28-3.03-.83s-1.5-1.31-1.96-2.29-.69-2.08-.69-3.33v-.26c0-1.25.23-2.36.69-3.33s1.12-1.74,1.96-2.29,1.85-.83,3.01-.83,2.18.28,3.03.83,1.5,1.32,1.96,2.29.69,2.08.69,3.34v.26c0,1.26-.23,2.37-.69,3.35s-1.11,1.73-1.96,2.28-1.85.82-3.01.82Zm0-1.8c.73,0,1.35-.2,1.85-.6s.87-.95,1.12-1.65.38-1.49.38-2.38v-.26c0-.89-.13-1.69-.38-2.38s-.63-1.25-1.13-1.65-1.12-.6-1.86-.6-1.35.2-1.85.6-.88.95-1.12,1.65-.38,1.49-.38,2.38v.26c0,.89.12,1.69.38,2.38s.63,1.25,1.13,1.65,1.13.6,1.87.6Z"/>
          <path class="cls-5" d="m252.2,467.51c-1.03,0-1.92-.26-2.65-.77s-1.3-1.22-1.69-2.14-.59-1.98-.59-3.2v-.25c0-1.36.2-2.55.59-3.57s.96-1.82,1.7-2.38,1.63-.85,2.67-.85c.75,0,1.41.14,1.99.42s1.06.68,1.47,1.2v-5.17l-1.91-.33v-1.49h4.22v16.48l1.91.33v1.48h-3.91l-.19-1.51c-.41.58-.92,1.02-1.52,1.31s-1.29.45-2.08.45Zm.59-1.88c.69,0,1.27-.16,1.73-.47s.86-.75,1.16-1.32v-5.88c-.3-.53-.68-.95-1.16-1.27s-1.05-.47-1.71-.47c-.73,0-1.34.21-1.82.63s-.83,1-1.07,1.73-.35,1.6-.35,2.57v.25c0,1.27.26,2.3.79,3.07s1.33,1.16,2.43,1.16Z"/>
          <path class="cls-5" d="m267.16,467.51c-1.17,0-2.18-.28-3.03-.83s-1.5-1.31-1.96-2.29-.69-2.08-.69-3.33v-.26c0-1.25.23-2.36.69-3.33s1.12-1.74,1.96-2.29,1.85-.83,3.01-.83,2.18.28,3.03.83,1.5,1.32,1.96,2.29.69,2.08.69,3.34v.26c0,1.26-.23,2.37-.69,3.35s-1.11,1.73-1.96,2.28-1.85.82-3.01.82Zm0-1.8c.73,0,1.35-.2,1.85-.6s.87-.95,1.12-1.65.38-1.49.38-2.38v-.26c0-.89-.13-1.69-.38-2.38s-.63-1.25-1.13-1.65-1.12-.6-1.86-.6-1.35.2-1.85.6-.88.95-1.12,1.65-.38,1.49-.38,2.38v.26c0,.89.12,1.69.38,2.38s.63,1.25,1.13,1.65,1.13.6,1.87.6Z"/>
          <path class="cls-5" d="m82.89,496.07v-1.48l1.91-.33v-9.06l-1.91-.33v-1.49h3.98l.15,1.65c.41-.6.93-1.07,1.57-1.39s1.38-.49,2.23-.49,1.57.2,2.17.59,1.06.98,1.37,1.76c.4-.72.93-1.29,1.58-1.71s1.42-.63,2.3-.63c1.3,0,2.32.44,3.07,1.33s1.12,2.22,1.12,4v5.78l1.91.33v1.48h-6.14v-1.48l1.91-.33v-5.8c0-1.25-.21-2.13-.64-2.65s-1.07-.78-1.91-.78-1.45.28-1.94.85-.77,1.28-.85,2.14v6.25l1.91.33v1.48h-6.13v-1.48l1.91-.33v-5.8c0-1.19-.22-2.06-.66-2.61s-1.08-.83-1.92-.83c-.7,0-1.28.14-1.73.43s-.8.7-1.04,1.22v7.58l1.91.33v1.48h-6.13Z"/>
          <path class="cls-5" d="m111.66,496.31c-1.17,0-2.19-.27-3.06-.8s-1.54-1.28-2.01-2.23-.71-2.05-.71-3.3v-.52c0-1.2.25-2.28.74-3.23s1.16-1.7,1.98-2.25,1.72-.83,2.7-.83c1.14,0,2.1.23,2.87.7s1.35,1.13,1.74,1.97.59,1.85.59,2.99v1.44h-8.23l-.04.06c.02.81.16,1.53.43,2.16s.66,1.12,1.17,1.48,1.12.54,1.83.54c.78,0,1.47-.11,2.06-.33s1.1-.53,1.53-.92l.9,1.5c-.45.44-1.05.81-1.8,1.11s-1.64.45-2.69.45Zm-3.32-7.85h5.85v-.3c0-.61-.11-1.15-.32-1.63s-.54-.86-.96-1.14-.96-.42-1.6-.42c-.52,0-.98.15-1.41.45s-.77.71-1.04,1.22-.45,1.1-.54,1.76l.02.06Z"/>
          <path class="cls-5" d="m123.74,496.31c-1.03,0-1.92-.26-2.65-.77s-1.3-1.22-1.69-2.14-.59-1.98-.59-3.2v-.25c0-1.36.2-2.55.59-3.57s.96-1.82,1.7-2.38,1.63-.85,2.67-.85c.75,0,1.41.14,1.99.42s1.06.68,1.47,1.2v-5.17l-1.91-.33v-1.49h4.22v16.48l1.91.33v1.48h-3.91l-.19-1.51c-.41.58-.92,1.02-1.52,1.31s-1.29.45-2.08.45Zm.59-1.88c.69,0,1.27-.16,1.73-.47s.86-.75,1.16-1.32v-5.88c-.3-.53-.68-.95-1.16-1.27s-1.05-.47-1.71-.47c-.73,0-1.34.21-1.82.63s-.83,1-1.07,1.73-.35,1.6-.35,2.57v.25c0,1.27.26,2.3.79,3.07s1.33,1.16,2.43,1.16Z"/>
          <path class="cls-5" d="m132.95,496.07v-1.48l1.91-.33v-9.06l-1.91-.33v-1.49h4.22v10.88l1.91.33v1.48h-6.13Zm1.79-15.81v-2.47h2.43v2.47h-2.43Z"/>
          <path class="cls-5" d="m146.41,496.31c-1.15,0-2.15-.27-3-.8s-1.51-1.28-1.98-2.23-.7-2.05-.7-3.3v-.49c0-1.2.23-2.28.68-3.23s1.11-1.71,1.96-2.26,1.87-.83,3.05-.83c1.02,0,1.92.17,2.69.5s1.42.8,1.94,1.38l.06,3.05h-1.8l-.4-2.21c-.27-.27-.6-.49-1-.66s-.87-.25-1.41-.25c-.69,0-1.29.2-1.81.61s-.92.95-1.21,1.63-.43,1.44-.43,2.27v.49c0,.92.13,1.72.4,2.4s.66,1.21,1.16,1.58,1.1.56,1.8.56c.78,0,1.43-.21,1.95-.64s.83-1.02.95-1.77h2.07l.02.07c-.04.73-.25,1.41-.64,2.04s-.95,1.14-1.67,1.53-1.61.58-2.67.58Z"/>
          <path class="cls-5" d="m157.52,496.31c-1.32,0-2.32-.32-3.01-.97s-1.03-1.55-1.03-2.72c0-.8.22-1.51.66-2.1s1.08-1.06,1.92-1.39,1.84-.5,3-.5h2.26v-1.24c0-.77-.23-1.36-.7-1.78s-1.12-.63-1.96-.63c-.53,0-.99.06-1.38.19s-.75.31-1.07.53l-.25,1.77h-1.78v-2.91c.57-.46,1.23-.81,1.99-1.05s1.6-.36,2.52-.36c1.54,0,2.75.37,3.62,1.1s1.31,1.79,1.31,3.15v6.11c0,.16,0,.32,0,.48s.01.31.03.47l1.23.13v1.48h-3.32c-.07-.34-.12-.65-.16-.93s-.07-.55-.08-.82c-.45.57-1,1.04-1.67,1.42s-1.38.57-2.14.57Zm.34-1.93c.77,0,1.46-.18,2.1-.55s1.09-.81,1.36-1.32v-2.3h-2.34c-1.06,0-1.86.25-2.39.76s-.8,1.07-.8,1.7c0,.55.17.98.52,1.27s.86.44,1.56.44Z"/>
          <path class="cls-5" d="m166.68,496.07v-1.48l1.91-.33v-9.06l-1.91-.33v-1.49h3.98l.15,1.65c.41-.6.93-1.07,1.57-1.39s1.38-.49,2.23-.49,1.57.2,2.17.59,1.06.98,1.37,1.76c.4-.72.93-1.29,1.58-1.71s1.42-.63,2.3-.63c1.3,0,2.32.44,3.07,1.33s1.12,2.22,1.12,4v5.78l1.91.33v1.48h-6.14v-1.48l1.91-.33v-5.8c0-1.25-.21-2.13-.64-2.65s-1.07-.78-1.91-.78-1.45.28-1.94.85-.77,1.28-.85,2.14v6.25l1.91.33v1.48h-6.13v-1.48l1.91-.33v-5.8c0-1.19-.22-2.06-.66-2.61s-1.08-.83-1.92-.83c-.7,0-1.28.14-1.73.43s-.8.7-1.04,1.22v7.58l1.91.33v1.48h-6.13Z"/>
          <path class="cls-5" d="m195.45,496.31c-1.17,0-2.19-.27-3.06-.8s-1.54-1.28-2.01-2.23-.71-2.05-.71-3.3v-.52c0-1.2.25-2.28.74-3.23s1.16-1.7,1.98-2.25,1.72-.83,2.7-.83c1.14,0,2.1.23,2.87.7s1.35,1.13,1.74,1.97.59,1.85.59,2.99v1.44h-8.23l-.04.06c.02.81.16,1.53.43,2.16s.66,1.12,1.17,1.48,1.12.54,1.83.54c.78,0,1.47-.11,2.06-.33s1.1-.53,1.53-.92l.9,1.5c-.45.44-1.05.81-1.8,1.11s-1.64.45-2.69.45Zm-3.32-7.85h5.85v-.3c0-.61-.11-1.15-.32-1.63s-.54-.86-.96-1.14-.96-.42-1.6-.42c-.52,0-.98.15-1.41.45s-.77.71-1.04,1.22-.45,1.1-.54,1.76l.02.06Z"/>
          <path class="cls-5" d="m202.08,496.07v-1.48l1.91-.33v-9.06l-1.91-.33v-1.49h3.97l.16,1.89c.42-.67.95-1.19,1.59-1.56s1.36-.56,2.17-.56c1.37,0,2.43.4,3.18,1.2s1.12,2.04,1.12,3.71v6.2l1.91.33v1.48h-6.13v-1.48l1.91-.33v-6.15c0-1.12-.22-1.91-.66-2.38s-1.12-.7-2.02-.7c-.66,0-1.25.16-1.76.48s-.92.76-1.22,1.31v7.44l1.91.33v1.48h-6.13Z"/>
          <path class="cls-5" d="m221.83,496.26c-.94,0-1.68-.28-2.23-.83s-.83-1.43-.83-2.64v-7.7h-2v-1.71h2v-3.06h2.31v3.06h2.75v1.71h-2.75v7.7c0,.61.12,1.06.36,1.35s.57.43.97.43c.27,0,.58-.03.91-.08s.6-.1.79-.13l.32,1.51c-.34.1-.75.19-1.24.27s-.94.12-1.37.12Z"/>
          <path class="cls-5" d="m231.4,496.31c-1.17,0-2.18-.28-3.03-.83s-1.5-1.31-1.96-2.29-.69-2.08-.69-3.33v-.26c0-1.25.23-2.36.69-3.33s1.12-1.74,1.96-2.29,1.85-.83,3.01-.83,2.18.28,3.03.83,1.5,1.32,1.96,2.29.69,2.08.69,3.34v.26c0,1.26-.23,2.37-.69,3.35s-1.11,1.73-1.96,2.28-1.85.82-3.01.82Zm0-1.8c.73,0,1.35-.2,1.85-.6s.87-.95,1.12-1.65.38-1.49.38-2.38v-.26c0-.89-.13-1.69-.38-2.38s-.63-1.25-1.13-1.65-1.12-.6-1.86-.6-1.35.2-1.85.6-.88.95-1.12,1.65-.38,1.49-.38,2.38v.26c0,.89.12,1.69.38,2.38s.63,1.25,1.13,1.65,1.13.6,1.87.6Z"/>
        </g>
      </g>
      <g>
        <rect class="cls-3" x="336" y="397" width="280" height="200" rx="8" ry="8"/>
        <g>
          <path class="cls-5" d="m408.2,452.87v-1.48l1.91-.33v-13.44l-1.91-.33v-1.49h7.36c1.78,0,3.17.38,4.18,1.15s1.51,1.92,1.51,3.46c0,.76-.24,1.44-.72,2.03s-1.12,1.04-1.9,1.33c.69.14,1.28.42,1.77.83s.87.91,1.14,1.5.4,1.24.4,1.94c0,1.56-.51,2.76-1.52,3.58s-2.39,1.24-4.12,1.24h-8.09Zm4.22-9.81h3.74c.83,0,1.5-.24,2.01-.72s.77-1.13.77-1.96c0-.92-.29-1.61-.87-2.07s-1.41-.69-2.51-.69h-3.14v5.44Zm0,8h3.87c1.05,0,1.87-.26,2.46-.78s.87-1.26.87-2.21c0-.67-.11-1.25-.32-1.72s-.54-.84-.98-1.1-1-.39-1.67-.39h-4.22v6.2Z"/>
          <path class="cls-5" d="m423.58,452.87v-1.48l1.91-.33v-9.06l-1.91-.33v-1.49h3.97l.2,1.62.02.22c.36-.65.8-1.16,1.33-1.52s1.13-.55,1.81-.55c.24,0,.49.02.74.06s.44.08.54.12l-.3,2.14-1.61-.09c-.61-.04-1.12.1-1.54.42s-.73.74-.96,1.27v7.18l1.91.33v1.48h-6.13Z"/>
          <path class="cls-5" d="m439.11,453.11c-1.17,0-2.18-.28-3.03-.83s-1.5-1.31-1.96-2.29-.69-2.08-.69-3.33v-.26c0-1.25.23-2.36.69-3.33s1.12-1.74,1.96-2.29,1.85-.83,3.01-.83,2.18.28,3.03.83,1.5,1.32,1.96,2.29.69,2.08.69,3.34v.26c0,1.26-.23,2.37-.69,3.35s-1.11,1.73-1.96,2.28-1.85.82-3.01.82Zm0-1.8c.73,0,1.35-.2,1.85-.6s.87-.95,1.12-1.65.38-1.49.38-2.38v-.26c0-.89-.13-1.69-.38-2.38s-.63-1.25-1.13-1.65-1.12-.6-1.86-.6-1.35.2-1.85.6-.88.95-1.12,1.65-.38,1.49-.38,2.38v.26c0,.89.12,1.69.38,2.38s.63,1.25,1.13,1.65,1.13.6,1.87.6Z"/>
          <path class="cls-5" d="m452.69,453.11c-1.15,0-2.15-.27-3-.8s-1.51-1.28-1.98-2.23-.7-2.05-.7-3.3v-.49c0-1.2.23-2.28.68-3.23s1.11-1.71,1.96-2.26,1.87-.83,3.05-.83c1.02,0,1.92.17,2.69.5s1.42.8,1.94,1.38l.06,3.05h-1.8l-.4-2.21c-.27-.27-.6-.49-1-.66s-.87-.25-1.41-.25c-.69,0-1.29.2-1.81.61s-.92.95-1.21,1.63-.43,1.44-.43,2.27v.49c0,.92.13,1.72.4,2.4s.66,1.21,1.16,1.58,1.1.56,1.8.56c.78,0,1.43-.21,1.95-.64s.83-1.02.95-1.77h2.07l.02.07c-.04.73-.25,1.41-.64,2.04s-.95,1.14-1.67,1.53-1.61.58-2.67.58Z"/>
          <path class="cls-5" d="m459.17,452.87v-1.48l1.91-.33v-14.66l-1.91-.33v-1.49h4.22v7.29c.44-.61.97-1.08,1.61-1.42s1.34-.5,2.11-.5c1.36,0,2.41.41,3.16,1.22s1.12,2.06,1.12,3.75v6.14l1.91.33v1.48h-6.13v-1.48l1.91-.33v-6.16c0-1.05-.22-1.82-.67-2.32s-1.12-.75-2.01-.75c-.63,0-1.21.15-1.73.45s-.95.71-1.28,1.22v7.56l1.91.33v1.48h-6.13Z"/>
          <path class="cls-5" d="m479.98,453.11c-1.38,0-2.45-.44-3.22-1.32s-1.16-2.26-1.16-4.12v-5.66l-1.45-.33v-1.49h3.76v7.5c0,1.35.2,2.28.6,2.79s1.02.76,1.86.76,1.5-.17,2.03-.5.94-.8,1.21-1.41v-7.32l-1.7-.33v-1.49h4.01v10.88l1.45.33v1.48h-3.53l-.15-1.88c-.4.68-.91,1.2-1.54,1.57s-1.35.55-2.17.55Z"/>
          <path class="cls-5" d="m488.97,452.87v-1.48l1.91-.33v-9.06l-1.91-.33v-1.49h3.97l.2,1.62.02.22c.36-.65.8-1.16,1.33-1.52s1.13-.55,1.81-.55c.24,0,.49.02.74.06s.44.08.54.12l-.3,2.14-1.61-.09c-.61-.04-1.12.1-1.54.42s-.73.74-.96,1.27v7.18l1.91.33v1.48h-6.13Z"/>
          <path class="cls-5" d="m503.11,453.11c-1.32,0-2.32-.32-3.01-.97s-1.03-1.55-1.03-2.72c0-.8.22-1.51.66-2.1s1.08-1.06,1.92-1.39,1.84-.5,3-.5h2.26v-1.24c0-.77-.23-1.36-.7-1.78s-1.12-.63-1.96-.63c-.53,0-.99.06-1.38.19s-.75.31-1.07.53l-.25,1.77h-1.78v-2.91c.57-.46,1.23-.81,1.99-1.05s1.6-.36,2.52-.36c1.54,0,2.75.37,3.62,1.1s1.31,1.79,1.31,3.15v6.11c0,.16,0,.32,0,.48s.01.31.03.47l1.23.13v1.48h-3.32c-.07-.34-.12-.65-.16-.93s-.07-.55-.08-.82c-.45.57-1,1.04-1.67,1.42s-1.38.57-2.14.57Zm.34-1.93c.77,0,1.46-.18,2.1-.55s1.09-.81,1.36-1.32v-2.3h-2.34c-1.06,0-1.86.25-2.39.76s-.8,1.07-.8,1.7c0,.55.17.98.52,1.27s.86.44,1.56.44Z"/>
          <path class="cls-5" d="m523.21,453.11c-1.03,0-1.92-.26-2.65-.77s-1.3-1.22-1.69-2.14-.59-1.98-.59-3.2v-.25c0-1.36.2-2.55.59-3.57s.96-1.82,1.7-2.38,1.63-.85,2.67-.85c.75,0,1.41.14,1.99.42s1.06.68,1.47,1.2v-5.17l-1.91-.33v-1.49h4.22v16.48l1.91.33v1.48h-3.91l-.19-1.51c-.41.58-.92,1.02-1.52,1.31s-1.29.45-2.08.45Zm.59-1.88c.69,0,1.27-.16,1.73-.47s.86-.75,1.16-1.32v-5.88c-.3-.53-.68-.95-1.16-1.27s-1.05-.47-1.71-.47c-.73,0-1.34.21-1.82.63s-.83,1-1.07,1.73-.35,1.6-.35,2.57v.25c0,1.27.26,2.3.79,3.07s1.33,1.16,2.43,1.16Z"/>
          <path class="cls-5" d="m538.18,453.11c-1.17,0-2.18-.28-3.03-.83s-1.5-1.31-1.96-2.29-.69-2.08-.69-3.33v-.26c0-1.25.23-2.36.69-3.33s1.12-1.74,1.96-2.29,1.85-.83,3.01-.83,2.18.28,3.03.83,1.5,1.32,1.96,2.29.69,2.08.69,3.34v.26c0,1.26-.23,2.37-.69,3.35s-1.11,1.73-1.96,2.28-1.85.82-3.01.82Zm0-1.8c.73,0,1.35-.2,1.85-.6s.87-.95,1.12-1.65.38-1.49.38-2.38v-.26c0-.89-.13-1.69-.38-2.38s-.63-1.25-1.13-1.65-1.12-.6-1.86-.6-1.35.2-1.85.6-.88.95-1.12,1.65-.38,1.49-.38,2.38v.26c0,.89.12,1.69.38,2.38s.63,1.25,1.13,1.65,1.13.6,1.87.6Z"/>
          <path class="cls-5" d="m406.27,481.67v-1.48l1.91-.33v-9.06l-1.91-.33v-1.49h4.22v10.88l1.91.33v1.48h-6.13Zm1.79-15.81v-2.47h2.43v2.47h-2.43Z"/>
          <path class="cls-5" d="m414,481.67v-1.48l1.91-.33v-9.06l-1.91-.33v-1.49h3.97l.16,1.89c.42-.67.95-1.19,1.59-1.56s1.36-.56,2.17-.56c1.37,0,2.43.4,3.18,1.2s1.12,2.04,1.12,3.71v6.2l1.91.33v1.48h-6.13v-1.48l1.91-.33v-6.15c0-1.12-.22-1.91-.66-2.38s-1.12-.7-2.02-.7c-.66,0-1.25.16-1.76.48s-.92.76-1.22,1.31v7.44l1.91.33v1.48h-6.13Z"/>
          <path class="cls-5" d="m433.94,481.67l-4.51-11.02-1.31-.18v-1.49h5.32v1.49l-1.65.23,2.81,7.22.33,1.02h.07l.38-1.02,2.61-7.22-1.7-.23v-1.49h5.31v1.49l-1.34.18-4.29,11.02h-2.03Z"/>
          <path class="cls-5" d="m448.3,481.91c-1.17,0-2.19-.27-3.06-.8s-1.54-1.28-2.01-2.23-.71-2.05-.71-3.3v-.52c0-1.2.25-2.28.74-3.23s1.16-1.7,1.98-2.25,1.72-.83,2.7-.83c1.14,0,2.1.23,2.87.7s1.35,1.13,1.74,1.97.59,1.85.59,2.99v1.44h-8.23l-.04.06c.02.81.16,1.53.43,2.16s.66,1.12,1.17,1.48,1.12.54,1.83.54c.78,0,1.47-.11,2.06-.33s1.1-.53,1.53-.92l.9,1.5c-.45.44-1.05.81-1.8,1.11s-1.64.45-2.69.45Zm-3.32-7.85h5.85v-.3c0-.61-.11-1.15-.32-1.63s-.54-.86-.96-1.14-.96-.42-1.6-.42c-.52,0-.98.15-1.41.45s-.77.71-1.04,1.22-.45,1.1-.54,1.76l.02.06Z"/>
          <path class="cls-5" d="m460.12,481.91c-.85,0-1.65-.09-2.39-.26s-1.53-.44-2.37-.8l-.02-3.01h1.75l.43,1.82c.44.18.86.31,1.27.39s.85.12,1.33.12c.94,0,1.61-.18,2.02-.54s.61-.8.61-1.34c0-.5-.21-.92-.62-1.27s-1.15-.64-2.23-.88c-1.53-.35-2.66-.82-3.38-1.41s-1.08-1.38-1.08-2.36c0-.69.2-1.3.6-1.85s.95-.97,1.66-1.29,1.54-.48,2.48-.48,1.78.11,2.47.33,1.28.51,1.79.88l.12,2.89h-1.73l-.38-1.69c-.27-.2-.6-.36-.97-.47s-.8-.16-1.29-.16c-.72,0-1.3.17-1.75.5s-.67.76-.67,1.27c0,.3.06.55.19.77s.38.42.74.59.91.35,1.62.52c1.77.41,3,.94,3.7,1.58s1.05,1.43,1.05,2.37c0,1.07-.4,1.97-1.19,2.69s-2.04,1.08-3.74,1.08Z"/>
          <path class="cls-5" d="m471.44,481.87c-.94,0-1.68-.28-2.23-.83s-.83-1.43-.83-2.64v-7.7h-2v-1.71h2v-3.06h2.31v3.06h2.75v1.71h-2.75v7.7c0,.61.12,1.06.36,1.35s.57.43.97.43c.27,0,.58-.03.91-.08s.6-.1.79-.13l.32,1.51c-.34.1-.75.19-1.24.27s-.94.12-1.37.12Z"/>
          <path class="cls-5" d="m475.44,481.67v-1.48l1.91-.33v-9.06l-1.91-.33v-1.49h4.22v10.88l1.91.33v1.48h-6.13Zm1.79-15.81v-2.47h2.43v2.47h-2.43Z"/>
          <path class="cls-5" d="m488.73,486.79c-.61,0-1.27-.08-1.98-.25s-1.34-.4-1.88-.69l.6-1.79c.43.23.94.41,1.52.56s1.16.22,1.71.22c1.03,0,1.79-.29,2.27-.87s.72-1.4.72-2.47v-1.21c-.41.53-.91.93-1.49,1.21s-1.24.41-1.99.41c-1.03,0-1.92-.26-2.67-.77s-1.33-1.23-1.73-2.14-.6-1.98-.6-3.19v-.25c0-1.36.2-2.55.6-3.57s.98-1.82,1.73-2.38,1.65-.85,2.7-.85c.8,0,1.5.16,2.1.47s1.11.77,1.51,1.36l.21-1.59h1.95v12.52c0,1.09-.21,2.04-.62,2.82s-1.01,1.4-1.79,1.82-1.74.64-2.87.64Zm.06-6.75c.7,0,1.28-.16,1.75-.47s.86-.76,1.16-1.34v-5.84c-.3-.54-.68-.97-1.16-1.28s-1.05-.47-1.72-.47c-.73,0-1.35.21-1.83.63s-.85,1-1.1,1.74-.36,1.59-.36,2.56v.25c0,1.27.27,2.3.81,3.07s1.36,1.16,2.46,1.16Zm4.86-9.16l-.9-1.89h2.82v1.48l-1.92.41Z"/>
          <path class="cls-5" d="m500.82,481.91c-1.32,0-2.32-.32-3.01-.97s-1.03-1.55-1.03-2.72c0-.8.22-1.51.66-2.1s1.08-1.06,1.92-1.39,1.84-.5,3-.5h2.26v-1.24c0-.77-.23-1.36-.7-1.78s-1.12-.63-1.96-.63c-.53,0-.99.06-1.38.19s-.75.31-1.07.53l-.25,1.77h-1.78v-2.91c.57-.46,1.23-.81,1.99-1.05s1.6-.36,2.52-.36c1.54,0,2.75.37,3.62,1.1s1.31,1.79,1.31,3.15v6.11c0,.16,0,.32,0,.48s.01.31.03.47l1.23.13v1.48h-3.32c-.07-.34-.12-.65-.16-.93s-.07-.55-.08-.82c-.45.57-1,1.04-1.67,1.42s-1.38.57-2.14.57Zm.34-1.93c.77,0,1.46-.18,2.1-.55s1.09-.81,1.36-1.32v-2.3h-2.34c-1.06,0-1.86.25-2.39.76s-.8,1.07-.8,1.7c0,.55.17.98.52,1.27s.86.44,1.56.44Z"/>
          <path class="cls-5" d="m514.96,481.91c-1.03,0-1.92-.26-2.65-.77s-1.3-1.22-1.69-2.14-.59-1.98-.59-3.2v-.25c0-1.36.2-2.55.59-3.57s.96-1.82,1.7-2.38,1.63-.85,2.67-.85c.75,0,1.41.14,1.99.42s1.06.68,1.47,1.2v-5.17l-1.91-.33v-1.49h4.22v16.48l1.91.33v1.48h-3.91l-.19-1.51c-.41.58-.92,1.02-1.52,1.31s-1.29.45-2.08.45Zm.59-1.88c.69,0,1.27-.16,1.73-.47s.86-.75,1.16-1.32v-5.88c-.3-.53-.68-.95-1.16-1.27s-1.05-.47-1.71-.47c-.73,0-1.34.21-1.82.63s-.83,1-1.07,1.73-.35,1.6-.35,2.57v.25c0,1.27.26,2.3.79,3.07s1.33,1.16,2.43,1.16Z"/>
          <path class="cls-5" d="m529.93,481.91c-1.17,0-2.18-.28-3.03-.83s-1.5-1.31-1.96-2.29-.69-2.08-.69-3.33v-.26c0-1.25.23-2.36.69-3.33s1.12-1.74,1.96-2.29,1.85-.83,3.01-.83,2.18.28,3.03.83,1.5,1.32,1.96,2.29.69,2.08.69,3.34v.26c0,1.26-.23,2.37-.69,3.35s-1.11,1.73-1.96,2.28-1.85.82-3.01.82Zm0-1.8c.73,0,1.35-.2,1.85-.6s.87-.95,1.12-1.65.38-1.49.38-2.38v-.26c0-.89-.13-1.69-.38-2.38s-.63-1.25-1.13-1.65-1.12-.6-1.86-.6-1.35.2-1.85.6-.88.95-1.12,1.65-.38,1.49-.38,2.38v.26c0,.89.12,1.69.38,2.38s.63,1.25,1.13,1.65,1.13.6,1.87.6Z"/>
          <path class="cls-5" d="m537.35,481.67v-1.48l1.91-.33v-9.06l-1.91-.33v-1.49h3.97l.2,1.62.02.22c.36-.65.8-1.16,1.33-1.52s1.13-.55,1.81-.55c.24,0,.49.02.74.06s.44.08.54.12l-.3,2.14-1.61-.09c-.61-.04-1.12.1-1.54.42s-.73.74-.96,1.27v7.18l1.91.33v1.48h-6.13Z"/>
        </g>
      </g>
      <g>
        <rect class="cls-6" x="500" y="113" width="280" height="120" rx="8" ry="8"/>
        <g>
          <path class="cls-2" d="m605.56,161.67v-1.48l1.91-.33v-13.44l-1.91-.33v-1.49h6.68c1.51,0,2.82.36,3.94,1.08s1.99,1.71,2.62,2.96.94,2.7.94,4.31v.36c0,1.58-.3,3-.9,4.26s-1.46,2.26-2.56,2.99-2.41,1.1-3.92,1.1h-6.8Zm4.22-1.8h2.46c1.08,0,2-.29,2.78-.88s1.37-1.38,1.79-2.37.63-2.08.63-3.29v-.39c0-1.24-.21-2.35-.63-3.33s-1.01-1.76-1.79-2.33-1.7-.86-2.78-.86h-2.46v13.44Z"/>
          <path class="cls-2" d="m621.46,161.67v-1.48l1.91-.33v-13.44l-1.91-.33v-1.49h6.68c1.51,0,2.82.36,3.94,1.08s1.99,1.71,2.62,2.96.94,2.7.94,4.31v.36c0,1.58-.3,3-.9,4.26s-1.46,2.26-2.56,2.99-2.41,1.1-3.92,1.1h-6.8Zm4.22-1.8h2.46c1.08,0,2-.29,2.78-.88s1.37-1.38,1.79-2.37.63-2.08.63-3.29v-.39c0-1.24-.21-2.35-.63-3.33s-1.01-1.76-1.79-2.33-1.7-.86-2.78-.86h-2.46v13.44Z"/>
          <path class="cls-2" d="m645.7,161.91c-1.71,0-3.14-.38-4.28-1.12s-2-1.78-2.58-3.08-.86-2.79-.86-4.44v-.25c0-1.67.3-3.16.9-4.46s1.46-2.33,2.59-3.08,2.47-1.12,4.03-1.12c1.1,0,2.11.17,3.02.52s1.67.78,2.27,1.31v3.68h-1.84l-.25-2.7c-.25-.2-.54-.36-.86-.49s-.68-.23-1.08-.3-.82-.11-1.28-.11c-1.12,0-2.06.29-2.84.86s-1.36,1.37-1.76,2.37-.6,2.17-.6,3.49v.27c0,1.43.21,2.65.64,3.66s1.05,1.78,1.86,2.31,1.81.8,2.98.8c.55,0,1.08-.07,1.61-.2s.96-.3,1.3-.52l.26-2.38h1.8v3.7c-.64.4-1.41.71-2.3.93s-1.81.33-2.75.33Z"/>
          <path class="cls-2" d="m653.26,161.67v-1.48l1.91-.33v-13.44l-1.91-.33v-1.49h4.99l5.5,12.95h.07l5.32-12.95h5.14v1.49l-1.91.33v13.44l1.91.33v1.48h-6.13v-1.48l2.02-.33v-12.11h-.06s-5.54,13.3-5.54,13.3h-1.54l-5.73-13.29h-.06s.08,7.15.08,7.15v4.95l2.06.33v1.48h-6.13Z"/>
          <path class="cls-2" d="m525.43,183.27v-1.11l1.43-.25v-10.08l-1.43-.25v-1.12h5.01c1.13,0,2.12.27,2.96.81.84.54,1.5,1.28,1.96,2.22s.7,2.02.7,3.23v.27c0,1.18-.23,2.25-.68,3.2-.45.95-1.09,1.69-1.92,2.24-.83.55-1.81.82-2.94.82h-5.1Zm3.16-1.35h1.85c.81,0,1.5-.22,2.08-.66.58-.44,1.03-1.03,1.34-1.78.31-.74.47-1.56.47-2.46v-.29c0-.93-.16-1.76-.47-2.5-.31-.73-.76-1.32-1.34-1.74s-1.27-.64-2.08-.64h-1.85v10.08Z"/>
          <path class="cls-2" d="m541.58,183.45c-.88,0-1.64-.21-2.27-.62-.64-.41-1.13-.98-1.47-1.71-.35-.73-.52-1.56-.52-2.5v-.19c0-.94.17-1.77.52-2.5.35-.73.84-1.3,1.47-1.72s1.39-.62,2.25-.62,1.64.21,2.27.62c.63.42,1.13.99,1.47,1.71s.52,1.56.52,2.5v.19c0,.94-.17,1.78-.52,2.51-.35.73-.83,1.3-1.47,1.71s-1.39.62-2.26.62Zm0-1.35c.55,0,1.01-.15,1.38-.45.37-.3.65-.71.84-1.24.19-.52.29-1.12.29-1.79v-.19c0-.67-.1-1.26-.29-1.79-.19-.53-.47-.94-.85-1.24-.38-.3-.84-.45-1.4-.45s-1.01.15-1.39.45c-.38.3-.66.71-.84,1.24-.19.52-.28,1.12-.28,1.79v.19c0,.67.09,1.26.28,1.79.19.53.47.94.85,1.24.38.3.84.45,1.4.45Z"/>
          <path class="cls-2" d="m551.02,183.45c-.64,0-1.24-.06-1.79-.19s-1.15-.33-1.78-.6l-.02-2.26h1.31l.33,1.36c.33.13.65.23.95.29.31.06.64.09,1,.09.7,0,1.21-.13,1.51-.4s.46-.6.46-1c0-.38-.15-.69-.46-.95-.31-.26-.87-.48-1.67-.66-1.15-.26-1.99-.62-2.54-1.06-.54-.44-.81-1.03-.81-1.77,0-.52.15-.98.45-1.38.3-.41.71-.73,1.25-.97s1.15-.36,1.86-.36,1.34.08,1.85.25c.51.16.96.38,1.34.66l.09,2.17h-1.3l-.28-1.27c-.21-.15-.45-.27-.73-.35s-.6-.12-.97-.12c-.54,0-.98.13-1.31.38-.34.25-.51.57-.51.95,0,.22.05.42.14.58.1.16.28.31.56.44.28.13.68.26,1.21.39,1.32.31,2.25.71,2.77,1.19.52.48.79,1.07.79,1.78,0,.8-.3,1.48-.89,2.02-.6.54-1.53.81-2.81.81Z"/>
          <path class="cls-2" d="m560,183.45c-.64,0-1.24-.06-1.79-.19s-1.15-.33-1.78-.6l-.02-2.26h1.31l.33,1.36c.33.13.65.23.95.29.31.06.64.09,1,.09.7,0,1.21-.13,1.51-.4s.46-.6.46-1c0-.38-.15-.69-.46-.95-.31-.26-.87-.48-1.67-.66-1.15-.26-1.99-.62-2.54-1.06-.54-.44-.81-1.03-.81-1.77,0-.52.15-.98.45-1.38.3-.41.71-.73,1.25-.97s1.15-.36,1.86-.36,1.34.08,1.85.25c.51.16.96.38,1.34.66l.09,2.17h-1.3l-.28-1.27c-.21-.15-.45-.27-.73-.35s-.6-.12-.97-.12c-.54,0-.98.13-1.31.38-.34.25-.51.57-.51.95,0,.22.05.42.14.58.1.16.28.31.56.44.28.13.68.26,1.21.39,1.32.31,2.25.71,2.77,1.19.52.48.79,1.07.79,1.78,0,.8-.3,1.48-.89,2.02-.6.54-1.53.81-2.81.81Z"/>
          <path class="cls-2" d="m565.07,183.27v-1.11l1.43-.25v-6.79l-1.43-.25v-1.12h3.16v8.16l1.43.25v1.11h-4.6Zm1.34-11.86v-1.85h1.82v1.85h-1.82Z"/>
          <path class="cls-2" d="m575.19,183.45c-.88,0-1.64-.2-2.29-.6-.65-.4-1.15-.96-1.51-1.67s-.53-1.54-.53-2.48v-.39c0-.9.19-1.71.56-2.42.37-.71.87-1.27,1.48-1.69.62-.41,1.29-.62,2.03-.62.86,0,1.57.18,2.15.53.58.35,1.01.85,1.3,1.48.29.64.44,1.38.44,2.25v1.08h-6.17l-.03.04c.01.61.12,1.15.32,1.62.2.47.49.84.87,1.11s.84.4,1.37.4c.59,0,1.1-.08,1.54-.25.44-.17.83-.4,1.15-.69l.68,1.12c-.34.33-.79.61-1.35.83-.56.23-1.23.34-2.02.34Zm-2.97-11.58v-.23l2.16-2.08h1.05l2.18,2.09v.22h-1.42l-1.29-1.3-1.27,1.3h-1.41Zm.48,5.7h4.39v-.23c0-.46-.08-.87-.24-1.23-.16-.36-.4-.64-.72-.85-.32-.21-.72-.31-1.2-.31-.39,0-.74.11-1.05.34-.32.22-.58.53-.78.92s-.34.83-.4,1.32l.02.04Z"/>
          <path class="cls-2" d="m588.38,183.45c-.77,0-1.44-.19-1.99-.58-.55-.38-.98-.92-1.27-1.6s-.44-1.49-.44-2.4v-.18c0-1.02.15-1.91.44-2.68s.72-1.36,1.27-1.79c.56-.42,1.22-.64,2-.64.56,0,1.06.1,1.49.31.43.21.8.51,1.1.9v-3.88l-1.43-.25v-1.12h3.16v12.36l1.43.25v1.11h-2.94l-.14-1.13c-.31.43-.69.76-1.14.98-.45.22-.97.33-1.56.33Zm.44-1.41c.52,0,.95-.12,1.3-.35s.64-.57.87-.99v-4.41c-.22-.4-.51-.71-.87-.95s-.79-.35-1.28-.35c-.55,0-1,.16-1.36.47-.36.31-.62.75-.8,1.3-.18.55-.26,1.2-.26,1.93v.18c0,.96.2,1.72.59,2.3s1,.87,1.82.87Z"/>
          <path class="cls-2" d="m599.64,183.45c-.88,0-1.64-.2-2.29-.6-.65-.4-1.15-.96-1.51-1.67s-.53-1.54-.53-2.48v-.39c0-.9.19-1.71.56-2.42.37-.71.87-1.27,1.48-1.69.62-.41,1.29-.62,2.03-.62.86,0,1.57.18,2.15.53.58.35,1.01.85,1.3,1.48.29.64.44,1.38.44,2.25v1.08h-6.17l-.03.04c.01.61.12,1.15.32,1.62.2.47.49.84.87,1.11s.84.4,1.37.4c.59,0,1.1-.08,1.54-.25.44-.17.83-.4,1.15-.69l.68,1.12c-.34.33-.79.61-1.35.83-.56.23-1.23.34-2.02.34Zm-2.49-5.89h4.39v-.23c0-.46-.08-.87-.24-1.23-.16-.36-.4-.64-.72-.85-.32-.21-.72-.31-1.2-.31-.39,0-.74.11-1.05.34-.32.22-.58.53-.78.92s-.34.83-.4,1.32l.02.04Z"/>
          <path class="cls-2" d="m609.15,183.27v-1.11l1.43-.25v-10.08l-1.43-.25v-1.12h5.01c1.13,0,2.12.27,2.96.81.84.54,1.5,1.28,1.96,2.22s.7,2.02.7,3.23v.27c0,1.18-.23,2.25-.68,3.2-.45.95-1.09,1.69-1.92,2.24-.83.55-1.81.82-2.94.82h-5.1Zm3.16-1.35h1.85c.81,0,1.5-.22,2.08-.66.58-.44,1.03-1.03,1.34-1.78.31-.74.47-1.56.47-2.46v-.29c0-.93-.16-1.76-.47-2.5-.31-.73-.76-1.32-1.34-1.74s-1.27-.64-2.08-.64h-1.85v10.08Z"/>
          <path class="cls-2" d="m625.34,183.45c-.88,0-1.64-.2-2.29-.6-.65-.4-1.15-.96-1.51-1.67s-.53-1.54-.53-2.48v-.39c0-.9.19-1.71.56-2.42.37-.71.87-1.27,1.48-1.69.62-.41,1.29-.62,2.03-.62.86,0,1.57.18,2.15.53.58.35,1.01.85,1.3,1.48.29.64.44,1.38.44,2.25v1.08h-6.17l-.03.04c.01.61.12,1.15.32,1.62.2.47.49.84.87,1.11s.84.4,1.37.4c.59,0,1.1-.08,1.54-.25.44-.17.83-.4,1.15-.69l.68,1.12c-.34.33-.79.61-1.35.83-.56.23-1.23.34-2.02.34Zm-2.49-5.89h4.39v-.23c0-.46-.08-.87-.24-1.23-.16-.36-.4-.64-.72-.85-.32-.21-.72-.31-1.2-.31-.39,0-.74.11-1.05.34-.32.22-.58.53-.78.92s-.34.83-.4,1.32l.02.04Z"/>
          <path class="cls-2" d="m634.2,183.45c-.64,0-1.24-.06-1.79-.19s-1.15-.33-1.78-.6l-.02-2.26h1.31l.33,1.36c.33.13.65.23.95.29.31.06.64.09,1,.09.7,0,1.21-.13,1.51-.4s.46-.6.46-1c0-.38-.15-.69-.46-.95-.31-.26-.87-.48-1.67-.66-1.15-.26-1.99-.62-2.54-1.06-.54-.44-.81-1.03-.81-1.77,0-.52.15-.98.45-1.38.3-.41.71-.73,1.25-.97s1.15-.36,1.86-.36,1.34.08,1.85.25c.51.16.96.38,1.34.66l.09,2.17h-1.3l-.28-1.27c-.21-.15-.45-.27-.73-.35s-.6-.12-.97-.12c-.54,0-.98.13-1.31.38-.34.25-.51.57-.51.95,0,.22.05.42.14.58.1.16.28.31.56.44.28.13.68.26,1.21.39,1.32.31,2.25.71,2.77,1.19.52.48.79,1.07.79,1.78,0,.8-.3,1.48-.89,2.02-.6.54-1.53.81-2.81.81Z"/>
          <path class="cls-2" d="m643.67,183.45c-.88,0-1.64-.2-2.29-.6-.65-.4-1.15-.96-1.51-1.67s-.53-1.54-.53-2.48v-.39c0-.9.19-1.71.56-2.42.37-.71.87-1.27,1.48-1.69.62-.41,1.29-.62,2.03-.62.86,0,1.57.18,2.15.53.58.35,1.01.85,1.3,1.48.29.64.44,1.38.44,2.25v1.08h-6.17l-.03.04c.01.61.12,1.15.32,1.62.2.47.49.84.87,1.11s.84.4,1.37.4c.59,0,1.1-.08,1.54-.25.44-.17.83-.4,1.15-.69l.68,1.12c-.34.33-.79.61-1.35.83-.56.23-1.23.34-2.02.34Zm-2.49-5.89h4.39v-.23c0-.46-.08-.87-.24-1.23-.16-.36-.4-.64-.72-.85-.32-.21-.72-.31-1.2-.31-.39,0-.74.11-1.05.34-.32.22-.58.53-.78.92s-.34.83-.4,1.32l.02.04Z"/>
          <path class="cls-2" d="m648.64,183.27v-1.11l1.43-.25v-6.79l-1.43-.25v-1.12h2.98l.12,1.42c.32-.5.71-.9,1.19-1.17.48-.28,1.02-.42,1.63-.42,1.03,0,1.82.3,2.38.9.56.6.84,1.53.84,2.78v4.65l1.43.25v1.11h-4.6v-1.11l1.43-.25v-4.61c0-.84-.17-1.43-.5-1.78-.33-.35-.84-.53-1.52-.53-.5,0-.94.12-1.32.36s-.69.57-.92.98v5.58l1.43.25v1.11h-4.6Z"/>
          <path class="cls-2" d="m663.6,183.27l-3.38-8.26-.98-.13v-1.12h3.99v1.12l-1.24.18,2.11,5.41.25.76h.05l.28-.76,1.96-5.41-1.27-.18v-1.12h3.98v1.12l-1,.13-3.22,8.26h-1.52Z"/>
          <path class="cls-2" d="m674.33,183.45c-.88,0-1.64-.21-2.27-.62-.64-.41-1.13-.98-1.47-1.71-.35-.73-.52-1.56-.52-2.5v-.19c0-.94.17-1.77.52-2.5.35-.73.84-1.3,1.47-1.72s1.39-.62,2.25-.62,1.64.21,2.27.62c.63.42,1.13.99,1.47,1.71s.52,1.56.52,2.5v.19c0,.94-.17,1.78-.52,2.51-.35.73-.83,1.3-1.47,1.71s-1.39.62-2.26.62Zm0-1.35c.55,0,1.01-.15,1.38-.45.37-.3.65-.71.84-1.24.19-.52.29-1.12.29-1.79v-.19c0-.67-.1-1.26-.29-1.79-.19-.53-.47-.94-.85-1.24-.38-.3-.84-.45-1.4-.45s-1.01.15-1.39.45c-.38.3-.66.71-.84,1.24-.19.52-.28,1.12-.28,1.79v.19c0,.67.09,1.26.28,1.79.19.53.47.94.85,1.24.38.3.84.45,1.4.45Z"/>
          <path class="cls-2" d="m679.65,183.27v-1.11l1.43-.25v-11l-1.43-.25v-1.12h3.16v12.36l1.43.25v1.11h-4.6Z"/>
          <path class="cls-2" d="m689.43,183.27l-3.38-8.26-.98-.13v-1.12h3.99v1.12l-1.24.18,2.11,5.41.25.76h.05l.28-.76,1.96-5.41-1.27-.18v-1.12h3.98v1.12l-1,.13-3.22,8.26h-1.52Z"/>
          <path class="cls-2" d="m696.02,183.27v-1.11l1.43-.25v-6.79l-1.43-.25v-1.12h3.16v8.16l1.43.25v1.11h-4.6Zm1.34-11.86v-1.85h1.82v1.85h-1.82Z"/>
          <path class="cls-2" d="m701.81,183.27v-1.11l1.43-.25v-6.79l-1.43-.25v-1.12h2.99l.11,1.24c.3-.45.7-.8,1.18-1.05s1.04-.37,1.67-.37,1.18.15,1.63.44.8.73,1.02,1.32c.3-.54.69-.97,1.19-1.28s1.07-.47,1.72-.47c.97,0,1.74.33,2.3,1,.56.66.84,1.67.84,3v4.33l1.43.25v1.11h-4.61v-1.11l1.43-.25v-4.35c0-.94-.16-1.6-.48-1.99-.32-.39-.8-.58-1.43-.58s-1.09.21-1.46.64c-.37.43-.58.96-.64,1.6v4.68l1.43.25v1.11h-4.6v-1.11l1.43-.25v-4.35c0-.89-.17-1.54-.5-1.96-.33-.41-.81-.62-1.44-.62-.53,0-.96.11-1.3.33s-.6.52-.78.91v5.69l1.43.25v1.11h-4.6Z"/>
          <path class="cls-2" d="m723.39,183.45c-.88,0-1.64-.2-2.29-.6-.65-.4-1.15-.96-1.51-1.67s-.53-1.54-.53-2.48v-.39c0-.9.19-1.71.56-2.42.37-.71.87-1.27,1.48-1.69.62-.41,1.29-.62,2.03-.62.86,0,1.57.18,2.15.53.58.35,1.01.85,1.3,1.48.29.64.44,1.38.44,2.25v1.08h-6.17l-.03.04c.01.61.12,1.15.32,1.62.2.47.49.84.87,1.11s.84.4,1.37.4c.59,0,1.1-.08,1.54-.25.44-.17.83-.4,1.15-.69l.68,1.12c-.34.33-.79.61-1.35.83-.56.23-1.23.34-2.02.34Zm-2.49-5.89h4.39v-.23c0-.46-.08-.87-.24-1.23-.16-.36-.4-.64-.72-.85-.32-.21-.72-.31-1.2-.31-.39,0-.74.11-1.05.34-.32.22-.58.53-.78.92s-.34.83-.4,1.32l.02.04Z"/>
          <path class="cls-2" d="m728.36,183.27v-1.11l1.43-.25v-6.79l-1.43-.25v-1.12h2.98l.12,1.42c.32-.5.71-.9,1.19-1.17.48-.28,1.02-.42,1.63-.42,1.03,0,1.82.3,2.38.9.56.6.84,1.53.84,2.78v4.65l1.43.25v1.11h-4.6v-1.11l1.43-.25v-4.61c0-.84-.17-1.43-.5-1.78-.33-.35-.84-.53-1.52-.53-.5,0-.94.12-1.32.36s-.69.57-.92.98v5.58l1.43.25v1.11h-4.6Z"/>
          <path class="cls-2" d="m743.17,183.42c-.7,0-1.26-.21-1.67-.62-.41-.41-.62-1.07-.62-1.98v-5.77h-1.5v-1.28h1.5v-2.29h1.73v2.29h2.07v1.28h-2.07v5.77c0,.46.09.79.27,1.01s.42.33.73.33c.21,0,.43-.02.69-.06.25-.04.45-.07.59-.1l.24,1.13c-.25.08-.56.14-.93.2s-.71.09-1.02.09Z"/>
          <path class="cls-2" d="m750.35,183.45c-.88,0-1.64-.21-2.27-.62-.64-.41-1.13-.98-1.47-1.71-.35-.73-.52-1.56-.52-2.5v-.19c0-.94.17-1.77.52-2.5.35-.73.84-1.3,1.47-1.72s1.39-.62,2.25-.62,1.64.21,2.27.62c.63.42,1.13.99,1.47,1.71s.52,1.56.52,2.5v.19c0,.94-.17,1.78-.52,2.51-.35.73-.83,1.3-1.47,1.71s-1.39.62-2.26.62Zm0-1.35c.55,0,1.01-.15,1.38-.45.37-.3.65-.71.84-1.24.19-.52.29-1.12.29-1.79v-.19c0-.67-.1-1.26-.29-1.79-.19-.53-.47-.94-.85-1.24-.38-.3-.84-.45-1.4-.45s-1.01.15-1.39.45c-.38.3-.66.71-.84,1.24-.19.52-.28,1.12-.28,1.79v.19c0,.67.09,1.26.28,1.79.19.53.47.94.85,1.24.38.3.84.45,1.4.45Z"/>
          <path class="cls-2" d="m543.56,205.05c-1.28,0-2.35-.28-3.21-.84-.86-.56-1.5-1.33-1.93-2.31-.43-.98-.65-2.09-.65-3.33v-.19c0-1.25.23-2.37.68-3.34s1.1-1.74,1.94-2.31,1.85-.84,3.02-.84c.83,0,1.58.13,2.27.39s1.25.59,1.71.98v2.76h-1.38l-.18-2.02c-.19-.15-.4-.27-.65-.37s-.51-.18-.81-.23-.62-.08-.96-.08c-.84,0-1.55.22-2.13.65s-1.02,1.02-1.32,1.78-.45,1.63-.45,2.62v.2c0,1.07.16,1.99.48,2.75s.79,1.34,1.4,1.74c.61.4,1.36.6,2.24.6.41,0,.81-.05,1.2-.15s.72-.23.98-.39l.19-1.78h1.35v2.78c-.48.3-1.05.53-1.72.7s-1.36.25-2.07.25Z"/>
          <path class="cls-2" d="m548.96,204.87v-1.11l1.43-.25v-10.99l-1.43-.25v-1.12h3.16v12.36l1.43.25v1.11h-4.6Z"/>
          <path class="cls-2" d="m554.73,204.87v-1.11l1.43-.25v-6.79l-1.43-.25v-1.12h3.16v8.16l1.43.25v1.11h-4.6Zm1.2-11.32l1.62-2.39h2.02l.02.05-2.36,2.34h-1.29Z"/>
          <path class="cls-2" d="m560.52,204.87v-1.11l1.43-.25v-6.79l-1.43-.25v-1.12h2.98l.12,1.42c.32-.5.71-.9,1.19-1.17s1.02-.42,1.63-.42c1.03,0,1.82.3,2.38.9s.84,1.53.84,2.78v4.65l1.43.25v1.11h-4.6v-1.11l1.43-.25v-4.61c0-.84-.17-1.43-.5-1.79-.33-.35-.84-.53-1.52-.53-.5,0-.94.12-1.32.36s-.69.57-.92.98v5.58l1.43.25v1.11h-4.6Z"/>
          <path class="cls-2" d="m572.26,204.87v-1.11l1.43-.25v-6.79l-1.43-.25v-1.12h3.16v8.16l1.43.25v1.11h-4.6Zm1.34-11.86v-1.86h1.82v1.86h-1.82Z"/>
          <path class="cls-2" d="m582.35,205.05c-.86,0-1.61-.2-2.25-.6s-1.13-.96-1.49-1.67-.53-1.54-.53-2.48v-.37c0-.9.17-1.71.51-2.43s.83-1.28,1.47-1.7,1.4-.62,2.29-.62c.77,0,1.44.13,2.02.38s1.06.6,1.46,1.04l.04,2.29h-1.35l-.3-1.66c-.2-.21-.45-.37-.75-.49s-.65-.18-1.05-.18c-.52,0-.97.15-1.36.46-.39.3-.69.71-.91,1.22s-.33,1.08-.33,1.71v.37c0,.69.1,1.29.3,1.8.2.51.49.9.87,1.18.38.28.83.42,1.35.42.59,0,1.07-.16,1.46-.48s.62-.76.71-1.33h1.56l.02.05c-.03.54-.19,1.05-.48,1.53s-.71.86-1.25,1.15-1.21.44-2,.44Z"/>
          <path class="cls-2" d="m591.95,205.05c-.88,0-1.64-.21-2.27-.62s-1.13-.98-1.47-1.71-.52-1.56-.52-2.5v-.19c0-.94.17-1.77.52-2.5s.84-1.3,1.47-1.72,1.39-.62,2.25-.62,1.64.21,2.27.62c.63.42,1.13.99,1.47,1.71s.52,1.56.52,2.51v.19c0,.94-.17,1.78-.52,2.51s-.83,1.3-1.47,1.71-1.39.62-2.26.62Zm0-1.35c.55,0,1.01-.15,1.38-.45s.65-.71.84-1.24.29-1.12.29-1.79v-.19c0-.67-.1-1.26-.29-1.79s-.47-.94-.85-1.24-.84-.45-1.4-.45-1.01.15-1.39.45-.66.71-.84,1.24-.28,1.12-.28,1.79v.19c0,.67.09,1.26.28,1.79s.47.94.85,1.24c.38.3.84.45,1.4.45Z"/>
          <path class="cls-2" d="m605.74,205.05c-.77,0-1.44-.19-1.99-.58-.55-.38-.98-.92-1.27-1.6s-.44-1.49-.44-2.4v-.18c0-1.02.15-1.91.44-2.68s.72-1.36,1.27-1.79,1.22-.64,2-.64c.56,0,1.06.1,1.49.31.43.21.8.51,1.1.9v-3.88l-1.43-.25v-1.12h3.16v12.36l1.43.25v1.11h-2.94l-.14-1.13c-.31.43-.69.76-1.14.98-.45.22-.97.33-1.56.33Zm.44-1.41c.52,0,.95-.12,1.3-.35s.64-.57.87-.99v-4.41c-.22-.4-.51-.71-.87-.95s-.79-.35-1.28-.35c-.55,0-1,.16-1.36.47s-.62.75-.8,1.3-.26,1.2-.26,1.93v.18c0,.96.2,1.72.59,2.3s1,.87,1.82.87Z"/>
          <path class="cls-2" d="m617,205.05c-.88,0-1.64-.2-2.29-.6s-1.15-.96-1.51-1.67-.53-1.54-.53-2.48v-.39c0-.9.19-1.71.56-2.42.37-.71.87-1.27,1.48-1.69s1.29-.62,2.03-.62c.86,0,1.57.18,2.15.53.58.35,1.01.85,1.3,1.48s.44,1.38.44,2.25v1.08h-6.17l-.03.04c.01.61.12,1.15.32,1.62.2.47.49.84.87,1.11s.84.4,1.37.4c.59,0,1.1-.08,1.54-.25s.83-.4,1.15-.69l.68,1.12c-.34.33-.79.61-1.35.83s-1.23.34-2.02.34Zm-2.49-5.89h4.39v-.23c0-.46-.08-.87-.24-1.23-.16-.36-.4-.64-.72-.85-.32-.21-.72-.31-1.2-.31-.39,0-.74.11-1.05.34s-.58.53-.78.92-.34.83-.4,1.32l.02.04Z"/>
          <path class="cls-2" d="m626.62,204.87v-1.11l1.43-.25v-10.08l-1.43-.25v-1.12h3.74l4.12,9.71h.05l3.99-9.71h3.86v1.12l-1.43.25v10.08l1.43.25v1.11h-4.6v-1.11l1.51-.25v-9.08h-.04s-4.16,9.97-4.16,9.97h-1.15l-4.3-9.97h-.04s.06,5.36.06,5.36v3.71l1.55.25v1.11h-4.6Z"/>
          <path class="cls-2" d="m648.2,205.05c-.88,0-1.64-.2-2.29-.6s-1.15-.96-1.51-1.67-.53-1.54-.53-2.48v-.39c0-.9.19-1.71.56-2.42.37-.71.87-1.27,1.48-1.69s1.29-.62,2.03-.62c.86,0,1.57.18,2.15.53.58.35,1.01.85,1.3,1.48s.44,1.38.44,2.25v1.08h-6.17l-.03.04c.01.61.12,1.15.32,1.62.2.47.49.84.87,1.11s.84.4,1.37.4c.59,0,1.1-.08,1.54-.25s.83-.4,1.15-.69l.68,1.12c-.34.33-.79.61-1.35.83s-1.23.34-2.02.34Zm-2.49-5.89h4.39v-.23c0-.46-.08-.87-.24-1.23-.16-.36-.4-.64-.72-.85-.32-.21-.72-.31-1.2-.31-.39,0-.74.11-1.05.34s-.58.53-.78.92-.34.83-.4,1.32l.02.04Z"/>
          <path class="cls-2" d="m657.26,205.05c-.77,0-1.44-.19-1.99-.58-.55-.38-.98-.92-1.27-1.6s-.44-1.49-.44-2.4v-.18c0-1.02.15-1.91.44-2.68s.72-1.36,1.27-1.79,1.22-.64,2-.64c.56,0,1.06.1,1.49.31.43.21.8.51,1.1.9v-3.88l-1.43-.25v-1.12h3.16v12.36l1.43.25v1.11h-2.94l-.14-1.13c-.31.43-.69.76-1.14.98-.45.22-.97.33-1.56.33Zm.44-1.41c.52,0,.95-.12,1.3-.35s.64-.57.87-.99v-4.41c-.22-.4-.51-.71-.87-.95s-.79-.35-1.28-.35c-.55,0-1,.16-1.36.47s-.62.75-.8,1.3-.26,1.2-.26,1.93v.18c0,.96.2,1.72.59,2.3s1,.87,1.82.87Z"/>
          <path class="cls-2" d="m664.17,204.87v-1.11l1.43-.25v-6.79l-1.43-.25v-1.12h3.16v8.16l1.43.25v1.11h-4.6Zm1.34-11.86v-1.86h1.82v1.86h-1.82Z"/>
          <path class="cls-2" d="m674.26,205.05c-.86,0-1.61-.2-2.25-.6s-1.13-.96-1.49-1.67-.53-1.54-.53-2.48v-.37c0-.9.17-1.71.51-2.43s.83-1.28,1.47-1.7,1.4-.62,2.29-.62c.77,0,1.44.13,2.02.38s1.06.6,1.46,1.04l.04,2.29h-1.35l-.3-1.66c-.2-.21-.45-.37-.75-.49s-.65-.18-1.05-.18c-.52,0-.97.15-1.36.46-.39.3-.69.71-.91,1.22s-.33,1.08-.33,1.71v.37c0,.69.1,1.29.3,1.8.2.51.49.9.87,1.18.38.28.83.42,1.35.42.59,0,1.07-.16,1.46-.48s.62-.76.71-1.33h1.56l.02.05c-.03.54-.19,1.05-.48,1.53s-.71.86-1.25,1.15-1.21.44-2,.44Z"/>
          <path class="cls-2" d="m682.59,205.05c-.99,0-1.74-.24-2.26-.73s-.77-1.17-.77-2.04c0-.6.17-1.13.5-1.58.33-.45.81-.8,1.44-1.05s1.38-.37,2.25-.37h1.7v-.93c0-.57-.17-1.02-.52-1.34s-.84-.47-1.47-.47c-.4,0-.74.05-1.04.14s-.56.23-.8.4l-.18,1.33h-1.34v-2.18c.43-.35.93-.61,1.49-.79s1.2-.27,1.89-.27c1.15,0,2.06.28,2.72.83s.98,1.34.98,2.37v4.58c0,.12,0,.24,0,.36,0,.12,0,.23.02.35l.92.1v1.11h-2.49c-.05-.26-.09-.49-.12-.69s-.05-.41-.06-.62c-.33.43-.75.78-1.25,1.07-.5.28-1.04.43-1.6.43Zm.25-1.45c.57,0,1.1-.14,1.57-.41s.81-.61,1.02-.99v-1.72h-1.76c-.8,0-1.39.19-1.79.57s-.6.8-.6,1.27c0,.42.13.73.39.95s.65.33,1.17.33Z"/>
          <path class="cls-2" d="m689.46,204.87v-1.11l1.43-.25v-6.79l-1.43-.25v-1.12h2.99l.11,1.24c.3-.45.7-.8,1.18-1.05s1.04-.37,1.67-.37,1.18.15,1.63.44.8.73,1.02,1.32c.3-.54.69-.97,1.19-1.28s1.07-.47,1.72-.47c.97,0,1.74.33,2.3,1s.84,1.67.84,3v4.33l1.43.25v1.11h-4.61v-1.11l1.43-.25v-4.35c0-.94-.16-1.6-.48-1.99s-.8-.58-1.43-.58-1.09.21-1.46.64-.58.96-.64,1.6v4.68l1.43.25v1.11h-4.6v-1.11l1.43-.25v-4.35c0-.89-.17-1.54-.5-1.96s-.81-.62-1.44-.62c-.53,0-.96.11-1.3.33s-.6.52-.78.91v5.69l1.43.25v1.11h-4.6Z"/>
          <path class="cls-2" d="m711.04,205.05c-.88,0-1.64-.2-2.29-.6s-1.15-.96-1.51-1.67-.53-1.54-.53-2.48v-.39c0-.9.19-1.71.56-2.42.37-.71.87-1.27,1.48-1.69s1.29-.62,2.03-.62c.86,0,1.57.18,2.15.53.58.35,1.01.85,1.3,1.48s.44,1.38.44,2.25v1.08h-6.17l-.03.04c.01.61.12,1.15.32,1.62.2.47.49.84.87,1.11s.84.4,1.37.4c.59,0,1.1-.08,1.54-.25s.83-.4,1.15-.69l.68,1.12c-.34.33-.79.61-1.35.83s-1.23.34-2.02.34Zm-2.49-5.89h4.39v-.23c0-.46-.08-.87-.24-1.23-.16-.36-.4-.64-.72-.85-.32-.21-.72-.31-1.2-.31-.39,0-.74.11-1.05.34s-.58.53-.78.92-.34.83-.4,1.32l.02.04Z"/>
          <path class="cls-2" d="m716.02,204.87v-1.11l1.43-.25v-6.79l-1.43-.25v-1.12h2.98l.12,1.42c.32-.5.71-.9,1.19-1.17s1.02-.42,1.63-.42c1.03,0,1.82.3,2.38.9s.84,1.53.84,2.78v4.65l1.43.25v1.11h-4.6v-1.11l1.43-.25v-4.61c0-.84-.17-1.43-.5-1.79-.33-.35-.84-.53-1.52-.53-.5,0-.94.12-1.32.36s-.69.57-.92.98v5.58l1.43.25v1.11h-4.6Z"/>
          <path class="cls-2" d="m730.83,205.02c-.7,0-1.26-.21-1.67-.62-.41-.41-.62-1.07-.62-1.98v-5.78h-1.5v-1.28h1.5v-2.29h1.73v2.29h2.07v1.28h-2.07v5.78c0,.46.09.79.27,1.01s.42.33.73.33c.21,0,.43-.02.69-.06s.45-.07.59-.1l.24,1.13c-.25.08-.56.14-.93.2s-.71.09-1.02.09Z"/>
          <path class="cls-2" d="m738.01,205.05c-.88,0-1.64-.21-2.27-.62s-1.13-.98-1.47-1.71-.52-1.56-.52-2.5v-.19c0-.94.17-1.77.52-2.5s.84-1.3,1.47-1.72,1.39-.62,2.25-.62,1.64.21,2.27.62c.63.42,1.13.99,1.47,1.71s.52,1.56.52,2.51v.19c0,.94-.17,1.78-.52,2.51s-.83,1.3-1.47,1.71-1.39.62-2.26.62Zm0-1.35c.55,0,1.01-.15,1.38-.45s.65-.71.84-1.24.29-1.12.29-1.79v-.19c0-.67-.1-1.26-.29-1.79s-.47-.94-.85-1.24-.84-.45-1.4-.45-1.01.15-1.39.45-.66.71-.84,1.24-.28,1.12-.28,1.79v.19c0,.67.09,1.26.28,1.79s.47.94.85,1.24c.38.3.84.45,1.4.45Z"/>
        </g>
      </g>
      <g>
        <rect class="cls-8" x="968" y="397" width="280" height="200" rx="8" ry="8"/>
        <g>
          <path class="cls-5" d="m996.53,452.87v-1.48l1.91-.33v-13.44l-1.91-.33v-1.49h6.68c1.51,0,2.82.36,3.94,1.08s1.99,1.71,2.62,2.96.94,2.7.94,4.31v.36c0,1.58-.3,3-.9,4.26s-1.46,2.26-2.56,2.99-2.41,1.1-3.92,1.1h-6.8Zm4.22-1.8h2.46c1.08,0,2-.29,2.78-.88s1.37-1.38,1.79-2.37.63-2.08.63-3.29v-.39c0-1.24-.21-2.35-.63-3.33s-1.01-1.76-1.79-2.33-1.7-.86-2.78-.86h-2.46v13.44Z"/>
          <path class="cls-5" d="m1018.07,453.11c-1.17,0-2.18-.28-3.03-.83s-1.5-1.31-1.96-2.29-.69-2.08-.69-3.33v-.26c0-1.25.23-2.36.69-3.33s1.12-1.74,1.96-2.29,1.85-.83,3.01-.83,2.18.28,3.03.83,1.5,1.32,1.96,2.29.69,2.08.69,3.34v.26c0,1.26-.23,2.37-.69,3.35s-1.11,1.73-1.96,2.28-1.85.82-3.01.82Zm0-1.8c.73,0,1.35-.2,1.85-.6s.87-.95,1.12-1.65.38-1.49.38-2.38v-.26c0-.89-.13-1.69-.38-2.38s-.63-1.25-1.13-1.65-1.12-.6-1.86-.6-1.35.2-1.85.6-.88.95-1.12,1.65-.38,1.49-.38,2.38v.26c0,.89.12,1.69.38,2.38s.63,1.25,1.13,1.65,1.13.6,1.87.6Z"/>
          <path class="cls-5" d="m1030.64,453.11c-.85,0-1.65-.09-2.39-.26s-1.53-.44-2.37-.8l-.02-3.01h1.75l.43,1.82c.44.18.86.31,1.27.39s.85.12,1.33.12c.94,0,1.61-.18,2.02-.54s.61-.8.61-1.34c0-.5-.21-.92-.62-1.27s-1.15-.64-2.23-.88c-1.53-.35-2.66-.82-3.38-1.41s-1.08-1.38-1.08-2.36c0-.69.2-1.3.6-1.85s.95-.97,1.66-1.29,1.54-.48,2.48-.48,1.78.11,2.47.33,1.28.51,1.79.88l.12,2.89h-1.73l-.38-1.69c-.27-.2-.6-.36-.97-.47s-.8-.16-1.29-.16c-.72,0-1.3.17-1.75.5s-.67.76-.67,1.27c0,.3.06.55.19.77s.38.42.74.59.91.35,1.62.52c1.77.41,3,.94,3.7,1.58s1.05,1.43,1.05,2.37c0,1.07-.4,1.97-1.19,2.69s-2.04,1.08-3.74,1.08Z"/>
          <path class="cls-5" d="m1042.62,453.11c-.85,0-1.65-.09-2.39-.26s-1.53-.44-2.37-.8l-.02-3.01h1.75l.43,1.82c.44.18.86.31,1.27.39s.85.12,1.33.12c.94,0,1.61-.18,2.02-.54s.61-.8.61-1.34c0-.5-.21-.92-.62-1.27s-1.15-.64-2.23-.88c-1.53-.35-2.66-.82-3.38-1.41s-1.08-1.38-1.08-2.36c0-.69.2-1.3.6-1.85s.95-.97,1.66-1.29,1.54-.48,2.48-.48,1.78.11,2.47.33,1.28.51,1.79.88l.12,2.89h-1.73l-.38-1.69c-.27-.2-.6-.36-.97-.47s-.8-.16-1.29-.16c-.72,0-1.3.17-1.75.5s-.67.76-.67,1.27c0,.3.06.55.19.77s.38.42.74.59.91.35,1.62.52c1.77.41,3,.94,3.7,1.58s1.05,1.43,1.05,2.37c0,1.07-.4,1.97-1.19,2.69s-2.04,1.08-3.74,1.08Z"/>
          <path class="cls-5" d="m1049.38,452.87v-1.48l1.91-.33v-9.06l-1.91-.33v-1.49h4.22v10.88l1.91.33v1.48h-6.13Zm1.79-15.81v-2.47h2.43v2.47h-2.43Z"/>
          <path class="cls-5" d="m1062.88,453.11c-1.17,0-2.19-.27-3.06-.8s-1.54-1.28-2.01-2.23-.71-2.05-.71-3.3v-.52c0-1.2.25-2.28.74-3.23s1.16-1.7,1.98-2.25,1.72-.83,2.7-.83c1.14,0,2.1.23,2.87.7s1.35,1.13,1.74,1.97.59,1.85.59,2.99v1.44h-8.23l-.04.06c.02.81.16,1.53.43,2.16s.66,1.12,1.17,1.48,1.12.54,1.83.54c.78,0,1.47-.11,2.06-.33s1.1-.53,1.53-.92l.9,1.5c-.45.44-1.05.81-1.8,1.11s-1.64.45-2.69.45Zm-3.96-15.45v-.3l2.88-2.78h1.39l2.91,2.79v.29h-1.89l-1.72-1.73-1.7,1.73h-1.88Zm.64,7.59h5.85v-.3c0-.61-.11-1.15-.32-1.63s-.54-.86-.96-1.14-.96-.42-1.6-.42c-.52,0-.98.15-1.41.45s-.77.71-1.04,1.22-.45,1.1-.54,1.76l.02.06Z"/>
          <path class="cls-5" d="m1081.26,453.11c-1.17,0-2.19-.27-3.06-.8s-1.54-1.28-2.01-2.23-.71-2.05-.71-3.3v-.52c0-1.2.25-2.28.74-3.23s1.16-1.7,1.98-2.25,1.72-.83,2.7-.83c1.14,0,2.1.23,2.87.7s1.35,1.13,1.74,1.97.59,1.85.59,2.99v1.44h-8.23l-.04.06c.02.81.16,1.53.43,2.16s.66,1.12,1.17,1.48,1.12.54,1.83.54c.78,0,1.47-.11,2.06-.33s1.1-.53,1.53-.92l.9,1.5c-.45.44-1.05.81-1.8,1.11s-1.64.45-2.69.45Zm-3.32-7.85h5.85v-.3c0-.61-.11-1.15-.32-1.63s-.54-.86-.96-1.14-.96-.42-1.6-.42c-.52,0-.98.15-1.41.45s-.77.71-1.04,1.22-.45,1.1-.54,1.76l.02.06Z"/>
          <path class="cls-5" d="m1093.08,453.11c-.85,0-1.65-.09-2.39-.26s-1.53-.44-2.37-.8l-.02-3.01h1.75l.43,1.82c.44.18.86.31,1.27.39s.85.12,1.33.12c.94,0,1.61-.18,2.02-.54s.61-.8.61-1.34c0-.5-.21-.92-.62-1.27s-1.15-.64-2.23-.88c-1.53-.35-2.66-.82-3.38-1.41s-1.08-1.38-1.08-2.36c0-.69.2-1.3.6-1.85s.95-.97,1.66-1.29,1.54-.48,2.48-.48,1.78.11,2.47.33,1.28.51,1.79.88l.12,2.89h-1.73l-.38-1.69c-.27-.2-.6-.36-.97-.47s-.8-.16-1.29-.16c-.72,0-1.3.17-1.75.5s-.67.76-.67,1.27c0,.3.06.55.19.77s.38.42.74.59.91.35,1.62.52c1.77.41,3,.94,3.7,1.58s1.05,1.43,1.05,2.37c0,1.07-.4,1.97-1.19,2.69s-2.04,1.08-3.74,1.08Z"/>
          <path class="cls-5" d="m1099.57,457.74v-1.49l1.79-.33v-13.92l-1.91-.33v-1.49h3.89l.21,1.55c.42-.58.94-1.02,1.54-1.32s1.31-.46,2.1-.46c1.05,0,1.94.28,2.68.85s1.31,1.36,1.7,2.38.59,2.21.59,3.58v.25c0,1.22-.2,2.29-.59,3.2s-.96,1.63-1.69,2.14-1.62.77-2.65.77c-.78,0-1.47-.13-2.06-.39s-1.09-.65-1.51-1.17v4.37l2.02.33v1.49h-6.12Zm6.95-6.43c1.09,0,1.92-.4,2.48-1.2s.84-1.83.84-3.11v-.25c0-.97-.12-1.82-.38-2.56s-.62-1.32-1.12-1.74-1.12-.63-1.86-.63c-.66,0-1.22.15-1.69.45s-.85.7-1.14,1.22v6.18c.29.52.67.93,1.13,1.21s1.04.43,1.72.43Z"/>
          <path class="cls-5" d="m1120.2,453.11c-1.17,0-2.19-.27-3.06-.8s-1.54-1.28-2.01-2.23-.71-2.05-.71-3.3v-.52c0-1.2.25-2.28.74-3.23s1.16-1.7,1.98-2.25,1.72-.83,2.7-.83c1.14,0,2.1.23,2.87.7s1.35,1.13,1.74,1.97.59,1.85.59,2.99v1.44h-8.23l-.04.06c.02.81.16,1.53.43,2.16s.66,1.12,1.17,1.48,1.12.54,1.83.54c.78,0,1.47-.11,2.06-.33s1.1-.53,1.53-.92l.9,1.5c-.45.44-1.05.81-1.8,1.11s-1.64.45-2.69.45Zm-3.32-7.85h5.85v-.3c0-.61-.11-1.15-.32-1.63s-.54-.86-.96-1.14-.96-.42-1.6-.42c-.52,0-.98.15-1.41.45s-.77.71-1.04,1.22-.45,1.1-.54,1.76l.02.06Z"/>
          <path class="cls-5" d="m1133.03,453.11c-1.15,0-2.15-.27-3-.8s-1.51-1.28-1.98-2.23-.7-2.05-.7-3.3v-.49c0-1.2.23-2.28.68-3.23s1.11-1.71,1.96-2.26,1.87-.83,3.05-.83c1.02,0,1.92.17,2.69.5s1.42.8,1.94,1.38l.06,3.05h-1.8l-.4-2.21c-.27-.27-.6-.49-1-.66s-.87-.25-1.41-.25c-.69,0-1.29.2-1.81.61s-.92.95-1.21,1.63-.43,1.44-.43,2.27v.49c0,.92.13,1.72.4,2.4s.66,1.21,1.16,1.58,1.1.56,1.8.56c.78,0,1.43-.21,1.95-.64s.83-1.02.95-1.77h2.07l.02.07c-.04.73-.25,1.41-.64,2.04s-.95,1.14-1.67,1.53-1.61.58-2.67.58Z"/>
          <path class="cls-5" d="m1139.72,452.87v-1.48l1.91-.33v-9.06l-1.91-.33v-1.49h4.22v10.88l1.91.33v1.48h-6.13Zm1.59-15.09l2.16-3.19h2.7l.02.07-3.15,3.12h-1.72Z"/>
          <path class="cls-5" d="m1147.18,452.87v-1.48l1.91-.33v-9.16h-1.98v-1.71h1.98v-1.37c0-1.42.42-2.52,1.25-3.3s1.99-1.17,3.47-1.17c.52,0,1.03.06,1.55.19s1.11.3,1.78.53l-.39,1.88c-.41-.16-.86-.3-1.32-.42s-.95-.18-1.44-.18c-.92,0-1.58.2-1.99.61s-.6,1.03-.6,1.88v1.37h7.23v10.88l1.91.33v1.48h-6.13v-1.48l1.91-.33v-9.16h-4.92v9.16l1.91.33v1.48h-6.13Z"/>
          <path class="cls-5" d="m1167.7,453.11c-1.15,0-2.15-.27-3-.8s-1.51-1.28-1.98-2.23-.7-2.05-.7-3.3v-.49c0-1.2.23-2.28.68-3.23s1.11-1.71,1.96-2.26,1.87-.83,3.05-.83c1.02,0,1.92.17,2.69.5s1.42.8,1.94,1.38l.06,3.05h-1.8l-.4-2.21c-.27-.27-.6-.49-1-.66s-.87-.25-1.41-.25c-.69,0-1.29.2-1.81.61s-.92.95-1.21,1.63-.43,1.44-.43,2.27v.49c0,.92.13,1.72.4,2.4s.66,1.21,1.16,1.58,1.1.56,1.8.56c.78,0,1.43-.21,1.95-.64s.83-1.02.95-1.77h2.07l.02.07c-.04.73-.25,1.41-.64,2.04s-.95,1.14-1.67,1.53-1.61.58-2.67.58Z"/>
          <path class="cls-5" d="m1180.49,453.11c-1.17,0-2.18-.28-3.03-.83s-1.5-1.31-1.96-2.29-.69-2.08-.69-3.33v-.26c0-1.25.23-2.36.69-3.33s1.12-1.74,1.96-2.29,1.85-.83,3.01-.83,2.18.28,3.03.83,1.5,1.32,1.96,2.29.69,2.08.69,3.34v.26c0,1.26-.23,2.37-.69,3.35s-1.11,1.73-1.96,2.28-1.85.82-3.01.82Zm0-1.8c.73,0,1.35-.2,1.85-.6s.87-.95,1.12-1.65.38-1.49.38-2.38v-.26c0-.89-.13-1.69-.38-2.38s-.63-1.25-1.13-1.65-1.12-.6-1.86-.6-1.35.2-1.85.6-.88.95-1.12,1.65-.38,1.49-.38,2.38v.26c0,.89.12,1.69.38,2.38s.63,1.25,1.13,1.65,1.13.6,1.87.6Z"/>
          <path class="cls-5" d="m1198.88,453.11c-1.03,0-1.92-.26-2.65-.77s-1.3-1.22-1.69-2.14-.59-1.98-.59-3.2v-.25c0-1.36.2-2.55.59-3.57s.96-1.82,1.7-2.38,1.63-.85,2.67-.85c.75,0,1.41.14,1.99.42s1.06.68,1.47,1.2v-5.17l-1.91-.33v-1.49h4.22v16.48l1.91.33v1.48h-3.91l-.19-1.51c-.41.58-.92,1.02-1.52,1.31s-1.29.45-2.08.45Zm.59-1.88c.69,0,1.27-.16,1.73-.47s.86-.75,1.16-1.32v-5.88c-.3-.53-.68-.95-1.16-1.27s-1.05-.47-1.71-.47c-.73,0-1.34.21-1.82.63s-.83,1-1.07,1.73-.35,1.6-.35,2.57v.25c0,1.27.26,2.3.79,3.07s1.33,1.16,2.43,1.16Z"/>
          <path class="cls-5" d="m1213.84,453.11c-1.17,0-2.18-.28-3.03-.83s-1.5-1.31-1.96-2.29-.69-2.08-.69-3.33v-.26c0-1.25.23-2.36.69-3.33s1.12-1.74,1.96-2.29,1.85-.83,3.01-.83,2.18.28,3.03.83,1.5,1.32,1.96,2.29.69,2.08.69,3.34v.26c0,1.26-.23,2.37-.69,3.35s-1.11,1.73-1.96,2.28-1.85.82-3.01.82Zm0-1.8c.73,0,1.35-.2,1.85-.6s.87-.95,1.12-1.65.38-1.49.38-2.38v-.26c0-.89-.13-1.69-.38-2.38s-.63-1.25-1.13-1.65-1.12-.6-1.86-.6-1.35.2-1.85.6-.88.95-1.12,1.65-.38,1.49-.38,2.38v.26c0,.89.12,1.69.38,2.38s.63,1.25,1.13,1.65,1.13.6,1.87.6Z"/>
          <path class="cls-5" d="m1035.99,481.91c-1.17,0-2.19-.27-3.06-.8s-1.54-1.28-2.01-2.23-.71-2.05-.71-3.3v-.52c0-1.2.25-2.28.74-3.23s1.16-1.7,1.98-2.25,1.72-.83,2.7-.83c1.14,0,2.1.23,2.87.7s1.35,1.13,1.74,1.97.59,1.85.59,2.99v1.44h-8.23l-.04.06c.02.81.16,1.53.43,2.16s.66,1.12,1.17,1.48,1.12.54,1.83.54c.78,0,1.47-.11,2.06-.33s1.1-.53,1.53-.92l.9,1.5c-.45.44-1.05.81-1.8,1.11s-1.64.45-2.69.45Zm-3.32-7.85h5.85v-.3c0-.61-.11-1.15-.32-1.63s-.54-.86-.96-1.14-.96-.42-1.6-.42c-.52,0-.98.15-1.41.45s-.77.71-1.04,1.22-.45,1.1-.54,1.76l.02.06Z"/>
          <path class="cls-5" d="m1042.62,481.67v-1.48l1.91-.33v-9.06l-1.91-.33v-1.49h3.97l.16,1.89c.42-.67.95-1.19,1.59-1.56s1.36-.56,2.17-.56c1.37,0,2.43.4,3.18,1.2s1.12,2.04,1.12,3.71v6.2l1.91.33v1.48h-6.13v-1.48l1.91-.33v-6.15c0-1.12-.22-1.91-.66-2.38s-1.12-.7-2.02-.7c-.66,0-1.25.16-1.76.48s-.92.76-1.22,1.31v7.44l1.91.33v1.48h-6.13Z"/>
          <path class="cls-5" d="m1063.49,481.91c-.85,0-1.65-.09-2.39-.26s-1.53-.44-2.37-.8l-.02-3.01h1.75l.43,1.82c.44.18.86.31,1.27.39s.85.12,1.33.12c.94,0,1.61-.18,2.02-.54s.61-.8.61-1.34c0-.5-.21-.92-.62-1.27s-1.15-.64-2.23-.88c-1.53-.35-2.66-.82-3.38-1.41s-1.08-1.38-1.08-2.36c0-.69.2-1.3.6-1.85s.95-.97,1.66-1.29,1.54-.48,2.48-.48,1.78.11,2.47.33,1.28.51,1.79.88l.12,2.89h-1.73l-.38-1.69c-.27-.2-.6-.36-.97-.47s-.8-.16-1.29-.16c-.72,0-1.3.17-1.75.5s-.67.76-.67,1.27c0,.3.06.55.19.77s.38.42.74.59.91.35,1.62.52c1.77.41,3,.94,3.7,1.58s1.05,1.43,1.05,2.37c0,1.07-.4,1.97-1.19,2.69s-2.04,1.08-3.74,1.08Z"/>
          <path class="cls-5" d="m1074.44,481.91c-1.32,0-2.32-.32-3.01-.97s-1.03-1.55-1.03-2.72c0-.8.22-1.51.66-2.1s1.08-1.06,1.92-1.39,1.84-.5,3-.5h2.26v-1.24c0-.77-.23-1.36-.7-1.78s-1.12-.63-1.96-.63c-.53,0-.99.06-1.38.19s-.75.31-1.07.53l-.25,1.77h-1.78v-2.91c.57-.46,1.23-.81,1.99-1.05s1.6-.36,2.52-.36c1.54,0,2.75.37,3.62,1.1s1.31,1.79,1.31,3.15v6.11c0,.16,0,.32,0,.48s.01.31.03.47l1.23.13v1.48h-3.32c-.07-.34-.12-.65-.16-.93s-.07-.55-.08-.82c-.45.57-1,1.04-1.67,1.42s-1.38.57-2.14.57Zm.34-1.93c.77,0,1.46-.18,2.1-.55s1.09-.81,1.36-1.32v-2.3h-2.34c-1.06,0-1.86.25-2.39.76s-.8,1.07-.8,1.7c0,.55.17.98.52,1.27s.86.44,1.56.44Z"/>
          <path class="cls-5" d="m1083.52,481.67v-1.48l1.91-.33v-9.06l-1.91-.33v-1.49h4.22v10.88l1.91.33v1.48h-6.13Zm1.79-15.81v-2.47h2.43v2.47h-2.43Z"/>
          <path class="cls-5" d="m1096.97,481.91c-1.17,0-2.18-.28-3.03-.83s-1.5-1.31-1.96-2.29-.69-2.08-.69-3.33v-.26c0-1.25.23-2.36.69-3.33s1.12-1.74,1.96-2.29,1.85-.83,3.01-.83,2.18.28,3.03.83,1.5,1.32,1.96,2.29.69,2.08.69,3.34v.26c0,1.26-.23,2.37-.69,3.35s-1.11,1.73-1.96,2.28-1.85.82-3.01.82Zm0-1.8c.73,0,1.35-.2,1.85-.6s.87-.95,1.12-1.65.38-1.49.38-2.38v-.26c0-.89-.13-1.69-.38-2.38s-.63-1.25-1.13-1.65-1.12-.6-1.86-.6-1.35.2-1.85.6-.88.95-1.12,1.65-.38,1.49-.38,2.38v.26c0,.89.12,1.69.38,2.38s.63,1.25,1.13,1.65,1.13.6,1.87.6Z"/>
          <path class="cls-5" d="m1116.11,481.91c-1.15,0-2.15-.27-3-.8s-1.51-1.28-1.98-2.23-.7-2.05-.7-3.3v-.49c0-1.2.23-2.28.68-3.23s1.11-1.71,1.96-2.26,1.87-.83,3.05-.83c1.02,0,1.92.17,2.69.5s1.42.8,1.94,1.38l.06,3.05h-1.8l-.4-2.21c-.27-.27-.6-.49-1-.66s-.87-.25-1.41-.25c-.69,0-1.29.2-1.81.61s-.92.95-1.21,1.63-.43,1.44-.43,2.27v.49c0,.92.13,1.72.4,2.4s.66,1.21,1.16,1.58,1.1.56,1.8.56c.78,0,1.43-.21,1.95-.64s.83-1.02.95-1.77h2.07l.02.07c-.04.73-.25,1.41-.64,2.04s-.95,1.14-1.67,1.53-1.61.58-2.67.58Z"/>
          <path class="cls-5" d="m1122.77,481.67v-1.48l1.91-.33v-14.66l-1.91-.33v-1.49h4.22v16.48l1.91.33v1.48h-6.13Z"/>
          <path class="cls-5" d="m1130.45,481.67v-1.48l1.91-.33v-9.06l-1.91-.33v-1.49h4.22v10.88l1.91.33v1.48h-6.13Zm1.59-15.09l2.16-3.19h2.7l.02.07-3.15,3.12h-1.72Z"/>
          <path class="cls-5" d="m1138.18,481.67v-1.48l1.91-.33v-9.06l-1.91-.33v-1.49h3.97l.16,1.89c.42-.67.95-1.19,1.59-1.56s1.36-.56,2.17-.56c1.37,0,2.43.4,3.18,1.2s1.12,2.04,1.12,3.71v6.2l1.91.33v1.48h-6.13v-1.48l1.91-.33v-6.15c0-1.12-.22-1.91-.66-2.38s-1.12-.7-2.02-.7c-.66,0-1.25.16-1.76.48s-.92.76-1.22,1.31v7.44l1.91.33v1.48h-6.13Z"/>
          <path class="cls-5" d="m1153.83,481.67v-1.48l1.91-.33v-9.06l-1.91-.33v-1.49h4.22v10.88l1.91.33v1.48h-6.13Zm1.79-15.81v-2.47h2.43v2.47h-2.43Z"/>
          <path class="cls-5" d="m1167.29,481.91c-1.15,0-2.15-.27-3-.8s-1.51-1.28-1.98-2.23-.7-2.05-.7-3.3v-.49c0-1.2.23-2.28.68-3.23s1.11-1.71,1.96-2.26,1.87-.83,3.05-.83c1.02,0,1.92.17,2.69.5s1.42.8,1.94,1.38l.06,3.05h-1.8l-.4-2.21c-.27-.27-.6-.49-1-.66s-.87-.25-1.41-.25c-.69,0-1.29.2-1.81.61s-.92.95-1.21,1.63-.43,1.44-.43,2.27v.49c0,.92.13,1.72.4,2.4s.66,1.21,1.16,1.58,1.1.56,1.8.56c.78,0,1.43-.21,1.95-.64s.83-1.02.95-1.77h2.07l.02.07c-.04.73-.25,1.41-.64,2.04s-.95,1.14-1.67,1.53-1.61.58-2.67.58Z"/>
          <path class="cls-5" d="m1180.08,481.91c-1.17,0-2.18-.28-3.03-.83s-1.5-1.31-1.96-2.29-.69-2.08-.69-3.33v-.26c0-1.25.23-2.36.69-3.33s1.12-1.74,1.96-2.29,1.85-.83,3.01-.83,2.18.28,3.03.83,1.5,1.32,1.96,2.29.69,2.08.69,3.34v.26c0,1.26-.23,2.37-.69,3.35s-1.11,1.73-1.96,2.28-1.85.82-3.01.82Zm0-1.8c.73,0,1.35-.2,1.85-.6s.87-.95,1.12-1.65.38-1.49.38-2.38v-.26c0-.89-.13-1.69-.38-2.38s-.63-1.25-1.13-1.65-1.12-.6-1.86-.6-1.35.2-1.85.6-.88.95-1.12,1.65-.38,1.49-.38,2.38v.26c0,.89.12,1.69.38,2.38s.63,1.25,1.13,1.65,1.13.6,1.87.6Z"/>
        </g>
      </g>
      <g>
        <rect class="cls-4" x="652" y="397" width="280" height="200" rx="8" ry="8"/>
        <g>
          <path class="cls-5" d="m739.74,438.47v-1.48l1.91-.33v-13.44l-1.91-.33v-1.49h6.68c1.51,0,2.82.36,3.94,1.08s1.99,1.71,2.62,2.96.94,2.7.94,4.31v.36c0,1.58-.3,3-.9,4.26s-1.46,2.26-2.56,2.99-2.41,1.1-3.92,1.1h-6.8Zm4.22-1.8h2.46c1.08,0,2-.29,2.78-.88s1.37-1.38,1.79-2.37.63-2.08.63-3.29v-.39c0-1.24-.21-2.35-.63-3.33s-1.01-1.76-1.79-2.33-1.7-.86-2.78-.86h-2.46v13.44Z"/>
          <path class="cls-5" d="m761.28,438.71c-1.17,0-2.18-.28-3.03-.83s-1.5-1.31-1.96-2.29-.69-2.08-.69-3.33v-.26c0-1.25.23-2.36.69-3.33s1.12-1.74,1.96-2.29,1.85-.83,3.01-.83,2.18.28,3.03.83,1.5,1.32,1.96,2.29.69,2.08.69,3.34v.26c0,1.26-.23,2.37-.69,3.35s-1.11,1.73-1.96,2.28-1.85.82-3.01.82Zm0-1.8c.73,0,1.35-.2,1.85-.6s.87-.95,1.12-1.65.38-1.49.38-2.38v-.26c0-.89-.13-1.69-.38-2.38s-.63-1.25-1.13-1.65-1.12-.6-1.86-.6-1.35.2-1.85.6-.88.95-1.12,1.65-.38,1.49-.38,2.38v.26c0,.89.12,1.69.38,2.38s.63,1.25,1.13,1.65,1.13.6,1.87.6Z"/>
          <path class="cls-5" d="m773.85,438.71c-.85,0-1.65-.09-2.39-.26s-1.53-.44-2.37-.8l-.02-3.01h1.75l.43,1.82c.44.18.86.31,1.27.39s.85.12,1.33.12c.94,0,1.61-.18,2.02-.54s.61-.8.61-1.34c0-.5-.21-.92-.62-1.27s-1.15-.64-2.23-.88c-1.53-.35-2.66-.82-3.38-1.41s-1.08-1.38-1.08-2.36c0-.69.2-1.3.6-1.85s.95-.97,1.66-1.29,1.54-.48,2.48-.48,1.78.11,2.47.33,1.28.51,1.79.88l.12,2.89h-1.73l-.38-1.69c-.27-.2-.6-.36-.97-.47s-.8-.16-1.29-.16c-.72,0-1.3.17-1.75.5s-.67.76-.67,1.27c0,.3.06.55.19.77s.38.42.74.59.91.35,1.62.52c1.77.41,3,.94,3.7,1.58s1.05,1.43,1.05,2.37c0,1.07-.4,1.97-1.19,2.69s-2.04,1.08-3.74,1.08Z"/>
          <path class="cls-5" d="m785.83,438.71c-.85,0-1.65-.09-2.39-.26s-1.53-.44-2.37-.8l-.02-3.01h1.75l.43,1.82c.44.18.86.31,1.27.39s.85.12,1.33.12c.94,0,1.61-.18,2.02-.54s.61-.8.61-1.34c0-.5-.21-.92-.62-1.27s-1.15-.64-2.23-.88c-1.53-.35-2.66-.82-3.38-1.41s-1.08-1.38-1.08-2.36c0-.69.2-1.3.6-1.85s.95-.97,1.66-1.29,1.54-.48,2.48-.48,1.78.11,2.47.33,1.28.51,1.79.88l.12,2.89h-1.73l-.38-1.69c-.27-.2-.6-.36-.97-.47s-.8-.16-1.29-.16c-.72,0-1.3.17-1.75.5s-.67.76-.67,1.27c0,.3.06.55.19.77s.38.42.74.59.91.35,1.62.52c1.77.41,3,.94,3.7,1.58s1.05,1.43,1.05,2.37c0,1.07-.4,1.97-1.19,2.69s-2.04,1.08-3.74,1.08Z"/>
          <path class="cls-5" d="m792.59,438.47v-1.48l1.91-.33v-9.06l-1.91-.33v-1.49h4.22v10.88l1.91.33v1.48h-6.13Zm1.79-15.81v-2.47h2.43v2.47h-2.43Z"/>
          <path class="cls-5" d="m806.09,438.71c-1.17,0-2.19-.27-3.06-.8s-1.54-1.28-2.01-2.23-.71-2.05-.71-3.3v-.52c0-1.2.25-2.28.74-3.23s1.16-1.7,1.98-2.25,1.72-.83,2.7-.83c1.14,0,2.1.23,2.87.7s1.35,1.13,1.74,1.97.59,1.85.59,2.99v1.44h-8.23l-.04.06c.02.81.16,1.53.43,2.16s.66,1.12,1.17,1.48,1.12.54,1.83.54c.78,0,1.47-.11,2.06-.33s1.1-.53,1.53-.92l.9,1.5c-.45.44-1.05.81-1.8,1.11s-1.64.45-2.69.45Zm-3.96-15.45v-.3l2.88-2.78h1.39l2.91,2.79v.29h-1.89l-1.72-1.73-1.7,1.73h-1.88Zm.64,7.59h5.85v-.3c0-.61-.11-1.15-.32-1.63s-.54-.86-.96-1.14-.96-.42-1.6-.42c-.52,0-.98.15-1.41.45s-.77.71-1.04,1.22-.45,1.1-.54,1.76l.02.06Z"/>
          <path class="cls-5" d="m823.67,438.71c-1.03,0-1.92-.26-2.65-.77s-1.3-1.22-1.69-2.14-.59-1.98-.59-3.2v-.25c0-1.36.2-2.55.59-3.57s.96-1.82,1.7-2.38,1.63-.85,2.67-.85c.75,0,1.41.14,1.99.42s1.06.68,1.47,1.2v-5.17l-1.91-.33v-1.49h4.22v16.48l1.91.33v1.48h-3.91l-.19-1.51c-.41.58-.92,1.02-1.52,1.31s-1.29.45-2.08.45Zm.59-1.88c.69,0,1.27-.16,1.73-.47s.86-.75,1.16-1.32v-5.88c-.3-.53-.68-.95-1.16-1.27s-1.05-.47-1.71-.47c-.73,0-1.34.21-1.82.63s-.83,1-1.07,1.73-.35,1.6-.35,2.57v.25c0,1.27.26,2.3.79,3.07s1.33,1.16,2.43,1.16Z"/>
          <path class="cls-5" d="m838.63,438.71c-1.17,0-2.18-.28-3.03-.83s-1.5-1.31-1.96-2.29-.69-2.08-.69-3.33v-.26c0-1.25.23-2.36.69-3.33s1.12-1.74,1.96-2.29,1.85-.83,3.01-.83,2.18.28,3.03.83,1.5,1.32,1.96,2.29.69,2.08.69,3.34v.26c0,1.26-.23,2.37-.69,3.35s-1.11,1.73-1.96,2.28-1.85.82-3.01.82Zm0-1.8c.73,0,1.35-.2,1.85-.6s.87-.95,1.12-1.65.38-1.49.38-2.38v-.26c0-.89-.13-1.69-.38-2.38s-.63-1.25-1.13-1.65-1.12-.6-1.86-.6-1.35.2-1.85.6-.88.95-1.12,1.65-.38,1.49-.38,2.38v.26c0,.89.12,1.69.38,2.38s.63,1.25,1.13,1.65,1.13.6,1.87.6Z"/>
          <path class="cls-5" d="m714.89,467.27v-1.48l1.91-.33v-9.06l-1.91-.33v-1.49h3.98l.15,1.65c.41-.6.93-1.07,1.57-1.39s1.38-.49,2.23-.49,1.57.2,2.17.59,1.06.98,1.37,1.76c.4-.72.93-1.29,1.58-1.71s1.42-.63,2.3-.63c1.3,0,2.32.44,3.07,1.33s1.12,2.22,1.12,4v5.78l1.91.33v1.48h-6.14v-1.48l1.91-.33v-5.8c0-1.25-.21-2.13-.64-2.65s-1.07-.78-1.91-.78-1.45.28-1.94.85-.77,1.28-.85,2.14v6.25l1.91.33v1.48h-6.13v-1.48l1.91-.33v-5.8c0-1.19-.22-2.06-.66-2.61s-1.08-.83-1.92-.83c-.7,0-1.28.14-1.73.43s-.8.7-1.04,1.22v7.58l1.91.33v1.48h-6.13Z"/>
          <path class="cls-5" d="m743.66,467.51c-1.17,0-2.19-.27-3.06-.8s-1.54-1.28-2.01-2.23-.71-2.05-.71-3.3v-.52c0-1.2.25-2.28.74-3.23s1.16-1.7,1.98-2.25,1.72-.83,2.7-.83c1.14,0,2.1.23,2.87.7s1.35,1.13,1.74,1.97.59,1.85.59,2.99v1.44h-8.23l-.04.06c.02.81.16,1.53.43,2.16s.66,1.12,1.17,1.48,1.12.54,1.83.54c.78,0,1.47-.11,2.06-.33s1.1-.53,1.53-.92l.9,1.5c-.45.44-1.05.81-1.8,1.11s-1.64.45-2.69.45Zm-3.32-7.85h5.85v-.3c0-.61-.11-1.15-.32-1.63s-.54-.86-.96-1.14-.96-.42-1.6-.42c-.52,0-.98.15-1.41.45s-.77.71-1.04,1.22-.45,1.1-.54,1.76l.02.06Z"/>
          <path class="cls-5" d="m755.74,467.51c-1.03,0-1.92-.26-2.65-.77s-1.3-1.22-1.69-2.14-.59-1.98-.59-3.2v-.25c0-1.36.2-2.55.59-3.57s.96-1.82,1.7-2.38,1.63-.85,2.67-.85c.75,0,1.41.14,1.99.42s1.06.68,1.47,1.2v-5.17l-1.91-.33v-1.49h4.22v16.48l1.91.33v1.48h-3.91l-.19-1.51c-.41.58-.92,1.02-1.52,1.31s-1.29.45-2.08.45Zm.59-1.88c.69,0,1.27-.16,1.73-.47s.86-.75,1.16-1.32v-5.88c-.3-.53-.68-.95-1.16-1.27s-1.05-.47-1.71-.47c-.73,0-1.34.21-1.82.63s-.83,1-1.07,1.73-.35,1.6-.35,2.57v.25c0,1.27.26,2.3.79,3.07s1.33,1.16,2.43,1.16Z"/>
          <path class="cls-5" d="m764.95,467.27v-1.48l1.91-.33v-9.06l-1.91-.33v-1.49h4.22v10.88l1.91.33v1.48h-6.13Zm1.79-15.81v-2.47h2.43v2.47h-2.43Z"/>
          <path class="cls-5" d="m778.41,467.51c-1.15,0-2.15-.27-3-.8s-1.51-1.28-1.98-2.23-.7-2.05-.7-3.3v-.49c0-1.2.23-2.28.68-3.23s1.11-1.71,1.96-2.26,1.87-.83,3.05-.83c1.02,0,1.92.17,2.69.5s1.42.8,1.94,1.38l.06,3.05h-1.8l-.4-2.21c-.27-.27-.6-.49-1-.66s-.87-.25-1.41-.25c-.69,0-1.29.2-1.81.61s-.92.95-1.21,1.63-.43,1.44-.43,2.27v.49c0,.92.13,1.72.4,2.4s.66,1.21,1.16,1.58,1.1.56,1.8.56c.78,0,1.43-.21,1.95-.64s.83-1.02.95-1.77h2.07l.02.07c-.04.73-.25,1.41-.64,2.04s-.95,1.14-1.67,1.53-1.61.58-2.67.58Z"/>
          <path class="cls-5" d="m789.52,467.51c-1.32,0-2.32-.32-3.01-.97s-1.03-1.55-1.03-2.72c0-.8.22-1.51.66-2.1s1.08-1.06,1.92-1.39,1.84-.5,3-.5h2.26v-1.24c0-.77-.23-1.36-.7-1.78s-1.12-.63-1.96-.63c-.53,0-.99.06-1.38.19s-.75.31-1.07.53l-.25,1.77h-1.78v-2.91c.57-.46,1.23-.81,1.99-1.05s1.6-.36,2.52-.36c1.54,0,2.75.37,3.62,1.1s1.31,1.79,1.31,3.15v6.11c0,.16,0,.32,0,.48s.01.31.03.47l1.23.13v1.48h-3.32c-.07-.34-.12-.65-.16-.93s-.07-.55-.08-.82c-.45.57-1,1.04-1.67,1.42s-1.38.57-2.14.57Zm.34-1.93c.77,0,1.46-.18,2.1-.55s1.09-.81,1.36-1.32v-2.3h-2.34c-1.06,0-1.86.25-2.39.76s-.8,1.07-.8,1.7c0,.55.17.98.52,1.27s.86.44,1.56.44Z"/>
          <path class="cls-5" d="m798.68,467.27v-1.48l1.91-.33v-9.06l-1.91-.33v-1.49h3.98l.15,1.65c.41-.6.93-1.07,1.57-1.39s1.38-.49,2.23-.49,1.57.2,2.17.59,1.06.98,1.37,1.76c.4-.72.93-1.29,1.58-1.71s1.42-.63,2.3-.63c1.3,0,2.32.44,3.07,1.33s1.12,2.22,1.12,4v5.78l1.91.33v1.48h-6.14v-1.48l1.91-.33v-5.8c0-1.25-.21-2.13-.64-2.65s-1.07-.78-1.91-.78-1.45.28-1.94.85-.77,1.28-.85,2.14v6.25l1.91.33v1.48h-6.13v-1.48l1.91-.33v-5.8c0-1.19-.22-2.06-.66-2.61s-1.08-.83-1.92-.83c-.7,0-1.28.14-1.73.43s-.8.7-1.04,1.22v7.58l1.91.33v1.48h-6.13Z"/>
          <path class="cls-5" d="m827.45,467.51c-1.17,0-2.19-.27-3.06-.8s-1.54-1.28-2.01-2.23-.71-2.05-.71-3.3v-.52c0-1.2.25-2.28.74-3.23s1.16-1.7,1.98-2.25,1.72-.83,2.7-.83c1.14,0,2.1.23,2.87.7s1.35,1.13,1.74,1.97.59,1.85.59,2.99v1.44h-8.23l-.04.06c.02.81.16,1.53.43,2.16s.66,1.12,1.17,1.48,1.12.54,1.83.54c.78,0,1.47-.11,2.06-.33s1.1-.53,1.53-.92l.9,1.5c-.45.44-1.05.81-1.8,1.11s-1.64.45-2.69.45Zm-3.32-7.85h5.85v-.3c0-.61-.11-1.15-.32-1.63s-.54-.86-.96-1.14-.96-.42-1.6-.42c-.52,0-.98.15-1.41.45s-.77.71-1.04,1.22-.45,1.1-.54,1.76l.02.06Z"/>
          <path class="cls-5" d="m834.08,467.27v-1.48l1.91-.33v-9.06l-1.91-.33v-1.49h3.97l.16,1.89c.42-.67.95-1.19,1.59-1.56s1.36-.56,2.17-.56c1.37,0,2.43.4,3.18,1.2s1.12,2.04,1.12,3.71v6.2l1.91.33v1.48h-6.13v-1.48l1.91-.33v-6.15c0-1.12-.22-1.91-.66-2.38s-1.12-.7-2.02-.7c-.66,0-1.25.16-1.76.48s-.92.76-1.22,1.31v7.44l1.91.33v1.48h-6.13Z"/>
          <path class="cls-5" d="m853.83,467.46c-.94,0-1.68-.28-2.23-.83s-.83-1.43-.83-2.64v-7.7h-2v-1.71h2v-3.06h2.31v3.06h2.75v1.71h-2.75v7.7c0,.61.12,1.06.36,1.35s.57.43.97.43c.27,0,.58-.03.91-.08s.6-.1.79-.13l.32,1.51c-.34.1-.75.19-1.24.27s-.94.12-1.37.12Z"/>
          <path class="cls-5" d="m863.4,467.51c-1.17,0-2.18-.28-3.03-.83s-1.5-1.31-1.96-2.29-.69-2.08-.69-3.33v-.26c0-1.25.23-2.36.69-3.33s1.12-1.74,1.96-2.29,1.85-.83,3.01-.83,2.18.28,3.03.83,1.5,1.32,1.96,2.29.69,2.08.69,3.34v.26c0,1.26-.23,2.37-.69,3.35s-1.11,1.73-1.96,2.28-1.85.82-3.01.82Zm0-1.8c.73,0,1.35-.2,1.85-.6s.87-.95,1.12-1.65.38-1.49.38-2.38v-.26c0-.89-.13-1.69-.38-2.38s-.63-1.25-1.13-1.65-1.12-.6-1.86-.6-1.35.2-1.85.6-.88.95-1.12,1.65-.38,1.49-.38,2.38v.26c0,.89.12,1.69.38,2.38s.63,1.25,1.13,1.65,1.13.6,1.87.6Z"/>
          <path class="cls-5" d="m723.04,496.31c-1.17,0-2.19-.27-3.06-.8s-1.54-1.28-2.01-2.23-.71-2.05-.71-3.3v-.52c0-1.2.25-2.28.74-3.23s1.16-1.7,1.98-2.25,1.72-.83,2.7-.83c1.14,0,2.1.23,2.87.7s1.35,1.13,1.74,1.97.59,1.85.59,2.99v1.44h-8.23l-.04.06c.02.81.16,1.53.43,2.16s.66,1.12,1.17,1.48,1.12.54,1.83.54c.78,0,1.47-.11,2.06-.33s1.1-.53,1.53-.92l.9,1.5c-.45.44-1.05.81-1.8,1.11s-1.64.45-2.69.45Zm-3.32-7.85h5.85v-.3c0-.61-.11-1.15-.32-1.63s-.54-.86-.96-1.14-.96-.42-1.6-.42c-.52,0-.98.15-1.41.45s-.77.71-1.04,1.22-.45,1.1-.54,1.76l.02.06Z"/>
          <path class="cls-5" d="m729.3,496.07v-1.48l1.41-.27,3.79-4.66-3.7-4.51-1.25-.27v-1.49h4.97v1.49l-1.27.14,2.6,3.23,2.53-3.25-1.36-.13v-1.49h4.89v1.49l-1.29.27-3.43,4.48,3.95,4.7,1.31.27v1.48h-5.38v-1.48l1.52-.13-2.78-3.39-2.7,3.39,1.37.13v1.48h-5.18Z"/>
          <path class="cls-5" d="m743.42,500.94v-1.49l1.79-.33v-13.92l-1.91-.33v-1.49h3.89l.21,1.55c.42-.58.94-1.02,1.54-1.32s1.31-.46,2.1-.46c1.05,0,1.94.28,2.68.85s1.31,1.36,1.7,2.38.59,2.21.59,3.58v.25c0,1.22-.2,2.29-.59,3.2s-.96,1.63-1.69,2.14-1.62.77-2.65.77c-.78,0-1.47-.13-2.06-.39s-1.09-.65-1.51-1.17v4.37l2.02.33v1.49h-6.12Zm6.95-6.43c1.09,0,1.92-.4,2.48-1.2s.84-1.83.84-3.11v-.25c0-.97-.12-1.82-.38-2.56s-.62-1.32-1.12-1.74-1.12-.63-1.86-.63c-.66,0-1.22.15-1.69.45s-.85.7-1.14,1.22v6.18c.29.52.67.93,1.13,1.21s1.04.43,1.72.43Z"/>
          <path class="cls-5" d="m764.04,496.31c-1.17,0-2.19-.27-3.06-.8s-1.54-1.28-2.01-2.23-.71-2.05-.71-3.3v-.52c0-1.2.25-2.28.74-3.23s1.16-1.7,1.98-2.25,1.72-.83,2.7-.83c1.14,0,2.1.23,2.87.7s1.35,1.13,1.74,1.97.59,1.85.59,2.99v1.44h-8.23l-.04.06c.02.81.16,1.53.43,2.16s.66,1.12,1.17,1.48,1.12.54,1.83.54c.78,0,1.47-.11,2.06-.33s1.1-.53,1.53-.92l.9,1.5c-.45.44-1.05.81-1.8,1.11s-1.64.45-2.69.45Zm-3.32-7.85h5.85v-.3c0-.61-.11-1.15-.32-1.63s-.54-.86-.96-1.14-.96-.42-1.6-.42c-.52,0-.98.15-1.41.45s-.77.71-1.04,1.22-.45,1.1-.54,1.76l.02.06Z"/>
          <path class="cls-5" d="m770.65,496.07v-1.48l1.91-.33v-9.06l-1.91-.33v-1.49h3.97l.2,1.62.02.22c.36-.65.8-1.16,1.33-1.52s1.13-.55,1.81-.55c.24,0,.49.02.74.06s.44.08.54.12l-.3,2.14-1.61-.09c-.61-.04-1.12.1-1.54.42s-.73.74-.96,1.27v7.18l1.91.33v1.48h-6.13Z"/>
          <path class="cls-5" d="m780.6,496.07v-1.48l1.91-.33v-9.06l-1.91-.33v-1.49h4.22v10.88l1.91.33v1.48h-6.13Zm1.79-15.81v-2.47h2.43v2.47h-2.43Z"/>
          <path class="cls-5" d="m788.33,496.07v-1.48l1.91-.33v-9.06l-1.91-.33v-1.49h3.98l.15,1.65c.41-.6.93-1.07,1.57-1.39s1.38-.49,2.23-.49,1.57.2,2.17.59,1.06.98,1.37,1.76c.4-.72.93-1.29,1.58-1.71s1.42-.63,2.3-.63c1.3,0,2.32.44,3.07,1.33s1.12,2.22,1.12,4v5.78l1.91.33v1.48h-6.14v-1.48l1.91-.33v-5.8c0-1.25-.21-2.13-.64-2.65s-1.07-.78-1.91-.78-1.45.28-1.94.85-.77,1.28-.85,2.14v6.25l1.91.33v1.48h-6.13v-1.48l1.91-.33v-5.8c0-1.19-.22-2.06-.66-2.61s-1.08-.83-1.92-.83c-.7,0-1.28.14-1.73.43s-.8.7-1.04,1.22v7.58l1.91.33v1.48h-6.13Z"/>
          <path class="cls-5" d="m817.1,496.31c-1.17,0-2.19-.27-3.06-.8s-1.54-1.28-2.01-2.23-.71-2.05-.71-3.3v-.52c0-1.2.25-2.28.74-3.23s1.16-1.7,1.98-2.25,1.72-.83,2.7-.83c1.14,0,2.1.23,2.87.7s1.35,1.13,1.74,1.97.59,1.85.59,2.99v1.44h-8.23l-.04.06c.02.81.16,1.53.43,2.16s.66,1.12,1.17,1.48,1.12.54,1.83.54c.78,0,1.47-.11,2.06-.33s1.1-.53,1.53-.92l.9,1.5c-.45.44-1.05.81-1.8,1.11s-1.64.45-2.69.45Zm-3.32-7.85h5.85v-.3c0-.61-.11-1.15-.32-1.63s-.54-.86-.96-1.14-.96-.42-1.6-.42c-.52,0-.98.15-1.41.45s-.77.71-1.04,1.22-.45,1.1-.54,1.76l.02.06Z"/>
          <path class="cls-5" d="m823.73,496.07v-1.48l1.91-.33v-9.06l-1.91-.33v-1.49h3.97l.16,1.89c.42-.67.95-1.19,1.59-1.56s1.36-.56,2.17-.56c1.37,0,2.43.4,3.18,1.2s1.12,2.04,1.12,3.71v6.2l1.91.33v1.48h-6.13v-1.48l1.91-.33v-6.15c0-1.12-.22-1.91-.66-2.38s-1.12-.7-2.02-.7c-.66,0-1.25.16-1.76.48s-.92.76-1.22,1.31v7.44l1.91.33v1.48h-6.13Z"/>
          <path class="cls-5" d="m843.47,496.26c-.94,0-1.68-.28-2.23-.83s-.83-1.43-.83-2.64v-7.7h-2v-1.71h2v-3.06h2.31v3.06h2.75v1.71h-2.75v7.7c0,.61.12,1.06.36,1.35s.57.43.97.43c.27,0,.58-.03.91-.08s.6-.1.79-.13l.32,1.51c-.34.1-.75.19-1.24.27s-.94.12-1.37.12Z"/>
          <path class="cls-5" d="m851.65,496.31c-1.32,0-2.32-.32-3.01-.97s-1.03-1.55-1.03-2.72c0-.8.22-1.51.66-2.1s1.08-1.06,1.92-1.39,1.84-.5,3-.5h2.26v-1.24c0-.77-.23-1.36-.7-1.78s-1.12-.63-1.96-.63c-.53,0-.99.06-1.38.19s-.75.31-1.07.53l-.25,1.77h-1.78v-2.91c.57-.46,1.23-.81,1.99-1.05s1.6-.36,2.52-.36c1.54,0,2.75.37,3.62,1.1s1.31,1.79,1.31,3.15v6.11c0,.16,0,.32,0,.48s.01.31.03.47l1.23.13v1.48h-3.32c-.07-.34-.12-.65-.16-.93s-.07-.55-.08-.82c-.45.57-1,1.04-1.67,1.42s-1.38.57-2.14.57Zm.34-1.93c.77,0,1.46-.18,2.1-.55s1.09-.81,1.36-1.32v-2.3h-2.34c-1.06,0-1.86.25-2.39.76s-.8,1.07-.8,1.7c0,.55.17.98.52,1.27s.86.44,1.56.44Z"/>
          <path class="cls-5" d="m860.7,496.07v-1.48l1.91-.33v-14.66l-1.91-.33v-1.49h4.22v16.48l1.91.33v1.48h-6.13Z"/>
        </g>
      </g>
      <path class="cls-1" d="m1110,354.73v-50.73c0-1.1-.9-2-2-2h-468s0-44,0-44c0-1.1-.9-2-2-2s-2,.9-2,2v44H172c-1.1,0-2,.9-2,2v50.73h-7.97l9.97,17.27,9.97-17.27h-7.97v-48.73h300v48.73h-7.97l9.97,17.27,9.97-17.27h-7.97v-48.73h312v48.73h-7.97l9.97,17.27,9.97-17.27h-7.97v-48.73h312s0,48.73,0,48.73h-7.97l9.97,17.27,9.97-17.27h-7.97Z"/>
    </g>
    <g class="button" type="button" data-bs-toggle="offcanvas" data-bs-target="#svg-info-01" aria-controls="svg-info-01">
      <rect class="background cls-9" x="100" y="520" width="120" height="50" rx="12.74" ry="12.74"/>
      <path class="cls-5" d="m157.37,557v-10.39h-9.64v-4.03h9.64v-9.58h4.74v9.58h9.62v4.03h-9.62v10.39h-4.74Z"/>
    </g>
    <g class="button" type="button" data-bs-toggle="offcanvas" data-bs-target="#svg-info-02" aria-controls="svg-info-02">
      <rect class="background cls-9" x="416" y="520" width="120" height="50" rx="12.74" ry="12.74"/>
      <path class="cls-5" d="m473.37,557v-10.39h-9.64v-4.03h9.64v-9.58h4.74v9.58h9.62v4.03h-9.62v10.39h-4.74Z"/>
    </g>
    <g class="button" type="button" data-bs-toggle="offcanvas" data-bs-target="#svg-info-03" aria-controls="svg-info-03">
      <rect class="background cls-9" x="732" y="520" width="120" height="50" rx="12.74" ry="12.74"/>
      <path class="cls-5" d="m789.37,557v-10.39h-9.64v-4.03h9.64v-9.58h4.74v9.58h9.62v4.03h-9.62v10.39h-4.74Z"/>
    </g>
    <g class="button" type="button" data-bs-toggle="offcanvas" data-bs-target="#svg-info-04" aria-controls="svg-info-04">
      <rect class="background cls-9" x="1048" y="520" width="120" height="50" rx="12.74" ry="12.74"/>
      <path class="cls-5" d="m1105.37,557v-10.39h-9.64v-4.03h9.64v-9.58h4.74v9.58h9.62v4.03h-9.62v10.39h-4.74Z"/>
    </g>
  </g>
</svg>