<?xml version="1.0" encoding="UTF-8"?>
<svg id="topico3" xmlns="http://www.w3.org/2000/svg" xmlns:xlink="http://www.w3.org/1999/xlink" viewBox="0 0 1280 720">
  <defs>
    <style>
      .cls-1 {
        fill: #a7b6be;
      }

      .cls-1, .cls-2, .cls-3, .cls-4, .cls-5, .cls-6, .cls-7, .cls-8 {
        stroke-width: 0px;
      }

      .cls-3 {
        filter: url(#drop-shadow-3);
      }

      .cls-3, .cls-4, .cls-7, .cls-8 {
        fill: #005fcc;
      }

      .cls-4 {
        filter: url(#drop-shadow-6);
      }

      .cls-5 {
        fill: #fff;
      }

      .cls-6 {
        fill: #fd3;
        filter: url(#drop-shadow-4);
      }

      .cls-7 {
        filter: url(#drop-shadow-2);
      }

      .cls-8 {
        filter: url(#drop-shadow-5);
      }

      .cls-9 {
        fill: #c70596;
        stroke: #fff;
        stroke-miterlimit: 10;
        stroke-width: 2px;
      }
    </style>
    <filter id="drop-shadow-2" filterUnits="userSpaceOnUse">
      <feOffset dx="10" dy="10"/>
      <feGaussianBlur result="blur" stdDeviation="0"/>
      <feFlood flood-color="#07f" flood-opacity=".3"/>
      <feComposite in2="blur" operator="in"/>
      <feComposite in="SourceGraphic"/>
    </filter>
    <filter id="drop-shadow-3" filterUnits="userSpaceOnUse">
      <feOffset dx="10" dy="10"/>
      <feGaussianBlur result="blur-2" stdDeviation="0"/>
      <feFlood flood-color="#07f" flood-opacity=".3"/>
      <feComposite in2="blur-2" operator="in"/>
      <feComposite in="SourceGraphic"/>
    </filter>
    <filter id="drop-shadow-4" filterUnits="userSpaceOnUse">
      <feOffset dx="10" dy="10"/>
      <feGaussianBlur result="blur-3" stdDeviation="0"/>
      <feFlood flood-color="#fd3" flood-opacity=".3"/>
      <feComposite in2="blur-3" operator="in"/>
      <feComposite in="SourceGraphic"/>
    </filter>
    <filter id="drop-shadow-5" filterUnits="userSpaceOnUse">
      <feOffset dx="10" dy="10"/>
      <feGaussianBlur result="blur-4" stdDeviation="0"/>
      <feFlood flood-color="#07f" flood-opacity=".3"/>
      <feComposite in2="blur-4" operator="in"/>
      <feComposite in="SourceGraphic"/>
    </filter>
    <filter id="drop-shadow-6" filterUnits="userSpaceOnUse">
      <feOffset dx="10" dy="10"/>
      <feGaussianBlur result="blur-5" stdDeviation="0"/>
      <feFlood flood-color="#07f" flood-opacity=".3"/>
      <feComposite in2="blur-5" operator="in"/>
      <feComposite in="SourceGraphic"/>
    </filter>
  </defs>
  <g id="Img02">
    <g id="image">
      <g>
        <rect class="cls-7" x="20" y="357" width="280" height="330" rx="8" ry="8"/>
        <g>
          <path class="cls-5" d="m96.3,432.29v-1.97l2.55-.44v-17.92l-2.55-.44v-1.98h10.45c1.62,0,3.01.29,4.16.85,1.15.57,2.02,1.36,2.62,2.38.6,1.02.91,2.21.91,3.58s-.3,2.57-.91,3.59c-.6,1.02-1.48,1.81-2.62,2.38-1.15.56-2.53.84-4.16.84h-4.83v6.72l2.55.44v1.97h-8.17Zm5.62-11.53h4.83c1.54,0,2.7-.41,3.46-1.24s1.15-1.87,1.15-3.13-.38-2.31-1.15-3.16-1.92-1.27-3.46-1.27h-4.83v8.8Z"/>
          <path class="cls-5" d="m116.3,432.29v-1.97l2.55-.44v-19.55l-2.55-.44v-1.98h5.62v21.97l2.55.44v1.97h-8.17Z"/>
          <path class="cls-5" d="m132.13,432.62c-1.76,0-3.1-.43-4.02-1.29-.92-.86-1.38-2.07-1.38-3.63,0-1.07.29-2.01.88-2.8.59-.8,1.44-1.42,2.55-1.86,1.11-.44,2.45-.66,4-.66h3.02v-1.66c0-1.02-.31-1.81-.93-2.38-.62-.56-1.49-.84-2.62-.84-.71,0-1.32.09-1.84.26-.52.17-1,.41-1.42.71l-.33,2.36h-2.38v-3.88c.76-.61,1.65-1.08,2.66-1.4,1.01-.32,2.13-.48,3.36-.48,2.05,0,3.66.49,4.83,1.47,1.17.98,1.75,2.38,1.75,4.2v8.14c0,.22,0,.43,0,.64,0,.21.02.42.04.62l1.64.17v1.97h-4.42c-.09-.46-.17-.87-.22-1.23-.05-.36-.09-.73-.11-1.09-.59.76-1.34,1.39-2.23,1.9-.89.51-1.84.76-2.85.76Zm.45-2.58c1.02,0,1.95-.24,2.8-.73.84-.49,1.45-1.08,1.81-1.77v-3.06h-3.12c-1.42,0-2.48.34-3.19,1.02-.71.68-1.06,1.43-1.06,2.27,0,.74.23,1.3.69,1.7.46.39,1.15.59,2.08.59Z"/>
          <path class="cls-5" d="m144.35,432.29v-1.97l2.55-.44v-12.08l-2.55-.44v-1.98h5.3l.22,2.52c.56-.89,1.27-1.59,2.12-2.09.85-.49,1.81-.74,2.9-.74,1.82,0,3.23.54,4.23,1.6,1,1.07,1.5,2.72,1.5,4.95v8.27l2.55.44v1.97h-8.17v-1.97l2.55-.44v-8.2c0-1.49-.29-2.55-.88-3.17-.59-.62-1.49-.94-2.7-.94-.89,0-1.67.21-2.35.64-.68.43-1.23,1.01-1.63,1.75v9.92l2.55.44v1.97h-8.17Z"/>
          <path class="cls-5" d="m172.74,432.62c-1.56,0-2.91-.37-4.04-1.1-1.13-.73-2-1.75-2.62-3.05-.62-1.3-.92-2.78-.92-4.45v-.34c0-1.67.31-3.15.92-4.45.61-1.3,1.49-2.31,2.62-3.05,1.13-.74,2.47-1.11,4.01-1.11s2.91.37,4.04,1.11c1.13.74,2,1.76,2.62,3.05.61,1.29.92,2.78.92,4.45v.34c0,1.68-.31,3.16-.92,4.46-.62,1.3-1.48,2.31-2.61,3.04-1.12.73-2.46,1.09-4.02,1.09Zm0-2.41c.98,0,1.8-.27,2.46-.8.66-.54,1.16-1.27,1.5-2.2.34-.93.51-1.99.51-3.18v-.34c0-1.19-.17-2.25-.51-3.18-.34-.93-.84-1.67-1.51-2.2-.67-.54-1.5-.8-2.48-.8s-1.8.27-2.47.8c-.67.54-1.17,1.27-1.5,2.2-.33.93-.5,1.99-.5,3.18v.34c0,1.19.17,2.25.5,3.18.33.93.84,1.67,1.51,2.2.67.54,1.5.8,2.49.8Z"/>
          <path class="cls-5" d="m197.26,432.62c-1.38,0-2.55-.34-3.54-1.02-.98-.68-1.74-1.63-2.26-2.85-.52-1.22-.78-2.64-.78-4.27v-.33c0-1.81.26-3.4.78-4.77.52-1.36,1.28-2.42,2.27-3.18.99-.75,2.18-1.13,3.56-1.13,1,0,1.88.19,2.65.55.77.37,1.42.9,1.96,1.6v-6.89l-2.55-.44v-1.98h5.62v21.97l2.55.44v1.97h-5.22l-.25-2.02c-.55.77-1.23,1.36-2.02,1.75-.8.4-1.72.59-2.77.59Zm.78-2.5c.92,0,1.69-.21,2.31-.62.62-.42,1.14-1,1.55-1.77v-7.84c-.4-.71-.91-1.27-1.55-1.69-.64-.42-1.4-.62-2.28-.62-.98,0-1.79.28-2.42.84-.64.56-1.11,1.33-1.42,2.31s-.47,2.13-.47,3.43v.33c0,1.7.35,3.06,1.05,4.09.7,1.03,1.78,1.55,3.23,1.55Z"/>
          <path class="cls-5" d="m217.27,432.62c-1.56,0-2.92-.36-4.08-1.07-1.16-.71-2.05-1.71-2.68-2.98-.63-1.27-.95-2.74-.95-4.41v-.69c0-1.6.33-3.04.99-4.3.66-1.27,1.54-2.27,2.64-3,1.1-.73,2.3-1.1,3.6-1.1,1.52,0,2.79.31,3.82.94,1.03.62,1.8,1.5,2.32,2.63.52,1.13.78,2.46.78,3.99v1.92h-10.97l-.05.08c.02,1.08.21,2.04.57,2.88.36.84.88,1.5,1.55,1.98.68.48,1.49.72,2.44.72,1.04,0,1.96-.15,2.74-.45.79-.3,1.47-.71,2.04-1.23l1.2,2c-.6.58-1.4,1.08-2.4,1.48-1,.4-2.19.6-3.59.6Zm-4.42-10.47h7.8v-.41c0-.81-.14-1.54-.43-2.18-.29-.64-.71-1.14-1.28-1.52-.57-.37-1.28-.55-2.13-.55-.69,0-1.31.2-1.88.6-.56.4-1.03.95-1.39,1.63-.37.69-.6,1.47-.72,2.34l.03.08Z"/>
          <path class="cls-5" d="m38.38,471.02c-1.38,0-2.55-.34-3.54-1.02-.98-.68-1.74-1.63-2.26-2.85-.52-1.22-.78-2.64-.78-4.27v-.33c0-1.81.26-3.4.78-4.77.52-1.36,1.28-2.42,2.27-3.18.99-.75,2.18-1.13,3.56-1.13,1,0,1.88.19,2.65.55.77.37,1.42.9,1.96,1.6v-6.89l-2.55-.44v-1.98h5.62v21.97l2.55.44v1.97h-5.22l-.25-2.02c-.55.77-1.23,1.35-2.02,1.75s-1.72.59-2.77.59Zm.78-2.5c.92,0,1.69-.21,2.31-.62.62-.42,1.14-1,1.55-1.77v-7.84c-.4-.71-.91-1.27-1.55-1.69-.64-.42-1.4-.62-2.28-.62-.98,0-1.79.28-2.42.84-.64.56-1.11,1.33-1.42,2.31s-.47,2.13-.47,3.43v.33c0,1.7.35,3.06,1.05,4.09.7,1.03,1.78,1.55,3.23,1.55Z"/>
          <path class="cls-5" d="m58.4,471.02c-1.56,0-2.92-.36-4.08-1.07-1.16-.71-2.05-1.71-2.68-2.98-.63-1.27-.95-2.74-.95-4.41v-.69c0-1.6.33-3.04.99-4.3.66-1.27,1.54-2.27,2.64-3,1.1-.73,2.3-1.1,3.6-1.1,1.52,0,2.79.31,3.82.94,1.03.62,1.8,1.5,2.32,2.63.52,1.13.78,2.46.78,3.99v1.92h-10.97l-.05.08c.02,1.08.21,2.04.57,2.88.36.84.88,1.5,1.55,1.98.68.48,1.49.72,2.44.72,1.04,0,1.96-.15,2.74-.45.79-.3,1.47-.71,2.04-1.23l1.2,2c-.6.58-1.4,1.08-2.4,1.48-1,.4-2.19.6-3.59.6Zm-4.42-10.47h7.8v-.41c0-.81-.14-1.54-.43-2.18-.29-.64-.71-1.15-1.28-1.52-.57-.37-1.28-.55-2.13-.55-.69,0-1.31.2-1.88.6-.56.4-1.03.95-1.39,1.63-.37.69-.6,1.47-.72,2.34l.03.08Z"/>
          <path class="cls-5" d="m74.16,471.02c-1.14,0-2.2-.12-3.19-.34-.99-.23-2.04-.58-3.16-1.06l-.03-4.02h2.33l.58,2.42c.58.24,1.15.41,1.7.52s1.14.16,1.77.16c1.25,0,2.15-.24,2.69-.72.54-.48.81-1.07.81-1.78,0-.67-.27-1.23-.82-1.7-.55-.46-1.54-.86-2.98-1.18-2.04-.47-3.54-1.1-4.51-1.88-.96-.79-1.45-1.84-1.45-3.15,0-.92.27-1.74.8-2.46.53-.72,1.27-1.3,2.22-1.73.95-.43,2.05-.64,3.31-.64s2.38.15,3.29.44c.91.29,1.71.68,2.38,1.17l.16,3.86h-2.31l-.5-2.25c-.37-.27-.8-.48-1.3-.62-.5-.15-1.07-.22-1.72-.22-.96,0-1.74.22-2.34.67-.6.45-.9,1.01-.9,1.69,0,.4.09.74.26,1.03.17.29.5.55.99.79.49.23,1.21.47,2.16.7,2.35.55,4,1.26,4.93,2.11.93.85,1.4,1.91,1.4,3.16,0,1.43-.53,2.62-1.59,3.59-1.06.96-2.72,1.45-4.99,1.45Z"/>
          <path class="cls-5" d="m90.99,471.02c-1.56,0-2.92-.36-4.08-1.07-1.16-.71-2.05-1.71-2.68-2.98-.63-1.27-.95-2.74-.95-4.41v-.69c0-1.6.33-3.04.99-4.3.66-1.27,1.54-2.27,2.64-3,1.1-.73,2.3-1.1,3.6-1.1,1.52,0,2.79.31,3.82.94,1.03.62,1.8,1.5,2.32,2.63.52,1.13.78,2.46.78,3.99v1.92h-10.97l-.05.08c.02,1.08.21,2.04.57,2.88.36.84.88,1.5,1.55,1.98.68.48,1.49.72,2.44.72,1.04,0,1.96-.15,2.74-.45.79-.3,1.47-.71,2.04-1.23l1.2,2c-.6.58-1.4,1.08-2.4,1.48-1,.4-2.19.6-3.59.6Zm-4.42-10.47h7.8v-.41c0-.81-.14-1.54-.43-2.18-.29-.64-.71-1.15-1.28-1.52-.57-.37-1.28-.55-2.13-.55-.69,0-1.31.2-1.88.6-.56.4-1.03.95-1.39,1.63-.37.69-.6,1.47-.72,2.34l.03.08Z"/>
          <path class="cls-5" d="m99.84,470.69v-1.97l2.55-.44v-12.08l-2.55-.44v-1.98h5.3l.22,2.52c.56-.9,1.27-1.59,2.12-2.09.85-.49,1.81-.74,2.9-.74,1.82,0,3.23.53,4.23,1.6,1,1.07,1.5,2.72,1.5,4.95v8.27l2.55.44v1.97h-8.17v-1.97l2.55-.44v-8.2c0-1.49-.29-2.55-.88-3.17-.59-.62-1.49-.94-2.7-.94-.89,0-1.67.21-2.35.64-.68.43-1.23,1.01-1.63,1.75v9.92l2.55.44v1.97h-8.17Z"/>
          <path class="cls-5" d="m126.43,470.69l-6.02-14.69-1.75-.23v-1.98h7.09v1.98l-2.2.31,3.75,9.62.44,1.36h.09l.5-1.36,3.48-9.62-2.27-.31v-1.98h7.08v1.98l-1.78.23-5.72,14.69h-2.7Z"/>
          <path class="cls-5" d="m145.51,471.02c-1.56,0-2.91-.37-4.04-1.1-1.13-.73-2-1.75-2.62-3.05-.62-1.3-.92-2.78-.92-4.45v-.34c0-1.67.31-3.15.92-4.45.61-1.3,1.49-2.31,2.62-3.05,1.13-.74,2.47-1.11,4.01-1.11s2.91.37,4.04,1.11c1.13.74,2,1.76,2.62,3.05.61,1.29.92,2.78.92,4.45v.34c0,1.68-.31,3.16-.92,4.46-.62,1.3-1.48,2.31-2.61,3.04-1.12.73-2.46,1.09-4.02,1.09Zm0-2.41c.98,0,1.8-.27,2.46-.8.66-.54,1.16-1.27,1.5-2.2.34-.93.51-1.99.51-3.18v-.34c0-1.19-.17-2.25-.51-3.18-.34-.93-.84-1.67-1.51-2.2-.67-.54-1.5-.8-2.48-.8s-1.8.27-2.47.8c-.67.54-1.17,1.27-1.5,2.2-.33.93-.5,1.99-.5,3.18v.34c0,1.19.17,2.25.5,3.18.33.93.84,1.67,1.51,2.2.67.54,1.5.8,2.49.8Z"/>
          <path class="cls-5" d="m154.96,470.69v-1.97l2.55-.44v-19.55l-2.55-.44v-1.98h5.62v21.97l2.55.44v1.97h-8.17Z"/>
          <path class="cls-5" d="m172.34,470.69l-6.02-14.69-1.75-.23v-1.98h7.09v1.98l-2.2.31,3.75,9.62.44,1.36h.09l.5-1.36,3.48-9.62-2.27-.31v-1.98h7.08v1.98l-1.78.23-5.72,14.69h-2.7Z"/>
          <path class="cls-5" d="m184.05,470.69v-1.97l2.55-.44v-12.08l-2.55-.44v-1.98h5.62v14.5l2.55.44v1.97h-8.17Zm2.39-21.08v-3.3h3.23v3.3h-3.23Z"/>
          <path class="cls-5" d="m194.35,470.69v-1.97l2.55-.44v-12.08l-2.55-.44v-1.98h5.31l.2,2.2c.54-.8,1.24-1.42,2.09-1.86.85-.44,1.84-.66,2.97-.66s2.09.26,2.9.78c.81.52,1.41,1.3,1.82,2.34.53-.96,1.23-1.72,2.11-2.28s1.9-.84,3.06-.84c1.73,0,3.09.59,4.09,1.77,1,1.18,1.5,2.96,1.5,5.34v7.7l2.55.44v1.97h-8.19v-1.97l2.55-.44v-7.73c0-1.67-.29-2.85-.86-3.54-.57-.69-1.42-1.04-2.55-1.04s-1.94.38-2.59,1.13c-.65.76-1.03,1.71-1.13,2.85v8.33l2.55.44v1.97h-8.17v-1.97l2.55-.44v-7.73c0-1.58-.29-2.74-.88-3.48-.59-.73-1.44-1.1-2.55-1.1-.94,0-1.71.19-2.31.58-.6.39-1.07.93-1.39,1.62v10.11l2.55.44v1.97h-8.17Z"/>
          <path class="cls-5" d="m232.71,471.02c-1.56,0-2.92-.36-4.08-1.07-1.16-.71-2.05-1.71-2.68-2.98-.63-1.27-.95-2.74-.95-4.41v-.69c0-1.6.33-3.04.99-4.3.66-1.27,1.54-2.27,2.64-3,1.1-.73,2.3-1.1,3.6-1.1,1.52,0,2.79.31,3.82.94,1.03.62,1.8,1.5,2.32,2.63.52,1.13.78,2.46.78,3.99v1.92h-10.97l-.05.08c.02,1.08.21,2.04.57,2.88.36.84.88,1.5,1.55,1.98.68.48,1.49.72,2.44.72,1.04,0,1.96-.15,2.74-.45.79-.3,1.47-.71,2.04-1.23l1.2,2c-.6.58-1.4,1.08-2.4,1.48-1,.4-2.19.6-3.59.6Zm-4.42-10.47h7.8v-.41c0-.81-.14-1.54-.43-2.18-.29-.64-.71-1.15-1.28-1.52-.57-.37-1.28-.55-2.13-.55-.69,0-1.31.2-1.88.6-.56.4-1.03.95-1.39,1.63-.37.69-.6,1.47-.72,2.34l.03.08Z"/>
          <path class="cls-5" d="m241.55,470.69v-1.97l2.55-.44v-12.08l-2.55-.44v-1.98h5.3l.22,2.52c.56-.9,1.27-1.59,2.12-2.09.85-.49,1.81-.74,2.9-.74,1.82,0,3.23.53,4.23,1.6,1,1.07,1.5,2.72,1.5,4.95v8.27l2.55.44v1.97h-8.17v-1.97l2.55-.44v-8.2c0-1.49-.29-2.55-.88-3.17-.59-.62-1.49-.94-2.7-.94-.89,0-1.67.21-2.35.64-.68.43-1.23,1.01-1.63,1.75v9.92l2.55.44v1.97h-8.17Z"/>
          <path class="cls-5" d="m267.88,470.95c-1.25,0-2.24-.37-2.98-1.1s-1.1-1.91-1.1-3.52v-10.27h-2.67v-2.28h2.67v-4.08h3.08v4.08h3.67v2.28h-3.67v10.27c0,.81.16,1.41.48,1.8.32.39.75.58,1.3.58.36,0,.77-.03,1.22-.1.45-.07.8-.13,1.05-.18l.42,2.02c-.45.14-1,.25-1.65.36-.65.1-1.26.16-1.82.16Z"/>
          <path class="cls-5" d="m280.65,471.02c-1.56,0-2.91-.37-4.04-1.1-1.13-.73-2-1.75-2.62-3.05-.62-1.3-.92-2.78-.92-4.45v-.34c0-1.67.31-3.15.92-4.45.61-1.3,1.49-2.31,2.62-3.05,1.13-.74,2.47-1.11,4.01-1.11s2.91.37,4.04,1.11c1.13.74,2,1.76,2.62,3.05.61,1.29.92,2.78.92,4.45v.34c0,1.68-.31,3.16-.92,4.46-.62,1.3-1.48,2.31-2.61,3.04-1.12.73-2.46,1.09-4.02,1.09Zm0-2.41c.98,0,1.8-.27,2.46-.8.66-.54,1.16-1.27,1.5-2.2.34-.93.51-1.99.51-3.18v-.34c0-1.19-.17-2.25-.51-3.18-.34-.93-.84-1.67-1.51-2.2-.67-.54-1.5-.8-2.48-.8s-1.8.27-2.47.8c-.67.54-1.17,1.27-1.5,2.2-.33.93-.5,1.99-.5,3.18v.34c0,1.19.17,2.25.5,3.18.33.93.84,1.67,1.51,2.2.67.54,1.5.8,2.49.8Z"/>
          <path class="cls-5" d="m41.59,509.42c-1.38,0-2.55-.34-3.54-1.02-.98-.68-1.74-1.63-2.26-2.85-.52-1.22-.78-2.64-.78-4.27v-.33c0-1.81.26-3.4.78-4.77.52-1.37,1.28-2.42,2.27-3.18.99-.76,2.18-1.13,3.56-1.13,1,0,1.88.18,2.65.55.77.37,1.42.9,1.96,1.6v-6.89l-2.55-.44v-1.98h5.62v21.97l2.55.44v1.97h-5.22l-.25-2.02c-.55.77-1.23,1.35-2.02,1.75-.8.39-1.72.59-2.77.59Zm.78-2.5c.92,0,1.69-.21,2.31-.62.62-.42,1.14-1.01,1.55-1.77v-7.84c-.4-.71-.91-1.27-1.55-1.69-.64-.42-1.4-.62-2.28-.62-.98,0-1.79.28-2.42.84-.64.56-1.11,1.33-1.42,2.31s-.47,2.13-.47,3.43v.33c0,1.7.35,3.06,1.05,4.09.7,1.03,1.78,1.55,3.23,1.55Z"/>
          <path class="cls-5" d="m61.55,509.42c-1.56,0-2.91-.37-4.04-1.1-1.13-.73-2-1.75-2.62-3.05-.62-1.3-.92-2.78-.92-4.45v-.34c0-1.67.31-3.15.92-4.45.61-1.3,1.49-2.32,2.62-3.05,1.13-.74,2.47-1.11,4.01-1.11s2.91.37,4.04,1.11c1.13.74,2,1.75,2.62,3.05.61,1.29.92,2.78.92,4.45v.34c0,1.68-.31,3.16-.92,4.46-.62,1.3-1.48,2.31-2.61,3.04-1.12.73-2.46,1.09-4.02,1.09Zm0-2.41c.98,0,1.8-.27,2.46-.8.66-.54,1.16-1.27,1.5-2.2.34-.93.51-1.99.51-3.18v-.34c0-1.19-.17-2.25-.51-3.18-.34-.93-.84-1.67-1.51-2.2-.67-.54-1.5-.8-2.48-.8s-1.8.27-2.47.8c-.67.54-1.17,1.27-1.5,2.2-.33.93-.5,1.99-.5,3.18v.34c0,1.19.17,2.25.5,3.18.33.93.84,1.67,1.51,2.2.67.54,1.5.8,2.49.8Z"/>
          <path class="cls-5" d="m79.42,509.09v-1.97l2.55-.44v-12.08l-2.55-.44v-1.98h5.31l.2,2.2c.54-.8,1.24-1.42,2.09-1.86.85-.44,1.84-.66,2.97-.66s2.09.26,2.9.78c.81.52,1.41,1.3,1.82,2.34.53-.96,1.23-1.72,2.11-2.28s1.9-.84,3.06-.84c1.73,0,3.09.59,4.09,1.77,1,1.18,1.5,2.96,1.5,5.34v7.7l2.55.44v1.97h-8.19v-1.97l2.55-.44v-7.73c0-1.67-.29-2.85-.86-3.54-.57-.69-1.42-1.04-2.55-1.04s-1.94.38-2.59,1.13c-.65.75-1.03,1.71-1.13,2.85v8.33l2.55.44v1.97h-8.17v-1.97l2.55-.44v-7.73c0-1.58-.29-2.74-.88-3.48-.59-.73-1.44-1.1-2.55-1.1-.94,0-1.71.19-2.31.58-.6.38-1.07.93-1.39,1.62v10.11l2.55.44v1.97h-8.17Z"/>
          <path class="cls-5" d="m117.78,509.42c-1.56,0-2.92-.36-4.08-1.07-1.16-.71-2.05-1.71-2.68-2.98-.63-1.27-.95-2.74-.95-4.41v-.69c0-1.6.33-3.04.99-4.3.66-1.27,1.54-2.27,2.64-3,1.1-.73,2.3-1.1,3.6-1.1,1.52,0,2.79.31,3.82.94,1.03.62,1.8,1.5,2.32,2.63.52,1.13.78,2.46.78,3.99v1.92h-10.97l-.05.08c.02,1.08.21,2.04.57,2.88.36.84.88,1.5,1.55,1.98.68.48,1.49.72,2.44.72,1.04,0,1.96-.15,2.74-.45.79-.3,1.47-.71,2.04-1.23l1.2,2c-.6.58-1.4,1.08-2.4,1.48-1,.4-2.19.6-3.59.6Zm-4.42-10.47h7.8v-.41c0-.81-.14-1.54-.43-2.18-.29-.64-.71-1.15-1.28-1.52-.57-.37-1.28-.55-2.13-.55-.69,0-1.31.2-1.88.6-.56.4-1.03.95-1.39,1.63-.37.69-.6,1.47-.72,2.34l.03.08Z"/>
          <path class="cls-5" d="m133.89,509.42c-1.38,0-2.55-.34-3.54-1.02-.98-.68-1.74-1.63-2.26-2.85-.52-1.22-.78-2.64-.78-4.27v-.33c0-1.81.26-3.4.78-4.77.52-1.37,1.28-2.42,2.27-3.18.99-.76,2.18-1.13,3.56-1.13,1,0,1.88.18,2.65.55.77.37,1.42.9,1.96,1.6v-6.89l-2.55-.44v-1.98h5.62v21.97l2.55.44v1.97h-5.22l-.25-2.02c-.55.77-1.23,1.35-2.02,1.75-.8.39-1.72.59-2.77.59Zm.78-2.5c.92,0,1.69-.21,2.31-.62.62-.42,1.14-1.01,1.55-1.77v-7.84c-.4-.71-.91-1.27-1.55-1.69-.64-.42-1.4-.62-2.28-.62-.98,0-1.79.28-2.42.84-.64.56-1.11,1.33-1.42,2.31s-.47,2.13-.47,3.43v.33c0,1.7.35,3.06,1.05,4.09.7,1.03,1.78,1.55,3.23,1.55Z"/>
          <path class="cls-5" d="m146.17,509.09v-1.97l2.55-.44v-12.08l-2.55-.44v-1.98h5.62v14.5l2.55.44v1.97h-8.17Zm2.39-21.08v-3.3h3.23v3.3h-3.23Z"/>
          <path class="cls-5" d="m164.11,509.42c-1.53,0-2.87-.36-4-1.07-1.14-.71-2.02-1.71-2.64-2.98-.62-1.27-.94-2.74-.94-4.41v-.66c0-1.6.3-3.04.91-4.31.6-1.27,1.47-2.28,2.61-3.02,1.13-.74,2.49-1.11,4.06-1.11,1.36,0,2.56.22,3.59.67,1.03.45,1.89,1.06,2.59,1.84l.08,4.06h-2.41l-.53-2.95c-.35-.37-.8-.66-1.33-.88s-1.16-.33-1.88-.33c-.92,0-1.72.27-2.41.81-.69.54-1.23,1.27-1.62,2.17-.39.91-.58,1.92-.58,3.03v.66c0,1.23.18,2.3.54,3.2s.88,1.61,1.55,2.1c.67.49,1.47.74,2.4.74,1.04,0,1.91-.29,2.59-.86.69-.57,1.11-1.36,1.27-2.36h2.77l.03.09c-.05.97-.34,1.88-.86,2.72-.52.84-1.26,1.52-2.23,2.04-.96.52-2.15.77-3.55.77Z"/>
          <path class="cls-5" d="m178.92,509.42c-1.76,0-3.1-.43-4.02-1.29-.92-.86-1.38-2.07-1.38-3.63,0-1.07.29-2.01.88-2.8.59-.8,1.44-1.42,2.55-1.86,1.11-.44,2.45-.66,4-.66h3.02v-1.66c0-1.02-.31-1.81-.93-2.38-.62-.56-1.49-.84-2.62-.84-.71,0-1.32.09-1.84.26-.52.17-1,.41-1.42.71l-.33,2.36h-2.38v-3.88c.76-.62,1.65-1.08,2.66-1.4,1.01-.32,2.13-.48,3.36-.48,2.05,0,3.66.49,4.83,1.47,1.17.98,1.75,2.38,1.75,4.2v8.14c0,.22,0,.43,0,.64,0,.21.02.42.04.62l1.64.17v1.97h-4.42c-.09-.46-.17-.87-.22-1.23-.05-.37-.09-.73-.11-1.09-.59.76-1.34,1.39-2.23,1.9-.89.5-1.84.76-2.85.76Zm.45-2.58c1.02,0,1.95-.25,2.8-.73.84-.49,1.45-1.08,1.81-1.77v-3.06h-3.12c-1.42,0-2.48.34-3.19,1.02-.71.68-1.06,1.43-1.06,2.27,0,.74.23,1.3.69,1.7.46.39,1.15.59,2.08.59Z"/>
          <path class="cls-5" d="m191.14,509.09v-1.97l2.55-.44v-12.08l-2.55-.44v-1.98h5.31l.2,2.2c.54-.8,1.24-1.42,2.09-1.86.85-.44,1.84-.66,2.97-.66s2.09.26,2.9.78c.81.52,1.41,1.3,1.82,2.34.53-.96,1.23-1.72,2.11-2.28s1.9-.84,3.06-.84c1.73,0,3.09.59,4.09,1.77,1,1.18,1.5,2.96,1.5,5.34v7.7l2.55.44v1.97h-8.19v-1.97l2.55-.44v-7.73c0-1.67-.29-2.85-.86-3.54-.57-.69-1.42-1.04-2.55-1.04s-1.94.38-2.59,1.13c-.65.75-1.03,1.71-1.13,2.85v8.33l2.55.44v1.97h-8.17v-1.97l2.55-.44v-7.73c0-1.58-.29-2.74-.88-3.48-.59-.73-1.44-1.1-2.55-1.1-.94,0-1.71.19-2.31.58-.6.38-1.07.93-1.39,1.62v10.11l2.55.44v1.97h-8.17Z"/>
          <path class="cls-5" d="m229.5,509.42c-1.56,0-2.92-.36-4.08-1.07-1.16-.71-2.05-1.71-2.68-2.98-.63-1.27-.95-2.74-.95-4.41v-.69c0-1.6.33-3.04.99-4.3.66-1.27,1.54-2.27,2.64-3,1.1-.73,2.3-1.1,3.6-1.1,1.52,0,2.79.31,3.82.94,1.03.62,1.8,1.5,2.32,2.63.52,1.13.78,2.46.78,3.99v1.92h-10.97l-.05.08c.02,1.08.21,2.04.57,2.88.36.84.88,1.5,1.55,1.98.68.48,1.49.72,2.44.72,1.04,0,1.96-.15,2.74-.45.79-.3,1.47-.71,2.04-1.23l1.2,2c-.6.58-1.4,1.08-2.4,1.48-1,.4-2.19.6-3.59.6Zm-4.42-10.47h7.8v-.41c0-.81-.14-1.54-.43-2.18-.29-.64-.71-1.15-1.28-1.52-.57-.37-1.28-.55-2.13-.55-.69,0-1.31.2-1.88.6-.56.4-1.03.95-1.39,1.63-.37.69-.6,1.47-.72,2.34l.03.08Z"/>
          <path class="cls-5" d="m238.34,509.09v-1.97l2.55-.44v-12.08l-2.55-.44v-1.98h5.3l.22,2.52c.56-.9,1.27-1.59,2.12-2.09.85-.5,1.81-.74,2.9-.74,1.82,0,3.23.53,4.23,1.6,1,1.07,1.5,2.72,1.5,4.95v8.27l2.55.44v1.97h-8.17v-1.97l2.55-.44v-8.2c0-1.49-.29-2.55-.88-3.17-.59-.62-1.49-.94-2.7-.94-.89,0-1.67.21-2.35.64-.68.43-1.23,1.01-1.63,1.75v9.92l2.55.44v1.97h-8.17Z"/>
          <path class="cls-5" d="m264.67,509.35c-1.25,0-2.24-.37-2.98-1.1s-1.1-1.91-1.1-3.52v-10.27h-2.67v-2.28h2.67v-4.08h3.08v4.08h3.67v2.28h-3.67v10.27c0,.81.16,1.41.48,1.8.32.38.75.58,1.3.58.36,0,.77-.03,1.22-.1.45-.07.8-.13,1.05-.18l.42,2.02c-.45.13-1,.25-1.65.36-.65.1-1.26.16-1.82.16Z"/>
          <path class="cls-5" d="m277.44,509.42c-1.56,0-2.91-.37-4.04-1.1-1.13-.73-2-1.75-2.62-3.05-.62-1.3-.92-2.78-.92-4.45v-.34c0-1.67.31-3.15.92-4.45.61-1.3,1.49-2.32,2.62-3.05,1.13-.74,2.47-1.11,4.01-1.11s2.91.37,4.04,1.11c1.13.74,2,1.75,2.62,3.05.61,1.29.92,2.78.92,4.45v.34c0,1.68-.31,3.16-.92,4.46-.62,1.3-1.48,2.31-2.61,3.04-1.12.73-2.46,1.09-4.02,1.09Zm0-2.41c.98,0,1.8-.27,2.46-.8.66-.54,1.16-1.27,1.5-2.2.34-.93.51-1.99.51-3.18v-.34c0-1.19-.17-2.25-.51-3.18-.34-.93-.84-1.67-1.51-2.2-.67-.54-1.5-.8-2.48-.8s-1.8.27-2.47.8c-.67.54-1.17,1.27-1.5,2.2-.33.93-.5,1.99-.5,3.18v.34c0,1.19.17,2.25.5,3.18.33.93.84,1.67,1.51,2.2.67.54,1.5.8,2.49.8Z"/>
        </g>
      </g>
      <g>
        <rect class="cls-3" x="336" y="357" width="280" height="330" rx="8" ry="8"/>
        <g>
          <path class="cls-5" d="m385.59,451.49v-1.97l2.55-.44v-17.92l-2.55-.44v-1.98h9.81c2.38,0,4.23.51,5.57,1.54,1.34,1.03,2.01,2.57,2.01,4.62,0,1.01-.32,1.91-.96,2.71s-1.49,1.39-2.54,1.77c.92.19,1.7.55,2.36,1.1s1.16,1.21,1.52,2,.54,1.65.54,2.59c0,2.08-.68,3.67-2.03,4.77-1.35,1.1-3.19,1.65-5.5,1.65h-10.78Zm5.62-13.08h4.98c1.1,0,2-.32,2.68-.96.68-.64,1.02-1.51,1.02-2.62,0-1.23-.39-2.15-1.16-2.76-.77-.61-1.89-.91-3.34-.91h-4.19v7.25Zm0,10.67h5.16c1.41,0,2.5-.35,3.27-1.04.78-.69,1.16-1.67,1.16-2.95,0-.9-.14-1.66-.43-2.3-.29-.64-.72-1.12-1.31-1.47-.59-.34-1.33-.52-2.23-.52h-5.62v8.27Z"/>
          <path class="cls-5" d="m406.11,451.49v-1.97l2.55-.44v-12.08l-2.55-.44v-1.98h5.3l.27,2.16.03.3c.48-.86,1.07-1.54,1.77-2.03s1.51-.73,2.41-.73c.32,0,.65.03.99.09.34.06.58.11.73.16l-.41,2.86-2.14-.12c-.81-.05-1.5.13-2.05.55-.55.42-.98.99-1.28,1.7v9.58l2.55.44v1.97h-8.17Z"/>
          <path class="cls-5" d="m426.81,451.82c-1.56,0-2.91-.37-4.04-1.1-1.13-.73-2-1.75-2.62-3.05-.62-1.3-.92-2.78-.92-4.45v-.34c0-1.67.31-3.15.92-4.45.61-1.3,1.49-2.32,2.62-3.05,1.13-.74,2.47-1.11,4.01-1.11s2.91.37,4.04,1.11c1.13.74,2,1.75,2.62,3.05.61,1.29.92,2.78.92,4.45v.34c0,1.68-.31,3.16-.92,4.46-.62,1.3-1.48,2.31-2.61,3.04s-2.46,1.09-4.02,1.09Zm0-2.41c.98,0,1.8-.27,2.46-.8.66-.54,1.16-1.27,1.5-2.2.34-.93.51-1.99.51-3.18v-.34c0-1.19-.17-2.25-.51-3.18-.34-.93-.84-1.67-1.51-2.2-.67-.54-1.5-.8-2.48-.8s-1.8.27-2.47.8c-.67.54-1.17,1.27-1.5,2.2-.33.93-.5,1.99-.5,3.18v.34c0,1.19.17,2.25.5,3.18.33.93.84,1.67,1.51,2.2s1.5.8,2.49.8Z"/>
          <path class="cls-5" d="m444.92,451.82c-1.53,0-2.87-.36-4-1.07-1.14-.71-2.02-1.71-2.64-2.98s-.94-2.74-.94-4.41v-.66c0-1.6.3-3.04.91-4.31.6-1.27,1.47-2.28,2.61-3.02,1.13-.74,2.49-1.11,4.06-1.11,1.36,0,2.56.22,3.59.67,1.03.45,1.89,1.06,2.59,1.84l.08,4.06h-2.41l-.53-2.95c-.35-.36-.8-.66-1.33-.88s-1.16-.33-1.88-.33c-.92,0-1.72.27-2.41.81-.69.54-1.23,1.27-1.62,2.17-.39.91-.58,1.92-.58,3.03v.66c0,1.23.18,2.3.54,3.2s.88,1.61,1.55,2.1,1.47.74,2.4.74c1.04,0,1.91-.29,2.59-.86s1.11-1.36,1.27-2.36h2.77l.03.09c-.05.97-.34,1.88-.86,2.72-.52.84-1.26,1.52-2.23,2.04-.96.52-2.15.77-3.55.77Z"/>
          <path class="cls-5" d="m453.56,451.49v-1.97l2.55-.44v-19.55l-2.55-.44v-1.98h5.62v9.72c.58-.81,1.3-1.44,2.14-1.89s1.78-.67,2.81-.67c1.81,0,3.22.54,4.22,1.62s1.5,2.75,1.5,5v8.19l2.55.44v1.97h-8.17v-1.97l2.55-.44v-8.22c0-1.4-.3-2.43-.9-3.09-.6-.67-1.49-1-2.68-1-.84,0-1.61.2-2.3.6-.69.4-1.26.95-1.71,1.63v10.08l2.55.44v1.97h-8.17Z"/>
          <path class="cls-5" d="m481.31,451.82c-1.83,0-3.27-.59-4.3-1.77s-1.55-3.01-1.55-5.5v-7.55l-1.94-.44v-1.98h5.02v10c0,1.8.27,3.04.8,3.72s1.36,1.02,2.48,1.02,2-.22,2.71-.66c.71-.44,1.25-1.07,1.62-1.88v-9.77l-2.27-.44v-1.98h5.34v14.5l1.94.44v1.97h-4.7l-.2-2.5c-.53.91-1.22,1.6-2.05,2.09-.84.49-1.8.73-2.9.73Z"/>
          <path class="cls-5" d="m493.3,451.49v-1.97l2.55-.44v-12.08l-2.55-.44v-1.98h5.3l.27,2.16.03.3c.48-.86,1.07-1.54,1.77-2.03s1.51-.73,2.41-.73c.32,0,.65.03.99.09.34.06.58.11.73.16l-.41,2.86-2.14-.12c-.81-.05-1.5.13-2.05.55-.55.42-.98.99-1.28,1.7v9.58l2.55.44v1.97h-8.17Z"/>
          <path class="cls-5" d="m512.14,451.82c-1.76,0-3.1-.43-4.02-1.29-.92-.86-1.38-2.07-1.38-3.63,0-1.07.29-2.01.88-2.8.59-.8,1.44-1.42,2.55-1.86,1.11-.44,2.45-.66,4-.66h3.02v-1.66c0-1.02-.31-1.81-.93-2.38-.62-.56-1.49-.84-2.62-.84-.71,0-1.32.09-1.84.26-.52.17-1,.41-1.42.71l-.33,2.36h-2.38v-3.88c.76-.61,1.65-1.08,2.66-1.4,1.01-.32,2.13-.48,3.36-.48,2.05,0,3.66.49,4.83,1.47,1.17.98,1.75,2.38,1.75,4.2v8.14c0,.22,0,.43,0,.64,0,.21.02.42.04.62l1.64.17v1.97h-4.42c-.09-.46-.17-.87-.22-1.23-.05-.36-.09-.73-.11-1.09-.59.76-1.34,1.39-2.23,1.9s-1.84.76-2.85.76Zm.45-2.58c1.02,0,1.95-.25,2.8-.73s1.45-1.08,1.81-1.77v-3.06h-3.12c-1.42,0-2.48.34-3.19,1.02-.71.68-1.06,1.43-1.06,2.27,0,.74.23,1.3.69,1.7.46.39,1.15.59,2.08.59Z"/>
          <path class="cls-5" d="m538.95,451.82c-1.38,0-2.55-.34-3.54-1.02s-1.74-1.63-2.26-2.85c-.52-1.22-.78-2.64-.78-4.27v-.33c0-1.81.26-3.4.78-4.77.52-1.36,1.28-2.42,2.27-3.18.99-.75,2.18-1.13,3.56-1.13,1,0,1.88.18,2.65.55s1.42.9,1.96,1.6v-6.89l-2.55-.44v-1.98h5.62v21.97l2.55.44v1.97h-5.22l-.25-2.02c-.55.77-1.23,1.35-2.02,1.75s-1.72.59-2.77.59Zm.78-2.5c.92,0,1.69-.21,2.31-.62s1.14-1,1.55-1.77v-7.84c-.4-.71-.91-1.27-1.55-1.69-.64-.42-1.4-.62-2.28-.62-.98,0-1.79.28-2.42.84-.64.56-1.11,1.33-1.42,2.31s-.47,2.13-.47,3.43v.33c0,1.7.35,3.06,1.05,4.09.7,1.03,1.78,1.55,3.23,1.55Z"/>
          <path class="cls-5" d="m558.91,451.82c-1.56,0-2.91-.37-4.04-1.1-1.13-.73-2-1.75-2.62-3.05-.62-1.3-.92-2.78-.92-4.45v-.34c0-1.67.31-3.15.92-4.45.61-1.3,1.49-2.32,2.62-3.05,1.13-.74,2.47-1.11,4.01-1.11s2.91.37,4.04,1.11c1.13.74,2,1.75,2.62,3.05.61,1.29.92,2.78.92,4.45v.34c0,1.68-.31,3.16-.92,4.46-.62,1.3-1.48,2.31-2.61,3.04s-2.46,1.09-4.02,1.09Zm0-2.41c.98,0,1.8-.27,2.46-.8.66-.54,1.16-1.27,1.5-2.2.34-.93.51-1.99.51-3.18v-.34c0-1.19-.17-2.25-.51-3.18-.34-.93-.84-1.67-1.51-2.2-.67-.54-1.5-.8-2.48-.8s-1.8.27-2.47.8c-.67.54-1.17,1.27-1.5,2.2-.33.93-.5,1.99-.5,3.18v.34c0,1.19.17,2.25.5,3.18.33.93.84,1.67,1.51,2.2s1.5.8,2.49.8Z"/>
          <path class="cls-5" d="m383.03,489.89v-1.97l2.55-.44v-12.08l-2.55-.44v-1.98h5.62v14.5l2.55.44v1.97h-8.17Zm2.39-21.08v-3.3h3.23v3.3h-3.23Z"/>
          <path class="cls-5" d="m393.33,489.89v-1.97l2.55-.44v-12.08l-2.55-.44v-1.98h5.3l.22,2.52c.56-.9,1.27-1.59,2.12-2.09.85-.5,1.81-.74,2.9-.74,1.82,0,3.23.53,4.23,1.6s1.5,2.72,1.5,4.95v8.27l2.55.44v1.97h-8.17v-1.97l2.55-.44v-8.2c0-1.49-.29-2.55-.88-3.17-.59-.62-1.49-.94-2.7-.94-.89,0-1.67.21-2.35.64-.68.43-1.23,1.01-1.63,1.75v9.92l2.55.44v1.97h-8.17Z"/>
          <path class="cls-5" d="m419.92,489.89l-6.02-14.69-1.75-.23v-1.98h7.09v1.98l-2.2.31,3.75,9.62.44,1.36h.09l.5-1.36,3.48-9.62-2.27-.31v-1.98h7.08v1.98l-1.78.23-5.72,14.69h-2.7Z"/>
          <path class="cls-5" d="m439.06,490.22c-1.56,0-2.92-.36-4.08-1.07s-2.05-1.71-2.68-2.98c-.63-1.27-.95-2.74-.95-4.41v-.69c0-1.6.33-3.04.99-4.3.66-1.27,1.54-2.27,2.64-3,1.1-.73,2.3-1.1,3.6-1.1,1.52,0,2.79.31,3.82.94,1.03.62,1.8,1.5,2.32,2.63.52,1.13.78,2.46.78,3.99v1.92h-10.97l-.05.08c.02,1.08.21,2.04.57,2.88s.88,1.5,1.55,1.98c.68.48,1.49.72,2.44.72,1.04,0,1.96-.15,2.74-.45.79-.3,1.47-.71,2.04-1.23l1.2,2c-.6.58-1.4,1.08-2.4,1.48-1,.4-2.19.6-3.59.6Zm-4.42-10.47h7.8v-.41c0-.81-.14-1.54-.43-2.18-.29-.64-.71-1.15-1.28-1.52-.57-.37-1.28-.55-2.13-.55-.69,0-1.31.2-1.88.6s-1.03.95-1.39,1.63c-.37.69-.6,1.47-.72,2.34l.03.08Z"/>
          <path class="cls-5" d="m454.83,490.22c-1.14,0-2.2-.11-3.19-.34-.99-.23-2.04-.58-3.16-1.06l-.03-4.02h2.33l.58,2.42c.58.24,1.15.41,1.7.52s1.14.16,1.77.16c1.25,0,2.15-.24,2.69-.72.54-.48.81-1.07.81-1.78,0-.67-.27-1.23-.82-1.7s-1.54-.86-2.98-1.18c-2.04-.47-3.54-1.1-4.51-1.88-.96-.79-1.45-1.84-1.45-3.15,0-.92.27-1.74.8-2.46s1.27-1.3,2.22-1.73c.95-.43,2.05-.64,3.31-.64s2.38.15,3.29.44c.91.29,1.71.68,2.38,1.17l.16,3.86h-2.31l-.5-2.25c-.37-.27-.8-.48-1.3-.62s-1.07-.22-1.72-.22c-.96,0-1.74.22-2.34.67-.6.45-.9,1.01-.9,1.69,0,.4.09.74.26,1.03s.5.55.99.79c.49.23,1.21.47,2.16.7,2.35.55,4,1.25,4.93,2.11.93.85,1.4,1.91,1.4,3.16,0,1.43-.53,2.62-1.59,3.59-1.06.96-2.72,1.45-4.99,1.45Z"/>
          <path class="cls-5" d="m469.92,490.15c-1.25,0-2.24-.37-2.98-1.1s-1.1-1.91-1.1-3.52v-10.27h-2.67v-2.28h2.67v-4.08h3.08v4.08h3.67v2.28h-3.67v10.27c0,.81.16,1.41.48,1.8.32.39.75.58,1.3.58.36,0,.77-.03,1.22-.1.45-.07.8-.13,1.05-.18l.42,2.02c-.45.14-1,.25-1.65.36-.65.1-1.26.16-1.82.16Z"/>
          <path class="cls-5" d="m475.25,489.89v-1.97l2.55-.44v-12.08l-2.55-.44v-1.98h5.62v14.5l2.55.44v1.97h-8.17Zm2.39-21.08v-3.3h3.23v3.3h-3.23Z"/>
          <path class="cls-5" d="m492.97,496.72c-.81,0-1.69-.11-2.64-.34-.95-.22-1.78-.53-2.5-.91l.8-2.39c.57.3,1.25.55,2.03.75s1.54.3,2.28.3c1.38,0,2.38-.39,3.02-1.16s.96-1.87.96-3.3v-1.61c-.55.71-1.21,1.25-1.98,1.61-.77.36-1.66.55-2.66.55-1.38,0-2.56-.34-3.56-1.02s-1.77-1.64-2.3-2.86c-.54-1.22-.8-2.64-.8-4.26v-.33c0-1.81.27-3.4.8-4.77.54-1.36,1.3-2.42,2.3-3.18s2.2-1.13,3.59-1.13c1.06,0,1.99.21,2.8.62.8.42,1.47,1.02,2.02,1.81l.28-2.12h2.59v16.69c0,1.46-.27,2.71-.82,3.77s-1.34,1.86-2.39,2.43-2.32.85-3.82.85Zm.08-9c.93,0,1.7-.21,2.33-.63s1.14-1.02,1.55-1.79v-7.78c-.4-.72-.91-1.29-1.55-1.71-.64-.42-1.4-.63-2.3-.63-.98,0-1.79.28-2.45.84-.65.56-1.14,1.34-1.46,2.32-.32.98-.48,2.12-.48,3.41v.33c0,1.7.36,3.06,1.08,4.09s1.81,1.55,3.28,1.55Zm6.48-12.22l-1.2-2.52h3.77v1.97l-2.56.55Z"/>
          <path class="cls-5" d="m509.09,490.22c-1.76,0-3.1-.43-4.02-1.29-.92-.86-1.38-2.07-1.38-3.63,0-1.07.29-2.01.88-2.8.59-.8,1.44-1.42,2.55-1.86,1.11-.44,2.45-.66,4-.66h3.02v-1.66c0-1.02-.31-1.81-.93-2.38-.62-.56-1.49-.84-2.62-.84-.71,0-1.32.09-1.84.26-.52.17-1,.41-1.42.71l-.33,2.36h-2.38v-3.88c.76-.61,1.65-1.08,2.66-1.4,1.01-.32,2.13-.48,3.36-.48,2.05,0,3.66.49,4.83,1.47,1.17.98,1.75,2.38,1.75,4.2v8.14c0,.22,0,.43,0,.64,0,.21.02.42.04.62l1.64.17v1.97h-4.42c-.09-.46-.17-.87-.22-1.23-.05-.36-.09-.73-.11-1.09-.59.76-1.34,1.39-2.23,1.9s-1.84.76-2.85.76Zm.45-2.58c1.02,0,1.95-.25,2.8-.73s1.45-1.08,1.81-1.77v-3.06h-3.12c-1.42,0-2.48.34-3.19,1.02-.71.68-1.06,1.43-1.06,2.27,0,.74.23,1.3.69,1.7.46.39,1.15.59,2.08.59Z"/>
          <path class="cls-5" d="m527.95,490.22c-1.38,0-2.55-.34-3.54-1.02s-1.74-1.63-2.26-2.85c-.52-1.22-.78-2.64-.78-4.27v-.33c0-1.81.26-3.4.78-4.77.52-1.36,1.28-2.42,2.27-3.18.99-.75,2.18-1.13,3.56-1.13,1,0,1.88.18,2.65.55s1.42.9,1.96,1.6v-6.89l-2.55-.44v-1.98h5.62v21.97l2.55.44v1.97h-5.22l-.25-2.02c-.55.77-1.23,1.35-2.02,1.75s-1.72.59-2.77.59Zm.78-2.5c.92,0,1.69-.21,2.31-.62s1.14-1,1.55-1.77v-7.84c-.4-.71-.91-1.27-1.55-1.69-.64-.42-1.4-.62-2.28-.62-.98,0-1.79.28-2.42.84-.64.56-1.11,1.33-1.42,2.31s-.47,2.13-.47,3.43v.33c0,1.7.35,3.06,1.05,4.09.7,1.03,1.78,1.55,3.23,1.55Z"/>
          <path class="cls-5" d="m547.91,490.22c-1.56,0-2.91-.37-4.04-1.1-1.13-.73-2-1.75-2.62-3.05-.62-1.3-.92-2.78-.92-4.45v-.34c0-1.67.31-3.15.92-4.45.61-1.3,1.49-2.32,2.62-3.05,1.13-.74,2.47-1.11,4.01-1.11s2.91.37,4.04,1.11c1.13.74,2,1.75,2.62,3.05.61,1.29.92,2.78.92,4.45v.34c0,1.68-.31,3.16-.92,4.46-.62,1.3-1.48,2.31-2.61,3.04s-2.46,1.09-4.02,1.09Zm0-2.41c.98,0,1.8-.27,2.46-.8.66-.54,1.16-1.27,1.5-2.2.34-.93.51-1.99.51-3.18v-.34c0-1.19-.17-2.25-.51-3.18-.34-.93-.84-1.67-1.51-2.2-.67-.54-1.5-.8-2.48-.8s-1.8.27-2.47.8c-.67.54-1.17,1.27-1.5,2.2-.33.93-.5,1.99-.5,3.18v.34c0,1.19.17,2.25.5,3.18.33.93.84,1.67,1.51,2.2s1.5.8,2.49.8Z"/>
          <path class="cls-5" d="m557.8,489.89v-1.97l2.55-.44v-12.08l-2.55-.44v-1.98h5.3l.27,2.16.03.3c.48-.86,1.07-1.54,1.77-2.03s1.51-.73,2.41-.73c.32,0,.65.03.99.09.34.06.58.11.73.16l-.41,2.86-2.14-.12c-.81-.05-1.5.13-2.05.55-.55.42-.98.99-1.28,1.7v9.58l2.55.44v1.97h-8.17Z"/>
        </g>
      </g>
      <g>
        <rect class="cls-6" x="415" y="20" width="450" height="173" rx="8" ry="8"/>
        <g>
          <path class="cls-2" d="m594.09,81.79v-1.97l2.55-.44v-17.92l-2.55-.44v-1.98h8.91c2.01,0,3.76.48,5.26,1.44,1.49.96,2.66,2.28,3.49,3.95.83,1.68,1.25,3.59,1.25,5.75v.48c0,2.11-.4,4-1.2,5.68-.8,1.68-1.94,3.01-3.41,3.98-1.47.97-3.22,1.46-5.23,1.46h-9.06Zm5.62-2.41h3.28c1.44,0,2.67-.39,3.7-1.18,1.03-.79,1.83-1.84,2.38-3.16.56-1.32.84-2.78.84-4.38v-.52c0-1.66-.28-3.14-.84-4.45-.56-1.31-1.35-2.34-2.38-3.1-1.03-.76-2.27-1.14-3.7-1.14h-3.28v17.92Z"/>
          <path class="cls-2" d="m615.27,81.79v-1.97l2.55-.44v-17.92l-2.55-.44v-1.98h8.91c2.01,0,3.76.48,5.26,1.44,1.49.96,2.66,2.28,3.49,3.95.83,1.68,1.25,3.59,1.25,5.75v.48c0,2.11-.4,4-1.2,5.68-.8,1.68-1.94,3.01-3.41,3.98-1.47.97-3.22,1.46-5.23,1.46h-9.06Zm5.62-2.41h3.28c1.44,0,2.67-.39,3.7-1.18,1.03-.79,1.83-1.84,2.38-3.16.56-1.32.84-2.78.84-4.38v-.52c0-1.66-.28-3.14-.84-4.45-.56-1.31-1.35-2.34-2.38-3.1-1.03-.76-2.27-1.14-3.7-1.14h-3.28v17.92Z"/>
          <path class="cls-2" d="m647.6,82.12c-2.28,0-4.19-.5-5.71-1.5-1.53-1-2.67-2.37-3.44-4.11-.77-1.74-1.15-3.71-1.15-5.92v-.33c0-2.23.4-4.21,1.2-5.95.8-1.73,1.95-3.1,3.45-4.1s3.29-1.5,5.38-1.5c1.47,0,2.81.23,4.03.69,1.22.46,2.23,1.04,3.03,1.75v4.91h-2.45l-.33-3.59c-.33-.26-.72-.48-1.15-.66-.43-.18-.91-.31-1.44-.41-.53-.09-1.1-.14-1.71-.14-1.49,0-2.75.38-3.78,1.15s-1.81,1.82-2.34,3.16-.8,2.9-.8,4.66v.36c0,1.91.28,3.54.85,4.88.57,1.35,1.4,2.38,2.48,3.09,1.09.71,2.41,1.06,3.98,1.06.73,0,1.44-.09,2.14-.27.7-.18,1.28-.41,1.73-.69l.34-3.17h2.41v4.94c-.85.53-1.88.95-3.06,1.24s-2.41.45-3.67.45Z"/>
          <path class="cls-2" d="m657.68,81.79v-1.97l2.55-.44v-17.92l-2.55-.44v-1.98h6.66l7.33,17.27h.09l7.09-17.27h6.86v1.98l-2.55.44v17.92l2.55.44v1.97h-8.17v-1.97l2.69-.44v-16.14l-.08-.02-7.39,17.75h-2.05l-7.64-17.72-.08.02.11,9.52v6.59l2.75.44v1.97h-8.17Z"/>
          <path class="cls-2" d="m436.32,120.19v-1.97l2.55-.44v-17.92l-2.55-.44v-1.98h8.91c2.01,0,3.76.48,5.26,1.44,1.49.96,2.66,2.28,3.49,3.95.83,1.68,1.25,3.59,1.25,5.75v.48c0,2.1-.4,4-1.2,5.68-.8,1.68-1.94,3.01-3.41,3.98-1.47.97-3.22,1.46-5.23,1.46h-9.06Zm5.62-2.41h3.28c1.44,0,2.67-.39,3.7-1.18,1.03-.79,1.83-1.84,2.38-3.16.56-1.32.84-2.78.84-4.38v-.52c0-1.66-.28-3.14-.84-4.45-.56-1.31-1.35-2.34-2.38-3.1-1.03-.76-2.27-1.14-3.7-1.14h-3.28v17.92Z"/>
          <path class="cls-2" d="m465.04,120.52c-1.56,0-2.91-.37-4.04-1.1-1.13-.73-2-1.75-2.62-3.05-.62-1.3-.92-2.78-.92-4.45v-.34c0-1.67.31-3.15.92-4.45.61-1.3,1.49-2.31,2.62-3.05,1.13-.74,2.47-1.11,4.01-1.11s2.91.37,4.04,1.11c1.13.74,2,1.76,2.62,3.05.61,1.29.92,2.78.92,4.45v.34c0,1.68-.31,3.16-.92,4.46-.62,1.3-1.48,2.31-2.61,3.04-1.12.73-2.46,1.09-4.02,1.09Zm0-2.41c.98,0,1.8-.27,2.46-.8.66-.54,1.16-1.27,1.5-2.2.34-.93.51-1.99.51-3.18v-.34c0-1.19-.17-2.25-.51-3.18-.34-.93-.84-1.67-1.51-2.2-.67-.54-1.5-.8-2.48-.8s-1.8.27-2.47.8c-.67.54-1.17,1.27-1.5,2.2-.33.93-.5,1.99-.5,3.18v.34c0,1.19.17,2.25.5,3.18.33.93.84,1.67,1.51,2.2.67.54,1.5.8,2.49.8Z"/>
          <path class="cls-2" d="m481.8,120.52c-1.14,0-2.2-.12-3.19-.34-.99-.23-2.04-.58-3.16-1.06l-.03-4.02h2.33l.58,2.42c.58.24,1.15.41,1.7.52s1.14.16,1.77.16c1.25,0,2.15-.24,2.69-.72.54-.48.81-1.07.81-1.78,0-.67-.27-1.23-.82-1.7-.55-.46-1.54-.86-2.98-1.18-2.04-.47-3.54-1.1-4.51-1.88-.96-.79-1.45-1.84-1.45-3.15,0-.92.27-1.74.8-2.46.53-.72,1.27-1.3,2.22-1.73.95-.43,2.05-.64,3.31-.64s2.38.15,3.29.44c.91.29,1.71.68,2.38,1.17l.16,3.86h-2.31l-.5-2.25c-.37-.27-.8-.48-1.3-.62-.5-.15-1.07-.22-1.72-.22-.96,0-1.74.22-2.34.67-.6.45-.9,1.01-.9,1.69,0,.4.09.74.26,1.03.17.29.5.55.99.79.49.23,1.21.47,2.16.7,2.35.55,4,1.26,4.93,2.11.93.85,1.4,1.91,1.4,3.16,0,1.43-.53,2.62-1.59,3.59-1.06.96-2.72,1.45-4.99,1.45Z"/>
          <path class="cls-2" d="m497.77,120.52c-1.14,0-2.2-.12-3.19-.34-.99-.23-2.04-.58-3.16-1.06l-.03-4.02h2.33l.58,2.42c.58.24,1.15.41,1.7.52s1.14.16,1.77.16c1.25,0,2.15-.24,2.69-.72.54-.48.81-1.07.81-1.78,0-.67-.27-1.23-.82-1.7-.55-.46-1.54-.86-2.98-1.18-2.04-.47-3.54-1.1-4.51-1.88-.96-.79-1.45-1.84-1.45-3.15,0-.92.27-1.74.8-2.46.53-.72,1.27-1.3,2.22-1.73.95-.43,2.05-.64,3.31-.64s2.38.15,3.29.44c.91.29,1.71.68,2.38,1.17l.16,3.86h-2.31l-.5-2.25c-.37-.27-.8-.48-1.3-.62-.5-.15-1.07-.22-1.72-.22-.96,0-1.74.22-2.34.67-.6.45-.9,1.01-.9,1.69,0,.4.09.74.26,1.03.17.29.5.55.99.79.49.23,1.21.47,2.16.7,2.35.55,4,1.26,4.93,2.11.93.85,1.4,1.91,1.4,3.16,0,1.43-.53,2.62-1.59,3.59-1.06.96-2.72,1.45-4.99,1.45Z"/>
          <path class="cls-2" d="m506.79,120.19v-1.97l2.55-.44v-12.08l-2.55-.44v-1.98h5.62v14.5l2.55.44v1.97h-8.17Zm2.39-21.08v-3.3h3.23v3.3h-3.23Z"/>
          <path class="cls-2" d="m524.79,120.52c-1.56,0-2.92-.36-4.08-1.07-1.16-.71-2.05-1.71-2.68-2.98-.63-1.27-.95-2.74-.95-4.41v-.69c0-1.6.33-3.04.99-4.3.66-1.27,1.54-2.27,2.64-3,1.1-.73,2.3-1.1,3.6-1.1,1.52,0,2.79.31,3.82.94,1.03.62,1.8,1.5,2.32,2.63.52,1.13.78,2.46.78,3.99v1.92h-10.97l-.05.08c.02,1.08.21,2.04.57,2.88.36.84.88,1.5,1.55,1.98.68.48,1.49.72,2.44.72,1.04,0,1.96-.15,2.74-.45.79-.3,1.47-.71,2.04-1.23l1.2,2c-.6.58-1.4,1.08-2.4,1.48-1,.4-2.19.6-3.59.6Zm-5.28-20.59v-.41l3.84-3.7h1.86l3.88,3.72v.39h-2.52l-2.3-2.31-2.27,2.31h-2.5Zm.86,10.12h7.8v-.41c0-.81-.14-1.54-.43-2.18-.29-.64-.71-1.15-1.28-1.52-.57-.37-1.28-.55-2.13-.55-.69,0-1.31.2-1.88.6-.56.4-1.03.95-1.39,1.63-.37.69-.6,1.47-.72,2.34l.03.08Z"/>
          <path class="cls-2" d="m548.23,120.52c-1.38,0-2.55-.34-3.54-1.02-.98-.68-1.74-1.63-2.26-2.85-.52-1.22-.78-2.64-.78-4.27v-.33c0-1.81.26-3.4.78-4.77.52-1.36,1.28-2.42,2.27-3.18.99-.75,2.18-1.13,3.56-1.13,1,0,1.88.19,2.65.55.77.37,1.42.9,1.96,1.6v-6.89l-2.55-.44v-1.98h5.62v21.97l2.55.44v1.97h-5.22l-.25-2.02c-.55.77-1.23,1.35-2.02,1.75s-1.72.59-2.77.59Zm.78-2.5c.92,0,1.69-.21,2.31-.62.62-.42,1.14-1,1.55-1.77v-7.84c-.4-.71-.91-1.27-1.55-1.69-.64-.42-1.4-.62-2.28-.62-.98,0-1.79.28-2.42.84-.64.56-1.11,1.33-1.42,2.31s-.47,2.13-.47,3.43v.33c0,1.7.35,3.06,1.05,4.09.7,1.03,1.78,1.55,3.23,1.55Z"/>
          <path class="cls-2" d="m568.24,120.52c-1.56,0-2.92-.36-4.08-1.07-1.16-.71-2.05-1.71-2.68-2.98-.63-1.27-.95-2.74-.95-4.41v-.69c0-1.6.33-3.04.99-4.3.66-1.27,1.54-2.27,2.64-3,1.1-.73,2.3-1.1,3.6-1.1,1.52,0,2.79.31,3.82.94,1.03.62,1.8,1.5,2.32,2.63.52,1.13.78,2.46.78,3.99v1.92h-10.97l-.05.08c.02,1.08.21,2.04.57,2.88.36.84.88,1.5,1.55,1.98.68.48,1.49.72,2.44.72,1.04,0,1.96-.15,2.74-.45.79-.3,1.47-.71,2.04-1.23l1.2,2c-.6.58-1.4,1.08-2.4,1.48-1,.4-2.19.6-3.59.6Zm-4.42-10.47h7.8v-.41c0-.81-.14-1.54-.43-2.18-.29-.64-.71-1.15-1.28-1.52-.57-.37-1.28-.55-2.13-.55-.69,0-1.31.2-1.88.6-.56.4-1.03.95-1.39,1.63-.37.69-.6,1.47-.72,2.34l.03.08Z"/>
          <path class="cls-2" d="m585.15,120.19v-1.97l2.55-.44v-17.92l-2.55-.44v-1.98h8.91c2.01,0,3.76.48,5.26,1.44,1.49.96,2.66,2.28,3.49,3.95.83,1.68,1.25,3.59,1.25,5.75v.48c0,2.1-.4,4-1.2,5.68-.8,1.68-1.94,3.01-3.41,3.98-1.47.97-3.22,1.46-5.23,1.46h-9.06Zm5.62-2.41h3.28c1.44,0,2.67-.39,3.7-1.18,1.03-.79,1.83-1.84,2.38-3.16.56-1.32.84-2.78.84-4.38v-.52c0-1.66-.28-3.14-.84-4.45-.56-1.31-1.35-2.34-2.38-3.1-1.03-.76-2.27-1.14-3.7-1.14h-3.28v17.92Z"/>
          <path class="cls-2" d="m613.93,120.52c-1.56,0-2.92-.36-4.08-1.07-1.16-.71-2.05-1.71-2.68-2.98-.63-1.27-.95-2.74-.95-4.41v-.69c0-1.6.33-3.04.99-4.3.66-1.27,1.54-2.27,2.64-3,1.1-.73,2.3-1.1,3.6-1.1,1.52,0,2.79.31,3.82.94,1.03.62,1.8,1.5,2.32,2.63.52,1.13.78,2.46.78,3.99v1.92h-10.97l-.05.08c.02,1.08.21,2.04.57,2.88.36.84.88,1.5,1.55,1.98.68.48,1.49.72,2.44.72,1.04,0,1.96-.15,2.74-.45.79-.3,1.47-.71,2.04-1.23l1.2,2c-.6.58-1.4,1.08-2.4,1.48-1,.4-2.19.6-3.59.6Zm-4.42-10.47h7.8v-.41c0-.81-.14-1.54-.43-2.18-.29-.64-.71-1.15-1.28-1.52-.57-.37-1.28-.55-2.13-.55-.69,0-1.31.2-1.88.6-.56.4-1.03.95-1.39,1.63-.37.69-.6,1.47-.72,2.34l.03.08Z"/>
          <path class="cls-2" d="m629.7,120.52c-1.14,0-2.2-.12-3.19-.34-.99-.23-2.04-.58-3.16-1.06l-.03-4.02h2.33l.58,2.42c.58.24,1.15.41,1.7.52s1.14.16,1.77.16c1.25,0,2.15-.24,2.69-.72.54-.48.81-1.07.81-1.78,0-.67-.27-1.23-.82-1.7-.55-.46-1.54-.86-2.98-1.18-2.04-.47-3.54-1.1-4.51-1.88-.96-.79-1.45-1.84-1.45-3.15,0-.92.27-1.74.8-2.46.53-.72,1.27-1.3,2.22-1.73.95-.43,2.05-.64,3.31-.64s2.38.15,3.29.44c.91.29,1.71.68,2.38,1.17l.16,3.86h-2.31l-.5-2.25c-.37-.27-.8-.48-1.3-.62-.5-.15-1.07-.22-1.72-.22-.96,0-1.74.22-2.34.67-.6.45-.9,1.01-.9,1.69,0,.4.09.74.26,1.03.17.29.5.55.99.79.49.23,1.21.47,2.16.7,2.35.55,4,1.26,4.93,2.11.93.85,1.4,1.91,1.4,3.16,0,1.43-.53,2.62-1.59,3.59-1.06.96-2.72,1.45-4.99,1.45Z"/>
          <path class="cls-2" d="m646.52,120.52c-1.56,0-2.92-.36-4.08-1.07-1.16-.71-2.05-1.71-2.68-2.98-.63-1.27-.95-2.74-.95-4.41v-.69c0-1.6.33-3.04.99-4.3.66-1.27,1.54-2.27,2.64-3,1.1-.73,2.3-1.1,3.6-1.1,1.52,0,2.79.31,3.82.94,1.03.62,1.8,1.5,2.32,2.63.52,1.13.78,2.46.78,3.99v1.92h-10.97l-.05.08c.02,1.08.21,2.04.57,2.88.36.84.88,1.5,1.55,1.98.68.48,1.49.72,2.44.72,1.04,0,1.96-.15,2.74-.45.79-.3,1.47-.71,2.04-1.23l1.2,2c-.6.58-1.4,1.08-2.4,1.48-1,.4-2.19.6-3.59.6Zm-4.42-10.47h7.8v-.41c0-.81-.14-1.54-.43-2.18-.29-.64-.71-1.15-1.28-1.52-.57-.37-1.28-.55-2.13-.55-.69,0-1.31.2-1.88.6-.56.4-1.03.95-1.39,1.63-.37.69-.6,1.47-.72,2.34l.03.08Z"/>
          <path class="cls-2" d="m655.37,120.19v-1.97l2.55-.44v-12.08l-2.55-.44v-1.98h5.3l.22,2.52c.56-.9,1.27-1.59,2.12-2.09.85-.49,1.81-.74,2.9-.74,1.82,0,3.23.53,4.23,1.6,1,1.07,1.5,2.72,1.5,4.95v8.27l2.55.44v1.97h-8.17v-1.97l2.55-.44v-8.2c0-1.49-.29-2.55-.88-3.17-.59-.62-1.49-.94-2.7-.94-.89,0-1.67.21-2.35.64-.68.43-1.23,1.01-1.63,1.75v9.92l2.55.44v1.97h-8.17Z"/>
          <path class="cls-2" d="m681.96,120.19l-6.02-14.69-1.75-.23v-1.98h7.09v1.98l-2.2.31,3.75,9.62.44,1.36h.09l.5-1.36,3.48-9.62-2.27-.31v-1.98h7.08v1.98l-1.78.23-5.72,14.69h-2.7Z"/>
          <path class="cls-2" d="m701.04,120.52c-1.56,0-2.91-.37-4.04-1.1-1.13-.73-2-1.75-2.62-3.05-.62-1.3-.92-2.78-.92-4.45v-.34c0-1.67.31-3.15.92-4.45.61-1.3,1.49-2.31,2.62-3.05,1.13-.74,2.47-1.11,4.01-1.11s2.91.37,4.04,1.11c1.13.74,2,1.76,2.62,3.05.61,1.29.92,2.78.92,4.45v.34c0,1.68-.31,3.16-.92,4.46-.62,1.3-1.48,2.31-2.61,3.04-1.12.73-2.46,1.09-4.02,1.09Zm0-2.41c.98,0,1.8-.27,2.46-.8.66-.54,1.16-1.27,1.5-2.2.34-.93.51-1.99.51-3.18v-.34c0-1.19-.17-2.25-.51-3.18-.34-.93-.84-1.67-1.51-2.2-.67-.54-1.5-.8-2.48-.8s-1.8.27-2.47.8c-.67.54-1.17,1.27-1.5,2.2-.33.93-.5,1.99-.5,3.18v.34c0,1.19.17,2.25.5,3.18.33.93.84,1.67,1.51,2.2.67.54,1.5.8,2.49.8Z"/>
          <path class="cls-2" d="m710.49,120.19v-1.97l2.55-.44v-19.55l-2.55-.44v-1.98h5.62v21.97l2.55.44v1.97h-8.17Z"/>
          <path class="cls-2" d="m727.87,120.19l-6.02-14.69-1.75-.23v-1.98h7.09v1.98l-2.2.31,3.75,9.62.44,1.36h.09l.5-1.36,3.48-9.62-2.27-.31v-1.98h7.08v1.98l-1.78.23-5.72,14.69h-2.7Z"/>
          <path class="cls-2" d="m739.59,120.19v-1.97l2.55-.44v-12.08l-2.55-.44v-1.98h5.62v14.5l2.55.44v1.97h-8.17Zm2.39-21.08v-3.3h3.23v3.3h-3.23Z"/>
          <path class="cls-2" d="m749.88,120.19v-1.97l2.55-.44v-12.08l-2.55-.44v-1.98h5.31l.2,2.2c.54-.8,1.24-1.42,2.09-1.86.85-.44,1.84-.66,2.97-.66s2.09.26,2.9.78c.81.52,1.41,1.3,1.82,2.34.53-.96,1.23-1.72,2.11-2.28s1.9-.84,3.06-.84c1.73,0,3.09.59,4.09,1.77,1,1.18,1.5,2.96,1.5,5.34v7.7l2.55.44v1.97h-8.19v-1.97l2.55-.44v-7.73c0-1.67-.29-2.85-.86-3.54-.57-.69-1.42-1.04-2.55-1.04s-1.94.38-2.59,1.13c-.65.76-1.03,1.71-1.13,2.85v8.33l2.55.44v1.97h-8.17v-1.97l2.55-.44v-7.73c0-1.58-.29-2.74-.88-3.48-.59-.73-1.44-1.1-2.55-1.1-.94,0-1.71.19-2.31.58-.6.39-1.07.93-1.39,1.62v10.11l2.55.44v1.97h-8.17Z"/>
          <path class="cls-2" d="m788.24,120.52c-1.56,0-2.92-.36-4.08-1.07-1.16-.71-2.05-1.71-2.68-2.98-.63-1.27-.95-2.74-.95-4.41v-.69c0-1.6.33-3.04.99-4.3.66-1.27,1.54-2.27,2.64-3,1.1-.73,2.3-1.1,3.6-1.1,1.52,0,2.79.31,3.82.94,1.03.62,1.8,1.5,2.32,2.63.52,1.13.78,2.46.78,3.99v1.92h-10.97l-.05.08c.02,1.08.21,2.04.57,2.88.36.84.88,1.5,1.55,1.98.68.48,1.49.72,2.44.72,1.04,0,1.96-.15,2.74-.45.79-.3,1.47-.71,2.04-1.23l1.2,2c-.6.58-1.4,1.08-2.4,1.48-1,.4-2.19.6-3.59.6Zm-4.42-10.47h7.8v-.41c0-.81-.14-1.54-.43-2.18-.29-.64-.71-1.15-1.28-1.52-.57-.37-1.28-.55-2.13-.55-.69,0-1.31.2-1.88.6-.56.4-1.03.95-1.39,1.63-.37.69-.6,1.47-.72,2.34l.03.08Z"/>
          <path class="cls-2" d="m797.09,120.19v-1.97l2.55-.44v-12.08l-2.55-.44v-1.98h5.3l.22,2.52c.56-.9,1.27-1.59,2.12-2.09.85-.49,1.81-.74,2.9-.74,1.82,0,3.23.53,4.23,1.6,1,1.07,1.5,2.72,1.5,4.95v8.27l2.55.44v1.97h-8.17v-1.97l2.55-.44v-8.2c0-1.49-.29-2.55-.88-3.17-.59-.62-1.49-.94-2.7-.94-.89,0-1.67.21-2.35.64-.68.43-1.23,1.01-1.63,1.75v9.92l2.55.44v1.97h-8.17Z"/>
          <path class="cls-2" d="m823.41,120.45c-1.25,0-2.24-.37-2.98-1.1s-1.1-1.91-1.1-3.52v-10.27h-2.67v-2.28h2.67v-4.08h3.08v4.08h3.67v2.28h-3.67v10.27c0,.81.16,1.41.48,1.8.32.39.75.58,1.3.58.36,0,.77-.03,1.22-.1.45-.07.8-.13,1.05-.18l.42,2.02c-.45.14-1,.25-1.65.36-.65.1-1.26.16-1.82.16Z"/>
          <path class="cls-2" d="m836.18,120.52c-1.56,0-2.91-.37-4.04-1.1-1.13-.73-2-1.75-2.62-3.05-.62-1.3-.92-2.78-.92-4.45v-.34c0-1.67.31-3.15.92-4.45.61-1.3,1.49-2.31,2.62-3.05,1.13-.74,2.47-1.11,4.01-1.11s2.91.37,4.04,1.11c1.13.74,2,1.76,2.62,3.05.61,1.29.92,2.78.92,4.45v.34c0,1.68-.31,3.16-.92,4.46-.62,1.3-1.48,2.31-2.61,3.04-1.12.73-2.46,1.09-4.02,1.09Zm0-2.41c.98,0,1.8-.27,2.46-.8.66-.54,1.16-1.27,1.5-2.2.34-.93.51-1.99.51-3.18v-.34c0-1.19-.17-2.25-.51-3.18-.34-.93-.84-1.67-1.51-2.2-.67-.54-1.5-.8-2.48-.8s-1.8.27-2.47.8c-.67.54-1.17,1.27-1.5,2.2-.33.93-.5,1.99-.5,3.18v.34c0,1.19.17,2.25.5,3.18.33.93.84,1.67,1.51,2.2.67.54,1.5.8,2.49.8Z"/>
          <path class="cls-2" d="m468.55,158.92c-2.28,0-4.19-.5-5.71-1.5-1.53-1-2.67-2.37-3.44-4.11-.77-1.74-1.15-3.71-1.15-5.92v-.33c0-2.23.4-4.21,1.2-5.95.8-1.73,1.95-3.1,3.45-4.1s3.29-1.5,5.38-1.5c1.47,0,2.81.23,4.03.69,1.22.46,2.23,1.04,3.03,1.75v4.91h-2.45l-.33-3.59c-.33-.26-.72-.48-1.15-.66-.43-.18-.91-.31-1.44-.41-.53-.09-1.1-.14-1.71-.14-1.49,0-2.75.38-3.78,1.15s-1.81,1.82-2.34,3.16-.8,2.9-.8,4.66v.36c0,1.91.28,3.53.85,4.88.57,1.35,1.4,2.38,2.48,3.09,1.09.71,2.41,1.06,3.98,1.06.73,0,1.44-.09,2.14-.27.7-.18,1.28-.41,1.73-.69l.34-3.17h2.41v4.94c-.85.53-1.88.95-3.06,1.24s-2.41.45-3.67.45Z"/>
          <path class="cls-2" d="m478.16,158.59v-1.97l2.55-.44v-19.55l-2.55-.44v-1.98h5.62v21.97l2.55.44v1.97h-8.17Z"/>
          <path class="cls-2" d="m488.41,158.59v-1.97l2.55-.44v-12.08l-2.55-.44v-1.98h5.62v14.5l2.55.44v1.97h-8.17Zm2.12-20.12l2.88-4.25h3.59l.03.09-4.2,4.16h-2.3Z"/>
          <path class="cls-2" d="m498.7,158.59v-1.97l2.55-.44v-12.08l-2.55-.44v-1.98h5.3l.22,2.52c.56-.9,1.27-1.59,2.12-2.09.85-.5,1.81-.74,2.9-.74,1.82,0,3.23.53,4.23,1.6,1,1.07,1.5,2.72,1.5,4.95v8.27l2.55.44v1.97h-8.17v-1.97l2.55-.44v-8.2c0-1.49-.29-2.55-.88-3.17-.59-.62-1.49-.94-2.7-.94-.89,0-1.67.21-2.35.64-.68.43-1.23,1.01-1.63,1.75v9.92l2.55.44v1.97h-8.17Z"/>
          <path class="cls-2" d="m519.58,158.59v-1.97l2.55-.44v-12.08l-2.55-.44v-1.98h5.62v14.5l2.55.44v1.97h-8.17Zm2.39-21.08v-3.3h3.23v3.3h-3.23Z"/>
          <path class="cls-2" d="m537.52,158.92c-1.53,0-2.87-.36-4-1.07-1.14-.71-2.02-1.71-2.64-2.98-.62-1.27-.94-2.74-.94-4.41v-.66c0-1.6.3-3.04.91-4.31.6-1.27,1.47-2.28,2.61-3.02,1.13-.74,2.49-1.11,4.06-1.11,1.36,0,2.56.22,3.59.67,1.03.45,1.89,1.06,2.59,1.84l.08,4.06h-2.41l-.53-2.95c-.35-.37-.8-.66-1.33-.88s-1.16-.33-1.88-.33c-.92,0-1.72.27-2.41.81-.69.54-1.23,1.27-1.62,2.17-.39.91-.58,1.92-.58,3.03v.66c0,1.23.18,2.3.54,3.2s.88,1.61,1.55,2.1c.67.49,1.47.74,2.4.74,1.04,0,1.91-.29,2.59-.86.69-.57,1.11-1.36,1.27-2.36h2.77l.03.09c-.05.97-.34,1.88-.86,2.72-.52.84-1.26,1.52-2.23,2.04-.96.52-2.15.77-3.55.77Z"/>
          <path class="cls-2" d="m554.58,158.92c-1.56,0-2.91-.37-4.04-1.1-1.13-.73-2-1.75-2.62-3.05-.62-1.3-.92-2.78-.92-4.45v-.34c0-1.67.31-3.15.92-4.45.61-1.3,1.49-2.32,2.62-3.05,1.13-.74,2.47-1.11,4.01-1.11s2.91.37,4.04,1.11c1.13.74,2,1.75,2.62,3.05.61,1.29.92,2.78.92,4.45v.34c0,1.68-.31,3.16-.92,4.46-.62,1.3-1.48,2.31-2.61,3.04-1.12.73-2.46,1.09-4.02,1.09Zm0-2.41c.98,0,1.8-.27,2.46-.8.66-.54,1.16-1.27,1.5-2.2.34-.93.51-1.99.51-3.18v-.34c0-1.19-.17-2.25-.51-3.18-.34-.93-.84-1.67-1.51-2.2-.67-.54-1.5-.8-2.48-.8s-1.8.27-2.47.8c-.67.54-1.17,1.27-1.5,2.2-.33.93-.5,1.99-.5,3.18v.34c0,1.19.17,2.25.5,3.18.33.93.84,1.67,1.51,2.2.67.54,1.5.8,2.49.8Z"/>
          <path class="cls-2" d="m579.09,158.92c-1.38,0-2.55-.34-3.54-1.02-.98-.68-1.74-1.63-2.26-2.85-.52-1.22-.78-2.64-.78-4.27v-.33c0-1.81.26-3.4.78-4.77.52-1.37,1.28-2.42,2.27-3.18.99-.76,2.18-1.13,3.56-1.13,1,0,1.88.18,2.65.55.77.37,1.42.9,1.96,1.6v-6.89l-2.55-.44v-1.98h5.62v21.97l2.55.44v1.97h-5.22l-.25-2.02c-.55.77-1.23,1.35-2.02,1.75-.8.39-1.72.59-2.77.59Zm.78-2.5c.92,0,1.69-.21,2.31-.62.62-.42,1.14-1.01,1.55-1.77v-7.84c-.4-.71-.91-1.27-1.55-1.69-.64-.42-1.4-.62-2.28-.62-.98,0-1.79.28-2.42.84-.64.56-1.11,1.33-1.42,2.31s-.47,2.13-.47,3.43v.33c0,1.7.35,3.06,1.05,4.09.7,1.03,1.78,1.55,3.23,1.55Z"/>
          <path class="cls-2" d="m599.11,158.92c-1.56,0-2.92-.36-4.08-1.07-1.16-.71-2.05-1.71-2.68-2.98-.63-1.27-.95-2.74-.95-4.41v-.69c0-1.6.33-3.04.99-4.3.66-1.27,1.54-2.27,2.64-3,1.1-.73,2.3-1.1,3.6-1.1,1.52,0,2.79.31,3.82.94,1.03.62,1.8,1.5,2.32,2.63.52,1.13.78,2.46.78,3.99v1.92h-10.97l-.05.08c.02,1.08.21,2.04.57,2.88.36.84.88,1.5,1.55,1.98.68.48,1.49.72,2.44.72,1.04,0,1.96-.15,2.74-.45.79-.3,1.47-.71,2.04-1.23l1.2,2c-.6.58-1.4,1.08-2.4,1.48-1,.4-2.19.6-3.59.6Zm-4.42-10.47h7.8v-.41c0-.81-.14-1.54-.43-2.18-.29-.64-.71-1.15-1.28-1.52-.57-.37-1.28-.55-2.13-.55-.69,0-1.31.2-1.88.6-.56.4-1.03.95-1.39,1.63-.37.69-.6,1.47-.72,2.34l.03.08Z"/>
          <path class="cls-2" d="m616.22,158.59v-1.97l2.55-.44v-17.92l-2.55-.44v-1.98h6.66l7.33,17.27h.09l7.09-17.27h6.86v1.98l-2.55.44v17.92l2.55.44v1.97h-8.17v-1.97l2.69-.44v-16.14l-.08-.02-7.39,17.75h-2.05l-7.64-17.72-.08.02.11,9.52v6.59l2.75.44v1.97h-8.17Z"/>
          <path class="cls-2" d="m654.58,158.92c-1.56,0-2.92-.36-4.08-1.07-1.16-.71-2.05-1.71-2.68-2.98-.63-1.27-.95-2.74-.95-4.41v-.69c0-1.6.33-3.04.99-4.3.66-1.27,1.54-2.27,2.64-3,1.1-.73,2.3-1.1,3.6-1.1,1.52,0,2.79.31,3.82.94,1.03.62,1.8,1.5,2.32,2.63.52,1.13.78,2.46.78,3.99v1.92h-10.97l-.05.08c.02,1.08.21,2.04.57,2.88.36.84.88,1.5,1.55,1.98.68.48,1.49.72,2.44.72,1.04,0,1.96-.15,2.74-.45.79-.3,1.47-.71,2.04-1.23l1.2,2c-.6.58-1.4,1.08-2.4,1.48-1,.4-2.19.6-3.59.6Zm-4.42-10.47h7.8v-.41c0-.81-.14-1.54-.43-2.18-.29-.64-.71-1.15-1.28-1.52-.57-.37-1.28-.55-2.13-.55-.69,0-1.31.2-1.88.6-.56.4-1.03.95-1.39,1.63-.37.69-.6,1.47-.72,2.34l.03.08Z"/>
          <path class="cls-2" d="m670.69,158.92c-1.38,0-2.55-.34-3.54-1.02-.98-.68-1.74-1.63-2.26-2.85-.52-1.22-.78-2.64-.78-4.27v-.33c0-1.81.26-3.4.78-4.77.52-1.37,1.28-2.42,2.27-3.18.99-.76,2.18-1.13,3.56-1.13,1,0,1.88.18,2.65.55.77.37,1.42.9,1.96,1.6v-6.89l-2.55-.44v-1.98h5.62v21.97l2.55.44v1.97h-5.22l-.25-2.02c-.55.77-1.23,1.35-2.02,1.75-.8.39-1.72.59-2.77.59Zm.78-2.5c.92,0,1.69-.21,2.31-.62.62-.42,1.14-1.01,1.55-1.77v-7.84c-.4-.71-.91-1.27-1.55-1.69-.64-.42-1.4-.62-2.28-.62-.98,0-1.79.28-2.42.84-.64.56-1.11,1.33-1.42,2.31s-.47,2.13-.47,3.43v.33c0,1.7.35,3.06,1.05,4.09.7,1.03,1.78,1.55,3.23,1.55Z"/>
          <path class="cls-2" d="m682.97,158.59v-1.97l2.55-.44v-12.08l-2.55-.44v-1.98h5.62v14.5l2.55.44v1.97h-8.17Zm2.39-21.08v-3.3h3.23v3.3h-3.23Z"/>
          <path class="cls-2" d="m700.91,158.92c-1.53,0-2.87-.36-4-1.07-1.14-.71-2.02-1.71-2.64-2.98-.62-1.27-.94-2.74-.94-4.41v-.66c0-1.6.3-3.04.91-4.31.6-1.27,1.47-2.28,2.61-3.02,1.13-.74,2.49-1.11,4.06-1.11,1.36,0,2.56.22,3.59.67,1.03.45,1.89,1.06,2.59,1.84l.08,4.06h-2.41l-.53-2.95c-.35-.37-.8-.66-1.33-.88s-1.16-.33-1.88-.33c-.92,0-1.72.27-2.41.81-.69.54-1.23,1.27-1.62,2.17-.39.91-.58,1.92-.58,3.03v.66c0,1.23.18,2.3.54,3.2s.88,1.61,1.55,2.1c.67.49,1.47.74,2.4.74,1.04,0,1.91-.29,2.59-.86.69-.57,1.11-1.36,1.27-2.36h2.77l.03.09c-.05.97-.34,1.88-.86,2.72-.52.84-1.26,1.52-2.23,2.04-.96.52-2.15.77-3.55.77Z"/>
          <path class="cls-2" d="m715.72,158.92c-1.76,0-3.1-.43-4.02-1.29-.92-.86-1.38-2.07-1.38-3.63,0-1.07.29-2.01.88-2.8.59-.8,1.44-1.42,2.55-1.86,1.11-.44,2.45-.66,4-.66h3.02v-1.66c0-1.02-.31-1.81-.93-2.38-.62-.56-1.49-.84-2.62-.84-.71,0-1.32.09-1.84.26-.52.17-1,.41-1.42.71l-.33,2.36h-2.38v-3.88c.76-.62,1.65-1.08,2.66-1.4,1.01-.32,2.13-.48,3.36-.48,2.05,0,3.66.49,4.83,1.47,1.17.98,1.75,2.38,1.75,4.2v8.14c0,.22,0,.43,0,.64,0,.21.02.42.04.62l1.64.17v1.97h-4.42c-.09-.46-.17-.87-.22-1.23-.05-.37-.09-.73-.11-1.09-.59.76-1.34,1.39-2.23,1.9-.89.5-1.84.76-2.85.76Zm.45-2.58c1.02,0,1.95-.25,2.8-.73.84-.49,1.45-1.08,1.81-1.77v-3.06h-3.12c-1.42,0-2.48.34-3.19,1.02-.71.68-1.06,1.43-1.06,2.27,0,.74.23,1.3.69,1.7.46.39,1.15.59,2.08.59Z"/>
          <path class="cls-2" d="m727.94,158.59v-1.97l2.55-.44v-12.08l-2.55-.44v-1.98h5.31l.2,2.2c.54-.8,1.24-1.42,2.09-1.86.85-.44,1.84-.66,2.97-.66s2.09.26,2.9.78c.81.52,1.41,1.3,1.82,2.34.53-.96,1.23-1.72,2.11-2.28s1.9-.84,3.06-.84c1.73,0,3.09.59,4.09,1.77,1,1.18,1.5,2.96,1.5,5.34v7.7l2.55.44v1.97h-8.19v-1.97l2.55-.44v-7.73c0-1.67-.29-2.85-.86-3.54-.57-.69-1.42-1.04-2.55-1.04s-1.94.38-2.59,1.13c-.65.75-1.03,1.71-1.13,2.85v8.33l2.55.44v1.97h-8.17v-1.97l2.55-.44v-7.73c0-1.58-.29-2.74-.88-3.48-.59-.73-1.44-1.1-2.55-1.1-.94,0-1.71.19-2.31.58-.6.38-1.07.93-1.39,1.62v10.11l2.55.44v1.97h-8.17Z"/>
          <path class="cls-2" d="m766.3,158.92c-1.56,0-2.92-.36-4.08-1.07-1.16-.71-2.05-1.71-2.68-2.98-.63-1.27-.95-2.74-.95-4.41v-.69c0-1.6.33-3.04.99-4.3.66-1.27,1.54-2.27,2.64-3,1.1-.73,2.3-1.1,3.6-1.1,1.52,0,2.79.31,3.82.94,1.03.62,1.8,1.5,2.32,2.63.52,1.13.78,2.46.78,3.99v1.92h-10.97l-.05.08c.02,1.08.21,2.04.57,2.88.36.84.88,1.5,1.55,1.98.68.48,1.49.72,2.44.72,1.04,0,1.96-.15,2.74-.45.79-.3,1.47-.71,2.04-1.23l1.2,2c-.6.58-1.4,1.08-2.4,1.48-1,.4-2.19.6-3.59.6Zm-4.42-10.47h7.8v-.41c0-.81-.14-1.54-.43-2.18-.29-.64-.71-1.15-1.28-1.52-.57-.37-1.28-.55-2.13-.55-.69,0-1.31.2-1.88.6-.56.4-1.03.95-1.39,1.63-.37.69-.6,1.47-.72,2.34l.03.08Z"/>
          <path class="cls-2" d="m775.14,158.59v-1.97l2.55-.44v-12.08l-2.55-.44v-1.98h5.3l.22,2.52c.56-.9,1.27-1.59,2.12-2.09.85-.5,1.81-.74,2.9-.74,1.82,0,3.23.53,4.23,1.6,1,1.07,1.5,2.72,1.5,4.95v8.27l2.55.44v1.97h-8.17v-1.97l2.55-.44v-8.2c0-1.49-.29-2.55-.88-3.17-.59-.62-1.49-.94-2.7-.94-.89,0-1.67.21-2.35.64-.68.43-1.23,1.01-1.63,1.75v9.92l2.55.44v1.97h-8.17Z"/>
          <path class="cls-2" d="m801.47,158.85c-1.25,0-2.24-.37-2.98-1.1s-1.1-1.91-1.1-3.52v-10.27h-2.67v-2.28h2.67v-4.08h3.08v4.08h3.67v2.28h-3.67v10.27c0,.81.16,1.41.48,1.8.32.38.75.58,1.3.58.36,0,.77-.03,1.22-.1.45-.07.8-.13,1.05-.18l.42,2.02c-.45.13-1,.25-1.65.36-.65.1-1.26.16-1.82.16Z"/>
          <path class="cls-2" d="m814.23,158.92c-1.56,0-2.91-.37-4.04-1.1-1.13-.73-2-1.75-2.62-3.05-.62-1.3-.92-2.78-.92-4.45v-.34c0-1.67.31-3.15.92-4.45.61-1.3,1.49-2.32,2.62-3.05,1.13-.74,2.47-1.11,4.01-1.11s2.91.37,4.04,1.11c1.13.74,2,1.75,2.62,3.05.61,1.29.92,2.78.92,4.45v.34c0,1.68-.31,3.16-.92,4.46-.62,1.3-1.48,2.31-2.61,3.04-1.12.73-2.46,1.09-4.02,1.09Zm0-2.41c.98,0,1.8-.27,2.46-.8.66-.54,1.16-1.27,1.5-2.2.34-.93.51-1.99.51-3.18v-.34c0-1.19-.17-2.25-.51-3.18-.34-.93-.84-1.67-1.51-2.2-.67-.54-1.5-.8-2.48-.8s-1.8.27-2.47.8c-.67.54-1.17,1.27-1.5,2.2-.33.93-.5,1.99-.5,3.18v.34c0,1.19.17,2.25.5,3.18.33.93.84,1.67,1.51,2.2.67.54,1.5.8,2.49.8Z"/>
        </g>
      </g>
      <g>
        <rect class="cls-8" x="968" y="357" width="280" height="330" rx="8" ry="8"/>
        <g>
          <path class="cls-5" d="m981.61,451.49v-1.97l2.55-.44v-17.92l-2.55-.44v-1.98h8.91c2.01,0,3.76.48,5.26,1.44,1.49.96,2.66,2.28,3.49,3.95.83,1.68,1.25,3.59,1.25,5.75v.48c0,2.1-.4,4-1.2,5.68-.8,1.68-1.94,3.01-3.41,3.98-1.47.97-3.22,1.46-5.23,1.46h-9.06Zm5.62-2.41h3.28c1.44,0,2.67-.39,3.7-1.18s1.83-1.84,2.38-3.16c.56-1.32.84-2.78.84-4.38v-.52c0-1.66-.28-3.14-.84-4.45-.56-1.31-1.35-2.34-2.38-3.1s-2.27-1.14-3.7-1.14h-3.28v17.92Z"/>
          <path class="cls-5" d="m1010.33,451.82c-1.56,0-2.91-.37-4.04-1.1-1.13-.73-2-1.75-2.62-3.05-.62-1.3-.92-2.78-.92-4.45v-.34c0-1.67.31-3.15.92-4.45.61-1.3,1.49-2.32,2.62-3.05,1.13-.74,2.47-1.11,4.01-1.11s2.91.37,4.04,1.11c1.13.74,2,1.75,2.62,3.05.61,1.29.92,2.78.92,4.45v.34c0,1.68-.31,3.16-.92,4.46-.62,1.3-1.48,2.31-2.61,3.04s-2.46,1.09-4.02,1.09Zm0-2.41c.98,0,1.8-.27,2.46-.8.66-.54,1.16-1.27,1.5-2.2.34-.93.51-1.99.51-3.18v-.34c0-1.19-.17-2.25-.51-3.18-.34-.93-.84-1.67-1.51-2.2-.67-.54-1.5-.8-2.48-.8s-1.8.27-2.47.8c-.67.54-1.17,1.27-1.5,2.2-.33.93-.5,1.99-.5,3.18v.34c0,1.19.17,2.25.5,3.18.33.93.84,1.67,1.51,2.2s1.5.8,2.49.8Z"/>
          <path class="cls-5" d="m1027.09,451.82c-1.14,0-2.2-.11-3.19-.34-.99-.23-2.04-.58-3.16-1.06l-.03-4.02h2.33l.58,2.42c.58.24,1.15.41,1.7.52s1.14.16,1.77.16c1.25,0,2.15-.24,2.69-.72.54-.48.81-1.07.81-1.78,0-.67-.27-1.23-.82-1.7s-1.54-.86-2.98-1.18c-2.04-.47-3.54-1.1-4.51-1.88-.96-.79-1.45-1.84-1.45-3.15,0-.92.27-1.74.8-2.46s1.27-1.3,2.22-1.73c.95-.43,2.05-.64,3.31-.64s2.38.15,3.29.44c.91.29,1.71.68,2.38,1.17l.16,3.86h-2.31l-.5-2.25c-.37-.27-.8-.48-1.3-.62s-1.07-.22-1.72-.22c-.96,0-1.74.22-2.34.67-.6.45-.9,1.01-.9,1.69,0,.4.09.74.26,1.03s.5.55.99.79c.49.23,1.21.47,2.16.7,2.35.55,4,1.25,4.93,2.11.93.85,1.4,1.91,1.4,3.16,0,1.43-.53,2.62-1.59,3.59-1.06.96-2.72,1.45-4.99,1.45Z"/>
          <path class="cls-5" d="m1043.06,451.82c-1.14,0-2.2-.11-3.19-.34-.99-.23-2.04-.58-3.16-1.06l-.03-4.02h2.33l.58,2.42c.58.24,1.15.41,1.7.52s1.14.16,1.77.16c1.25,0,2.15-.24,2.69-.72.54-.48.81-1.07.81-1.78,0-.67-.27-1.23-.82-1.7s-1.54-.86-2.98-1.18c-2.04-.47-3.54-1.1-4.51-1.88-.96-.79-1.45-1.84-1.45-3.15,0-.92.27-1.74.8-2.46s1.27-1.3,2.22-1.73c.95-.43,2.05-.64,3.31-.64s2.38.15,3.29.44c.91.29,1.71.68,2.38,1.17l.16,3.86h-2.31l-.5-2.25c-.37-.27-.8-.48-1.3-.62s-1.07-.22-1.72-.22c-.96,0-1.74.22-2.34.67-.6.45-.9,1.01-.9,1.69,0,.4.09.74.26,1.03s.5.55.99.79c.49.23,1.21.47,2.16.7,2.35.55,4,1.25,4.93,2.11.93.85,1.4,1.91,1.4,3.16,0,1.43-.53,2.62-1.59,3.59-1.06.96-2.72,1.45-4.99,1.45Z"/>
          <path class="cls-5" d="m1052.08,451.49v-1.97l2.55-.44v-12.08l-2.55-.44v-1.98h5.62v14.5l2.55.44v1.97h-8.17Zm2.39-21.08v-3.3h3.23v3.3h-3.23Z"/>
          <path class="cls-5" d="m1070.08,451.82c-1.56,0-2.92-.36-4.08-1.07s-2.05-1.71-2.68-2.98c-.63-1.27-.95-2.74-.95-4.41v-.69c0-1.6.33-3.04.99-4.3.66-1.27,1.54-2.27,2.64-3,1.1-.73,2.3-1.1,3.6-1.1,1.52,0,2.79.31,3.82.94,1.03.62,1.8,1.5,2.32,2.63.52,1.13.78,2.46.78,3.99v1.92h-10.97l-.05.08c.02,1.08.21,2.04.57,2.88s.88,1.5,1.55,1.98c.68.48,1.49.72,2.44.72,1.04,0,1.96-.15,2.74-.45.79-.3,1.47-.71,2.04-1.23l1.2,2c-.6.58-1.4,1.08-2.4,1.48-1,.4-2.19.6-3.59.6Zm-5.28-20.59v-.41l3.84-3.7h1.86l3.88,3.72v.39h-2.52l-2.3-2.31-2.27,2.31h-2.5Zm.86,10.12h7.8v-.41c0-.81-.14-1.54-.43-2.18-.29-.64-.71-1.15-1.28-1.52-.57-.37-1.28-.55-2.13-.55-.69,0-1.31.2-1.88.6s-1.03.95-1.39,1.63c-.37.69-.6,1.47-.72,2.34l.03.08Z"/>
          <path class="cls-5" d="m1094.58,451.82c-1.56,0-2.92-.36-4.08-1.07s-2.05-1.71-2.68-2.98c-.63-1.27-.95-2.74-.95-4.41v-.69c0-1.6.33-3.04.99-4.3.66-1.27,1.54-2.27,2.64-3,1.1-.73,2.3-1.1,3.6-1.1,1.52,0,2.79.31,3.82.94,1.03.62,1.8,1.5,2.32,2.63.52,1.13.78,2.46.78,3.99v1.92h-10.97l-.05.08c.02,1.08.21,2.04.57,2.88s.88,1.5,1.55,1.98c.68.48,1.49.72,2.44.72,1.04,0,1.96-.15,2.74-.45.79-.3,1.47-.71,2.04-1.23l1.2,2c-.6.58-1.4,1.08-2.4,1.48-1,.4-2.19.6-3.59.6Zm-4.42-10.47h7.8v-.41c0-.81-.14-1.54-.43-2.18-.29-.64-.71-1.15-1.28-1.52-.57-.37-1.28-.55-2.13-.55-.69,0-1.31.2-1.88.6s-1.03.95-1.39,1.63c-.37.69-.6,1.47-.72,2.34l.03.08Z"/>
          <path class="cls-5" d="m1110.34,451.82c-1.14,0-2.2-.11-3.19-.34-.99-.23-2.04-.58-3.16-1.06l-.03-4.02h2.33l.58,2.42c.58.24,1.15.41,1.7.52s1.14.16,1.77.16c1.25,0,2.15-.24,2.69-.72.54-.48.81-1.07.81-1.78,0-.67-.27-1.23-.82-1.7s-1.54-.86-2.98-1.18c-2.04-.47-3.54-1.1-4.51-1.88-.96-.79-1.45-1.84-1.45-3.15,0-.92.27-1.74.8-2.46s1.27-1.3,2.22-1.73c.95-.43,2.05-.64,3.31-.64s2.38.15,3.29.44c.91.29,1.71.68,2.38,1.17l.16,3.86h-2.31l-.5-2.25c-.37-.27-.8-.48-1.3-.62s-1.07-.22-1.72-.22c-.96,0-1.74.22-2.34.67-.6.45-.9,1.01-.9,1.69,0,.4.09.74.26,1.03s.5.55.99.79c.49.23,1.21.47,2.16.7,2.35.55,4,1.25,4.93,2.11.93.85,1.4,1.91,1.4,3.16,0,1.43-.53,2.62-1.59,3.59-1.06.96-2.72,1.45-4.99,1.45Z"/>
          <path class="cls-5" d="m1119,457.99v-1.98l2.39-.44v-18.56l-2.55-.44v-1.98h5.19l.28,2.06c.56-.77,1.25-1.36,2.05-1.77.81-.41,1.74-.61,2.8-.61,1.4,0,2.59.38,3.58,1.13.99.75,1.74,1.81,2.27,3.17.52,1.36.78,2.95.78,4.77v.33c0,1.62-.26,3.05-.79,4.27-.53,1.22-1.28,2.17-2.26,2.85-.98.68-2.16,1.02-3.53,1.02-1.04,0-1.96-.17-2.74-.52-.79-.35-1.46-.87-2.01-1.55v5.83l2.69.44v1.98h-8.16Zm9.27-8.58c1.46,0,2.56-.53,3.31-1.59s1.12-2.44,1.12-4.14v-.33c0-1.29-.17-2.43-.5-3.41-.33-.98-.83-1.76-1.49-2.32-.66-.56-1.49-.84-2.48-.84-.88,0-1.62.2-2.25.59s-1.13.94-1.52,1.62v8.23c.38.7.89,1.24,1.51,1.62.62.38,1.38.57,2.29.57Z"/>
          <path class="cls-5" d="m1146.5,451.82c-1.56,0-2.92-.36-4.08-1.07s-2.05-1.71-2.68-2.98c-.63-1.27-.95-2.74-.95-4.41v-.69c0-1.6.33-3.04.99-4.3.66-1.27,1.54-2.27,2.64-3,1.1-.73,2.3-1.1,3.6-1.1,1.52,0,2.79.31,3.82.94,1.03.62,1.8,1.5,2.32,2.63.52,1.13.78,2.46.78,3.99v1.92h-10.97l-.05.08c.02,1.08.21,2.04.57,2.88s.88,1.5,1.55,1.98c.68.48,1.49.72,2.44.72,1.04,0,1.96-.15,2.74-.45.79-.3,1.47-.71,2.04-1.23l1.2,2c-.6.58-1.4,1.08-2.4,1.48-1,.4-2.19.6-3.59.6Zm-4.42-10.47h7.8v-.41c0-.81-.14-1.54-.43-2.18-.29-.64-.71-1.15-1.28-1.52-.57-.37-1.28-.55-2.13-.55-.69,0-1.31.2-1.88.6s-1.03.95-1.39,1.63c-.37.69-.6,1.47-.72,2.34l.03.08Z"/>
          <path class="cls-5" d="m1163.61,451.82c-1.53,0-2.87-.36-4-1.07-1.14-.71-2.02-1.71-2.64-2.98s-.94-2.74-.94-4.41v-.66c0-1.6.3-3.04.91-4.31.6-1.27,1.47-2.28,2.61-3.02,1.13-.74,2.49-1.11,4.06-1.11,1.36,0,2.56.22,3.59.67,1.03.45,1.89,1.06,2.59,1.84l.08,4.06h-2.41l-.53-2.95c-.35-.36-.8-.66-1.33-.88s-1.16-.33-1.88-.33c-.92,0-1.72.27-2.41.81-.69.54-1.23,1.27-1.62,2.17-.39.91-.58,1.92-.58,3.03v.66c0,1.23.18,2.3.54,3.2s.88,1.61,1.55,2.1,1.47.74,2.4.74c1.04,0,1.91-.29,2.59-.86s1.11-1.36,1.27-2.36h2.77l.03.09c-.05.97-.34,1.88-.86,2.72-.52.84-1.26,1.52-2.23,2.04-.96.52-2.15.77-3.55.77Z"/>
          <path class="cls-5" d="m1172.53,451.49v-1.97l2.55-.44v-12.08l-2.55-.44v-1.98h5.62v14.5l2.55.44v1.97h-8.17Zm2.12-20.12l2.88-4.25h3.59l.03.09-4.2,4.16h-2.3Z"/>
          <path class="cls-5" d="m1182.47,451.49v-1.97l2.55-.44v-12.22h-2.64v-2.28h2.64v-1.83c0-1.9.56-3.36,1.67-4.41,1.11-1.04,2.66-1.56,4.62-1.56.69,0,1.38.08,2.06.25s1.48.4,2.38.7l-.52,2.5c-.55-.22-1.14-.41-1.77-.56s-1.27-.23-1.92-.23c-1.23,0-2.11.27-2.65.81-.54.54-.8,1.38-.8,2.5v1.83h9.64v14.5l2.55.44v1.97h-8.17v-1.97l2.55-.44v-12.22h-6.56v12.22l2.55.44v1.97h-8.17Z"/>
          <path class="cls-5" d="m1209.83,451.82c-1.53,0-2.87-.36-4-1.07-1.14-.71-2.02-1.71-2.64-2.98s-.94-2.74-.94-4.41v-.66c0-1.6.3-3.04.91-4.31.6-1.27,1.47-2.28,2.61-3.02,1.13-.74,2.49-1.11,4.06-1.11,1.36,0,2.56.22,3.59.67,1.03.45,1.89,1.06,2.59,1.84l.08,4.06h-2.41l-.53-2.95c-.35-.36-.8-.66-1.33-.88s-1.16-.33-1.88-.33c-.92,0-1.72.27-2.41.81-.69.54-1.23,1.27-1.62,2.17-.39.91-.58,1.92-.58,3.03v.66c0,1.23.18,2.3.54,3.2s.88,1.61,1.55,2.1,1.47.74,2.4.74c1.04,0,1.91-.29,2.59-.86s1.11-1.36,1.27-2.36h2.77l.03.09c-.05.97-.34,1.88-.86,2.72-.52.84-1.26,1.52-2.23,2.04-.96.52-2.15.77-3.55.77Z"/>
          <path class="cls-5" d="m1226.89,451.82c-1.56,0-2.91-.37-4.04-1.1-1.13-.73-2-1.75-2.62-3.05-.62-1.3-.92-2.78-.92-4.45v-.34c0-1.67.31-3.15.92-4.45.61-1.3,1.49-2.32,2.62-3.05,1.13-.74,2.47-1.11,4.01-1.11s2.91.37,4.04,1.11c1.13.74,2,1.75,2.62,3.05.61,1.29.92,2.78.92,4.45v.34c0,1.68-.31,3.16-.92,4.46-.62,1.3-1.48,2.31-2.61,3.04s-2.46,1.09-4.02,1.09Zm0-2.41c.98,0,1.8-.27,2.46-.8.66-.54,1.16-1.27,1.5-2.2.34-.93.51-1.99.51-3.18v-.34c0-1.19-.17-2.25-.51-3.18-.34-.93-.84-1.67-1.51-2.2-.67-.54-1.5-.8-2.48-.8s-1.8.27-2.47.8c-.67.54-1.17,1.27-1.5,2.2-.33.93-.5,1.99-.5,3.18v.34c0,1.19.17,2.25.5,3.18.33.93.84,1.67,1.51,2.2s1.5.8,2.49.8Z"/>
          <path class="cls-5" d="m988.69,490.22c-1.38,0-2.55-.34-3.54-1.02s-1.74-1.63-2.26-2.85c-.52-1.22-.78-2.64-.78-4.27v-.33c0-1.81.26-3.4.78-4.77.52-1.36,1.28-2.42,2.27-3.18.99-.75,2.18-1.13,3.56-1.13,1,0,1.88.18,2.65.55s1.42.9,1.96,1.6v-6.89l-2.55-.44v-1.98h5.62v21.97l2.55.44v1.97h-5.22l-.25-2.02c-.55.77-1.23,1.35-2.02,1.75s-1.72.59-2.77.59Zm.78-2.5c.92,0,1.69-.21,2.31-.62s1.14-1,1.55-1.77v-7.84c-.4-.71-.91-1.27-1.55-1.69-.64-.42-1.4-.62-2.28-.62-.98,0-1.79.28-2.42.84-.64.56-1.11,1.33-1.42,2.31s-.47,2.13-.47,3.43v.33c0,1.7.35,3.06,1.05,4.09.7,1.03,1.78,1.55,3.23,1.55Z"/>
          <path class="cls-5" d="m1008.64,490.22c-1.56,0-2.91-.37-4.04-1.1-1.13-.73-2-1.75-2.62-3.05-.62-1.3-.92-2.78-.92-4.45v-.34c0-1.67.31-3.15.92-4.45.61-1.3,1.49-2.32,2.62-3.05,1.13-.74,2.47-1.11,4.01-1.11s2.91.37,4.04,1.11c1.13.74,2,1.75,2.62,3.05.61,1.29.92,2.78.92,4.45v.34c0,1.68-.31,3.16-.92,4.46-.62,1.3-1.48,2.31-2.61,3.04s-2.46,1.09-4.02,1.09Zm0-2.41c.98,0,1.8-.27,2.46-.8.66-.54,1.16-1.27,1.5-2.2.34-.93.51-1.99.51-3.18v-.34c0-1.19-.17-2.25-.51-3.18-.34-.93-.84-1.67-1.51-2.2-.67-.54-1.5-.8-2.48-.8s-1.8.27-2.47.8c-.67.54-1.17,1.27-1.5,2.2-.33.93-.5,1.99-.5,3.18v.34c0,1.19.17,2.25.5,3.18.33.93.84,1.67,1.51,2.2s1.5.8,2.49.8Z"/>
          <path class="cls-5" d="m1034.22,490.22c-1.56,0-2.92-.36-4.08-1.07s-2.05-1.71-2.68-2.98c-.63-1.27-.95-2.74-.95-4.41v-.69c0-1.6.33-3.04.99-4.3.66-1.27,1.54-2.27,2.64-3,1.1-.73,2.3-1.1,3.6-1.1,1.52,0,2.79.31,3.82.94,1.03.62,1.8,1.5,2.32,2.63.52,1.13.78,2.46.78,3.99v1.92h-10.97l-.05.08c.02,1.08.21,2.04.57,2.88s.88,1.5,1.55,1.98c.68.48,1.49.72,2.44.72,1.04,0,1.96-.15,2.74-.45.79-.3,1.47-.71,2.04-1.23l1.2,2c-.6.58-1.4,1.08-2.4,1.48-1,.4-2.19.6-3.59.6Zm-4.42-10.47h7.8v-.41c0-.81-.14-1.54-.43-2.18-.29-.64-.71-1.15-1.28-1.52-.57-.37-1.28-.55-2.13-.55-.69,0-1.31.2-1.88.6s-1.03.95-1.39,1.63c-.37.69-.6,1.47-.72,2.34l.03.08Z"/>
          <path class="cls-5" d="m1043.06,489.89v-1.97l2.55-.44v-12.08l-2.55-.44v-1.98h5.3l.22,2.52c.56-.9,1.27-1.59,2.12-2.09.85-.5,1.81-.74,2.9-.74,1.82,0,3.23.53,4.23,1.6s1.5,2.72,1.5,4.95v8.27l2.55.44v1.97h-8.17v-1.97l2.55-.44v-8.2c0-1.49-.29-2.55-.88-3.17-.59-.62-1.49-.94-2.7-.94-.89,0-1.67.21-2.35.64-.68.43-1.23,1.01-1.63,1.75v9.92l2.55.44v1.97h-8.17Z"/>
          <path class="cls-5" d="m1070.89,490.22c-1.14,0-2.2-.11-3.19-.34-.99-.23-2.04-.58-3.16-1.06l-.03-4.02h2.33l.58,2.42c.58.24,1.15.41,1.7.52s1.14.16,1.77.16c1.25,0,2.15-.24,2.69-.72.54-.48.81-1.07.81-1.78,0-.67-.27-1.23-.82-1.7s-1.54-.86-2.98-1.18c-2.04-.47-3.54-1.1-4.51-1.88-.96-.79-1.45-1.84-1.45-3.15,0-.92.27-1.74.8-2.46s1.27-1.3,2.22-1.73c.95-.43,2.05-.64,3.31-.64s2.38.15,3.29.44c.91.29,1.71.68,2.38,1.17l.16,3.86h-2.31l-.5-2.25c-.37-.27-.8-.48-1.3-.62s-1.07-.22-1.72-.22c-.96,0-1.74.22-2.34.67-.6.45-.9,1.01-.9,1.69,0,.4.09.74.26,1.03s.5.55.99.79c.49.23,1.21.47,2.16.7,2.35.55,4,1.25,4.93,2.11.93.85,1.4,1.91,1.4,3.16,0,1.43-.53,2.62-1.59,3.59-1.06.96-2.72,1.45-4.99,1.45Z"/>
          <path class="cls-5" d="m1085.48,490.22c-1.76,0-3.1-.43-4.02-1.29-.92-.86-1.38-2.07-1.38-3.63,0-1.07.29-2.01.88-2.8.59-.8,1.44-1.42,2.55-1.86,1.11-.44,2.45-.66,4-.66h3.02v-1.66c0-1.02-.31-1.81-.93-2.38-.62-.56-1.49-.84-2.62-.84-.71,0-1.32.09-1.84.26-.52.17-1,.41-1.42.71l-.33,2.36h-2.38v-3.88c.76-.61,1.65-1.08,2.66-1.4,1.01-.32,2.13-.48,3.36-.48,2.05,0,3.66.49,4.83,1.47,1.17.98,1.75,2.38,1.75,4.2v8.14c0,.22,0,.43,0,.64,0,.21.02.42.04.62l1.64.17v1.97h-4.42c-.09-.46-.17-.87-.22-1.23-.05-.36-.09-.73-.11-1.09-.59.76-1.34,1.39-2.23,1.9s-1.84.76-2.85.76Zm.45-2.58c1.02,0,1.95-.25,2.8-.73s1.45-1.08,1.81-1.77v-3.06h-3.12c-1.42,0-2.48.34-3.19,1.02-.71.68-1.06,1.43-1.06,2.27,0,.74.23,1.3.69,1.7.46.39,1.15.59,2.08.59Z"/>
          <path class="cls-5" d="m1097.59,489.89v-1.97l2.55-.44v-12.08l-2.55-.44v-1.98h5.62v14.5l2.55.44v1.97h-8.17Zm2.39-21.08v-3.3h3.23v3.3h-3.23Z"/>
          <path class="cls-5" d="m1115.53,490.22c-1.56,0-2.91-.37-4.04-1.1-1.13-.73-2-1.75-2.62-3.05-.62-1.3-.92-2.78-.92-4.45v-.34c0-1.67.31-3.15.92-4.45.61-1.3,1.49-2.32,2.62-3.05,1.13-.74,2.47-1.11,4.01-1.11s2.91.37,4.04,1.11c1.13.74,2,1.75,2.62,3.05.61,1.29.92,2.78.92,4.45v.34c0,1.68-.31,3.16-.92,4.46-.62,1.3-1.48,2.31-2.61,3.04s-2.46,1.09-4.02,1.09Zm0-2.41c.98,0,1.8-.27,2.46-.8.66-.54,1.16-1.27,1.5-2.2.34-.93.51-1.99.51-3.18v-.34c0-1.19-.17-2.25-.51-3.18-.34-.93-.84-1.67-1.51-2.2-.67-.54-1.5-.8-2.48-.8s-1.8.27-2.47.8c-.67.54-1.17,1.27-1.5,2.2-.33.93-.5,1.99-.5,3.18v.34c0,1.19.17,2.25.5,3.18.33.93.84,1.67,1.51,2.2s1.5.8,2.49.8Z"/>
          <path class="cls-5" d="m1141.05,490.22c-1.53,0-2.87-.36-4-1.07-1.14-.71-2.02-1.71-2.64-2.98s-.94-2.74-.94-4.41v-.66c0-1.6.3-3.04.91-4.31.6-1.27,1.47-2.28,2.61-3.02,1.13-.74,2.49-1.11,4.06-1.11,1.36,0,2.56.22,3.59.67,1.03.45,1.89,1.06,2.59,1.84l.08,4.06h-2.41l-.53-2.95c-.35-.36-.8-.66-1.33-.88s-1.16-.33-1.88-.33c-.92,0-1.72.27-2.41.81-.69.54-1.23,1.27-1.62,2.17-.39.91-.58,1.92-.58,3.03v.66c0,1.23.18,2.3.54,3.2s.88,1.61,1.55,2.1,1.47.74,2.4.74c1.04,0,1.91-.29,2.59-.86s1.11-1.36,1.27-2.36h2.77l.03.09c-.05.97-.34,1.88-.86,2.72-.52.84-1.26,1.52-2.23,2.04-.96.52-2.15.77-3.55.77Z"/>
          <path class="cls-5" d="m1149.92,489.89v-1.97l2.55-.44v-19.55l-2.55-.44v-1.98h5.62v21.97l2.55.44v1.97h-8.17Z"/>
          <path class="cls-5" d="m1160.17,489.89v-1.97l2.55-.44v-12.08l-2.55-.44v-1.98h5.62v14.5l2.55.44v1.97h-8.17Zm2.12-20.12l2.88-4.25h3.59l.03.09-4.2,4.16h-2.3Z"/>
          <path class="cls-5" d="m1170.47,489.89v-1.97l2.55-.44v-12.08l-2.55-.44v-1.98h5.3l.22,2.52c.56-.9,1.27-1.59,2.12-2.09.85-.5,1.81-.74,2.9-.74,1.82,0,3.23.53,4.23,1.6s1.5,2.72,1.5,4.95v8.27l2.55.44v1.97h-8.17v-1.97l2.55-.44v-8.2c0-1.49-.29-2.55-.88-3.17-.59-.62-1.49-.94-2.7-.94-.89,0-1.67.21-2.35.64-.68.43-1.23,1.01-1.63,1.75v9.92l2.55.44v1.97h-8.17Z"/>
          <path class="cls-5" d="m1191.34,489.89v-1.97l2.55-.44v-12.08l-2.55-.44v-1.98h5.62v14.5l2.55.44v1.97h-8.17Zm2.39-21.08v-3.3h3.23v3.3h-3.23Z"/>
          <path class="cls-5" d="m1209.28,490.22c-1.53,0-2.87-.36-4-1.07-1.14-.71-2.02-1.71-2.64-2.98s-.94-2.74-.94-4.41v-.66c0-1.6.3-3.04.91-4.31.6-1.27,1.47-2.28,2.61-3.02,1.13-.74,2.49-1.11,4.06-1.11,1.36,0,2.56.22,3.59.67,1.03.45,1.89,1.06,2.59,1.84l.08,4.06h-2.41l-.53-2.95c-.35-.36-.8-.66-1.33-.88s-1.16-.33-1.88-.33c-.92,0-1.72.27-2.41.81-.69.54-1.23,1.27-1.62,2.17-.39.91-.58,1.92-.58,3.03v.66c0,1.23.18,2.3.54,3.2s.88,1.61,1.55,2.1,1.47.74,2.4.74c1.04,0,1.91-.29,2.59-.86s1.11-1.36,1.27-2.36h2.77l.03.09c-.05.97-.34,1.88-.86,2.72-.52.84-1.26,1.52-2.23,2.04-.96.52-2.15.77-3.55.77Z"/>
          <path class="cls-5" d="m1226.34,490.22c-1.56,0-2.91-.37-4.04-1.1-1.13-.73-2-1.75-2.62-3.05-.62-1.3-.92-2.78-.92-4.45v-.34c0-1.67.31-3.15.92-4.45.61-1.3,1.49-2.32,2.62-3.05,1.13-.74,2.47-1.11,4.01-1.11s2.91.37,4.04,1.11c1.13.74,2,1.75,2.62,3.05.61,1.29.92,2.78.92,4.45v.34c0,1.68-.31,3.16-.92,4.46-.62,1.3-1.48,2.31-2.61,3.04s-2.46,1.09-4.02,1.09Zm0-2.41c.98,0,1.8-.27,2.46-.8.66-.54,1.16-1.27,1.5-2.2.34-.93.51-1.99.51-3.18v-.34c0-1.19-.17-2.25-.51-3.18-.34-.93-.84-1.67-1.51-2.2-.67-.54-1.5-.8-2.48-.8s-1.8.27-2.47.8c-.67.54-1.17,1.27-1.5,2.2-.33.93-.5,1.99-.5,3.18v.34c0,1.19.17,2.25.5,3.18.33.93.84,1.67,1.51,2.2s1.5.8,2.49.8Z"/>
        </g>
      </g>
      <g>
        <rect class="cls-4" x="652" y="357" width="280" height="330" rx="8" ry="8"/>
        <g>
          <path class="cls-5" d="m722.32,432.29v-1.97l2.55-.44v-17.92l-2.55-.44v-1.98h8.91c2.01,0,3.76.48,5.26,1.44,1.49.96,2.66,2.28,3.49,3.95.83,1.68,1.25,3.59,1.25,5.75v.48c0,2.11-.4,4-1.2,5.68-.8,1.68-1.94,3.01-3.41,3.98-1.47.97-3.22,1.46-5.23,1.46h-9.06Zm5.62-2.41h3.28c1.44,0,2.67-.39,3.7-1.18,1.03-.79,1.83-1.84,2.38-3.16.56-1.32.84-2.78.84-4.38v-.52c0-1.66-.28-3.14-.84-4.45-.56-1.31-1.35-2.34-2.38-3.1-1.03-.76-2.27-1.14-3.7-1.14h-3.28v17.92Z"/>
          <path class="cls-5" d="m751.04,432.62c-1.56,0-2.91-.37-4.04-1.1-1.13-.73-2-1.75-2.62-3.05-.62-1.3-.92-2.78-.92-4.45v-.34c0-1.67.31-3.15.92-4.45.61-1.3,1.49-2.31,2.62-3.05,1.13-.74,2.47-1.11,4.01-1.11s2.91.37,4.04,1.11c1.13.74,2,1.76,2.62,3.05.61,1.29.92,2.78.92,4.45v.34c0,1.68-.31,3.16-.92,4.46-.62,1.3-1.48,2.31-2.61,3.04-1.12.73-2.46,1.09-4.02,1.09Zm0-2.41c.98,0,1.8-.27,2.46-.8.66-.54,1.16-1.27,1.5-2.2.34-.93.51-1.99.51-3.18v-.34c0-1.19-.17-2.25-.51-3.18-.34-.93-.84-1.67-1.51-2.2-.67-.54-1.5-.8-2.48-.8s-1.8.27-2.47.8c-.67.54-1.17,1.27-1.5,2.2-.33.93-.5,1.99-.5,3.18v.34c0,1.19.17,2.25.5,3.18.33.93.84,1.67,1.51,2.2.67.54,1.5.8,2.49.8Z"/>
          <path class="cls-5" d="m767.8,432.62c-1.14,0-2.2-.11-3.19-.34-.99-.23-2.04-.58-3.16-1.06l-.03-4.02h2.33l.58,2.42c.58.24,1.15.41,1.7.52s1.14.16,1.77.16c1.25,0,2.15-.24,2.69-.72.54-.48.81-1.07.81-1.78,0-.67-.27-1.23-.82-1.7-.55-.46-1.54-.86-2.98-1.18-2.04-.47-3.54-1.1-4.51-1.88-.96-.79-1.45-1.84-1.45-3.15,0-.92.27-1.74.8-2.46.53-.72,1.27-1.3,2.22-1.73.95-.43,2.05-.64,3.31-.64s2.38.15,3.29.44c.91.29,1.71.68,2.38,1.17l.16,3.86h-2.31l-.5-2.25c-.37-.27-.8-.48-1.3-.62-.5-.14-1.07-.22-1.72-.22-.96,0-1.74.22-2.34.67-.6.45-.9,1.01-.9,1.69,0,.4.09.74.26,1.03.17.29.5.55.99.79.49.23,1.21.47,2.16.7,2.35.55,4,1.26,4.93,2.11.93.86,1.4,1.91,1.4,3.16,0,1.43-.53,2.62-1.59,3.59-1.06.96-2.72,1.45-4.99,1.45Z"/>
          <path class="cls-5" d="m783.77,432.62c-1.14,0-2.2-.11-3.19-.34-.99-.23-2.04-.58-3.16-1.06l-.03-4.02h2.33l.58,2.42c.58.24,1.15.41,1.7.52s1.14.16,1.77.16c1.25,0,2.15-.24,2.69-.72.54-.48.81-1.07.81-1.78,0-.67-.27-1.23-.82-1.7-.55-.46-1.54-.86-2.98-1.18-2.04-.47-3.54-1.1-4.51-1.88-.96-.79-1.45-1.84-1.45-3.15,0-.92.27-1.74.8-2.46.53-.72,1.27-1.3,2.22-1.73.95-.43,2.05-.64,3.31-.64s2.38.15,3.29.44c.91.29,1.71.68,2.38,1.17l.16,3.86h-2.31l-.5-2.25c-.37-.27-.8-.48-1.3-.62-.5-.14-1.07-.22-1.72-.22-.96,0-1.74.22-2.34.67-.6.45-.9,1.01-.9,1.69,0,.4.09.74.26,1.03.17.29.5.55.99.79.49.23,1.21.47,2.16.7,2.35.55,4,1.26,4.93,2.11.93.86,1.4,1.91,1.4,3.16,0,1.43-.53,2.62-1.59,3.59-1.06.96-2.72,1.45-4.99,1.45Z"/>
          <path class="cls-5" d="m792.79,432.29v-1.97l2.55-.44v-12.08l-2.55-.44v-1.98h5.62v14.5l2.55.44v1.97h-8.17Zm2.39-21.08v-3.3h3.23v3.3h-3.23Z"/>
          <path class="cls-5" d="m810.79,432.62c-1.56,0-2.92-.36-4.08-1.07-1.16-.71-2.05-1.71-2.68-2.98-.63-1.27-.95-2.74-.95-4.41v-.69c0-1.6.33-3.04.99-4.3.66-1.27,1.54-2.27,2.64-3,1.1-.73,2.3-1.1,3.6-1.1,1.52,0,2.79.31,3.82.94,1.03.62,1.8,1.5,2.32,2.63.52,1.13.78,2.46.78,3.99v1.92h-10.97l-.05.08c.02,1.08.21,2.04.57,2.88.36.84.88,1.5,1.55,1.98.68.48,1.49.72,2.44.72,1.04,0,1.96-.15,2.74-.45.79-.3,1.47-.71,2.04-1.23l1.2,2c-.6.58-1.4,1.08-2.4,1.48-1,.4-2.19.6-3.59.6Zm-5.28-20.59v-.41l3.84-3.7h1.86l3.88,3.72v.39h-2.52l-2.3-2.31-2.27,2.31h-2.5Zm.86,10.12h7.8v-.41c0-.81-.14-1.54-.43-2.18-.29-.64-.71-1.14-1.28-1.52-.57-.37-1.28-.55-2.13-.55-.69,0-1.31.2-1.88.6-.56.4-1.03.95-1.39,1.63-.37.69-.6,1.47-.72,2.34l.03.08Z"/>
          <path class="cls-5" d="m834.23,432.62c-1.38,0-2.55-.34-3.54-1.02-.98-.68-1.74-1.63-2.26-2.85-.52-1.22-.78-2.64-.78-4.27v-.33c0-1.81.26-3.4.78-4.77.52-1.36,1.28-2.42,2.27-3.18.99-.75,2.18-1.13,3.56-1.13,1,0,1.88.19,2.65.55.77.37,1.42.9,1.96,1.6v-6.89l-2.55-.44v-1.98h5.62v21.97l2.55.44v1.97h-5.22l-.25-2.02c-.55.77-1.23,1.36-2.02,1.75-.8.4-1.72.59-2.77.59Zm.78-2.5c.92,0,1.69-.21,2.31-.62.62-.42,1.14-1,1.55-1.77v-7.84c-.4-.71-.91-1.27-1.55-1.69-.64-.42-1.4-.62-2.28-.62-.98,0-1.79.28-2.42.84-.64.56-1.11,1.33-1.42,2.31s-.47,2.13-.47,3.43v.33c0,1.7.35,3.06,1.05,4.09.7,1.03,1.78,1.55,3.23,1.55Z"/>
          <path class="cls-5" d="m854.18,432.62c-1.56,0-2.91-.37-4.04-1.1-1.13-.73-2-1.75-2.62-3.05-.62-1.3-.92-2.78-.92-4.45v-.34c0-1.67.31-3.15.92-4.45.61-1.3,1.49-2.31,2.62-3.05,1.13-.74,2.47-1.11,4.01-1.11s2.91.37,4.04,1.11c1.13.74,2,1.76,2.62,3.05.61,1.29.92,2.78.92,4.45v.34c0,1.68-.31,3.16-.92,4.46-.62,1.3-1.48,2.31-2.61,3.04-1.12.73-2.46,1.09-4.02,1.09Zm0-2.41c.98,0,1.8-.27,2.46-.8.66-.54,1.16-1.27,1.5-2.2.34-.93.51-1.99.51-3.18v-.34c0-1.19-.17-2.25-.51-3.18-.34-.93-.84-1.67-1.51-2.2-.67-.54-1.5-.8-2.48-.8s-1.8.27-2.47.8c-.67.54-1.17,1.27-1.5,2.2-.33.93-.5,1.99-.5,3.18v.34c0,1.19.17,2.25.5,3.18.33.93.84,1.67,1.51,2.2.67.54,1.5.8,2.49.8Z"/>
          <path class="cls-5" d="m689.19,470.69v-1.97l2.55-.44v-12.08l-2.55-.44v-1.98h5.31l.2,2.2c.54-.8,1.24-1.42,2.09-1.86.85-.44,1.84-.66,2.97-.66s2.09.26,2.9.78c.81.52,1.41,1.3,1.82,2.34.53-.96,1.23-1.72,2.11-2.28s1.9-.84,3.06-.84c1.73,0,3.09.59,4.09,1.77,1,1.18,1.5,2.96,1.5,5.34v7.7l2.55.44v1.97h-8.19v-1.97l2.55-.44v-7.73c0-1.67-.29-2.85-.86-3.54-.57-.69-1.42-1.04-2.55-1.04s-1.94.38-2.59,1.13c-.65.76-1.03,1.71-1.13,2.85v8.33l2.55.44v1.97h-8.17v-1.97l2.55-.44v-7.73c0-1.58-.29-2.74-.88-3.48-.59-.73-1.44-1.1-2.55-1.1-.94,0-1.71.19-2.31.58-.6.39-1.07.93-1.39,1.62v10.11l2.55.44v1.97h-8.17Z"/>
          <path class="cls-5" d="m727.55,471.02c-1.56,0-2.92-.36-4.08-1.07-1.16-.71-2.05-1.71-2.68-2.98-.63-1.27-.95-2.74-.95-4.41v-.69c0-1.6.33-3.04.99-4.3.66-1.27,1.54-2.27,2.64-3,1.1-.73,2.3-1.1,3.6-1.1,1.52,0,2.79.31,3.82.94,1.03.62,1.8,1.5,2.32,2.63.52,1.13.78,2.46.78,3.99v1.92h-10.97l-.05.08c.02,1.08.21,2.04.57,2.88.36.84.88,1.5,1.55,1.98.68.48,1.49.72,2.44.72,1.04,0,1.96-.15,2.74-.45.79-.3,1.47-.71,2.04-1.23l1.2,2c-.6.58-1.4,1.08-2.4,1.48-1,.4-2.19.6-3.59.6Zm-4.42-10.47h7.8v-.41c0-.81-.14-1.54-.43-2.18-.29-.64-.71-1.15-1.28-1.52-.57-.37-1.28-.55-2.13-.55-.69,0-1.31.2-1.88.6-.56.4-1.03.95-1.39,1.63-.37.69-.6,1.47-.72,2.34l.03.08Z"/>
          <path class="cls-5" d="m743.66,471.02c-1.38,0-2.55-.34-3.54-1.02-.98-.68-1.74-1.63-2.26-2.85-.52-1.22-.78-2.64-.78-4.27v-.33c0-1.81.26-3.4.78-4.77.52-1.36,1.28-2.42,2.27-3.18.99-.75,2.18-1.13,3.56-1.13,1,0,1.88.19,2.65.55.77.37,1.42.9,1.96,1.6v-6.89l-2.55-.44v-1.98h5.62v21.97l2.55.44v1.97h-5.22l-.25-2.02c-.55.77-1.23,1.35-2.02,1.75s-1.72.59-2.77.59Zm.78-2.5c.92,0,1.69-.21,2.31-.62.62-.42,1.14-1,1.55-1.77v-7.84c-.4-.71-.91-1.27-1.55-1.69-.64-.42-1.4-.62-2.28-.62-.98,0-1.79.28-2.42.84-.64.56-1.11,1.33-1.42,2.31s-.47,2.13-.47,3.43v.33c0,1.7.35,3.06,1.05,4.09.7,1.03,1.78,1.55,3.23,1.55Z"/>
          <path class="cls-5" d="m755.94,470.69v-1.97l2.55-.44v-12.08l-2.55-.44v-1.98h5.62v14.5l2.55.44v1.97h-8.17Zm2.39-21.08v-3.3h3.23v3.3h-3.23Z"/>
          <path class="cls-5" d="m773.88,471.02c-1.53,0-2.87-.36-4-1.07-1.14-.71-2.02-1.71-2.64-2.98-.62-1.27-.94-2.74-.94-4.41v-.66c0-1.6.3-3.04.91-4.31.6-1.27,1.47-2.28,2.61-3.02,1.13-.74,2.49-1.11,4.06-1.11,1.36,0,2.56.22,3.59.67,1.03.45,1.89,1.06,2.59,1.84l.08,4.06h-2.41l-.53-2.95c-.35-.36-.8-.66-1.33-.88s-1.16-.33-1.88-.33c-.92,0-1.72.27-2.41.81-.69.54-1.23,1.27-1.62,2.17-.39.91-.58,1.92-.58,3.03v.66c0,1.23.18,2.3.54,3.2s.88,1.61,1.55,2.1c.67.5,1.47.74,2.4.74,1.04,0,1.91-.29,2.59-.86.69-.57,1.11-1.36,1.27-2.36h2.77l.03.09c-.05.97-.34,1.88-.86,2.72-.52.84-1.26,1.52-2.23,2.04-.96.52-2.15.77-3.55.77Z"/>
          <path class="cls-5" d="m788.69,471.02c-1.76,0-3.1-.43-4.02-1.29-.92-.86-1.38-2.07-1.38-3.63,0-1.07.29-2.01.88-2.8.59-.8,1.44-1.42,2.55-1.86,1.11-.44,2.45-.66,4-.66h3.02v-1.66c0-1.02-.31-1.81-.93-2.38-.62-.56-1.49-.84-2.62-.84-.71,0-1.32.09-1.84.26-.52.17-1,.41-1.42.71l-.33,2.36h-2.38v-3.88c.76-.61,1.65-1.08,2.66-1.4,1.01-.32,2.13-.48,3.36-.48,2.05,0,3.66.49,4.83,1.47,1.17.98,1.75,2.38,1.75,4.2v8.14c0,.22,0,.43,0,.64,0,.21.02.42.04.62l1.64.17v1.97h-4.42c-.09-.46-.17-.87-.22-1.23-.05-.36-.09-.73-.11-1.09-.59.76-1.34,1.39-2.23,1.9s-1.84.76-2.85.76Zm.45-2.58c1.02,0,1.95-.24,2.8-.73.84-.49,1.45-1.08,1.81-1.77v-3.06h-3.12c-1.42,0-2.48.34-3.19,1.02-.71.68-1.06,1.43-1.06,2.27,0,.74.23,1.3.69,1.7.46.39,1.15.59,2.08.59Z"/>
          <path class="cls-5" d="m800.91,470.69v-1.97l2.55-.44v-12.08l-2.55-.44v-1.98h5.31l.2,2.2c.54-.8,1.24-1.42,2.09-1.86.85-.44,1.84-.66,2.97-.66s2.09.26,2.9.78c.81.52,1.41,1.3,1.82,2.34.53-.96,1.23-1.72,2.11-2.28s1.9-.84,3.06-.84c1.73,0,3.09.59,4.09,1.77,1,1.18,1.5,2.96,1.5,5.34v7.7l2.55.44v1.97h-8.19v-1.97l2.55-.44v-7.73c0-1.67-.29-2.85-.86-3.54-.57-.69-1.42-1.04-2.55-1.04s-1.94.38-2.59,1.13c-.65.76-1.03,1.71-1.13,2.85v8.33l2.55.44v1.97h-8.17v-1.97l2.55-.44v-7.73c0-1.58-.29-2.74-.88-3.48-.59-.73-1.44-1.1-2.55-1.1-.94,0-1.71.19-2.31.58-.6.39-1.07.93-1.39,1.62v10.11l2.55.44v1.97h-8.17Z"/>
          <path class="cls-5" d="m839.27,471.02c-1.56,0-2.92-.36-4.08-1.07-1.16-.71-2.05-1.71-2.68-2.98-.63-1.27-.95-2.74-.95-4.41v-.69c0-1.6.33-3.04.99-4.3.66-1.27,1.54-2.27,2.64-3,1.1-.73,2.3-1.1,3.6-1.1,1.52,0,2.79.31,3.82.94,1.03.62,1.8,1.5,2.32,2.63.52,1.13.78,2.46.78,3.99v1.92h-10.97l-.05.08c.02,1.08.21,2.04.57,2.88.36.84.88,1.5,1.55,1.98.68.48,1.49.72,2.44.72,1.04,0,1.96-.15,2.74-.45.79-.3,1.47-.71,2.04-1.23l1.2,2c-.6.58-1.4,1.08-2.4,1.48-1,.4-2.19.6-3.59.6Zm-4.42-10.47h7.8v-.41c0-.81-.14-1.54-.43-2.18-.29-.64-.71-1.15-1.28-1.52-.57-.37-1.28-.55-2.13-.55-.69,0-1.31.2-1.88.6-.56.4-1.03.95-1.39,1.63-.37.69-.6,1.47-.72,2.34l.03.08Z"/>
          <path class="cls-5" d="m848.11,470.69v-1.97l2.55-.44v-12.08l-2.55-.44v-1.98h5.3l.22,2.52c.56-.9,1.27-1.59,2.12-2.09.85-.49,1.81-.74,2.9-.74,1.82,0,3.23.53,4.23,1.6,1,1.07,1.5,2.72,1.5,4.95v8.27l2.55.44v1.97h-8.17v-1.97l2.55-.44v-8.2c0-1.49-.29-2.55-.88-3.17-.59-.62-1.49-.94-2.7-.94-.89,0-1.67.21-2.35.64-.68.43-1.23,1.01-1.63,1.75v9.92l2.55.44v1.97h-8.17Z"/>
          <path class="cls-5" d="m874.44,470.95c-1.25,0-2.24-.37-2.98-1.1s-1.1-1.91-1.1-3.52v-10.27h-2.67v-2.28h2.67v-4.08h3.08v4.08h3.67v2.28h-3.67v10.27c0,.81.16,1.41.48,1.8.32.39.75.58,1.3.58.36,0,.77-.03,1.22-.1.45-.07.8-.13,1.05-.18l.42,2.02c-.45.14-1,.25-1.65.36-.65.1-1.26.16-1.82.16Z"/>
          <path class="cls-5" d="m887.2,471.02c-1.56,0-2.91-.37-4.04-1.1-1.13-.73-2-1.75-2.62-3.05-.62-1.3-.92-2.78-.92-4.45v-.34c0-1.67.31-3.15.92-4.45.61-1.3,1.49-2.31,2.62-3.05,1.13-.74,2.47-1.11,4.01-1.11s2.91.37,4.04,1.11c1.13.74,2,1.76,2.62,3.05.61,1.29.92,2.78.92,4.45v.34c0,1.68-.31,3.16-.92,4.46-.62,1.3-1.48,2.31-2.61,3.04-1.12.73-2.46,1.09-4.02,1.09Zm0-2.41c.98,0,1.8-.27,2.46-.8.66-.54,1.16-1.27,1.5-2.2.34-.93.51-1.99.51-3.18v-.34c0-1.19-.17-2.25-.51-3.18-.34-.93-.84-1.67-1.51-2.2-.67-.54-1.5-.8-2.48-.8s-1.8.27-2.47.8c-.67.54-1.17,1.27-1.5,2.2-.33.93-.5,1.99-.5,3.18v.34c0,1.19.17,2.25.5,3.18.33.93.84,1.67,1.51,2.2.67.54,1.5.8,2.49.8Z"/>
          <path class="cls-5" d="m700.05,509.42c-1.56,0-2.92-.36-4.08-1.07-1.16-.71-2.05-1.71-2.68-2.98-.63-1.27-.95-2.74-.95-4.41v-.69c0-1.6.33-3.04.99-4.3.66-1.27,1.54-2.27,2.64-3,1.1-.73,2.3-1.1,3.6-1.1,1.52,0,2.79.31,3.82.94,1.03.62,1.8,1.5,2.32,2.63.52,1.13.78,2.46.78,3.99v1.92h-10.97l-.05.08c.02,1.08.21,2.04.57,2.88.36.84.88,1.5,1.55,1.98.68.48,1.49.72,2.44.72,1.04,0,1.96-.15,2.74-.45.79-.3,1.47-.71,2.04-1.23l1.2,2c-.6.58-1.4,1.08-2.4,1.48-1,.4-2.19.6-3.59.6Zm-4.42-10.47h7.8v-.41c0-.81-.14-1.54-.43-2.18-.29-.64-.71-1.15-1.28-1.52-.57-.37-1.28-.55-2.13-.55-.69,0-1.31.2-1.88.6-.56.4-1.03.95-1.39,1.63-.37.69-.6,1.47-.72,2.34l.03.08Z"/>
          <path class="cls-5" d="m708.4,509.09v-1.97l1.88-.36,5.05-6.22-4.94-6.02-1.67-.36v-1.98h6.62v1.98l-1.69.19,3.47,4.31,3.38-4.33-1.81-.17v-1.98h6.52v1.98l-1.72.36-4.58,5.97,5.27,6.27,1.75.36v1.97h-7.17v-1.97l2.03-.17-3.7-4.52-3.59,4.52,1.83.17v1.97h-6.91Z"/>
          <path class="cls-5" d="m727.23,515.59v-1.98l2.39-.44v-18.56l-2.55-.44v-1.98h5.19l.28,2.06c.56-.77,1.25-1.36,2.05-1.77.81-.41,1.74-.61,2.8-.61,1.4,0,2.59.38,3.58,1.13.99.75,1.74,1.81,2.27,3.17.52,1.36.78,2.95.78,4.77v.33c0,1.62-.26,3.05-.79,4.27-.53,1.22-1.28,2.17-2.26,2.85-.98.68-2.16,1.02-3.53,1.02-1.04,0-1.96-.18-2.74-.52-.79-.35-1.46-.87-2.01-1.55v5.83l2.69.44v1.98h-8.16Zm9.27-8.58c1.46,0,2.56-.53,3.31-1.59s1.12-2.44,1.12-4.14v-.33c0-1.29-.17-2.43-.5-3.41-.33-.98-.83-1.76-1.49-2.32-.66-.56-1.49-.84-2.48-.84-.88,0-1.62.2-2.25.59-.62.4-1.13.94-1.52,1.62v8.23c.38.7.89,1.24,1.51,1.62.62.38,1.38.57,2.29.57Z"/>
          <path class="cls-5" d="m754.73,509.42c-1.56,0-2.92-.36-4.08-1.07-1.16-.71-2.05-1.71-2.68-2.98-.63-1.27-.95-2.74-.95-4.41v-.69c0-1.6.33-3.04.99-4.3.66-1.27,1.54-2.27,2.64-3,1.1-.73,2.3-1.1,3.6-1.1,1.52,0,2.79.31,3.82.94,1.03.62,1.8,1.5,2.32,2.63.52,1.13.78,2.46.78,3.99v1.92h-10.97l-.05.08c.02,1.08.21,2.04.57,2.88.36.84.88,1.5,1.55,1.98.68.48,1.49.72,2.44.72,1.04,0,1.96-.15,2.74-.45.79-.3,1.47-.71,2.04-1.23l1.2,2c-.6.58-1.4,1.08-2.4,1.48-1,.4-2.19.6-3.59.6Zm-4.42-10.47h7.8v-.41c0-.81-.14-1.54-.43-2.18-.29-.64-.71-1.15-1.28-1.52-.57-.37-1.28-.55-2.13-.55-.69,0-1.31.2-1.88.6-.56.4-1.03.95-1.39,1.63-.37.69-.6,1.47-.72,2.34l.03.08Z"/>
          <path class="cls-5" d="m763.54,509.09v-1.97l2.55-.44v-12.08l-2.55-.44v-1.98h5.3l.27,2.16.03.3c.48-.87,1.07-1.54,1.77-2.03.7-.49,1.51-.73,2.41-.73.32,0,.65.03.99.09.34.06.58.11.73.16l-.41,2.86-2.14-.12c-.81-.05-1.5.13-2.05.55-.55.42-.98.99-1.28,1.7v9.58l2.55.44v1.97h-8.17Z"/>
          <path class="cls-5" d="m776.8,509.09v-1.97l2.55-.44v-12.08l-2.55-.44v-1.98h5.62v14.5l2.55.44v1.97h-8.17Zm2.39-21.08v-3.3h3.23v3.3h-3.23Z"/>
          <path class="cls-5" d="m787.1,509.09v-1.97l2.55-.44v-12.08l-2.55-.44v-1.98h5.31l.2,2.2c.54-.8,1.24-1.42,2.09-1.86.85-.44,1.84-.66,2.97-.66s2.09.26,2.9.78c.81.52,1.41,1.3,1.82,2.34.53-.96,1.23-1.72,2.11-2.28s1.9-.84,3.06-.84c1.73,0,3.09.59,4.09,1.77,1,1.18,1.5,2.96,1.5,5.34v7.7l2.55.44v1.97h-8.19v-1.97l2.55-.44v-7.73c0-1.67-.29-2.85-.86-3.54-.57-.69-1.42-1.04-2.55-1.04s-1.94.38-2.59,1.13c-.65.75-1.03,1.71-1.13,2.85v8.33l2.55.44v1.97h-8.17v-1.97l2.55-.44v-7.73c0-1.58-.29-2.74-.88-3.48-.59-.73-1.44-1.1-2.55-1.1-.94,0-1.71.19-2.31.58-.6.38-1.07.93-1.39,1.62v10.11l2.55.44v1.97h-8.17Z"/>
          <path class="cls-5" d="m825.46,509.42c-1.56,0-2.92-.36-4.08-1.07-1.16-.71-2.05-1.71-2.68-2.98-.63-1.27-.95-2.74-.95-4.41v-.69c0-1.6.33-3.04.99-4.3.66-1.27,1.54-2.27,2.64-3,1.1-.73,2.3-1.1,3.6-1.1,1.52,0,2.79.31,3.82.94,1.03.62,1.8,1.5,2.32,2.63.52,1.13.78,2.46.78,3.99v1.92h-10.97l-.05.08c.02,1.08.21,2.04.57,2.88.36.84.88,1.5,1.55,1.98.68.48,1.49.72,2.44.72,1.04,0,1.96-.15,2.74-.45.79-.3,1.47-.71,2.04-1.23l1.2,2c-.6.58-1.4,1.08-2.4,1.48-1,.4-2.19.6-3.59.6Zm-4.42-10.47h7.8v-.41c0-.81-.14-1.54-.43-2.18-.29-.64-.71-1.15-1.28-1.52-.57-.37-1.28-.55-2.13-.55-.69,0-1.31.2-1.88.6-.56.4-1.03.95-1.39,1.63-.37.69-.6,1.47-.72,2.34l.03.08Z"/>
          <path class="cls-5" d="m834.3,509.09v-1.97l2.55-.44v-12.08l-2.55-.44v-1.98h5.3l.22,2.52c.56-.9,1.27-1.59,2.12-2.09.85-.5,1.81-.74,2.9-.74,1.82,0,3.23.53,4.23,1.6,1,1.07,1.5,2.72,1.5,4.95v8.27l2.55.44v1.97h-8.17v-1.97l2.55-.44v-8.2c0-1.49-.29-2.55-.88-3.17-.59-.62-1.49-.94-2.7-.94-.89,0-1.67.21-2.35.64-.68.43-1.23,1.01-1.63,1.75v9.92l2.55.44v1.97h-8.17Z"/>
          <path class="cls-5" d="m860.63,509.35c-1.25,0-2.24-.37-2.98-1.1s-1.1-1.91-1.1-3.52v-10.27h-2.67v-2.28h2.67v-4.08h3.08v4.08h3.67v2.28h-3.67v10.27c0,.81.16,1.41.48,1.8.32.38.75.58,1.3.58.36,0,.77-.03,1.22-.1.45-.07.8-.13,1.05-.18l.42,2.02c-.45.13-1,.25-1.65.36-.65.1-1.26.16-1.82.16Z"/>
          <path class="cls-5" d="m871.54,509.42c-1.76,0-3.1-.43-4.02-1.29-.92-.86-1.38-2.07-1.38-3.63,0-1.07.29-2.01.88-2.8.59-.8,1.44-1.42,2.55-1.86,1.11-.44,2.45-.66,4-.66h3.02v-1.66c0-1.02-.31-1.81-.93-2.38-.62-.56-1.49-.84-2.62-.84-.71,0-1.32.09-1.84.26-.52.17-1,.41-1.42.71l-.33,2.36h-2.38v-3.88c.76-.62,1.65-1.08,2.66-1.4,1.01-.32,2.13-.48,3.36-.48,2.05,0,3.66.49,4.83,1.47,1.17.98,1.75,2.38,1.75,4.2v8.14c0,.22,0,.43,0,.64,0,.21.02.42.04.62l1.64.17v1.97h-4.42c-.09-.46-.17-.87-.22-1.23-.05-.37-.09-.73-.11-1.09-.59.76-1.34,1.39-2.23,1.9-.89.5-1.84.76-2.85.76Zm.45-2.58c1.02,0,1.95-.25,2.8-.73.84-.49,1.45-1.08,1.81-1.77v-3.06h-3.12c-1.42,0-2.48.34-3.19,1.02-.71.68-1.06,1.43-1.06,2.27,0,.74.23,1.3.69,1.7.46.39,1.15.59,2.08.59Z"/>
          <path class="cls-5" d="m883.6,509.09v-1.97l2.55-.44v-19.55l-2.55-.44v-1.98h5.62v21.97l2.55.44v1.97h-8.17Z"/>
        </g>
      </g>
      <path class="cls-1" d="m1110,314.73v-50.73c0-1.1-.9-2-2-2h-468s0-44,0-44c0-1.1-.9-2-2-2s-2,.9-2,2v44H172c-1.1,0-2,.9-2,2v50.73h-7.97l9.97,17.27,9.97-17.27h-7.97v-48.73h300v48.73h-7.97l9.97,17.27,9.97-17.27h-7.97v-48.73h312v48.73h-7.97l9.97,17.27,9.97-17.27h-7.97v-48.73h312s0,48.73,0,48.73h-7.97l9.97,17.27,9.97-17.27h-7.97Z"/>
    </g>
    <g id="button">
      <rect id="background" class="cls-9" x="64" y="569" width="192" height="80" rx="12.74" ry="12.74"/>
      <path class="cls-5" d="m155.79,628.2v-16.63h-15.43v-6.45h15.43v-15.32h7.58v15.32h15.39v6.45h-15.39v16.63h-7.58Z"/>
    </g>
    <g id="button-2" data-name="button">
      <rect id="background-2" data-name="background" class="cls-9" x="380" y="569" width="192" height="80" rx="12.74" ry="12.74"/>
      <path class="cls-5" d="m471.79,628.2v-16.63h-15.43v-6.45h15.43v-15.32h7.58v15.32h15.39v6.45h-15.39v16.63h-7.58Z"/>
    </g>
    <g id="button-3" data-name="button">
      <rect id="background-3" data-name="background" class="cls-9" x="696" y="569" width="192" height="80" rx="12.74" ry="12.74"/>
      <path class="cls-5" d="m787.79,628.2v-16.63h-15.43v-6.45h15.43v-15.32h7.58v15.32h15.39v6.45h-15.39v16.63h-7.58Z"/>
    </g>
    <g id="button-4" data-name="button">
      <rect id="background-4" data-name="background" class="cls-9" x="1012" y="569" width="192" height="80" rx="12.74" ry="12.74"/>
      <path class="cls-5" d="m1103.79,628.2v-16.63h-15.43v-6.45h15.43v-15.32h7.58v15.32h15.39v6.45h-15.39v16.63h-7.58Z"/>
    </g>
  </g>
</svg>