<?xml version="1.0" encoding="utf-8"?>
<!-- Generator: Adobe Illustrator 27.8.1, SVG Export Plug-In . SVG Version: 6.00 Build 0)  -->
<svg version="1.1" id="OBJECTS" xmlns="http://www.w3.org/2000/svg" xmlns:xlink="http://www.w3.org/1999/xlink" x="0px" y="0px"
	 viewBox="0 0 500 581.1" style="enable-background:new 0 0 500 581.1;" xml:space="preserve">
<style type="text/css">
	.st0{fill:#F57A3D;}
	.st1{fill:#E8EDEF;}
	.st2{fill:#3392FF;}
	.st3{fill:#F0F3F4;}
	.st4{fill:#333333;}
	.st5{fill:#0077FF;}
	.st6{fill:#005FCC;}
	.st7{fill:#004799;}
	.st8{fill:#C70596;}
	.st9{fill:#FAFCFF;}
</style>
<path id="vertical-line" class="st0" d="M59,102.1c-2.8,0-5.1,2.3-5.1,5.1v450.1c0,1.4,0.6,2.7,1.5,3.6c1,1,2.5,1.6,4,1.5
	c2.7-0.2,4.7-2.6,4.7-5.3V107.2C64.1,104.4,61.8,102.1,59,102.1L59,102.1z"/>
<g>
	<g id="fase4">
		<g id="label">
			<path id="label-base" class="st1" d="M146.6,463.5h269.1c22.7,0,41.1,18.4,41.1,41.1l0,0c0,22.7-18.4,41.1-41.1,41.1H146.6V463.5
				L146.6,463.5L146.6,463.5z"/>
			<g>
				<path class="st2" d="M214.4,499.8l-4.1-11l-1.1-0.1v-1.5h5.1v1.5l-1.1,0.2l2.5,7.5l0.2,0.7h0.1l0.2-0.7l2.5-7.5l-1.3-0.2v-1.5
					h4.8v1.5l-1.1,0.1l-3.8,11L214.4,499.8L214.4,499.8z"/>
				<path class="st2" d="M222.7,499.8v-1.5l1.2-0.3v-5.9l-1.4-0.3v-1.5h3.9v7.7l1.2,0.3v1.5H222.7z M223.9,488.3v-2.2h2.6v2.2H223.9
					z"/>
				<path class="st2" d="M232.7,503.6c-0.5,0-1-0.1-1.6-0.2s-1.1-0.3-1.6-0.5l0.5-1.8c0.4,0.2,0.8,0.3,1.3,0.4
					c0.5,0.1,0.9,0.1,1.3,0.1c0.7,0,1.2-0.2,1.5-0.6s0.5-0.9,0.5-1.6v-0.6c-0.3,0.4-0.6,0.6-1,0.8c-0.4,0.2-0.8,0.3-1.3,0.3
					c-0.8,0-1.4-0.2-2-0.6c-0.6-0.4-1-0.9-1.3-1.6s-0.4-1.5-0.4-2.4v-0.2c0-1,0.1-1.9,0.4-2.6c0.3-0.8,0.7-1.3,1.2-1.7
					c0.5-0.4,1.2-0.6,1.9-0.6c0.6,0,1.1,0.1,1.5,0.4c0.4,0.2,0.8,0.6,1,1l0.2-1.2h2.2v9.2c0,0.8-0.2,1.6-0.5,2.2s-0.9,1.1-1.5,1.4
					C234.4,503.5,233.6,503.6,232.7,503.6L232.7,503.6z M233,498c0.4,0,0.7-0.1,0.9-0.2s0.5-0.4,0.6-0.6v-4.1
					c-0.2-0.3-0.4-0.5-0.6-0.7s-0.6-0.2-0.9-0.2c-0.4,0-0.8,0.1-1.1,0.4c-0.3,0.2-0.5,0.6-0.6,1c-0.1,0.5-0.2,1-0.2,1.6v0.2
					c0,0.8,0.1,1.5,0.4,2S232.3,498,233,498L233,498z M236.8,492.2l-1.1-1.8h2.5v1.5L236.8,492.2L236.8,492.2z"/>
				<path class="st2" d="M239,499.8v-1.5l1.2-0.3v-5.9l-1.4-0.3v-1.5h3.9v7.7l1.2,0.3v1.5H239z M240.1,488.3v-2.2h2.6v2.2H240.1z"/>
				<path class="st2" d="M244.7,499.8v-1.5l1.2-0.3v-10l-1.4-0.3v-1.5h3.9V498l1.2,0.3v1.5L244.7,499.8L244.7,499.8z"/>
				<path class="st2" d="M253.7,500c-0.9,0-1.7-0.2-2.2-0.8c-0.6-0.5-0.8-1.2-0.8-2.1c0-0.6,0.2-1.1,0.5-1.6
					c0.3-0.5,0.8-0.8,1.4-1.1c0.6-0.3,1.4-0.4,2.3-0.4h1.3v-0.7c0-0.5-0.1-0.8-0.4-1.1c-0.3-0.3-0.7-0.4-1.2-0.4
					c-0.3,0-0.5,0-0.7,0.1s-0.4,0.2-0.6,0.3l-0.2,1.2h-1.8l0-2.5c0.5-0.3,1-0.5,1.6-0.7c0.6-0.2,1.2-0.3,1.9-0.3
					c1.2,0,2.2,0.3,2.9,0.9c0.7,0.6,1.1,1.4,1.1,2.5v3.9c0,0.1,0,0.2,0,0.4s0,0.2,0,0.4l1,0.1v1.5h-3.2c-0.1-0.2-0.1-0.3-0.2-0.5
					c-0.1-0.2-0.1-0.4-0.1-0.6c-0.3,0.4-0.7,0.7-1.1,0.9S254.2,500,253.7,500L253.7,500z M251.6,488.5v-0.2l2.2-2.1h1.9l2.2,2.1v0.2
					h-2l-1.2-1.3l-1.2,1.3H251.6z M254.4,498.1c0.4,0,0.7-0.1,1-0.2s0.6-0.4,0.7-0.6v-1.5h-1.3c-0.6,0-1,0.1-1.3,0.4
					c-0.3,0.3-0.4,0.6-0.4,0.9c0,0.3,0.1,0.6,0.3,0.8S254,498.1,254.4,498.1L254.4,498.1z"/>
				<path class="st2" d="M260.5,499.8v-1.5l1.2-0.3v-5.9l-1.3-0.3v-1.5h3.7l0.1,1.4c0.3-0.5,0.7-0.9,1.2-1.1c0.5-0.3,1-0.4,1.6-0.4
					c0.9,0,1.7,0.3,2.2,0.9c0.5,0.6,0.8,1.5,0.8,2.8v4.1l1.2,0.3v1.5h-4.9v-1.5l1.1-0.3v-4.1c0-0.6-0.1-1.1-0.4-1.4
					c-0.2-0.3-0.6-0.4-1.1-0.4c-0.4,0-0.7,0.1-1,0.2c-0.3,0.2-0.5,0.4-0.7,0.7v5l1,0.3v1.5L260.5,499.8L260.5,499.8z"/>
				<path class="st2" d="M276.4,500c-0.9,0-1.7-0.2-2.4-0.6c-0.7-0.4-1.2-1-1.5-1.7c-0.4-0.7-0.5-1.5-0.5-2.5V495
					c0-0.9,0.2-1.8,0.5-2.5c0.4-0.7,0.9-1.3,1.5-1.7s1.4-0.6,2.3-0.6s1.6,0.1,2.2,0.4c0.6,0.3,1.1,0.6,1.5,0.9l0,2.7h-1.9l-0.3-1.7
					c-0.1-0.1-0.3-0.2-0.5-0.3c-0.2-0.1-0.4-0.1-0.7-0.1c-0.5,0-0.9,0.1-1.2,0.4s-0.5,0.6-0.7,1c-0.1,0.4-0.2,1-0.2,1.6v0.3
					c0,0.6,0.1,1.2,0.2,1.6s0.4,0.7,0.7,0.9c0.3,0.2,0.6,0.3,1,0.3c0.5,0,0.8-0.1,1.1-0.4s0.5-0.6,0.6-1h2.2l0,0
					c-0.1,0.7-0.3,1.2-0.6,1.7c-0.3,0.5-0.7,0.9-1.2,1.1S277.2,500,276.4,500L276.4,500z"/>
				<path class="st2" d="M281.3,499.8v-1.5l1.2-0.3v-5.9l-1.4-0.3v-1.5h3.9v7.7l1.2,0.3v1.5H281.3L281.3,499.8z M282.4,488.3v-2.2
					h2.6v2.2H282.4z"/>
				<path class="st2" d="M290.3,500c-0.9,0-1.7-0.2-2.2-0.8c-0.5-0.5-0.8-1.2-0.8-2.1c0-0.6,0.2-1.1,0.5-1.6
					c0.3-0.5,0.8-0.8,1.4-1.1s1.4-0.4,2.3-0.4h1.2v-0.7c0-0.5-0.1-0.8-0.4-1.1c-0.3-0.3-0.7-0.4-1.2-0.4c-0.3,0-0.5,0-0.7,0.1
					s-0.4,0.2-0.6,0.3l-0.2,1.2h-1.8l0-2.5c0.5-0.3,1-0.5,1.6-0.7s1.2-0.3,1.9-0.3c1.2,0,2.2,0.3,2.9,0.9c0.7,0.6,1.1,1.4,1.1,2.5
					v3.9c0,0.1,0,0.2,0,0.4s0,0.2,0,0.4l1,0.1v1.5h-3.2c-0.1-0.2-0.1-0.3-0.2-0.5s-0.1-0.4-0.1-0.6c-0.3,0.4-0.7,0.7-1.1,0.9
					S290.9,500,290.3,500L290.3,500z M291,498.1c0.4,0,0.7-0.1,1-0.2s0.6-0.4,0.7-0.6v-1.5h-1.3c-0.6,0-1,0.1-1.3,0.4
					c-0.3,0.3-0.4,0.6-0.4,0.9c0,0.3,0.1,0.6,0.3,0.8S290.6,498.1,291,498.1L291,498.1z"/>
				<path class="st2" d="M209.3,524.9v-1.5l1.2-0.3v-9.5l-1.4-0.3v-1.5h3.7l0.1,1.1c0.3-0.4,0.6-0.7,1-0.9c0.4-0.2,0.9-0.3,1.4-0.3
					c0.8,0,1.4,0.2,2,0.6c0.5,0.4,1,1,1.2,1.7c0.3,0.8,0.4,1.6,0.4,2.6v0.2c0,0.9-0.1,1.8-0.4,2.4c-0.3,0.7-0.7,1.2-1.2,1.6
					s-1.2,0.6-2,0.6c-0.5,0-0.9-0.1-1.3-0.3c-0.4-0.2-0.7-0.4-1-0.8v2.7l1.2,0.3v1.5L209.3,524.9L209.3,524.9z M214.7,519.5
					c0.6,0,1.1-0.2,1.4-0.7s0.4-1.1,0.4-2v-0.2c0-0.6-0.1-1.1-0.2-1.6c-0.1-0.4-0.3-0.8-0.6-1s-0.6-0.4-1.1-0.4
					c-0.4,0-0.7,0.1-0.9,0.2c-0.3,0.2-0.5,0.4-0.6,0.7v4.1c0.2,0.3,0.4,0.5,0.6,0.6C214,519.4,214.3,519.5,214.7,519.5L214.7,519.5z
					"/>
				<path class="st2" d="M224.8,521.5c-0.9,0-1.7-0.2-2.4-0.6c-0.7-0.4-1.2-1-1.5-1.7c-0.4-0.7-0.5-1.6-0.5-2.5v-0.2
					c0-0.9,0.2-1.8,0.5-2.5c0.4-0.7,0.9-1.3,1.5-1.7c0.7-0.4,1.5-0.6,2.4-0.6s1.7,0.2,2.4,0.6c0.7,0.4,1.2,1,1.5,1.7
					c0.4,0.7,0.5,1.6,0.5,2.5v0.2c0,0.9-0.2,1.8-0.5,2.5c-0.4,0.7-0.9,1.3-1.5,1.7C226.6,521.3,225.8,521.5,224.8,521.5L224.8,521.5
					z M224.8,519.5c0.4,0,0.8-0.1,1.1-0.4s0.5-0.6,0.6-1c0.1-0.4,0.2-0.9,0.2-1.5v-0.2c0-0.6-0.1-1-0.2-1.5c-0.1-0.4-0.3-0.8-0.6-1
					s-0.6-0.4-1.1-0.4s-0.8,0.1-1.1,0.4c-0.3,0.2-0.5,0.6-0.6,1c-0.1,0.4-0.2,0.9-0.2,1.5v0.2c0,0.6,0.1,1.1,0.2,1.5
					c0.1,0.4,0.3,0.8,0.6,1C224,519.4,224.4,519.5,224.8,519.5L224.8,519.5z M223.3,510l1.7-2.4h2.7l0,0l-2.4,2.3L223.3,510
					L223.3,510z"/>
				<path class="st2" d="M234.5,521.5c-0.7,0-1.4-0.1-2-0.2s-1.2-0.3-1.8-0.6l0-2.7h1.8l0.3,1.4c0.2,0.1,0.4,0.2,0.6,0.2
					c0.2,0.1,0.5,0.1,0.8,0.1c0.6,0,1-0.1,1.2-0.3c0.2-0.2,0.4-0.4,0.4-0.7c0-0.3-0.1-0.5-0.4-0.7c-0.2-0.2-0.7-0.4-1.5-0.5
					c-1.1-0.2-1.9-0.6-2.5-1.1s-0.8-1.1-0.8-1.9c0-0.5,0.1-1,0.4-1.4c0.3-0.4,0.7-0.8,1.2-1c0.5-0.3,1.2-0.4,2.1-0.4
					c0.7,0,1.4,0.1,1.9,0.2s1.1,0.3,1.5,0.5l0,2.6h-1.8l-0.3-1.2c-0.2-0.1-0.3-0.2-0.6-0.3c-0.2-0.1-0.4-0.1-0.7-0.1
					c-0.4,0-0.8,0.1-1,0.3c-0.2,0.2-0.4,0.4-0.4,0.7c0,0.2,0,0.3,0.1,0.5c0.1,0.1,0.2,0.3,0.5,0.4c0.2,0.1,0.6,0.2,1.1,0.4
					c1.2,0.3,2,0.6,2.6,1.1c0.5,0.5,0.8,1.1,0.8,1.9c0,0.9-0.3,1.6-1,2.1C236.7,521.2,235.7,521.5,234.5,521.5L234.5,521.5z"/>
				<path class="st2" d="M240.1,516.8v-2h4.9v2H240.1z"/>
				<path class="st2" d="M251,521.5c-0.9,0-1.7-0.2-2.4-0.6c-0.7-0.4-1.2-1-1.5-1.7c-0.4-0.7-0.5-1.5-0.5-2.5v-0.3
					c0-0.9,0.2-1.8,0.5-2.5c0.4-0.7,0.9-1.3,1.5-1.7c0.7-0.4,1.4-0.6,2.3-0.6s1.6,0.1,2.2,0.4c0.6,0.3,1.1,0.6,1.5,0.9l0,2.7h-1.9
					l-0.3-1.7c-0.1-0.1-0.3-0.2-0.5-0.3c-0.2-0.1-0.4-0.1-0.7-0.1c-0.5,0-0.9,0.1-1.2,0.3s-0.5,0.6-0.7,1c-0.1,0.4-0.2,1-0.2,1.6
					v0.3c0,0.6,0.1,1.2,0.2,1.6c0.2,0.4,0.4,0.7,0.7,0.9c0.3,0.2,0.6,0.3,0.9,0.3c0.4,0,0.8-0.1,1.1-0.3c0.3-0.2,0.5-0.6,0.6-1h2.2
					l0,0c-0.1,0.7-0.3,1.2-0.6,1.7s-0.7,0.9-1.2,1.1S251.8,521.5,251,521.5L251,521.5z"/>
				<path class="st2" d="M260.5,521.5c-0.9,0-1.7-0.2-2.4-0.6c-0.7-0.4-1.2-1-1.5-1.7c-0.4-0.7-0.5-1.6-0.5-2.5v-0.2
					c0-0.9,0.2-1.8,0.5-2.5c0.4-0.7,0.9-1.3,1.5-1.7c0.7-0.4,1.5-0.6,2.4-0.6s1.7,0.2,2.4,0.6c0.7,0.4,1.2,1,1.5,1.7
					c0.3,0.7,0.5,1.6,0.5,2.5v0.2c0,0.9-0.2,1.8-0.5,2.5c-0.4,0.7-0.9,1.3-1.5,1.7C262.3,521.3,261.5,521.5,260.5,521.5L260.5,521.5
					z M260.5,519.5c0.4,0,0.8-0.1,1.1-0.4s0.5-0.6,0.6-1s0.2-0.9,0.2-1.5v-0.2c0-0.6-0.1-1-0.2-1.5c-0.1-0.4-0.3-0.8-0.6-1
					s-0.6-0.4-1.1-0.4s-0.8,0.1-1.1,0.4c-0.3,0.2-0.5,0.6-0.6,1c-0.1,0.4-0.2,0.9-0.2,1.5v0.2c0,0.6,0.1,1.1,0.2,1.5s0.3,0.8,0.6,1
					C259.7,519.4,260.1,519.5,260.5,519.5L260.5,519.5z"/>
				<path class="st2" d="M266,521.3v-1.5l1.2-0.3v-5.9l-1.4-0.3v-1.5h3.7l0.1,1.2c0.3-0.5,0.7-0.8,1.1-1c0.5-0.3,1-0.4,1.6-0.4
					s1.1,0.1,1.6,0.4c0.4,0.3,0.8,0.7,1,1.2c0.3-0.5,0.7-0.9,1.1-1.2c0.5-0.3,1-0.4,1.6-0.4c0.9,0,1.7,0.3,2.2,0.9
					c0.5,0.6,0.8,1.6,0.8,2.9v4l1.2,0.3v1.5h-4.9v-1.5l1.1-0.3v-4c0-0.7-0.1-1.2-0.4-1.5c-0.2-0.3-0.6-0.4-1-0.4
					c-0.4,0-0.7,0.1-1,0.3s-0.5,0.5-0.6,0.9v4.6l1,0.3v1.5h-4.6v-1.5l1-0.3v-4c0-0.7-0.1-1.2-0.4-1.4s-0.6-0.4-1-0.4
					c-0.4,0-0.7,0.1-0.9,0.2c-0.3,0.1-0.5,0.4-0.6,0.6v5l1.1,0.3v1.5H266L266,521.3z"/>
				<path class="st2" d="M287.3,521.5c-0.9,0-1.7-0.2-2.4-0.6s-1.2-1-1.6-1.7c-0.4-0.7-0.5-1.5-0.5-2.4v-0.3c0-0.9,0.2-1.8,0.5-2.5
					s0.8-1.3,1.5-1.7c0.6-0.4,1.4-0.6,2.3-0.6c0.9,0,1.6,0.2,2.2,0.5c0.6,0.3,1,0.8,1.3,1.5c0.3,0.6,0.5,1.4,0.5,2.3v1.4h-5.6l0,0
					c0,0.4,0.1,0.8,0.3,1.1s0.4,0.6,0.7,0.8s0.7,0.3,1.1,0.3s0.9-0.1,1.3-0.2s0.8-0.3,1.2-0.5l0.7,1.6c-0.4,0.3-0.9,0.6-1.5,0.8
					C288.8,521.4,288.1,521.5,287.3,521.5L287.3,521.5z M285.5,515.6h3.2v-0.2c0-0.4,0-0.7-0.1-1c-0.1-0.3-0.3-0.5-0.5-0.6
					s-0.5-0.2-0.9-0.2s-0.6,0.1-0.9,0.3c-0.2,0.2-0.4,0.4-0.5,0.7C285.6,514.8,285.5,515.2,285.5,515.6L285.5,515.6L285.5,515.6z"/>
				<path class="st2" d="M292.4,521.3v-1.5l1.2-0.3v-5.9l-1.4-0.3v-1.5h3.7l0.1,1.2l0,0.2c0.2-0.5,0.5-0.9,0.9-1.2
					c0.3-0.3,0.8-0.4,1.2-0.4c0.1,0,0.3,0,0.5,0s0.3,0.1,0.5,0.1l-0.3,2.4l-1.3-0.1c-0.4,0-0.6,0-0.9,0.2c-0.2,0.1-0.4,0.3-0.6,0.6
					v4.6l1.2,0.3v1.5H292.4L292.4,521.3z"/>
				<path class="st2" d="M304.2,521.5c-0.9,0-1.7-0.2-2.4-0.6c-0.7-0.4-1.2-1-1.5-1.7c-0.4-0.7-0.5-1.5-0.5-2.5v-0.3
					c0-0.9,0.2-1.8,0.5-2.5c0.4-0.7,0.9-1.3,1.5-1.7c0.7-0.4,1.4-0.6,2.3-0.6s1.6,0.1,2.2,0.4c0.6,0.3,1.1,0.6,1.5,0.9l0,2.7H306
					l-0.3-1.7c-0.1-0.1-0.3-0.2-0.5-0.3c-0.2-0.1-0.4-0.1-0.7-0.1c-0.5,0-0.9,0.1-1.2,0.3s-0.5,0.6-0.7,1c-0.1,0.4-0.2,1-0.2,1.6
					v0.3c0,0.6,0.1,1.2,0.2,1.6c0.2,0.4,0.4,0.7,0.7,0.9c0.3,0.2,0.6,0.3,1,0.3c0.5,0,0.8-0.1,1.1-0.3c0.3-0.2,0.5-0.6,0.6-1h2.2
					l0,0c-0.1,0.7-0.3,1.2-0.6,1.7c-0.3,0.5-0.7,0.9-1.2,1.1S305.1,521.5,304.2,521.5L304.2,521.5z"/>
				<path class="st2" d="M309.2,521.3v-1.5l1.2-0.3v-5.9l-1.4-0.3v-1.5h3.9v7.7l1.2,0.3v1.5H309.2L309.2,521.3z M310.3,509.8v-2.2
					h2.6v2.2H310.3z"/>
				<path class="st2" d="M318.2,521.5c-0.9,0-1.7-0.2-2.2-0.8c-0.5-0.5-0.8-1.2-0.8-2.1c0-0.6,0.2-1.1,0.5-1.6
					c0.3-0.4,0.8-0.8,1.4-1.1s1.4-0.4,2.3-0.4h1.2v-0.7c0-0.5-0.1-0.8-0.4-1.1c-0.3-0.3-0.7-0.4-1.2-0.4c-0.3,0-0.5,0-0.7,0.1
					c-0.2,0.1-0.4,0.2-0.6,0.3l-0.2,1.2h-1.8l0-2.5c0.5-0.3,1-0.5,1.6-0.7c0.6-0.2,1.2-0.3,1.9-0.3c1.2,0,2.2,0.3,2.9,0.9
					c0.7,0.6,1.1,1.4,1.1,2.5v3.9c0,0.1,0,0.2,0,0.4s0,0.2,0,0.4l1,0.1v1.5H321c-0.1-0.2-0.1-0.3-0.2-0.5c-0.1-0.2-0.1-0.4-0.1-0.6
					c-0.3,0.4-0.7,0.7-1.1,0.9S318.7,521.5,318.2,521.5L318.2,521.5z M318.9,519.6c0.4,0,0.7-0.1,1-0.2c0.3-0.2,0.6-0.4,0.7-0.6
					v-1.5h-1.3c-0.6,0-1,0.1-1.3,0.4c-0.3,0.3-0.4,0.6-0.4,0.9c0,0.3,0.1,0.6,0.3,0.8S318.5,519.6,318.9,519.6L318.9,519.6z"/>
				<path class="st2" d="M325,521.3v-1.5l1.2-0.3v-10l-1.4-0.3v-1.5h3.9v11.8l1.2,0.3v1.5L325,521.3L325,521.3z"/>
				<path class="st2" d="M330.7,521.3v-1.5l1.2-0.3v-5.9l-1.4-0.3v-1.5h3.9v7.7l1.2,0.3v1.5H330.7L330.7,521.3z M331.9,509.8v-2.2
					h2.6v2.2H331.9z"/>
				<path class="st2" d="M336.8,521.3v-1.5l4.9-6.2h-2.5l-0.3,1.6H337v-3.4h7.8v1.6l-4.6,6h2.7l0.4-1.7h1.8v3.6L336.8,521.3
					L336.8,521.3z"/>
				<path class="st2" d="M349.4,521.5c-0.9,0-1.7-0.2-2.2-0.8c-0.5-0.5-0.8-1.2-0.8-2.1c0-0.6,0.2-1.1,0.5-1.6
					c0.3-0.4,0.8-0.8,1.4-1.1s1.4-0.4,2.3-0.4h1.2v-0.7c0-0.5-0.1-0.8-0.4-1.1c-0.3-0.3-0.7-0.4-1.2-0.4c-0.3,0-0.5,0-0.7,0.1
					c-0.2,0.1-0.4,0.2-0.6,0.3l-0.2,1.2h-1.8l0-2.5c0.5-0.3,1-0.5,1.6-0.7c0.6-0.2,1.2-0.3,1.9-0.3c1.2,0,2.2,0.3,2.9,0.9
					c0.7,0.6,1.1,1.4,1.1,2.5v3.9c0,0.1,0,0.2,0,0.4s0,0.2,0,0.4l1,0.1v1.5h-3.2c-0.1-0.2-0.1-0.3-0.2-0.5c-0.1-0.2-0.1-0.4-0.1-0.6
					c-0.3,0.4-0.7,0.7-1.1,0.9S350,521.5,349.4,521.5L349.4,521.5z M350.1,519.6c0.4,0,0.7-0.1,1-0.2c0.3-0.2,0.6-0.4,0.7-0.6v-1.5
					h-1.3c-0.6,0-1,0.1-1.3,0.4c-0.3,0.3-0.4,0.6-0.4,0.9c0,0.3,0.1,0.6,0.3,0.8S349.7,519.6,350.1,519.6L350.1,519.6z"/>
				<path class="st2" d="M360.8,521.5c-0.9,0-1.7-0.2-2.4-0.6c-0.7-0.4-1.2-1-1.5-1.7c-0.4-0.7-0.5-1.5-0.5-2.5v-0.3
					c0-0.9,0.2-1.8,0.5-2.5c0.4-0.7,0.9-1.3,1.5-1.7c0.7-0.4,1.4-0.6,2.3-0.6s1.6,0.1,2.2,0.4c0.6,0.3,1.1,0.6,1.5,0.9l0,2.7h-1.9
					l-0.3-1.7c-0.1-0.1-0.3-0.2-0.5-0.3c-0.2-0.1-0.4-0.1-0.7-0.1c-0.5,0-0.9,0.1-1.2,0.3s-0.5,0.6-0.7,1c-0.1,0.4-0.2,1-0.2,1.6
					v0.3c0,0.6,0.1,1.2,0.2,1.6c0.2,0.4,0.4,0.7,0.7,0.9c0.3,0.2,0.6,0.3,1,0.3c0.5,0,0.8-0.1,1.1-0.3c0.3-0.2,0.5-0.6,0.6-1h2.2
					l0,0c-0.1,0.7-0.3,1.2-0.6,1.7c-0.3,0.5-0.7,0.9-1.2,1.1S361.6,521.5,360.8,521.5L360.8,521.5z M359.6,525.3l-0.1-1.4
					c0.4,0,0.6-0.1,0.8-0.2c0.2-0.1,0.3-0.3,0.3-0.5c0-0.2-0.1-0.4-0.3-0.5c-0.2-0.1-0.5-0.2-1-0.2l0.3-1.4h1.9l-0.1,0.6
					c0.4,0.1,0.7,0.2,1,0.4s0.4,0.6,0.4,1c0,0.6-0.3,1.1-0.9,1.5S360.6,525.3,359.6,525.3L359.6,525.3z"/>
				<path class="st2" d="M369,521.5c-0.9,0-1.7-0.2-2.2-0.8c-0.5-0.5-0.8-1.2-0.8-2.1c0-0.6,0.2-1.1,0.5-1.6
					c0.3-0.4,0.8-0.8,1.4-1.1s1.4-0.4,2.3-0.4h1.2v-0.7c0-0.5-0.1-0.8-0.4-1.1c-0.3-0.3-0.7-0.4-1.2-0.4c-0.3,0-0.5,0-0.7,0.1
					c-0.2,0.1-0.4,0.2-0.6,0.3l-0.2,1.2h-1.8l0-2.5c0.5-0.3,1-0.5,1.6-0.7c0.6-0.2,1.2-0.3,1.9-0.3c1.2,0,2.2,0.3,2.9,0.9
					c0.7,0.6,1.1,1.4,1.1,2.5v3.9c0,0.1,0,0.2,0,0.4s0,0.2,0,0.4l1,0.1v1.5h-3.2c-0.1-0.2-0.1-0.3-0.2-0.5c-0.1-0.2-0.1-0.4-0.1-0.6
					c-0.3,0.4-0.7,0.7-1.1,0.9S369.5,521.5,369,521.5L369,521.5z M368.1,510.1l-1.3-0.4c0-0.4,0.1-0.8,0.3-1.1
					c0.2-0.3,0.4-0.6,0.7-0.8c0.3-0.2,0.6-0.3,1-0.3c0.3,0,0.6,0.1,0.9,0.2c0.3,0.1,0.6,0.3,0.9,0.4s0.5,0.2,0.7,0.2
					c0.2,0,0.4-0.1,0.6-0.3s0.2-0.4,0.2-0.7l1.3,0.4c0,0.4-0.1,0.8-0.3,1.1s-0.4,0.6-0.7,0.8s-0.6,0.3-1,0.3c-0.3,0-0.6-0.1-0.9-0.2
					s-0.6-0.3-0.9-0.4c-0.3-0.1-0.5-0.2-0.7-0.2c-0.2,0-0.4,0.1-0.6,0.3S368.1,509.8,368.1,510.1L368.1,510.1z M369.6,519.6
					c0.4,0,0.7-0.1,1-0.2s0.6-0.4,0.7-0.6v-1.5h-1.3c-0.6,0-1,0.1-1.3,0.4c-0.3,0.3-0.4,0.6-0.4,0.9c0,0.3,0.1,0.6,0.3,0.8
					C369,519.5,369.3,519.6,369.6,519.6L369.6,519.6z"/>
				<path class="st2" d="M380.4,521.5c-0.9,0-1.7-0.2-2.4-0.6c-0.7-0.4-1.2-1-1.5-1.7c-0.4-0.7-0.5-1.6-0.5-2.5v-0.2
					c0-0.9,0.2-1.8,0.5-2.5c0.4-0.7,0.9-1.3,1.5-1.7c0.7-0.4,1.5-0.6,2.4-0.6s1.7,0.2,2.4,0.6c0.7,0.4,1.2,1,1.5,1.7
					c0.4,0.7,0.5,1.6,0.5,2.5v0.2c0,0.9-0.2,1.8-0.5,2.5c-0.4,0.7-0.9,1.3-1.5,1.7C382.1,521.3,381.3,521.5,380.4,521.5L380.4,521.5
					z M380.4,519.5c0.4,0,0.8-0.1,1.1-0.4s0.5-0.6,0.6-1s0.2-0.9,0.2-1.5v-0.2c0-0.6-0.1-1-0.2-1.5c-0.1-0.4-0.3-0.8-0.6-1
					s-0.6-0.4-1.1-0.4s-0.8,0.1-1.1,0.4s-0.5,0.6-0.6,1c-0.1,0.4-0.2,0.9-0.2,1.5v0.2c0,0.6,0.1,1.1,0.2,1.5s0.3,0.8,0.6,1
					S379.9,519.5,380.4,519.5L380.4,519.5z"/>
			</g>
		</g>
		<g id="circle">
			<ellipse id="circle-base" class="st3" cx="147.1" cy="504.4" rx="51.8" ry="51.6"/>
			<path id="circle-color" class="st2" d="M147.1,461.7c-21.7,0-39.6,16-42.5,36.8H74.2v11.1h30.4c2.6,21.2,20.6,37.6,42.6,37.6
				c23.7,0,42.9-19.1,42.9-42.7S170.9,461.7,147.1,461.7L147.1,461.7z M147.1,536.4c-17.7,0-32.1-14.3-32.1-31.9
				s14.4-31.9,32.1-31.9s32.1,14.3,32.1,31.9S164.9,536.4,147.1,536.4z"/>
			<g>
				<path class="st4" d="M131.2,498.4h-0.9v-11.3h6.2v0.8h-5.3v4.7h5v0.8h-5L131.2,498.4L131.2,498.4z"/>
				<path class="st4" d="M145,498.4l-1.5-3.9h-4.7l-1.5,3.9h-0.9l4.4-11.4h0.8l4.3,11.4H145L145,498.4z M141.7,489.6
					c-0.1-0.1-0.2-0.4-0.2-0.7c-0.1-0.3-0.2-0.6-0.3-0.8c-0.1,0.3-0.2,0.6-0.3,0.8c-0.1,0.3-0.2,0.5-0.2,0.7l-1.6,4.1h4.1
					L141.7,489.6L141.7,489.6z"/>
				<path class="st4" d="M153.9,495.5c0,0.7-0.2,1.2-0.5,1.7s-0.8,0.8-1.4,1s-1.3,0.4-2,0.4c-0.7,0-1.3,0-1.8-0.1
					c-0.5-0.1-0.9-0.2-1.3-0.4v-0.9c0.4,0.2,0.9,0.3,1.4,0.4c0.5,0.1,1.1,0.2,1.7,0.2c0.9,0,1.6-0.2,2.1-0.5
					c0.5-0.4,0.8-0.9,0.8-1.7c0-0.4-0.1-0.8-0.3-1.1s-0.5-0.5-0.9-0.8s-1-0.4-1.6-0.7c-0.6-0.2-1.2-0.5-1.6-0.7
					c-0.4-0.3-0.8-0.6-1.1-1c-0.2-0.4-0.4-0.9-0.4-1.5s0.2-1.1,0.5-1.6s0.7-0.8,1.3-1s1.2-0.3,1.9-0.3c0.6,0,1.1,0,1.6,0.2
					c0.5,0.1,1,0.2,1.4,0.4l-0.3,0.8c-0.9-0.4-1.8-0.6-2.7-0.6c-0.8,0-1.4,0.2-1.9,0.5s-0.7,0.9-0.7,1.5c0,0.5,0.1,0.9,0.3,1.2
					s0.5,0.5,0.9,0.7c0.4,0.2,0.9,0.4,1.5,0.6c0.7,0.2,1.2,0.5,1.7,0.7s0.9,0.6,1.1,1S153.9,494.9,153.9,495.5L153.9,495.5z"/>
				<path class="st4" d="M162.4,498.4h-6.2v-11.3h6.2v0.8h-5.3v4.1h5v0.8h-5v4.7h5.3V498.4L162.4,498.4z"/>
			</g>
			<g>
				<path class="st4" d="M145.9,513.8c0,2-0.2,3.7-0.6,5.1s-1.1,2.5-2,3.2c-0.9,0.8-2.2,1.1-3.8,1.1c-2.2,0-3.8-0.8-4.8-2.5
					s-1.5-4-1.5-6.9c0-2,0.2-3.7,0.6-5.1s1.1-2.5,2-3.2c0.9-0.8,2.2-1.1,3.8-1.1c2.2,0,3.8,0.8,4.9,2.5
					C145.4,508.5,145.9,510.9,145.9,513.8L145.9,513.8z M136.9,513.8c0,2.1,0.2,3.7,0.5,4.7c0.4,1,1,1.6,2,1.6s1.6-0.5,2-1.6
					c0.4-1,0.6-2.6,0.6-4.7c0-2.1-0.2-3.7-0.6-4.7c-0.4-1.1-1-1.6-2-1.6s-1.6,0.5-2,1.6S136.9,511.7,136.9,513.8L136.9,513.8z"/>
				<path class="st4" d="M161.1,519.2h-2.2v3.8h-3.8v-3.8h-7.8v-2.7l8-11.8h3.6v11.5h2.2L161.1,519.2L161.1,519.2z M155.1,513.1
					c0-0.4,0-0.9,0-1.4c0-0.6,0-1.1,0.1-1.6c0-0.5,0.1-0.8,0.1-1h-0.1c-0.1,0.3-0.3,0.7-0.5,1c-0.2,0.3-0.4,0.7-0.6,1l-3.4,5.1h4.4
					L155.1,513.1L155.1,513.1z"/>
			</g>
		</g>
		<g id="bullet">
			<ellipse id="bullet-base" class="st3" cx="58.5" cy="505.2" rx="17.6" ry="17.5"/>
			<ellipse id="bullet-color" class="st2" cx="58.5" cy="505.2" rx="8.5" ry="8.4"/>
		</g>
	</g>
	<g id="fase3">
		<g id="label-2">
			<path id="label-base-2" class="st1" d="M146.6,348.5h269.1c22.7,0,41.1,18.4,41.1,41.1l0,0c0,22.7-18.4,41.1-41.1,41.1H146.6
				V348.5L146.6,348.5L146.6,348.5z"/>
			<g>
				<path class="st5" d="M209.3,384.3v-1.5l1.4-0.3v-9.1l-1.4-0.3v-1.5h9.9v3.4h-2l-0.1-1.5h-3.9v3.2h4.3v2h-4.3v3.6h4.1l0.1-1.5
					h1.9v3.5H209.3z"/>
				<path class="st5" d="M224.9,384.5c-0.7,0-1.4-0.1-2-0.2s-1.2-0.3-1.8-0.6l0-2.7h1.8l0.3,1.4c0.2,0.1,0.4,0.2,0.6,0.2
					c0.2,0.1,0.5,0.1,0.8,0.1c0.6,0,1-0.1,1.2-0.3c0.2-0.2,0.4-0.4,0.4-0.7c0-0.3-0.1-0.5-0.4-0.7c-0.2-0.2-0.7-0.4-1.5-0.5
					c-1.1-0.2-1.9-0.6-2.5-1.1s-0.8-1.1-0.8-1.9c0-0.5,0.1-1,0.4-1.4c0.3-0.4,0.7-0.8,1.2-1c0.5-0.3,1.2-0.4,2.1-0.4
					c0.7,0,1.4,0.1,1.9,0.2s1.1,0.3,1.5,0.5l0,2.6h-1.8l-0.3-1.2c-0.2-0.1-0.3-0.2-0.6-0.3s-0.4-0.1-0.7-0.1c-0.4,0-0.8,0.1-1,0.3
					s-0.4,0.4-0.4,0.7c0,0.2,0,0.3,0.1,0.5c0.1,0.1,0.2,0.3,0.5,0.4c0.2,0.1,0.6,0.2,1.1,0.4c1.2,0.3,2,0.6,2.6,1.1s0.8,1.1,0.8,1.9
					c0,0.9-0.3,1.6-1,2.1S226.1,384.5,224.9,384.5L224.9,384.5z"/>
				<path class="st5" d="M233.6,384.5c-0.9,0-1.6-0.2-2-0.7c-0.5-0.5-0.7-1.2-0.7-2.3v-4.8h-1.3v-1.8h1.3v-2.3h2.5v2.3h1.7v1.8h-1.7
					v4.8c0,0.4,0.1,0.6,0.2,0.8s0.4,0.2,0.6,0.2c0.1,0,0.3,0,0.4,0s0.3,0,0.4-0.1l0.2,1.8c-0.3,0.1-0.6,0.1-0.9,0.2
					C234.1,384.4,233.8,384.5,233.6,384.5L233.6,384.5z"/>
				<path class="st5" d="M240.3,384.5c-1,0-1.8-0.3-2.4-1s-0.9-1.6-0.9-3v-3.9l-1-0.3v-1.5h3.6v5.8c0,0.7,0.1,1.2,0.4,1.5
					c0.2,0.3,0.6,0.4,1.1,0.4c0.4,0,0.7-0.1,1-0.2s0.5-0.4,0.7-0.6v-5l-1.1-0.3v-1.5h3.7v7.7l1.1,0.3v1.5h-3.4l-0.2-1.2
					c-0.3,0.4-0.7,0.8-1.1,1S240.8,384.4,240.3,384.5L240.3,384.5z"/>
				<path class="st5" d="M251,384.5c-0.8,0-1.4-0.2-1.9-0.6c-0.5-0.4-0.9-0.9-1.2-1.6s-0.4-1.5-0.4-2.4v-0.2c0-1,0.1-1.9,0.4-2.6
					c0.3-0.8,0.7-1.3,1.2-1.7c0.5-0.4,1.2-0.6,1.9-0.6c0.5,0,1,0.1,1.4,0.3s0.7,0.5,1,0.9v-3.4l-1.4-0.3v-1.5h3.9v11.8l1.2,0.3v1.5
					h-3.4l-0.2-1.1c-0.3,0.4-0.6,0.8-1.1,1S251.6,384.5,251,384.5L251,384.5z M251.8,382.5c0.4,0,0.7-0.1,0.9-0.2
					c0.3-0.1,0.5-0.4,0.7-0.7v-4c-0.2-0.3-0.4-0.5-0.7-0.7c-0.3-0.2-0.6-0.2-0.9-0.2c-0.4,0-0.8,0.1-1,0.4c-0.3,0.2-0.5,0.6-0.6,1
					c-0.1,0.5-0.2,1-0.2,1.6v0.2c0,0.8,0.1,1.5,0.4,2S251.2,382.4,251.8,382.5L251.8,382.5z"/>
				<path class="st5" d="M262.5,384.5c-0.9,0-1.7-0.2-2.4-0.6c-0.7-0.4-1.2-1-1.5-1.7s-0.5-1.6-0.5-2.5v-0.2c0-0.9,0.2-1.8,0.5-2.5
					s0.9-1.3,1.5-1.7s1.5-0.6,2.4-0.6s1.7,0.2,2.4,0.6c0.7,0.4,1.2,1,1.5,1.7c0.4,0.7,0.5,1.5,0.5,2.5v0.2c0,0.9-0.2,1.8-0.5,2.5
					c-0.4,0.7-0.9,1.3-1.5,1.7C264.2,384.3,263.4,384.5,262.5,384.5L262.5,384.5z M262.5,382.5c0.4,0,0.8-0.1,1.1-0.4s0.5-0.6,0.6-1
					c0.1-0.4,0.2-0.9,0.2-1.5v-0.2c0-0.6-0.1-1-0.2-1.5c-0.1-0.4-0.3-0.8-0.6-1s-0.6-0.4-1.1-0.4s-0.8,0.1-1.1,0.4
					c-0.3,0.2-0.5,0.6-0.6,1c-0.1,0.4-0.2,0.9-0.2,1.5v0.2c0,0.6,0.1,1.1,0.2,1.5c0.1,0.4,0.3,0.8,0.6,1
					C261.7,382.4,262.1,382.5,262.5,382.5L262.5,382.5z"/>
				<path class="st5" d="M275.4,384.3v-1.5l1.4-0.3v-9h-2.3l-0.1,1.5h-1.9v-3.5h11.4v3.5h-1.9l-0.1-1.5h-2.3v9l1.4,0.3v1.5H275.4
					L275.4,384.3z"/>
				<path class="st5" d="M288.5,384.5c-0.9,0-1.7-0.2-2.4-0.6s-1.2-1-1.6-1.6s-0.5-1.5-0.5-2.4v-0.4c0-0.9,0.2-1.8,0.5-2.5
					s0.8-1.3,1.5-1.7c0.6-0.4,1.4-0.6,2.3-0.6c0.9,0,1.6,0.2,2.2,0.5c0.6,0.3,1,0.8,1.3,1.5c0.3,0.6,0.5,1.4,0.5,2.3v1.4h-5.6l0,0
					c0,0.4,0.1,0.8,0.3,1.1s0.4,0.6,0.7,0.8s0.7,0.3,1.1,0.3s0.9-0.1,1.3-0.2s0.8-0.3,1.2-0.5l0.7,1.6c-0.4,0.3-0.9,0.6-1.5,0.8
					C289.9,384.4,289.2,384.5,288.5,384.5L288.5,384.5z M286.6,378.6h3.2v-0.2c0-0.4,0-0.7-0.1-1s-0.3-0.5-0.5-0.6s-0.5-0.2-0.9-0.2
					s-0.6,0.1-0.9,0.3c-0.2,0.2-0.4,0.4-0.5,0.7C286.7,377.8,286.7,378.2,286.6,378.6L286.6,378.6L286.6,378.6z"/>
				<path class="st5" d="M293.5,384.3v-1.5l1.2-0.3v-5.9l-1.4-0.3v-1.5h3.7l0.1,1.2l0,0.2c0.2-0.5,0.5-0.9,0.9-1.2
					c0.3-0.3,0.8-0.4,1.2-0.4c0.1,0,0.3,0,0.5,0s0.3,0.1,0.5,0.1l-0.3,2.4l-1.3-0.1c-0.4,0-0.6,0-0.9,0.2c-0.2,0.1-0.4,0.3-0.6,0.6
					v4.6l1.2,0.3v1.5H293.5L293.5,384.3z"/>
				<path class="st5" d="M304.1,384.5c-0.9,0-1.7-0.2-2.2-0.8c-0.5-0.5-0.8-1.2-0.8-2.1c0-0.6,0.2-1.1,0.5-1.6
					c0.3-0.5,0.8-0.8,1.4-1.1s1.4-0.4,2.3-0.4h1.2v-0.7c0-0.5-0.1-0.8-0.4-1.1c-0.3-0.3-0.7-0.4-1.2-0.4c-0.3,0-0.5,0-0.7,0.1
					s-0.4,0.2-0.6,0.3l-0.2,1.2h-1.8l0-2.5c0.5-0.3,1-0.5,1.6-0.7s1.2-0.3,1.9-0.3c1.2,0,2.2,0.3,2.9,0.9c0.7,0.6,1.1,1.4,1.1,2.5
					v3.9c0,0.1,0,0.2,0,0.4s0,0.2,0,0.4l1,0.1v1.5h-3.2c-0.1-0.2-0.1-0.3-0.2-0.5s-0.1-0.4-0.1-0.6c-0.3,0.4-0.7,0.7-1.1,0.9
					S304.6,384.5,304.1,384.5L304.1,384.5z M304.8,382.6c0.4,0,0.7-0.1,1-0.2s0.6-0.4,0.7-0.6v-1.5h-1.3c-0.6,0-1,0.1-1.3,0.4
					c-0.3,0.3-0.4,0.6-0.4,0.9c0,0.3,0.1,0.6,0.3,0.8S304.4,382.6,304.8,382.6L304.8,382.6z"/>
				<path class="st5" d="M310.9,387.9v-1.5l1.2-0.3v-9.5l-1.4-0.3v-1.5h3.7l0.1,1.1c0.3-0.4,0.6-0.7,1-0.9c0.4-0.2,0.9-0.3,1.4-0.3
					c0.8,0,1.4,0.2,2,0.6c0.5,0.4,1,1,1.2,1.7c0.3,0.8,0.4,1.6,0.4,2.6v0.2c0,0.9-0.1,1.8-0.4,2.4c-0.3,0.7-0.7,1.2-1.2,1.6
					s-1.2,0.6-2,0.6c-0.5,0-1-0.1-1.3-0.3s-0.7-0.5-1-0.8v2.7l1.2,0.3v1.5L310.9,387.9L310.9,387.9z M316.3,382.5
					c0.6,0,1.1-0.2,1.4-0.7s0.4-1.1,0.4-2v-0.2c0-0.6-0.1-1.1-0.2-1.6s-0.3-0.8-0.6-1s-0.6-0.4-1.1-0.4c-0.4,0-0.7,0.1-0.9,0.2
					c-0.3,0.2-0.5,0.4-0.6,0.7v4.1c0.2,0.3,0.4,0.5,0.6,0.6C315.6,382.4,315.9,382.5,316.3,382.5z"/>
				<path class="st5" d="M326.5,384.5c-0.9,0-1.7-0.2-2.4-0.6s-1.2-1-1.6-1.6s-0.5-1.5-0.5-2.4v-0.4c0-0.9,0.2-1.8,0.5-2.5
					s0.8-1.3,1.5-1.7c0.6-0.4,1.4-0.6,2.3-0.6c0.9,0,1.6,0.2,2.2,0.5c0.6,0.3,1,0.8,1.3,1.5c0.3,0.6,0.5,1.4,0.5,2.3v1.4h-5.6l0,0
					c0,0.4,0.1,0.8,0.3,1.1s0.4,0.6,0.7,0.8s0.7,0.3,1.1,0.3s0.9-0.1,1.3-0.2s0.8-0.3,1.2-0.5l0.7,1.6c-0.4,0.3-0.9,0.6-1.5,0.8
					C327.9,384.4,327.3,384.5,326.5,384.5L326.5,384.5z M323.1,373v-0.2l2.2-2.1h1.9l2.2,2.1v0.2h-2l-1.2-1.3L325,373H323.1z
					 M324.7,378.6h3.2v-0.2c0-0.4,0-0.7-0.1-1s-0.3-0.5-0.5-0.6s-0.5-0.2-0.9-0.2s-0.6,0.1-0.9,0.3c-0.2,0.2-0.4,0.4-0.5,0.7
					C324.8,377.8,324.7,378.2,324.7,378.6L324.7,378.6L324.7,378.6z"/>
				<path class="st5" d="M335.4,384.5c-1,0-1.8-0.3-2.4-1s-0.9-1.6-0.9-3v-3.9l-1-0.3v-1.5h3.6v5.8c0,0.7,0.1,1.2,0.4,1.5
					c0.2,0.3,0.6,0.4,1.1,0.4c0.4,0,0.7-0.1,1-0.2s0.5-0.4,0.7-0.6v-5l-1.1-0.3v-1.5h3.7v7.7l1.1,0.3v1.5h-3.4l-0.2-1.2
					c-0.3,0.4-0.7,0.8-1.1,1C336.5,384.3,336,384.4,335.4,384.5L335.4,384.5z"/>
				<path class="st5" d="M346.2,384.5c-0.9,0-1.6-0.2-2-0.7c-0.5-0.5-0.7-1.2-0.7-2.3v-4.8h-1.3v-1.8h1.3v-2.3h2.5v2.3h1.7v1.8h-1.7
					v4.8c0,0.4,0.1,0.6,0.2,0.8c0.1,0.2,0.4,0.2,0.6,0.2c0.1,0,0.3,0,0.5,0s0.3,0,0.4-0.1l0.2,1.8c-0.3,0.1-0.5,0.1-0.9,0.2
					C346.9,384.4,346.6,384.5,346.2,384.5L346.2,384.5z"/>
				<path class="st5" d="M349.1,384.3v-1.5l1.2-0.3v-5.9l-1.4-0.3v-1.5h3.9v7.7l1.2,0.3v1.5H349.1L349.1,384.3z M350.2,372.8v-2.2
					h2.6v2.2H350.2z"/>
				<path class="st5" d="M359.4,384.5c-0.9,0-1.7-0.2-2.4-0.6c-0.7-0.4-1.2-1-1.5-1.7c-0.4-0.7-0.5-1.5-0.5-2.5v-0.3
					c0-0.9,0.2-1.8,0.5-2.5c0.4-0.7,0.9-1.3,1.5-1.7s1.4-0.6,2.3-0.6s1.6,0.1,2.2,0.4c0.6,0.3,1.1,0.6,1.5,0.9l0,2.7h-1.9l-0.3-1.7
					c-0.1-0.1-0.3-0.2-0.5-0.3c-0.2-0.1-0.4-0.1-0.7-0.1c-0.5,0-0.9,0.1-1.2,0.4s-0.5,0.6-0.7,1c-0.1,0.4-0.2,1-0.2,1.6v0.3
					c0,0.6,0.1,1.2,0.2,1.6s0.4,0.7,0.7,0.9c0.3,0.2,0.6,0.3,1,0.3c0.5,0,0.8-0.1,1.1-0.4s0.5-0.6,0.6-1h2.2l0,0
					c-0.1,0.7-0.3,1.2-0.6,1.7c-0.3,0.5-0.7,0.9-1.2,1.1S360.2,384.5,359.4,384.5L359.4,384.5z"/>
				<path class="st5" d="M368.9,384.5c-0.9,0-1.7-0.2-2.4-0.6c-0.7-0.4-1.2-1-1.5-1.7c-0.4-0.7-0.5-1.6-0.5-2.5v-0.2
					c0-0.9,0.2-1.8,0.5-2.5c0.4-0.7,0.9-1.3,1.5-1.7s1.5-0.6,2.4-0.6s1.7,0.2,2.4,0.6s1.2,1,1.5,1.7s0.5,1.5,0.5,2.5v0.2
					c0,0.9-0.2,1.8-0.5,2.5s-0.9,1.3-1.5,1.7S369.8,384.5,368.9,384.5L368.9,384.5z M368.9,382.5c0.4,0,0.8-0.1,1.1-0.4
					s0.5-0.6,0.6-1s0.2-0.9,0.2-1.5v-0.2c0-0.6-0.1-1-0.2-1.5c-0.1-0.4-0.3-0.8-0.6-1s-0.6-0.4-1.1-0.4s-0.8,0.1-1.1,0.4
					s-0.5,0.6-0.6,1c-0.1,0.4-0.2,0.9-0.2,1.5v0.2c0,0.6,0.1,1.1,0.2,1.5s0.3,0.8,0.6,1S368.5,382.5,368.9,382.5L368.9,382.5z"/>
				<path class="st5" d="M209.2,405.7v-1.5l0.9-0.1l4.1-11.1h2.6l4,11.1l0.9,0.1v1.5h-4.3v-1.5l0.9-0.2l-0.6-1.8h-4.5l-0.6,1.8
					l0.9,0.2v1.5H209.2L209.2,405.7z M213.8,400.4h3.3l-1.5-4.4l-0.1-0.4h-0.1l-0.1,0.4L213.8,400.4z"/>
				<path class="st5" d="M222.3,405.7v-1.5l1.2-0.3v-5.9l-1.4-0.3v-1.5h3.7l0.1,1.2c0.3-0.5,0.7-0.8,1.1-1c0.5-0.2,1-0.4,1.6-0.4
					s1.1,0.1,1.6,0.4s0.8,0.7,1,1.2c0.3-0.5,0.7-0.9,1.1-1.2s1-0.4,1.6-0.4c0.9,0,1.7,0.3,2.2,1c0.5,0.6,0.8,1.6,0.8,2.9v4l1.2,0.3
					v1.5h-4.9v-1.5l1.1-0.3v-4c0-0.7-0.1-1.2-0.4-1.5c-0.2-0.3-0.6-0.4-1-0.4c-0.4,0-0.7,0.1-1,0.3s-0.5,0.5-0.6,0.9v4.6l1,0.3v1.5
					H228v-1.5l1-0.3v-4c0-0.7-0.1-1.2-0.4-1.4c-0.2-0.3-0.6-0.4-1-0.4c-0.4,0-0.7,0.1-0.9,0.2s-0.5,0.4-0.6,0.6v5l1.1,0.3v1.5
					L222.3,405.7L222.3,405.7z"/>
				<path class="st5" d="M239.1,409.4v-1.5l1.2-0.3v-9.5l-1.4-0.3v-1.5h3.7l0.1,1.1c0.3-0.4,0.6-0.7,1-0.9c0.4-0.2,0.9-0.3,1.4-0.3
					c0.8,0,1.4,0.2,2,0.6c0.5,0.4,1,1,1.2,1.7c0.3,0.8,0.4,1.6,0.4,2.6v0.2c0,0.9-0.1,1.8-0.4,2.4c-0.3,0.7-0.7,1.2-1.2,1.6
					s-1.2,0.6-2,0.6c-0.5,0-0.9-0.1-1.3-0.3c-0.4-0.2-0.7-0.5-1-0.8v2.7l1.2,0.3v1.5L239.1,409.4L239.1,409.4z M244.5,404
					c0.6,0,1.1-0.2,1.4-0.7s0.4-1.1,0.4-2v-0.2c0-0.6-0.1-1.1-0.2-1.6c-0.1-0.5-0.3-0.8-0.6-1s-0.6-0.4-1.1-0.4
					c-0.4,0-0.7,0.1-0.9,0.2s-0.5,0.4-0.6,0.7v4.1c0.2,0.3,0.4,0.5,0.6,0.6C243.8,403.9,244.1,404,244.5,404L244.5,404z"/>
				<path class="st5" d="M249.7,405.7v-1.5l1.2-0.3v-10l-1.4-0.3v-1.5h3.9v11.8l1.2,0.3v1.5L249.7,405.7L249.7,405.7z"/>
				<path class="st5" d="M255.5,405.7v-1.5l1.2-0.3v-5.9l-1.4-0.3v-1.5h3.9v7.7l1.2,0.3v1.5H255.5z M256.6,394.3v-2.2h2.6v2.2H256.6
					z"/>
				<path class="st5" d="M264.5,405.9c-0.9,0-1.7-0.2-2.2-0.8c-0.5-0.5-0.8-1.2-0.8-2.1c0-0.6,0.2-1.1,0.5-1.6
					c0.3-0.5,0.8-0.8,1.4-1.1c0.6-0.3,1.4-0.4,2.3-0.4h1.2v-0.7c0-0.5-0.1-0.8-0.4-1.1c-0.3-0.3-0.7-0.4-1.2-0.4
					c-0.3,0-0.5,0-0.7,0.1c-0.2,0.1-0.4,0.2-0.6,0.3l-0.2,1.2H262l0-2.5c0.5-0.3,1-0.5,1.6-0.7c0.6-0.2,1.2-0.3,1.9-0.3
					c1.2,0,2.2,0.3,2.9,0.9c0.7,0.6,1.1,1.4,1.1,2.5v3.9c0,0.1,0,0.2,0,0.4s0,0.2,0,0.4l1,0.1v1.5h-3.2c-0.1-0.2-0.1-0.3-0.2-0.5
					c-0.1-0.2-0.1-0.4-0.1-0.6c-0.3,0.4-0.7,0.7-1.1,0.9S265,405.9,264.5,405.9L264.5,405.9z M265.2,404c0.4,0,0.7-0.1,1-0.2
					s0.6-0.4,0.7-0.6v-1.5h-1.3c-0.6,0-1,0.1-1.3,0.4c-0.3,0.3-0.4,0.6-0.4,0.9c0,0.3,0.1,0.6,0.3,0.8
					C264.5,403.9,264.8,404,265.2,404L265.2,404z"/>
				<path class="st5" d="M275,405.9c-0.8,0-1.4-0.2-1.9-0.6c-0.5-0.4-1-0.9-1.2-1.6c-0.3-0.7-0.4-1.5-0.4-2.4v-0.2
					c0-1,0.1-1.9,0.4-2.6c0.3-0.8,0.7-1.3,1.2-1.7c0.5-0.4,1.2-0.6,1.9-0.6c0.5,0,1,0.1,1.4,0.3c0.4,0.2,0.7,0.5,1,0.9v-3.4
					l-1.4-0.3v-1.5h3.9V404l1.2,0.3v1.5h-3.4l-0.2-1.1c-0.3,0.4-0.6,0.8-1.1,1S275.6,405.9,275,405.9L275,405.9z M275.8,403.9
					c0.4,0,0.7-0.1,0.9-0.2c0.3-0.1,0.5-0.4,0.7-0.7v-4c-0.2-0.3-0.4-0.5-0.7-0.7c-0.3-0.2-0.6-0.2-0.9-0.2c-0.4,0-0.8,0.1-1,0.4
					c-0.3,0.2-0.5,0.6-0.6,1c-0.1,0.5-0.2,1-0.2,1.6v0.2c0,0.8,0.1,1.5,0.4,2S275.2,403.9,275.8,403.9L275.8,403.9z"/>
				<path class="st5" d="M286.5,405.9c-0.9,0-1.7-0.2-2.4-0.6c-0.7-0.4-1.2-1-1.5-1.7c-0.4-0.7-0.5-1.6-0.5-2.5v-0.2
					c0-0.9,0.2-1.8,0.5-2.5c0.4-0.7,0.9-1.3,1.5-1.7s1.5-0.6,2.4-0.6s1.7,0.2,2.4,0.6s1.2,1,1.5,1.7s0.5,1.5,0.5,2.5v0.2
					c0,0.9-0.2,1.8-0.5,2.5s-0.9,1.3-1.5,1.7S287.4,405.9,286.5,405.9L286.5,405.9z M286.5,404c0.4,0,0.8-0.1,1.1-0.4s0.5-0.6,0.6-1
					s0.2-0.9,0.2-1.5v-0.2c0-0.6-0.1-1-0.2-1.5c-0.1-0.4-0.3-0.8-0.6-1s-0.6-0.4-1.1-0.4s-0.8,0.1-1.1,0.4s-0.5,0.6-0.6,1
					c-0.1,0.4-0.2,0.9-0.2,1.5v0.2c0,0.6,0.1,1.1,0.2,1.5s0.3,0.8,0.6,1S286,404,286.5,404L286.5,404z"/>
			</g>
		</g>
		<g id="circle-2">
			<ellipse id="circle-base-2" class="st3" cx="147.1" cy="389.6" rx="51.8" ry="51.6"/>
			<path id="circle-color-2" class="st5" d="M147.1,346.9c-21.7,0-39.6,16-42.5,36.8H74.2v11.1h30.4c2.6,21.2,20.6,37.6,42.6,37.6
				c23.7,0,42.9-19.1,42.9-42.7S170.9,346.9,147.1,346.9L147.1,346.9z M147.1,421.5c-17.7,0-32.1-14.3-32.1-31.9
				s14.4-31.9,32.1-31.9s32.1,14.3,32.1,31.9S164.9,421.5,147.1,421.5z"/>
			<g>
				<path class="st4" d="M131.2,383.6h-0.9v-11.3h6.2v0.8h-5.3v4.7h5v0.8h-5L131.2,383.6L131.2,383.6z"/>
				<path class="st4" d="M145,383.6l-1.5-3.9h-4.7l-1.5,3.9h-0.9l4.4-11.4h0.8l4.3,11.4H145L145,383.6z M141.7,374.8
					c-0.1-0.1-0.2-0.4-0.2-0.7c-0.1-0.3-0.2-0.6-0.3-0.8c-0.1,0.3-0.2,0.6-0.3,0.8c-0.1,0.3-0.2,0.5-0.2,0.7l-1.6,4.1h4.1
					L141.7,374.8L141.7,374.8z"/>
				<path class="st4" d="M153.9,380.6c0,0.7-0.2,1.2-0.5,1.7s-0.8,0.8-1.4,1s-1.3,0.4-2,0.4c-0.7,0-1.3,0-1.8-0.1
					c-0.5-0.1-0.9-0.2-1.3-0.4v-0.9c0.4,0.2,0.9,0.3,1.4,0.4c0.5,0.1,1.1,0.2,1.7,0.2c0.9,0,1.6-0.2,2.1-0.5
					c0.5-0.4,0.8-0.9,0.8-1.7c0-0.4-0.1-0.8-0.3-1.1s-0.5-0.5-0.9-0.8s-1-0.4-1.6-0.7c-0.6-0.2-1.2-0.5-1.6-0.7
					c-0.4-0.3-0.8-0.6-1.1-1c-0.2-0.4-0.4-0.9-0.4-1.5s0.2-1.1,0.5-1.6s0.7-0.8,1.3-1s1.2-0.3,1.9-0.3c0.6,0,1.1,0,1.6,0.2
					c0.5,0.1,1,0.2,1.4,0.4l-0.3,0.8c-0.9-0.4-1.8-0.6-2.7-0.6c-0.8,0-1.4,0.2-1.9,0.5s-0.7,0.9-0.7,1.5c0,0.5,0.1,0.9,0.3,1.2
					s0.5,0.5,0.9,0.7c0.4,0.2,0.9,0.4,1.5,0.6c0.7,0.2,1.2,0.5,1.7,0.7s0.9,0.6,1.1,1S153.9,380.1,153.9,380.6L153.9,380.6z"/>
				<path class="st4" d="M162.4,383.6h-6.2v-11.3h6.2v0.8h-5.3v4.1h5v0.8h-5v4.7h5.3V383.6L162.4,383.6z"/>
			</g>
			<g>
				<path class="st4" d="M145.9,399c0,2-0.2,3.7-0.6,5.1s-1.1,2.5-2,3.2c-0.9,0.8-2.2,1.1-3.8,1.1c-2.2,0-3.8-0.8-4.8-2.5
					s-1.5-4-1.5-6.9c0-2,0.2-3.7,0.6-5.1s1.1-2.5,2-3.2c0.9-0.8,2.2-1.1,3.8-1.1c2.2,0,3.8,0.8,4.9,2.5
					C145.4,393.7,145.9,396,145.9,399L145.9,399z M136.9,399c0,2.1,0.2,3.7,0.5,4.7s1,1.6,2,1.6s1.6-0.5,2-1.6
					c0.4-1,0.6-2.6,0.6-4.7s-0.2-3.7-0.6-4.7c-0.4-1.1-1-1.6-2-1.6s-1.6,0.5-2,1.6S136.9,396.9,136.9,399L136.9,399z"/>
				<path class="st4" d="M159.9,393.9c0,1.3-0.4,2.3-1.1,3s-1.7,1.3-2.8,1.5v0.1c1.5,0.2,2.6,0.6,3.4,1.3c0.8,0.7,1.1,1.7,1.1,2.9
					c0,1.1-0.3,2-0.8,2.9c-0.5,0.9-1.3,1.5-2.4,2c-1.1,0.5-2.5,0.7-4.2,0.7c-2,0-3.8-0.3-5.3-1v-3.3c0.8,0.4,1.6,0.7,2.5,0.9
					c0.9,0.2,1.7,0.3,2.4,0.3c1.4,0,2.4-0.2,2.9-0.7s0.8-1.2,0.8-2c0-0.5-0.1-1-0.4-1.3c-0.3-0.4-0.7-0.6-1.4-0.8s-1.5-0.3-2.7-0.3
					h-1.4v-3h1.4c1.1,0,2-0.1,2.6-0.3c0.6-0.2,1-0.5,1.2-0.9c0.2-0.4,0.3-0.8,0.3-1.3c0-0.6-0.2-1.2-0.6-1.5s-1.1-0.5-2-0.5
					c-0.9,0-1.6,0.1-2.3,0.5s-1.2,0.6-1.6,0.9l-1.8-2.7c0.7-0.5,1.6-0.9,2.5-1.3s2.1-0.5,3.4-0.5c1.9,0,3.4,0.4,4.5,1.1
					C159.4,391.5,159.9,392.5,159.9,393.9L159.9,393.9z"/>
			</g>
		</g>
		<g id="bullet-2">
			<ellipse id="bullet-base-2" class="st3" cx="58.5" cy="390.4" rx="17.6" ry="17.5"/>
			<ellipse id="bullet-color-2" class="st5" cx="58.5" cy="390.4" rx="8.5" ry="8.4"/>
		</g>
	</g>
	<g id="fase2">
		<g id="label-3">
			<path id="label-base-3" class="st1" d="M146.6,232.5h269.1c22.7,0,41.1,18.4,41.1,41.1l0,0c0,22.7-18.4,41.1-41.1,41.1H146.6
				V232.5L146.6,232.5z"/>
			<g>
				<path class="st6" d="M209.3,268v-1.5l1.4-0.3v-9.1l-1.4-0.3v-1.5h9.9v3.4h-2l-0.1-1.5h-3.9v3.2h4.3v2h-4.3v3.6h4.1l0.1-1.5h1.9
					v3.5L209.3,268L209.3,268z"/>
				<path class="st6" d="M224.9,268.2c-0.7,0-1.4-0.1-2-0.2s-1.2-0.3-1.8-0.6l0-2.7h1.8l0.3,1.4c0.2,0.1,0.4,0.2,0.6,0.2
					c0.2,0.1,0.5,0.1,0.8,0.1c0.6,0,1-0.1,1.2-0.3c0.2-0.2,0.4-0.4,0.4-0.7c0-0.3-0.1-0.5-0.4-0.7c-0.2-0.2-0.7-0.4-1.5-0.5
					c-1.1-0.2-1.9-0.6-2.5-1.1s-0.8-1.1-0.8-1.9c0-0.5,0.1-1,0.4-1.4s0.7-0.8,1.2-1c0.5-0.3,1.2-0.4,2.1-0.4c0.7,0,1.4,0.1,1.9,0.2
					c0.6,0.1,1.1,0.3,1.5,0.5l0,2.6h-1.8l-0.3-1.2c-0.2-0.1-0.3-0.2-0.6-0.3s-0.4-0.1-0.7-0.1c-0.4,0-0.8,0.1-1,0.3
					c-0.2,0.2-0.4,0.4-0.4,0.7c0,0.2,0,0.3,0.1,0.4c0.1,0.1,0.2,0.3,0.5,0.4s0.6,0.2,1.1,0.4c1.2,0.3,2,0.6,2.6,1.1s0.8,1.1,0.8,1.9
					c0,0.9-0.3,1.6-1,2.1S226.1,268.2,224.9,268.2L224.9,268.2z"/>
				<path class="st6" d="M233.6,268.2c-0.9,0-1.6-0.2-2-0.7c-0.5-0.5-0.7-1.2-0.7-2.3v-4.8h-1.3v-1.8h1.3v-2.3h2.5v2.3h1.7v1.8h-1.7
					v4.8c0,0.4,0.1,0.6,0.2,0.8s0.4,0.2,0.6,0.2c0.1,0,0.3,0,0.4,0s0.3,0,0.4-0.1l0.2,1.8c-0.3,0.1-0.6,0.1-0.9,0.2
					C234.1,268.1,233.8,268.2,233.6,268.2L233.6,268.2z"/>
				<path class="st6" d="M240.3,268.2c-1,0-1.8-0.3-2.4-1s-0.9-1.6-0.9-2.9v-3.9l-1-0.3v-1.5h3.6v5.8c0,0.7,0.1,1.2,0.4,1.5
					c0.2,0.3,0.6,0.4,1.1,0.4c0.4,0,0.7-0.1,1-0.2s0.5-0.4,0.7-0.6v-5l-1.1-0.3v-1.5h3.7v7.7l1.1,0.3v1.5h-3.4l-0.2-1.2
					c-0.3,0.4-0.7,0.8-1.1,1S240.8,268.2,240.3,268.2L240.3,268.2z"/>
				<path class="st6" d="M251,268.2c-0.8,0-1.4-0.2-1.9-0.6c-0.5-0.4-0.9-0.9-1.2-1.6s-0.4-1.5-0.4-2.4v-0.2c0-1,0.1-1.9,0.4-2.6
					c0.3-0.8,0.7-1.3,1.2-1.7c0.5-0.4,1.2-0.6,1.9-0.6c0.5,0,1,0.1,1.4,0.3s0.7,0.5,1,0.9v-3.4l-1.4-0.3v-1.5h3.9v11.8l1.2,0.3v1.5
					h-3.4l-0.2-1.1c-0.3,0.4-0.6,0.8-1.1,1S251.6,268.2,251,268.2L251,268.2z M251.8,266.2c0.4,0,0.7-0.1,0.9-0.2
					c0.3-0.2,0.5-0.4,0.7-0.7v-4c-0.2-0.3-0.4-0.5-0.7-0.7c-0.3-0.2-0.6-0.2-0.9-0.2c-0.4,0-0.8,0.1-1,0.4c-0.3,0.2-0.5,0.6-0.6,1
					s-0.2,1-0.2,1.6v0.2c0,0.8,0.1,1.5,0.4,2C250.7,265.9,251.2,266.2,251.8,266.2L251.8,266.2z"/>
				<path class="st6" d="M262.5,268.2c-0.9,0-1.7-0.2-2.4-0.6c-0.7-0.4-1.2-1-1.5-1.7c-0.4-0.7-0.5-1.6-0.5-2.5v-0.2
					c0-0.9,0.2-1.8,0.5-2.5c0.4-0.7,0.9-1.3,1.5-1.7s1.5-0.6,2.4-0.6s1.7,0.2,2.4,0.6c0.7,0.4,1.2,1,1.5,1.7
					c0.4,0.7,0.5,1.6,0.5,2.5v0.2c0,0.9-0.2,1.8-0.5,2.5c-0.4,0.7-0.9,1.3-1.5,1.7C264.2,268,263.4,268.2,262.5,268.2L262.5,268.2z
					 M262.5,266.2c0.4,0,0.8-0.1,1.1-0.4c0.3-0.2,0.5-0.6,0.6-1c0.1-0.4,0.2-0.9,0.2-1.5v-0.2c0-0.6-0.1-1.1-0.2-1.5
					c-0.1-0.4-0.3-0.8-0.6-1s-0.6-0.4-1.1-0.4s-0.8,0.1-1.1,0.4c-0.3,0.2-0.5,0.6-0.6,1c-0.1,0.4-0.2,0.9-0.2,1.5v0.2
					c0,0.6,0.1,1.1,0.2,1.5c0.1,0.4,0.3,0.8,0.6,1C261.7,266.1,262.1,266.2,262.5,266.2L262.5,266.2z"/>
				<path class="st6" d="M275.4,268v-1.5l1.4-0.3v-9h-2.3l-0.1,1.5h-1.9v-3.5h11.4v3.5h-1.9l-0.1-1.5h-2.3v9l1.4,0.3v1.5H275.4
					L275.4,268z"/>
				<path class="st6" d="M288.5,268.2c-0.9,0-1.7-0.2-2.4-0.6s-1.2-1-1.6-1.6s-0.5-1.5-0.5-2.4v-0.4c0-0.9,0.2-1.8,0.5-2.5
					c0.4-0.7,0.8-1.3,1.5-1.7c0.6-0.4,1.4-0.6,2.3-0.6c0.9,0,1.6,0.2,2.2,0.5c0.6,0.3,1,0.8,1.3,1.5s0.5,1.4,0.5,2.3v1.4h-5.6l0,0
					c0,0.4,0.1,0.8,0.3,1.1c0.2,0.3,0.4,0.6,0.7,0.8s0.7,0.3,1.1,0.3s0.9-0.1,1.3-0.2s0.8-0.3,1.2-0.5l0.7,1.6
					c-0.4,0.3-0.9,0.6-1.5,0.8C289.9,268.1,289.2,268.2,288.5,268.2L288.5,268.2z M286.6,262.3h3.2v-0.2c0-0.4,0-0.7-0.1-1
					s-0.3-0.5-0.5-0.6c-0.2-0.2-0.5-0.2-0.9-0.2s-0.6,0.1-0.9,0.3c-0.2,0.2-0.4,0.4-0.5,0.7C286.7,261.5,286.7,261.9,286.6,262.3
					L286.6,262.3L286.6,262.3z"/>
				<path class="st6" d="M293.5,268v-1.5l1.2-0.3v-5.9l-1.4-0.3v-1.5h3.7l0.1,1.2l0,0.2c0.2-0.5,0.5-0.9,0.9-1.2s0.8-0.4,1.2-0.4
					c0.1,0,0.3,0,0.5,0c0.2,0,0.3,0.1,0.5,0.1l-0.3,2.4l-1.3-0.1c-0.4,0-0.6,0-0.9,0.2c-0.2,0.1-0.4,0.3-0.6,0.6v4.6l1.2,0.3v1.5
					H293.5L293.5,268z"/>
				<path class="st6" d="M304.1,268.2c-0.9,0-1.7-0.2-2.2-0.8c-0.5-0.5-0.8-1.2-0.8-2.1c0-0.6,0.2-1.1,0.5-1.6s0.8-0.8,1.4-1.1
					s1.4-0.4,2.3-0.4h1.2v-0.7c0-0.5-0.1-0.8-0.4-1.1c-0.3-0.3-0.7-0.4-1.2-0.4c-0.3,0-0.5,0-0.7,0.1s-0.4,0.2-0.6,0.3l-0.2,1.2
					h-1.8l0-2.5c0.5-0.3,1-0.5,1.6-0.7s1.2-0.3,1.9-0.3c1.2,0,2.2,0.3,2.9,0.9s1.1,1.4,1.1,2.5v3.9c0,0.1,0,0.2,0,0.4
					c0,0.1,0,0.2,0,0.4l1,0.1v1.5h-3.2c-0.1-0.2-0.1-0.3-0.2-0.5s-0.1-0.4-0.1-0.6c-0.3,0.4-0.7,0.7-1.1,0.9
					S304.6,268.2,304.1,268.2L304.1,268.2z M304.8,266.3c0.4,0,0.7-0.1,1-0.2s0.6-0.4,0.7-0.6v-1.5h-1.3c-0.6,0-1,0.1-1.3,0.4
					c-0.3,0.3-0.4,0.6-0.4,0.9c0,0.3,0.1,0.6,0.3,0.8S304.4,266.3,304.8,266.3L304.8,266.3z"/>
				<path class="st6" d="M310.9,271.6v-1.5l1.2-0.3v-9.5l-1.4-0.3v-1.5h3.7l0.1,1.1c0.3-0.4,0.6-0.7,1-0.9c0.4-0.2,0.9-0.3,1.4-0.3
					c0.8,0,1.4,0.2,2,0.6s1,1,1.2,1.7c0.3,0.8,0.4,1.6,0.4,2.6v0.2c0,0.9-0.1,1.8-0.4,2.4c-0.3,0.7-0.7,1.2-1.2,1.6s-1.2,0.6-2,0.6
					c-0.5,0-1-0.1-1.3-0.3s-0.7-0.5-1-0.8v2.7l1.2,0.3v1.5L310.9,271.6L310.9,271.6z M316.3,266.2c0.6,0,1.1-0.2,1.4-0.7
					c0.3-0.5,0.4-1.1,0.4-2v-0.2c0-0.6-0.1-1.1-0.2-1.6s-0.3-0.8-0.6-1.1c-0.3-0.2-0.6-0.4-1.1-0.4c-0.4,0-0.7,0.1-0.9,0.2
					c-0.3,0.2-0.5,0.4-0.6,0.7v4.1c0.2,0.3,0.4,0.5,0.6,0.6S315.9,266.2,316.3,266.2L316.3,266.2z"/>
				<path class="st6" d="M326.5,268.2c-0.9,0-1.7-0.2-2.4-0.6s-1.2-1-1.6-1.6s-0.5-1.5-0.5-2.4v-0.4c0-0.9,0.2-1.8,0.5-2.5
					c0.4-0.7,0.8-1.3,1.5-1.7c0.6-0.4,1.4-0.6,2.3-0.6c0.9,0,1.6,0.2,2.2,0.5c0.6,0.3,1,0.8,1.3,1.5s0.5,1.4,0.5,2.3v1.4h-5.6l0,0
					c0,0.4,0.1,0.8,0.3,1.1c0.2,0.3,0.4,0.6,0.7,0.8s0.7,0.3,1.1,0.3s0.9-0.1,1.3-0.2s0.8-0.3,1.2-0.5l0.7,1.6
					c-0.4,0.3-0.9,0.6-1.5,0.8C327.9,268.1,327.3,268.2,326.5,268.2L326.5,268.2z M323.1,256.7v-0.2l2.2-2.1h1.9l2.2,2.1v0.2h-2
					l-1.2-1.3l-1.2,1.3H323.1z M324.7,262.3h3.2v-0.2c0-0.4,0-0.7-0.1-1s-0.3-0.5-0.5-0.6c-0.2-0.2-0.5-0.2-0.9-0.2
					s-0.6,0.1-0.9,0.3c-0.2,0.2-0.4,0.4-0.5,0.7C324.8,261.5,324.7,261.9,324.7,262.3L324.7,262.3L324.7,262.3z"/>
				<path class="st6" d="M335.4,268.2c-1,0-1.8-0.3-2.4-1s-0.9-1.6-0.9-2.9v-3.9l-1-0.3v-1.5h3.6v5.8c0,0.7,0.1,1.2,0.4,1.5
					c0.2,0.3,0.6,0.4,1.1,0.4c0.4,0,0.7-0.1,1-0.2s0.5-0.4,0.7-0.6v-5l-1.1-0.3v-1.5h3.7v7.7l1.1,0.3v1.5h-3.4l-0.2-1.2
					c-0.3,0.4-0.7,0.8-1.1,1C336.5,268,336,268.2,335.4,268.2L335.4,268.2z"/>
				<path class="st6" d="M346.2,268.2c-0.9,0-1.6-0.2-2-0.7c-0.5-0.5-0.7-1.2-0.7-2.3v-4.8h-1.3v-1.8h1.3v-2.3h2.5v2.3h1.7v1.8h-1.7
					v4.8c0,0.4,0.1,0.6,0.2,0.8c0.1,0.2,0.4,0.2,0.6,0.2c0.1,0,0.3,0,0.5,0s0.3,0,0.4-0.1l0.2,1.8c-0.3,0.1-0.5,0.1-0.9,0.2
					C346.9,268.1,346.6,268.2,346.2,268.2L346.2,268.2z"/>
				<path class="st6" d="M349.1,268v-1.5l1.2-0.3v-5.9l-1.4-0.3v-1.5h3.9v7.7l1.2,0.3v1.5H349.1L349.1,268z M350.2,256.5v-2.2h2.6
					v2.2H350.2z"/>
				<path class="st6" d="M359.4,268.2c-0.9,0-1.7-0.2-2.4-0.6s-1.2-1-1.5-1.7c-0.4-0.7-0.5-1.5-0.5-2.5v-0.3c0-0.9,0.2-1.8,0.5-2.5
					c0.4-0.7,0.9-1.3,1.5-1.7c0.7-0.4,1.4-0.6,2.3-0.6s1.6,0.1,2.2,0.4c0.6,0.3,1.1,0.6,1.5,0.9l0,2.7h-1.9l-0.3-1.7
					c-0.1-0.1-0.3-0.2-0.5-0.3c-0.2-0.1-0.4-0.1-0.7-0.1c-0.5,0-0.9,0.1-1.2,0.3c-0.3,0.2-0.5,0.6-0.7,1c-0.1,0.4-0.2,1-0.2,1.6v0.3
					c0,0.6,0.1,1.2,0.2,1.6s0.4,0.7,0.7,0.9c0.3,0.2,0.6,0.3,1,0.3c0.5,0,0.8-0.1,1.1-0.4c0.3-0.2,0.5-0.6,0.6-1h2.2l0,0.1
					c-0.1,0.7-0.3,1.2-0.6,1.7c-0.3,0.5-0.7,0.9-1.2,1.1S360.2,268.2,359.4,268.2L359.4,268.2z"/>
				<path class="st6" d="M368.9,268.2c-0.9,0-1.7-0.2-2.4-0.6c-0.7-0.4-1.2-1-1.5-1.7c-0.4-0.7-0.5-1.6-0.5-2.5v-0.2
					c0-0.9,0.2-1.8,0.5-2.5c0.4-0.7,0.9-1.3,1.5-1.7s1.5-0.6,2.4-0.6s1.7,0.2,2.4,0.6s1.2,1,1.5,1.7c0.4,0.7,0.5,1.6,0.5,2.5v0.2
					c0,0.9-0.2,1.8-0.5,2.5c-0.4,0.7-0.9,1.3-1.5,1.7S369.8,268.2,368.9,268.2L368.9,268.2z M368.9,266.2c0.4,0,0.8-0.1,1.1-0.4
					c0.3-0.2,0.5-0.6,0.6-1s0.2-0.9,0.2-1.5v-0.2c0-0.6-0.1-1.1-0.2-1.5s-0.3-0.8-0.6-1s-0.6-0.4-1.1-0.4s-0.8,0.1-1.1,0.4
					s-0.5,0.6-0.6,1s-0.2,0.9-0.2,1.5v0.2c0,0.6,0.1,1.1,0.2,1.5s0.3,0.8,0.6,1C368.1,266.1,368.5,266.2,368.9,266.2L368.9,266.2z"
					/>
				<path class="st6" d="M209.3,289.5v-1.5l1.4-0.3v-9.1l-1.4-0.3v-1.5h6.1c1,0,1.8,0.2,2.5,0.5c0.7,0.3,1.2,0.8,1.6,1.4
					c0.4,0.6,0.6,1.3,0.6,2.1s-0.2,1.5-0.6,2.1c-0.4,0.6-0.9,1.1-1.6,1.4c-0.7,0.3-1.5,0.5-2.5,0.5h-2.1v2.8l1.4,0.3v1.5
					L209.3,289.5L209.3,289.5z M213.2,282.9h2.1c0.7,0,1.2-0.2,1.6-0.6c0.4-0.4,0.6-0.9,0.6-1.5s-0.2-1.1-0.6-1.5
					c-0.4-0.4-0.9-0.6-1.6-0.6h-2.1V282.9z"/>
				<path class="st6" d="M220.9,289.5v-1.5l1.2-0.3v-5.9l-1.4-0.3V280h3.9v7.7l1.2,0.3v1.5L220.9,289.5L220.9,289.5z M222,278v-2.2
					h2.6v2.2H222z"/>
				<path class="st6" d="M226.6,289.5v-1.5l1.2-0.3v-10l-1.4-0.3v-1.5h3.9v11.8l1.2,0.3v1.5L226.6,289.5L226.6,289.5z"/>
				<path class="st6" d="M236.8,289.6c-0.9,0-1.7-0.2-2.4-0.6c-0.7-0.4-1.2-1-1.5-1.7s-0.5-1.6-0.5-2.5v-0.2c0-0.9,0.2-1.8,0.5-2.5
					s0.9-1.3,1.5-1.7s1.5-0.6,2.4-0.6s1.7,0.2,2.4,0.6c0.7,0.4,1.2,1,1.5,1.7c0.4,0.7,0.5,1.6,0.5,2.5v0.2c0,0.9-0.2,1.8-0.5,2.5
					c-0.4,0.7-0.9,1.3-1.5,1.7S237.7,289.6,236.8,289.6L236.8,289.6z M236.8,287.7c0.4,0,0.8-0.1,1.1-0.4s0.5-0.6,0.6-1
					c0.1-0.4,0.2-0.9,0.2-1.5v-0.2c0-0.6-0.1-1-0.2-1.5c-0.1-0.4-0.3-0.8-0.6-1s-0.6-0.4-1.1-0.4s-0.8,0.1-1.1,0.4
					c-0.3,0.2-0.5,0.6-0.6,1c-0.1,0.4-0.2,0.9-0.2,1.5v0.2c0,0.6,0.1,1.1,0.2,1.5c0.1,0.4,0.3,0.8,0.6,1
					C236,287.6,236.3,287.7,236.8,287.7L236.8,287.7z"/>
				<path class="st6" d="M246,289.6c-0.9,0-1.6-0.2-2-0.7c-0.5-0.5-0.7-1.2-0.7-2.3v-4.8H242V280h1.3v-2.3h2.5v2.3h1.7v1.8h-1.7v4.8
					c0,0.4,0.1,0.6,0.2,0.8s0.4,0.2,0.6,0.2c0.1,0,0.3,0,0.4,0s0.3,0,0.4-0.1l0.2,1.8c-0.3,0.1-0.6,0.1-0.9,0.2
					C246.6,289.6,246.3,289.6,246,289.6L246,289.6z"/>
				<path class="st6" d="M253,289.6c-0.9,0-1.7-0.2-2.4-0.6c-0.7-0.4-1.2-1-1.5-1.7s-0.5-1.6-0.5-2.5v-0.2c0-0.9,0.2-1.8,0.5-2.5
					s0.9-1.3,1.5-1.7s1.5-0.6,2.4-0.6s1.7,0.2,2.4,0.6c0.7,0.4,1.2,1,1.5,1.7c0.4,0.7,0.5,1.6,0.5,2.5v0.2c0,0.9-0.2,1.8-0.5,2.5
					c-0.4,0.7-0.9,1.3-1.5,1.7S253.9,289.6,253,289.6L253,289.6z M253,287.7c0.4,0,0.8-0.1,1.1-0.4s0.5-0.6,0.6-1
					c0.1-0.4,0.2-0.9,0.2-1.5v-0.2c0-0.6-0.1-1-0.2-1.5c-0.1-0.4-0.3-0.8-0.6-1s-0.6-0.4-1.1-0.4s-0.8,0.1-1.1,0.4
					c-0.3,0.2-0.5,0.6-0.6,1c-0.1,0.4-0.2,0.9-0.2,1.5v0.2c0,0.6,0.1,1.1,0.2,1.5c0.1,0.4,0.3,0.8,0.6,1
					C252.2,287.6,252.5,287.7,253,287.7L253,287.7z"/>
			</g>
		</g>
		<g id="circle-3">
			<ellipse id="circle-base-3" class="st3" cx="147.1" cy="273.2" rx="51.8" ry="51.6"/>
			<path id="circle-color-3" class="st6" d="M147.1,230.5c-21.7,0-39.6,16-42.5,36.8H74.2v11.1h30.4c2.6,21.2,20.6,37.6,42.6,37.6
				c23.7,0,42.9-19.1,42.9-42.7S170.9,230.5,147.1,230.5L147.1,230.5z M147.1,305.2c-17.7,0-32.1-14.3-32.1-31.9
				s14.4-31.9,32.1-31.9s32.1,14.3,32.1,31.9S164.9,305.2,147.1,305.2z"/>
			<g>
				<path class="st4" d="M131.2,267.2h-0.9v-11.3h6.2v0.8h-5.3v4.7h5v0.8h-5L131.2,267.2L131.2,267.2z"/>
				<path class="st4" d="M145,267.2l-1.5-3.9h-4.7l-1.5,3.9h-0.9l4.4-11.4h0.8l4.3,11.4H145L145,267.2z M141.7,258.4
					c-0.1-0.1-0.2-0.4-0.2-0.7c-0.1-0.3-0.2-0.6-0.3-0.8c-0.1,0.3-0.2,0.6-0.3,0.8c-0.1,0.3-0.2,0.5-0.2,0.7l-1.6,4.1h4.1
					L141.7,258.4L141.7,258.4z"/>
				<path class="st4" d="M153.9,264.3c0,0.7-0.2,1.2-0.5,1.7c-0.3,0.5-0.8,0.8-1.4,1.1c-0.6,0.2-1.3,0.4-2,0.4c-0.7,0-1.3,0-1.8-0.1
					c-0.5-0.1-0.9-0.2-1.3-0.4V266c0.4,0.2,0.9,0.3,1.4,0.4c0.5,0.1,1.1,0.2,1.7,0.2c0.9,0,1.6-0.2,2.1-0.6c0.5-0.4,0.8-0.9,0.8-1.7
					c0-0.4-0.1-0.8-0.3-1.1s-0.5-0.5-0.9-0.8c-0.4-0.2-1-0.4-1.6-0.7c-0.6-0.2-1.2-0.4-1.6-0.7c-0.4-0.3-0.8-0.6-1.1-1
					c-0.2-0.4-0.4-0.9-0.4-1.5c0-0.6,0.2-1.1,0.5-1.6s0.7-0.8,1.3-1c0.5-0.2,1.2-0.3,1.9-0.3c0.6,0,1.1,0.1,1.6,0.2
					c0.5,0.1,1,0.2,1.4,0.4l-0.3,0.8c-0.9-0.4-1.8-0.6-2.7-0.6c-0.8,0-1.4,0.2-1.9,0.5c-0.5,0.3-0.7,0.9-0.7,1.5
					c0,0.5,0.1,0.9,0.3,1.2s0.5,0.5,0.9,0.7c0.4,0.2,0.9,0.4,1.5,0.6c0.7,0.2,1.2,0.5,1.7,0.7s0.9,0.6,1.1,1
					C153.7,263.2,153.9,263.7,153.9,264.3L153.9,264.3z"/>
				<path class="st4" d="M162.4,267.2h-6.2v-11.3h6.2v0.8h-5.3v4.1h5v0.8h-5v4.7h5.3V267.2L162.4,267.2z"/>
			</g>
			<g>
				<path class="st4" d="M145.9,282.6c0,2-0.2,3.7-0.6,5.1s-1.1,2.5-2,3.2c-0.9,0.8-2.2,1.1-3.8,1.1c-2.2,0-3.8-0.8-4.8-2.5
					c-1-1.7-1.5-4-1.5-6.9c0-2,0.2-3.7,0.6-5.1s1.1-2.5,2-3.2c0.9-0.8,2.2-1.1,3.8-1.1c2.2,0,3.8,0.8,4.9,2.5
					S145.9,279.6,145.9,282.6L145.9,282.6z M136.9,282.6c0,2.1,0.2,3.7,0.5,4.7s1,1.6,2,1.6s1.6-0.5,2-1.6c0.4-1,0.6-2.6,0.6-4.7
					s-0.2-3.7-0.6-4.7c-0.4-1.1-1-1.6-2-1.6s-1.6,0.5-2,1.6S136.9,280.5,136.9,282.6L136.9,282.6z"/>
				<path class="st4" d="M160.7,291.8h-12.8v-2.7l4.6-4.6c0.9-1,1.7-1.8,2.2-2.4s1-1.2,1.2-1.8s0.4-1.1,0.4-1.7
					c0-0.7-0.2-1.3-0.6-1.6c-0.4-0.4-0.9-0.5-1.6-0.5s-1.4,0.2-2.1,0.5c-0.7,0.3-1.4,0.8-2.1,1.4l-2.1-2.5c0.5-0.5,1.1-0.9,1.7-1.3
					c0.6-0.4,1.3-0.7,2.1-1s1.7-0.4,2.8-0.4c1.2,0,2.2,0.2,3.1,0.6c0.9,0.4,1.5,1,2,1.8s0.7,1.6,0.7,2.5c0,1-0.2,1.9-0.6,2.8
					c-0.4,0.8-1,1.7-1.8,2.5c-0.8,0.8-1.7,1.7-2.8,2.7l-2.4,2.2v0.2h8L160.7,291.8L160.7,291.8z"/>
			</g>
		</g>
		<g id="bullet-3">
			<ellipse id="bullet-base-3" class="st3" cx="58.5" cy="274" rx="17.6" ry="17.5"/>
			<ellipse id="bullet-color-3" class="st6" cx="58.5" cy="274" rx="8.5" ry="8.4"/>
		</g>
	</g>
	<g id="fase1">
		<g id="label-4">
			<path id="label-base-4" class="st1" d="M146.6,117.5h269.1c22.7,0,41.1,18.4,41.1,41.1l0,0c0,22.7-18.4,41.1-41.1,41.1H146.6
				V117.5C146.6,117.5,146.6,117.5,146.6,117.5z"/>
			<g>
				<path class="st7" d="M209.3,161.8v-1.5l1.4-0.3v-9.1l-1.4-0.3v-1.5h6.1c1,0,1.8,0.2,2.5,0.5c0.7,0.3,1.2,0.8,1.6,1.4
					c0.4,0.6,0.6,1.3,0.6,2.1s-0.2,1.5-0.6,2.1s-0.9,1.1-1.6,1.4c-0.7,0.3-1.5,0.5-2.5,0.5h-2.1v2.8l1.4,0.3v1.5L209.3,161.8
					L209.3,161.8z M213.2,155.2h2.1c0.7,0,1.2-0.2,1.6-0.6s0.6-0.9,0.6-1.5s-0.2-1.1-0.6-1.5c-0.4-0.4-0.9-0.6-1.6-0.6h-2.1V155.2
					L213.2,155.2z"/>
				<path class="st7" d="M221.1,161.8v-1.5l1.2-0.3v-5.9l-1.4-0.3v-1.5h3.7l0.1,1.2l0,0.2c0.2-0.5,0.5-0.9,0.9-1.2s0.8-0.4,1.2-0.4
					c0.1,0,0.3,0,0.5,0s0.3,0.1,0.5,0.1l-0.3,2.4l-1.3-0.1c-0.4,0-0.6,0-0.9,0.2c-0.2,0.1-0.4,0.3-0.6,0.6v4.6l1.2,0.3v1.5
					L221.1,161.8L221.1,161.8z"/>
				<path class="st7" d="M228.7,161.8v-1.5l1.2-0.3v-5.9l-1.4-0.3v-1.5h3.9v7.7l1.2,0.3v1.5L228.7,161.8L228.7,161.8z M229.9,150.3
					v-2.2h2.6v2.2H229.9z"/>
				<path class="st7" d="M234.5,161.8v-1.5l1.2-0.3v-5.9l-1.4-0.3v-1.5h3.7l0.1,1.2c0.3-0.4,0.7-0.8,1.1-1.1s1-0.4,1.6-0.4
					s1.1,0.1,1.6,0.4c0.4,0.3,0.8,0.7,1,1.2c0.3-0.5,0.7-0.9,1.1-1.2c0.5-0.3,1-0.4,1.6-0.4c0.9,0,1.7,0.3,2.2,0.9
					c0.5,0.6,0.8,1.6,0.8,2.9v4l1.2,0.3v1.5h-4.9v-1.5l1.1-0.3v-4c0-0.7-0.1-1.2-0.4-1.5c-0.2-0.3-0.6-0.4-1-0.4
					c-0.4,0-0.7,0.1-1,0.3c-0.3,0.2-0.5,0.5-0.6,0.9v4.6l1,0.3v1.5h-4.6v-1.5l1-0.3v-4c0-0.7-0.1-1.2-0.4-1.4
					c-0.2-0.3-0.6-0.4-1-0.4c-0.4,0-0.7,0.1-0.9,0.2c-0.3,0.1-0.5,0.4-0.6,0.6v5l1.1,0.3v1.5L234.5,161.8L234.5,161.8z"/>
				<path class="st7" d="M255.8,161.9c-0.9,0-1.7-0.2-2.4-0.6c-0.7-0.4-1.2-0.9-1.6-1.6c-0.4-0.7-0.6-1.5-0.6-2.4V157
					c0-0.9,0.2-1.8,0.5-2.5s0.8-1.3,1.5-1.7c0.6-0.4,1.4-0.6,2.3-0.6c0.9,0,1.6,0.2,2.2,0.5s1,0.8,1.3,1.5c0.3,0.6,0.5,1.4,0.5,2.3
					v1.4h-5.6l0,0.1c0,0.4,0.1,0.8,0.3,1.1c0.2,0.3,0.4,0.6,0.7,0.8s0.7,0.3,1.1,0.3c0.4,0,0.9-0.1,1.3-0.2c0.4-0.1,0.8-0.3,1.2-0.5
					l0.7,1.6c-0.4,0.3-0.9,0.6-1.5,0.8C257.2,161.9,256.5,161.9,255.8,161.9L255.8,161.9z M254,156.1h3.1v-0.2c0-0.4,0-0.7-0.1-1
					s-0.3-0.5-0.5-0.6c-0.2-0.1-0.5-0.2-0.9-0.2s-0.6,0.1-0.9,0.3s-0.4,0.4-0.6,0.7S254,155.7,254,156.1L254,156.1L254,156.1z"/>
				<path class="st7" d="M260.6,161.8v-1.5l1.2-0.3v-5.9l-1.4-0.3v-1.5h3.9v7.7l1.2,0.3v1.5L260.6,161.8L260.6,161.8z M261.7,150.3
					v-2.2h2.6v2.2H261.7z"/>
				<path class="st7" d="M266.6,161.8v-1.5l1.2-0.3v-5.9l-1.4-0.3v-1.5h3.7l0.1,1.2l0,0.2c0.2-0.5,0.5-0.9,0.9-1.2s0.8-0.4,1.2-0.4
					c0.1,0,0.3,0,0.5,0s0.3,0.1,0.5,0.1l-0.3,2.4l-1.3-0.1c-0.4,0-0.7,0-0.9,0.2c-0.2,0.1-0.4,0.3-0.6,0.6v4.6l1.2,0.3v1.5
					L266.6,161.8L266.6,161.8z"/>
				<path class="st7" d="M278.5,161.9c-0.9,0-1.7-0.2-2.4-0.6c-0.7-0.4-1.2-1-1.5-1.7c-0.4-0.7-0.5-1.6-0.5-2.5V157
					c0-0.9,0.2-1.8,0.5-2.5c0.4-0.7,0.9-1.3,1.5-1.7s1.5-0.6,2.4-0.6s1.7,0.2,2.4,0.6s1.2,1,1.5,1.7s0.5,1.6,0.5,2.5v0.2
					c0,0.9-0.2,1.8-0.5,2.5c-0.4,0.7-0.9,1.3-1.5,1.7S279.5,161.9,278.5,161.9L278.5,161.9z M278.5,160c0.4,0,0.8-0.1,1.1-0.4
					s0.5-0.6,0.6-1s0.2-0.9,0.2-1.5v-0.2c0-0.6-0.1-1.1-0.2-1.5s-0.3-0.8-0.6-1s-0.6-0.4-1.1-0.4s-0.8,0.1-1.1,0.4s-0.5,0.6-0.6,1
					s-0.2,0.9-0.2,1.5v0.2c0,0.6,0.1,1.1,0.2,1.5s0.3,0.8,0.6,1C277.7,159.9,278.1,160,278.5,160L278.5,160z"/>
				<path class="st7" d="M288.2,161.9c-0.7,0-1.4-0.1-2-0.2c-0.6-0.1-1.2-0.3-1.8-0.6l0-2.7h1.8l0.3,1.4c0.2,0.1,0.4,0.2,0.6,0.2
					c0.2,0.1,0.5,0.1,0.8,0.1c0.6,0,1-0.1,1.2-0.3c0.2-0.2,0.4-0.4,0.4-0.7c0-0.3-0.1-0.5-0.4-0.7s-0.7-0.4-1.5-0.5
					c-1.1-0.2-1.9-0.6-2.5-1.1s-0.8-1.1-0.8-1.9c0-0.5,0.1-1,0.4-1.4s0.7-0.8,1.2-1s1.2-0.4,2.1-0.4c0.7,0,1.4,0.1,2,0.2
					c0.6,0.1,1.1,0.3,1.5,0.5l0,2.6h-1.8l-0.3-1.2c-0.2-0.1-0.3-0.2-0.5-0.3s-0.5-0.1-0.7-0.1c-0.5,0-0.8,0.1-1,0.3
					c-0.2,0.2-0.4,0.4-0.4,0.7c0,0.2,0,0.3,0.1,0.4c0.1,0.1,0.2,0.3,0.5,0.4s0.6,0.2,1.1,0.4c1.2,0.3,2,0.6,2.6,1.1s0.8,1.1,0.8,1.9
					c0,0.9-0.3,1.6-1,2.1C290.4,161.7,289.5,162,288.2,161.9L288.2,161.9z"/>
				<path class="st7" d="M301.3,161.9c-0.9,0-1.6-0.2-2-0.7c-0.5-0.5-0.7-1.2-0.7-2.3v-4.8h-1.3v-1.8h1.3V150h2.5v2.3h1.7v1.8h-1.7
					v4.8c0,0.4,0.1,0.6,0.2,0.8c0.1,0.2,0.4,0.2,0.6,0.2c0.1,0,0.3,0,0.5,0s0.3,0,0.4-0.1l0.2,1.8c-0.3,0.1-0.5,0.1-0.9,0.2
					C301.9,161.9,301.6,161.9,301.3,161.9L301.3,161.9z"/>
				<path class="st7" d="M308.3,161.9c-0.9,0-1.7-0.2-2.4-0.6s-1.2-0.9-1.6-1.6s-0.5-1.5-0.5-2.4V157c0-0.9,0.2-1.8,0.5-2.5
					c0.4-0.7,0.8-1.3,1.5-1.7c0.6-0.4,1.4-0.6,2.3-0.6c0.9,0,1.6,0.2,2.2,0.5c0.6,0.3,1,0.8,1.3,1.5s0.5,1.4,0.5,2.3v1.4h-5.6l0,0.1
					c0,0.4,0.1,0.8,0.3,1.1c0.2,0.3,0.4,0.6,0.7,0.8s0.7,0.3,1.1,0.3s0.9-0.1,1.3-0.2s0.8-0.3,1.2-0.5l0.7,1.6
					c-0.4,0.3-0.9,0.6-1.5,0.8C309.7,161.9,309,161.9,308.3,161.9L308.3,161.9z M306.5,156.1h3.2v-0.2c0-0.4,0-0.7-0.1-1
					s-0.3-0.5-0.5-0.6c-0.2-0.1-0.5-0.2-0.9-0.2s-0.6,0.1-0.9,0.3c-0.2,0.2-0.4,0.4-0.5,0.7C306.6,155.3,306.5,155.7,306.5,156.1
					L306.5,156.1L306.5,156.1z"/>
				<path class="st7" d="M317.2,161.9c-0.7,0-1.4-0.1-2-0.2c-0.6-0.1-1.2-0.3-1.8-0.6l0-2.7h1.8l0.3,1.4c0.2,0.1,0.4,0.2,0.6,0.2
					c0.2,0.1,0.5,0.1,0.8,0.1c0.6,0,1-0.1,1.2-0.3c0.2-0.2,0.4-0.4,0.4-0.7c0-0.3-0.1-0.5-0.4-0.7s-0.7-0.4-1.5-0.5
					c-1.1-0.2-1.9-0.6-2.5-1.1s-0.8-1.1-0.8-1.9c0-0.5,0.1-1,0.4-1.4s0.7-0.8,1.2-1s1.2-0.4,2.1-0.4c0.7,0,1.4,0.1,2,0.2
					c0.6,0.1,1.1,0.3,1.5,0.5l0,2.6h-1.8l-0.3-1.2c-0.2-0.1-0.3-0.2-0.5-0.3s-0.5-0.1-0.7-0.1c-0.5,0-0.8,0.1-1,0.3
					c-0.2,0.2-0.4,0.4-0.4,0.7c0,0.2,0,0.3,0.1,0.4c0.1,0.1,0.2,0.3,0.5,0.4s0.6,0.2,1.1,0.4c1.2,0.3,2,0.6,2.6,1.1s0.8,1.1,0.8,1.9
					c0,0.9-0.3,1.6-1,2.1C319.5,161.7,318.5,162,317.2,161.9L317.2,161.9z"/>
				<path class="st7" d="M325.9,161.9c-0.9,0-1.6-0.2-2-0.7c-0.5-0.5-0.7-1.2-0.7-2.3v-4.8h-1.3v-1.8h1.3V150h2.5v2.3h1.7v1.8h-1.7
					v4.8c0,0.4,0.1,0.6,0.2,0.8c0.1,0.2,0.4,0.2,0.6,0.2c0.1,0,0.3,0,0.5,0s0.3,0,0.4-0.1l0.2,1.8c-0.3,0.1-0.5,0.1-0.9,0.2
					C326.5,161.9,326.2,161.9,325.9,161.9L325.9,161.9z"/>
				<path class="st7" d="M332.9,161.9c-0.9,0-1.7-0.2-2.4-0.6s-1.2-0.9-1.6-1.6s-0.5-1.5-0.5-2.4V157c0-0.9,0.2-1.8,0.5-2.5
					c0.4-0.7,0.8-1.3,1.5-1.7c0.6-0.4,1.4-0.6,2.3-0.6c0.9,0,1.6,0.2,2.2,0.5c0.6,0.3,1,0.8,1.3,1.5s0.5,1.4,0.5,2.3v1.4h-5.6l0,0.1
					c0,0.4,0.1,0.8,0.3,1.1c0.2,0.3,0.4,0.6,0.7,0.8s0.7,0.3,1.1,0.3s0.9-0.1,1.3-0.2s0.8-0.3,1.2-0.5l0.7,1.6
					c-0.4,0.3-0.9,0.6-1.5,0.8C334.4,161.9,333.7,161.9,332.9,161.9L332.9,161.9z M331.1,156.1h3.2v-0.2c0-0.4,0-0.7-0.1-1
					s-0.3-0.5-0.5-0.6c-0.2-0.1-0.5-0.2-0.9-0.2s-0.6,0.1-0.9,0.3c-0.2,0.2-0.4,0.4-0.5,0.7C331.2,155.3,331.1,155.7,331.1,156.1
					L331.1,156.1L331.1,156.1z"/>
				<path class="st7" d="M341.9,161.9c-0.7,0-1.4-0.1-2-0.2c-0.6-0.1-1.2-0.3-1.8-0.6l0-2.7h1.8l0.3,1.4c0.2,0.1,0.4,0.2,0.6,0.2
					c0.2,0.1,0.5,0.1,0.8,0.1c0.6,0,1-0.1,1.2-0.3c0.2-0.2,0.4-0.4,0.4-0.7c0-0.3-0.1-0.5-0.4-0.7s-0.7-0.4-1.5-0.5
					c-1.1-0.2-1.9-0.6-2.5-1.1s-0.8-1.1-0.8-1.9c0-0.5,0.1-1,0.4-1.4s0.7-0.8,1.2-1s1.2-0.4,2.1-0.4c0.7,0,1.4,0.1,2,0.2
					c0.6,0.1,1.1,0.3,1.5,0.5l0,2.6h-1.8l-0.3-1.2c-0.2-0.1-0.3-0.2-0.5-0.3s-0.5-0.1-0.7-0.1c-0.5,0-0.8,0.1-1,0.3
					c-0.2,0.2-0.4,0.4-0.4,0.7c0,0.2,0,0.3,0.1,0.4c0.1,0.1,0.2,0.3,0.5,0.4s0.6,0.2,1.1,0.4c1.2,0.3,2,0.6,2.6,1.1s0.8,1.1,0.8,1.9
					c0,0.9-0.3,1.6-1,2.1C344.1,161.7,343.2,162,341.9,161.9L341.9,161.9z"/>
			</g>
		</g>
		<g id="circle-4">
			<ellipse id="circle-base-4" class="st3" cx="147.1" cy="158.4" rx="51.8" ry="51.6"/>
			<path id="circle-color-4" class="st7" d="M147.1,115.7c-21.7,0-39.6,16-42.5,36.8H74.2v11.1h30.4c2.6,21.2,20.6,37.6,42.6,37.6
				c23.7,0,42.9-19.1,42.9-42.7S170.9,115.7,147.1,115.7L147.1,115.7z M147.1,190.3c-17.7,0-32.1-14.3-32.1-31.9
				s14.4-31.9,32.1-31.9s32.1,14.3,32.1,31.9S164.9,190.3,147.1,190.3z"/>
			<g>
				<path class="st4" d="M131.2,152.4h-0.9v-11.3h6.2v0.8h-5.3v4.7h5v0.8h-5L131.2,152.4L131.2,152.4z"/>
				<path class="st4" d="M145,152.4l-1.5-3.9h-4.7l-1.5,3.9h-0.9l4.4-11.4h0.8l4.3,11.4H145L145,152.4z M141.7,143.6
					c-0.1-0.1-0.2-0.4-0.2-0.7c-0.1-0.3-0.2-0.6-0.3-0.8c-0.1,0.3-0.2,0.6-0.3,0.8c-0.1,0.3-0.2,0.5-0.2,0.7l-1.6,4.1h4.1
					L141.7,143.6L141.7,143.6z"/>
				<path class="st4" d="M153.9,149.4c0,0.7-0.2,1.2-0.5,1.7c-0.3,0.5-0.8,0.8-1.4,1.1c-0.6,0.2-1.3,0.4-2,0.4
					c-0.7,0-1.3-0.1-1.8-0.1s-0.9-0.2-1.3-0.4v-0.9c0.4,0.2,0.9,0.3,1.4,0.4c0.5,0.1,1.1,0.2,1.7,0.2c0.9,0,1.6-0.2,2.1-0.6
					c0.5-0.4,0.8-0.9,0.8-1.7c0-0.4-0.1-0.8-0.3-1.1s-0.5-0.5-0.9-0.8s-1-0.4-1.6-0.7c-0.6-0.2-1.2-0.4-1.6-0.7
					c-0.4-0.3-0.8-0.6-1.1-1c-0.2-0.4-0.4-0.9-0.4-1.5s0.2-1.1,0.5-1.6s0.7-0.8,1.3-1s1.2-0.3,1.9-0.3c0.6,0,1.1,0.1,1.6,0.2
					s1,0.2,1.4,0.4l-0.3,0.8c-0.9-0.4-1.8-0.6-2.7-0.6c-0.8,0-1.4,0.2-1.9,0.5c-0.5,0.3-0.7,0.9-0.7,1.5c0,0.5,0.1,0.9,0.3,1.2
					s0.5,0.5,0.9,0.7c0.4,0.2,0.9,0.4,1.5,0.6c0.7,0.2,1.2,0.5,1.7,0.7s0.9,0.6,1.1,1S153.9,148.9,153.9,149.4L153.9,149.4z"/>
				<path class="st4" d="M162.4,152.4h-6.2v-11.3h6.2v0.8h-5.3v4.1h5v0.8h-5v4.7h5.3V152.4L162.4,152.4z"/>
			</g>
			<g>
				<path class="st4" d="M145.9,167.8c0,2-0.2,3.7-0.6,5.1s-1.1,2.5-2,3.2c-0.9,0.8-2.2,1.1-3.8,1.1c-2.2,0-3.8-0.8-4.8-2.5
					s-1.5-4-1.5-6.9c0-2,0.2-3.7,0.6-5.1c0.4-1.4,1.1-2.5,2-3.2c0.9-0.8,2.2-1.1,3.8-1.1c2.2,0,3.8,0.8,4.9,2.5
					S145.9,164.8,145.9,167.8L145.9,167.8z M136.9,167.8c0,2.1,0.2,3.7,0.5,4.7s1,1.6,2,1.6s1.6-0.5,2-1.6c0.4-1,0.6-2.6,0.6-4.7
					s-0.2-3.7-0.6-4.7c-0.4-1.1-1-1.6-2-1.6s-1.6,0.5-2,1.6S136.9,165.7,136.9,167.8L136.9,167.8z"/>
				<path class="st4" d="M157.4,176.9h-3.9v-10.6c0-0.4,0-1,0-1.8s0.1-1.4,0.1-1.9c-0.1,0.1-0.3,0.3-0.6,0.6
					c-0.3,0.3-0.5,0.5-0.8,0.7l-2.1,1.7l-1.9-2.3l5.9-4.7h3.2L157.4,176.9L157.4,176.9z"/>
			</g>
		</g>
		<g id="bullet-4">
			<ellipse id="bullet-base-4" class="st3" cx="58.5" cy="159.2" rx="17.6" ry="17.5"/>
			<ellipse id="bullet-color-4" class="st7" cx="58.5" cy="159.2" rx="8.5" ry="8.4"/>
		</g>
	</g>
</g>
<g id="popover4">
	<circle class="st8" cx="419.9" cy="505.1" r="16.8"/>
	<path class="st9" d="M419.1,513.4v-7.7h-7v-1.3h7v-7.6h1.4v7.6h7.2v1.3h-7.2v7.7H419.1z"/>
</g>
<g id="popover3">
	<circle class="st8" cx="419.9" cy="388.5" r="16.8"/>
	<path class="st9" d="M419.1,396.9v-7.7h-7v-1.3h7v-7.6h1.4v7.6h7.2v1.3h-7.2v7.7H419.1z"/>
</g>
<g id="popover2">
	<circle class="st8" cx="419.9" cy="273.9" r="16.8"/>
	<path class="st9" d="M419.1,282.3v-7.7h-7v-1.3h7v-7.6h1.4v7.6h7.2v1.3h-7.2v7.7H419.1z"/>
</g>
<g id="popoevr1">
	<circle class="st8" cx="419.9" cy="158.9" r="16.8"/>
	<path class="st9" d="M419.1,167.2v-7.7h-7v-1.3h7v-7.6h1.4v7.6h7.2v1.3h-7.2v7.7H419.1z"/>
</g>
<g id="Titulo-info">
	<g>
		<path class="st5" d="M72.4,39.4h-4.6V22.3H78V26h-5.6v3.3h5.1V33h-5.1V39.4L72.4,39.4z"/>
		<path class="st5" d="M87,25.9c1.7,0,3,0.4,3.9,1.2c0.9,0.8,1.4,2,1.4,3.5v8.7h-3.2l-0.9-1.8h-0.1c-0.4,0.5-0.8,0.8-1.1,1.1
			s-0.8,0.5-1.4,0.7c-0.5,0.1-1.1,0.2-1.9,0.2c-1.2,0-2.1-0.3-2.9-1.1s-1.2-1.8-1.2-3.2s0.5-2.5,1.5-3.2c1-0.7,2.4-1.1,4.3-1.1
			l2.2-0.1v-0.2c0-0.6-0.1-1-0.4-1.3s-0.7-0.4-1.2-0.4c-0.5,0-1.1,0.1-1.8,0.3c-0.6,0.2-1.3,0.4-1.9,0.7l-1.3-3
			c0.8-0.4,1.6-0.7,2.6-0.9C84.7,26,85.8,25.9,87,25.9L87,25.9z M86.7,33.5c-0.8,0-1.4,0.2-1.8,0.4c-0.3,0.3-0.5,0.6-0.5,1.1
			c0,0.5,0.1,0.8,0.4,1s0.6,0.3,1,0.3c0.6,0,1-0.2,1.4-0.5s0.6-0.8,0.6-1.4v-1L86.7,33.5z"/>
		<path class="st5" d="M105.3,35.3c0,0.8-0.2,1.6-0.6,2.2c-0.4,0.7-1,1.2-1.8,1.5c-0.8,0.4-1.9,0.5-3.2,0.5c-0.9,0-1.8,0-2.5-0.2
			c-0.7-0.1-1.5-0.3-2.3-0.6v-3.7c0.8,0.4,1.7,0.7,2.6,0.8c0.9,0.2,1.5,0.2,2,0.2c1,0,1.5-0.2,1.5-0.7c0-0.2-0.1-0.4-0.2-0.5
			c-0.2-0.1-0.4-0.3-0.8-0.5c-0.4-0.2-1-0.4-1.7-0.7c-1.1-0.5-1.9-1-2.5-1.6c-0.5-0.6-0.8-1.4-0.8-2.5c0-1.3,0.5-2.3,1.5-2.9
			s2.3-1,4-1c0.9,0,1.7,0.1,2.5,0.3s1.6,0.5,2.4,0.8l-1.2,3c-0.7-0.3-1.3-0.5-2-0.7c-0.7-0.2-1.2-0.3-1.6-0.3
			c-0.8,0-1.1,0.2-1.1,0.5c0,0.2,0.1,0.3,0.2,0.4c0.1,0.1,0.4,0.3,0.8,0.4s0.9,0.4,1.7,0.7c0.8,0.3,1.4,0.6,1.9,1
			c0.5,0.4,0.9,0.8,1.1,1.3C105.2,33.9,105.3,34.6,105.3,35.3L105.3,35.3z"/>
		<path class="st5" d="M113.8,25.9c1.9,0,3.5,0.5,4.6,1.5s1.7,2.5,1.7,4.6v2h-8.2c0,0.7,0.3,1.3,0.8,1.7c0.5,0.5,1.2,0.7,2.1,0.7
			c0.8,0,1.6-0.1,2.3-0.2s1.4-0.4,2.1-0.8v3.3c-0.6,0.3-1.3,0.6-2.1,0.7s-1.7,0.2-2.9,0.2c-1.3,0-2.5-0.2-3.6-0.7
			c-1.1-0.5-1.9-1.2-2.5-2.2c-0.6-1-0.9-2.3-0.9-3.9s0.3-2.9,0.8-3.9c0.6-1,1.3-1.8,2.3-2.3S112.5,25.9,113.8,25.9L113.8,25.9z
			 M114,29c-0.5,0-1,0.2-1.4,0.5c-0.4,0.3-0.6,0.9-0.6,1.6h3.9c0-0.6-0.2-1.1-0.5-1.5C115.1,29.2,114.6,29,114,29L114,29z"/>
		<path class="st5" d="M132.6,35.3c0,0.8-0.2,1.6-0.6,2.2c-0.4,0.7-1,1.2-1.8,1.5c-0.8,0.4-1.9,0.5-3.2,0.5c-0.9,0-1.8,0-2.5-0.2
			c-0.7-0.1-1.5-0.3-2.3-0.6v-3.7c0.8,0.4,1.7,0.7,2.6,0.8c0.9,0.2,1.5,0.2,2,0.2c1,0,1.5-0.2,1.5-0.7c0-0.2-0.1-0.4-0.2-0.5
			s-0.4-0.3-0.8-0.5c-0.4-0.2-1-0.4-1.7-0.7c-1.1-0.5-1.9-1-2.5-1.6c-0.5-0.6-0.8-1.4-0.8-2.5c0-1.3,0.5-2.3,1.5-2.9s2.3-1,4-1
			c0.9,0,1.7,0.1,2.5,0.3s1.6,0.5,2.4,0.8l-1.2,3c-0.7-0.3-1.3-0.5-2-0.7c-0.7-0.2-1.2-0.3-1.6-0.3c-0.8,0-1.1,0.2-1.1,0.5
			c0,0.2,0.1,0.3,0.2,0.4c0.1,0.1,0.4,0.3,0.8,0.4s0.9,0.4,1.7,0.7c0.8,0.3,1.4,0.6,1.9,1c0.5,0.4,0.9,0.8,1.1,1.3
			C132.4,33.9,132.6,34.6,132.6,35.3L132.6,35.3z"/>
		<path class="st5" d="M145.5,39.6c-1.4,0-2.5-0.6-3.4-1.8s-1.3-2.9-1.3-5.1s0.4-4,1.4-5.1c0.9-1.2,2.1-1.7,3.5-1.7
			c0.9,0,1.6,0.2,2.1,0.5c0.5,0.4,1,0.8,1.3,1.4h0.1c-0.1-0.3-0.1-0.8-0.2-1.4c0-0.6-0.1-1.2-0.1-1.7v-3.5h4.6v18.2h-3.5l-1-1.7H149
			c-0.3,0.5-0.8,1-1.3,1.4C147.1,39.5,146.4,39.6,145.5,39.6L145.5,39.6z M147.3,36c0.7,0,1.3-0.2,1.6-0.7c0.3-0.5,0.5-1.2,0.5-2.1
			v-0.4c0-1-0.1-1.8-0.4-2.4c-0.3-0.6-0.8-0.8-1.6-0.8c-0.5,0-1,0.3-1.4,0.8s-0.5,1.4-0.5,2.5s0.2,1.9,0.5,2.4S146.8,36,147.3,36
			L147.3,36z"/>
		<path class="st5" d="M169.4,32.7c0,2.2-0.6,3.9-1.8,5.1s-2.8,1.8-4.9,1.8c-1.3,0-2.4-0.3-3.4-0.8c-1-0.5-1.8-1.3-2.3-2.3
			s-0.9-2.3-0.9-3.8c0-2.2,0.6-3.9,1.8-5.1c1.2-1.2,2.8-1.8,4.9-1.8c1.3,0,2.4,0.3,3.4,0.8c1,0.5,1.8,1.3,2.3,2.3
			S169.5,31.3,169.4,32.7L169.4,32.7z M160.9,32.7c0,1.1,0.1,2,0.5,2.6c0.3,0.6,0.8,0.9,1.5,0.9s1.2-0.3,1.5-0.9s0.4-1.5,0.4-2.6
			s-0.1-2-0.4-2.6c-0.3-0.6-0.8-0.9-1.5-0.9s-1.2,0.3-1.5,0.9C161,30.7,160.9,31.6,160.9,32.7L160.9,32.7z"/>
		<path class="st5" d="M186.4,25.9c1.5,0,2.6,0.6,3.5,1.8c0.8,1.2,1.2,2.9,1.2,5.1c0,1.5-0.2,2.8-0.6,3.8c-0.4,1-1,1.8-1.7,2.3
			s-1.6,0.8-2.5,0.8s-1.6-0.2-2.2-0.5s-0.9-0.7-1.2-1h-0.1c0,0.3,0.1,0.6,0.1,1c0,0.3,0.1,0.8,0.1,1.2v4.8h-4.6v-19h3.7l0.6,1.7h0.2
			c0.3-0.5,0.8-1,1.3-1.3C184.8,26.1,185.5,25.9,186.4,25.9L186.4,25.9z M184.7,29.5c-0.7,0-1.1,0.2-1.4,0.7s-0.4,1.2-0.4,2.1v0.4
			c0,1.1,0.1,1.9,0.4,2.4c0.3,0.5,0.7,0.8,1.4,0.8c0.6,0,1-0.2,1.3-0.8s0.4-1.3,0.4-2.5s-0.1-2-0.5-2.5
			C185.7,29.7,185.2,29.5,184.7,29.5L184.7,29.5z"/>
		<path class="st5" d="M201.8,25.9c0.3,0,0.5,0,0.8,0c0.3,0,0.5,0.1,0.6,0.1l-0.4,4.3c-0.2,0-0.4-0.1-0.6-0.1c-0.2,0-0.6,0-1,0
			c-0.4,0-0.8,0.1-1.2,0.2s-0.8,0.4-1.1,0.7c-0.3,0.4-0.5,1-0.5,1.8v6.5h-4.6V26.1h3.4l0.7,2.1h0.2c0.4-0.7,0.9-1.2,1.6-1.7
			C200.3,26.1,201,25.9,201.8,25.9z"/>
		<path class="st5" d="M217.2,32.7c0,2.2-0.6,3.9-1.8,5.1s-2.8,1.8-4.9,1.8c-1.3,0-2.4-0.3-3.4-0.8c-1-0.5-1.8-1.3-2.3-2.3
			s-0.9-2.3-0.9-3.8c0-2.2,0.6-3.9,1.8-5.1c1.2-1.2,2.8-1.8,4.9-1.8c1.3,0,2.4,0.3,3.4,0.8c1,0.5,1.8,1.3,2.3,2.3
			S217.2,31.3,217.2,32.7L217.2,32.7z M208.6,32.7c0,1.1,0.1,2,0.5,2.6c0.3,0.6,0.8,0.9,1.5,0.9s1.2-0.3,1.5-0.9s0.4-1.5,0.4-2.6
			s-0.1-2-0.4-2.6c-0.3-0.6-0.8-0.9-1.5-0.9s-1.2,0.3-1.5,0.9C208.8,30.7,208.6,31.6,208.6,32.7L208.6,32.7z"/>
		<path class="st5" d="M223.9,39.6c-1.4,0-2.5-0.6-3.4-1.8s-1.3-2.9-1.3-5.1s0.4-4,1.4-5.1c0.9-1.2,2.1-1.7,3.5-1.7
			c0.9,0,1.6,0.2,2.1,0.5c0.5,0.4,1,0.8,1.3,1.4h0.1c-0.1-0.3-0.1-0.8-0.2-1.4c0-0.6-0.1-1.2-0.1-1.7v-3.5h4.6v18.2h-3.5l-1-1.7
			h-0.2c-0.3,0.5-0.8,1-1.3,1.4C225.6,39.5,224.8,39.6,223.9,39.6L223.9,39.6z M225.8,36c0.7,0,1.3-0.2,1.6-0.7
			c0.3-0.5,0.5-1.2,0.5-2.1v-0.4c0-1-0.1-1.8-0.4-2.4c-0.3-0.6-0.8-0.8-1.6-0.8c-0.5,0-1,0.3-1.4,0.8s-0.5,1.4-0.5,2.5
			s0.2,1.9,0.5,2.4S225.2,36,225.8,36L225.8,36z"/>
		<path class="st5" d="M248.1,26.1v13.3h-3.5l-0.6-1.7h-0.3c-0.4,0.7-1,1.2-1.7,1.5c-0.7,0.3-1.5,0.4-2.3,0.4
			c-0.9,0-1.6-0.2-2.4-0.5s-1.3-0.9-1.7-1.6s-0.6-1.7-0.6-2.8v-8.6h4.6v7.2c0,0.9,0.1,1.5,0.4,2s0.6,0.7,1.2,0.7
			c0.9,0,1.4-0.3,1.7-1.1s0.4-1.7,0.4-3v-5.8H248.1L248.1,26.1z"/>
		<path class="st5" d="M257.8,36c0.4,0,0.8,0,1.1-0.1c0.3-0.1,0.7-0.2,1.1-0.3v3.3c-0.5,0.2-1,0.4-1.6,0.5c-0.6,0.1-1.3,0.2-2.1,0.2
			s-1.6-0.1-2.3-0.4c-0.6-0.3-1.2-0.7-1.5-1.4c-0.4-0.7-0.6-1.6-0.6-2.8v-5.5h-1.6v-1.9l2-1.4l1.2-2.8h3v2.7h3.3v3.4h-3.3v5.2
			C256.6,35.6,257,36,257.8,36L257.8,36z"/>
		<path class="st5" d="M275,32.7c0,2.2-0.6,3.9-1.8,5.1c-1.2,1.2-2.8,1.8-4.9,1.8c-1.3,0-2.4-0.3-3.4-0.8c-1-0.5-1.8-1.3-2.3-2.3
			s-0.9-2.3-0.9-3.8c0-2.2,0.6-3.9,1.8-5.1c1.2-1.2,2.8-1.8,4.9-1.8c1.3,0,2.4,0.3,3.4,0.8c1,0.5,1.8,1.3,2.3,2.3
			C274.7,30,275,31.3,275,32.7L275,32.7z M266.4,32.7c0,1.1,0.1,2,0.5,2.6c0.3,0.6,0.8,0.9,1.5,0.9s1.2-0.3,1.5-0.9s0.4-1.5,0.4-2.6
			s-0.1-2-0.4-2.6c-0.3-0.6-0.8-0.9-1.5-0.9s-1.2,0.3-1.5,0.9C266.6,30.7,266.4,31.6,266.4,32.7L266.4,32.7z"/>
		<path class="st5" d="M292,25.9c1.5,0,2.6,0.6,3.5,1.8c0.8,1.2,1.2,2.9,1.2,5.1c0,1.5-0.2,2.8-0.6,3.8c-0.4,1-1,1.8-1.7,2.3
			s-1.6,0.8-2.5,0.8s-1.6-0.2-2.2-0.5c-0.5-0.3-0.9-0.7-1.2-1h-0.1c0,0.3,0.1,0.6,0.1,1c0,0.3,0,0.8,0,1.2v4.8h-4.6v-19h3.7l0.6,1.7
			h0.2c0.3-0.5,0.8-1,1.3-1.3C290.3,26.1,291.1,25.9,292,25.9L292,25.9z M290.3,29.5c-0.7,0-1.1,0.2-1.4,0.7s-0.4,1.2-0.4,2.1v0.4
			c0,1.1,0.1,1.9,0.4,2.4c0.3,0.5,0.7,0.8,1.4,0.8c0.6,0,1-0.2,1.3-0.8s0.4-1.3,0.4-2.5s-0.1-2-0.5-2.5
			C291.3,29.7,290.8,29.5,290.3,29.5L290.3,29.5z"/>
		<path class="st5" d="M305.8,25.9c1.7,0,3,0.4,3.9,1.2c0.9,0.8,1.4,2,1.4,3.5v8.7H308l-0.9-1.8H307c-0.4,0.5-0.8,0.8-1.1,1.1
			s-0.8,0.5-1.4,0.7s-1.1,0.2-1.9,0.2c-1.1,0-2.1-0.3-2.9-1.1c-0.8-0.7-1.1-1.8-1.1-3.2s0.5-2.5,1.5-3.2c1-0.7,2.4-1.1,4.3-1.1
			l2.2-0.1v-0.2c0-0.6-0.1-1-0.4-1.3s-0.7-0.4-1.2-0.4c-0.5,0-1.1,0.1-1.8,0.3c-0.6,0.2-1.3,0.4-1.9,0.7l-1.3-3
			c0.8-0.4,1.6-0.7,2.6-0.9S304.6,25.9,305.8,25.9L305.8,25.9z M305.5,33.5c-0.8,0-1.4,0.2-1.8,0.4s-0.5,0.6-0.5,1.1
			c0,0.5,0.1,0.8,0.4,1s0.6,0.3,1,0.3c0.6,0,1-0.2,1.4-0.5s0.6-0.8,0.6-1.4v-1L305.5,33.5L305.5,33.5z"/>
		<path class="st5" d="M322.3,25.9c0.3,0,0.5,0,0.8,0s0.5,0.1,0.6,0.1l-0.4,4.3c-0.2,0-0.4-0.1-0.6-0.1c-0.2,0-0.6,0-1,0
			c-0.4,0-0.8,0.1-1.2,0.2s-0.8,0.4-1.1,0.7s-0.5,1-0.5,1.8v6.5h-4.6V26.1h3.4l0.7,2.1h0.2c0.4-0.7,0.9-1.2,1.5-1.7
			S321.5,25.9,322.3,25.9z"/>
		<path class="st5" d="M331.5,25.9c1.7,0,3,0.4,3.9,1.2c0.9,0.8,1.4,2,1.4,3.5v8.7h-3.2l-0.9-1.8h-0.1c-0.4,0.5-0.8,0.8-1.1,1.1
			s-0.8,0.5-1.4,0.7c-0.5,0.1-1.1,0.2-1.9,0.2c-1.1,0-2.1-0.3-2.9-1.1c-0.8-0.7-1.1-1.8-1.1-3.2s0.5-2.5,1.5-3.2
			c1-0.7,2.4-1.1,4.3-1.1l2.2-0.1v-0.2c0-0.6-0.1-1-0.4-1.3s-0.7-0.4-1.2-0.4c-0.5,0-1.1,0.1-1.8,0.3c-0.6,0.2-1.3,0.4-1.9,0.7
			l-1.3-3c0.8-0.4,1.6-0.7,2.6-0.9C329.2,26,330.3,25.9,331.5,25.9L331.5,25.9z M331.3,33.5c-0.8,0-1.4,0.2-1.8,0.4
			s-0.5,0.6-0.5,1.1c0,0.5,0.1,0.8,0.4,1s0.6,0.3,1,0.3c0.6,0,1-0.2,1.4-0.5c0.4-0.3,0.6-0.8,0.6-1.4v-1L331.3,33.5L331.3,33.5z"/>
		<path class="st5" d="M358.9,32.7c0,2.2-0.6,3.9-1.8,5.1c-1.2,1.2-2.8,1.8-4.9,1.8c-1.3,0-2.4-0.3-3.4-0.8s-1.8-1.3-2.3-2.3
			s-0.9-2.3-0.9-3.8c0-2.2,0.6-3.9,1.8-5.1c1.2-1.2,2.8-1.8,4.9-1.8c1.3,0,2.4,0.3,3.4,0.8c1,0.5,1.8,1.3,2.3,2.3
			C358.6,30,358.9,31.3,358.9,32.7L358.9,32.7z M350.3,32.7c0,1.1,0.1,2,0.5,2.6s0.8,0.9,1.5,0.9s1.2-0.3,1.5-0.9s0.4-1.5,0.4-2.6
			s-0.1-2-0.4-2.6c-0.3-0.6-0.8-0.9-1.5-0.9s-1.2,0.3-1.5,0.9C350.5,30.7,350.3,31.6,350.3,32.7L350.3,32.7z"/>
		<path class="st5" d="M366.1,25.3c0,0.5,0,0.9,0,1.3s-0.1,0.8-0.1,1.2h0.2c0.3-0.5,0.8-1,1.3-1.4s1.3-0.6,2.2-0.6
			c1.4,0,2.5,0.6,3.4,1.8s1.3,2.9,1.3,5.1s-0.5,4-1.3,5.2c-0.9,1.2-2.1,1.8-3.5,1.8c-0.9,0-1.6-0.2-2.1-0.5s-0.9-0.7-1.2-1h-0.3
			l-0.7,1.3h-3.6V21.2h4.6L366.1,25.3L366.1,25.3z M368,29.5c-0.6,0-1.1,0.2-1.4,0.7c-0.3,0.5-0.4,1.1-0.4,2.1v0.7
			c0,1,0.1,1.8,0.4,2.3s0.8,0.8,1.5,0.8c1.1,0,1.7-1.1,1.7-3.3S369.1,29.5,368,29.5L368,29.5z"/>
		<path class="st5" d="M383.5,36c0.4,0,0.8,0,1.1-0.1c0.3-0.1,0.7-0.2,1.1-0.3v3.3c-0.5,0.2-1,0.4-1.6,0.5c-0.6,0.1-1.3,0.2-2.1,0.2
			s-1.6-0.1-2.3-0.4s-1.2-0.7-1.5-1.4s-0.5-1.6-0.5-2.8v-5.5H376v-1.9l2-1.4l1.2-2.8h3v2.7h3.3v3.4h-3.3v5.2
			C382.2,35.6,382.6,36,383.5,36L383.5,36z"/>
		<path class="st5" d="M394,25.9c1.9,0,3.5,0.5,4.6,1.5s1.7,2.5,1.7,4.6v2H392c0,0.7,0.3,1.3,0.8,1.7s1.2,0.7,2.1,0.7
			c0.8,0,1.6-0.1,2.3-0.2s1.4-0.4,2.1-0.8v3.3c-0.6,0.3-1.3,0.6-2.1,0.7s-1.7,0.2-2.9,0.2c-1.3,0-2.5-0.2-3.6-0.7
			c-1-0.5-1.9-1.2-2.5-2.2s-0.9-2.3-0.9-3.9s0.3-2.9,0.8-3.9c0.5-1,1.3-1.8,2.3-2.3C391.5,26.1,392.7,25.9,394,25.9L394,25.9z
			 M394.1,29c-0.5,0-1,0.2-1.4,0.5c-0.4,0.3-0.6,0.9-0.6,1.6h3.9c0-0.6-0.2-1.1-0.5-1.5S394.8,29,394.1,29L394.1,29z"/>
		<path class="st5" d="M410.8,25.9c0.3,0,0.5,0,0.8,0c0.3,0,0.5,0.1,0.6,0.1l-0.4,4.3c-0.2,0-0.4-0.1-0.6-0.1c-0.2,0-0.6,0-1,0
			c-0.4,0-0.8,0.1-1.2,0.2s-0.8,0.4-1.1,0.7c-0.3,0.4-0.5,1-0.5,1.8v6.5h-4.6V26.1h3.4l0.7,2.1h0.2c0.4-0.7,0.9-1.2,1.5-1.7
			C409.4,26.1,410.1,25.9,410.8,25.9z"/>
		<path class="st5" d="M433,32.7c0,2.2-0.6,3.9-1.8,5.1c-1.2,1.2-2.8,1.8-4.9,1.8c-1.3,0-2.4-0.3-3.4-0.8c-1-0.5-1.8-1.3-2.3-2.3
			s-0.9-2.3-0.9-3.8c0-2.2,0.6-3.9,1.8-5.1c1.2-1.2,2.8-1.8,4.9-1.8c1.3,0,2.4,0.3,3.4,0.8c1,0.5,1.8,1.3,2.3,2.3
			C432.7,30,433,31.3,433,32.7L433,32.7z M424.4,32.7c0,1.1,0.1,2,0.5,2.6c0.3,0.6,0.8,0.9,1.5,0.9s1.2-0.3,1.5-0.9s0.4-1.5,0.4-2.6
			s-0.1-2-0.4-2.6c-0.3-0.6-0.8-0.9-1.5-0.9s-1.2,0.3-1.5,0.9C424.6,30.7,424.4,31.6,424.4,32.7L424.4,32.7z"/>
		<path class="st5" d="M89.4,54.7c0.3,0,0.5,0,0.8,0c0.3,0,0.5,0.1,0.6,0.1l-0.4,4.3c-0.2,0-0.4-0.1-0.6-0.1c-0.2,0-0.6,0-1,0
			c-0.4,0-0.8,0.1-1.2,0.2c-0.4,0.1-0.8,0.4-1.1,0.7c-0.3,0.4-0.5,1-0.5,1.8v6.5h-4.6V54.9h3.4l0.7,2.1h0.2c0.4-0.7,0.9-1.2,1.6-1.7
			C87.9,54.9,88.6,54.7,89.4,54.7z"/>
		<path class="st5" d="M98.1,54.7c1.9,0,3.5,0.5,4.6,1.5s1.7,2.5,1.7,4.6v2h-8.2c0,0.7,0.3,1.3,0.8,1.7c0.5,0.4,1.2,0.7,2.1,0.7
			c0.8,0,1.6-0.1,2.3-0.2c0.7-0.2,1.4-0.4,2.1-0.8v3.3c-0.6,0.3-1.3,0.6-2.1,0.7s-1.7,0.2-2.9,0.2c-1.3,0-2.5-0.2-3.6-0.7
			c-1.1-0.5-1.9-1.2-2.5-2.2c-0.6-1-0.9-2.3-0.9-3.9s0.3-2.9,0.8-3.9c0.6-1,1.3-1.8,2.3-2.3S96.8,54.7,98.1,54.7L98.1,54.7z
			 M98.3,57.8c-0.5,0-1,0.2-1.4,0.5c-0.4,0.3-0.6,0.9-0.6,1.6h3.9c0-0.6-0.2-1.1-0.5-1.5C99.4,58,98.9,57.8,98.3,57.8L98.3,57.8z"/>
		<path class="st5" d="M111.2,54.7c0.9,0,1.7,0.2,2.2,0.5c0.6,0.4,1,0.8,1.4,1.3h0.1l0.3-1.6h4v13.3c0,1.9-0.6,3.3-1.7,4.3
			s-2.9,1.5-5.3,1.5c-1.1,0-2-0.1-2.8-0.2s-1.6-0.3-2.3-0.6v-3.8c0.8,0.3,1.6,0.6,2.3,0.8c0.7,0.2,1.6,0.2,2.6,0.2
			c1.8,0,2.8-0.7,2.8-2v-0.2c0-0.5,0.1-1,0.1-1.7h-0.1c-0.3,0.5-0.7,1-1.3,1.4c-0.6,0.4-1.3,0.6-2.2,0.6c-1.4,0-2.6-0.6-3.4-1.8
			s-1.3-2.9-1.3-5.1s0.4-4,1.3-5.1C108.6,55.3,109.8,54.7,111.2,54.7z M112.9,58.2c-1.3,0-1.9,1.1-1.9,3.4c0,1.2,0.2,2,0.5,2.5
			s0.8,0.8,1.5,0.8c0.8,0,1.3-0.2,1.6-0.7s0.4-1.2,0.4-2.1v-0.5c0-1-0.1-1.8-0.4-2.4S113.8,58.3,112.9,58.2L112.9,58.2z"/>
		<path class="st5" d="M124.7,49.6c0.7,0,1.2,0.1,1.7,0.4s0.7,0.8,0.7,1.6s-0.2,1.3-0.7,1.6c-0.5,0.3-1.1,0.4-1.7,0.4
			s-1.2-0.1-1.7-0.4s-0.7-0.8-0.7-1.6s0.2-1.4,0.7-1.6S124,49.6,124.7,49.6z M127,54.9v13.3h-4.6V54.9C122.4,54.9,127,54.9,127,54.9
			z"/>
		<path class="st5" d="M140.1,64.1c0,0.8-0.2,1.6-0.6,2.2c-0.4,0.7-1,1.2-1.8,1.5s-1.9,0.6-3.2,0.6c-0.9,0-1.8-0.1-2.5-0.2
			c-0.7-0.1-1.5-0.3-2.3-0.6V64c0.9,0.4,1.7,0.7,2.6,0.8c0.9,0.2,1.5,0.2,2,0.2c1,0,1.5-0.2,1.5-0.7c0-0.2-0.1-0.4-0.2-0.5
			s-0.4-0.3-0.9-0.5s-1-0.4-1.7-0.7c-1.1-0.5-1.9-1-2.5-1.6c-0.5-0.6-0.8-1.4-0.8-2.5c0-1.3,0.5-2.3,1.5-2.9s2.3-1,4-1
			c0.9,0,1.7,0.1,2.5,0.3s1.6,0.5,2.4,0.8l-1.2,3c-0.7-0.3-1.3-0.5-2-0.7s-1.2-0.3-1.6-0.3c-0.8,0-1.1,0.2-1.1,0.5
			c0,0.2,0.1,0.3,0.2,0.4c0.1,0.1,0.4,0.3,0.8,0.4s0.9,0.4,1.7,0.7c0.8,0.3,1.4,0.6,1.9,1c0.5,0.4,0.9,0.8,1.1,1.3
			C139.9,62.7,140.1,63.4,140.1,64.1L140.1,64.1z"/>
		<path class="st5" d="M149.1,64.8c0.4,0,0.8,0,1.1-0.1s0.7-0.2,1.1-0.3v3.3c-0.5,0.2-1,0.4-1.6,0.5s-1.3,0.2-2.1,0.2
			s-1.6-0.1-2.3-0.4s-1.2-0.7-1.5-1.4c-0.4-0.7-0.6-1.6-0.6-2.8v-5.5h-1.6v-1.9l2-1.4l1.2-2.8h3v2.7h3.3v3.4h-3.3v5.2
			C147.9,64.4,148.3,64.8,149.1,64.8L149.1,64.8z"/>
		<path class="st5" d="M161.7,54.7c0.3,0,0.5,0,0.8,0c0.3,0,0.5,0.1,0.6,0.1l-0.4,4.3c-0.2,0-0.4-0.1-0.6-0.1c-0.2,0-0.6,0-1,0
			c-0.4,0-0.8,0.1-1.2,0.2c-0.4,0.1-0.8,0.4-1.1,0.7c-0.3,0.4-0.5,1-0.5,1.8v6.5h-4.6V54.9h3.4l0.7,2.1h0.2c0.4-0.7,0.9-1.2,1.6-1.7
			C160.2,54.9,160.9,54.7,161.7,54.7z"/>
		<path class="st5" d="M177.1,61.5c0,2.2-0.6,3.9-1.8,5.1s-2.8,1.8-4.9,1.8c-1.3,0-2.4-0.3-3.4-0.8c-1-0.5-1.8-1.3-2.3-2.3
			s-0.9-2.3-0.9-3.8c0-2.2,0.6-3.9,1.8-5.1c1.2-1.2,2.8-1.8,4.9-1.8c1.3,0,2.4,0.3,3.4,0.8c1,0.5,1.8,1.3,2.3,2.3
			S177.1,60.1,177.1,61.5L177.1,61.5z M168.5,61.5c0,1.1,0.1,2,0.5,2.6c0.3,0.6,0.8,0.9,1.5,0.9s1.2-0.3,1.5-0.9s0.4-1.5,0.4-2.6
			s-0.1-2-0.4-2.6c-0.3-0.6-0.8-0.9-1.5-0.9s-1.2,0.3-1.5,0.9C168.7,59.5,168.5,60.4,168.5,61.5L168.5,61.5z"/>
		<path class="st5" d="M190.1,68.4c-1.4,0-2.5-0.6-3.4-1.8s-1.3-2.9-1.3-5.1s0.4-4,1.4-5.2c0.9-1.2,2.1-1.7,3.5-1.7
			c0.9,0,1.6,0.2,2.1,0.5s1,0.8,1.3,1.4h0.1c-0.1-0.3-0.1-0.8-0.2-1.4c0-0.6-0.1-1.2-0.1-1.7V50h4.6v18.2h-3.5l-1-1.7h-0.2
			c-0.3,0.5-0.8,1-1.3,1.4C191.7,68.3,191,68.4,190.1,68.4L190.1,68.4z M191.9,64.8c0.7,0,1.3-0.2,1.6-0.7c0.3-0.5,0.5-1.2,0.5-2.1
			v-0.4c0-1-0.1-1.8-0.4-2.4c-0.3-0.6-0.8-0.8-1.6-0.8c-0.5,0-1,0.3-1.4,0.8c-0.4,0.5-0.5,1.3-0.5,2.5s0.2,1.9,0.5,2.4
			S191.4,64.8,191.9,64.8L191.9,64.8z"/>
		<path class="st5" d="M207.4,54.7c1.9,0,3.5,0.5,4.6,1.5s1.7,2.5,1.7,4.6v2h-8.2c0,0.7,0.3,1.3,0.8,1.7c0.5,0.4,1.2,0.7,2.1,0.7
			c0.8,0,1.6-0.1,2.3-0.2c0.7-0.2,1.4-0.4,2.1-0.8v3.3c-0.6,0.3-1.3,0.6-2.1,0.7s-1.7,0.2-2.9,0.2c-1.3,0-2.5-0.2-3.6-0.7
			s-1.9-1.2-2.5-2.2c-0.6-1-0.9-2.3-0.9-3.9s0.3-2.9,0.8-3.9c0.6-1,1.3-1.8,2.3-2.3S206,54.7,207.4,54.7L207.4,54.7z M207.5,57.8
			c-0.5,0-1,0.2-1.4,0.5c-0.4,0.3-0.6,0.9-0.6,1.6h3.9c0-0.6-0.2-1.1-0.5-1.5S208.1,57.8,207.5,57.8L207.5,57.8z"/>
		<path class="st5" d="M228.5,68.4c-2,0-3.6-0.5-4.8-1.6c-1.2-1.1-1.8-2.8-1.8-5.2c0-1.6,0.3-2.9,0.9-4s1.4-1.8,2.5-2.3
			c1.1-0.5,2.2-0.7,3.6-0.7c0.8,0,1.6,0.1,2.3,0.3c0.7,0.2,1.4,0.4,2,0.7l-1.3,3.4c-0.5-0.2-1.1-0.4-1.5-0.6c-0.5-0.1-1-0.2-1.5-0.2
			c-0.7,0-1.2,0.3-1.7,0.8c-0.4,0.5-0.6,1.4-0.6,2.5s0.2,2,0.7,2.5s1,0.7,1.7,0.7s1.3-0.1,2-0.3c0.7-0.2,1.3-0.5,1.9-0.9v3.7
			c-0.5,0.3-1.2,0.6-1.9,0.8C230.2,68.3,229.4,68.4,228.5,68.4L228.5,68.4z"/>
		<path class="st5" d="M248.1,61.5c0,2.2-0.6,3.9-1.8,5.1s-2.8,1.8-4.9,1.8c-1.3,0-2.4-0.3-3.4-0.8c-1-0.5-1.8-1.3-2.3-2.3
			s-0.9-2.3-0.9-3.8c0-2.2,0.6-3.9,1.8-5.1c1.2-1.2,2.8-1.8,4.9-1.8c1.3,0,2.4,0.3,3.4,0.8c1,0.5,1.8,1.3,2.3,2.3
			S248.1,60.1,248.1,61.5L248.1,61.5z M239.5,61.5c0,1.1,0.1,2,0.5,2.6c0.3,0.6,0.8,0.9,1.5,0.9s1.2-0.3,1.5-0.9s0.4-1.5,0.4-2.6
			s-0.1-2-0.4-2.6c-0.3-0.6-0.8-0.9-1.5-0.9s-1.2,0.3-1.5,0.9C239.6,59.5,239.5,60.4,239.5,61.5L239.5,61.5z"/>
		<path class="st5" d="M266.9,54.7c1.5,0,2.7,0.4,3.5,1.2c0.8,0.8,1.2,2,1.2,3.7v8.6H267V61c0-1-0.1-1.7-0.4-2.1s-0.7-0.6-1.2-0.6
			c-0.7,0-1.2,0.3-1.5,1s-0.4,1.6-0.4,2.8v6.2h-4.6V61c0-1-0.1-1.7-0.4-2.1c-0.3-0.4-0.6-0.6-1.1-0.6c-0.8,0-1.3,0.3-1.6,1.1
			c-0.3,0.7-0.4,1.7-0.4,3v5.8h-4.6V55h3.5l0.7,1.6h0.1c0.4-0.5,0.9-1,1.5-1.3c0.7-0.3,1.5-0.5,2.5-0.5s1.8,0.2,2.4,0.5
			s1.1,0.8,1.5,1.4h0.1c0.4-0.6,1-1,1.6-1.4S266,54.7,266.9,54.7L266.9,54.7z"/>
		<path class="st5" d="M280.6,54.7c1.9,0,3.5,0.5,4.6,1.5s1.7,2.5,1.7,4.6v2h-8.2c0,0.7,0.3,1.3,0.8,1.7s1.2,0.7,2.1,0.7
			c0.8,0,1.6-0.1,2.3-0.2c0.7-0.2,1.4-0.4,2.1-0.8v3.3c-0.6,0.3-1.3,0.6-2.1,0.7s-1.7,0.2-2.9,0.2c-1.3,0-2.5-0.2-3.6-0.7
			s-1.9-1.2-2.5-2.2s-0.9-2.3-0.9-3.9s0.3-2.9,0.8-3.9c0.5-1,1.3-1.8,2.3-2.3C278.2,54.9,279.3,54.7,280.6,54.7L280.6,54.7z
			 M280.8,57.8c-0.5,0-1,0.2-1.4,0.5c-0.4,0.3-0.6,0.9-0.6,1.6h3.9c0-0.6-0.2-1.1-0.5-1.5S281.4,57.8,280.8,57.8L280.8,57.8z"/>
		<path class="st5" d="M297.5,54.7c0.3,0,0.5,0,0.8,0c0.3,0,0.5,0.1,0.6,0.1l-0.4,4.3c-0.2,0-0.4-0.1-0.6-0.1c-0.2,0-0.6,0-1,0
			c-0.4,0-0.8,0.1-1.2,0.2s-0.8,0.4-1.1,0.7c-0.3,0.4-0.5,1-0.5,1.8v6.5h-4.6V54.9h3.4l0.7,2.1h0.2c0.4-0.7,0.9-1.2,1.5-1.7
			C296.1,54.9,296.8,54.7,297.5,54.7z"/>
		<path class="st5" d="M306.3,68.4c-2,0-3.6-0.5-4.8-1.6s-1.8-2.8-1.8-5.2c0-1.6,0.3-2.9,0.9-4c0.6-1,1.4-1.8,2.5-2.3
			c1-0.5,2.2-0.7,3.6-0.7c0.8,0,1.6,0.1,2.3,0.3c0.7,0.2,1.4,0.4,2,0.7l-1.3,3.4c-0.5-0.2-1-0.4-1.5-0.6s-1-0.2-1.5-0.2
			c-0.7,0-1.2,0.3-1.7,0.8c-0.4,0.5-0.6,1.4-0.6,2.5s0.2,2,0.7,2.5s1,0.7,1.7,0.7s1.3-0.1,2-0.3s1.3-0.5,1.9-0.9v3.7
			c-0.5,0.3-1.2,0.6-1.9,0.8C308,68.3,307.2,68.4,306.3,68.4L306.3,68.4z"/>
		<path class="st5" d="M315.5,49.6c0.7,0,1.2,0.1,1.7,0.4s0.7,0.8,0.7,1.6s-0.2,1.3-0.7,1.6c-0.5,0.3-1.1,0.4-1.7,0.4
			s-1.2-0.1-1.7-0.4c-0.5-0.3-0.7-0.8-0.7-1.6s0.2-1.4,0.7-1.6S314.9,49.6,315.5,49.6z M317.8,54.9v13.3h-4.6V54.9
			C313.2,54.9,317.8,54.9,317.8,54.9z"/>
		<path class="st5" d="M327.5,54.7c1.7,0,3,0.4,3.9,1.2c0.9,0.8,1.4,2,1.4,3.5v8.7h-3.2l-0.9-1.8h-0.1c-0.4,0.5-0.8,0.8-1.1,1.1
			s-0.8,0.5-1.4,0.7s-1.1,0.2-1.9,0.2c-1.1,0-2.1-0.3-2.9-1.1c-0.8-0.7-1.1-1.8-1.1-3.2s0.5-2.5,1.5-3.2c1-0.7,2.4-1.1,4.3-1.2
			l2.2-0.1v-0.2c0-0.6-0.1-1-0.4-1.3s-0.7-0.4-1.2-0.4c-0.5,0-1.1,0.1-1.8,0.3c-0.6,0.2-1.3,0.4-1.9,0.7l-1.3-3
			c0.8-0.4,1.6-0.7,2.6-0.9S326.3,54.7,327.5,54.7L327.5,54.7z M327.2,62.3c-0.8,0-1.4,0.2-1.8,0.4s-0.5,0.6-0.5,1.1
			c0,0.4,0.1,0.8,0.4,1s0.6,0.3,1,0.3c0.6,0,1-0.2,1.4-0.5s0.6-0.8,0.6-1.4v-1L327.2,62.3L327.2,62.3z"/>
		<path class="st5" d="M340.5,68.2H336V50h4.6V68.2z"/>
		<path class="st5" d="M346,49.6c0.7,0,1.2,0.1,1.7,0.4s0.7,0.8,0.7,1.6s-0.2,1.3-0.7,1.6c-0.5,0.3-1.1,0.4-1.7,0.4
			s-1.2-0.1-1.7-0.4c-0.5-0.3-0.7-0.8-0.7-1.6s0.2-1.4,0.7-1.6S345.4,49.6,346,49.6z M348.3,54.9v13.3h-4.6V54.9
			C343.8,54.9,348.3,54.9,348.3,54.9z"/>
		<path class="st5" d="M361.5,68.2h-11v-2.6l5.5-7.2h-5.2v-3.5h10.4v2.8l-5.3,6.9h5.5L361.5,68.2L361.5,68.2z"/>
		<path class="st5" d="M370.2,54.7c1.7,0,3,0.4,3.9,1.2c0.9,0.8,1.4,2,1.4,3.5v8.7h-3.2l-0.9-1.8h-0.1c-0.4,0.5-0.8,0.8-1.1,1.1
			s-0.8,0.5-1.4,0.7s-1.1,0.2-1.9,0.2c-1.1,0-2.1-0.3-2.9-1.1c-0.8-0.7-1.1-1.8-1.1-3.2s0.5-2.5,1.5-3.2c1-0.7,2.4-1.1,4.3-1.2
			l2.2-0.1v-0.2c0-0.6-0.1-1-0.4-1.3s-0.7-0.4-1.2-0.4c-0.5,0-1.1,0.1-1.8,0.3c-0.6,0.2-1.3,0.4-1.9,0.7l-1.3-3
			c0.8-0.4,1.6-0.7,2.6-0.9S369,54.7,370.2,54.7L370.2,54.7z M369.9,62.3c-0.8,0-1.4,0.2-1.8,0.4s-0.5,0.6-0.5,1.1
			c0,0.4,0.1,0.8,0.4,1s0.6,0.3,1,0.3c0.6,0,1-0.2,1.4-0.5s0.6-0.8,0.6-1.4v-1L369.9,62.3L369.9,62.3z"/>
		<path class="st5" d="M384.7,68.4c-2,0-3.6-0.5-4.8-1.6s-1.8-2.8-1.8-5.2c0-1.6,0.3-2.9,0.9-4c0.6-1,1.4-1.8,2.5-2.3
			c1-0.5,2.2-0.7,3.6-0.7c0.8,0,1.6,0.1,2.3,0.3c0.7,0.2,1.4,0.4,2,0.7l-1.3,3.4c-0.5-0.2-1-0.4-1.5-0.6s-1-0.2-1.5-0.2
			c-0.7,0-1.2,0.3-1.7,0.8c-0.4,0.5-0.6,1.4-0.6,2.5s0.2,2,0.7,2.5s1,0.7,1.7,0.7s1.3-0.1,2-0.3s1.3-0.5,1.9-0.9v3.7
			c-0.5,0.3-1.2,0.6-1.9,0.8C386.4,68.3,385.6,68.4,384.7,68.4L384.7,68.4z M387.4,71.2c0,0.8-0.3,1.5-0.9,2
			c-0.6,0.5-1.4,0.8-2.3,0.8c-0.5,0-1,0-1.5-0.1c-0.5-0.1-0.8-0.2-1.1-0.3v-2.3c0.3,0.1,0.5,0.1,0.8,0.2s0.5,0.1,0.8,0.1
			c0.6,0,1-0.2,1-0.7c0-0.3-0.1-0.5-0.4-0.7c-0.3-0.2-0.7-0.3-1.3-0.4l0.7-1.6h2.3l-0.2,0.7c0.3,0.1,0.6,0.2,1,0.3
			c0.3,0.2,0.6,0.4,0.9,0.7C387.2,70.2,387.4,70.6,387.4,71.2L387.4,71.2z"/>
		<path class="st5" d="M398,54.7c1.7,0,3,0.4,3.9,1.2c0.9,0.8,1.4,2,1.4,3.5v8.7h-3.2l-0.9-1.8h-0.1c-0.4,0.5-0.8,0.8-1.1,1.1
			s-0.8,0.5-1.4,0.7s-1.1,0.2-1.9,0.2c-1.1,0-2.1-0.3-2.9-1.1c-0.8-0.7-1.1-1.8-1.1-3.2s0.5-2.5,1.5-3.2c1-0.7,2.4-1.1,4.3-1.2
			l2.2-0.1v-0.2c0-0.6-0.1-1-0.4-1.3s-0.7-0.4-1.2-0.4c-0.5,0-1.1,0.1-1.8,0.3c-0.6,0.2-1.3,0.4-1.9,0.7l-1.3-3
			c0.8-0.4,1.6-0.7,2.6-0.9S396.8,54.7,398,54.7L398,54.7z M392.5,53.7c0.1-1.5,0.4-2.5,0.9-3.1s1.2-0.9,2-0.9
			c0.4,0,0.8,0.1,1.3,0.3c0.5,0.2,0.9,0.4,1.4,0.6s0.9,0.3,1.3,0.3c0.1,0,0.3-0.1,0.5-0.2c0.2-0.1,0.3-0.5,0.4-1h2.1
			c-0.1,1.4-0.4,2.5-0.9,3.1c-0.5,0.6-1.2,0.9-1.9,0.9c-0.5,0-0.9-0.1-1.4-0.3s-0.9-0.4-1.4-0.6s-0.9-0.3-1.3-0.3
			c-0.1,0-0.3,0.1-0.5,0.2c-0.2,0.1-0.3,0.5-0.4,1L392.5,53.7L392.5,53.7z M397.8,62.3c-0.8,0-1.4,0.2-1.8,0.4s-0.5,0.6-0.5,1.1
			c0,0.5,0.1,0.8,0.4,1s0.6,0.3,1,0.3c0.6,0,1-0.2,1.4-0.5s0.6-0.8,0.6-1.4v-1L397.8,62.3L397.8,62.3z"/>
		<path class="st5" d="M419.2,61.5c0,2.2-0.6,3.9-1.8,5.1c-1.2,1.2-2.8,1.8-4.9,1.8c-1.3,0-2.4-0.3-3.4-0.8c-1-0.5-1.8-1.3-2.3-2.3
			S406,63,406,61.5c0-2.2,0.6-3.9,1.8-5.1c1.2-1.2,2.8-1.8,4.9-1.8c1.3,0,2.4,0.3,3.4,0.8c1,0.5,1.8,1.3,2.3,2.3
			C418.9,58.8,419.2,60.1,419.2,61.5L419.2,61.5z M410.6,61.5c0,1.1,0.1,2,0.5,2.6c0.3,0.6,0.8,0.9,1.5,0.9s1.2-0.3,1.5-0.9
			s0.4-1.5,0.4-2.6s-0.1-2-0.4-2.6c-0.3-0.6-0.8-0.9-1.5-0.9s-1.2,0.3-1.5,0.9C410.8,59.5,410.6,60.4,410.6,61.5L410.6,61.5z"/>
	</g>
</g>
</svg>
