<?xml version="1.0" encoding="UTF-8"?>
<svg id="OBJECTS" xmlns="http://www.w3.org/2000/svg" viewBox="0 0 500 500">
  <defs>
    <style>
      .cls-1 {
        fill: #005fcc;
      }

      .cls-2 {
        fill: #f0f3f4;
      }

      .cls-3 {
        fill: #333;
      }

      .cls-4 {
        fill: #3392ff;
      }

      .cls-5 {
        fill: #fafcff;
      }

      .cls-6 {
        fill: #004799;
      }

      .cls-7 {
        fill: #c70596;
      }

      .cls-8 {
        fill: #e8edef;
      }

      .cls-9 {
        fill: #f57a3d;
      }

      .cls-10 {
        fill: #07f;
      }
    </style>
  </defs>
  <path id="vertical-line" class="cls-9" d="m53.22,15.38c-2.82,0-5.1,2.29-5.1,5.1v450.09c0,1.41.58,2.68,1.5,3.6,1.02,1.03,2.46,1.61,4.03,1.48,2.69-.22,4.68-2.63,4.68-5.32V20.48c0-2.82-2.29-5.1-5.1-5.1Z"/>
  <g>
    <g id="fase4">
      <g id="label">
        <path id="label-base" class="cls-8" d="m140.8,376.75h269.1c22.67,0,41.07,18.4,41.07,41.07h0c0,22.67-18.4,41.07-41.07,41.07H140.8v-82.14h0Z"/>
        <g>
          <path class="cls-4" d="m208.54,413.08l-4.09-11.05-1.14-.14v-1.54h5.06v1.54l-1.15.17,2.5,7.51.19.7h.05l.18-.68,2.5-7.52-1.34-.17v-1.54h4.82v1.54l-1.15.14-3.84,11.05h-2.61Z"/>
          <path class="cls-4" d="m216.9,413.08v-1.53l1.23-.26v-5.86l-1.36-.26v-1.54h3.92v7.66l1.22.26v1.53h-5.01Zm1.14-11.46v-2.18h2.64v2.18h-2.64Z"/>
          <path class="cls-4" d="m226.93,416.9c-.48,0-1.01-.06-1.61-.18s-1.12-.3-1.57-.52l.47-1.82c.41.17.84.31,1.3.42.46.1.88.15,1.28.15.68,0,1.18-.19,1.5-.57.32-.38.48-.91.48-1.58v-.62c-.28.36-.61.63-.99.81-.38.19-.81.28-1.3.28-.77,0-1.43-.19-1.98-.58-.55-.39-.98-.93-1.27-1.63s-.44-1.51-.44-2.44v-.18c0-1,.15-1.87.44-2.61.29-.75.71-1.33,1.25-1.74.54-.42,1.19-.62,1.95-.62.56,0,1.05.12,1.46.35.41.24.75.57,1.04,1.01l.18-1.19h2.22v9.18c0,.83-.18,1.56-.53,2.17s-.86,1.09-1.52,1.42c-.66.34-1.45.51-2.36.51Zm.27-5.62c.36,0,.67-.07.94-.21s.47-.35.64-.62v-4.11c-.16-.29-.38-.51-.64-.66s-.57-.24-.92-.24c-.44,0-.79.13-1.07.38-.27.25-.47.6-.6,1.05-.13.45-.19.97-.19,1.57v.18c0,.83.14,1.48.43,1.95.29.47.76.71,1.42.71Zm3.81-5.81l-1.11-1.84h2.54v1.54l-1.43.31Z"/>
          <path class="cls-4" d="m233.15,413.08v-1.53l1.23-.26v-5.86l-1.36-.26v-1.54h3.92v7.66l1.22.26v1.53h-5.01Zm1.14-11.46v-2.18h2.64v2.18h-2.64Z"/>
          <path class="cls-4" d="m238.87,413.08v-1.53l1.23-.26v-10.04l-1.36-.26v-1.54h3.92v11.84l1.23.26v1.53h-5.02Z"/>
          <path class="cls-4" d="m247.88,413.26c-.94,0-1.68-.25-2.24-.76-.55-.5-.83-1.19-.83-2.06,0-.59.16-1.12.49-1.56.32-.45.8-.8,1.43-1.06.63-.26,1.41-.38,2.34-.38h1.25v-.7c0-.46-.13-.82-.4-1.11-.27-.28-.66-.42-1.19-.42-.27,0-.52.03-.73.1-.22.07-.41.16-.59.28l-.2,1.25h-1.84l-.04-2.46c.5-.28,1.03-.51,1.61-.68.58-.17,1.22-.26,1.93-.26,1.24,0,2.21.29,2.93.86.72.57,1.07,1.39,1.07,2.46v3.9c0,.13,0,.25,0,.38,0,.13.01.25.03.36l.99.14v1.53h-3.16c-.06-.16-.13-.34-.19-.52-.06-.19-.11-.37-.14-.56-.3.38-.66.69-1.07.92-.41.23-.89.35-1.45.35Zm-2.1-11.47v-.23l2.23-2.12h1.88l2.21,2.15v.2h-1.99l-1.16-1.26-1.2,1.26h-1.97Zm2.78,9.58c.36,0,.69-.08,1.01-.24s.57-.37.74-.63v-1.49h-1.26c-.56,0-.98.13-1.27.38-.29.26-.43.57-.43.93,0,.34.11.6.32.78s.51.28.89.28Z"/>
          <path class="cls-4" d="m254.7,413.08v-1.53l1.22-.26v-5.86l-1.35-.26v-1.54h3.73l.11,1.35c.31-.48.7-.86,1.17-1.13.46-.27.99-.4,1.59-.4.94,0,1.67.3,2.2.9.53.6.79,1.54.79,2.82v4.12l1.22.26v1.53h-4.88v-1.53l1.09-.26v-4.11c0-.63-.12-1.08-.38-1.35-.25-.27-.62-.4-1.12-.4-.37,0-.69.08-.96.23-.27.15-.5.37-.68.66v4.96l1.03.26v1.53h-4.81Z"/>
          <path class="cls-4" d="m270.57,413.26c-.91,0-1.69-.2-2.36-.61-.66-.41-1.17-.97-1.53-1.69-.35-.72-.53-1.54-.53-2.47v-.26c0-.93.18-1.76.54-2.47.36-.72.87-1.28,1.53-1.69.66-.41,1.43-.62,2.32-.62s1.58.13,2.2.4c.61.27,1.11.57,1.5.92l-.02,2.71h-1.92l-.34-1.69c-.14-.14-.32-.25-.53-.34-.22-.09-.43-.13-.66-.13-.47,0-.85.12-1.16.35-.31.23-.53.57-.69,1-.15.43-.23.95-.23,1.56v.26c0,.65.08,1.18.25,1.59s.39.72.68.92c.28.2.6.3.95.3.45,0,.81-.12,1.08-.35s.46-.57.55-1h2.19l.03.05c-.1.67-.29,1.25-.59,1.74-.29.49-.71.87-1.24,1.13-.53.26-1.21.39-2.03.39Z"/>
          <path class="cls-4" d="m275.49,413.08v-1.53l1.23-.26v-5.86l-1.36-.26v-1.54h3.92v7.66l1.22.26v1.53h-5.01Zm1.15-11.46v-2.18h2.64v2.18h-2.64Z"/>
          <path class="cls-4" d="m284.51,413.26c-.94,0-1.68-.25-2.24-.76-.55-.5-.83-1.19-.83-2.06,0-.59.16-1.12.49-1.56.32-.45.8-.8,1.43-1.06.63-.26,1.41-.38,2.34-.38h1.25v-.7c0-.46-.13-.82-.4-1.11-.27-.28-.66-.42-1.19-.42-.27,0-.52.03-.73.1-.22.07-.41.16-.59.28l-.2,1.25h-1.83l-.04-2.46c.5-.28,1.03-.51,1.61-.68s1.22-.26,1.93-.26c1.23,0,2.21.29,2.93.86.72.57,1.07,1.39,1.07,2.46v3.9c0,.13,0,.25,0,.38,0,.13.01.25.03.36l.99.14v1.53h-3.16c-.06-.16-.13-.34-.19-.52s-.11-.37-.14-.56c-.3.38-.66.69-1.07.92-.41.23-.89.35-1.45.35Zm.68-1.89c.36,0,.69-.08,1.01-.24.32-.16.57-.37.74-.63v-1.49h-1.26c-.56,0-.98.13-1.27.38-.29.26-.43.57-.43.93,0,.34.11.6.32.78s.51.28.89.28Z"/>
          <path class="cls-4" d="m203.51,438.19v-1.54l1.23-.26v-9.49l-1.36-.26v-1.54h3.71l.12,1.1c.28-.41.62-.72,1.01-.94.4-.22.87-.33,1.42-.33.76,0,1.42.21,1.96.62.54.42.96,1,1.25,1.74.29.75.43,1.62.43,2.61v.18c0,.93-.14,1.75-.43,2.44-.29.7-.71,1.24-1.25,1.63s-1.2.58-1.97.58c-.51,0-.95-.09-1.34-.28-.39-.18-.72-.45-.99-.81v2.74l1.23.26v1.54h-5.01Zm5.35-5.41c.65,0,1.13-.24,1.42-.72.29-.48.44-1.14.44-1.97v-.18c0-.6-.07-1.12-.2-1.57-.13-.45-.34-.8-.62-1.05-.28-.25-.63-.38-1.06-.38-.35,0-.66.08-.92.24s-.48.38-.63.67v4.14c.16.27.37.47.63.61.27.14.58.21.94.21Z"/>
          <path class="cls-4" d="m219.03,434.74c-.93,0-1.73-.2-2.4-.61-.67-.41-1.18-.97-1.54-1.7s-.53-1.56-.53-2.5v-.18c0-.94.18-1.77.53-2.5s.87-1.29,1.53-1.7,1.46-.62,2.39-.62,1.74.21,2.4.62c.66.41,1.17.98,1.53,1.7.35.72.53,1.55.53,2.5v.18c0,.94-.18,1.78-.53,2.5-.36.73-.87,1.29-1.53,1.7-.66.41-1.46.61-2.39.61Zm0-1.96c.44,0,.8-.12,1.08-.36.28-.24.49-.57.62-1,.13-.43.2-.93.2-1.5v-.18c0-.56-.07-1.05-.2-1.48-.13-.43-.34-.76-.62-1-.28-.24-.65-.36-1.1-.36s-.8.12-1.08.36c-.29.24-.49.58-.62,1-.13.43-.2.92-.2,1.48v.18c0,.57.07,1.07.2,1.5.13.43.34.76.62,1,.29.24.65.35,1.1.35Zm-1.54-9.47l1.74-2.39h2.7l.02.05-2.41,2.33h-2.04Z"/>
          <path class="cls-4" d="m228.67,434.74c-.7,0-1.36-.07-1.97-.2s-1.19-.33-1.75-.58l-.03-2.67h1.77l.34,1.36c.2.1.42.18.65.24.24.06.51.09.81.09.57,0,.97-.09,1.21-.28.23-.19.35-.42.35-.7,0-.26-.12-.49-.37-.7-.25-.2-.74-.38-1.48-.53-1.12-.23-1.94-.59-2.47-1.08-.53-.49-.8-1.12-.8-1.88,0-.52.13-1,.4-1.43.27-.43.67-.78,1.21-1.04.54-.26,1.24-.39,2.09-.39.71,0,1.36.07,1.95.21s1.09.32,1.49.54l.03,2.59h-1.77l-.27-1.24c-.16-.12-.34-.2-.55-.26-.21-.06-.45-.09-.72-.09-.45,0-.79.09-1.03.27s-.36.41-.36.7c0,.16.04.31.13.46.08.14.25.27.5.39.25.12.61.24,1.09.35,1.17.27,2.02.62,2.56,1.07.54.45.8,1.07.8,1.88,0,.88-.32,1.59-.96,2.13-.64.54-1.59.81-2.86.81Z"/>
          <path class="cls-4" d="m234.24,430.1v-1.97h4.93v1.97h-4.93Z"/>
          <path class="cls-4" d="m245.22,434.74c-.91,0-1.69-.2-2.36-.61-.66-.41-1.17-.97-1.52-1.69s-.53-1.54-.53-2.47v-.26c0-.93.18-1.76.54-2.47.36-.72.87-1.28,1.53-1.69s1.43-.62,2.32-.62,1.58.13,2.2.4c.61.27,1.11.57,1.5.92l-.02,2.71h-1.92l-.34-1.69c-.14-.14-.32-.25-.53-.34-.22-.09-.43-.13-.66-.13-.47,0-.85.12-1.16.35-.31.23-.53.57-.69,1-.15.43-.23.95-.23,1.56v.26c0,.65.08,1.18.25,1.59.17.42.39.72.68.92.28.2.6.3.95.3.45,0,.81-.12,1.08-.35s.46-.57.56-1h2.18l.03.05c-.1.67-.3,1.25-.59,1.74-.29.49-.71.87-1.24,1.13-.53.26-1.21.39-2.03.39Z"/>
          <path class="cls-4" d="m254.74,434.74c-.93,0-1.73-.2-2.4-.61-.67-.41-1.18-.97-1.54-1.7-.36-.73-.53-1.56-.53-2.5v-.18c0-.94.18-1.77.53-2.5.36-.73.87-1.29,1.53-1.7s1.46-.62,2.39-.62,1.74.21,2.4.62c.67.41,1.17.98,1.53,1.7.35.72.53,1.55.53,2.5v.18c0,.94-.18,1.78-.53,2.5-.36.73-.87,1.29-1.53,1.7-.66.41-1.46.61-2.38.61Zm0-1.96c.44,0,.8-.12,1.08-.36.28-.24.49-.57.62-1,.13-.43.2-.93.2-1.5v-.18c0-.56-.07-1.05-.2-1.48-.13-.43-.34-.76-.62-1s-.65-.36-1.1-.36-.8.12-1.08.36-.49.58-.62,1c-.13.43-.2.92-.2,1.48v.18c0,.57.07,1.07.2,1.5.13.43.34.76.62,1s.65.35,1.1.35Z"/>
          <path class="cls-4" d="m260.23,434.55v-1.53l1.23-.26v-5.86l-1.36-.26v-1.54h3.73l.11,1.25c.3-.46.68-.81,1.14-1.05.46-.25.99-.37,1.59-.37s1.13.13,1.56.4c.43.27.76.67.97,1.21.29-.51.67-.9,1.14-1.19.46-.29,1.01-.43,1.64-.43.93,0,1.67.32,2.21.95.54.64.81,1.6.81,2.9v3.98l1.23.26v1.53h-4.88v-1.53l1.1-.26v-3.99c0-.7-.12-1.18-.35-1.46-.23-.27-.56-.41-1-.41-.4,0-.73.11-1.01.34s-.47.52-.59.89v4.63l1.03.26v1.53h-4.61v-1.53l1.03-.26v-3.99c0-.68-.12-1.16-.35-1.44s-.57-.42-1.02-.42c-.36,0-.67.07-.94.22s-.48.36-.65.63v5.01l1.1.26v1.53h-4.88Z"/>
          <path class="cls-4" d="m281.52,434.74c-.9,0-1.69-.2-2.37-.6s-1.2-.95-1.57-1.65-.55-1.5-.55-2.39v-.35c0-.94.17-1.77.52-2.5s.84-1.3,1.48-1.71c.64-.42,1.39-.62,2.26-.62.86,0,1.58.17,2.16.51.58.34,1.03.82,1.33,1.46.3.63.45,1.4.45,2.31v1.39h-5.56l-.02.05c.04.41.14.78.31,1.11s.42.58.73.76.7.28,1.15.28.9-.06,1.31-.18c.41-.12.8-.3,1.18-.53l.69,1.57c-.39.31-.88.58-1.47.78-.59.21-1.27.31-2.03.31Zm-1.83-5.84h3.16v-.23c0-.38-.05-.71-.15-.99-.1-.28-.26-.49-.49-.64s-.51-.23-.87-.23-.62.09-.86.27c-.23.18-.42.42-.55.73-.13.31-.22.66-.27,1.05l.03.04Z"/>
          <path class="cls-4" d="m286.6,434.55v-1.53l1.22-.26v-5.86l-1.36-.26v-1.54h3.73l.1,1.17.02.21c.23-.51.52-.9.87-1.16.34-.26.75-.39,1.23-.39.15,0,.32.01.5.04s.34.06.48.1l-.27,2.35-1.27-.07c-.36-.02-.65.04-.88.18-.22.14-.42.34-.6.6v4.63l1.22.26v1.53h-5Z"/>
          <path class="cls-4" d="m298.44,434.74c-.91,0-1.69-.2-2.36-.61-.66-.41-1.17-.97-1.53-1.69-.35-.72-.53-1.54-.53-2.47v-.26c0-.93.18-1.76.54-2.47.36-.72.87-1.28,1.53-1.69.66-.41,1.43-.62,2.32-.62s1.58.13,2.2.4c.61.27,1.11.57,1.5.92l-.02,2.71h-1.92l-.34-1.69c-.14-.14-.32-.25-.53-.34-.22-.09-.43-.13-.66-.13-.47,0-.85.12-1.16.35-.31.23-.53.57-.69,1-.15.43-.23.95-.23,1.56v.26c0,.65.08,1.18.25,1.59s.39.72.68.92c.28.2.6.3.95.3.45,0,.81-.12,1.08-.35s.46-.57.55-1h2.19l.03.05c-.1.67-.29,1.25-.59,1.74-.29.49-.71.87-1.24,1.13-.53.26-1.21.39-2.03.39Z"/>
          <path class="cls-4" d="m303.36,434.55v-1.53l1.23-.26v-5.86l-1.36-.26v-1.54h3.92v7.66l1.22.26v1.53h-5.01Zm1.15-11.46v-2.18h2.64v2.18h-2.64Z"/>
          <path class="cls-4" d="m312.38,434.74c-.94,0-1.68-.25-2.24-.76-.55-.5-.83-1.19-.83-2.06,0-.59.16-1.12.49-1.56.32-.45.8-.8,1.43-1.06.63-.26,1.41-.38,2.34-.38h1.25v-.7c0-.46-.13-.82-.4-1.11-.27-.28-.66-.42-1.19-.42-.27,0-.52.03-.73.1-.22.07-.41.16-.59.28l-.2,1.25h-1.83l-.04-2.46c.5-.28,1.03-.51,1.61-.68s1.22-.26,1.93-.26c1.23,0,2.21.29,2.93.86.72.57,1.07,1.39,1.07,2.46v3.9c0,.13,0,.25,0,.38,0,.13.01.25.03.36l.99.14v1.53h-3.16c-.06-.16-.13-.34-.19-.52s-.11-.37-.14-.56c-.3.38-.66.69-1.07.92-.41.23-.89.35-1.45.35Zm.68-1.89c.36,0,.69-.08,1.01-.24.32-.16.57-.37.74-.63v-1.49h-1.26c-.56,0-.98.13-1.27.38-.29.26-.43.57-.43.93,0,.34.11.6.32.78s.51.28.89.28Z"/>
          <path class="cls-4" d="m319.17,434.55v-1.53l1.23-.26v-10.04l-1.36-.26v-1.54h3.92v11.84l1.23.26v1.53h-5.02Z"/>
          <path class="cls-4" d="m324.93,434.55v-1.53l1.23-.26v-5.86l-1.36-.26v-1.54h3.92v7.66l1.22.26v1.53h-5.01Zm1.15-11.46v-2.18h2.64v2.18h-2.64Z"/>
          <path class="cls-4" d="m331.01,434.55v-1.5l4.92-6.17h-2.55l-.29,1.62h-1.87v-3.4h7.77v1.63l-4.64,6h2.67l.38-1.74h1.79v3.57h-8.18Z"/>
          <path class="cls-4" d="m343.63,434.74c-.94,0-1.68-.25-2.24-.76-.55-.5-.83-1.19-.83-2.06,0-.59.16-1.12.49-1.56.32-.45.8-.8,1.43-1.06.63-.26,1.41-.38,2.34-.38h1.25v-.7c0-.46-.13-.82-.4-1.11-.27-.28-.66-.42-1.19-.42-.27,0-.52.03-.73.1-.22.07-.41.16-.59.28l-.2,1.25h-1.83l-.04-2.46c.5-.28,1.03-.51,1.61-.68s1.22-.26,1.93-.26c1.23,0,2.21.29,2.93.86.72.57,1.07,1.39,1.07,2.46v3.9c0,.13,0,.25,0,.38,0,.13.01.25.03.36l.99.14v1.53h-3.16c-.06-.16-.13-.34-.19-.52s-.11-.37-.14-.56c-.3.38-.66.69-1.07.92-.41.23-.89.35-1.45.35Zm.68-1.89c.36,0,.69-.08,1.01-.24.32-.16.57-.37.74-.63v-1.49h-1.26c-.56,0-.98.13-1.27.38-.29.26-.43.57-.43.93,0,.34.11.6.32.78s.51.28.89.28Z"/>
          <path class="cls-4" d="m355,434.74c-.91,0-1.69-.2-2.36-.61-.66-.41-1.17-.97-1.53-1.69-.35-.72-.53-1.54-.53-2.47v-.26c0-.93.18-1.76.54-2.47.36-.72.87-1.28,1.53-1.69.66-.41,1.43-.62,2.32-.62s1.58.13,2.2.4c.61.27,1.11.57,1.5.92l-.02,2.71h-1.92l-.34-1.69c-.14-.14-.32-.25-.53-.34-.22-.09-.43-.13-.66-.13-.47,0-.85.12-1.16.35-.31.23-.53.57-.69,1-.15.43-.23.95-.23,1.56v.26c0,.65.08,1.18.25,1.59s.39.72.68.92c.28.2.6.3.95.3.45,0,.81-.12,1.08-.35s.46-.57.55-1h2.19l.03.05c-.1.67-.29,1.25-.59,1.74-.29.49-.71.87-1.24,1.13-.53.26-1.21.39-2.03.39Zm-1.19,3.83l-.06-1.4c.35,0,.63-.06.83-.17.21-.11.31-.29.31-.52,0-.25-.1-.42-.31-.52-.2-.1-.53-.16-.97-.18l.3-1.38h1.88l-.11.65c.39.06.72.21.98.44.26.23.39.57.39,1.03,0,.62-.28,1.12-.85,1.49s-1.36.56-2.39.56Z"/>
          <path class="cls-4" d="m363.17,434.74c-.94,0-1.68-.25-2.24-.76-.55-.5-.83-1.19-.83-2.06,0-.59.16-1.12.49-1.56.32-.45.8-.8,1.43-1.06.63-.26,1.41-.38,2.34-.38h1.25v-.7c0-.46-.13-.82-.4-1.11-.27-.28-.66-.42-1.19-.42-.27,0-.52.03-.73.1-.22.07-.41.16-.59.28l-.2,1.25h-1.83l-.04-2.46c.5-.28,1.03-.51,1.61-.68s1.22-.26,1.93-.26c1.23,0,2.21.29,2.93.86.72.57,1.07,1.39,1.07,2.46v3.9c0,.13,0,.25,0,.38,0,.13.01.25.03.36l.99.14v1.53h-3.16c-.06-.16-.13-.34-.19-.52s-.11-.37-.14-.56c-.3.38-.66.69-1.07.92-.41.23-.89.35-1.45.35Zm-.89-11.4l-1.32-.35c0-.39.09-.75.28-1.08.18-.33.43-.6.73-.8.3-.2.63-.31.99-.31.28,0,.57.07.87.21.3.14.59.28.87.42s.51.21.7.21c.24,0,.43-.1.57-.28.14-.18.21-.4.21-.68l1.32.37c0,.4-.09.77-.28,1.1s-.43.59-.73.79-.63.29-1,.29c-.3,0-.61-.07-.91-.21s-.58-.28-.85-.42c-.26-.14-.49-.21-.69-.21-.24,0-.43.09-.57.28-.14.19-.21.41-.21.67Zm1.57,9.51c.36,0,.69-.08,1.01-.24.32-.16.57-.37.74-.63v-1.49h-1.26c-.56,0-.98.13-1.27.38-.29.26-.43.57-.43.93,0,.34.11.6.32.78s.51.28.89.28Z"/>
          <path class="cls-4" d="m374.6,434.74c-.93,0-1.73-.2-2.4-.61-.67-.41-1.18-.97-1.54-1.7-.35-.73-.53-1.56-.53-2.5v-.18c0-.94.18-1.77.53-2.5.36-.73.87-1.29,1.53-1.7s1.46-.62,2.39-.62,1.74.21,2.4.62,1.17.98,1.53,1.7c.36.72.53,1.55.53,2.5v.18c0,.94-.18,1.78-.53,2.5s-.87,1.29-1.53,1.7c-.66.41-1.46.61-2.39.61Zm0-1.96c.44,0,.8-.12,1.08-.36.28-.24.49-.57.62-1,.13-.43.2-.93.2-1.5v-.18c0-.56-.07-1.05-.2-1.48-.13-.43-.34-.76-.62-1-.28-.24-.65-.36-1.1-.36s-.8.12-1.08.36-.49.58-.62,1c-.13.43-.2.92-.2,1.48v.18c0,.57.07,1.07.2,1.5.13.43.34.76.62,1s.65.35,1.1.35Z"/>
        </g>
      </g>
      <g id="circle">
        <ellipse id="circle-base" class="cls-2" cx="141.34" cy="417.72" rx="51.78" ry="51.57"/>
        <path id="circle-color" class="cls-4" d="m141.34,374.98c-21.66,0-39.56,15.99-42.48,36.76h-30.51v11.13h30.4c2.55,21.18,20.64,37.6,42.59,37.6,23.7,0,42.91-19.14,42.91-42.74s-19.21-42.74-42.91-42.74Zm0,74.69c-17.71,0-32.07-14.3-32.07-31.94s14.36-31.94,32.07-31.94,32.07,14.3,32.07,31.94-14.36,31.94-32.07,31.94Z"/>
        <g>
          <path class="cls-3" d="m125.36,411.71h-.92v-11.32h6.23v.82h-5.31v4.66h5.01v.82h-5.01v5.01Z"/>
          <path class="cls-3" d="m139.23,411.71l-1.51-3.9h-4.69l-1.52,3.9h-.95l4.45-11.36h.84l4.34,11.36h-.97Zm-3.3-8.81c-.06-.15-.15-.38-.25-.7-.11-.32-.2-.6-.27-.84-.08.29-.17.57-.27.84-.09.27-.17.51-.24.71l-1.57,4.06h4.1l-1.51-4.07Z"/>
          <path class="cls-3" d="m148.06,408.76c0,.68-.17,1.25-.51,1.71-.34.46-.8.81-1.4,1.05s-1.26.35-2.01.35c-.69,0-1.28-.05-1.79-.14-.51-.09-.94-.22-1.3-.36v-.9c.39.16.86.3,1.4.41.54.12,1.12.17,1.74.17.87,0,1.57-.18,2.12-.55.54-.37.82-.92.82-1.66,0-.44-.1-.81-.31-1.1s-.52-.54-.95-.76c-.43-.22-.97-.44-1.64-.66-.63-.21-1.18-.45-1.63-.71-.45-.26-.8-.59-1.05-.99-.24-.4-.36-.9-.36-1.5s.16-1.13.47-1.56.74-.75,1.28-.97c.54-.22,1.17-.33,1.86-.33.55,0,1.07.05,1.57.16.5.11.97.25,1.41.44l-.3.79c-.91-.38-1.81-.57-2.71-.57-.78,0-1.42.17-1.91.51-.49.34-.74.85-.74,1.51,0,.49.11.88.32,1.17.21.29.52.54.92.74.4.2.89.4,1.47.6.67.23,1.24.48,1.72.73.48.25.85.57,1.12.96s.4.88.4,1.48Z"/>
          <path class="cls-3" d="m156.65,411.71h-6.21v-11.32h6.21v.82h-5.29v4.14h4.99v.82h-4.99v4.71h5.29v.82Z"/>
        </g>
        <g>
          <path class="cls-3" d="m140.07,427.1c0,1.97-.21,3.66-.63,5.06-.42,1.4-1.1,2.48-2.03,3.24-.93.75-2.19,1.13-3.76,1.13-2.21,0-3.83-.83-4.85-2.5s-1.54-3.98-1.54-6.92c0-1.99.21-3.68.62-5.08.41-1.4,1.09-2.48,2.03-3.24.94-.75,2.19-1.13,3.75-1.13,2.19,0,3.81.83,4.85,2.49,1.04,1.66,1.57,3.98,1.57,6.96Zm-8.96,0c0,2.09.18,3.66.54,4.71.36,1.05,1.03,1.58,2,1.58s1.63-.52,2-1.57c.38-1.04.56-2.62.56-4.72s-.19-3.66-.56-4.73c-.38-1.06-1.04-1.59-2-1.59s-1.64.53-2,1.59c-.36,1.06-.54,2.64-.54,4.73Z"/>
          <path class="cls-3" d="m155.28,432.46h-2.21v3.8h-3.77v-3.8h-7.83v-2.7l8.04-11.84h3.57v11.53h2.21v3Zm-5.98-6.11c0-.39,0-.87.03-1.44.02-.56.04-1.09.06-1.58.03-.49.05-.81.06-.96h-.1c-.15.34-.32.68-.49,1-.17.33-.38.66-.62,1l-3.36,5.08h4.42v-3.11Z"/>
        </g>
      </g>
      <g id="bullet">
        <ellipse id="bullet-base" class="cls-2" cx="52.69" cy="418.48" rx="17.59" ry="17.52"/>
        <ellipse id="bullet-color" class="cls-4" cx="52.69" cy="418.48" rx="8.47" ry="8.44"/>
      </g>
    </g>
    <g id="fase3">
      <g id="label-2" data-name="label">
        <path id="label-base-2" data-name="label-base" class="cls-8" d="m140.8,261.75h269.1c22.67,0,41.07,18.4,41.07,41.07h0c0,22.67-18.4,41.07-41.07,41.07H140.8v-82.14h0Z"/>
        <g>
          <path class="cls-10" d="m203.51,297.54v-1.53l1.35-.26v-9.13l-1.35-.26v-1.54h9.88v3.43h-1.96l-.11-1.47h-3.9v3.2h4.31v1.97h-4.31v3.63h4.11l.11-1.52h1.94v3.48h-10.07Z"/>
          <path class="cls-10" d="m219.05,297.72c-.7,0-1.36-.07-1.97-.2s-1.19-.33-1.75-.58l-.03-2.67h1.77l.34,1.36c.2.1.42.18.65.24.24.06.51.09.81.09.57,0,.97-.09,1.21-.28.23-.19.35-.42.35-.7,0-.26-.12-.49-.37-.7-.25-.2-.74-.38-1.48-.53-1.12-.23-1.94-.59-2.47-1.08-.53-.49-.8-1.12-.8-1.88,0-.52.13-1,.4-1.43.27-.43.67-.78,1.21-1.04.54-.26,1.24-.39,2.09-.39.71,0,1.36.07,1.95.21s1.09.32,1.49.54l.03,2.59h-1.77l-.27-1.24c-.16-.12-.34-.2-.55-.26-.21-.06-.45-.09-.72-.09-.45,0-.79.09-1.03.27s-.36.41-.36.7c0,.16.04.31.13.46.08.14.25.27.5.39.25.12.61.24,1.09.35,1.17.27,2.02.62,2.56,1.07.54.45.8,1.07.8,1.88,0,.88-.32,1.59-.96,2.13-.64.54-1.59.81-2.86.81Z"/>
          <path class="cls-10" d="m227.75,297.72c-.88,0-1.56-.24-2.03-.73-.48-.48-.71-1.25-.71-2.3v-4.82h-1.3v-1.79h1.3v-2.32h2.54v2.32h1.74v1.79h-1.74v4.82c0,.37.08.63.23.79s.37.24.63.24c.15,0,.3-.01.46-.03s.3-.04.42-.07l.22,1.84c-.26.08-.55.14-.85.19-.31.05-.61.07-.9.07Z"/>
          <path class="cls-10" d="m234.47,297.72c-1,0-1.78-.32-2.35-.95-.57-.63-.85-1.62-.85-2.95v-3.94l-1.04-.26v-1.54h3.59v5.76c0,.68.12,1.16.35,1.46.24.29.59.44,1.07.44.38,0,.71-.07,1-.22s.53-.36.72-.63v-5l-1.13-.26v-1.54h3.68v7.66l1.14.26v1.53h-3.37l-.17-1.2c-.3.44-.67.78-1.12,1.02s-.96.36-1.52.36Z"/>
          <path class="cls-10" d="m245.24,297.72c-.75,0-1.4-.19-1.94-.58-.54-.39-.95-.93-1.24-1.63s-.43-1.51-.43-2.44v-.18c0-1,.14-1.87.43-2.61.29-.75.7-1.33,1.24-1.74.54-.42,1.18-.62,1.92-.62.52,0,.97.1,1.36.31.39.21.73.5,1.01.88v-3.39l-1.36-.26v-1.54h3.92v11.84l1.22.26v1.53h-3.43l-.19-1.15c-.3.44-.65.77-1.06,1-.41.23-.9.34-1.46.34Zm.76-1.98c.36,0,.67-.08.94-.23.27-.15.49-.37.67-.66v-4.01c-.17-.3-.4-.54-.66-.7-.27-.17-.58-.25-.93-.25-.43,0-.77.13-1.04.38-.27.25-.47.6-.59,1.05-.12.45-.19.97-.19,1.56v.18c0,.83.14,1.48.42,1.95.28.47.74.71,1.39.71Z"/>
          <path class="cls-10" d="m256.7,297.72c-.93,0-1.73-.2-2.4-.61-.67-.41-1.18-.97-1.54-1.7s-.53-1.56-.53-2.5v-.18c0-.94.18-1.77.53-2.5s.87-1.29,1.53-1.7c.67-.41,1.46-.62,2.39-.62s1.74.21,2.4.62,1.17.98,1.53,1.7c.36.72.53,1.55.53,2.5v.18c0,.94-.18,1.78-.53,2.5s-.87,1.29-1.53,1.7c-.66.41-1.46.61-2.39.61Zm0-1.96c.44,0,.8-.12,1.08-.36.28-.24.49-.57.62-1,.13-.43.2-.93.2-1.5v-.18c0-.56-.07-1.05-.2-1.48-.13-.43-.34-.76-.62-1-.28-.24-.65-.36-1.1-.36s-.8.12-1.08.36c-.29.24-.49.58-.62,1-.13.43-.2.92-.2,1.48v.18c0,.57.07,1.07.2,1.5.13.43.34.76.62,1,.29.24.65.35,1.1.35Z"/>
          <path class="cls-10" d="m269.54,297.54v-1.53l1.36-.26v-8.97h-2.32l-.14,1.52h-1.93v-3.49h11.35v3.49h-1.94l-.14-1.52h-2.33v8.97l1.37.26v1.53h-5.29Z"/>
          <path class="cls-10" d="m282.65,297.72c-.9,0-1.69-.2-2.37-.6s-1.2-.95-1.57-1.65-.55-1.5-.55-2.39v-.35c0-.94.17-1.77.52-2.5s.84-1.3,1.48-1.71c.64-.42,1.39-.62,2.26-.62.86,0,1.58.17,2.16.51.58.34,1.03.82,1.33,1.46.3.63.45,1.4.45,2.31v1.39h-5.56l-.02.05c.04.41.14.78.31,1.11s.42.58.73.76.7.28,1.15.28.9-.06,1.31-.18c.41-.12.8-.3,1.18-.53l.69,1.57c-.39.31-.88.58-1.47.78-.59.21-1.27.31-2.03.31Zm-1.83-5.84h3.16v-.23c0-.38-.05-.71-.15-.99-.1-.28-.26-.49-.49-.64s-.51-.23-.87-.23-.62.09-.86.27c-.23.18-.42.42-.55.73-.13.31-.22.66-.27,1.05l.03.04Z"/>
          <path class="cls-10" d="m287.74,297.54v-1.53l1.22-.26v-5.86l-1.36-.26v-1.54h3.73l.1,1.17.02.21c.23-.51.52-.9.87-1.16.34-.26.75-.39,1.23-.39.15,0,.32.01.5.04s.34.06.48.1l-.27,2.35-1.27-.07c-.36-.02-.65.04-.88.18-.22.14-.42.34-.6.6v4.63l1.22.26v1.53h-5Z"/>
          <path class="cls-10" d="m298.28,297.72c-.94,0-1.68-.25-2.24-.76-.55-.5-.83-1.19-.83-2.06,0-.59.16-1.12.49-1.56.32-.45.8-.8,1.43-1.06.63-.26,1.41-.38,2.34-.38h1.25v-.7c0-.46-.13-.82-.4-1.11-.27-.28-.66-.42-1.19-.42-.27,0-.52.03-.73.1-.22.07-.41.16-.59.28l-.2,1.25h-1.83l-.04-2.46c.5-.28,1.03-.51,1.61-.68s1.22-.26,1.93-.26c1.23,0,2.21.29,2.93.86.72.57,1.07,1.39,1.07,2.46v3.9c0,.13,0,.25,0,.38,0,.13.01.25.03.36l.99.14v1.53h-3.16c-.06-.16-.13-.34-.19-.52s-.11-.37-.14-.56c-.3.38-.66.69-1.07.92-.41.23-.89.35-1.45.35Zm.68-1.89c.36,0,.69-.08,1.01-.24.32-.16.57-.37.74-.63v-1.49h-1.26c-.56,0-.98.13-1.27.38-.29.26-.43.57-.43.93,0,.34.11.6.32.78s.51.28.89.28Z"/>
          <path class="cls-10" d="m305.14,301.17v-1.54l1.23-.26v-9.49l-1.36-.26v-1.54h3.71l.12,1.1c.28-.41.62-.72,1.01-.94.4-.22.87-.33,1.42-.33.76,0,1.42.21,1.96.62.54.42.96,1,1.25,1.74.29.75.43,1.62.43,2.61v.18c0,.93-.14,1.75-.43,2.44-.29.7-.71,1.24-1.25,1.63-.54.39-1.2.58-1.97.58-.51,0-.95-.09-1.34-.28s-.72-.45-.99-.81v2.74l1.23.26v1.54h-5.01Zm5.35-5.41c.65,0,1.13-.24,1.42-.72.29-.48.44-1.14.44-1.97v-.18c0-.6-.07-1.12-.2-1.57-.13-.45-.34-.8-.62-1.05-.28-.25-.63-.38-1.06-.38-.35,0-.66.08-.92.24-.27.16-.48.38-.63.67v4.14c.16.27.37.47.63.61.26.14.58.21.94.21Z"/>
          <path class="cls-10" d="m320.69,297.72c-.9,0-1.69-.2-2.37-.6s-1.2-.95-1.57-1.65-.55-1.5-.55-2.39v-.35c0-.94.17-1.77.52-2.5s.84-1.3,1.48-1.71c.64-.42,1.39-.62,2.26-.62.86,0,1.58.17,2.16.51.58.34,1.03.82,1.33,1.46.3.63.45,1.4.45,2.31v1.39h-5.56l-.02.05c.04.41.14.78.31,1.11s.42.58.73.76.7.28,1.15.28.9-.06,1.31-.18c.41-.12.8-.3,1.18-.53l.69,1.57c-.39.31-.88.58-1.47.78-.59.21-1.27.31-2.03.31Zm-3.43-11.47v-.23l2.23-2.12h1.88l2.21,2.15v.2h-1.99l-1.16-1.26-1.2,1.26h-1.97Zm1.61,5.63h3.16v-.23c0-.38-.05-.71-.15-.99-.1-.28-.26-.49-.49-.64s-.51-.23-.87-.23-.62.09-.86.27c-.23.18-.42.42-.55.73-.13.31-.22.66-.27,1.05l.03.04Z"/>
          <path class="cls-10" d="m329.6,297.72c-1,0-1.78-.32-2.35-.95-.57-.63-.85-1.62-.85-2.95v-3.94l-1.04-.26v-1.54h3.59v5.76c0,.68.12,1.16.35,1.46.24.29.59.44,1.07.44.38,0,.71-.07,1-.22s.53-.36.72-.63v-5l-1.13-.26v-1.54h3.68v7.66l1.14.26v1.53h-3.37l-.17-1.2c-.3.44-.67.78-1.12,1.02-.45.24-.96.36-1.52.36Z"/>
          <path class="cls-10" d="m340.44,297.72c-.88,0-1.56-.24-2.03-.73-.48-.48-.71-1.25-.71-2.3v-4.82h-1.3v-1.79h1.3v-2.32h2.54v2.32h1.74v1.79h-1.74v4.82c0,.37.08.63.23.79.15.16.37.24.63.24.15,0,.3-.01.46-.03s.3-.04.42-.07l.22,1.84c-.26.08-.55.14-.85.19-.31.05-.61.07-.9.07Z"/>
          <path class="cls-10" d="m343.29,297.54v-1.53l1.23-.26v-5.86l-1.36-.26v-1.54h3.92v7.66l1.22.26v1.53h-5.01Zm1.15-11.46v-2.18h2.64v2.18h-2.64Z"/>
          <path class="cls-10" d="m353.6,297.72c-.91,0-1.69-.2-2.36-.61-.66-.41-1.17-.97-1.53-1.69-.35-.72-.53-1.54-.53-2.47v-.26c0-.93.18-1.76.54-2.47.36-.72.87-1.28,1.53-1.69.66-.41,1.43-.62,2.32-.62s1.58.13,2.2.4c.61.27,1.11.57,1.5.92l-.02,2.71h-1.92l-.34-1.69c-.14-.14-.32-.25-.53-.34-.22-.09-.43-.13-.66-.13-.47,0-.85.12-1.16.35-.31.23-.53.57-.69,1-.15.43-.23.95-.23,1.56v.26c0,.65.08,1.18.25,1.59s.39.72.68.92c.28.2.6.3.95.3.45,0,.81-.12,1.08-.35s.46-.57.55-1h2.19l.03.05c-.1.67-.29,1.25-.59,1.74-.29.49-.71.87-1.24,1.13-.53.26-1.21.39-2.03.39Z"/>
          <path class="cls-10" d="m363.11,297.72c-.93,0-1.73-.2-2.4-.61-.67-.41-1.18-.97-1.54-1.7-.35-.73-.53-1.56-.53-2.5v-.18c0-.94.18-1.77.53-2.5.36-.73.87-1.29,1.53-1.7s1.46-.62,2.39-.62,1.74.21,2.4.62,1.17.98,1.53,1.7c.36.72.53,1.55.53,2.5v.18c0,.94-.18,1.78-.53,2.5s-.87,1.29-1.53,1.7c-.66.41-1.46.61-2.39.61Zm0-1.96c.44,0,.8-.12,1.08-.36.28-.24.49-.57.62-1,.13-.43.2-.93.2-1.5v-.18c0-.56-.07-1.05-.2-1.48-.13-.43-.34-.76-.62-1-.28-.24-.65-.36-1.1-.36s-.8.12-1.08.36-.49.58-.62,1c-.13.43-.2.92-.2,1.48v.18c0,.57.07,1.07.2,1.5.13.43.34.76.62,1s.65.35,1.1.35Z"/>
          <path class="cls-10" d="m203.38,319.02v-1.53l.91-.13,4.05-11.06h2.61l4.02,11.06.91.13v1.53h-4.33v-1.53l.88-.16-.56-1.75h-4.47l-.56,1.75.88.16v1.53h-4.33Zm4.61-5.31h3.27l-1.49-4.36-.12-.38h-.05l-.13.41-1.48,4.33Z"/>
          <path class="cls-10" d="m216.51,319.02v-1.53l1.23-.26v-5.86l-1.36-.26v-1.54h3.73l.1,1.25c.3-.46.68-.81,1.14-1.05.46-.25.99-.37,1.59-.37s1.13.13,1.56.4c.43.27.76.67.97,1.21.29-.51.67-.9,1.14-1.19.47-.29,1.01-.43,1.64-.43.93,0,1.67.32,2.21.95.54.64.81,1.6.81,2.9v3.98l1.23.26v1.53h-4.89v-1.53l1.1-.26v-3.99c0-.7-.12-1.18-.35-1.46-.23-.27-.56-.41-1-.41-.4,0-.73.11-1,.34s-.47.52-.59.89v4.63l1.03.26v1.53h-4.61v-1.53l1.03-.26v-3.99c0-.68-.12-1.16-.35-1.44-.23-.28-.57-.42-1.02-.42-.36,0-.67.07-.94.22s-.48.36-.65.63v5.01l1.1.26v1.53h-4.88Z"/>
          <path class="cls-10" d="m233.3,322.65v-1.54l1.23-.26v-9.49l-1.36-.26v-1.54h3.71l.12,1.1c.28-.41.62-.72,1.01-.94.4-.22.87-.33,1.42-.33.76,0,1.42.21,1.96.62.54.42.96,1,1.25,1.74.29.75.43,1.62.43,2.61v.18c0,.93-.14,1.75-.43,2.44-.29.7-.71,1.24-1.25,1.63s-1.2.58-1.97.58c-.51,0-.95-.09-1.34-.28-.39-.18-.72-.45-.99-.81v2.74l1.23.26v1.54h-5.01Zm5.35-5.41c.65,0,1.13-.24,1.42-.72.29-.48.44-1.14.44-1.97v-.18c0-.6-.07-1.12-.2-1.57-.13-.45-.34-.8-.62-1.05-.28-.25-.63-.38-1.06-.38-.35,0-.66.08-.92.24s-.48.38-.63.67v4.14c.16.27.37.47.63.61.27.14.58.21.94.21Z"/>
          <path class="cls-10" d="m243.88,319.02v-1.53l1.23-.26v-10.04l-1.36-.26v-1.54h3.92v11.84l1.23.26v1.53h-5.02Z"/>
          <path class="cls-10" d="m249.65,319.02v-1.53l1.23-.26v-5.86l-1.36-.26v-1.54h3.92v7.66l1.22.26v1.53h-5.01Zm1.14-11.46v-2.18h2.64v2.18h-2.64Z"/>
          <path class="cls-10" d="m258.67,319.2c-.94,0-1.68-.25-2.24-.76-.55-.5-.83-1.19-.83-2.06,0-.59.16-1.12.48-1.56.32-.45.8-.8,1.43-1.06.63-.26,1.41-.38,2.34-.38h1.25v-.7c0-.46-.13-.82-.4-1.11-.26-.28-.66-.42-1.19-.42-.27,0-.52.03-.73.1-.22.07-.41.16-.59.28l-.2,1.25h-1.83l-.04-2.46c.5-.28,1.03-.51,1.61-.68.58-.17,1.22-.26,1.93-.26,1.24,0,2.21.29,2.93.86.72.57,1.07,1.39,1.07,2.46v3.9c0,.13,0,.25,0,.38,0,.13.01.25.03.36l.99.14v1.53h-3.16c-.06-.16-.13-.34-.19-.52-.06-.19-.11-.37-.14-.56-.3.38-.66.69-1.07.92-.41.23-.89.35-1.45.35Zm.68-1.89c.36,0,.69-.08,1.01-.24s.57-.37.74-.63v-1.49h-1.26c-.56,0-.98.13-1.27.38-.29.26-.43.57-.43.93,0,.34.11.6.32.78s.51.28.89.28Z"/>
          <path class="cls-10" d="m269.23,319.2c-.75,0-1.4-.19-1.94-.58-.54-.39-.95-.93-1.24-1.63s-.43-1.51-.43-2.44v-.18c0-1,.14-1.87.43-2.61.29-.75.7-1.33,1.24-1.74.54-.42,1.18-.62,1.92-.62.52,0,.97.1,1.36.31.39.21.73.5,1.01.88v-3.39l-1.36-.26v-1.54h3.92v11.84l1.22.26v1.53h-3.43l-.19-1.15c-.3.44-.65.77-1.06,1-.41.23-.9.34-1.46.34Zm.76-1.98c.36,0,.67-.08.94-.23.27-.15.49-.37.67-.66v-4.01c-.17-.3-.4-.54-.66-.7-.27-.17-.58-.25-.93-.25-.42,0-.77.13-1.04.38-.27.25-.47.6-.59,1.05-.12.45-.19.97-.19,1.56v.18c0,.83.14,1.48.42,1.95.28.47.74.71,1.39.71Z"/>
          <path class="cls-10" d="m280.69,319.2c-.93,0-1.73-.2-2.4-.61-.67-.41-1.18-.97-1.54-1.7-.35-.73-.53-1.56-.53-2.5v-.18c0-.94.18-1.77.53-2.5.36-.73.87-1.29,1.53-1.7s1.46-.62,2.39-.62,1.74.21,2.4.62,1.17.98,1.53,1.7c.36.72.53,1.55.53,2.5v.18c0,.94-.18,1.78-.53,2.5s-.87,1.29-1.53,1.7c-.66.41-1.46.61-2.39.61Zm0-1.96c.44,0,.8-.12,1.08-.36.28-.24.49-.57.62-1,.13-.43.2-.93.2-1.5v-.18c0-.56-.07-1.05-.2-1.48-.13-.43-.34-.76-.62-1-.28-.24-.65-.36-1.1-.36s-.8.12-1.08.36-.49.58-.62,1c-.13.43-.2.92-.2,1.48v.18c0,.57.07,1.07.2,1.5.13.43.34.76.62,1s.65.35,1.1.35Z"/>
        </g>
      </g>
      <g id="circle-2" data-name="circle">
        <ellipse id="circle-base-2" data-name="circle-base" class="cls-2" cx="141.34" cy="302.88" rx="51.78" ry="51.57"/>
        <path id="circle-color-2" data-name="circle-color" class="cls-10" d="m141.34,260.14c-21.66,0-39.56,15.99-42.48,36.76h-30.51v11.13h30.4c2.55,21.18,20.64,37.6,42.59,37.6,23.7,0,42.91-19.14,42.91-42.74s-19.21-42.74-42.91-42.74Zm0,74.69c-17.71,0-32.07-14.3-32.07-31.94s14.36-31.94,32.07-31.94,32.07,14.3,32.07,31.94-14.36,31.94-32.07,31.94Z"/>
        <g>
          <path class="cls-3" d="m125.36,296.87h-.92v-11.32h6.23v.82h-5.31v4.66h5.01v.82h-5.01v5.01Z"/>
          <path class="cls-3" d="m139.23,296.87l-1.51-3.9h-4.69l-1.52,3.9h-.95l4.45-11.36h.84l4.34,11.36h-.97Zm-3.3-8.81c-.06-.15-.15-.38-.25-.7-.11-.32-.2-.6-.27-.84-.08.29-.17.57-.27.84-.09.27-.17.51-.24.71l-1.57,4.06h4.1l-1.51-4.07Z"/>
          <path class="cls-3" d="m148.06,293.92c0,.68-.17,1.25-.51,1.71-.34.46-.8.81-1.4,1.05s-1.26.35-2.01.35c-.69,0-1.28-.05-1.79-.14-.51-.09-.94-.22-1.3-.36v-.9c.39.16.86.3,1.4.41.54.12,1.12.17,1.74.17.87,0,1.57-.18,2.12-.55.54-.37.82-.92.82-1.66,0-.44-.1-.81-.31-1.1s-.52-.54-.95-.76c-.43-.22-.97-.44-1.64-.66-.63-.21-1.18-.45-1.63-.71-.45-.26-.8-.59-1.05-.99-.24-.4-.36-.9-.36-1.5s.16-1.13.47-1.56.74-.75,1.28-.97c.54-.22,1.17-.33,1.86-.33.55,0,1.07.05,1.57.16.5.11.97.25,1.41.44l-.3.79c-.91-.38-1.81-.57-2.71-.57-.78,0-1.42.17-1.91.51-.49.34-.74.85-.74,1.51,0,.49.11.88.32,1.17.21.29.52.54.92.74.4.2.89.4,1.47.6.67.23,1.24.48,1.72.73.48.25.85.57,1.12.96s.4.88.4,1.48Z"/>
          <path class="cls-3" d="m156.65,296.87h-6.21v-11.32h6.21v.82h-5.29v4.14h4.99v.82h-4.99v4.71h5.29v.82Z"/>
        </g>
        <g>
          <path class="cls-3" d="m140.07,312.26c0,1.97-.21,3.66-.63,5.06-.42,1.4-1.1,2.48-2.03,3.24-.93.75-2.19,1.13-3.76,1.13-2.21,0-3.83-.83-4.85-2.5s-1.54-3.98-1.54-6.92c0-1.99.21-3.68.62-5.08.41-1.4,1.09-2.48,2.03-3.24.94-.75,2.19-1.13,3.75-1.13,2.19,0,3.81.83,4.85,2.49,1.04,1.66,1.57,3.98,1.57,6.96Zm-8.96,0c0,2.09.18,3.66.54,4.71.36,1.05,1.03,1.58,2,1.58s1.63-.52,2-1.57c.38-1.04.56-2.62.56-4.72s-.19-3.66-.56-4.73c-.38-1.06-1.04-1.59-2-1.59s-1.64.53-2,1.59c-.36,1.06-.54,2.64-.54,4.73Z"/>
          <path class="cls-3" d="m154.15,307.2c0,1.27-.38,2.28-1.14,3.03-.76.75-1.7,1.27-2.81,1.54v.08c1.47.17,2.59.62,3.35,1.33.76.72,1.14,1.69,1.14,2.9,0,1.06-.26,2.02-.78,2.86-.52.85-1.33,1.52-2.41,2-1.09.49-2.49.73-4.2.73-1.99,0-3.75-.33-5.29-1v-3.29c.79.39,1.61.69,2.48.9.86.21,1.67.31,2.4.31,1.39,0,2.36-.24,2.91-.72s.83-1.16.83-2.03c0-.51-.13-.95-.39-1.3-.26-.35-.71-.62-1.35-.8-.64-.18-1.54-.27-2.68-.27h-1.39v-2.98h1.41c1.13,0,1.99-.11,2.58-.32.59-.21.99-.5,1.21-.87.21-.37.32-.79.32-1.27,0-.65-.2-1.16-.6-1.53s-1.07-.55-2.02-.55c-.87,0-1.63.15-2.27.45s-1.19.59-1.63.89l-1.8-2.67c.72-.51,1.56-.94,2.53-1.28.97-.34,2.12-.51,3.45-.51,1.88,0,3.38.38,4.48,1.14,1.1.76,1.66,1.84,1.66,3.22Z"/>
        </g>
      </g>
      <g id="bullet-2" data-name="bullet">
        <ellipse id="bullet-base-2" data-name="bullet-base" class="cls-2" cx="52.69" cy="303.64" rx="17.59" ry="17.52"/>
        <ellipse id="bullet-color-2" data-name="bullet-color" class="cls-10" cx="52.69" cy="303.64" rx="8.47" ry="8.44"/>
      </g>
    </g>
    <g id="fase2">
      <g id="label-3" data-name="label">
        <path id="label-base-3" data-name="label-base" class="cls-8" d="m140.8,145.75h269.1c22.67,0,41.07,18.4,41.07,41.07h0c0,22.67-18.4,41.07-41.07,41.07H140.8v-82.14h0Z"/>
        <g>
          <path class="cls-1" d="m203.51,181.26v-1.53l1.35-.26v-9.13l-1.35-.26v-1.54h9.88v3.43h-1.96l-.11-1.47h-3.9v3.2h4.31v1.97h-4.31v3.64h4.11l.11-1.52h1.94v3.48h-10.07Z"/>
          <path class="cls-1" d="m219.05,181.44c-.7,0-1.36-.07-1.97-.2-.61-.13-1.19-.33-1.75-.58l-.03-2.67h1.77l.34,1.36c.2.1.42.18.65.24.24.06.51.09.81.09.57,0,.97-.09,1.21-.28.23-.19.35-.42.35-.7,0-.26-.12-.49-.37-.69-.25-.2-.74-.38-1.48-.53-1.12-.23-1.94-.59-2.47-1.08-.53-.49-.8-1.12-.8-1.88,0-.52.13-1,.4-1.43s.67-.78,1.21-1.04,1.24-.39,2.09-.39c.71,0,1.36.07,1.95.21.59.14,1.09.32,1.49.54l.03,2.59h-1.77l-.27-1.24c-.16-.12-.34-.2-.55-.26-.21-.06-.45-.09-.72-.09-.45,0-.79.09-1.03.27-.24.18-.36.41-.36.7,0,.16.04.31.13.45s.25.27.5.39c.25.12.61.24,1.09.35,1.17.27,2.02.62,2.56,1.07s.8,1.07.8,1.87c0,.88-.32,1.59-.96,2.13-.64.54-1.59.81-2.86.81Z"/>
          <path class="cls-1" d="m227.75,181.44c-.88,0-1.56-.24-2.03-.73-.48-.48-.71-1.25-.71-2.3v-4.82h-1.3v-1.79h1.3v-2.32h2.54v2.32h1.74v1.79h-1.74v4.82c0,.37.08.63.23.79s.37.24.63.24c.15,0,.3,0,.46-.03s.3-.04.42-.07l.22,1.84c-.26.08-.55.14-.85.19-.31.05-.61.07-.9.07Z"/>
          <path class="cls-1" d="m234.47,181.44c-1,0-1.78-.32-2.35-.95-.57-.63-.85-1.62-.85-2.95v-3.94l-1.04-.26v-1.54h3.59v5.76c0,.68.12,1.16.35,1.46.24.29.59.44,1.07.44.38,0,.71-.07,1-.22.29-.15.53-.36.72-.63v-5l-1.13-.26v-1.54h3.68v7.66l1.14.26v1.53h-3.37l-.17-1.2c-.3.44-.67.78-1.12,1.02s-.96.36-1.52.36Z"/>
          <path class="cls-1" d="m245.24,181.44c-.75,0-1.4-.19-1.94-.58-.54-.39-.95-.93-1.24-1.63s-.43-1.51-.43-2.44v-.18c0-1,.14-1.87.43-2.61.29-.75.7-1.33,1.24-1.74.54-.42,1.18-.62,1.92-.62.52,0,.97.1,1.36.31.39.21.73.5,1.01.88v-3.39l-1.36-.26v-1.54h3.92v11.84l1.22.26v1.53h-3.43l-.19-1.15c-.3.44-.65.77-1.06,1-.41.23-.9.34-1.46.34Zm.76-1.98c.36,0,.67-.08.94-.23.27-.15.49-.37.67-.66v-4.01c-.17-.3-.4-.54-.66-.7-.27-.17-.58-.25-.93-.25-.43,0-.77.13-1.04.38-.27.25-.47.6-.59,1.05-.12.45-.19.97-.19,1.56v.18c0,.83.14,1.48.42,1.95.28.48.74.71,1.39.71Z"/>
          <path class="cls-1" d="m256.7,181.44c-.93,0-1.73-.2-2.4-.61s-1.18-.97-1.54-1.7c-.36-.73-.53-1.56-.53-2.5v-.18c0-.94.18-1.77.53-2.5s.87-1.29,1.53-1.7,1.46-.62,2.39-.62,1.74.21,2.4.62,1.17.98,1.53,1.7c.36.72.53,1.56.53,2.5v.18c0,.94-.18,1.78-.53,2.5-.36.73-.87,1.29-1.53,1.7s-1.46.61-2.39.61Zm0-1.96c.44,0,.8-.12,1.08-.36s.49-.57.62-1c.13-.43.2-.93.2-1.5v-.18c0-.56-.07-1.05-.2-1.48-.13-.43-.34-.76-.62-1-.28-.24-.65-.36-1.1-.36s-.8.12-1.08.36c-.29.24-.49.58-.62,1-.13.43-.2.92-.2,1.48v.18c0,.57.07,1.07.2,1.5.13.43.34.76.62,1,.29.24.65.35,1.1.35Z"/>
          <path class="cls-1" d="m269.54,181.26v-1.53l1.36-.26v-8.97h-2.32l-.14,1.52h-1.93v-3.49h11.35v3.49h-1.94l-.14-1.52h-2.33v8.97l1.37.26v1.53h-5.29Z"/>
          <path class="cls-1" d="m282.65,181.44c-.9,0-1.69-.2-2.37-.6s-1.2-.95-1.57-1.65-.55-1.5-.55-2.39v-.35c0-.94.17-1.77.52-2.5.35-.73.84-1.3,1.48-1.71.64-.42,1.39-.62,2.26-.62.86,0,1.58.17,2.16.51.58.34,1.03.82,1.33,1.46.3.64.45,1.4.45,2.31v1.39h-5.56l-.02.05c.04.41.14.78.31,1.11.17.32.42.58.73.76s.7.28,1.15.28.9-.06,1.31-.18c.41-.12.8-.3,1.18-.53l.69,1.57c-.39.31-.88.58-1.47.78-.59.21-1.27.31-2.03.31Zm-1.83-5.84h3.16v-.23c0-.38-.05-.71-.15-.99s-.26-.49-.49-.64c-.22-.15-.51-.23-.87-.23s-.62.09-.86.27c-.23.18-.42.42-.55.73-.13.31-.22.66-.27,1.05l.03.04Z"/>
          <path class="cls-1" d="m287.74,181.26v-1.53l1.22-.26v-5.86l-1.36-.26v-1.54h3.73l.1,1.17.02.21c.23-.51.52-.9.87-1.16s.75-.39,1.23-.39c.15,0,.32.01.5.04.18.03.34.06.48.1l-.27,2.35-1.27-.07c-.36-.02-.65.04-.88.18-.22.14-.42.34-.6.6v4.63l1.22.26v1.53h-5Z"/>
          <path class="cls-1" d="m298.28,181.44c-.94,0-1.68-.25-2.24-.76-.55-.5-.83-1.19-.83-2.06,0-.59.16-1.12.49-1.56s.8-.8,1.43-1.06c.63-.26,1.41-.38,2.34-.38h1.25v-.7c0-.45-.13-.82-.4-1.11-.27-.28-.66-.42-1.19-.42-.27,0-.52.03-.73.1-.22.07-.41.16-.59.28l-.2,1.25h-1.83l-.04-2.46c.5-.28,1.03-.51,1.61-.68s1.22-.26,1.93-.26c1.23,0,2.21.29,2.93.86.72.57,1.07,1.39,1.07,2.46v3.9c0,.13,0,.25,0,.38,0,.12.01.25.03.36l.99.14v1.53h-3.16c-.06-.16-.13-.34-.19-.52s-.11-.37-.14-.56c-.3.38-.66.69-1.07.92-.41.23-.89.35-1.45.35Zm.68-1.89c.36,0,.69-.08,1.01-.24.32-.16.57-.37.74-.63v-1.49h-1.26c-.56,0-.98.13-1.27.38-.29.26-.43.56-.43.93,0,.34.11.6.32.78s.51.28.89.28Z"/>
          <path class="cls-1" d="m305.14,184.89v-1.54l1.23-.26v-9.49l-1.36-.26v-1.54h3.71l.12,1.1c.28-.41.62-.72,1.01-.94.4-.22.87-.33,1.42-.33.76,0,1.42.21,1.96.62s.96,1,1.25,1.74c.29.75.43,1.62.43,2.61v.18c0,.93-.14,1.75-.43,2.44-.29.7-.71,1.24-1.25,1.63-.54.39-1.2.58-1.97.58-.51,0-.95-.09-1.34-.28s-.72-.45-.99-.81v2.74l1.23.26v1.54h-5.01Zm5.35-5.41c.65,0,1.13-.24,1.42-.73.29-.48.44-1.14.44-1.97v-.18c0-.6-.07-1.12-.2-1.57-.13-.45-.34-.79-.62-1.05-.28-.25-.63-.38-1.06-.38-.35,0-.66.08-.92.24-.27.16-.48.38-.63.67v4.14c.16.27.37.47.63.61.26.14.58.21.94.21Z"/>
          <path class="cls-1" d="m320.69,181.44c-.9,0-1.69-.2-2.37-.6s-1.2-.95-1.57-1.65-.55-1.5-.55-2.39v-.35c0-.94.17-1.77.52-2.5.35-.73.84-1.3,1.48-1.71.64-.42,1.39-.62,2.26-.62.86,0,1.58.17,2.16.51.58.34,1.03.82,1.33,1.46.3.64.45,1.4.45,2.31v1.39h-5.56l-.02.05c.04.41.14.78.31,1.11.17.32.42.58.73.76s.7.28,1.15.28.9-.06,1.31-.18c.41-.12.8-.3,1.18-.53l.69,1.57c-.39.31-.88.58-1.47.78-.59.21-1.27.31-2.03.31Zm-3.43-11.47v-.23l2.23-2.12h1.88l2.21,2.15v.2h-1.99l-1.16-1.26-1.2,1.26h-1.97Zm1.61,5.63h3.16v-.23c0-.38-.05-.71-.15-.99s-.26-.49-.49-.64c-.22-.15-.51-.23-.87-.23s-.62.09-.86.27c-.23.18-.42.42-.55.73-.13.31-.22.66-.27,1.05l.03.04Z"/>
          <path class="cls-1" d="m329.6,181.44c-1,0-1.78-.32-2.35-.95-.57-.63-.85-1.62-.85-2.95v-3.94l-1.04-.26v-1.54h3.59v5.76c0,.68.12,1.16.35,1.46.24.29.59.44,1.07.44.38,0,.71-.07,1-.22.29-.15.53-.36.72-.63v-5l-1.13-.26v-1.54h3.68v7.66l1.14.26v1.53h-3.37l-.17-1.2c-.3.44-.67.78-1.12,1.02-.45.24-.96.36-1.52.36Z"/>
          <path class="cls-1" d="m340.44,181.44c-.88,0-1.56-.24-2.03-.73-.48-.48-.71-1.25-.71-2.3v-4.82h-1.3v-1.79h1.3v-2.32h2.54v2.32h1.74v1.79h-1.74v4.82c0,.37.08.63.23.79.15.16.37.24.63.24.15,0,.3,0,.46-.03s.3-.04.42-.07l.22,1.84c-.26.08-.55.14-.85.19-.31.05-.61.07-.9.07Z"/>
          <path class="cls-1" d="m343.29,181.26v-1.53l1.23-.26v-5.86l-1.36-.26v-1.54h3.92v7.66l1.22.26v1.53h-5.01Zm1.15-11.46v-2.18h2.64v2.18h-2.64Z"/>
          <path class="cls-1" d="m353.6,181.44c-.91,0-1.69-.2-2.36-.61s-1.17-.97-1.53-1.69c-.35-.72-.53-1.54-.53-2.47v-.26c0-.93.18-1.76.54-2.47.36-.72.87-1.28,1.53-1.69.66-.41,1.43-.62,2.32-.62s1.58.13,2.2.4c.61.27,1.11.57,1.5.92l-.02,2.71h-1.92l-.34-1.69c-.14-.14-.32-.25-.53-.34s-.43-.13-.66-.13c-.47,0-.85.12-1.16.35-.31.23-.53.57-.69,1-.15.43-.23.95-.23,1.56v.26c0,.65.08,1.18.25,1.6s.39.72.68.92c.28.2.6.3.95.3.45,0,.81-.12,1.08-.35.27-.24.46-.57.55-1h2.19l.03.05c-.1.67-.29,1.25-.59,1.74-.29.49-.71.86-1.24,1.13s-1.21.39-2.03.39Z"/>
          <path class="cls-1" d="m363.11,181.44c-.93,0-1.73-.2-2.4-.61-.67-.41-1.18-.97-1.54-1.7-.35-.73-.53-1.56-.53-2.5v-.18c0-.94.18-1.77.53-2.5.36-.73.87-1.29,1.53-1.7s1.46-.62,2.39-.62,1.74.21,2.4.62,1.17.98,1.53,1.7c.36.72.53,1.56.53,2.5v.18c0,.94-.18,1.78-.53,2.5-.36.73-.87,1.29-1.53,1.7s-1.46.61-2.39.61Zm0-1.96c.44,0,.8-.12,1.08-.36.28-.24.49-.57.62-1,.13-.43.2-.93.2-1.5v-.18c0-.56-.07-1.05-.2-1.48-.13-.43-.34-.76-.62-1-.28-.24-.65-.36-1.1-.36s-.8.12-1.08.36-.49.58-.62,1-.2.92-.2,1.48v.18c0,.57.07,1.07.2,1.5.13.43.34.76.62,1,.29.24.65.35,1.1.35Z"/>
          <path class="cls-1" d="m203.51,202.74v-1.53l1.35-.26v-9.13l-1.35-.26v-1.54h6.06c.97,0,1.81.17,2.52.51.7.34,1.25.82,1.63,1.42.38.61.57,1.32.57,2.13s-.19,1.52-.57,2.13c-.38.61-.92,1.08-1.63,1.42-.71.33-1.54.5-2.52.5h-2.15v2.82l1.36.26v1.53h-5.27Zm3.91-6.58h2.15c.71,0,1.25-.19,1.61-.58.36-.39.55-.88.55-1.48s-.18-1.12-.55-1.52c-.36-.4-.9-.6-1.61-.6h-2.15v4.18Z"/>
          <path class="cls-1" d="m215.07,202.74v-1.53l1.23-.26v-5.86l-1.36-.26v-1.54h3.92v7.66l1.22.26v1.53h-5.01Zm1.14-11.46v-2.18h2.64v2.18h-2.64Z"/>
          <path class="cls-1" d="m220.78,202.74v-1.53l1.23-.26v-10.04l-1.36-.26v-1.54h3.92v11.84l1.23.26v1.53h-5.02Z"/>
          <path class="cls-1" d="m230.97,202.92c-.93,0-1.73-.2-2.4-.61s-1.18-.97-1.54-1.7c-.36-.73-.53-1.56-.53-2.5v-.18c0-.94.18-1.77.53-2.5s.87-1.29,1.53-1.7,1.46-.62,2.39-.62,1.74.21,2.4.62c.66.41,1.17.98,1.53,1.7.35.72.53,1.56.53,2.5v.18c0,.94-.18,1.78-.53,2.5-.36.73-.87,1.29-1.53,1.7-.66.41-1.46.61-2.39.61Zm0-1.96c.44,0,.8-.12,1.08-.36.28-.24.49-.57.62-1,.13-.43.2-.93.2-1.5v-.18c0-.56-.07-1.05-.2-1.48-.13-.43-.34-.76-.62-1-.28-.24-.65-.36-1.1-.36s-.8.12-1.08.36c-.29.24-.49.58-.62,1-.13.43-.2.92-.2,1.48v.18c0,.57.07,1.07.2,1.5.13.43.34.76.62,1,.29.24.65.35,1.1.35Z"/>
          <path class="cls-1" d="m240.2,202.92c-.88,0-1.56-.24-2.03-.73-.48-.48-.71-1.25-.71-2.3v-4.82h-1.3v-1.79h1.3v-2.32h2.54v2.32h1.74v1.79h-1.74v4.82c0,.37.08.63.23.79s.37.24.63.24c.15,0,.3,0,.46-.03s.3-.04.42-.07l.22,1.84c-.26.08-.55.14-.85.19-.31.05-.61.07-.9.07Z"/>
          <path class="cls-1" d="m247.2,202.92c-.93,0-1.73-.2-2.4-.61s-1.18-.97-1.54-1.7c-.36-.73-.53-1.56-.53-2.5v-.18c0-.94.18-1.77.53-2.5s.87-1.29,1.53-1.7,1.46-.62,2.39-.62,1.74.21,2.4.62c.66.41,1.17.98,1.53,1.7.35.72.53,1.56.53,2.5v.18c0,.94-.18,1.78-.53,2.5-.36.73-.87,1.29-1.53,1.7-.66.41-1.46.61-2.39.61Zm0-1.96c.44,0,.8-.12,1.08-.36.28-.24.49-.57.62-1,.13-.43.2-.93.2-1.5v-.18c0-.56-.07-1.05-.2-1.48-.13-.43-.34-.76-.62-1-.28-.24-.65-.36-1.1-.36s-.8.12-1.08.36c-.29.24-.49.58-.62,1-.13.43-.2.92-.2,1.48v.18c0,.57.07,1.07.2,1.5.13.43.34.76.62,1,.29.24.65.35,1.1.35Z"/>
        </g>
      </g>
      <g id="circle-3" data-name="circle">
        <ellipse id="circle-base-3" data-name="circle-base" class="cls-2" cx="141.34" cy="186.51" rx="51.78" ry="51.57"/>
        <path id="circle-color-3" data-name="circle-color" class="cls-1" d="m141.34,143.77c-21.66,0-39.56,15.99-42.48,36.76h-30.51v11.13h30.4c2.55,21.18,20.64,37.6,42.59,37.6,23.7,0,42.91-19.14,42.91-42.74s-19.21-42.74-42.91-42.74Zm0,74.69c-17.71,0-32.07-14.3-32.07-31.94s14.36-31.94,32.07-31.94,32.07,14.3,32.07,31.94-14.36,31.94-32.07,31.94Z"/>
        <g>
          <path class="cls-3" d="m125.36,180.5h-.92v-11.32h6.23v.82h-5.31v4.66h5.01v.82h-5.01v5.01Z"/>
          <path class="cls-3" d="m139.23,180.5l-1.51-3.9h-4.69l-1.52,3.9h-.95l4.45-11.36h.84l4.34,11.36h-.97Zm-3.3-8.81c-.06-.15-.15-.38-.25-.7-.11-.32-.2-.6-.27-.84-.08.29-.17.57-.27.84-.09.27-.17.51-.24.71l-1.57,4.06h4.1l-1.51-4.07Z"/>
          <path class="cls-3" d="m148.06,177.56c0,.68-.17,1.25-.51,1.71-.34.47-.8.81-1.4,1.05-.59.23-1.26.35-2.01.35-.69,0-1.28-.05-1.79-.14-.51-.09-.94-.22-1.3-.36v-.9c.39.16.86.3,1.4.41.54.12,1.12.17,1.74.17.87,0,1.57-.19,2.12-.56.54-.37.82-.92.82-1.66,0-.44-.1-.81-.31-1.1s-.52-.54-.95-.76c-.43-.22-.97-.44-1.64-.66-.63-.21-1.18-.45-1.63-.71-.45-.26-.8-.59-1.05-.99-.24-.4-.36-.9-.36-1.5s.16-1.13.47-1.56.74-.75,1.28-.97c.54-.22,1.17-.33,1.86-.33.55,0,1.07.05,1.57.16.5.11.97.25,1.41.44l-.3.79c-.91-.38-1.81-.57-2.71-.57-.78,0-1.42.17-1.91.52-.49.34-.74.85-.74,1.51,0,.49.11.87.32,1.17s.52.54.92.74c.4.2.89.4,1.47.6.67.23,1.24.48,1.72.73.48.25.85.57,1.12.96s.4.88.4,1.48Z"/>
          <path class="cls-3" d="m156.65,180.5h-6.21v-11.32h6.21v.82h-5.29v4.14h4.99v.82h-4.99v4.71h5.29v.82Z"/>
        </g>
        <g>
          <path class="cls-3" d="m140.07,195.89c0,1.97-.21,3.66-.63,5.06-.42,1.4-1.1,2.48-2.03,3.24-.93.75-2.19,1.13-3.76,1.13-2.21,0-3.83-.83-4.85-2.5s-1.54-3.98-1.54-6.92c0-1.99.21-3.68.62-5.08.41-1.4,1.09-2.48,2.03-3.24.94-.75,2.19-1.13,3.75-1.13,2.19,0,3.81.83,4.85,2.49s1.57,3.98,1.57,6.96Zm-8.96,0c0,2.09.18,3.66.54,4.71.36,1.05,1.03,1.58,2,1.58s1.63-.52,2-1.57c.38-1.04.56-2.62.56-4.73s-.19-3.66-.56-4.73c-.38-1.06-1.04-1.59-2-1.59s-1.64.53-2,1.59c-.36,1.06-.54,2.64-.54,4.73Z"/>
          <path class="cls-3" d="m154.87,205.06h-12.81v-2.7l4.6-4.65c.92-.96,1.67-1.76,2.23-2.4s.98-1.22,1.23-1.75.39-1.08.39-1.68c0-.74-.2-1.28-.6-1.64-.4-.36-.95-.54-1.63-.54s-1.39.16-2.05.49c-.67.33-1.37.79-2.11,1.39l-2.11-2.49c.53-.46,1.09-.89,1.68-1.28.59-.39,1.27-.71,2.05-.96.78-.25,1.72-.37,2.81-.37,1.2,0,2.23.22,3.09.65.86.44,1.53,1.03,2,1.77.47.74.71,1.59.71,2.53,0,1.01-.2,1.94-.6,2.77-.4.84-.98,1.67-1.75,2.49-.76.82-1.68,1.73-2.76,2.72l-2.36,2.21v.18h7.99v3.26Z"/>
        </g>
      </g>
      <g id="bullet-3" data-name="bullet">
        <ellipse id="bullet-base-3" data-name="bullet-base" class="cls-2" cx="52.69" cy="187.27" rx="17.59" ry="17.52"/>
        <ellipse id="bullet-color-3" data-name="bullet-color" class="cls-1" cx="52.69" cy="187.27" rx="8.47" ry="8.44"/>
      </g>
    </g>
    <g id="fase1">
      <g id="label-4" data-name="label">
        <path id="label-base-4" data-name="label-base" class="cls-8" d="m140.8,30.75h269.1c22.67,0,41.07,18.4,41.07,41.07h0c0,22.67-18.4,41.07-41.07,41.07H140.8V30.75h0Z"/>
        <g>
          <path class="cls-6" d="m203.51,75.05v-1.53l1.35-.26v-9.13l-1.35-.26v-1.54h6.06c.97,0,1.81.17,2.52.51.7.34,1.25.82,1.63,1.42.38.61.57,1.32.57,2.13s-.19,1.52-.57,2.13c-.38.61-.92,1.08-1.63,1.42-.71.33-1.54.5-2.52.5h-2.15v2.82l1.36.26v1.53h-5.27Zm3.91-6.58h2.15c.71,0,1.25-.19,1.61-.58.36-.39.55-.88.55-1.48s-.18-1.12-.55-1.52c-.36-.4-.9-.6-1.61-.6h-2.15v4.18Z"/>
          <path class="cls-6" d="m215.34,75.05v-1.53l1.22-.26v-5.86l-1.35-.26v-1.54h3.73l.1,1.17.02.21c.23-.51.52-.9.87-1.16s.75-.39,1.23-.39c.15,0,.32.01.5.04.18.03.34.06.48.1l-.27,2.35-1.27-.07c-.36-.02-.65.04-.88.18-.22.14-.42.34-.6.6v4.63l1.22.26v1.53h-5Z"/>
          <path class="cls-6" d="m222.94,75.05v-1.53l1.23-.26v-5.86l-1.36-.26v-1.54h3.92v7.66l1.22.26v1.53h-5.01Zm1.14-11.46v-2.18h2.64v2.18h-2.64Z"/>
          <path class="cls-6" d="m228.69,75.05v-1.53l1.23-.26v-5.86l-1.36-.26v-1.54h3.73l.1,1.25c.3-.45.68-.81,1.14-1.05s.99-.37,1.59-.37,1.13.13,1.56.4c.43.27.76.67.97,1.21.29-.51.67-.9,1.14-1.19.47-.29,1.01-.43,1.64-.43.93,0,1.67.32,2.21.95.54.64.81,1.6.81,2.9v3.99l1.23.26v1.53h-4.89v-1.53l1.1-.26v-3.99c0-.7-.12-1.18-.35-1.46-.23-.27-.56-.41-1-.41-.4,0-.73.11-1,.34-.27.22-.47.52-.59.89v4.63l1.03.26v1.53h-4.61v-1.53l1.03-.26v-3.99c0-.68-.12-1.16-.35-1.44-.23-.28-.57-.42-1.02-.42-.36,0-.67.07-.94.22-.26.15-.48.36-.65.63v5.01l1.1.26v1.53h-4.88Z"/>
          <path class="cls-6" d="m249.98,75.23c-.9,0-1.69-.2-2.37-.6-.68-.4-1.2-.95-1.57-1.65-.37-.7-.56-1.5-.56-2.39v-.35c0-.94.17-1.77.52-2.5.35-.73.84-1.3,1.48-1.71.64-.42,1.39-.62,2.26-.62.86,0,1.58.17,2.16.51s1.03.82,1.33,1.46c.3.64.45,1.4.45,2.31v1.39h-5.56l-.02.05c.03.41.14.78.31,1.11.17.32.42.58.73.76.31.18.7.28,1.15.28s.9-.06,1.31-.18c.41-.12.8-.3,1.18-.53l.69,1.57c-.39.31-.88.58-1.47.78-.59.21-1.27.31-2.03.31Zm-1.83-5.84h3.16v-.23c0-.38-.05-.71-.15-.99s-.27-.49-.49-.64c-.22-.15-.51-.23-.87-.23s-.62.09-.86.27-.42.42-.55.73c-.13.31-.22.66-.27,1.05l.03.04Z"/>
          <path class="cls-6" d="m254.8,75.05v-1.53l1.23-.26v-5.86l-1.36-.26v-1.54h3.92v7.66l1.22.26v1.53h-5.01Zm1.14-11.46v-2.18h2.64v2.18h-2.64Z"/>
          <path class="cls-6" d="m260.85,75.05v-1.53l1.22-.26v-5.86l-1.35-.26v-1.54h3.73l.1,1.17.02.21c.23-.51.52-.9.87-1.16s.76-.39,1.23-.39c.15,0,.32.01.5.04.18.03.34.06.48.1l-.27,2.35-1.27-.07c-.36-.02-.65.04-.88.18-.22.14-.42.34-.6.6v4.63l1.22.26v1.53h-5Z"/>
          <path class="cls-6" d="m272.73,75.23c-.93,0-1.73-.2-2.4-.61-.67-.41-1.18-.97-1.54-1.7-.35-.73-.53-1.56-.53-2.5v-.18c0-.94.18-1.77.53-2.5.36-.73.87-1.29,1.53-1.7s1.46-.62,2.39-.62,1.74.21,2.4.62,1.17.98,1.53,1.7c.36.72.53,1.56.53,2.5v.18c0,.94-.18,1.78-.53,2.5-.36.73-.87,1.29-1.53,1.7s-1.46.61-2.39.61Zm0-1.96c.44,0,.8-.12,1.08-.36.28-.24.49-.57.62-1,.13-.43.2-.93.2-1.5v-.18c0-.56-.07-1.05-.2-1.48-.13-.43-.34-.76-.62-1-.28-.24-.65-.36-1.1-.36s-.8.12-1.08.36-.49.58-.62,1-.2.92-.2,1.48v.18c0,.57.07,1.07.2,1.5.13.43.34.76.62,1,.29.24.65.35,1.1.35Z"/>
          <path class="cls-6" d="m282.37,75.23c-.71,0-1.36-.07-1.97-.2-.61-.13-1.19-.33-1.75-.58l-.03-2.67h1.77l.34,1.36c.2.1.42.18.65.24.24.06.51.09.81.09.57,0,.97-.09,1.21-.28.23-.19.35-.42.35-.7,0-.26-.12-.49-.37-.69-.25-.2-.74-.38-1.48-.53-1.12-.23-1.94-.59-2.47-1.08-.53-.49-.79-1.12-.79-1.88,0-.52.13-1,.4-1.43.27-.43.67-.78,1.21-1.04s1.24-.39,2.09-.39c.71,0,1.36.07,1.95.21.59.14,1.09.32,1.49.54l.03,2.59h-1.76l-.27-1.24c-.16-.12-.34-.2-.55-.26-.21-.06-.45-.09-.72-.09-.45,0-.79.09-1.03.27-.24.18-.36.41-.36.7,0,.16.04.31.13.45.08.14.25.27.5.39.25.12.61.24,1.09.35,1.17.27,2.02.62,2.56,1.07s.8,1.07.8,1.87c0,.88-.32,1.59-.96,2.13-.64.54-1.59.81-2.86.81Z"/>
          <path class="cls-6" d="m295.45,75.23c-.88,0-1.56-.24-2.03-.73-.48-.48-.71-1.25-.71-2.3v-4.82h-1.3v-1.79h1.3v-2.32h2.54v2.32h1.74v1.79h-1.74v4.82c0,.37.08.63.23.79.15.16.37.24.63.24.15,0,.3,0,.46-.03s.3-.04.42-.07l.22,1.84c-.26.08-.55.14-.85.19-.31.05-.61.07-.9.07Z"/>
          <path class="cls-6" d="m302.47,75.23c-.9,0-1.69-.2-2.37-.6s-1.2-.95-1.57-1.65-.55-1.5-.55-2.39v-.35c0-.94.17-1.77.52-2.5.35-.73.84-1.3,1.48-1.71.64-.42,1.39-.62,2.26-.62.86,0,1.58.17,2.16.51.58.34,1.03.82,1.33,1.46.3.64.45,1.4.45,2.31v1.39h-5.56l-.02.05c.04.41.14.78.31,1.11.17.32.42.58.73.76s.7.28,1.15.28.9-.06,1.31-.18c.41-.12.8-.3,1.18-.53l.69,1.57c-.39.31-.88.58-1.47.78-.59.21-1.27.31-2.03.31Zm-1.83-5.84h3.16v-.23c0-.38-.05-.71-.15-.99s-.26-.49-.49-.64c-.22-.15-.51-.23-.87-.23s-.62.09-.86.27c-.23.18-.42.42-.55.73-.13.31-.22.66-.27,1.05l.03.04Z"/>
          <path class="cls-6" d="m311.42,75.23c-.71,0-1.36-.07-1.97-.2-.61-.13-1.19-.33-1.75-.58l-.03-2.67h1.77l.34,1.36c.2.1.42.18.65.24.24.06.51.09.81.09.57,0,.97-.09,1.21-.28.23-.19.35-.42.35-.7,0-.26-.12-.49-.37-.69-.25-.2-.74-.38-1.48-.53-1.12-.23-1.94-.59-2.47-1.08-.53-.49-.79-1.12-.79-1.88,0-.52.13-1,.4-1.43.27-.43.67-.78,1.21-1.04s1.24-.39,2.09-.39c.71,0,1.36.07,1.95.21.59.14,1.09.32,1.49.54l.03,2.59h-1.76l-.27-1.24c-.16-.12-.34-.2-.55-.26-.21-.06-.45-.09-.72-.09-.45,0-.79.09-1.03.27-.24.18-.36.41-.36.7,0,.16.04.31.13.45.08.14.25.27.5.39.25.12.61.24,1.09.35,1.17.27,2.02.62,2.56,1.07s.8,1.07.8,1.87c0,.88-.32,1.59-.96,2.13-.64.54-1.59.81-2.86.81Z"/>
          <path class="cls-6" d="m320.12,75.23c-.88,0-1.56-.24-2.03-.73-.48-.48-.71-1.25-.71-2.3v-4.82h-1.3v-1.79h1.3v-2.32h2.54v2.32h1.74v1.79h-1.74v4.82c0,.37.08.63.23.79.15.16.37.24.63.24.15,0,.3,0,.46-.03s.3-.04.42-.07l.22,1.84c-.26.08-.55.14-.85.19-.31.05-.61.07-.9.07Z"/>
          <path class="cls-6" d="m327.13,75.23c-.9,0-1.69-.2-2.37-.6s-1.2-.95-1.57-1.65-.55-1.5-.55-2.39v-.35c0-.94.17-1.77.52-2.5.35-.73.84-1.3,1.48-1.71.64-.42,1.39-.62,2.26-.62.86,0,1.58.17,2.16.51.58.34,1.03.82,1.33,1.46.3.64.45,1.4.45,2.31v1.39h-5.56l-.02.05c.04.41.14.78.31,1.11.17.32.42.58.73.76s.7.28,1.15.28.9-.06,1.31-.18c.41-.12.8-.3,1.18-.53l.69,1.57c-.39.31-.88.58-1.47.78-.59.21-1.27.31-2.03.31Zm-1.83-5.84h3.16v-.23c0-.38-.05-.71-.15-.99s-.26-.49-.49-.64c-.22-.15-.51-.23-.87-.23s-.62.09-.86.27c-.23.18-.42.42-.55.73-.13.31-.22.66-.27,1.05l.03.04Z"/>
          <path class="cls-6" d="m336.08,75.23c-.71,0-1.36-.07-1.97-.2-.61-.13-1.19-.33-1.75-.58l-.03-2.67h1.77l.34,1.36c.2.1.42.18.65.24.24.06.51.09.81.09.57,0,.97-.09,1.21-.28.23-.19.35-.42.35-.7,0-.26-.12-.49-.37-.69-.25-.2-.74-.38-1.48-.53-1.12-.23-1.94-.59-2.47-1.08-.53-.49-.79-1.12-.79-1.88,0-.52.13-1,.4-1.43.27-.43.67-.78,1.21-1.04s1.24-.39,2.09-.39c.71,0,1.36.07,1.95.21.59.14,1.09.32,1.49.54l.03,2.59h-1.76l-.27-1.24c-.16-.12-.34-.2-.55-.26-.21-.06-.45-.09-.72-.09-.45,0-.79.09-1.03.27-.24.18-.36.41-.36.7,0,.16.04.31.13.45.08.14.25.27.5.39.25.12.61.24,1.09.35,1.17.27,2.02.62,2.56,1.07s.8,1.07.8,1.87c0,.88-.32,1.59-.96,2.13-.64.54-1.59.81-2.86.81Z"/>
        </g>
      </g>
      <g id="circle-4" data-name="circle">
        <ellipse id="circle-base-4" data-name="circle-base" class="cls-2" cx="141.34" cy="71.67" rx="51.78" ry="51.57"/>
        <path id="circle-color-4" data-name="circle-color" class="cls-6" d="m141.34,28.93c-21.66,0-39.56,15.99-42.48,36.76h-30.51v11.13h30.4c2.55,21.18,20.64,37.6,42.59,37.6,23.7,0,42.91-19.14,42.91-42.74s-19.21-42.74-42.91-42.74Zm0,74.69c-17.71,0-32.07-14.3-32.07-31.94s14.36-31.94,32.07-31.94,32.07,14.3,32.07,31.94-14.36,31.94-32.07,31.94Z"/>
        <g>
          <path class="cls-3" d="m125.36,65.66h-.92v-11.32h6.23v.82h-5.31v4.66h5.01v.82h-5.01v5.01Z"/>
          <path class="cls-3" d="m139.23,65.66l-1.51-3.9h-4.69l-1.52,3.9h-.95l4.45-11.36h.84l4.34,11.36h-.97Zm-3.3-8.81c-.06-.15-.15-.38-.25-.7-.11-.32-.2-.6-.27-.84-.08.29-.17.57-.27.84-.09.27-.17.51-.24.71l-1.57,4.06h4.1l-1.51-4.07Z"/>
          <path class="cls-3" d="m148.06,62.71c0,.68-.17,1.25-.51,1.71-.34.47-.8.81-1.4,1.05-.59.23-1.26.35-2.01.35-.69,0-1.28-.05-1.79-.14-.51-.09-.94-.22-1.3-.36v-.9c.39.16.86.3,1.4.41.54.12,1.12.17,1.74.17.87,0,1.57-.19,2.12-.56.54-.37.82-.92.82-1.66,0-.44-.1-.81-.31-1.1s-.52-.54-.95-.76c-.43-.22-.97-.44-1.64-.66-.63-.21-1.18-.45-1.63-.71-.45-.26-.8-.59-1.05-.99-.24-.4-.36-.9-.36-1.5s.16-1.13.47-1.56.74-.75,1.28-.97c.54-.22,1.17-.33,1.86-.33.55,0,1.07.05,1.57.16.5.11.97.25,1.41.44l-.3.79c-.91-.38-1.81-.57-2.71-.57-.78,0-1.42.17-1.91.52-.49.34-.74.85-.74,1.51,0,.49.11.87.32,1.17s.52.54.92.74c.4.2.89.4,1.47.6.67.23,1.24.48,1.72.73.48.25.85.57,1.12.96s.4.88.4,1.48Z"/>
          <path class="cls-3" d="m156.65,65.66h-6.21v-11.32h6.21v.82h-5.29v4.14h4.99v.82h-4.99v4.71h5.29v.82Z"/>
        </g>
        <g>
          <path class="cls-3" d="m140.07,81.05c0,1.97-.21,3.66-.63,5.06-.42,1.4-1.1,2.48-2.03,3.24-.93.75-2.19,1.13-3.76,1.13-2.21,0-3.83-.83-4.85-2.5s-1.54-3.98-1.54-6.92c0-1.99.21-3.68.62-5.08.41-1.4,1.09-2.48,2.03-3.24.94-.75,2.19-1.13,3.75-1.13,2.19,0,3.81.83,4.85,2.49s1.57,3.98,1.57,6.96Zm-8.96,0c0,2.09.18,3.66.54,4.71.36,1.05,1.03,1.58,2,1.58s1.63-.52,2-1.57c.38-1.04.56-2.62.56-4.73s-.19-3.66-.56-4.73c-.38-1.06-1.04-1.59-2-1.59s-1.64.53-2,1.59c-.36,1.06-.54,2.64-.54,4.73Z"/>
          <path class="cls-3" d="m151.63,90.21h-3.88v-10.61c0-.44.01-1.03.04-1.75.03-.72.05-1.35.06-1.9-.09.1-.27.29-.55.55-.28.27-.54.5-.78.71l-2.11,1.69-1.88-2.34,5.91-4.7h3.18v18.34Z"/>
        </g>
      </g>
      <g id="bullet-4" data-name="bullet">
        <ellipse id="bullet-base-4" data-name="bullet-base" class="cls-2" cx="52.69" cy="72.43" rx="17.59" ry="17.52"/>
        <ellipse id="bullet-color-4" data-name="bullet-color" class="cls-6" cx="52.69" cy="72.43" rx="8.47" ry="8.44"/>
      </g>
    </g>
  </g>
  <g id="popover4">
    <circle class="cls-7" cx="414.12" cy="418.38" r="16.78"/>
    <path class="cls-5" d="m413.3,426.72v-7.74h-7.03v-1.32h7.03v-7.62h1.42v7.62h7.25v1.32h-7.25v7.74h-1.42Z"/>
  </g>
  <g id="popover3">
    <circle class="cls-7" cx="414.12" cy="301.79" r="16.78"/>
    <path class="cls-5" d="m413.3,310.13v-7.74h-7.03v-1.32h7.03v-7.62h1.42v7.62h7.25v1.32h-7.25v7.74h-1.42Z"/>
  </g>
  <g id="popover2">
    <circle class="cls-7" cx="414.12" cy="187.2" r="16.78"/>
    <path class="cls-5" d="m413.3,195.54v-7.74h-7.03v-1.32h7.03v-7.62h1.42v7.62h7.25v1.32h-7.25v7.74h-1.42Z"/>
  </g>
  <g id="popoevr1">
    <circle class="cls-7" cx="414.12" cy="72.15" r="16.78"/>
    <path class="cls-5" d="m413.3,80.49v-7.74h-7.03v-1.32h7.03v-7.62h1.42v7.62h7.25v1.32h-7.25v7.74h-1.42Z"/>
  </g>
</svg>