<?xml version="1.0" encoding="utf-8"?>
<!-- Generator: Adobe Illustrator 22.0.1, SVG Export Plug-In . SVG Version: 6.00 Build 0)  -->
<svg version="1.1" id="Camada_1" xmlns="http://www.w3.org/2000/svg" xmlns:xlink="http://www.w3.org/1999/xlink" x="0px" y="0px"
	 viewBox="0 0 500 148.2" style="enable-background:new 0 0 500 148.2;" xml:space="preserve">
<style type="text/css">
	.st0{fill:url(#SVGID_1_);}
	.st1{fill:#FFFFFF;stroke:url(#SVGID_2_);stroke-width:5;stroke-miterlimit:10;}
	.st2{fill:#BDBDFA;}
	.st3{fill:url(#SVGID_3_);}
	.st4{fill:#FFFFFF;}
	.st5{font-family:'OpenSans-Semibold';}
	.st6{font-size:31.654px;}
</style>
<g>
	
		<linearGradient id="SVGID_1_" gradientUnits="userSpaceOnUse" x1="495" y1="74.55" x2="74.8" y2="74.55" gradientTransform="matrix(1 0 0 -1 0 150)">
		<stop  offset="0" style="stop-color:#9895EF"/>
		<stop  offset="1" style="stop-color:#7F79C2"/>
	</linearGradient>
	<rect x="74.8" y="34.7" class="st0" width="420.2" height="81.5"/>
	
		<linearGradient id="SVGID_2_" gradientUnits="userSpaceOnUse" x1="117.7" y1="77.5" x2="2.3" y2="77.5" gradientTransform="matrix(1 0 0 -1 0 150)">
		<stop  offset="0" style="stop-color:#9895EF"/>
		<stop  offset="1" style="stop-color:#7F79C2"/>
	</linearGradient>
	<circle class="st1" cx="60" cy="72.5" r="55.2"/>
	<g>
		<path class="st2" d="M78,15.8l0.1-0.6l-16.4-9l-0.2,0.7L49.8,12c-2.8,9-6,17.2-20,23.3v12.9L43.9,56v74.4l16.4,9l18.2-8V15.6
			L78,15.8z"/>
		<g>
			<g>
				<path d="M46.2,44.2c14.1-6.2,17.2-14.3,20-23.3l12.2-5.4v115.8l-18.2,8V50.9l-14.1,6.2V44.2H46.2z"/>
			</g>
			<g>
				
					<linearGradient id="SVGID_3_" gradientUnits="userSpaceOnUse" x1="-405.2811" y1="-40.0168" x2="-373.0214" y2="-40.0168" gradientTransform="matrix(1 0 0 -1 451.475 37.3832)">
					<stop  offset="0" style="stop-color:#9895EF"/>
					<stop  offset="1" style="stop-color:#7F79C2"/>
				</linearGradient>
				<path class="st3" d="M46.2,44.2c14.1-6.2,17.2-14.3,20-23.3l12.2-5.4v115.8l-18.2,8V50.9l-14.1,6.2V44.2H46.2z"/>
			</g>
		</g>
	</g>
</g>
<polygon class="st4" points="482.9,78.9 468.3,68.1 468.3,89.7 "/>
<text transform="matrix(1 0 0 1 190.001 88.7)" class="st4 st5 st6">Primeira fase</text>
</svg>
